<svg width="130" height="130" viewBox="0 0 130 130" fill="none" xmlns="http://www.w3.org/2000/svg">
<path fill-rule="evenodd" clip-rule="evenodd" d="M41.4113 29.4292C41.5511 29.1869 41.6659 28.954 41.7374 28.749C42.5513 26.3819 42.9613 23.931 43.5825 21.5142C45.3407 14.674 45.0177 7.36169 42.4736 0.785541C42.2282 0.151845 41.5138 -0.1619 40.8801 0.0835021C40.2464 0.328904 39.9326 1.04022 40.178 1.67392C42.5388 7.7748 42.8308 14.5591 41.2 20.9023C40.5943 23.2569 40.1997 25.6426 39.4076 27.9506C39.2896 28.2954 38.9479 28.7303 38.6746 29.1496C38.3795 29.6094 38.1372 30.0567 38.0378 30.4139C37.8732 31.0041 37.9788 31.4949 38.2397 31.8708C38.4261 32.1379 38.7088 32.3834 39.1654 32.5138C39.3518 32.5666 39.6748 32.6039 40.119 32.5045C40.7962 32.3554 42.222 31.7807 44.092 31.029C47.1549 29.7926 51.4915 28.0655 55.595 27.1771C58.167 26.618 60.6396 26.3757 62.5935 26.8789C63.252 27.0498 63.923 26.6521 64.0939 25.9936C64.2647 25.3381 63.8671 24.664 63.2086 24.4932C60.9409 23.9092 58.0644 24.1205 55.073 24.7697C50.8297 25.6923 46.338 27.4691 43.1695 28.7458C42.5607 28.9912 41.9518 29.2273 41.4113 29.4292Z" fill="black"/>
<path fill-rule="evenodd" clip-rule="evenodd" d="M44.3842 28.3628C46.9252 16.3972 52.9888 10.0477 59.9595 8.4604C70.4496 6.07161 82.6048 14.3967 87.0687 29.6054C98.2391 67.6644 71.0523 107.084 41.3525 127.347C40.7902 127.732 40.6473 128.496 41.0294 129.058C41.4115 129.621 42.1787 129.764 42.7409 129.381C73.2329 108.578 100.901 67.9875 89.4325 28.9127C84.5338 12.2222 70.9248 3.43743 59.4127 6.05919C51.7151 7.81428 44.7818 14.6359 41.9768 27.8503C41.837 28.5151 42.2626 29.1705 42.9243 29.3103C43.589 29.4532 44.2444 29.0276 44.3842 28.3628Z" fill="black"/>
</svg>
