<svg width="254" height="187" viewBox="0 0 254 187" fill="none" xmlns="http://www.w3.org/2000/svg">
<path fill-rule="evenodd" clip-rule="evenodd" d="M95.5186 35.1369C95.4077 35.1105 95.2968 35.0788 95.1911 35.0471C93.7646 34.5769 91.7779 33.6945 89.4109 32.7858C83.5938 30.5456 75.5947 28.2102 67.8332 30.7833C62.6185 32.511 57.4776 36.4314 53.1822 44.1505C51.1956 47.7327 51.1691 51.69 52.2997 55.5575C53.9006 61.0576 57.8527 66.3622 61.3398 69.9496C62.74 71.3867 65.9999 73.6957 68.0921 75.4604C10.1165 72.6919 -25.1084 146.708 21.6346 186.683C22.1893 187.158 23.024 187.09 23.4995 186.54C23.9697 185.985 23.9064 185.151 23.3517 184.675C-21.9647 145.916 13.1809 73.8172 69.8779 78.2184C70.9134 78.2976 71.4788 77.9595 71.7483 77.6794C72.1392 77.2673 72.3189 76.7231 72.0812 76.0203C71.9015 75.4973 71.1618 74.6044 70.0258 73.6375C67.9917 71.8992 64.6473 69.5587 63.2314 68.1057C60.0084 64.793 56.3152 59.9058 54.8358 54.8231C53.9059 51.6372 53.8584 48.3773 55.491 45.4344C59.3691 38.4602 63.9551 34.8516 68.6679 33.2877C75.7954 30.9259 83.1236 33.1978 88.4652 35.2478C91.313 36.3468 93.6324 37.3929 95.1223 37.7786C96.1209 38.0375 96.8817 38.0005 97.3678 37.7998C97.6161 37.6941 98.1076 37.3982 98.2238 36.6374C98.3348 35.8977 97.9385 32.5639 97.9332 32.0038C97.8434 16.687 108.828 6.66416 123.252 3.76881C147.423 -1.08142 161.795 10.5687 163.575 25.2515C165.134 38.0904 157.113 52.9528 138.051 60.8885C137.427 61.0787 136.798 61.269 136.17 61.4539C134.046 62.0826 128.551 63.8261 127.817 64.1537C126.792 64.6081 126.955 65.5749 126.987 65.7176C127.072 66.061 127.283 66.5577 128.012 66.7057C128.081 66.7215 128.445 66.7532 129.132 66.5841C132.677 65.7018 135.953 64.6186 138.965 63.3717C142.24 62.3784 145.5 61.3588 148.824 60.5187C162.46 57.0792 176.52 54.3741 190.621 55.9115C206.709 57.6604 227.289 66.135 239.805 78.7256C245.934 84.8914 250.124 92.0399 250.768 99.8965C251.418 107.748 248.502 116.259 240.598 125.157C240.112 125.701 240.164 126.536 240.709 127.022C241.253 127.508 242.087 127.455 242.574 126.911C251.075 117.337 254.097 108.128 253.399 99.6798C252.707 91.2315 248.269 83.4965 241.675 76.8658C228.752 63.8631 207.518 55.0925 190.907 53.2855C176.974 51.7692 163.089 54.2631 149.595 57.6022C162.36 48.6679 167.543 36.0192 166.196 24.9344C164.267 9.01533 148.935 -4.0771 122.729 1.17996C107.031 4.32891 95.1964 15.3449 95.2915 32.0195C95.2967 32.3471 95.4235 34.0009 95.5186 35.1369Z" fill="black"/>
</svg>
