<svg width="100" height="100" viewBox="0 0 100 100" fill="none" xmlns="http://www.w3.org/2000/svg">
<path fill-rule="evenodd" clip-rule="evenodd" d="M21.926 37.8617C20.2945 37.8296 17.5779 37.3151 15.0906 37.1624C12.9319 37.0302 10.9023 37.2022 9.50394 37.815C8.12283 38.4181 7.11731 39.4914 6.4165 40.8344C5.70806 42.2043 5.34152 43.8864 4.99393 45.2045C3.53606 50.7454 2.58952 56.4226 1.30163 62.0001C0.967707 63.4238 1.85642 64.8539 3.28013 65.1878C4.71268 65.5214 6.13375 64.624 6.46768 63.2003C7.74914 57.6762 8.68903 52.0438 10.1316 46.5567C10.3583 45.6959 10.5578 44.6325 10.9488 43.6846C11.1075 43.2787 11.2386 42.8477 11.6207 42.6797C12.4116 42.3426 13.5564 42.3879 14.7736 42.4655C17.341 42.6234 20.1461 43.1427 21.8306 43.1724C23.2937 43.2034 24.5072 42.032 24.5293 40.5693C24.5603 39.1062 23.3979 37.8923 21.926 37.8617Z" fill="black"/>
<path fill-rule="evenodd" clip-rule="evenodd" d="M21.2203 49.3672C17.226 49.5842 13.1503 49.5656 9.14474 49.5351C7.68245 49.5218 6.47801 50.7017 6.46475 52.1639C6.46073 53.6347 7.63136 54.8305 9.10249 54.8433C13.2145 54.8779 17.4053 54.8913 21.5056 54.6695C22.9727 54.5939 24.0938 53.3382 24.0095 51.8715C23.9343 50.4132 22.6786 49.2921 21.2203 49.3672Z" fill="black"/>
<path fill-rule="evenodd" clip-rule="evenodd" d="M27.6931 43.676C27.5034 45.1552 27.2058 47.3745 27.0961 47.8845C26.1521 52.2593 25.2079 56.6254 24.2101 60.9849C23.8766 62.4174 24.7738 63.8383 26.1975 64.1722C27.6296 64.4969 29.0511 63.6084 29.3846 62.1758C30.39 57.7894 31.3423 53.4053 32.285 49.004C32.4606 48.1899 33.0068 44.6128 33.1474 43.0295C33.2338 42.0068 33.0517 41.3154 32.981 41.1237C32.7005 40.41 32.2404 40.0322 31.8579 39.8016C31.0839 39.3407 30.2201 39.2382 29.2677 39.7245C29.1034 39.8117 28.1432 40.3248 27.6517 42.1809C27.5155 42.692 27.5388 43.2047 27.6931 43.676Z" fill="black"/>
<path fill-rule="evenodd" clip-rule="evenodd" d="M39.9458 54.3925C43.6504 52.6739 46.3479 48.8749 46.8462 45.4151C47.1688 43.1591 46.6299 41.0489 45.1849 39.4668C43.8801 38.0467 41.7492 36.9652 38.4445 36.956C36.7612 36.9528 35.1752 37.5299 33.6365 38.1757C31.8636 38.9295 30.0662 39.9237 28.6843 41.2887C27.6415 42.3194 27.6383 44.0027 28.669 45.0455C29.6998 46.0883 31.383 46.0914 32.4258 45.0607C33.3243 44.1695 34.5371 43.565 35.7016 43.0691C36.5796 42.7015 37.4632 42.2627 38.438 42.2715C39.9618 42.2731 40.9737 42.5106 41.4149 43.2524C41.7894 43.8909 41.6502 44.73 41.3686 45.549C40.757 47.2954 39.2581 49.0112 37.3506 49.7269C35.5556 50.3843 33.9302 50.2899 32.0761 50.2324C29.778 50.1509 29.3705 51.9057 29.2748 52.3352C29.1354 52.9706 29.0933 53.9912 30.1184 54.9102C30.2566 55.0279 30.5596 55.2621 31.0201 55.4538C31.3636 55.6065 32.0826 55.8309 32.3904 55.9763C33.2045 56.3468 34.0384 56.7605 34.7959 57.2488C37.1868 58.7878 39.3989 60.6806 40.9528 63.0993C41.7351 64.3305 43.3815 64.6896 44.6124 63.8984C45.8524 63.1156 46.2116 61.4694 45.4203 60.2386C43.9705 57.9658 42.0667 56.0324 39.9458 54.3925Z" fill="black"/>
<path fill-rule="evenodd" clip-rule="evenodd" d="M71.8439 36.1447C69.6587 36.0137 66.3367 35.2345 63.2944 35.1513C60.6511 35.0765 58.2004 35.5334 56.4416 36.7916C54.3653 38.2768 52.9996 40.589 52.1196 43.2512C51.0539 46.5065 50.7313 50.3216 50.176 53.1107C49.9096 54.4605 49.5199 56.0195 49.62 57.4412C49.7116 58.8721 50.2151 60.2048 51.3555 61.3223C52.8757 62.8035 55.0093 63.5568 57.3758 63.777C60.1336 64.0326 63.2133 63.5737 65.384 63.3864C66.8487 63.2578 67.924 61.9688 67.7954 60.5041C67.6672 59.0483 66.3778 57.964 64.9219 58.0922C63.2985 58.2369 61.0993 58.5762 58.9808 58.5485C57.4827 58.528 55.9986 58.427 55.0628 57.5217C54.7477 57.2171 54.8959 56.7762 54.9482 56.3663C55.0466 55.6089 55.2508 54.8378 55.3875 54.1406C55.8271 51.9236 56.0943 49.0324 56.7601 46.3357C57.2761 44.2393 57.9728 42.2233 59.5259 41.1162C60.7527 40.2366 62.6282 40.3729 64.4963 40.5449C67.085 40.7816 69.7145 41.3352 71.5441 41.4381C73.0007 41.5224 74.2609 40.4022 74.3453 38.9455C74.4293 37.48 73.3094 36.2287 71.8439 36.1447Z" fill="black"/>
<path fill-rule="evenodd" clip-rule="evenodd" d="M68.2921 47.0847C64.2492 46.8167 60.1866 47.0899 56.1417 47.1675C54.6811 47.1896 53.5137 48.4033 53.5362 49.8728C53.5671 51.3331 54.7806 52.5005 56.2409 52.4695C60.1355 52.3988 64.0564 52.1231 67.9482 52.3803C69.4053 52.4735 70.6745 51.3615 70.7677 49.9045C70.8605 48.4386 69.758 47.1775 68.2921 47.0847Z" fill="black"/>
<path fill-rule="evenodd" clip-rule="evenodd" d="M79.4605 55.7118C79.4762 55.4719 79.5113 55.0716 79.5619 54.8213C79.7267 53.9634 79.9637 53.1376 80.0352 52.5674C80.3434 50.383 80.6352 47.6413 81.2979 45.0687C81.848 42.9442 82.6062 40.9166 84.0817 39.6625C84.4655 39.335 85.0096 39.2216 85.6079 39.1324C86.5663 38.9737 87.6469 38.9689 88.7387 39.0167C91.445 39.1152 94.2066 39.4502 95.9329 39.23C97.3863 39.0487 98.4154 37.7175 98.2342 36.264C98.0441 34.811 96.7128 33.7819 95.2594 33.9631C93.3924 34.2074 90.1601 33.6457 87.2918 33.6875C84.6091 33.7208 82.1903 34.3003 80.6465 35.6107C78.8041 37.1739 77.5334 39.4286 76.6747 41.9746C75.5913 45.2307 75.1851 48.961 74.7841 51.8317C74.6286 52.893 74.0331 54.7981 74.1444 56.2724C74.2389 57.5703 74.7315 58.6641 75.6176 59.4477C77.2141 60.8545 79.3446 61.5373 81.674 61.7238C84.4214 61.9444 87.4555 61.4609 89.6958 61.2439C91.1601 61.1064 92.2262 59.809 92.0888 58.3447C91.9518 56.8892 90.6539 55.8142 89.1989 55.9601C87.5051 56.1168 85.3159 56.4821 83.1982 56.4721C81.8251 56.4725 80.4655 56.3836 79.4605 55.7118Z" fill="black"/>
<path fill-rule="evenodd" clip-rule="evenodd" d="M94.1889 46.147C89.7554 46.0562 85.3831 45.9449 80.9637 46.1635C79.4966 46.2391 78.3662 47.4864 78.4418 48.9535C78.5169 50.4118 79.764 51.5421 81.2311 51.4666C85.5268 51.2536 89.775 51.3616 94.0754 51.4496C95.5385 51.4806 96.7527 50.3182 96.7836 48.8551C96.8141 47.3832 95.6516 46.1691 94.1889 46.147Z" fill="black"/>
</svg>
