<svg width="198" height="198" viewBox="0 0 198 198" fill="none" xmlns="http://www.w3.org/2000/svg">
<g clip-path="url(#clip0_0_3)">
<path d="M98.8001 -0.000114396C79.2394 -0.0318864 60.1139 5.77226 43.8701 16.6699C42.1496 14.5787 40.0106 12.8706 37.5905 11.6555C35.1704 10.4404 32.5229 9.74515 29.818 9.61443C27.1132 9.4837 24.4109 9.9204 21.885 10.8965C19.359 11.8725 17.0652 13.3663 15.1511 15.2819C13.2369 17.1974 11.7448 19.4923 10.7706 22.019C9.79637 24.5457 9.36165 27.2483 9.49436 29.953C9.62706 32.6577 10.3243 35.3048 11.5411 37.724C12.758 40.1431 14.4676 42.2809 16.5601 43.9999C4.34399 62.324 -1.40036 84.204 0.239125 106.166C1.87861 128.128 10.808 148.912 25.6094 165.219C40.4108 181.527 60.2358 192.422 81.9365 196.175C103.637 199.928 125.97 196.323 145.388 185.934C164.806 175.545 180.197 158.966 189.117 138.831C198.037 118.695 199.975 96.1568 194.622 74.7943C189.269 53.4318 176.934 34.4697 159.573 20.919C142.213 7.36821 120.823 0.0054927 98.8001 -0.000114396Z" fill="#4F5332"/>
<path d="M98.8001 188.08C148.108 188.08 188.08 148.108 188.08 98.7999C188.08 49.4919 148.108 9.5199 98.8001 9.5199C49.4922 9.5199 9.52014 49.4919 9.52014 98.7999C9.52014 148.108 49.4922 188.08 98.8001 188.08Z" fill="#FCF3F0"/>
<path d="M102.28 75.6299C102.43 75.3853 102.517 75.1073 102.534 74.8208C102.551 74.5342 102.496 74.2481 102.375 73.9877C102.255 73.7273 102.071 73.5009 101.842 73.3285C101.612 73.1562 101.344 73.0433 101.06 72.9999C94.2301 72.0599 75.6501 71.2399 65.1601 87.7999C60.9971 94.0514 58.8973 101.45 59.1555 108.956C59.4138 116.463 62.0173 123.699 66.6001 129.65C69.5001 133.12 79.3401 139.78 85.4301 138.65C91.5201 137.52 95.7101 136.89 99.4301 138.79C103.15 140.69 110.58 142.54 120.28 138.79C129.98 135.04 143.28 127.36 143.28 109.26C143.28 91.1599 129.82 78.4499 120.99 75.6799C112.16 72.9099 106.57 73.9999 102.51 79.2799C98.4501 84.5599 91.6501 94.5999 91.9401 113.71C91.9401 113.71 87.8501 98.8599 102.28 75.6299Z" fill="#EABEA5"/>
<path d="M107.25 72.5699C107.25 72.5699 91.61 69.0999 86 69.0999C80.39 69.0999 68.63 69.0999 63.13 63.5899C57.63 58.0799 54.29 60.4099 54.29 60.4099C54.29 60.4099 59.94 53.5999 82.29 52.7299C104.64 51.8599 110.29 63.5899 107.25 72.5699Z" fill="#4F5332"/>
<path d="M112.38 26.2799C113.035 25.8352 113.808 25.595 114.6 25.5899C115.404 25.5283 116.213 25.6061 116.99 25.8199C118.84 26.2899 120.9 27.4699 121.58 29.3599C121.828 29.9971 121.877 30.6944 121.72 31.3599C121.07 33.8599 117.15 35.1099 114.86 35.0999H114.29C114.04 35.0999 113.79 35.1699 113.72 35.4499C113.27 37.1899 112.91 38.9399 112.57 40.6999V40.7699C112.35 41.6099 111.38 41.6299 110.7 41.4599C109.17 41.0599 108.97 40.2299 109.34 38.8099C109.42 38.5099 109.49 38.2099 109.57 37.9299C109.86 36.7899 110.09 35.6399 110.36 34.4899C110.414 34.2957 110.457 34.0987 110.49 33.8999C110.6 33.2899 110.3 32.8999 110.42 32.4899C110.54 32.0799 110.95 32.0299 111.12 31.3799C111.18 31.1299 111.21 30.8399 111.26 30.5699L111.59 29.0299C111.71 28.4599 111.76 27.8999 111.91 27.3499C111.957 26.9544 112.12 26.5818 112.38 26.2799ZM114.87 32.4399C115.94 32.2899 117.96 31.7499 118.28 30.5299C118.28 30.3799 118.35 30.2299 118.37 30.0699C118.371 29.8529 118.315 29.6395 118.21 29.4499C118.028 29.1511 117.785 28.8937 117.497 28.694C117.21 28.4943 116.884 28.3566 116.54 28.2899C116.24 28.2099 115.4 27.9999 115.28 28.4499C115.16 28.8999 115.04 29.4499 114.92 30.0099L114.48 32.0099C114.452 32.1001 114.46 32.1978 114.503 32.282C114.546 32.3662 114.62 32.4301 114.71 32.4599C114.764 32.4679 114.82 32.461 114.87 32.4399Z" fill="#4F5332"/>
<path d="M132 34.9299C131.48 34.6799 131 34.3999 130.48 34.1399C130.425 34.1057 130.362 34.0836 130.298 34.0752C130.233 34.0668 130.167 34.0722 130.105 34.0911C130.043 34.11 129.985 34.142 129.936 34.1849C129.887 34.2278 129.847 34.2806 129.82 34.3399C129.58 34.7199 129.41 35.1299 129.2 35.5199C128.99 35.9099 128.68 36.4299 128.46 36.8899C128.38 37.0499 128.36 37.2399 128.54 37.3299C129.284 37.3294 130.024 37.4303 130.74 37.6299C131.4 37.9499 132.11 38.7299 131.74 39.5099C131.19 40.6499 128.37 39.9999 127.37 39.8399C127.258 39.825 127.145 39.846 127.046 39.9C126.947 39.9539 126.868 40.038 126.82 40.1399C126.277 41.3013 125.793 42.4895 125.37 43.6999C125.28 43.9299 125.08 44.1499 125.37 44.3099C125.66 44.4699 126.32 44.6299 126.76 44.8399C127.44 45.1699 128.28 45.9399 127.87 46.7799C127.28 47.9999 125.14 47.0099 124.3 46.6099C123.46 46.2099 121.76 45.3799 121.57 44.3999C121.58 43.8304 121.717 43.2703 121.97 42.7599C122.504 41.1937 123.132 39.6609 123.85 38.1699C124.85 36.0899 125.97 34.0899 127 32.0199C127.48 31.0199 127.92 30.2699 129 30.7299C130.27 31.2699 130.58 31.4499 132.23 32.2499C132.813 32.4788 133.346 32.8184 133.8 33.2499C133.975 33.4197 134.096 33.6381 134.146 33.877C134.196 34.1158 134.173 34.3642 134.08 34.5899C133.79 35.3799 132.68 35.2399 132 34.9299Z" fill="#4F5332"/>
<path d="M144.56 46.2399C143.24 48.7299 141.73 51.1299 140.56 53.6799C140.349 54.3159 140.074 54.929 139.74 55.5099C139.16 56.2699 138.11 55.9599 137.45 55.5099C135.15 53.7399 138.63 51.5699 137.45 50.6899L135.67 49.3199C134.77 48.6299 132.98 51.1499 131.25 49.8299C130.65 49.3699 130.03 48.3899 130.59 47.6599C131.15 46.9299 132.5 46.8099 133.06 46.0899C133.33 45.7399 133.36 45.5899 133.85 45.4599C134.568 45.2008 135.23 44.8071 135.8 44.2999C137.5 43.1099 142.57 39.4199 144.57 40.0599C144.846 40.1528 145.106 40.2877 145.34 40.4599C147 41.6999 145.32 44.8099 144.56 46.2399ZM138.84 46.4699C138.487 46.6844 138.152 46.9287 137.84 47.1999C137.808 47.2412 137.785 47.2887 137.772 47.3394C137.759 47.3901 137.757 47.4429 137.765 47.4946C137.774 47.5462 137.793 47.5955 137.821 47.6395C137.849 47.6834 137.886 47.721 137.93 47.7499L138.7 48.3399C138.743 48.3763 138.793 48.4033 138.847 48.4191C138.901 48.4349 138.957 48.4391 139.013 48.4316C139.069 48.424 139.122 48.4048 139.17 48.3753C139.218 48.3457 139.259 48.3064 139.29 48.2599C139.914 47.2421 140.482 46.1905 140.99 45.1099C140.239 45.5058 139.52 45.9605 138.84 46.4699Z" fill="#4F5332"/>
<path d="M145.63 61.1998C143.15 58.1998 144.8 54.1998 147.49 51.9398C150.18 49.6798 154.06 49.2198 156.49 52.1998C157.17 53.0198 158.49 55.2898 157.49 56.1398C157.255 56.3988 156.927 56.5553 156.578 56.5759C156.228 56.5964 155.884 56.4794 155.62 56.2498C155.04 55.5498 155.18 54.5598 154.62 53.8598C153.42 52.4098 150.77 53.9898 149.68 54.8598C148.59 55.7298 147.19 57.4298 147.43 59.0498C147.462 59.2931 147.562 59.5222 147.72 59.7098C148.4 60.5298 149.85 60.6198 150.55 61.4598C151.06 62.0798 150.55 62.9098 149.83 63.4598C148.78 64.3798 146.32 61.9998 145.63 61.1998Z" fill="#4F5332"/>
<path d="M152.46 69.7698C152.079 69.7489 151.711 69.6254 151.394 69.4125C151.077 69.1995 150.823 68.9049 150.66 68.5598C150.53 68.3743 150.443 68.1622 150.405 67.9388C150.367 67.7154 150.379 67.4864 150.44 67.2682C150.501 67.0501 150.61 66.8482 150.759 66.6773C150.908 66.5064 151.093 66.3706 151.3 66.2798C151.59 66.1298 151.91 66.0198 152.23 65.8498L158.09 62.8498C158.87 62.4598 159.63 61.9998 160.4 61.6098C160.8 61.4098 161.21 61.2198 161.6 61.0698C162.41 60.7898 163.05 61.3898 163.4 62.0698C163.55 62.264 163.653 62.4909 163.698 62.7321C163.744 62.9732 163.733 63.2218 163.665 63.4576C163.596 63.6934 163.474 63.9098 163.306 64.0891C163.138 64.2685 162.931 64.4058 162.7 64.4898C162.34 64.6698 161.99 64.7998 161.7 64.9698L158.55 66.5598C158.489 66.5882 158.435 66.6289 158.391 66.6795C158.347 66.73 158.314 66.7892 158.294 66.8533C158.275 66.9173 158.268 66.9848 158.276 67.0514C158.284 67.118 158.306 67.1822 158.34 67.2398C158.721 68.0212 159.158 68.7733 159.65 69.4898C159.722 69.5888 159.829 69.6577 159.949 69.6835C160.068 69.7094 160.193 69.6902 160.3 69.6298C161.455 69.052 162.574 68.4041 163.65 67.6898C164.03 67.4498 164.33 67.1198 164.73 66.9198C165.56 66.4998 166.31 67.2398 166.66 67.9198C166.828 68.1999 166.911 68.5224 166.901 68.8487C166.89 69.175 166.786 69.4913 166.6 69.7598C165.92 70.4219 165.136 70.969 164.28 71.3798C163.43 71.9098 162.57 72.3798 161.69 72.8398C159.69 73.9198 157.69 74.9498 155.69 75.9598C154.54 76.5398 153.76 76.4698 153.13 75.2398C152.986 75.0387 152.892 74.8061 152.855 74.5614C152.819 74.3166 152.841 74.0667 152.92 73.8322C152.999 73.5978 153.133 73.3855 153.31 73.2129C153.488 73.0404 153.704 72.9125 153.94 72.8398C154.33 72.6398 154.78 72.4898 155.2 72.2798L157.2 71.2798C157.254 71.247 157.301 71.2039 157.338 71.153C157.375 71.1021 157.402 71.0443 157.417 70.983C157.432 70.9217 157.434 70.8581 157.425 70.7958C157.415 70.7335 157.393 70.6737 157.36 70.6198C157.245 70.4126 157.118 70.2123 156.98 70.0198C156.7 69.5598 156.43 69.0198 156.19 68.5998L156 68.2998C155.94 68.1798 155.76 67.9698 155.6 68.0498L154.26 68.7298C153.9 68.9198 153.74 69.2898 153.26 69.5598C153.023 69.7144 152.742 69.7881 152.46 69.7698Z" fill="#4F5332"/>
<path d="M172.48 85.2199C172.65 85.9099 172.53 86.9699 171.71 87.2199C170.89 87.4699 170.22 86.5599 169.64 86.2199C168.17 85.4699 166.58 84.8699 165.08 84.2199C164.74 84.0699 164.3 83.6799 163.91 83.7699C162.34 84.1599 160.77 84.4599 159.19 84.8499C158.88 84.9154 158.576 85.0057 158.28 85.1199C157.885 85.2554 157.481 85.3624 157.07 85.4399C156.26 85.6399 155.74 84.7599 155.58 84.1099C155.16 82.3899 156.58 81.8399 158 81.4999C159.62 81.0999 161.27 80.7699 162.89 80.3699C163.201 80.2754 163.483 80.1033 163.71 79.8699C164.83 78.6799 168.08 75.3599 169.59 74.9899C170.5 74.7599 171.05 75.6299 171.24 76.3599C171.383 76.8529 171.348 77.3805 171.14 77.8499C170.93 78.2699 170.49 78.4199 170.14 78.6599C169.79 78.8999 166.93 80.9499 167.04 81.3899C167.17 81.9999 171.85 82.6499 172.48 85.2199Z" fill="#4F5332"/>
<path d="M85.2901 171.35C84.6322 171.789 83.8612 172.029 83.0701 172.04C82.2662 172.098 81.4583 172.02 80.6801 171.81C78.8301 171.33 76.7701 170.16 76.0901 168.26C75.8417 167.623 75.7928 166.925 75.9501 166.26C76.6001 163.77 80.5201 162.51 82.8101 162.53H83.3801C83.5024 162.547 83.6269 162.521 83.7314 162.455C83.8358 162.389 83.9134 162.288 83.9501 162.17C84.4001 160.43 84.7601 158.69 85.1001 156.92V156.86C85.3201 156.02 86.2901 155.99 86.9701 156.17C88.5001 156.56 88.7001 157.39 88.3301 158.81C88.2501 159.11 88.1801 159.41 88.1001 159.69C87.8101 160.83 87.5801 161.99 87.3101 163.13C87.3101 163.33 87.2101 163.52 87.1801 163.72C87.0701 164.33 87.3701 164.72 87.2501 165.14C87.1301 165.56 86.7201 165.6 86.5501 166.24C86.4901 166.5 86.4602 166.79 86.4102 167.05L86.0801 168.6C85.9601 169.16 85.9101 169.72 85.7601 170.28C85.7095 170.674 85.5463 171.046 85.2901 171.35ZM82.8001 165.18C81.7301 165.34 79.7101 165.87 79.3901 167.1C79.3901 167.25 79.3201 167.4 79.3001 167.56C79.3 167.774 79.3551 167.984 79.4601 168.17C79.6435 168.469 79.8864 168.727 80.1736 168.928C80.4609 169.13 80.7865 169.27 81.1301 169.34C81.4301 169.41 82.2701 169.63 82.3901 169.18C82.5101 168.73 82.6301 168.18 82.7401 167.62L83.1901 165.62C83.2056 165.575 83.2119 165.528 83.2087 165.481C83.2054 165.434 83.1926 165.388 83.1712 165.346C83.1497 165.304 83.1199 165.267 83.0836 165.236C83.0474 165.206 83.0054 165.183 82.9601 165.17C82.9067 165.163 82.8524 165.167 82.8001 165.18Z" fill="#4F5332"/>
<path d="M65.6301 162.69C66.1501 162.95 66.6301 163.23 67.1501 163.48C67.2052 163.516 67.2674 163.539 67.3325 163.549C67.3975 163.558 67.4639 163.553 67.5268 163.534C67.5897 163.515 67.6477 163.482 67.6966 163.438C67.7456 163.394 67.7843 163.34 67.8101 163.28C68.0401 162.9 68.2201 162.49 68.4301 162.1C68.6401 161.71 68.9501 161.19 69.1701 160.73C69.2501 160.57 69.2601 160.39 69.0801 160.3C68.9001 160.21 67.6601 160.38 66.8901 160C66.1201 159.62 65.5201 158.89 65.8901 158.11C66.4401 156.97 69.2601 157.62 70.2701 157.79C70.3815 157.803 70.4943 157.781 70.5916 157.725C70.689 157.669 70.7656 157.583 70.8101 157.48C71.3568 156.32 71.8408 155.132 72.2601 153.92C72.3501 153.69 72.5501 153.47 72.2601 153.31C71.9701 153.15 71.3101 153 70.8701 152.79C70.1901 152.46 69.3501 151.68 69.7601 150.84C70.3501 149.62 72.4901 150.61 73.3301 151.02C74.1701 151.43 75.8701 152.25 76.0601 153.23C76.0486 153.796 75.912 154.353 75.6601 154.86C75.1294 156.428 74.5016 157.96 73.7801 159.45C72.7801 161.53 71.6601 163.53 70.6301 165.6C70.1501 166.6 69.7101 167.35 68.6301 166.89C67.3601 166.35 67.0501 166.17 65.3901 165.37C64.8099 165.142 64.2799 164.802 63.8301 164.37C63.6449 164.2 63.5145 163.979 63.4557 163.735C63.3969 163.491 63.4124 163.235 63.5001 163C63.8701 162.24 65.0001 162.39 65.6301 162.69Z" fill="#4F5332"/>
<path d="M53.1101 151.38C54.4301 148.9 55.9401 146.5 57.1101 143.95C57.315 143.311 57.59 142.698 57.9301 142.12C58.5101 141.36 59.5601 141.66 60.2201 142.12C62.5201 143.89 59.0401 146.05 60.2201 146.93L62.0001 148.35C62.9001 149.04 64.6901 146.52 66.4201 147.85C67.0201 148.31 67.6401 149.29 67.0801 150.01C66.5201 150.73 65.1701 150.86 64.6101 151.59C64.3401 151.94 64.3101 152.09 63.8201 152.21C63.0846 152.463 62.4053 152.857 61.8201 153.37C60.1201 154.56 55.0501 158.25 53.0501 157.61C52.7731 157.525 52.5127 157.393 52.2801 157.22C50.6301 155.92 52.3501 152.81 53.1101 151.38ZM58.8301 151.16C59.1861 150.945 59.5209 150.698 59.8301 150.42C59.862 150.379 59.8851 150.333 59.898 150.283C59.9108 150.233 59.913 150.181 59.9045 150.13C59.8961 150.079 59.8771 150.031 59.8488 149.988C59.8204 149.944 59.7835 149.908 59.7401 149.88L58.9701 149.28C58.9262 149.246 58.876 149.222 58.8226 149.207C58.7691 149.193 58.7133 149.19 58.6585 149.197C58.6037 149.205 58.5509 149.223 58.5031 149.251C58.4553 149.279 58.4135 149.316 58.3801 149.36C57.7599 150.38 57.1925 151.431 56.6801 152.51C57.4316 152.118 58.1506 151.666 58.8301 151.16Z" fill="#4F5332"/>
<path d="M52.0001 136.43C54.4801 139.43 52.8301 143.43 50.1401 145.69C47.4501 147.95 43.5701 148.41 41.1401 145.43C40.4601 144.6 39.1401 142.33 40.1401 141.43C40.3757 141.17 40.7043 141.014 41.0545 140.995C41.4048 140.976 41.7482 141.097 42.0101 141.33C42.5901 142.03 42.4501 143.01 43.0101 143.71C44.2101 145.17 46.8601 143.59 47.9501 142.71C49.0401 141.83 50.4401 140.14 50.2001 138.53C50.1687 138.287 50.068 138.058 49.9101 137.87C49.2301 137.05 47.7701 136.96 47.0801 136.12C46.5701 135.5 47.0801 134.67 47.8001 134.12C48.8901 133.24 51.3501 135.59 52.0001 136.43Z" fill="#4F5332"/>
<path d="M45.2101 127.86C45.5899 127.881 45.9572 128.003 46.2737 128.214C46.5903 128.425 46.8445 128.717 47.0101 129.06C47.1402 129.246 47.2274 129.459 47.2655 129.683C47.3036 129.907 47.2917 130.137 47.2305 130.356C47.1693 130.575 47.0604 130.777 46.9117 130.949C46.7629 131.121 46.5779 131.258 46.3701 131.35C46.0801 131.5 45.7601 131.61 45.4401 131.77L39.5701 134.77C38.8001 135.16 38.0401 135.62 37.2701 136.01C36.8701 136.21 36.4601 136.39 36.0701 136.54C35.6992 136.632 35.3072 136.58 34.9732 136.394C34.6391 136.209 34.3879 135.903 34.2701 135.54C34.1199 135.346 34.0177 135.119 33.9717 134.878C33.9258 134.637 33.9374 134.388 34.0056 134.152C34.0738 133.916 34.1967 133.7 34.3643 133.521C34.5319 133.341 34.7394 133.204 34.9701 133.12C35.3201 132.94 35.6801 132.81 36.0201 132.64L39.1701 131.04C39.2316 131.014 39.2868 130.975 39.3318 130.925C39.3767 130.876 39.4104 130.817 39.4304 130.754C39.4504 130.69 39.4562 130.622 39.4475 130.556C39.4388 130.49 39.4158 130.426 39.3801 130.37C38.9981 129.589 38.5603 128.837 38.0701 128.12C38.0007 128.017 37.8951 127.945 37.7745 127.917C37.654 127.889 37.5273 127.908 37.4201 127.97C36.2656 128.571 35.1471 129.239 34.0701 129.97C33.6901 130.21 33.3901 130.54 32.9901 130.74C32.1601 131.16 31.4101 130.41 31.0601 129.74C30.8903 129.459 30.8056 129.134 30.8162 128.806C30.8268 128.478 30.9324 128.159 31.1201 127.89C31.8058 127.234 32.5883 126.688 33.4401 126.27C34.2901 125.74 35.1501 125.27 36.0301 124.81C38.0301 123.74 40.0301 122.71 42.0301 121.7C43.1801 121.11 43.9601 121.19 44.5901 122.42C44.7342 122.621 44.8284 122.854 44.865 123.098C44.9015 123.343 44.8793 123.593 44.8002 123.827C44.721 124.062 44.5872 124.274 44.4099 124.447C44.2325 124.619 44.0166 124.747 43.7801 124.82C43.3901 125.02 42.9401 125.17 42.5201 125.38L40.5201 126.38C40.4654 126.412 40.4176 126.454 40.3794 126.505C40.3412 126.555 40.3134 126.613 40.2976 126.674C40.2818 126.736 40.2783 126.8 40.2873 126.862C40.2963 126.925 40.3176 126.985 40.3501 127.04C40.4601 127.24 40.6101 127.45 40.7301 127.64C41.0201 128.1 41.2901 128.58 41.5301 129.06L41.7001 129.4C41.7601 129.51 41.9401 129.72 42.1001 129.64L43.4401 128.96C43.8001 128.78 43.9601 128.4 44.4901 128.13C44.6973 127.969 44.9483 127.875 45.2101 127.86Z" fill="#4F5332"/>
<path d="M25.1901 112.41C25.0201 111.72 25.1401 110.66 25.9601 110.41C26.7801 110.16 27.4501 111.07 28.0301 111.41C29.5001 112.17 31.0901 112.76 32.6001 113.41C32.9301 113.55 33.3701 113.95 33.7601 113.85C35.3301 113.47 36.9001 113.17 38.4801 112.78C38.7902 112.714 39.0945 112.624 39.3901 112.51C39.7838 112.37 40.1886 112.263 40.6001 112.19C41.4101 111.99 41.9301 112.87 42.0901 113.51C42.5101 115.24 41.0901 115.78 39.6701 116.12C38.0501 116.52 36.4001 116.86 34.7801 117.26C34.4689 117.354 34.1867 117.526 33.9601 117.76C32.8401 118.95 29.5901 122.27 28.0801 122.64C27.1701 122.86 26.6201 122 26.4401 121.26C26.2894 120.769 26.3214 120.239 26.5301 119.77C26.7401 119.36 27.1901 119.2 27.5301 118.97C27.8701 118.74 30.7401 116.67 30.6301 116.24C30.5001 115.58 25.8201 115 25.1901 112.41Z" fill="#4F5332"/>
</g>
<defs>
<clipPath id="clip0_0_3">
<rect width="197.6" height="197.6" fill="white"/>
</clipPath>
</defs>
</svg>
