<svg width="163" height="163" viewBox="0 0 163 163" fill="none" xmlns="http://www.w3.org/2000/svg">
<g clip-path="url(#clip0_0_279)">
<path d="M81.5 163C126.511 163 163 126.511 163 81.5C163 36.4888 126.511 0 81.5 0C36.4888 0 0 36.4888 0 81.5C0 126.511 36.4888 163 81.5 163Z" fill="#FDC5F5"/>
<path d="M81.5 151.85C67.5832 151.852 53.9785 147.727 42.4063 139.996C30.8341 132.266 21.8143 121.277 16.4877 108.42C11.1611 95.5632 9.7669 81.4154 12.4814 67.7659C15.196 54.1165 21.8973 41.5786 31.7379 31.738C41.5786 21.8974 54.1164 15.196 67.7659 12.4815C81.4153 9.76696 95.5632 11.1612 108.42 16.4878C121.277 21.8144 132.266 30.8342 139.996 42.4064C147.727 53.9785 151.852 67.5833 151.85 81.5C151.829 100.152 144.41 118.033 131.222 131.222C118.033 144.41 100.151 151.829 81.5 151.85ZM81.5 21C69.5399 21.004 57.8494 24.5539 47.9066 31.2011C37.9638 37.8482 30.215 47.2941 25.6399 58.3446C21.0648 69.395 19.8688 81.5539 22.2031 93.284C24.5373 105.014 30.2971 115.789 38.7542 124.246C47.2112 132.703 57.9859 138.463 69.716 140.797C81.4461 143.131 93.605 141.935 104.655 137.36C115.706 132.785 125.152 125.036 131.799 115.093C138.446 105.151 141.996 93.4601 142 81.5C141.987 65.4585 135.608 50.0778 124.265 38.7347C112.922 27.3916 97.5415 21.0133 81.5 21Z" fill="#6D47A8"/>
<path d="M54.81 72.37C62.1167 72.37 68.04 66.4468 68.04 59.14C68.04 51.8333 62.1167 45.91 54.81 45.91C47.5033 45.91 41.58 51.8333 41.58 59.14C41.58 66.4468 47.5033 72.37 54.81 72.37Z" fill="#6D47A8"/>
<path d="M108.18 72.37C115.487 72.37 121.41 66.4468 121.41 59.14C121.41 51.8333 115.487 45.91 108.18 45.91C100.873 45.91 94.95 51.8333 94.95 59.14C94.95 66.4468 100.873 72.37 108.18 72.37Z" fill="#6D47A8"/>
<path d="M81.5 129.61C70.7197 129.604 60.2422 126.043 51.691 119.478C43.1397 112.914 36.9919 103.713 34.2 93.3L32.93 88.53L42.47 86L43.75 90.77C45.9755 99.0811 50.8816 106.425 57.7071 111.664C64.5326 116.902 72.8961 119.741 81.5 119.741C90.1039 119.741 98.4673 116.902 105.293 111.664C112.118 106.425 117.024 99.0811 119.25 90.77L120.52 86L130.06 88.54L128.79 93.31C125.997 103.719 119.85 112.917 111.301 119.479C102.751 126.041 92.2773 129.602 81.5 129.61Z" fill="#6D47A8"/>
</g>
<defs>
<clipPath id="clip0_0_279">
<rect width="162.99" height="162.99" fill="white"/>
</clipPath>
</defs>
</svg>
