<svg width="149" height="129" viewBox="0 0 149 129" fill="none" xmlns="http://www.w3.org/2000/svg">
<g clip-path="url(#clip0_0_10156)">
<path d="M72.3 0.0700073L0 125.29H144.59L72.3 0.0700073Z" fill="#FF4530"/>
<path d="M148.25 128.22H0.200012L74.22 0L148.25 128.22ZM3.66001 126.22H144.79L74.22 4L3.66001 126.22Z" fill="#FF4530"/>
<path d="M72.21 93.18C85.9785 93.18 97.14 82.0185 97.14 68.25C97.14 54.4815 85.9785 43.32 72.21 43.32C58.4416 43.32 47.28 54.4815 47.28 68.25C47.28 82.0185 58.4416 93.18 72.21 93.18Z" fill="#FFD3C8"/>
<path d="M82.91 70.87C83.5588 71.7571 84.0525 72.7478 84.37 73.8V74C80.6435 76.2188 76.406 77.4349 72.07 77.53C68.8372 77.4676 65.6489 76.764 62.69 75.46C61.764 75.1529 60.9125 74.6556 60.19 74C60.85 72.15 61.39 71.23 61.81 71.23C64.8626 72.9487 68.3068 73.8511 71.81 73.85H72.26C76.0052 73.7753 79.6699 72.7499 82.91 70.87ZM72.35 50.65H72.5C79.0467 63.1434 82.3233 69.4967 82.33 69.71C79.2171 71.6744 75.6006 72.6924 71.92 72.64C68.4526 72.662 65.0504 71.6979 62.11 69.86C67.81 58.8134 71.2233 52.41 72.35 50.65ZM68.54 62.65C68.085 63.5671 67.7876 64.5542 67.66 65.57C67.86 66.01 68.06 66.25 68.26 66.3H68.69C69.2 66.3 69.49 66.16 69.57 65.88V65.12C69.5386 64.2077 69.1718 63.3389 68.54 62.68V62.65ZM74.11 78.46L74.26 78.76V84.63C74.26 86 73.53 86.63 72.07 86.63C70.99 86.63 70.36 85.89 70.15 84.43V78.64H73.83L74.11 78.46ZM73 57.69C72.5663 58.6154 72.2698 59.5991 72.12 60.61C72.3 61.07 72.5 61.31 72.7 61.34H73.58C73.72 61.34 73.86 61.2 74.01 60.91V60.18C73.9815 59.256 73.6233 58.3728 73 57.69ZM75 64.57C74.5706 65.4022 74.2737 66.2963 74.12 67.22V67.37C74.19 67.96 74.34 68.25 74.58 68.25H75.46C75.61 68.25 75.8 68.05 76.04 67.65V67.22C75.8971 66.2936 75.5997 65.3979 75.16 64.57H75Z" fill="#FF4530"/>
<path d="M32.47 115.6H28.77L28.87 102.6H32.58L32.47 115.6ZM29.27 115.1H32L32.09 103.1H29.39L29.27 115.1Z" fill="#FFD3C8"/>
<path d="M38.68 115.71C37.5601 115.714 36.4629 115.394 35.52 114.79C34.5571 114.183 33.7653 113.339 33.22 112.34C32.6607 111.33 32.3682 110.194 32.37 109.04C32.3636 107.878 32.6674 106.735 33.25 105.73C33.824 104.748 34.6399 103.928 35.62 103.35C36.6123 102.761 37.7462 102.454 38.9 102.46C39.7505 102.462 40.5926 102.628 41.38 102.95C42.1818 103.279 42.8945 103.793 43.46 104.45C44.0678 105.146 44.4969 105.981 44.71 106.88V107.11L41.38 108.11L41.3 107.88C41.1221 107.418 40.8083 107.02 40.4 106.74C39.9339 106.408 39.3723 106.236 38.8 106.25C38.093 106.223 37.4035 106.474 36.88 106.95C36.6217 107.213 36.4209 107.526 36.29 107.87C36.1592 108.215 36.1013 108.582 36.12 108.95C36.1094 109.496 36.2367 110.036 36.49 110.52C36.7192 110.943 37.0667 111.291 37.49 111.52C37.8692 111.73 38.2932 111.846 38.7265 111.858C39.1597 111.87 39.5896 111.778 39.98 111.59C40.3253 111.426 40.6346 111.195 40.89 110.91C41.0905 110.698 41.2438 110.446 41.34 110.17L41.41 109.92L44.55 111V111.21C44.4008 112.044 44.0274 112.822 43.47 113.46C42.8783 114.146 42.1464 114.698 41.3235 115.077C40.5007 115.457 39.6061 115.656 38.7 115.66L38.68 115.71ZM38.9 103C37.8445 102.999 36.8083 103.282 35.9 103.82C34.9864 104.352 34.228 105.114 33.7 106.03C33.159 106.955 32.879 108.009 32.89 109.08C32.8905 110.142 33.1582 111.187 33.6685 112.118C34.1788 113.05 34.9152 113.838 35.81 114.41C36.5978 114.904 37.4979 115.191 38.4264 115.243C39.3548 115.296 40.2815 115.112 41.12 114.71C41.8872 114.369 42.57 113.864 43.12 113.23C43.5732 112.713 43.8895 112.091 44.04 111.42L41.79 110.65C41.6654 110.897 41.5073 111.126 41.32 111.33C41.0239 111.665 40.6634 111.937 40.26 112.13C39.7908 112.36 39.2727 112.474 38.7501 112.46C38.2276 112.446 37.7162 112.305 37.26 112.05C36.7749 111.766 36.3772 111.355 36.11 110.86C35.8161 110.303 35.6681 109.68 35.68 109.05C35.6526 108.606 35.7206 108.161 35.8792 107.746C36.0379 107.33 36.2837 106.953 36.6 106.64C37.2182 106.082 38.0278 105.785 38.86 105.81C39.5401 105.798 40.206 106.005 40.76 106.4C41.1803 106.698 41.5231 107.092 41.76 107.55L44.18 106.81C43.9718 106.074 43.6068 105.392 43.11 104.81C42.5929 104.213 41.9418 103.747 41.21 103.45C40.4772 103.149 39.6921 102.996 38.9 103Z" fill="#FFD3C8"/>
<path d="M45 115.61L44.55 102.55L53.77 102.26L54.03 106.07L48.44 106.13V106.93L53.09 106.84L53.28 110.64L48.67 110.74L48.72 111.8L54.17 111.59V115.4L45 115.61ZM45 103L45.41 115L53.64 114.82V112.02L48.22 112.23L48.11 110.16L52.72 110.06L52.58 107.26L47.94 107.35L47.85 105.55L53.43 105.48L53.23 102.68L45 103Z" fill="#FFD3C8"/>
<path d="M64.65 115.71C63.5272 115.712 62.4272 115.393 61.48 114.79C60.5116 114.167 59.7161 113.31 59.1672 112.298C58.6183 111.286 58.3338 110.151 58.34 109C58.3301 107.839 58.6305 106.696 59.21 105.69C59.7851 104.705 60.6049 103.885 61.59 103.31C62.5793 102.723 63.7095 102.415 64.86 102.42C65.7139 102.421 66.5594 102.588 67.35 102.91C68.1492 103.244 68.8608 103.757 69.43 104.41C70.0313 105.109 70.4565 105.943 70.67 106.84L70.73 107.07L67.4 108.07L67.32 107.84C67.1389 107.38 66.8258 106.983 66.42 106.7C65.9508 106.366 65.3857 106.194 64.81 106.21C64.1034 106.185 63.4147 106.436 62.89 106.91C62.6331 107.173 62.4337 107.487 62.3046 107.831C62.1755 108.175 62.1194 108.543 62.14 108.91C62.1245 109.457 62.2521 109.998 62.51 110.48C62.7358 110.906 63.0842 111.254 63.51 111.48C63.8889 111.691 64.3131 111.807 64.7465 111.819C65.1799 111.831 65.6099 111.739 66 111.55C66.3439 111.383 66.6528 111.153 66.91 110.87C67.1105 110.658 67.2639 110.406 67.36 110.13L67.43 109.88L70.57 110.96V111.17C70.4253 112.005 70.0514 112.784 69.49 113.42C68.91 114.11 68.1819 114.66 67.36 115.03C66.5217 115.464 65.5939 115.697 64.65 115.71ZM64.86 103C63.2598 103.016 61.7307 103.664 60.6066 104.803C59.4825 105.942 58.8547 107.48 58.86 109.08C58.8558 110.142 59.1204 111.187 59.6292 112.119C60.138 113.051 60.8745 113.839 61.77 114.41C62.5594 114.905 63.4612 115.192 64.3914 115.244C65.3216 115.297 66.25 115.113 67.09 114.71C67.8594 114.373 68.543 113.867 69.09 113.23C69.5423 112.711 69.8615 112.09 70.02 111.42L67.76 110.65C67.6432 110.899 67.488 111.129 67.3 111.33C67.0018 111.663 66.6418 111.934 66.24 112.13C65.7711 112.361 65.2528 112.475 64.7301 112.461C64.2074 112.447 63.696 112.306 63.24 112.05C62.7503 111.772 62.351 111.359 62.09 110.86C61.7915 110.304 61.6432 109.68 61.66 109.05C61.6327 108.606 61.7006 108.161 61.8593 107.745C62.018 107.33 62.2637 106.953 62.58 106.64C63.1952 106.084 64.0011 105.787 64.83 105.81C65.5107 105.795 66.1777 106.002 66.73 106.4C67.1568 106.691 67.5012 107.087 67.73 107.55L70.15 106.81C69.9513 106.07 69.5852 105.386 69.08 104.81C68.5674 104.213 67.9194 103.746 67.19 103.45C66.4507 103.148 65.6588 102.995 64.86 103Z" fill="#FFD3C8"/>
<path d="M80.38 116.24H80.13C79.2892 116.24 78.4579 116.062 77.69 115.72C76.9094 115.376 76.2031 114.883 75.61 114.27C75.0744 113.714 74.6591 113.054 74.39 112.33V115.47H70.61L70.48 103.26L70.6 103.19C71.153 102.913 71.7474 102.727 72.36 102.64C73.0932 102.513 73.8359 102.45 74.58 102.45C75.6642 102.421 76.742 102.625 77.74 103.05C78.5604 103.401 79.2569 103.99 79.74 104.74C80.2087 105.496 80.4484 106.371 80.43 107.26C80.4437 108.124 80.2298 108.975 79.81 109.73C79.4374 110.376 78.9206 110.927 78.3 111.34C78.4604 111.646 78.694 111.907 78.98 112.1C79.3195 112.328 79.7209 112.447 80.13 112.44H80.38V116.24ZM73.88 111.79L74.76 111.86V112.02C74.999 112.732 75.3954 113.382 75.92 113.92C76.4637 114.491 77.1166 114.947 77.84 115.26C78.4703 115.545 79.149 115.708 79.84 115.74V112.93C79.4186 112.894 79.0129 112.753 78.66 112.52C78.2174 112.238 77.8692 111.831 77.66 111.35L77.57 111.15L77.76 111.04C78.409 110.649 78.9431 110.094 79.3084 109.43C79.6736 108.766 79.857 108.017 79.84 107.26C79.8536 106.467 79.6421 105.687 79.23 105.01C78.7941 104.342 78.1717 103.817 77.44 103.5C76.4926 103.098 75.4682 102.911 74.44 102.95C73.7262 102.951 73.0137 103.011 72.31 103.13C71.8021 103.203 71.3071 103.348 70.84 103.56L71.11 115H73.91L73.88 111.79ZM74.74 109.24C74.4873 109.244 74.2362 109.2 74 109.11L73.85 109.04V105.83L73.97 105.75C74.1585 105.651 74.3607 105.58 74.57 105.54C74.843 105.458 75.1298 105.431 75.4133 105.462C75.6968 105.493 75.9712 105.581 76.22 105.72C76.501 105.894 76.7346 106.134 76.9 106.42C77.0664 106.691 77.1562 107.002 77.16 107.32C77.1588 107.687 77.0277 108.041 76.79 108.32C76.5482 108.61 76.2392 108.837 75.89 108.98C75.5304 109.15 75.1377 109.239 74.74 109.24ZM74.35 108.69C74.7871 108.784 75.243 108.735 75.65 108.55C75.9247 108.431 76.1679 108.25 76.36 108.02C76.5338 107.829 76.627 107.578 76.62 107.32C76.6177 107.09 76.5519 106.865 76.43 106.67C76.3056 106.457 76.1304 106.278 75.92 106.15C75.7272 106.041 75.5134 105.974 75.2928 105.953C75.0722 105.932 74.8497 105.959 74.64 106.03C74.5317 106.054 74.4249 106.084 74.32 106.12L74.35 108.69Z" fill="#FFD3C8"/>
<path d="M80.66 115.61L80.21 102.55L89.43 102.26L89.69 106.07L84.11 106.13V106.93L88.75 106.84L88.94 110.64L84.33 110.74L84.39 111.8L89.83 111.59V115.4L80.66 115.61ZM80.73 103L81.14 115L89.37 114.82V112.02L83.95 112.23L83.84 110.16L88.45 110.06L88.31 107.26L83.67 107.35L83.58 105.55L89.16 105.48L88.96 102.68L80.73 103Z" fill="#FFD3C8"/>
<path d="M99 115.65L98.25 112.84H94.45L93.36 115.54L89.58 114L95.18 102.56H98.82L98.88 102.73L102.88 114.73L99 115.65ZM94.07 112.32H98.63L99.36 115.03L102.16 114.36L98.42 103.06H95.42L90.19 113.73L93.02 114.88L94.07 112.32ZM97.87 109.54H95.19L96.8 105.54L97.87 109.54ZM96 109H97.29L96.77 107.06L96 109Z" fill="#FFD3C8"/>
<path d="M113.2 115.64L112.94 109.91L111.71 115.63H108L106.59 110.29L106.53 115.45H102.73V102.45L105.37 102.62L108.07 102.7L109.68 108.48L110.78 102.6H116.4V102.84L116.99 115.53L113.2 115.64ZM108.4 115.13H111.31L113.25 106.02L113.68 115.12L116.48 115.03L115.93 103.03H111.21L109.79 110.62L107.7 103.12L105.36 103.05L103.24 102.91V114.91H106.04L106.15 106.57L108.4 115.13Z" fill="#FFD3C8"/>
<path d="M28.5 102.17H31.7L31.6 114.73H28.4L28.5 102.17Z" fill="#FFD3C8"/>
<path d="M35 114C34.0765 113.401 33.318 112.58 32.7938 111.612C32.2697 110.645 31.9968 109.561 32 108.46C31.9937 107.352 32.2798 106.262 32.8293 105.3C33.3789 104.338 34.1724 103.538 35.13 102.98C36.0823 102.414 37.1719 102.12 38.28 102.13C39.0963 102.13 39.9048 102.29 40.66 102.6C41.4314 102.91 42.1172 103.4 42.66 104.03C43.2386 104.699 43.6469 105.499 43.85 106.36L40.98 107.23C40.7801 106.722 40.4316 106.287 39.98 105.98C39.4709 105.613 38.8572 105.421 38.23 105.43C37.4603 105.409 36.712 105.685 36.14 106.2C35.8487 106.488 35.6228 106.835 35.4779 107.218C35.3329 107.602 35.2722 108.011 35.3 108.42C35.2839 109.012 35.4218 109.598 35.7 110.12C35.9452 110.575 36.3122 110.952 36.76 111.21C37.1984 111.451 37.6899 111.578 38.19 111.58C38.6376 111.583 39.0796 111.48 39.48 111.28C39.86 111.104 40.2003 110.852 40.48 110.54C40.7093 110.305 40.8835 110.021 40.99 109.71L43.68 110.64C43.5462 111.428 43.2005 112.164 42.68 112.77C42.109 113.425 41.4056 113.952 40.6162 114.316C39.8267 114.68 38.9691 114.872 38.1 114.88C37.0023 114.9 35.9233 114.594 35 114Z" fill="#FFD3C8"/>
<path d="M53.29 111.22V114.53L44.57 114.73L44.14 102.17L52.86 101.89L53.09 105.2L47.51 105.26L47.57 106.57L52.22 106.47L52.38 109.77L47.77 109.87L47.86 111.44L53.29 111.22Z" fill="#FFD3C8"/>
<path d="M61 114C60.0752 113.403 59.3157 112.582 58.7914 111.614C58.2671 110.646 57.995 109.561 58 108.46C57.9916 107.343 58.2853 106.244 58.85 105.28C59.3962 104.328 60.1823 103.535 61.13 102.98C62.0833 102.416 63.1723 102.122 64.28 102.13C65.0996 102.13 65.9113 102.29 66.67 102.6C67.4401 102.912 68.1254 103.402 68.67 104.03C69.2486 104.699 69.6569 105.499 69.86 106.36L66.98 107.23C66.787 106.718 66.437 106.281 65.98 105.98C65.4715 105.612 64.8575 105.419 64.23 105.43C63.4603 105.409 62.712 105.685 62.14 106.2C61.8521 106.49 61.6291 106.838 61.486 107.221C61.3429 107.603 61.2829 108.012 61.31 108.42C61.2957 109.01 61.4298 109.595 61.7 110.12C61.9481 110.573 62.3145 110.949 62.76 111.21C63.2013 111.452 63.6965 111.579 64.2 111.58C64.6476 111.583 65.0896 111.48 65.49 111.28C65.8684 111.101 66.2081 110.85 66.49 110.54C66.72 110.307 66.8913 110.022 66.99 109.71L69.69 110.64C69.551 111.426 69.2059 112.161 68.69 112.77C68.1031 113.432 67.3804 113.96 66.571 114.317C65.7616 114.674 64.8846 114.853 64 114.84C62.9402 114.853 61.8991 114.561 61 114Z" fill="#FFD3C8"/>
<path d="M78.22 111.69C78.5981 111.944 79.0446 112.076 79.5 112.07V115.37C78.6972 115.366 77.9039 115.196 77.17 114.87C76.4182 114.539 75.7387 114.063 75.17 113.47C74.6184 112.903 74.2015 112.22 73.95 111.47H73.51V114.62H70.21L70.08 102.81C70.6041 102.546 71.1684 102.37 71.75 102.29C72.467 102.168 73.1927 102.105 73.92 102.1C74.9696 102.074 76.0128 102.271 76.98 102.68C77.7563 103.016 78.417 103.572 78.88 104.28C79.3162 104.996 79.5383 105.822 79.52 106.66C79.5528 107.472 79.3736 108.278 79 109C78.611 109.677 78.0572 110.245 77.39 110.65C77.5617 111.069 77.8497 111.43 78.22 111.69ZM73.48 108.25C73.6828 108.334 73.9007 108.375 74.12 108.37C74.4647 108.364 74.8046 108.289 75.12 108.15C75.4331 108.021 75.7108 107.818 75.93 107.56C76.1325 107.319 76.2424 107.014 76.24 106.7C76.2402 106.425 76.164 106.155 76.02 105.92C75.8725 105.668 75.6624 105.457 75.41 105.31C75.1633 105.159 74.8794 105.079 74.59 105.08C74.3745 105.085 74.1601 105.112 73.95 105.16C73.7706 105.201 73.5963 105.261 73.43 105.34L73.48 108.25Z" fill="#FFD3C8"/>
<path d="M89 111.22V114.53L80.28 114.73L79.85 102.17L88.57 101.89L88.8 105.2L83.22 105.26L83.29 106.57L87.93 106.47L88.09 109.77L83.48 109.87L83.57 111.44L89 111.22Z" fill="#FFD3C8"/>
<path d="M97.86 112H93.66L92.6 114.63L89.3 113.27L94.72 102.27H98.02L101.9 113.99L98.6 114.79L97.86 112ZM96.96 108.69L96.17 105.69L94.98 108.69H96.96Z" fill="#FFD3C8"/>
<path d="M112.82 114.76L112.47 107.34L110.89 114.76H107.58L105.75 107.82L105.67 114.58H102.36V102.07L104.74 102.22L107.27 102.3L109.12 108.94L110.38 102.21H115.55L116.12 114.64L112.82 114.76Z" fill="#FFD3C8"/>
</g>
<defs>
<clipPath id="clip0_0_10156">
<rect width="148.25" height="128.22" fill="white"/>
</clipPath>
</defs>
</svg>
