<svg width="214" height="194" viewBox="0 0 214 194" fill="none" xmlns="http://www.w3.org/2000/svg">
<g clip-path="url(#clip0_0_288)">
<path d="M66.21 193.24L12.41 184.24L38.06 30.54L127.82 69.18L147.28 0L199.76 14.9L163.35 144L80.35 108.31L66.21 193.24Z" fill="#F2910D"/>
<path d="M7.64001 126.71L8.64002 115.19H12.15L14.92 83.57H11.41L12.41 72.05H54.41L52.82 90.25H40.41L41 83.57H34.6L33.6 95.23H44.19L43.49 103.23H32.88L31.83 115.23H41L40 126.75L7.64001 126.71Z" fill="#F5F5F5"/>
<path d="M97.6 115.19H100.41L99.41 126.71H71.86L72.86 115.19H77.07L76.44 109.57H66.89L65.28 115.19H69.49L68.49 126.71H44.49L45.49 115.19H48.3L63.92 72.05H89.5L97.6 115.19ZM69.09 102.12H75.56L73.9 88.12H73.2L69.09 102.12Z" fill="#F5F5F5"/>
<path d="M110.69 126.54C107.598 126.012 104.577 125.126 101.69 123.9L102.9 110H118.36C118.251 110.547 118.259 111.111 118.381 111.655C118.503 112.199 118.738 112.712 119.07 113.16C119.66 113.82 120.83 114.16 122.56 114.16C123.664 114.238 124.768 114.01 125.75 113.5C126.08 113.278 126.354 112.981 126.548 112.634C126.743 112.286 126.853 111.898 126.87 111.5C126.907 111.143 126.86 110.782 126.731 110.446C126.603 110.111 126.397 109.811 126.13 109.57C125.239 108.842 124.222 108.283 123.13 107.92L117.27 105.81C112.25 103.85 108.717 101.517 106.67 98.81C104.623 96.1033 103.797 92.5 104.19 88C104.683 82.4667 106.867 78.2634 110.74 75.39C114.613 72.5167 120.793 71.0734 129.28 71.06C133.108 71.0375 136.925 71.4501 140.66 72.29C143.623 72.8913 146.461 73.9974 149.05 75.56L148 88.14H134C134.21 85.8 132.86 84.62 129.95 84.62C128.922 84.5558 127.894 84.7375 126.95 85.15C126.64 85.3506 126.386 85.6263 126.211 85.9515C126.036 86.2767 125.946 86.6408 125.95 87.01C125.904 87.3742 125.958 87.7442 126.108 88.0793C126.258 88.4144 126.498 88.7019 126.8 88.91C127.797 89.5482 128.877 90.0462 130.01 90.39L135.94 92.49C140.647 94.1634 144.017 96.3533 146.05 99.06C148.083 101.767 148.91 105.293 148.53 109.64C148.01 115.587 145.613 120.083 141.34 123.13C137.067 126.177 131.067 127.7 123.34 127.7C119.096 127.721 114.859 127.333 110.69 126.54Z" fill="#F5F5F5"/>
<path d="M204.72 89.05H192.63L193.11 83.57H188.61L185.85 115.19H190.77L189.77 126.71H160.25L161.25 115.19H166.16L168.93 83.57H164.43L164 89.05H151.88L153.37 72.05H206.2L204.72 89.05Z" fill="#F5F5F5"/>
<path d="M0 133.71L2.23 108.19H5.75L7.29 90.57H3.77L6.01 65.05H62.08L59.26 97.25H51.04L49.9 110.24H48.5L46.44 133.71H0Z" fill="#F2910D"/>
<path d="M36.8199 133.71L39.0499 108.19H43.3699L59.0199 65.05H95.3099L103.41 108.19H108.05L105.81 133.71H36.8199Z" fill="#F2910D"/>
<path d="M123.34 134.7C118.643 134.718 113.955 134.286 109.34 133.41C105.671 132.782 102.091 131.711 98.68 130.22L94.29 128.13L96.49 103H101C97.92 98.92 96.64 93.67 97.19 87.4C97.84 79.92 101.08 73.83 106.54 69.77C111.71 65.94 119.14 64.07 129.25 64.07C133.623 64.0438 137.985 64.5203 142.25 65.49C146.013 66.2623 149.612 67.6907 152.88 69.71L156.39 72L154.39 95.15H151.87C154.87 99.21 156.05 104.29 155.52 110.26C154.83 118.2 151.34 124.63 145.43 128.84C140 132.72 132.52 134.7 123.34 134.7Z" fill="#F2910D"/>
<path d="M152.61 133.71L154.84 108.19H159.76L160.82 96.05H144.24L146.95 65.05H213.84L211.13 96.05H194.55L193.49 108.19H198.41L196.17 133.71H152.61Z" fill="#F2910D"/>
<path d="M7.64001 126.71L8.64002 115.19H12.15L14.92 83.57H11.41L12.41 72.05H54.41L52.82 90.25H40.41L41 83.57H34.6L33.6 95.23H44.19L43.49 103.23H32.88L31.83 115.23H41L40 126.75L7.64001 126.71Z" fill="#F5F5F5"/>
<path d="M97.6 115.19H100.41L99.41 126.71H71.86L72.86 115.19H77.07L76.44 109.57H66.89L65.28 115.19H69.49L68.49 126.71H44.49L45.49 115.19H48.3L63.92 72.05H89.5L97.6 115.19ZM69.09 102.12H75.56L73.9 88.12H73.2L69.09 102.12Z" fill="#F5F5F5"/>
<path d="M110.69 126.54C107.598 126.012 104.577 125.126 101.69 123.9L102.9 110H118.36C118.251 110.547 118.259 111.111 118.381 111.655C118.503 112.199 118.738 112.712 119.07 113.16C119.66 113.82 120.83 114.16 122.56 114.16C123.664 114.238 124.768 114.01 125.75 113.5C126.08 113.278 126.354 112.981 126.548 112.634C126.743 112.286 126.853 111.898 126.87 111.5C126.907 111.143 126.86 110.782 126.731 110.446C126.603 110.111 126.397 109.811 126.13 109.57C125.239 108.842 124.222 108.283 123.13 107.92L117.27 105.81C112.25 103.85 108.717 101.517 106.67 98.81C104.623 96.1033 103.797 92.5 104.19 88C104.683 82.4667 106.867 78.2634 110.74 75.39C114.613 72.5167 120.793 71.0734 129.28 71.06C133.108 71.0375 136.925 71.4501 140.66 72.29C143.623 72.8913 146.461 73.9974 149.05 75.56L148 88.14H134C134.21 85.8 132.86 84.62 129.95 84.62C128.922 84.5558 127.894 84.7375 126.95 85.15C126.64 85.3506 126.386 85.6263 126.211 85.9515C126.036 86.2767 125.946 86.6408 125.95 87.01C125.904 87.3742 125.958 87.7442 126.108 88.0793C126.258 88.4144 126.498 88.7019 126.8 88.91C127.797 89.5482 128.877 90.0462 130.01 90.39L135.94 92.49C140.647 94.1634 144.017 96.3533 146.05 99.06C148.083 101.767 148.91 105.293 148.53 109.64C148.01 115.587 145.613 120.083 141.34 123.13C137.067 126.177 131.067 127.7 123.34 127.7C119.096 127.721 114.859 127.333 110.69 126.54Z" fill="#F5F5F5"/>
<path d="M204.72 89.05H192.63L193.11 83.57H188.61L185.85 115.19H190.77L189.77 126.71H160.25L161.25 115.19H166.16L168.93 83.57H164.43L164 89.05H151.88L153.37 72.05H206.2L204.72 89.05Z" fill="#F5F5F5"/>
</g>
<defs>
<clipPath id="clip0_0_288">
<rect width="213.84" height="193.24" fill="white"/>
</clipPath>
</defs>
</svg>
