<svg width="199" height="199" viewBox="0 0 199 199" fill="none" xmlns="http://www.w3.org/2000/svg">
<g clip-path="url(#clip0_0_335)">
<path d="M177.58 0H21.25C21.25 2.79012 20.7003 5.5529 19.6322 8.13051C18.5642 10.7081 16.9988 13.05 15.0254 15.0225C13.052 16.9949 10.7094 18.5592 8.13127 19.6261C5.55316 20.6929 2.79012 21.2413 0 21.24L0 177.58C2.79012 177.579 5.55316 178.127 8.13127 179.194C10.7094 180.261 13.052 181.825 15.0254 183.798C16.9988 185.77 18.5642 188.112 19.6322 190.689C20.7003 193.267 21.25 196.03 21.25 198.82H177.58C177.58 193.187 179.818 187.784 183.801 183.801C187.784 179.818 193.187 177.58 198.82 177.58V21.24C196.03 21.2413 193.268 20.6928 190.69 19.6259C188.113 18.5589 185.771 16.9945 183.798 15.0219C181.826 13.0493 180.261 10.7073 179.194 8.12975C178.127 5.5522 177.579 2.78965 177.58 0ZM63.06 180.06C61.9698 180.06 60.9041 179.737 59.9978 179.131C59.0914 178.525 58.3852 177.664 57.9685 176.656C57.5517 175.649 57.4432 174.54 57.6566 173.471C57.87 172.402 58.3958 171.42 59.1674 170.65C59.939 169.88 60.9217 169.356 61.9912 169.145C63.0607 168.933 64.1689 169.044 65.1755 169.462C66.1822 169.881 67.042 170.589 67.6463 171.496C68.2505 172.404 68.572 173.47 68.57 174.56C68.57 175.283 68.4274 175.999 68.1504 176.667C67.8734 177.335 67.4673 177.942 66.9556 178.453C66.4438 178.963 65.8363 179.368 65.1678 179.644C64.4994 179.92 63.7831 180.061 63.06 180.06ZM63.06 29.77C61.9702 29.77 60.9049 29.4468 59.9988 28.8414C59.0927 28.236 58.3865 27.3754 57.9694 26.3686C57.5524 25.3618 57.4433 24.2539 57.6559 23.1851C57.8685 22.1162 58.3933 21.1344 59.1638 20.3638C59.9344 19.5933 60.9162 19.0685 61.9851 18.8559C63.0539 18.6433 64.1618 18.7524 65.1686 19.1694C66.1754 19.5865 67.0359 20.2927 67.6414 21.1988C68.2468 22.1049 68.57 23.1702 68.57 24.26C68.57 25.7213 67.9895 27.1228 66.9562 28.1562C65.9228 29.1895 64.5213 29.77 63.06 29.77ZM116.42 180.06H82.42C81.6698 180.105 80.9183 179.997 80.2117 179.741C79.5051 179.485 78.8583 179.087 78.3112 178.572C77.764 178.057 77.328 177.435 77.03 176.745C76.7319 176.055 76.5782 175.312 76.5782 174.56C76.5782 173.808 76.7319 173.065 77.03 172.375C77.328 171.685 77.764 171.063 78.3112 170.548C78.8583 170.033 79.5051 169.635 80.2117 169.379C80.9183 169.123 81.6698 169.015 82.42 169.06H116.42C117.17 169.015 117.922 169.123 118.628 169.379C119.335 169.635 119.982 170.033 120.529 170.548C121.076 171.063 121.512 171.685 121.81 172.375C122.108 173.065 122.262 173.808 122.262 174.56C122.262 175.312 122.108 176.055 121.81 176.745C121.512 177.435 121.076 178.057 120.529 178.572C119.982 179.087 119.335 179.485 118.628 179.741C117.922 179.997 117.17 180.105 116.42 180.06ZM116.42 29.77H82.42C81.0186 29.6855 79.7024 29.0692 78.7401 28.047C77.7777 27.0249 77.2418 25.6739 77.2418 24.27C77.2418 22.8661 77.7777 21.5151 78.7401 20.493C79.7024 19.4708 81.0186 18.8545 82.42 18.77H116.42C117.17 18.7247 117.922 18.8334 118.628 19.0894C119.335 19.3453 119.982 19.7431 120.529 20.2582C121.076 20.7734 121.512 21.3951 121.81 22.085C122.108 22.7749 122.262 23.5185 122.262 24.27C122.262 25.0215 122.108 25.7651 121.81 26.455C121.512 27.1449 121.076 27.7666 120.529 28.2818C119.982 28.7969 119.335 29.1947 118.628 29.4506C117.922 29.7066 117.17 29.8153 116.42 29.77ZM135.76 180.06C134.669 180.062 133.603 179.74 132.695 179.136C131.787 178.531 131.08 177.67 130.661 176.663C130.243 175.656 130.133 174.547 130.345 173.478C130.558 172.408 131.083 171.425 131.854 170.654C132.625 169.883 133.608 169.358 134.678 169.145C135.747 168.933 136.856 169.043 137.863 169.461C138.87 169.88 139.731 170.587 140.336 171.495C140.94 172.403 141.262 173.469 141.26 174.56C141.257 176.018 140.677 177.415 139.646 178.446C138.615 179.477 137.218 180.057 135.76 180.06ZM135.76 29.77C134.67 29.772 133.604 29.4505 132.696 28.8463C131.789 28.242 131.081 27.3822 130.662 26.3755C130.244 25.3689 130.133 24.2607 130.345 23.1912C130.556 22.1217 131.08 21.139 131.85 20.3674C132.62 19.5958 133.602 19.07 134.671 18.8566C135.74 18.6432 136.849 18.7517 137.856 19.1685C138.864 19.5852 139.725 20.2914 140.331 21.1978C140.937 22.1041 141.26 23.1698 141.26 24.26C141.26 25.7196 140.681 27.1196 139.65 28.1526C138.619 29.1857 137.22 29.7674 135.76 29.77Z" fill="#F16140"/>
<path d="M68.57 24.26C68.57 25.3498 68.2468 26.4151 67.6414 27.3212C67.0359 28.2273 66.1754 28.9335 65.1686 29.3506C64.1618 29.7676 63.0539 29.8767 61.985 29.6641C60.9162 29.4515 59.9344 28.9267 59.1638 28.1562C58.3932 27.3856 57.8685 26.4038 57.6559 25.3349C57.4433 24.2661 57.5524 23.1582 57.9694 22.1514C58.3865 21.1446 59.0927 20.284 59.9988 19.6786C60.9049 19.0732 61.9702 18.75 63.06 18.75C64.5213 18.75 65.9228 19.3305 66.9562 20.3638C67.9895 21.3972 68.57 22.7987 68.57 24.26Z" fill="#FFC0BB"/>
<path d="M121.93 24.26C121.93 25.7214 121.349 27.1229 120.316 28.1562C119.283 29.1895 117.881 29.77 116.42 29.77H82.42C81.0187 29.6855 79.7024 29.0692 78.7401 28.047C77.7777 27.0249 77.2418 25.6739 77.2418 24.27C77.2418 22.8661 77.7777 21.5152 78.7401 20.493C79.7024 19.4708 81.0187 18.8546 82.42 18.77H116.42C117.878 18.77 119.276 19.3478 120.309 20.3768C121.342 21.4058 121.925 22.8021 121.93 24.26Z" fill="#FFC0BB"/>
<path d="M141.26 24.26C141.26 25.3502 140.937 26.4159 140.331 27.3222C139.725 28.2286 138.864 28.9348 137.856 29.3515C136.849 29.7683 135.74 29.8768 134.671 29.6634C133.602 29.45 132.62 28.9242 131.85 28.1526C131.08 27.381 130.556 26.3983 130.345 25.3288C130.133 24.2593 130.244 23.1511 130.662 22.1445C131.081 21.1378 131.789 20.278 132.696 19.6737C133.604 19.0695 134.67 18.748 135.76 18.75C137.22 18.7527 138.619 19.3343 139.65 20.3674C140.681 21.4004 141.26 22.8004 141.26 24.26Z" fill="#FFC0BB"/>
<path d="M141.26 174.56C141.26 175.65 140.937 176.716 140.331 177.622C139.725 178.529 138.864 179.235 137.856 179.652C136.849 180.068 135.74 180.177 134.671 179.963C133.602 179.75 132.62 179.224 131.85 178.453C131.08 177.681 130.556 176.698 130.345 175.629C130.133 174.559 130.244 173.451 130.662 172.444C131.081 171.438 131.789 170.578 132.696 169.974C133.604 169.369 134.67 169.048 135.76 169.05C136.483 169.05 137.199 169.193 137.867 169.47C138.535 169.747 139.142 170.153 139.653 170.664C140.163 171.176 140.568 171.784 140.844 172.452C141.12 173.121 141.261 173.837 141.26 174.56Z" fill="#FFC0BB"/>
<path d="M68.57 174.56C68.57 175.65 68.2468 176.715 67.6414 177.621C67.0359 178.527 66.1754 179.234 65.1686 179.651C64.1618 180.068 63.0539 180.177 61.985 179.964C60.9162 179.752 59.9344 179.227 59.1638 178.456C58.3932 177.686 57.8685 176.704 57.6559 175.635C57.4433 174.566 57.5524 173.458 57.9694 172.451C58.3865 171.445 59.0927 170.584 59.9988 169.979C60.9049 169.373 61.9702 169.05 63.06 169.05C63.7839 169.049 64.501 169.19 65.1701 169.467C65.8392 169.743 66.4472 170.149 66.9591 170.661C67.471 171.173 67.8768 171.781 68.1532 172.45C68.4297 173.119 68.5713 173.836 68.57 174.56Z" fill="#FFC0BB"/>
<path d="M121.93 174.56C121.927 176.02 121.346 177.419 120.313 178.45C119.28 179.481 117.88 180.06 116.42 180.06H82.42C81.6698 180.105 80.9183 179.997 80.2117 179.741C79.5051 179.485 78.8583 179.087 78.3112 178.572C77.764 178.057 77.328 177.435 77.03 176.745C76.7319 176.055 76.5782 175.312 76.5782 174.56C76.5782 173.808 76.7319 173.065 77.03 172.375C77.328 171.685 77.764 171.063 78.3112 170.548C78.8583 170.033 79.5051 169.635 80.2117 169.379C80.9183 169.123 81.6698 169.015 82.42 169.06H116.42C117.88 169.06 119.28 169.639 120.313 170.67C121.346 171.701 121.927 173.1 121.93 174.56Z" fill="#FFC0BB"/>
<path d="M161.25 99.4C144.848 99.4027 129.119 105.92 117.522 117.519C105.925 129.118 99.41 144.848 99.41 161.25C99.41 144.848 92.8951 129.118 81.2981 117.519C69.7011 105.92 53.9719 99.4027 37.57 99.4C53.9693 99.4 69.697 92.8861 81.294 81.291C92.8909 69.6959 99.4074 53.9693 99.41 37.57C99.4127 53.9693 105.929 69.6959 117.526 81.291C129.123 92.8861 144.851 99.4 161.25 99.4Z" fill="#E2533B"/>
<path d="M38.13 76.29C36.5532 76.2923 34.9818 76.1043 33.45 75.73C31.9915 75.3503 30.6289 74.669 29.45 73.73C28.1899 72.6964 27.2156 71.3571 26.62 69.84C25.869 67.8175 25.5291 65.6655 25.62 63.51C25.5604 61.4966 25.9003 59.4913 26.62 57.61C27.2203 56.097 28.1694 54.747 29.39 53.67C30.556 52.6644 31.9181 51.9118 33.39 51.46C34.9468 50.9913 36.5643 50.7555 38.19 50.76C39.3556 50.7614 40.5192 50.855 41.67 51.04C42.5148 51.1547 43.3435 51.3661 44.14 51.67L48.37 55.21L44.81 61L38.13 58C37.3408 57.9959 36.5669 58.218 35.9 58.64C35.1805 59.1078 34.6002 59.7606 34.22 60.53C33.7635 61.4872 33.544 62.5402 33.58 63.6C33.5091 64.8246 33.7536 66.0469 34.29 67.15C34.7435 67.9553 35.4819 68.5618 36.36 68.85C37.3957 69.1704 38.4761 69.3224 39.56 69.3C40.6972 69.3078 41.8314 69.1836 42.94 68.93C43.902 68.691 44.8446 68.3802 45.76 68C46.3911 67.7529 47.0086 67.4725 47.61 67.16V74.16C47.14 74.39 46.49 74.68 45.61 75.01C44.5885 75.397 43.5342 75.6915 42.46 75.89C41.0324 76.1589 39.5827 76.2928 38.13 76.29Z" fill="#FFC0BB"/>
<path d="M52.16 75.94V56.79L51.46 53.26L52.16 51.16H64.76C66.4283 51.1181 68.0869 51.4247 69.63 52.06C70.9688 52.6609 72.0649 53.6971 72.74 55C73.5358 56.6495 73.9103 58.4704 73.83 60.3C73.899 62.0225 73.5562 63.7366 72.83 65.3C72.1744 66.5936 71.1235 67.6444 69.83 68.3L70.42 68.79L72.84 72.08L74.84 73.87V75.97H65.57L61.72 69.56H59.86V70.33L60.21 73.83L59.86 75.97L52.16 75.94ZM59.86 63H61.86C62.5751 63.0017 63.2896 62.9616 64 62.88C64.526 62.8469 65.0195 62.6145 65.38 62.23C65.7534 61.7232 65.9278 61.0969 65.87 60.47C65.9349 59.8069 65.7494 59.1434 65.35 58.61C64.9581 58.2192 64.4414 57.9785 63.89 57.93C63.1767 57.8441 62.4585 57.804 61.74 57.81H59.51L59.86 63Z" fill="#FFC0BB"/>
<path d="M78 75.94L77.3 73.84L78 70.34V51.16H96L97.75 52.16L95.44 58.16L92.29 57.81H85.76V60.61H94.41V66.38H89.58L85.76 66V69.26H95.46L99.62 73.67L97.56 75.91L78 75.94Z" fill="#FFC0BB"/>
<path d="M100 75.94L101.65 70V65.58L104.24 64.58L109.14 51.24H119.68L125.68 66.92L128.37 71.92V76.02H120.78L119 70.72H109.51L108 75.94H100ZM111.84 64.6H117.09L114.78 57.6H114L111.84 64.6Z" fill="#FFC0BB"/>
<path d="M134.31 75.94V57.84L127.31 58.19V51.19H149.19V58.19L142 57.84V70.34L142.39 73.84L142 75.94H134.31Z" fill="#FFC0BB"/>
<path d="M152.69 75.94L151.99 73.84L152.69 70.34V51.16H170.69L172.44 52.16L170.13 58.16L167 57.81H160.46V60.61H169.1V66.38H164.27L160.46 66V69.26H170.15L174.32 73.67L172.25 75.91L152.69 75.94Z" fill="#FFC0BB"/>
<path d="M38.15 117.79V103.33L25.78 85.47V82.47H38.3L43.3 92.74H44.3L49.23 82.47H61.69V85.47L49 103.62L49.29 108.62V117.75L38.15 117.79Z" fill="#FFC0BB"/>
<path d="M80.1 118.29C77.9563 118.288 75.8206 118.026 73.74 117.51C71.6561 116.998 69.7015 116.058 68 114.75C66.1528 113.287 64.7048 111.382 63.79 109.21C62.6248 106.329 62.0796 103.235 62.19 100.13C62.0795 97.0278 62.6248 93.9372 63.79 91.06C64.7048 88.8885 66.1528 86.9829 68 85.52C69.7181 84.2068 71.6895 83.2637 73.79 82.75C75.8565 82.2525 77.9745 82.0008 80.1 82C82.2448 82.0047 84.3809 82.2734 86.46 82.8C88.5577 83.3234 90.5253 84.2731 92.24 85.59C94.0887 87.0539 95.5398 88.9589 96.46 91.13C97.6107 93.9866 98.1523 97.052 98.05 100.13C98.1517 103.208 97.6102 106.273 96.46 109.13C95.5398 111.301 94.0887 113.206 92.24 114.67C90.5253 115.987 88.5577 116.937 86.46 117.46C84.3821 117.997 82.246 118.275 80.1 118.29ZM80.1 108.29C81.0137 108.352 81.9294 108.204 82.777 107.857C83.6246 107.511 84.3816 106.974 84.99 106.29C86.0833 104.957 86.63 102.887 86.63 100.08C86.63 97.2733 86.0867 95.2467 85 94C84.3916 93.3156 83.6346 92.7795 82.787 92.4328C81.9394 92.0861 81.0237 91.9381 80.11 92C75.7767 92 73.6133 94.7267 73.62 100.18C73.62 102.98 74.16 105.043 75.24 106.37C75.8468 107.045 76.6008 107.571 77.4436 107.907C78.2864 108.244 79.1953 108.381 80.1 108.31V108.29Z" fill="#FFC0BB"/>
<path d="M118.25 118.29C112.43 118.29 108.24 117.117 105.68 114.77C103.12 112.423 101.84 108.66 101.84 103.48V90.48V85.48V82.48H113V101C112.987 102.365 113.104 103.728 113.35 105.07C113.517 106.135 114.047 107.11 114.85 107.83C115.854 108.574 117.094 108.929 118.34 108.83C119.587 108.926 120.83 108.609 121.88 107.93C122.687 107.263 123.22 106.324 123.38 105.29C123.634 103.874 123.751 102.438 123.73 101V82.48H134.65V103.48C134.756 106.354 134.191 109.213 133 111.83C131.89 114.021 130.036 115.744 127.77 116.69C124.74 117.871 121.5 118.416 118.25 118.29Z" fill="#FFC0BB"/>
<path d="M141.14 117.79V90.51L140.14 85.51L141.14 82.51H159.14C161.516 82.4473 163.878 82.8904 166.07 83.81C167.979 84.6523 169.545 86.1194 170.51 87.97C171.613 90.321 172.125 92.906 172 95.5C172.092 97.9572 171.598 100.401 170.56 102.63C169.627 104.453 168.143 105.937 166.32 106.87L167.16 107.56L170.61 112.25L173.45 114.8V117.8H160.24L154.76 108.67H152.11V109.77L152.61 114.77L152.11 117.77L141.14 117.79ZM152.14 99.34H155C156.002 99.3478 157.004 99.2978 158 99.19C158.761 99.1452 159.476 98.8127 160 98.26C160.535 97.5344 160.784 96.6374 160.7 95.74C160.789 94.7972 160.521 93.8554 159.95 93.1C159.4 92.5322 158.667 92.1779 157.88 92.1C156.865 91.9717 155.843 91.9116 154.82 91.92H151.62L152.14 99.34Z" fill="#FFC0BB"/>
<path d="M34.8 147.27C33.5999 147.272 32.4019 147.169 31.22 146.96C30.1585 146.781 29.1145 146.51 28.1 146.15C27.3836 145.927 26.7081 145.59 26.1 145.15V138.25C27.0324 138.748 28.0019 139.172 29 139.52C30.0266 139.889 31.0796 140.18 32.15 140.39C33.1379 140.588 34.1424 140.692 35.15 140.7C36.5 140.7 37.15 140.4 37.15 139.78C37.1458 139.627 37.1066 139.478 37.0356 139.342C36.9645 139.207 36.8634 139.09 36.74 139C36.2909 138.716 35.8069 138.49 35.3 138.33C34.6334 138.09 33.6634 137.78 32.39 137.4C31.1302 137.026 29.9002 136.558 28.71 136C27.7652 135.555 26.9571 134.864 26.37 134C25.7867 133.053 25.5042 131.951 25.56 130.84C25.5323 129.766 25.7675 128.702 26.245 127.74C26.7226 126.778 27.428 125.947 28.3 125.32C30.13 123.94 32.8 123.24 36.3 123.24C37 123.24 37.76 123.24 38.56 123.33C39.2069 123.362 39.8513 123.433 40.49 123.54L44.55 126.28L42.9 131.28L34.45 129.13C33.57 129.13 33.13 129.43 33.13 130.02C33.1449 130.271 33.2321 130.512 33.3812 130.714C33.5303 130.917 33.7348 131.072 33.97 131.16C34.9613 131.632 35.9837 132.037 37.03 132.37C38.6521 132.872 40.2173 133.543 41.7 134.37C42.7165 134.933 43.5733 135.745 44.19 136.73C44.7133 137.689 44.9754 138.768 44.95 139.86C44.9775 140.886 44.7616 141.904 44.3201 142.83C43.8786 143.756 43.2241 144.565 42.41 145.19C40.73 146.6 38.19 147.27 34.8 147.27Z" fill="#FFC0BB"/>
<path d="M53.62 146.94V129.88L47.01 130.21V123.57H67.64V130.21L60.88 129.88V141.66L61.24 144.96L60.88 146.96L53.62 146.94Z" fill="#FFC0BB"/>
<path d="M80.65 147.27C79.2313 147.269 77.8179 147.097 76.44 146.76C75.0499 146.423 73.7455 145.8 72.61 144.93C71.3908 143.96 70.432 142.703 69.82 141.27C68.4252 137.392 68.4252 133.148 69.82 129.27C70.432 127.837 71.3908 126.58 72.61 125.61C73.7455 124.74 75.0499 124.117 76.44 123.78C79.203 123.08 82.097 123.08 84.86 123.78C86.2497 124.128 87.5532 124.758 88.69 125.63C89.9092 126.6 90.868 127.857 91.48 129.29C92.8796 133.15 92.8796 137.38 91.48 141.24C90.8709 142.677 89.9118 143.939 88.69 144.91C87.5527 145.779 86.2491 146.405 84.86 146.75C83.4843 147.1 82.0697 147.275 80.65 147.27ZM80.65 140.67C81.2516 140.711 81.8545 140.615 82.4139 140.39C82.9732 140.165 83.4744 139.816 83.88 139.37C84.5939 138.121 84.9694 136.708 84.9694 135.27C84.9694 133.832 84.5939 132.418 83.88 131.17C83.4796 130.716 82.9798 130.361 82.4195 130.132C81.8593 129.903 81.2537 129.806 80.65 129.85C77.79 129.85 76.36 131.653 76.36 135.26C76.2479 136.705 76.6247 138.145 77.43 139.35C77.8284 139.804 78.3264 140.159 78.8851 140.388C79.4437 140.617 80.0478 140.713 80.65 140.67Z" fill="#FFC0BB"/>
<path d="M96.29 146.94V128.89L95.63 125.55L96.29 123.55H108.18C109.753 123.512 111.317 123.805 112.77 124.41C114.032 124.971 115.065 125.944 115.7 127.17C116.442 128.728 116.786 130.446 116.7 132.17C116.749 133.801 116.406 135.419 115.7 136.89C115.087 138.1 114.102 139.081 112.89 139.69L113.46 140.16L115.73 143.26L117.61 144.94V146.94H108.87L105.24 140.94H103.49V141.67L103.82 144.97L103.49 146.97L96.29 146.94ZM103.56 134.73H105.47C106.138 134.737 106.806 134.704 107.47 134.63C107.964 134.595 108.427 134.377 108.77 134.02C109.122 133.538 109.285 132.944 109.23 132.35C109.288 131.726 109.114 131.103 108.74 130.6C108.372 130.234 107.887 130.007 107.37 129.96C106.706 129.879 106.038 129.843 105.37 129.85H103.26L103.56 134.73Z" fill="#FFC0BB"/>
<path d="M120.32 146.94V128.85L119.99 125.55L120.32 123.55H127.62V146.92L120.32 146.94Z" fill="#FFC0BB"/>
<path d="M132.24 146.94L131.58 144.94L132.24 141.64V123.57H149.24L150.89 124.57L148.71 130.19L145.71 129.86H139.54V132.5H147.69V137.94H143.14L139.54 137.61V140.68H148.68L152.61 144.84L150.66 146.95L132.24 146.94Z" fill="#FFC0BB"/>
<path d="M163.37 147.27C162.17 147.273 160.972 147.169 159.79 146.96C158.728 146.781 157.685 146.51 156.67 146.15C155.97 145.925 155.311 145.587 154.72 145.15V138.25C155.621 138.738 156.557 139.159 157.52 139.51C158.55 139.878 159.607 140.169 160.68 140.38C161.668 140.579 162.672 140.683 163.68 140.69C165.02 140.69 165.68 140.39 165.68 139.77C165.681 139.616 165.645 139.464 165.573 139.328C165.502 139.192 165.398 139.076 165.27 138.99C164.826 138.703 164.345 138.478 163.84 138.32C163.173 138.08 162.203 137.77 160.93 137.39C159.658 137.002 158.418 136.518 157.22 135.94C156.277 135.511 155.465 134.838 154.87 133.99C154.287 133.043 154.004 131.941 154.06 130.83C154.035 129.757 154.271 128.693 154.749 127.732C155.226 126.77 155.93 125.939 156.8 125.31C158.63 123.93 161.3 123.23 164.8 123.23C165.5 123.23 166.25 123.23 167.06 123.32C167.707 123.353 168.351 123.423 168.99 123.53L173.05 126.27L171.4 131.27L163 129.15C162.12 129.15 161.68 129.45 161.68 130.04C161.695 130.291 161.782 130.532 161.931 130.734C162.08 130.937 162.285 131.091 162.52 131.18C163.508 131.651 164.527 132.055 165.57 132.39C167.194 132.888 168.759 133.559 170.24 134.39C171.261 134.947 172.119 135.761 172.73 136.75C173.258 137.707 173.52 138.788 173.49 139.88C173.52 140.906 173.305 141.925 172.863 142.852C172.422 143.778 171.766 144.587 170.95 145.21C169.3 146.6 166.76 147.27 163.37 147.27Z" fill="#FFC0BB"/>
</g>
<defs>
<clipPath id="clip0_0_335">
<rect width="198.82" height="198.82" fill="white"/>
</clipPath>
</defs>
</svg>
