<svg width="201" height="202" viewBox="0 0 201 202" fill="none" xmlns="http://www.w3.org/2000/svg">
<g clip-path="url(#clip0_0_636)">
<path d="M96.78 49.22L120.9 0L124.91 54.66L171.81 26.3L145.63 74.45L200.42 75.94L152.36 102.3L197.65 133.18L142.97 129.37L164.38 179.83L120.44 147.06L111.16 201.08L91.91 149.76L54.91 190.19L66.46 136.61L13.47 150.62L52.15 111.79L0 94.92L53.54 83.17L18.78 40.79L70.17 59.85L63.85 5.4L96.78 49.22Z" fill="#F9D6E5"/>
<path d="M69.45 80.38C69.1013 80.6302 68.6885 80.7759 68.26 80.8C67.8576 80.8206 67.4579 80.7233 67.11 80.52C66.7258 80.2754 66.3955 79.9551 66.1394 79.5786C65.8832 79.202 65.7065 78.7772 65.62 78.33C65.5554 77.9322 65.6004 77.5243 65.75 77.15C65.9074 76.7667 66.1799 76.4417 66.53 76.22C66.7442 76.0756 66.9807 75.9675 67.23 75.9C67.4904 75.8447 67.7596 75.8447 68.02 75.9C68.3191 75.954 68.6025 76.0736 68.85 76.25C69.1707 76.4812 69.4426 76.7735 69.65 77.11L69.83 77.37L66.71 79.5L66.34 78.96L68.83 77.26C68.6909 77.0452 68.5023 76.8669 68.28 76.74C68.0734 76.6226 67.8373 76.5671 67.6 76.58C67.3397 76.6061 67.0908 76.7002 66.8784 76.8529C66.666 77.0056 66.4976 77.2116 66.39 77.45C66.2905 77.6902 66.2594 77.9532 66.3 78.21C66.3375 78.4682 66.4333 78.7144 66.58 78.93L66.83 79.29C67.0045 79.5642 67.2408 79.7937 67.52 79.96C67.7529 80.0955 68.0211 80.1582 68.29 80.14C68.5704 80.1182 68.8398 80.0215 69.07 79.86C69.2196 79.7517 69.3541 79.6239 69.47 79.48C69.5666 79.3489 69.6347 79.199 69.67 79.04C69.7045 78.8718 69.7045 78.6983 69.67 78.53L70.39 78.29C70.4499 78.5398 70.4499 78.8002 70.39 79.05C70.3468 79.3147 70.2405 79.5651 70.08 79.78C69.907 80.0156 69.6937 80.2187 69.45 80.38Z" fill="#425C9B"/>
<path d="M73.11 80.09C73.0117 80.1472 72.9079 80.1941 72.8 80.23H72.59L72.43 79.56C72.5896 79.5176 72.7415 79.4501 72.88 79.36C73 79.281 73.0857 79.1596 73.12 79.02C73.1607 78.8154 73.1607 78.6047 73.12 78.4L73.05 78L69.05 74.58L69.76 74.18L72.86 77L72.13 72.93L72.85 72.53L73.77 78.45C73.8136 78.6881 73.8136 78.932 73.77 79.17C73.7359 79.3732 73.6536 79.5652 73.53 79.73C73.4137 79.8752 73.2712 79.9973 73.11 80.09Z" fill="#425C9B"/>
<path d="M77.82 75.72C77.436 75.9099 77.0058 75.9862 76.58 75.94C76.1809 75.8822 75.8064 75.7123 75.5 75.45C75.1525 75.1558 74.8815 74.7818 74.71 74.36C74.5092 73.9456 74.4066 73.4905 74.41 73.03C74.4205 72.6266 74.5378 72.2332 74.75 71.89C74.9801 71.5498 75.3028 71.2826 75.68 71.12C75.9179 71.016 76.1713 70.9519 76.43 70.93C76.7147 70.9049 77.0013 70.9449 77.2681 71.0472C77.535 71.1494 77.775 71.3111 77.97 71.52C78.2427 71.8114 78.4597 72.1503 78.61 72.52L78.74 72.81L75.28 74.36L75.02 73.76L77.77 72.53C77.6694 72.2945 77.5153 72.0857 77.32 71.92C77.1371 71.7749 76.9203 71.6786 76.69 71.64C76.4403 71.6118 76.1876 71.6533 75.96 71.76C75.7047 71.8653 75.4881 72.0469 75.34 72.28C75.1998 72.4986 75.1204 72.7506 75.11 73.01C75.0997 73.2749 75.151 73.5385 75.26 73.78L75.44 74.18C75.5681 74.4775 75.7591 74.7436 76 74.96C76.2081 75.1321 76.4617 75.2398 76.73 75.27C77.0077 75.2971 77.2875 75.2487 77.54 75.13C77.7115 75.0611 77.8678 74.9592 78 74.83C78.1226 74.7198 78.2184 74.583 78.28 74.43C78.3388 74.2703 78.3627 74.0998 78.35 73.93L79.1 73.82C79.1295 74.0736 79.0987 74.3306 79.01 74.57C78.913 74.8199 78.7668 75.0478 78.58 75.24C78.3584 75.4455 78.1008 75.6083 77.82 75.72Z" fill="#425C9B"/>
<path d="M82.66 69.73L82.08 70.12C81.9985 70.0243 81.9043 69.9402 81.8 69.87C81.6782 69.7953 81.5418 69.7476 81.4 69.73C81.2137 69.7116 81.0257 69.7355 80.85 69.8C80.596 69.8763 80.3721 70.0301 80.21 70.24C80.1415 70.3201 80.0946 70.4163 80.0736 70.5195C80.0526 70.6227 80.0582 70.7296 80.09 70.83C80.1152 70.911 80.1591 70.9848 80.2182 71.0456C80.2773 71.1064 80.3498 71.1525 80.43 71.18C80.6573 71.2302 80.8927 71.2302 81.12 71.18L81.87 71.12C82.2402 71.0671 82.6178 71.1191 82.96 71.27C83.0977 71.3392 83.2195 71.4362 83.3176 71.555C83.4158 71.6738 83.4881 71.8118 83.53 71.96C83.6147 72.2166 83.6147 72.4935 83.53 72.75C83.4399 73.0246 83.2775 73.2698 83.06 73.46C82.8047 73.6938 82.5007 73.8679 82.17 73.97C81.7616 74.126 81.3162 74.1573 80.89 74.06C80.7005 74.0102 80.523 73.9225 80.3683 73.8022C80.2136 73.6819 80.0849 73.5315 79.99 73.36L80.61 72.96C80.7363 73.1704 80.9357 73.3271 81.17 73.4C81.4269 73.4579 81.6952 73.437 81.94 73.34C82.2289 73.2633 82.4851 73.0949 82.67 72.86C82.7356 72.7745 82.7806 72.6749 82.8014 72.5691C82.8223 72.4633 82.8183 72.3541 82.79 72.25C82.725 72.1358 82.6226 72.0474 82.5 72C82.309 71.9133 82.0956 71.8888 81.89 71.93L81.06 72.01C80.6865 72.0648 80.3052 72.0128 79.96 71.86C79.7107 71.7148 79.5177 71.4896 79.4124 71.221C79.3071 70.9523 79.2957 70.656 79.38 70.38C79.4694 70.121 79.6204 69.8877 79.82 69.7C80.0572 69.4873 80.3366 69.3272 80.64 69.23C81.0189 69.0778 81.4377 69.0567 81.83 69.17C82.1577 69.2668 82.4476 69.4624 82.66 69.73Z" fill="#425C9B"/>
<path d="M89.35 72.14C88.9304 72.2262 88.4953 72.1986 88.09 72.06C87.717 71.9099 87.392 71.661 87.15 71.34C86.8837 70.9684 86.7058 70.5408 86.63 70.09C86.5293 69.6422 86.5293 69.1777 86.63 68.73C86.7358 68.3508 86.9392 68.006 87.22 67.73C87.5229 67.4532 87.8969 67.2662 88.3 67.19C88.5551 67.1499 88.8149 67.1499 89.07 67.19C89.3339 67.2292 89.5863 67.3247 89.81 67.47C90.0669 67.6356 90.2824 67.858 90.44 68.12C90.6408 68.4576 90.7733 68.8313 90.83 69.22L90.89 69.53L87.18 70.24L87.06 69.6L90 69C89.9582 68.7458 89.8552 68.5056 89.7 68.3C89.5535 68.1053 89.3536 67.9573 89.1246 67.8738C88.8957 67.7904 88.6474 67.7752 88.41 67.83C88.137 67.8742 87.8849 68.0037 87.69 68.2C87.5007 68.3791 87.3656 68.6078 87.3 68.86C87.2399 69.1165 87.2399 69.3834 87.3 69.64L87.38 70.06C87.4289 70.3824 87.556 70.6879 87.75 70.95C87.9081 71.1705 88.1322 71.3351 88.39 71.42C88.658 71.4961 88.942 71.4961 89.21 71.42C89.3913 71.3859 89.5665 71.3253 89.73 71.24C89.8651 71.1797 89.9899 71.0988 90.1 71C90.1905 70.8568 90.2517 70.697 90.28 70.53L91.04 70.59C91.0095 70.8436 90.9205 71.0866 90.78 71.3C90.6328 71.5266 90.4341 71.715 90.2 71.85C89.9374 71.9993 89.6491 72.0977 89.35 72.14Z" fill="#425C9B"/>
<path d="M95.67 66.26L94.36 71.33L93.59 71.4L91.29 66.7L92.11 66.62L93.85 70.38H93.9L94.9 66.38L95.67 66.26Z" fill="#425C9B"/>
<path d="M98.93 71.19C98.4997 71.2098 98.0728 71.1057 97.7 70.89C97.3518 70.6872 97.0729 70.384 96.9 70.02C96.7151 69.6027 96.6195 69.1514 96.6195 68.695C96.6195 68.2386 96.7151 67.7872 96.9 67.37C97.0621 67.0008 97.3257 66.6853 97.66 66.46C97.9995 66.2317 98.4009 66.113 98.81 66.12C99.0678 66.1116 99.3251 66.1488 99.57 66.23C99.8267 66.3157 100.062 66.4555 100.26 66.64C100.482 66.8442 100.653 67.0976 100.76 67.38C100.897 67.7513 100.964 68.1444 100.96 68.54V68.86H97.17V68.21H100.17C100.171 67.9524 100.109 67.6984 99.99 67.47C99.8744 67.2701 99.7045 67.1071 99.5 67C99.2745 66.8611 99.0149 66.7875 98.75 66.7875C98.4851 66.7875 98.2255 66.8611 98 67C97.7856 67.1437 97.6159 67.3446 97.51 67.58C97.3939 67.8163 97.3356 68.0768 97.34 68.34V68.78C97.3324 69.1057 97.4045 69.4284 97.55 69.72C97.6696 69.9593 97.8575 70.1577 98.09 70.29C98.3371 70.4274 98.6176 70.4932 98.9 70.48C99.0839 70.4818 99.2667 70.4514 99.44 70.39C99.5974 70.3346 99.7398 70.2434 99.856 70.1237C99.9723 70.004 100.059 69.8589 100.11 69.7L100.85 69.89C100.776 70.1362 100.646 70.362 100.47 70.55C100.279 70.7404 100.051 70.89 99.8 70.99C99.5246 71.1089 99.2297 71.1767 98.93 71.19Z" fill="#425C9B"/>
<path d="M102 71.12L102.28 66.22H103V66.96C103.112 66.7244 103.293 66.5289 103.52 66.4C103.762 66.2597 104.041 66.1969 104.32 66.22H104.53H104.72V66.98H104.54H104.26C104.037 66.9676 103.814 67.0087 103.61 67.1C103.415 67.1844 103.25 67.3243 103.134 67.5021C103.019 67.68 102.958 67.8879 102.96 68.1L102.78 71.2L102 71.12Z" fill="#425C9B"/>
<path d="M105.6 73.22C105.488 73.2046 105.378 73.1812 105.27 73.15L105.07 73.06L105.35 72.43C105.498 72.4964 105.658 72.5337 105.82 72.54C105.964 72.5446 106.106 72.4986 106.22 72.41C106.374 72.2681 106.499 72.0985 106.59 71.91L106.78 71.55L105.63 66.42L106.44 66.52L107.27 70.58L109.13 66.88L110 67L107.19 72.3C107.083 72.5178 106.937 72.7143 106.76 72.88C106.612 73.0189 106.434 73.1216 106.24 73.18C106.032 73.2409 105.814 73.2546 105.6 73.22Z" fill="#425C9B"/>
<path d="M111.24 72.24L111 67.12L111.77 67.3L111.9 71.21L113.82 67.81L114.6 68L114.71 71.89L116.64 68.51L117.4 68.7L114.78 73.11L114.06 72.93L114 69H113.92L112 72.42L111.24 72.24Z" fill="#425C9B"/>
<path d="M118.79 71.29L117.79 74.06L117.09 73.8L119.36 67.66L120.06 67.92L119.23 70.18H119.29C119.48 69.9846 119.724 69.8491 119.99 69.79C120.307 69.737 120.633 69.7751 120.93 69.9C121.219 69.9995 121.48 70.1676 121.69 70.39C121.882 70.6081 122.001 70.8809 122.03 71.17C122.047 71.5118 121.989 71.8531 121.86 72.17L120.78 75.09L120 74.9L121.11 72C121.24 71.6794 121.24 71.3207 121.11 71C121.045 70.8589 120.951 70.7333 120.834 70.6315C120.716 70.5298 120.579 70.4543 120.43 70.41C120.217 70.3253 119.986 70.2977 119.76 70.33C119.541 70.3587 119.335 70.4528 119.17 70.6C118.978 70.7871 118.845 71.0274 118.79 71.29Z" fill="#425C9B"/>
<path d="M123.69 76.62C123.285 76.4536 122.937 76.172 122.69 75.81C122.469 75.475 122.354 75.0813 122.36 74.68C122.37 74.2252 122.479 73.778 122.68 73.37C122.869 72.9475 123.153 72.5745 123.51 72.28C123.82 72.0272 124.194 71.8646 124.59 71.81C124.998 71.7526 125.413 71.8224 125.78 72.01C126.014 72.123 126.227 72.2752 126.41 72.46C126.601 72.6447 126.748 72.8704 126.84 73.12C126.948 73.4069 126.99 73.7148 126.96 74.02C126.915 74.4107 126.8 74.7901 126.62 75.14L126.49 75.43L123.07 73.79L123.35 73.2L126.08 74.51C126.187 74.2778 126.245 74.0258 126.25 73.77C126.247 73.5324 126.178 73.3005 126.05 73.1C125.91 72.8925 125.716 72.7267 125.49 72.62C125.243 72.4958 124.964 72.4504 124.69 72.49C124.435 72.5286 124.194 72.6319 123.99 72.79C123.782 72.953 123.614 73.1617 123.5 73.4L123.31 73.79C123.164 74.0823 123.086 74.4035 123.08 74.73C123.083 75.0001 123.163 75.2637 123.31 75.49C123.489 75.7204 123.727 75.8969 124 76C124.163 76.0836 124.339 76.1378 124.52 76.16C124.681 76.1955 124.849 76.1955 125.01 76.16C125.174 76.1085 125.322 76.0155 125.44 75.89L126.01 76.39C125.835 76.5767 125.62 76.7204 125.38 76.81C125.127 76.8997 124.857 76.9338 124.59 76.91C124.273 76.8767 123.967 76.778 123.69 76.62Z" fill="#425C9B"/>
<path d="M126.47 77.94L128.91 73.68L129.55 74.04L129.18 74.68C129.381 74.5093 129.636 74.4139 129.9 74.41C130.179 74.3942 130.457 74.4603 130.7 74.6L130.88 74.71L131.04 74.81L130.66 75.48L130.52 75.36C130.443 75.3021 130.363 75.2487 130.28 75.2C130.088 75.0888 129.872 75.0269 129.65 75.02C129.448 75.0071 129.247 75.0522 129.07 75.15C128.884 75.2513 128.731 75.404 128.63 75.59L127.09 78.28L126.47 77.94Z" fill="#425C9B"/>
<path d="M130.8 80.7C130.437 80.4723 130.146 80.1464 129.96 79.76C129.792 79.3944 129.733 78.9883 129.79 78.59C129.863 78.14 130.037 77.7125 130.3 77.34C130.55 76.9329 130.893 76.5904 131.3 76.34C131.644 76.1326 132.038 76.022 132.44 76.02C132.852 76.031 133.252 76.1632 133.59 76.4C133.805 76.5445 133.994 76.7236 134.15 76.93C134.311 77.1431 134.424 77.3888 134.48 77.65C134.548 77.9461 134.548 78.2539 134.48 78.55C134.383 78.9304 134.217 79.2897 133.99 79.61L133.81 79.88L130.66 77.78L131.03 77.23L133.53 78.91C133.68 78.6998 133.776 78.456 133.81 78.2C133.843 77.9583 133.805 77.7121 133.701 77.4918C133.596 77.2714 133.429 77.0866 133.22 76.96C132.993 76.8043 132.725 76.7174 132.45 76.71C132.191 76.7161 131.937 76.7848 131.71 76.91C131.481 77.044 131.286 77.2287 131.14 77.45L130.9 77.81C130.71 78.0731 130.586 78.3785 130.54 78.7C130.497 78.9694 130.539 79.2456 130.66 79.49C130.874 79.8873 131.232 80.1877 131.66 80.33C131.822 80.3646 131.988 80.3646 132.15 80.33C132.318 80.2978 132.476 80.2258 132.61 80.12L133.11 80.7C132.909 80.8599 132.672 80.9696 132.42 81.02C132.157 81.08 131.883 81.08 131.62 81.02C131.329 80.9662 131.051 80.8576 130.8 80.7Z" fill="#425C9B"/>
<path d="M99.7 82.33C92.8816 82.3256 86.1647 83.9812 80.1294 87.1539C74.0942 90.3266 68.9221 94.9209 65.06 100.54C68.9221 106.159 74.0942 110.753 80.1294 113.926C86.1647 117.099 92.8816 118.754 99.7 118.75C123.22 118.75 135.36 100.54 135.36 100.54C135.36 100.54 123.22 82.33 99.7 82.33Z" fill="#425C9B"/>
<path d="M100.21 111.54C106.285 111.54 111.21 106.615 111.21 100.54C111.21 94.4648 106.285 89.54 100.21 89.54C94.1349 89.54 89.21 94.4648 89.21 100.54C89.21 106.615 94.1349 111.54 100.21 111.54Z" fill="#F9D6E5"/>
<path d="M68.15 125C67.7847 124.757 67.5021 124.408 67.34 124C67.1824 123.628 67.1372 123.218 67.21 122.82C67.2963 122.37 67.4844 121.946 67.76 121.58C68.0236 121.205 68.3646 120.892 68.76 120.66C69.1145 120.465 69.5159 120.372 69.92 120.39C70.3298 120.408 70.7243 120.551 71.05 120.8C71.2614 120.95 71.4443 121.136 71.59 121.35C71.7552 121.584 71.8645 121.852 71.9096 122.135C71.9546 122.417 71.9343 122.707 71.85 122.98C71.7335 123.34 71.5578 123.678 71.33 123.98L71.14 124.24L68.07 122.02L68.45 121.49L70.9 123.26C71.0513 123.052 71.1539 122.813 71.2 122.56C71.2391 122.327 71.2113 122.088 71.12 121.87C71.0101 121.632 70.8377 121.428 70.6211 121.28C70.4045 121.132 70.1518 121.046 69.89 121.03C69.6327 121.021 69.3775 121.08 69.15 121.2C68.9141 121.323 68.7116 121.501 68.56 121.72L68.3 122.07C68.1063 122.331 67.9731 122.631 67.91 122.95C67.8664 123.214 67.9012 123.485 68.01 123.73C68.1221 123.987 68.3062 124.206 68.54 124.36C68.6868 124.472 68.8528 124.557 69.03 124.61C69.1914 124.645 69.3586 124.645 69.52 124.61C69.6874 124.577 69.847 124.513 69.99 124.42L70.46 125.01C70.2561 125.168 70.0151 125.271 69.76 125.31C69.4972 125.374 69.2228 125.374 68.96 125.31C68.6731 125.258 68.3984 125.153 68.15 125Z" fill="#425C9B"/>
<path d="M70.52 128.73C70.4217 128.671 70.3281 128.604 70.24 128.53L70.09 128.37L70.59 127.9C70.7076 128.014 70.8426 128.109 70.99 128.18C71.1254 128.231 71.2746 128.231 71.41 128.18C71.6071 128.112 71.7877 128.003 71.94 127.86L72.25 127.6L73.16 122.42L73.87 122.84L73.08 126.9L76.22 124.2L76.93 124.61L72.3 128.43C72.1156 128.587 71.906 128.712 71.68 128.8C71.4894 128.875 71.2835 128.902 71.08 128.88C70.8857 128.865 70.6958 128.814 70.52 128.73Z" fill="#425C9B"/>
<path d="M77.43 130.4C77.0295 130.235 76.6831 129.962 76.43 129.61C76.2075 129.275 76.086 128.882 76.08 128.48C76.0794 128.024 76.1784 127.574 76.37 127.16C76.5547 126.74 76.8315 126.368 77.18 126.07C77.4805 125.803 77.8523 125.629 78.25 125.57C78.659 125.513 79.0757 125.575 79.45 125.75C79.6813 125.859 79.8939 126.004 80.08 126.18C80.2879 126.377 80.4482 126.62 80.5487 126.888C80.6492 127.157 80.6872 127.445 80.66 127.73C80.6304 128.123 80.5252 128.507 80.35 128.86L80.22 129.15L76.77 127.58L77.04 126.99L79.79 128.24C79.9001 128.006 79.9548 127.749 79.95 127.49C79.9415 127.255 79.8689 127.027 79.74 126.83C79.5925 126.63 79.3962 126.472 79.17 126.37C78.9198 126.244 78.6359 126.202 78.36 126.25C78.105 126.291 77.8663 126.402 77.67 126.57C77.4625 126.735 77.2979 126.948 77.19 127.19L77.01 127.58C76.8698 127.873 76.798 128.195 76.8 128.52C76.8066 128.789 76.8937 129.051 77.05 129.27C77.2152 129.499 77.44 129.679 77.7 129.79C77.8635 129.868 78.0396 129.915 78.22 129.93C78.3858 129.951 78.5542 129.931 78.71 129.87C78.8674 129.81 79.0105 129.718 79.13 129.6L79.71 130.08C79.5417 130.274 79.329 130.425 79.09 130.52C78.8376 130.613 78.5682 130.651 78.3 130.63C77.9975 130.612 77.7017 130.534 77.43 130.4Z" fill="#425C9B"/>
<path d="M85.31 129.2H84.6C84.5952 129.074 84.5716 128.949 84.53 128.83C84.4841 128.693 84.4051 128.569 84.3 128.47C84.1629 128.344 83.9986 128.252 83.82 128.2C83.5668 128.116 83.2932 128.116 83.04 128.2C82.9368 128.222 82.8411 128.271 82.7622 128.341C82.6833 128.411 82.624 128.5 82.59 128.6C82.5595 128.679 82.549 128.764 82.5595 128.848C82.5699 128.931 82.6011 129.011 82.65 129.08C82.7855 129.271 82.9635 129.429 83.17 129.54L83.8 129.95C84.1251 130.131 84.3947 130.397 84.58 130.72C84.64 130.862 84.6708 131.015 84.6708 131.17C84.6708 131.325 84.64 131.478 84.58 131.62C84.5031 131.879 84.341 132.105 84.12 132.26C83.8798 132.424 83.6001 132.521 83.31 132.54C82.9713 132.566 82.6307 132.522 82.31 132.41C81.8883 132.284 81.5128 132.037 81.23 131.7C81.1118 131.545 81.026 131.368 80.9779 131.179C80.9298 130.99 80.9203 130.793 80.95 130.6L81.68 130.66C81.6532 130.904 81.7173 131.15 81.86 131.35C82.0314 131.55 82.2572 131.696 82.51 131.77C82.7871 131.88 83.0921 131.897 83.38 131.82C83.4858 131.798 83.5839 131.748 83.6645 131.676C83.7452 131.604 83.8057 131.513 83.84 131.41C83.8746 131.338 83.8925 131.26 83.8925 131.18C83.8925 131.1 83.8746 131.022 83.84 130.95C83.7328 130.771 83.5813 130.623 83.4 130.52L82.69 130.08C82.3552 129.908 82.0825 129.635 81.91 129.3C81.7894 129.009 81.7894 128.681 81.91 128.39C81.9908 128.141 82.1483 127.924 82.36 127.77C82.5892 127.615 82.8544 127.522 83.13 127.5C83.4483 127.473 83.7688 127.513 84.07 127.62C84.469 127.725 84.8212 127.961 85.07 128.29C85.234 128.565 85.3172 128.88 85.31 129.2Z" fill="#425C9B"/>
<path d="M90.36 134.33C89.9367 134.27 89.5385 134.094 89.21 133.82C88.9095 133.553 88.691 133.206 88.58 132.82C88.4735 132.38 88.4735 131.92 88.58 131.48C88.6469 131.024 88.818 130.589 89.08 130.21C89.3057 129.876 89.6211 129.613 89.99 129.45C90.3695 129.293 90.7869 129.251 91.19 129.33C91.4419 129.374 91.6851 129.458 91.91 129.58C92.148 129.708 92.356 129.885 92.52 130.1C92.6956 130.348 92.8151 130.631 92.87 130.93C92.9399 131.317 92.9399 131.713 92.87 132.1L92.81 132.42L89 131.77L89.11 131.13L92.11 131.64C92.1663 131.39 92.1663 131.13 92.11 130.88C92.0438 130.653 91.9148 130.449 91.738 130.291C91.5611 130.134 91.3435 130.029 91.11 129.99C90.8381 129.934 90.5557 129.962 90.3 130.07C90.0618 130.176 89.8576 130.345 89.71 130.56C89.5499 130.77 89.4466 131.018 89.41 131.28L89.33 131.71C89.2453 132.038 89.2453 132.382 89.33 132.71C89.4016 132.969 89.5519 133.2 89.76 133.37C89.9765 133.546 90.2349 133.663 90.51 133.71C90.6921 133.74 90.8779 133.74 91.06 133.71C91.2213 133.684 91.3749 133.622 91.51 133.53C91.6504 133.435 91.7667 133.308 91.85 133.16L92.54 133.48C92.4007 133.691 92.2162 133.869 92 134C91.7795 134.157 91.5267 134.263 91.26 134.31C90.9642 134.375 90.6584 134.382 90.36 134.33Z" fill="#425C9B"/>
<path d="M98.13 130.11L96 134.88H95.24L93.78 129.88L94.59 129.94L95.67 133.94L97.3 130.14L98.13 130.11Z" fill="#425C9B"/>
<path d="M101 135.08C100.572 135.102 100.146 135.005 99.77 134.8C99.4275 134.587 99.1479 134.287 98.96 133.93C98.7786 133.512 98.685 133.061 98.685 132.605C98.685 132.149 98.7786 131.698 98.96 131.28C99.1214 130.911 99.3808 130.593 99.71 130.36C100.055 130.134 100.458 130.013 100.87 130.01C101.127 130.007 101.384 130.044 101.63 130.12C101.885 130.206 102.119 130.342 102.32 130.52C102.54 130.73 102.711 130.986 102.82 131.27C102.961 131.637 103.032 132.027 103.03 132.42V132.74L99.25 132.82V132.17L102.25 132.11C102.256 131.852 102.194 131.597 102.07 131.37C101.963 131.16 101.801 130.984 101.6 130.86C101.381 130.736 101.131 130.677 100.88 130.69C100.605 130.692 100.337 130.775 100.11 130.93C99.8953 131.078 99.7257 131.282 99.62 131.52C99.5058 131.757 99.4509 132.017 99.46 132.28V132.71C99.4524 133.036 99.5245 133.358 99.67 133.65C99.7879 133.894 99.9806 134.094 100.22 134.22C100.469 134.353 100.748 134.418 101.03 134.41C101.211 134.405 101.39 134.371 101.56 134.31C101.715 134.251 101.858 134.163 101.98 134.05C102.095 133.926 102.184 133.78 102.24 133.62L102.97 133.8C102.899 134.046 102.772 134.271 102.6 134.46C102.412 134.657 102.183 134.81 101.93 134.91C101.635 135.031 101.318 135.089 101 135.08Z" fill="#425C9B"/>
<path d="M104.53 134.8L104.03 129.92L104.75 129.85L104.83 130.58C104.891 130.324 105.04 130.098 105.25 129.94C105.472 129.765 105.739 129.657 106.02 129.63H106.41L106.49 130.39H106.31C106.217 130.375 106.123 130.375 106.03 130.39C105.808 130.403 105.594 130.476 105.41 130.6C105.239 130.712 105.101 130.867 105.01 131.05C104.921 131.24 104.886 131.451 104.91 131.66L105.23 134.75L104.53 134.8Z" fill="#425C9B"/>
<path d="M109.18 136.08C109.067 136.093 108.953 136.093 108.84 136.08H108.62L108.69 135.39C108.849 135.417 109.011 135.417 109.17 135.39C109.31 135.351 109.431 135.262 109.51 135.14C109.61 134.957 109.675 134.757 109.7 134.55L109.77 134.14L107.07 129.63L107.87 129.48L109.93 133.07L110.54 128.98L111.34 128.83L110.34 134.74C110.301 134.981 110.224 135.214 110.11 135.43C110.013 135.608 109.876 135.762 109.71 135.88C109.548 135.98 109.368 136.048 109.18 136.08Z" fill="#425C9B"/>
<path d="M114.82 133L111.9 128.78L112.66 128.54L114.81 131.8L114.66 127.9L115.43 127.66L117.56 130.91L117.43 127.02L118.18 126.78L118.25 131.91L117.54 132.14L115.37 128.87H115.3L115.43 132.79L114.82 133Z" fill="#425C9B"/>
<path d="M120.6 127.75L121.84 130.43L121.16 130.75L118.41 124.75L119.1 124.44L120.1 126.62H120.16C120.157 126.347 120.234 126.08 120.38 125.85C120.565 125.587 120.822 125.382 121.12 125.26C121.398 125.129 121.703 125.064 122.01 125.07C122.296 125.09 122.568 125.199 122.79 125.38C123.069 125.61 123.285 125.905 123.42 126.24L124.73 129.07L124.05 129.39L122.76 126.6C122.641 126.294 122.408 126.047 122.11 125.91C121.964 125.856 121.809 125.833 121.654 125.844C121.498 125.854 121.347 125.897 121.21 125.97C121 126.061 120.817 126.206 120.68 126.39C120.543 126.565 120.463 126.778 120.45 127C120.432 127.259 120.484 127.518 120.6 127.75Z" fill="#425C9B"/>
<path d="M128.15 127.3C127.786 127.524 127.368 127.645 126.94 127.65C126.537 127.639 126.145 127.515 125.81 127.29C125.435 127.03 125.123 126.688 124.9 126.29C124.656 125.899 124.506 125.458 124.46 125C124.417 124.598 124.49 124.192 124.67 123.83C124.855 123.465 125.144 123.162 125.5 122.96C125.723 122.829 125.966 122.738 126.22 122.69C126.5 122.633 126.79 122.64 127.067 122.711C127.344 122.782 127.602 122.915 127.82 123.1C128.124 123.355 128.378 123.663 128.57 124.01L128.73 124.28L125.47 126.2L125.14 125.64L127.74 124.11C127.61 123.887 127.432 123.696 127.22 123.55C127.023 123.422 126.794 123.353 126.56 123.35C126.309 123.344 126.061 123.414 125.85 123.55C125.609 123.682 125.413 123.884 125.29 124.13C125.179 124.367 125.13 124.629 125.15 124.89C125.17 125.152 125.253 125.406 125.39 125.63L125.61 126.01C125.763 126.295 125.982 126.539 126.25 126.72C126.477 126.867 126.74 126.947 127.01 126.95C127.291 126.947 127.565 126.863 127.8 126.71C127.963 126.624 128.109 126.509 128.23 126.37C128.336 126.24 128.414 126.091 128.46 125.93C128.495 125.765 128.495 125.595 128.46 125.43L129.19 125.23C129.25 125.48 129.25 125.74 129.19 125.99C129.123 126.253 129.001 126.499 128.83 126.71C128.643 126.948 128.412 127.148 128.15 127.3Z" fill="#425C9B"/>
<path d="M131.05 125.35L128.23 121.35L128.83 120.93L129.25 121.54C129.19 121.283 129.211 121.014 129.31 120.77C129.419 120.511 129.599 120.289 129.83 120.13L130 120L130.16 119.9L130.6 120.52L130.44 120.6C130.356 120.643 130.275 120.693 130.2 120.75C130.016 120.871 129.865 121.036 129.76 121.23C129.669 121.413 129.624 121.616 129.63 121.82C129.645 122.029 129.718 122.23 129.84 122.4L131.62 124.94L131.05 125.35Z" fill="#425C9B"/>
<path d="M135.55 122.1C135.228 122.382 134.833 122.566 134.41 122.63C134.011 122.68 133.606 122.618 133.24 122.45C132.828 122.254 132.468 121.963 132.19 121.6C131.89 121.25 131.674 120.836 131.56 120.39C131.45 120.001 131.45 119.589 131.56 119.2C131.687 118.806 131.927 118.458 132.25 118.2C132.451 118.037 132.677 117.909 132.92 117.82C133.173 117.728 133.442 117.69 133.71 117.71C134.014 117.736 134.308 117.832 134.57 117.99C134.907 118.192 135.203 118.457 135.44 118.77L135.64 119.01L132.71 121.41L132.3 120.9L134.63 118.99C134.473 118.79 134.271 118.629 134.04 118.52C133.824 118.422 133.585 118.388 133.35 118.42C133.103 118.456 132.871 118.56 132.68 118.72C132.465 118.894 132.305 119.127 132.22 119.39C132.15 119.638 132.15 119.901 132.22 120.15C132.281 120.407 132.401 120.647 132.57 120.85L132.84 121.19C133.041 121.447 133.297 121.656 133.59 121.8C133.838 121.91 134.112 121.948 134.38 121.91C134.654 121.863 134.91 121.742 135.12 121.56C135.267 121.446 135.392 121.308 135.49 121.15C135.585 121.003 135.643 120.836 135.661 120.662C135.678 120.488 135.654 120.313 135.59 120.15L136.28 119.84C136.381 120.076 136.419 120.335 136.39 120.59C136.367 120.858 136.285 121.117 136.15 121.35C136.003 121.638 135.799 121.893 135.55 122.1Z" fill="#425C9B"/>
</g>
<defs>
<clipPath id="clip0_0_636">
<rect width="200.42" height="201.08" fill="white"/>
</clipPath>
</defs>
</svg>
