<svg width="276" height="112" viewBox="0 0 276 112" fill="none" xmlns="http://www.w3.org/2000/svg">
<g clip-path="url(#clip0_0_671)">
<path d="M274.2 18.5C274.2 18.4 274.1 18.4 274.1 18.3C273.3 16.6 272.2 15.1 270.8 13.9C270.7 13.8 270.6 13.7 270.5 13.6C270.4 13.5 270.3 13.4 270.2 13.3C270.1 13.2 269.9 13 269.8 12.9C269.7 12.8 269.6 12.7 269.5 12.6C269.4 12.5 269.3 12.4 269.2 12.3C269.1 12.2 268.9 12 268.8 11.9C268.7 11.8 268.6 11.7 268.5 11.6C268.4 11.5 268.3 11.4 268.2 11.3C268.1 11.2 267.9 11 267.8 10.9C267.7 10.8 267.6 10.7 267.5 10.6C267.4 10.5 267.3 10.4 267.2 10.3C267.1 10.2 266.9 10 266.8 9.9C266.7 9.8 266.6 9.7 266.5 9.6C266.4 9.5 266.3 9.4 266.2 9.3C266.1 9.2 265.9 9 265.8 8.9C265.7 8.8 265.6 8.7 265.5 8.6C265.4 8.5 265.3 8.4 265.2 8.3C265.1 8.2 264.9 8 264.8 7.9C264.7 7.8 264.6 7.7 264.5 7.6C264.4 7.5 264.3 7.4 264.2 7.3C264.1 7.2 263.9 7 263.8 6.9C263.7 6.8 263.6 6.7 263.5 6.6C263.4 6.5 263.3 6.4 263.2 6.3C263.1 6.2 262.9 6 262.8 5.9C262.7 5.8 262.6 5.7 262.5 5.6C262 5.1 261.5 4.6 260.9 4.2C257.8 1.8 254 0.6 250.2 0.7H229.5C228.1 0.7 226.7 0.8 225.3 1.1C223.8 0.7 222.2 0.5 220.5 0.5C217.6 0.5 214.7 1.1 212 2.4C209.8 1.3 207.3 0.7 204.7 0.7H193C192 0.7 191 0.8 190.1 0.9C189.2 0.7 188.2 0.7 187.3 0.7H176.3C174.9 0.7 173.5 0.8 172.1 1.1C171 0.9 169.8 0.7 168.5 0.7H141.3C139.8 0.7 138.3 0.8 136.9 1.1C135.6 0.8 134.3 0.6 133 0.7H122C120.2 0.7 118.5 0.9 116.8 1.4C115.3 0.9 113.6 0.7 112 0.7C110.1 0.7 108.2 1 106.4 1.6C103.7 0.8 100.9 0.5 98.1 0.5C93.6 0.4 89.1 1.6 85.1 4C80.9 1.4 75.9 0 70.2 0C65.3 0 60.4 1 55.9 3C55 3.4 54.1 3.9 53.2 4.4C49.4 2 44.7 0.7 39.3 0.7H23.9C21.6 0.7 19.2 1.1 17 1.9C13 3.5 9.9 6.9 8.7 11L8.6 11.3L8.5 11.6C8.2 12.8 8 14.1 8 15.3C8 16.5 8.1 17.6 8.4 18.8L4.4 33C4.3 33.1 4.2 33.2 4.1 33.3C3.6 33.8 3.2 34.3 2.8 34.8C-0.799998 39.6 -0.899998 45.8 2 50.7C2.7 52 3.7 53.1 4.8 54.1C5.1 54.4 5.4 54.8 5.8 55.1C6.1 55.4 6.4 55.8 6.8 56.1C7.1 56.4 7.4 56.8 7.8 57.1C8.1 57.4 8.4 57.8 8.8 58.1C9.1 58.5 9.5 58.8 9.9 59.1C10.2 59.4 10.5 59.8 10.9 60.1C11.2 60.4 11.5 60.8 11.9 61.1C12.3 61.5 12.7 61.9 13.1 62.3L13.2 62.4L13.3 62.5C13.7 62.9 14.2 63.3 14.7 63.7C17.3 65.5 20.3 66.5 23.4 66.6L20.3 77.4C17.4 80.2 15.8 84 15.7 88C15.7 91.6 17 94.9 19.4 97.5C19.8 98 20.3 98.5 20.8 98.9C21.1 99.2 21.4 99.6 21.8 99.9C22.1 100.2 22.4 100.6 22.8 100.9C23.1 101.2 23.4 101.6 23.8 101.9C24.1 102.2 24.4 102.6 24.8 102.9C25.1 103.2 25.4 103.6 25.8 103.9C26.1 104.2 26.4 104.6 26.8 104.9C27.1 105.2 27.4 105.6 27.8 105.9C28.1 106.3 28.5 106.6 28.9 107C29.2 107.2 29.4 107.5 29.7 107.7C29.8 107.7 29.8 107.8 29.9 107.8C30.4 108.2 30.9 108.6 31.5 108.9C34 110.4 36.9 111.2 39.8 111.2H43.7C46 111.2 48.3 110.9 50.4 110C52.3 110.8 54.3 111.2 56.4 111.2C58.4 111.2 60.4 110.9 62.3 110.2C64.2 110.9 66.2 111.2 68.2 111.2H79.2C80.8 111.2 82.4 111 84 110.6C85.5 111 87 111.2 88.5 111.2H99.5C101.2 111.2 102.8 111 104.4 110.6C105.8 111 107.2 111.2 108.8 111.2H113.9C116.2 111.2 118.5 110.8 120.6 110C121.4 109.7 122.1 109.3 122.8 108.9C125.6 110.5 128.7 111.4 131.9 111.3C134.2 111.4 136.5 110.9 138.6 110.1C140.4 110.7 142.2 111.1 144.1 111H157.3C162.1 111.1 166.9 110.5 171.5 109.1C173.9 110.4 176.5 111.1 179.3 111H201.6C203.2 111 204.8 110.8 206.3 110.5C207.6 110.8 208.9 111 210.2 110.9H223.4C228.4 111 233.4 110.3 238.1 108.8C243.1 107.2 247.5 104.2 250.9 100.1C254 96.1 256.3 91.6 257.5 86.7C258.4 83.6 258.9 80.5 258.9 77.3C259 73.3 258 69.3 256.1 65.9C258.4 65.4 260.6 64.5 262.5 63.1C265.7 60.8 267.9 57.4 268.9 53.6L270.3 48.7C270.7 47.3 270.9 45.8 270.9 44.4C270.9 43.2 270.8 42 270.5 40.9C272.3 38.9 273.6 36.5 274.2 33.9L275.3 29.7C275.8 28.1 276 26.5 276 24.8C275.8 23 275.3 20.6 274.2 18.5Z" fill="#485BEA"/>
<path d="M47 15.9C48.8 17.3 49.8 19.4 49.7 21.6C49.7 22.6 49.6 23.6 49.3 24.5C48.6 27.4 46.7 29.9 44.1 31.4C41.1 33 37.7 33.8 34.4 33.6H29.6L28 39.3C27.9 39.5 27.9 39.8 27.9 40.1C27.9 40.5 28 40.9 28.2 41.2C28.5 41.6 28.8 41.9 29.1 42.2C29.3 42.4 29.6 42.7 29.8 42.9C29.9 43.1 30 43.3 30 43.5C30 44 29.7 44.5 29.2 44.6C28.5 44.9 27.8 45 27 44.9H15.3C14.7 44.9 14 44.8 13.5 44.5C13.1 44.2 12.9 43.7 13 43.2C13 42.9 13.2 42.7 13.4 42.5C13.6 42.3 13.9 42.1 14.2 41.9C14.7 41.6 15.1 41.3 15.5 40.9C15.9 40.4 16.1 39.9 16.2 39.3L21.9 19.2C22 18.8 22 18.4 22 18C22 17.7 21.9 17.4 21.8 17.1C21.7 16.9 21.5 16.6 21.4 16.3C21.2 16 21 15.7 21 15.3C21 15.1 21 15 21.1 14.8C21.2 14.4 21.5 14.1 21.9 13.9C22.5 13.7 23.2 13.6 23.8 13.6H39.3C42.6 13.7 45.2 14.4 47 15.9ZM38.7 20.6C38.7 18.8 37.9 17.9 36.2 17.9H34L30.7 29.4H32.8C34 29.4 35.1 29 36 28.2C37.1 26.9 37.8 25.3 38.2 23.6C38.4 22.7 38.6 21.6 38.7 20.6Z" fill="#4070D9"/>
<path d="M79.4 15.8C81.6 17.7 82.7 20.3 82.7 23.8C82.7 25.6 82.4 27.4 81.9 29.1C81.1 32.3 79.6 35.4 77.6 38C75.7 40.4 73.3 42.2 70.6 43.5C67.8 44.8 64.8 45.4 61.8 45.4C57.9 45.4 54.9 44.5 52.6 42.6C50.3 40.7 49.3 38.1 49.3 34.6C49.3 32.8 49.6 30.9 50.1 29.1C50.9 25.9 52.3 22.9 54.4 20.3C56.3 17.9 58.7 16.1 61.4 14.8C64.2 13.5 67.2 12.9 70.2 12.9C74.1 13 77.2 13.9 79.4 15.8ZM66.8 18.7C65.8 19.8 65.1 21 64.6 22.4C63.7 24.7 62.9 27.1 62.2 29.5C61 33.9 60.3 36.9 60.3 38.5C60.2 39.2 60.4 40 60.8 40.6C61.2 41.1 61.8 41.3 62.4 41.3C63.3 41.3 64.2 40.9 64.9 40.2C65.8 39.1 66.6 37.9 67.1 36.5C68 34.2 68.8 31.9 69.5 29.5C70.5 26.6 71.1 23.6 71.3 20.5C71.4 19.7 71.2 19 70.8 18.4C70.4 17.9 69.8 17.7 69.2 17.7C68.3 17.6 67.5 18 66.8 18.7Z" fill="#4070D9"/>
<path d="M103 14.1C104.6 14.6 106.1 15.2 107.5 16.1L108.6 15.2C109.2 14.7 109.8 14.3 110.4 14C110.9 13.8 111.5 13.7 112.1 13.7C112.7 13.7 113.3 13.8 113.9 14.2C114.3 14.5 114.6 15.1 114.6 15.6C114.6 15.9 114.6 16.1 114.5 16.4L112.5 22.8C112.4 23.4 112.1 23.9 111.7 24.4C111.3 24.7 110.8 24.9 110.2 24.9C109.5 24.9 108.9 24.7 108.4 24.3C107.5 23.5 106.7 22.6 106 21.7C105.2 20.7 104.2 19.8 103.1 19.1C102.3 18.6 101.3 18.3 100.4 18.3C99.8 18.3 99.1 18.5 98.7 19C98.2 19.4 98 20 98 20.7C98 21.5 98.5 22.3 99.1 22.8C100.2 23.7 101.4 24.5 102.6 25.2C104.2 26.2 105.6 27 106.6 27.8C107.7 28.6 108.6 29.6 109.3 30.7C110.1 31.9 110.5 33.3 110.4 34.7C110.4 35.7 110.2 36.7 109.9 37.6C109.2 39.9 107.6 41.9 105.6 43.1C103.3 44.4 100.8 45.1 98.1 45.1C96.3 45.1 94.4 44.9 92.7 44.3C91.1 43.7 89.6 42.9 88.2 41.8L86.5 43.2C85.9 43.7 85.3 44.2 84.6 44.5C84.1 44.7 83.5 44.9 82.9 44.8C82.3 44.8 81.7 44.7 81.2 44.3C80.8 44 80.5 43.4 80.6 42.9C80.6 42.6 80.7 42.2 80.8 41.9L83.1 34.9C83.3 34.2 83.6 33.6 84.1 33.2C84.6 32.8 85.2 32.7 85.8 32.7C86.5 32.7 87.2 33 87.7 33.5C88.6 34.3 89.3 35.2 90 36.2C90.7 37.4 91.7 38.4 92.8 39.2C93.7 39.8 94.7 40.1 95.8 40C96.5 40 97.1 39.9 97.7 39.6C98.2 39.3 98.5 38.9 98.7 38.3C98.8 38.1 98.8 37.8 98.8 37.6C98.8 36.8 98.4 36 97.7 35.6C96.7 34.8 95.6 34 94.4 33.4C92.8 32.4 91.5 31.6 90.5 30.8C89.5 30 88.6 29 87.9 27.9C87.1 26.7 86.8 25.3 86.8 23.8C86.8 22.7 87 21.6 87.3 20.6C88 18.4 89.4 16.6 91.3 15.4C93.4 14.1 95.8 13.4 98.3 13.4C99.8 13.4 101.4 13.6 103 14.1Z" fill="#4070D9"/>
<path d="M134.7 14C135 14.2 135.2 14.5 135.2 14.9C135.2 15.1 135.1 15.3 135.1 15.5C135 15.7 134.9 15.9 134.7 16.1C134.6 16.2 134.4 16.4 134.2 16.5C134.1 16.6 134 16.6 133.9 16.7C133.4 16.9 133 17.3 132.7 17.6C132.3 18.1 132.1 18.6 131.9 19.2L126.2 39.3C126.1 39.7 126 40.1 126 40.5C126 40.8 126 41.1 126.2 41.4C126.3 41.7 126.5 42 126.7 42.2C126.9 42.5 127.1 42.8 127.1 43.2C127.1 43.4 127 43.5 127 43.7C126.9 44.1 126.6 44.5 126.2 44.6C125.6 44.8 124.9 44.9 124.2 44.9H113.2C112.7 44.9 112.2 44.8 111.7 44.6C111.4 44.4 111.2 44.1 111.2 43.7C111.2 43.5 111.3 43.3 111.3 43.1C111.4 42.8 111.6 42.5 111.9 42.3L112.4 42C112.8 41.7 113.3 41.4 113.6 41C114 40.5 114.3 40 114.4 39.4L120.1 19.3C120.2 18.9 120.3 18.5 120.3 18.1C120.3 17.8 120.3 17.5 120.1 17.2C120 17 119.8 16.7 119.7 16.4C119.5 16.1 119.3 15.8 119.3 15.4C119.3 15.2 119.3 15.1 119.4 14.9C119.5 14.5 119.8 14.2 120.2 14C120.8 13.8 121.5 13.7 122.1 13.7H133.1C133.7 13.6 134.2 13.8 134.7 14Z" fill="#4070D9"/>
<path d="M171.2 15.8C171.2 16.4 171.1 16.9 170.9 17.4L169.8 21.2C169.6 22.1 169.2 22.9 168.5 23.6C167.9 24.1 167.1 24.4 166.4 24.3C165.7 24.3 165.1 24.1 164.6 23.7C164.1 23.1 163.7 22.5 163.4 21.8L162.6 19.9C162.4 19.4 162.2 19 161.8 18.7C161.4 18.5 161 18.3 160.5 18.4H159.4L153.5 39.3C153.4 39.7 153.4 40 153.4 40.4C153.4 40.7 153.4 41 153.6 41.3C153.7 41.6 153.9 41.9 154.1 42.1C154.3 42.4 154.5 42.8 154.5 43.2C154.5 43.4 154.5 43.5 154.4 43.7C154.2 44.1 153.9 44.4 153.5 44.6C152.9 44.8 152.2 44.9 151.6 44.9H140.6C140.1 44.9 139.5 44.8 139.1 44.6C138.8 44.4 138.5 44 138.6 43.7C138.6 43.5 138.6 43.3 138.7 43.1C138.8 42.9 138.9 42.6 139.1 42.5C139.3 42.3 139.6 42.1 139.9 42C140.3 41.7 140.7 41.4 141.1 41.1C141.5 40.6 141.7 40.1 141.9 39.5L147.8 18.6H146.7C146.1 18.6 145.5 18.7 145 18.9C144.5 19.2 144 19.6 143.6 20.1L142.1 22C141.5 22.7 140.8 23.4 140 23.9C139.4 24.3 138.6 24.5 137.8 24.5C137.2 24.5 136.6 24.3 136.1 23.9C135.7 23.5 135.5 22.9 135.5 22.4C135.5 22.1 135.6 21.7 135.6 21.4L136.8 17.2C137 16.5 137.3 15.8 137.6 15.2C137.9 14.7 138.4 14.4 138.9 14.2C139.7 14 140.5 13.9 141.3 13.9H168.5C170.4 13.7 171.2 14.4 171.2 15.8Z" fill="#4070D9"/>
<path d="M189 14C189.3 14.2 189.5 14.5 189.5 14.9C189.5 15.1 189.4 15.3 189.4 15.5C189.3 15.7 189.2 15.9 189 16.1C188.9 16.2 188.7 16.4 188.5 16.5C188.4 16.6 188.3 16.6 188.2 16.7C187.7 16.9 187.3 17.3 187 17.6C186.6 18.1 186.4 18.6 186.2 19.2L180.6 39.3C180.5 39.7 180.4 40.1 180.4 40.5C180.4 40.8 180.4 41.1 180.6 41.4C180.7 41.7 180.9 42 181.1 42.2C181.3 42.5 181.5 42.8 181.5 43.2C181.5 43.4 181.4 43.5 181.4 43.7C181.3 44.1 181 44.5 180.6 44.6C180 44.8 179.3 44.9 178.6 44.9H167.6C167.1 44.9 166.6 44.8 166.1 44.6C165.8 44.4 165.6 44.1 165.6 43.7C165.6 43.5 165.7 43.3 165.7 43.1C165.8 42.8 166 42.5 166.3 42.3L166.8 42C167.2 41.7 167.7 41.4 168 41C168.4 40.5 168.7 40 168.8 39.4L174.5 19.3C174.6 18.9 174.7 18.5 174.7 18.1C174.7 17.8 174.7 17.5 174.5 17.2C174.4 17 174.2 16.7 174.1 16.4C173.9 16.1 173.7 15.8 173.7 15.4C173.7 15.2 173.7 15.1 173.8 14.9C173.9 14.5 174.2 14.2 174.6 14C175.2 13.8 175.9 13.7 176.5 13.7H187.5C188 13.6 188.5 13.8 189 14Z" fill="#4070D9"/>
<path d="M224.6 21.1C224.2 21.9 223.5 22.5 222.8 22.9C222.1 23.3 221.3 23.5 220.6 23.5C219.2 23.5 217.9 22.9 217 21.8L205.7 40.8C205.1 41.9 204.3 43 203.4 43.9C202.7 44.5 201.9 44.8 201 44.8C200.1 44.8 199.3 44.5 198.7 43.8C198 42.9 197.6 41.9 197.5 40.8L193.6 19.2C193.5 18.7 193.4 18.2 193.1 17.8C192.8 17.4 192.5 17 192.1 16.7C191.9 16.5 191.6 16.3 191.4 16C191.3 15.8 191.2 15.6 191.2 15.4C191 14.3 191.7 13.7 193.3 13.7H205C205.6 13.7 206.2 13.8 206.6 14.1C207 14.4 207.2 14.8 207.1 15.3C207.1 15.5 207 15.8 206.9 16C206.8 16.3 206.6 16.5 206.4 16.7C206.2 17 205.9 17.3 205.7 17.6C205.5 17.9 205.5 18.3 205.5 18.6C205.5 18.8 205.5 18.9 205.6 19.1L207.4 30L213.6 19C214.4 17.4 215.5 16 216.8 14.8C217.9 14 219.3 13.5 220.7 13.6C222 13.5 223.2 14 224.1 14.8C225 15.7 225.5 17 225.4 18.2C225.3 19.2 225.1 20.2 224.6 21.1Z" fill="#4070D9"/>
<path d="M253 14.5C253.6 15 254 15.8 253.9 16.6C253.9 17 253.8 17.5 253.7 17.9L252.5 22.2C252.4 22.9 252 23.5 251.6 24C251.1 24.4 250.4 24.5 249.8 24.5C249.2 24.5 248.6 24.4 248 24C247.5 23.6 247.2 23 247 22.4L246.2 19.7C246.1 19.3 245.9 18.9 245.6 18.6C245.2 18.4 244.8 18.3 244.3 18.3H239.4L237.1 26.6H239.2C239.5 26.5 239.9 26.4 240.1 26.1L241.7 24.7C242.1 24.4 242.5 24.1 242.9 23.8C243.3 23.6 243.7 23.5 244.2 23.5C244.7 23.5 245.2 23.6 245.6 23.9C245.9 24.2 246.1 24.6 246.1 25C246.1 25.2 246.1 25.4 246 25.6L244.1 32.1C244 32.7 243.6 33.2 243.1 33.6C242.7 33.9 242.2 34.1 241.6 34.1C240.7 34.1 239.9 33.6 239.6 32.8L238.9 31.2C238.7 30.8 238.3 30.5 237.9 30.5H236.1L233.3 40.4H237.4C237.9 40.4 238.4 40.3 238.9 40.1C239.5 39.8 240 39.4 240.4 38.9L243.2 35.8C243.6 35.3 244.1 35 244.6 34.7C245.1 34.4 245.7 34.3 246.3 34.4C246.9 34.4 247.5 34.5 248 34.9C248.4 35.2 248.7 35.8 248.6 36.3C248.6 36.6 248.5 36.9 248.5 37.2L247.1 41.9C246.9 42.9 246.4 43.7 245.6 44.4C244.7 44.9 243.8 45.2 242.8 45.1H220.6C220.1 45.1 219.5 45 219.1 44.8C218.8 44.6 218.6 44.3 218.6 43.9C218.6 43.7 218.6 43.5 218.7 43.3C218.8 43 219 42.7 219.3 42.5C219.5 42.4 219.6 42.3 219.8 42.2C220.2 41.9 220.7 41.6 221 41.2C221.4 40.7 221.7 40.2 221.8 39.6L227.5 19.5C227.6 19.1 227.7 18.8 227.7 18.4C227.7 18.1 227.7 17.8 227.5 17.5C227.4 17.2 227.2 16.9 227 16.7C226.8 16.4 226.6 16.1 226.6 15.7C226.6 15.5 226.6 15.4 226.7 15.2C226.8 14.8 227.1 14.5 227.5 14.3C228.1 14.1 228.8 14 229.4 14H250.1C251.2 13.6 252.2 13.9 253 14.5Z" fill="#4070D9"/>
<path d="M80.6 58.6C80.9 58.8 81.1 59.1 81.1 59.5C81.1 59.7 81 59.9 81 60.1C80.9 60.3 80.8 60.6 80.6 60.7C80.4 60.9 80.1 61.1 79.8 61.2C79.4 61.4 78.9 61.8 78.6 62.1C78.2 62.6 78 63.1 77.8 63.7L72.1 83.8C72.1 84.2 72 84.6 72 85C72 85.3 72 85.6 72.2 85.9C72.3 86.2 72.5 86.4 72.6 86.7C72.7 86.9 72.8 87 72.9 87.2C73 87.4 73 87.6 73 87.7C73 87.9 73 88 72.9 88.2C72.8 88.6 72.4 88.9 72 89.1C71.4 89.3 70.7 89.4 70.1 89.4H59.1C58.6 89.4 58.1 89.3 57.6 89.1C57.3 88.9 57.1 88.6 57.1 88.2C57.1 88 57.2 87.8 57.2 87.6C57.3 87.4 57.4 87.2 57.6 87C57.7 86.9 57.9 86.7 58.1 86.6C58.2 86.5 58.3 86.5 58.4 86.4C58.9 86.2 59.3 85.8 59.6 85.5C60 85 60.2 84.5 60.4 83.9L64 71.2L52 86.2C51.3 87.1 50.5 88 49.6 88.7C49 89.1 48.3 89.4 47.5 89.4C46.8 89.4 46.2 89.2 45.7 88.7C45.2 88 44.8 87.1 44.6 86.3L40.2 71.9L36.7 84C36.6 84.4 36.5 84.7 36.5 85.1C36.5 85.4 36.5 85.7 36.7 86C36.8 86.3 37 86.6 37.2 86.8C37.4 87.1 37.6 87.4 37.6 87.8C37.6 88 37.6 88.1 37.5 88.3C37.4 88.7 37.1 89.1 36.7 89.2C36.1 89.4 35.4 89.5 34.7 89.5H30.9C30.4 89.5 29.8 89.4 29.4 89.2C29.1 89 28.9 88.7 28.9 88.3C28.9 88.1 29 87.9 29 87.7C29.1 87.4 29.3 87.1 29.6 86.9L30.1 86.6C30.5 86.3 31 86 31.3 85.6C31.7 85.1 32 84.6 32.1 84L37.8 63.8L37 61.2C36.8 60.8 36.8 60.3 36.8 59.9C36.8 59.4 37 59 37.3 58.7C37.8 58.4 38.4 58.3 39 58.3H46.2C46.9 58.2 47.7 58.5 48.3 58.9C48.9 59.5 49.2 60.2 49.4 61L54 76.5L66.7 60.8C67.3 60 68.1 59.3 69.1 58.8C70.1 58.4 71.1 58.3 72.2 58.3H79.2C79.7 58.3 80.2 58.4 80.6 58.6Z" fill="#4070D9"/>
<path d="M100.9 58.6C101.2 58.8 101.4 59.1 101.4 59.5C101.4 59.7 101.3 59.9 101.2 60.1C101.1 60.3 101 60.5 100.8 60.7C100.7 60.8 100.5 61 100.3 61.1C100.2 61.2 100.1 61.2 100 61.3C99.5 61.5 99.1 61.9 98.8 62.2C98.4 62.7 98.2 63.2 98 63.8L92.4 83.9C92.3 84.3 92.2 84.6 92.2 85C92.2 85.3 92.2 85.6 92.4 85.9C92.5 86.2 92.7 86.5 92.9 86.7C93.1 87 93.3 87.3 93.3 87.7C93.3 87.9 93.3 88 93.2 88.2C93.1 88.6 92.8 89 92.4 89.1C91.8 89.3 91.1 89.4 90.4 89.4H79.4C78.9 89.4 78.4 89.3 77.9 89.1C77.6 88.9 77.4 88.6 77.4 88.2C77.4 88 77.5 87.8 77.5 87.6C77.6 87.3 77.8 87 78.1 86.8L78.6 86.5C79 86.2 79.5 85.9 79.8 85.5C80.2 85 80.5 84.5 80.6 83.9L86.3 63.8C86.4 63.4 86.5 63 86.5 62.6C86.5 62.3 86.5 62 86.3 61.7C86.2 61.4 86 61.2 85.9 60.9C85.7 60.6 85.5 60.3 85.5 59.9C85.5 59.7 85.5 59.5 85.6 59.4C85.7 59 86 58.7 86.4 58.5C87 58.3 87.7 58.2 88.3 58.2H99.3C100 58.2 100.5 58.3 100.9 58.6Z" fill="#4070D9"/>
<path d="M137.2 59.5C137.2 59.9 137.1 60.4 136.7 60.7C136.4 60.9 136.2 61.1 135.9 61.3C135.5 61.6 135.1 61.9 134.7 62.2C134.3 62.7 134 63.2 133.9 63.8L128.1 84.5C127.8 86 127.1 87.3 126.1 88.4C125.2 89.2 124.1 89.6 122.9 89.5C121.8 89.5 120.7 89.1 119.8 88.4C118.8 87.4 118 86.3 117.5 85L110.5 70.2L106.6 83.8C106.5 84.2 106.5 84.5 106.5 84.9C106.5 85.2 106.6 85.6 106.7 85.9C106.9 86.2 107.1 86.5 107.3 86.7C107.6 87 107.8 87.3 107.8 87.7C107.8 87.8 107.8 88 107.8 88.1C107.7 88.5 107.4 88.9 107 89C106.4 89.2 105.7 89.3 105 89.3H99.8C98.5 89.3 97.9 88.9 97.9 88.1C97.9 87.9 97.9 87.8 98 87.6C98.1 87.3 98.2 87.1 98.4 86.9C98.6 86.7 98.9 86.5 99.2 86.3C99.6 86 100 85.7 100.4 85.4C100.8 84.9 101 84.4 101.2 83.8L107.1 62.8L106.3 61.3C106 60.8 105.9 60.2 105.8 59.7C105.8 58.7 106.4 58.2 107.7 58.2H114.6C115.4 58.1 116.2 58.4 116.9 58.9C117.6 59.6 118.1 60.4 118.6 61.3L125.4 75L128.6 63.7C128.7 63.3 128.7 63 128.7 62.6C128.7 62.3 128.6 61.9 128.5 61.6C128.3 61.3 128.1 61 127.9 60.8C127.6 60.5 127.4 60.2 127.4 59.8C127.4 59.7 127.4 59.5 127.5 59.4C127.6 59 127.9 58.6 128.3 58.5C128.9 58.3 129.6 58.2 130.3 58.2H135.4C136.6 58.3 137.2 58.7 137.2 59.5Z" fill="#4070D9"/>
<path d="M167.2 61C169.6 62.8 170.8 65.4 170.8 68.9C170.8 70.9 170.4 72.9 169.9 74.8C169.1 77.9 167.7 80.8 165.7 83.4C163.9 85.6 161.5 87.2 158.8 88C155.3 89.1 151.6 89.5 147.9 89.4H135.2C134.7 89.4 134.1 89.3 133.7 89.1C133.4 88.9 133.2 88.6 133.2 88.2C133.2 88 133.2 87.8 133.3 87.6C133.4 87.4 133.5 87.2 133.7 87L134.5 86.5C134.9 86.3 135.4 85.9 135.7 85.6C136.1 85.1 136.3 84.6 136.5 84L142.2 63.8C142.3 63.4 142.4 63 142.4 62.6C142.4 62.3 142.4 62 142.2 61.7C142.1 61.4 141.9 61.2 141.8 60.9C141.6 60.6 141.4 60.3 141.4 59.9C141.4 59.7 141.4 59.5 141.5 59.4C141.6 59 141.9 58.7 142.3 58.5C142.9 58.3 143.6 58.2 144.2 58.2H156.8C161.3 58.3 164.8 59.2 167.2 61ZM159.1 66.9C159.1 65.3 158.8 64.1 158.1 63.5C157.3 62.8 156.2 62.5 155.2 62.6H154.2L147.9 85.3H149C150.3 85.3 151.5 85 152.6 84.4C153.8 83.5 154.7 82.4 155.3 81C156.4 78.7 157.3 76.3 157.9 73.8C158.6 71.5 159 69.2 159.1 66.9Z" fill="#4070D9"/>
<path d="M202.6 59C203.2 59.5 203.6 60.2 203.6 61C203.6 61.4 203.5 61.9 203.4 62.3L202.2 66.6C202.1 67.3 201.7 67.9 201.2 68.4C200.7 68.8 200 68.9 199.4 68.9C198.8 68.9 198.2 68.8 197.6 68.4C197.1 68 196.8 67.4 196.6 66.8L195.8 64.1C195.7 63.7 195.5 63.3 195.2 63C194.8 62.8 194.4 62.7 193.9 62.7H189L186.7 71H188.7C189 70.9 189.3 70.8 189.6 70.5L191.2 69.1C191.6 68.8 192 68.5 192.4 68.2C192.8 68 193.2 67.9 193.7 67.9C194.2 67.9 194.7 68 195.1 68.3C195.4 68.6 195.6 69 195.6 69.5C195.6 69.7 195.6 69.9 195.5 70.1L193.6 76.6C193.5 77.2 193.1 77.7 192.7 78.1C192.3 78.4 191.8 78.6 191.2 78.6C190.3 78.6 189.5 78.1 189.2 77.3L188.4 75.7C188.2 75.3 187.8 75 187.4 75H185.6L183 84.9H187.1C187.6 84.9 188.2 84.8 188.7 84.6C189.3 84.3 189.8 83.9 190.2 83.4L193 80.3C193.4 79.8 193.9 79.5 194.4 79.2C194.9 79 195.5 78.8 196 78.9C196.6 78.9 197.2 79 197.7 79.4C198.1 79.7 198.4 80.3 198.3 80.8C198.3 81.1 198.2 81.4 198.2 81.7L196.8 86.4C196.6 87.4 196.1 88.2 195.3 88.9C194.4 89.4 193.4 89.7 192.4 89.6H170.1C169.6 89.6 169 89.5 168.6 89.3C168.3 89.1 168.1 88.8 168.1 88.4C168.1 88.2 168.2 88 168.2 87.8C168.3 87.5 168.5 87.2 168.8 87L169.3 86.7C169.7 86.4 170.2 86.1 170.5 85.7C170.9 85.2 171.2 84.7 171.3 84.1L177 64C177.1 63.6 177.2 63.3 177.2 62.9C177.2 62.6 177.2 62.3 177 62C176.9 61.7 176.7 61.5 176.5 61.2C176.3 60.9 176.1 60.6 176.1 60.2C176.1 60 176.1 59.8 176.2 59.7C176.3 59.3 176.6 59 177 58.8C177.6 58.6 178.3 58.5 178.9 58.5H199.6C200.8 58.2 201.8 58.4 202.6 59Z" fill="#4070D9"/>
<path d="M233.2 61C235.6 62.8 236.8 65.4 236.8 68.9C236.8 70.9 236.4 72.9 235.9 74.8C235.1 77.9 233.7 80.8 231.7 83.4C229.9 85.6 227.5 87.2 224.8 88C221.2 89.1 217.5 89.5 213.8 89.4H201C200.5 89.4 200 89.3 199.5 89.1C199.2 88.9 199 88.6 199 88.2C199 88 199.1 87.8 199.1 87.6C199.2 87.4 199.3 87.2 199.5 87C199.7 86.9 199.9 86.7 200.3 86.5C200.7 86.3 201.1 85.9 201.5 85.6C201.9 85.1 202.1 84.6 202.3 84L208 63.8C208.1 63.4 208.2 63 208.2 62.6C208.2 62.3 208.2 62 208 61.7C207.9 61.4 207.7 61.2 207.6 60.9C207.4 60.6 207.2 60.3 207.2 59.9C207.2 59.7 207.2 59.5 207.3 59.4C207.4 59 207.7 58.7 208.1 58.5C208.7 58.3 209.4 58.2 210 58.2H222.6C227.3 58.3 230.8 59.2 233.2 61ZM225 66.8C225 65.2 224.7 64 224 63.4C223.2 62.7 222.1 62.4 221.1 62.5H220.1L213.8 85.2H214.9C216.2 85.2 217.4 84.9 218.5 84.3C219.7 83.4 220.6 82.3 221.2 80.9C222.3 78.6 223.2 76.2 223.8 73.7C224.5 71.5 224.9 69.2 225 66.8Z" fill="#4070D9"/>
<path d="M15.3 57.8C11.9 57.9 8.6 56.8 5.8 54.9C-0.500002 50.2 -1.9 41.2 2.9 34.8C3.3 34.3 3.7 33.7 4.2 33.3C4.3 33.2 4.4 33.1 4.5 33L8.5 18.8C8.1 17.7 8 16.5 8 15.3C8 14 8.2 12.8 8.5 11.6L8.6 11.3L8.7 11C9.9 6.9 13 3.5 17 1.9C19.2 0.999998 21.5 0.599998 23.9 0.699998H39.3C45.6 0.699998 50.9 2.4 55.1 5.7C59.9 9.5 62.7 15.4 62.7 21.5C62.7 23.6 62.4 25.8 61.8 27.9V28C60.2 34.2 56.2 39.4 50.6 42.6C48.1 44 45.5 45 42.8 45.7C42 50.5 38.9 54.5 34.4 56.4C32.1 57.4 29.6 57.9 27 57.8H15.3Z" fill="#F4ECE9"/>
<path d="M61.8 58.4C54.8 58.4 48.9 56.4 44.3 52.6C40.7 49.6 36.3 44 36.3 34.6C36.3 31.7 36.7 28.7 37.5 25.9C38.8 20.9 41 16.2 44.2 12.2C47.3 8.29997 51.4 5.19998 55.9 3.09998C60.4 1.09998 65.2 0.0999756 70.2 0.0999756C77.2 0.0999756 83.1 2.09998 87.7 5.89998C91.3 8.99998 95.7 14.5 95.7 23.9C95.7 26.8 95.3 29.7 94.5 32.5C93.2 37.5 90.9 42.2 87.7 46.2C84.6 50.1 80.5 53.2 76 55.3C71.5 57.3 66.7 58.4 61.8 58.4Z" fill="#F4ECE9"/>
<path d="M98 58C94.9 58 91.8 57.6 88.9 56.7C87 57.4 84.9 57.8 82.9 57.8C79.3 57.8 75.8 56.6 73 54.4C69.6 51.6 67.6 47.4 67.6 42.9C67.6 41.1 67.9 39.4 68.5 37.7L70.6 31C71.3 28.8 72.3 26.8 73.8 25.1C73.8 24.7 73.8 24.2 73.8 23.8C73.8 21.4 74.2 19 74.9 16.7C76.5 11.6 79.8 7.3 84.3 4.5C88.5 1.8 93.3 0.400003 98.3 0.500003C101.1 0.500003 103.9 0.900003 106.6 1.6C108.4 1 110.3 0.700003 112.2 0.700003C115.6 0.700003 119 1.7 121.8 3.8C125.5 6.6 127.7 11 127.6 15.6C127.6 17.2 127.4 18.8 126.9 20.3L125 26.6C124.6 28.1 123.9 29.5 123.1 30.9C123.3 32.1 123.4 33.3 123.4 34.5C123.4 36.8 123 39.1 122.3 41.3C120.7 46.7 117.1 51.4 112.2 54.3C107.9 56.8 103 58.1 98 58Z" fill="#F4ECE9"/>
<path d="M113.3 57.8C110.4 57.8 107.5 57.1 105 55.6C100.8 53.1 98.2 48.5 98.2 43.6C98.2 41.7 98.6 39.9 99.3 38.2C100.1 36.2 101.3 34.4 102.8 33L106.8 18.8C106.5 17.7 106.4 16.5 106.4 15.3C106.4 14.1 106.6 12.8 106.9 11.6L107 11.3V11C108.3 6.9 111.3 3.5 115.3 1.9C117.5 1.1 119.8 0.599996 122.1 0.699996H133.1C135.9 0.699996 138.6 1.4 141 2.7C145.4 5.2 148.2 9.8 148.2 14.9C148.2 16.7 147.8 18.4 147.2 20.1L147.1 20.4L147 20.7C146.3 22.4 145.2 24 143.8 25.4L143.6 25.6L139.6 39.7C139.9 40.9 140.1 42.1 140.1 43.3C140.1 44.5 139.9 45.7 139.6 46.9V47L139.5 47.2C138.3 51.5 135.1 55 130.9 56.6C128.8 57.4 126.5 57.8 124.2 57.8H113.3Z" fill="#F4ECE9"/>
<path d="M140.6 57.7C137.7 57.7 134.8 57 132.3 55.5C128.1 53 125.5 48.4 125.5 43.5C125.5 41.4 126 39.4 126.8 37.5C127.3 36.4 127.9 35.4 128.6 34.5C128.1 34.1 127.6 33.8 127.2 33.3C124.1 30.4 122.4 26.4 122.4 22.2C122.4 20.8 122.6 19.4 122.9 18L123 17.8L124.3 13.4C124.9 11.3 125.8 9.40002 127 7.60002C128.9 4.90002 131.6 2.80002 134.7 1.70002C136.9 1.00002 139.2 0.600021 141.5 0.700021H168.7C177.6 0.700021 184.3 7.20002 184.3 15.8C184.3 17.6 184 19.3 183.5 21L182.4 24.9C181.6 28 179.9 30.9 177.6 33.1C174.9 35.6 171.4 37.1 167.7 37.3L167.1 39.4C167.4 40.6 167.6 41.8 167.6 43.1C167.6 44.3 167.4 45.5 167.1 46.7L166.9 47.5L166.6 48.2C165.2 51.9 162.2 54.9 158.5 56.4C156.3 57.3 154 57.7 151.6 57.7H140.6Z" fill="#F4ECE9"/>
<path d="M167.6 57.8C164.7 57.8 161.8 57.1 159.3 55.6C155.1 53.1 152.5 48.5 152.5 43.6C152.5 41.7 152.9 39.9 153.6 38.2C154.4 36.2 155.6 34.4 157.1 33L161.1 18.8C160.8 17.7 160.7 16.5 160.7 15.3C160.7 14.1 160.9 12.8 161.2 11.6L161.3 11.3L161.4 11C162.7 6.9 165.7 3.5 169.7 1.9C171.9 1.1 174.2 0.599996 176.5 0.699996H187.5C190.3 0.699996 193 1.4 195.4 2.7C199.8 5.2 202.6 9.8 202.6 14.9C202.6 16.7 202.2 18.4 201.6 20.1L201.5 20.4L201.4 20.7C200.7 22.4 199.6 24 198.2 25.4L198 25.6L194 39.7C194.3 40.9 194.5 42.1 194.5 43.3C194.5 44.5 194.3 45.7 194 46.9L193.9 47.1L193.8 47.3C192.6 51.6 189.4 55.1 185.2 56.7C183.1 57.5 180.8 57.9 178.5 57.9L167.6 57.8Z" fill="#F4ECE9"/>
<path d="M200.9 57.8C196.3 57.9 192 55.9 188.9 52.5C186.6 49.8 185.1 46.5 184.5 43L181.1 24.1L180.7 23.6C179.1 21.5 178.2 18.9 178.1 16.3C177.8 12.4 179 8.60002 181.6 5.60002C184.5 2.30002 188.8 0.500024 193.2 0.600024H204.9C207.4 0.600024 209.9 1.20002 212.2 2.30002C214.9 1.10002 217.7 0.400024 220.7 0.400024C225.3 0.400024 229.8 2.10002 233.1 5.30002C236.5 8.70002 238.4 13.3 238.4 18.1C238.4 21.5 237.6 24.8 235.8 27.7C233.1 32.2 228.7 35.3 223.5 36.2L216.9 47.3C215.6 49.6 213.9 51.8 211.9 53.6C208.8 56.3 204.9 57.8 200.9 57.8Z" fill="#F4ECE9"/>
<path d="M220.6 57.8C217.7 57.8 214.8 57.1 212.3 55.6C208.1 53.1 205.5 48.5 205.5 43.6C205.5 39.6 207.2 35.8 210.1 33L214.1 18.9C213.8 17.7 213.6 16.6 213.7 15.4C213.7 14.2 213.9 12.9 214.2 11.7L214.3 11.4L214.4 11.1C215.7 6.90001 218.8 3.50001 222.9 1.90001C225 1.10001 227.3 0.700014 229.6 0.800014H250.3C254.2 0.700014 258 1.90001 261 4.30001C264.8 7.20001 267 11.8 267 16.6C267 18.2 266.8 19.9 266.3 21.5L265.1 25.6C264.4 28.2 263.2 30.6 261.4 32.6C261.7 33.8 261.8 34.9 261.8 36.1C261.8 37.6 261.6 39 261.2 40.4L259.8 45.3C258.8 49.1 256.5 52.4 253.4 54.8C250.4 56.9 246.7 58 243 57.9L220.6 57.8Z" fill="#F4ECE9"/>
<path d="M47.5 102.4C45.4 102.4 43.4 102 41.5 101.2C39.4 102 37.1 102.4 34.8 102.4H30.9C28 102.4 25.1 101.7 22.6 100.2C18.4 97.7 15.8 93.1 15.8 88.2C15.8 84.2 17.5 80.4 20.3 77.6L24.2 63.8C23.9 62.5 23.7 61.2 23.7 59.9C23.7 55.2 25.9 50.8 29.8 48.1C32.5 46.3 35.7 45.3 38.9 45.4H46.1C50.8 45.3 55.2 47.2 58.3 50.8C59.9 49.2 61.9 47.9 64 46.9C66.6 45.9 69.3 45.4 72.1 45.4H79.1C81.9 45.4 84.6 46.1 87 47.4C91.4 49.9 94.2 54.5 94.2 59.6C94.2 61.3 93.9 63 93.3 64.6C92.5 66.8 91.3 68.7 89.6 70.3L85.6 84.3C85.9 85.5 86.1 86.7 86.1 87.9C86.1 89.1 85.9 90.3 85.6 91.5L85.5 91.9L85.4 92C84.1 96.1 81.1 99.4 77.1 101.1C74.9 102 72.6 102.4 70.2 102.4H59.2C57.2 102.4 55.2 102.1 53.3 101.4C51.5 102.1 49.5 102.4 47.5 102.4Z" fill="#F4ECE9"/>
<path d="M79.5 102.4C76.6 102.4 73.7 101.7 71.2 100.2C67 97.7 64.4 93.1 64.4 88.2C64.4 86.3 64.8 84.5 65.5 82.8C66.3 80.8 67.4 79.1 69 77.6L73 63.4C72.7 62.3 72.6 61.1 72.6 59.9C72.6 58.7 72.8 57.4 73.1 56.2L73.2 55.9L73.3 55.6C74.6 51.5 77.6 48.1 81.6 46.5C83.8 45.6 86.1 45.2 88.4 45.3H99.4C102.2 45.3 104.9 46 107.3 47.3C111.7 49.7 114.5 54.4 114.5 59.5C114.5 61.3 114.1 63 113.5 64.7L113.4 65L113.3 65.3C112.6 67 111.5 68.6 110.1 70L109.9 70.2L105.9 84.3C106.2 85.5 106.4 86.7 106.4 87.9C106.4 89.1 106.2 90.3 105.9 91.5V91.7L105.8 91.9C104.6 96.2 101.4 99.7 97.2 101.3C95.1 102.1 92.8 102.5 90.5 102.5L79.5 102.4Z" fill="#F4ECE9"/>
<path d="M123 102.6C119.8 102.6 116.6 101.8 113.9 100.2C113.2 100.6 112.4 101 111.7 101.3C109.6 102.1 107.3 102.5 105 102.5H99.9C90.2 102.5 85 95.2 85 88.3C85 86.8 85.2 85.4 85.6 84C86.3 81.6 87.7 79.4 89.5 77.7L93.4 63.8C93.1 62.5 92.9 61.2 92.9 59.9C92.9 51.7 99.3 45.4 107.8 45.4H114.7C117.3 45.4 120 45.9 122.3 47.1C122.7 46.9 123.2 46.7 123.6 46.5C125.7 45.7 128 45.3 130.3 45.3H135.4C145.1 45.3 150.3 52.6 150.3 59.5C150.3 61 150.1 62.4 149.7 63.8C149 66.2 147.6 68.3 145.8 70.1L140.8 88C139.9 91.8 138 95.2 135.2 97.9C131.9 101 127.5 102.6 123 102.6Z" fill="#F4ECE9"/>
<path d="M135.1 102.3C132.2 102.3 129.4 101.6 126.9 100.1C122.7 97.6 120.1 93 120.1 88.1C120.1 86.3 120.4 84.5 121.1 82.9C121.9 80.9 123.1 79 124.7 77.5L128.7 63.4C128.4 62.3 128.3 61.1 128.3 60C128.3 58.8 128.5 57.5 128.8 56.3L128.9 56L129 55.7C130.3 51.6 133.3 48.2 137.4 46.6C139.6 45.7 141.9 45.3 144.2 45.4H156.8C164.3 45.4 170.5 47.2 175.2 50.7C180.9 55 184.1 61.8 183.9 68.9C183.9 72.1 183.4 75.3 182.5 78.3C181.2 83.2 179 87.7 175.9 91.7C172.6 95.7 168.1 98.7 163.1 100.4C158.3 101.9 153.4 102.6 148.4 102.5L135.1 102.3Z" fill="#F4ECE9"/>
<path d="M170.2 102.4C167.3 102.4 164.4 101.7 161.9 100.2C157.7 97.7 155.1 93.1 155.1 88.2C155.1 84.2 156.8 80.4 159.7 77.6L163.7 63.5C163.4 62.4 163.2 61.2 163.3 60C163.3 58.8 163.5 57.5 163.8 56.3L163.9 56L164 55.7C165.3 51.5 168.4 48.1 172.5 46.5C174.6 45.7 176.9 45.3 179.1 45.3H199.8C203.7 45.2 207.4 46.5 210.5 48.8C214.3 51.7 216.5 56.3 216.5 61.1C216.5 62.7 216.3 64.4 215.8 66L214.6 70.2C213.9 72.8 212.7 75.2 210.9 77.2C211.2 78.4 211.3 79.6 211.3 80.8C211.3 82.3 211.1 83.7 210.7 85.1L209.3 90C208.3 93.8 206 97.1 202.9 99.5C199.8 101.6 196.2 102.7 192.5 102.6L170.2 102.4Z" fill="#F4ECE9"/>
<path d="M201 102.3C198.1 102.3 195.3 101.6 192.8 100.1C188.6 97.6 186 93 186 88.1C186 86.3 186.3 84.5 187 82.9C187.8 80.9 189 79 190.6 77.5L194.6 63.4C194.3 62.3 194.2 61.1 194.2 60C194.2 58.8 194.4 57.5 194.7 56.3L194.8 56L194.9 55.7C196.2 51.6 199.2 48.2 203.2 46.6C205.4 45.7 207.7 45.3 210.1 45.4H222.7C230.2 45.4 236.4 47.2 241.1 50.7C246.8 55 250 61.8 249.8 68.9C249.8 72.1 249.3 75.3 248.4 78.3C247.1 83.2 244.9 87.7 241.8 91.7C238.5 95.7 234 98.7 229 100.4C224.2 101.9 219.3 102.6 214.3 102.5L201 102.3Z" fill="#F4ECE9"/>
<path d="M47 15.9C48.8 17.3 49.8 19.4 49.7 21.6C49.7 22.6 49.6 23.6 49.3 24.5C48.6 27.4 46.7 29.9 44.1 31.4C41.1 33 37.7 33.8 34.4 33.6H29.6L28 39.3C27.9 39.5 27.9 39.8 27.9 40.1C27.9 40.5 28 40.9 28.2 41.2C28.5 41.6 28.8 41.9 29.1 42.2C29.3 42.4 29.6 42.7 29.8 42.9C29.9 43.1 30 43.3 30 43.5C30 44 29.7 44.5 29.2 44.6C28.5 44.9 27.8 45 27 44.9H15.3C14.7 44.9 14 44.8 13.5 44.5C13.1 44.2 12.9 43.7 13 43.2C13 42.9 13.2 42.7 13.4 42.5C13.6 42.3 13.9 42.1 14.2 41.9C14.7 41.6 15.1 41.3 15.5 40.9C15.9 40.4 16.1 39.9 16.2 39.3L21.9 19.2C22 18.8 22 18.4 22 18C22 17.7 21.9 17.4 21.8 17.1C21.7 16.9 21.5 16.6 21.4 16.3C21.2 16 21 15.7 21 15.3C21 15.1 21 15 21.1 14.8C21.2 14.4 21.5 14.1 21.9 13.9C22.5 13.7 23.2 13.6 23.8 13.6H39.3C42.6 13.7 45.2 14.4 47 15.9ZM38.7 20.6C38.7 18.8 37.9 17.9 36.2 17.9H34L30.7 29.4H32.8C34 29.4 35.1 29 36 28.2C37.1 26.9 37.8 25.3 38.2 23.6C38.4 22.7 38.6 21.6 38.7 20.6Z" fill="#485BEA"/>
<path d="M103 14.1C104.6 14.6 106.1 15.2 107.5 16.1L108.6 15.2C109.2 14.7 109.8 14.3 110.4 14C110.9 13.8 111.5 13.7 112.1 13.7C112.7 13.7 113.3 13.8 113.9 14.2C114.3 14.5 114.6 15.1 114.6 15.6C114.6 15.9 114.6 16.1 114.5 16.4L112.5 22.8C112.4 23.4 112.1 23.9 111.7 24.4C111.3 24.7 110.8 24.9 110.2 24.9C109.5 24.9 108.9 24.7 108.4 24.3C107.5 23.5 106.7 22.6 106 21.7C105.2 20.7 104.2 19.8 103.1 19.1C102.3 18.6 101.3 18.3 100.4 18.3C99.8 18.3 99.1 18.5 98.7 19C98.2 19.4 98 20 98 20.7C98 21.5 98.5 22.3 99.1 22.8C100.2 23.7 101.4 24.5 102.6 25.2C104.2 26.2 105.6 27 106.6 27.8C107.7 28.6 108.6 29.6 109.3 30.7C110.1 31.9 110.5 33.3 110.4 34.7C110.4 35.7 110.2 36.7 109.9 37.6C109.2 39.9 107.6 41.9 105.6 43.1C103.3 44.4 100.8 45.1 98.1 45.1C96.3 45.1 94.4 44.9 92.7 44.3C91.1 43.7 89.6 42.9 88.2 41.8L86.5 43.2C85.9 43.7 85.3 44.2 84.6 44.5C84.1 44.7 83.5 44.9 82.9 44.8C82.3 44.8 81.7 44.7 81.2 44.3C80.8 44 80.5 43.4 80.6 42.9C80.6 42.6 80.7 42.2 80.8 41.9L83.1 34.9C83.3 34.2 83.6 33.6 84.1 33.2C84.6 32.8 85.2 32.7 85.8 32.7C86.5 32.7 87.2 33 87.7 33.5C88.6 34.3 89.3 35.2 90 36.2C90.7 37.4 91.7 38.4 92.8 39.2C93.7 39.8 94.7 40.1 95.8 40C96.5 40 97.1 39.9 97.7 39.6C98.2 39.3 98.5 38.9 98.7 38.3C98.8 38.1 98.8 37.8 98.8 37.6C98.8 36.8 98.4 36 97.7 35.6C96.7 34.8 95.6 34 94.4 33.4C92.8 32.4 91.5 31.6 90.5 30.8C89.5 30 88.6 29 87.9 27.9C87.1 26.7 86.8 25.3 86.8 23.8C86.8 22.7 87 21.6 87.3 20.6C88 18.4 89.4 16.6 91.3 15.4C93.4 14.1 95.8 13.4 98.3 13.4C99.8 13.4 101.4 13.6 103 14.1Z" fill="#485BEA"/>
<path d="M134.7 14C135 14.2 135.2 14.5 135.2 14.9C135.2 15.1 135.1 15.3 135.1 15.5C135 15.7 134.9 15.9 134.7 16.1C134.6 16.2 134.4 16.4 134.2 16.5C134.1 16.6 134 16.6 133.9 16.7C133.4 16.9 133 17.3 132.7 17.6C132.3 18.1 132.1 18.6 131.9 19.2L126.2 39.3C126.1 39.7 126 40.1 126 40.5C126 40.8 126 41.1 126.2 41.4C126.3 41.7 126.5 42 126.7 42.2C126.9 42.5 127.1 42.8 127.1 43.2C127.1 43.4 127 43.5 127 43.7C126.9 44.1 126.6 44.5 126.2 44.6C125.6 44.8 124.9 44.9 124.2 44.9H113.2C112.7 44.9 112.2 44.8 111.7 44.6C111.4 44.4 111.2 44.1 111.2 43.7C111.2 43.5 111.3 43.3 111.3 43.1C111.4 42.8 111.6 42.5 111.9 42.3L112.4 42C112.8 41.7 113.3 41.4 113.6 41C114 40.5 114.3 40 114.4 39.4L120.1 19.3C120.2 18.9 120.3 18.5 120.3 18.1C120.3 17.8 120.3 17.5 120.1 17.2C120 17 119.8 16.7 119.7 16.4C119.5 16.1 119.3 15.8 119.3 15.4C119.3 15.2 119.3 15.1 119.4 14.9C119.5 14.5 119.8 14.2 120.2 14C120.8 13.8 121.5 13.7 122.1 13.7H133.1C133.7 13.6 134.2 13.8 134.7 14Z" fill="#485BEA"/>
<path d="M171.2 15.8C171.2 16.4 171.1 16.9 170.9 17.4L169.8 21.2C169.6 22.1 169.2 22.9 168.5 23.6C167.9 24.1 167.1 24.4 166.4 24.3C165.7 24.3 165.1 24.1 164.6 23.7C164.1 23.1 163.7 22.5 163.4 21.8L162.6 19.9C162.4 19.4 162.2 19 161.8 18.7C161.4 18.5 161 18.3 160.5 18.4H159.4L153.5 39.3C153.4 39.7 153.4 40 153.4 40.4C153.4 40.7 153.4 41 153.6 41.3C153.7 41.6 153.9 41.9 154.1 42.1C154.3 42.4 154.5 42.8 154.5 43.2C154.5 43.4 154.5 43.5 154.4 43.7C154.2 44.1 153.9 44.4 153.5 44.6C152.9 44.8 152.2 44.9 151.6 44.9H140.6C140.1 44.9 139.5 44.8 139.1 44.6C138.8 44.4 138.5 44 138.6 43.7C138.6 43.5 138.6 43.3 138.7 43.1C138.8 42.9 138.9 42.6 139.1 42.5C139.3 42.3 139.6 42.1 139.9 42C140.3 41.7 140.7 41.4 141.1 41.1C141.5 40.6 141.7 40.1 141.9 39.5L147.8 18.6H146.7C146.1 18.6 145.5 18.7 145 18.9C144.5 19.2 144 19.6 143.6 20.1L142.1 22C141.5 22.7 140.8 23.4 140 23.9C139.4 24.3 138.6 24.5 137.8 24.5C137.2 24.5 136.6 24.3 136.1 23.9C135.7 23.5 135.5 22.9 135.5 22.4C135.5 22.1 135.6 21.7 135.6 21.4L136.8 17.2C137 16.5 137.3 15.8 137.6 15.2C137.9 14.7 138.4 14.4 138.9 14.2C139.7 14 140.5 13.9 141.3 13.9H168.5C170.4 13.7 171.2 14.4 171.2 15.8Z" fill="#485BEA"/>
<path d="M189 14C189.3 14.2 189.5 14.5 189.5 14.9C189.5 15.1 189.4 15.3 189.4 15.5C189.3 15.7 189.2 15.9 189 16.1C188.9 16.2 188.7 16.4 188.5 16.5C188.4 16.6 188.3 16.6 188.2 16.7C187.7 16.9 187.3 17.3 187 17.6C186.6 18.1 186.4 18.6 186.2 19.2L180.6 39.3C180.5 39.7 180.4 40.1 180.4 40.5C180.4 40.8 180.4 41.1 180.6 41.4C180.7 41.7 180.9 42 181.1 42.2C181.3 42.5 181.5 42.8 181.5 43.2C181.5 43.4 181.4 43.5 181.4 43.7C181.3 44.1 181 44.5 180.6 44.6C180 44.8 179.3 44.9 178.6 44.9H167.6C167.1 44.9 166.6 44.8 166.1 44.6C165.8 44.4 165.6 44.1 165.6 43.7C165.6 43.5 165.7 43.3 165.7 43.1C165.8 42.8 166 42.5 166.3 42.3L166.8 42C167.2 41.7 167.7 41.4 168 41C168.4 40.5 168.7 40 168.8 39.4L174.5 19.3C174.6 18.9 174.7 18.5 174.7 18.1C174.7 17.8 174.7 17.5 174.5 17.2C174.4 17 174.2 16.7 174.1 16.4C173.9 16.1 173.7 15.8 173.7 15.4C173.7 15.2 173.7 15.1 173.8 14.9C173.9 14.5 174.2 14.2 174.6 14C175.2 13.8 175.9 13.7 176.5 13.7H187.5C188 13.6 188.5 13.8 189 14Z" fill="#485BEA"/>
<path d="M224.6 21.1C224.2 21.9 223.5 22.5 222.8 22.9C222.1 23.3 221.3 23.5 220.6 23.5C219.2 23.5 217.9 22.9 217 21.8L205.7 40.8C205.1 41.9 204.3 43 203.4 43.9C202.7 44.5 201.9 44.8 201 44.8C200.1 44.8 199.3 44.5 198.7 43.8C198 42.9 197.6 41.9 197.5 40.8L193.6 19.2C193.5 18.7 193.4 18.2 193.1 17.8C192.8 17.4 192.5 17 192.1 16.7C191.9 16.5 191.6 16.3 191.4 16C191.3 15.8 191.2 15.6 191.2 15.4C191 14.3 191.7 13.7 193.3 13.7H205C205.6 13.7 206.2 13.8 206.6 14.1C207 14.4 207.2 14.8 207.1 15.3C207.1 15.5 207 15.8 206.9 16C206.8 16.3 206.6 16.5 206.4 16.7C206.2 17 205.9 17.3 205.7 17.6C205.5 17.9 205.5 18.3 205.5 18.6C205.5 18.8 205.5 18.9 205.6 19.1L207.4 30L213.6 19C214.4 17.4 215.5 16 216.8 14.8C217.9 14 219.3 13.5 220.7 13.6C222 13.5 223.2 14 224.1 14.8C225 15.7 225.5 17 225.4 18.2C225.3 19.2 225.1 20.2 224.6 21.1Z" fill="#485BEA"/>
<path d="M253 14.5C253.6 15 254 15.8 253.9 16.6C253.9 17 253.8 17.5 253.7 17.9L252.5 22.2C252.4 22.9 252 23.5 251.6 24C251.1 24.4 250.4 24.5 249.8 24.5C249.2 24.5 248.6 24.4 248 24C247.5 23.6 247.2 23 247 22.4L246.2 19.7C246.1 19.3 245.9 18.9 245.6 18.6C245.2 18.4 244.8 18.3 244.3 18.3H239.4L237.1 26.6H239.2C239.5 26.5 239.9 26.4 240.1 26.1L241.7 24.7C242.1 24.4 242.5 24.1 242.9 23.8C243.3 23.6 243.7 23.5 244.2 23.5C244.7 23.5 245.2 23.6 245.6 23.9C245.9 24.2 246.1 24.6 246.1 25C246.1 25.2 246.1 25.4 246 25.6L244.1 32.1C244 32.7 243.6 33.2 243.1 33.6C242.7 33.9 242.2 34.1 241.6 34.1C240.7 34.1 239.9 33.6 239.6 32.8L238.9 31.2C238.7 30.8 238.3 30.5 237.9 30.5H236.1L233.3 40.4H237.4C237.9 40.4 238.4 40.3 238.9 40.1C239.5 39.8 240 39.4 240.4 38.9L243.2 35.8C243.6 35.3 244.1 35 244.6 34.7C245.1 34.4 245.7 34.3 246.3 34.4C246.9 34.4 247.5 34.5 248 34.9C248.4 35.2 248.7 35.8 248.6 36.3C248.6 36.6 248.5 36.9 248.5 37.2L247.1 41.9C246.9 42.9 246.4 43.7 245.6 44.4C244.7 44.9 243.8 45.2 242.8 45.1H220.6C220.1 45.1 219.5 45 219.1 44.8C218.8 44.6 218.6 44.3 218.6 43.9C218.6 43.7 218.6 43.5 218.7 43.3C218.8 43 219 42.7 219.3 42.5C219.5 42.4 219.6 42.3 219.8 42.2C220.2 41.9 220.7 41.6 221 41.2C221.4 40.7 221.7 40.2 221.8 39.6L227.5 19.5C227.6 19.1 227.7 18.8 227.7 18.4C227.7 18.1 227.7 17.8 227.5 17.5C227.4 17.2 227.2 16.9 227 16.7C226.8 16.4 226.6 16.1 226.6 15.7C226.6 15.5 226.6 15.4 226.7 15.2C226.8 14.8 227.1 14.5 227.5 14.3C228.1 14.1 228.8 14 229.4 14H250.1C251.2 13.6 252.2 13.9 253 14.5Z" fill="#485BEA"/>
<path d="M80.6 58.6C80.9 58.8 81.1 59.1 81.1 59.5C81.1 59.7 81 59.9 81 60.1C80.9 60.3 80.8 60.6 80.6 60.7C80.4 60.9 80.1 61.1 79.8 61.2C79.4 61.4 78.9 61.8 78.6 62.1C78.2 62.6 78 63.1 77.8 63.7L72.1 83.8C72.1 84.2 72 84.6 72 85C72 85.3 72 85.6 72.2 85.9C72.3 86.2 72.5 86.4 72.6 86.7C72.7 86.9 72.8 87 72.9 87.2C73 87.4 73 87.6 73 87.7C73 87.9 73 88 72.9 88.2C72.8 88.6 72.4 88.9 72 89.1C71.4 89.3 70.7 89.4 70.1 89.4H59.1C58.6 89.4 58.1 89.3 57.6 89.1C57.3 88.9 57.1 88.6 57.1 88.2C57.1 88 57.2 87.8 57.2 87.6C57.3 87.4 57.4 87.2 57.6 87C57.7 86.9 57.9 86.7 58.1 86.6C58.2 86.5 58.3 86.5 58.4 86.4C58.9 86.2 59.3 85.8 59.6 85.5C60 85 60.2 84.5 60.4 83.9L64 71.2L52 86.2C51.3 87.1 50.5 88 49.6 88.7C49 89.1 48.3 89.4 47.5 89.4C46.8 89.4 46.2 89.2 45.7 88.7C45.2 88 44.8 87.1 44.6 86.3L40.2 71.9L36.7 84C36.6 84.4 36.5 84.7 36.5 85.1C36.5 85.4 36.5 85.7 36.7 86C36.8 86.3 37 86.6 37.2 86.8C37.4 87.1 37.6 87.4 37.6 87.8C37.6 88 37.6 88.1 37.5 88.3C37.4 88.7 37.1 89.1 36.7 89.2C36.1 89.4 35.4 89.5 34.7 89.5H30.9C30.4 89.5 29.8 89.4 29.4 89.2C29.1 89 28.9 88.7 28.9 88.3C28.9 88.1 29 87.9 29 87.7C29.1 87.4 29.3 87.1 29.6 86.9L30.1 86.6C30.5 86.3 31 86 31.3 85.6C31.7 85.1 32 84.6 32.1 84L37.8 63.8L37 61.2C36.8 60.8 36.8 60.3 36.8 59.9C36.8 59.4 37 59 37.3 58.7C37.8 58.4 38.4 58.3 39 58.3H46.2C46.9 58.2 47.7 58.5 48.3 58.9C48.9 59.5 49.2 60.2 49.4 61L54 76.5L66.7 60.8C67.3 60 68.1 59.3 69.1 58.8C70.1 58.4 71.1 58.3 72.2 58.3H79.2C79.7 58.3 80.2 58.4 80.6 58.6Z" fill="#485BEA"/>
<path d="M100.9 58.6C101.2 58.8 101.4 59.1 101.4 59.5C101.4 59.7 101.3 59.9 101.2 60.1C101.1 60.3 101 60.5 100.8 60.7C100.7 60.8 100.5 61 100.3 61.1C100.2 61.2 100.1 61.2 100 61.3C99.5 61.5 99.1 61.9 98.8 62.2C98.4 62.7 98.2 63.2 98 63.8L92.4 83.9C92.3 84.3 92.2 84.6 92.2 85C92.2 85.3 92.2 85.6 92.4 85.9C92.5 86.2 92.7 86.5 92.9 86.7C93.1 87 93.3 87.3 93.3 87.7C93.3 87.9 93.3 88 93.2 88.2C93.1 88.6 92.8 89 92.4 89.1C91.8 89.3 91.1 89.4 90.4 89.4H79.4C78.9 89.4 78.4 89.3 77.9 89.1C77.6 88.9 77.4 88.6 77.4 88.2C77.4 88 77.5 87.8 77.5 87.6C77.6 87.3 77.8 87 78.1 86.8L78.6 86.5C79 86.2 79.5 85.9 79.8 85.5C80.2 85 80.5 84.5 80.6 83.9L86.3 63.8C86.4 63.4 86.5 63 86.5 62.6C86.5 62.3 86.5 62 86.3 61.7C86.2 61.4 86 61.2 85.9 60.9C85.7 60.6 85.5 60.3 85.5 59.9C85.5 59.7 85.5 59.5 85.6 59.4C85.7 59 86 58.7 86.4 58.5C87 58.3 87.7 58.2 88.3 58.2H99.3C100 58.2 100.5 58.3 100.9 58.6Z" fill="#485BEA"/>
<path d="M137.2 59.5C137.2 59.9 137.1 60.4 136.7 60.7C136.4 60.9 136.2 61.1 135.9 61.3C135.5 61.6 135.1 61.9 134.7 62.2C134.3 62.7 134 63.2 133.9 63.8L128.1 84.5C127.8 86 127.1 87.3 126.1 88.4C125.2 89.2 124.1 89.6 122.9 89.5C121.8 89.5 120.7 89.1 119.8 88.4C118.8 87.4 118 86.3 117.5 85L110.5 70.2L106.6 83.8C106.5 84.2 106.5 84.5 106.5 84.9C106.5 85.2 106.6 85.6 106.7 85.9C106.9 86.2 107.1 86.5 107.3 86.7C107.6 87 107.8 87.3 107.8 87.7C107.8 87.8 107.8 88 107.8 88.1C107.7 88.5 107.4 88.9 107 89C106.4 89.2 105.7 89.3 105 89.3H99.8C98.5 89.3 97.9 88.9 97.9 88.1C97.9 87.9 97.9 87.8 98 87.6C98.1 87.3 98.2 87.1 98.4 86.9C98.6 86.7 98.9 86.5 99.2 86.3C99.6 86 100 85.7 100.4 85.4C100.8 84.9 101 84.4 101.2 83.8L107.1 62.8L106.3 61.3C106 60.8 105.9 60.2 105.8 59.7C105.8 58.7 106.4 58.2 107.7 58.2H114.6C115.4 58.1 116.2 58.4 116.9 58.9C117.6 59.6 118.1 60.4 118.6 61.3L125.4 75L128.6 63.7C128.7 63.3 128.7 63 128.7 62.6C128.7 62.3 128.6 61.9 128.5 61.6C128.3 61.3 128.1 61 127.9 60.8C127.6 60.5 127.4 60.2 127.4 59.8C127.4 59.7 127.4 59.5 127.5 59.4C127.6 59 127.9 58.6 128.3 58.5C128.9 58.3 129.6 58.2 130.3 58.2H135.4C136.6 58.3 137.2 58.7 137.2 59.5Z" fill="#485BEA"/>
<path d="M167.2 61C169.6 62.8 170.8 65.4 170.8 68.9C170.8 70.9 170.4 72.9 169.9 74.8C169.1 77.9 167.7 80.8 165.7 83.4C163.9 85.6 161.5 87.2 158.8 88C155.3 89.1 151.6 89.5 147.9 89.4H135.2C134.7 89.4 134.1 89.3 133.7 89.1C133.4 88.9 133.2 88.6 133.2 88.2C133.2 88 133.2 87.8 133.3 87.6C133.4 87.4 133.5 87.2 133.7 87L134.5 86.5C134.9 86.3 135.4 85.9 135.7 85.6C136.1 85.1 136.3 84.6 136.5 84L142.2 63.8C142.3 63.4 142.4 63 142.4 62.6C142.4 62.3 142.4 62 142.2 61.7C142.1 61.4 141.9 61.2 141.8 60.9C141.6 60.6 141.4 60.3 141.4 59.9C141.4 59.7 141.4 59.5 141.5 59.4C141.6 59 141.9 58.7 142.3 58.5C142.9 58.3 143.6 58.2 144.2 58.2H156.8C161.3 58.3 164.8 59.2 167.2 61ZM159.1 66.9C159.1 65.3 158.8 64.1 158.1 63.5C157.3 62.8 156.2 62.5 155.2 62.6H154.2L147.9 85.3H149C150.3 85.3 151.5 85 152.6 84.4C153.8 83.5 154.7 82.4 155.3 81C156.4 78.7 157.3 76.3 157.9 73.8C158.6 71.5 159 69.2 159.1 66.9Z" fill="#485BEA"/>
<path d="M202.6 59C203.2 59.5 203.6 60.2 203.6 61C203.6 61.4 203.5 61.9 203.4 62.3L202.2 66.6C202.1 67.3 201.7 67.9 201.2 68.4C200.7 68.8 200 68.9 199.4 68.9C198.8 68.9 198.2 68.8 197.6 68.4C197.1 68 196.8 67.4 196.6 66.8L195.8 64.1C195.7 63.7 195.5 63.3 195.2 63C194.8 62.8 194.4 62.7 193.9 62.7H189L186.7 71H188.7C189 70.9 189.3 70.8 189.6 70.5L191.2 69.1C191.6 68.8 192 68.5 192.4 68.2C192.8 68 193.2 67.9 193.7 67.9C194.2 67.9 194.7 68 195.1 68.3C195.4 68.6 195.6 69 195.6 69.5C195.6 69.7 195.6 69.9 195.5 70.1L193.6 76.6C193.5 77.2 193.1 77.7 192.7 78.1C192.3 78.4 191.8 78.6 191.2 78.6C190.3 78.6 189.5 78.1 189.2 77.3L188.4 75.7C188.2 75.3 187.8 75 187.4 75H185.6L183 84.9H187.1C187.6 84.9 188.2 84.8 188.7 84.6C189.3 84.3 189.8 83.9 190.2 83.4L193 80.3C193.4 79.8 193.9 79.5 194.4 79.2C194.9 79 195.5 78.8 196 78.9C196.6 78.9 197.2 79 197.7 79.4C198.1 79.7 198.4 80.3 198.3 80.8C198.3 81.1 198.2 81.4 198.2 81.7L196.8 86.4C196.6 87.4 196.1 88.2 195.3 88.9C194.4 89.4 193.4 89.7 192.4 89.6H170.1C169.6 89.6 169 89.5 168.6 89.3C168.3 89.1 168.1 88.8 168.1 88.4C168.1 88.2 168.2 88 168.2 87.8C168.3 87.5 168.5 87.2 168.8 87L169.3 86.7C169.7 86.4 170.2 86.1 170.5 85.7C170.9 85.2 171.2 84.7 171.3 84.1L177 64C177.1 63.6 177.2 63.3 177.2 62.9C177.2 62.6 177.2 62.3 177 62C176.9 61.7 176.7 61.5 176.5 61.2C176.3 60.9 176.1 60.6 176.1 60.2C176.1 60 176.1 59.8 176.2 59.7C176.3 59.3 176.6 59 177 58.8C177.6 58.6 178.3 58.5 178.9 58.5H199.6C200.8 58.2 201.8 58.4 202.6 59Z" fill="#485BEA"/>
<path d="M233.2 61C235.6 62.8 236.8 65.4 236.8 68.9C236.8 70.9 236.4 72.9 235.9 74.8C235.1 77.9 233.7 80.8 231.7 83.4C229.9 85.6 227.5 87.2 224.8 88C221.2 89.1 217.5 89.5 213.8 89.4H201C200.5 89.4 200 89.3 199.5 89.1C199.2 88.9 199 88.6 199 88.2C199 88 199.1 87.8 199.1 87.6C199.2 87.4 199.3 87.2 199.5 87C199.7 86.9 199.9 86.7 200.3 86.5C200.7 86.3 201.1 85.9 201.5 85.6C201.9 85.1 202.1 84.6 202.3 84L208 63.8C208.1 63.4 208.2 63 208.2 62.6C208.2 62.3 208.2 62 208 61.7C207.9 61.4 207.7 61.2 207.6 60.9C207.4 60.6 207.2 60.3 207.2 59.9C207.2 59.7 207.2 59.5 207.3 59.4C207.4 59 207.7 58.7 208.1 58.5C208.7 58.3 209.4 58.2 210 58.2H222.6C227.3 58.3 230.8 59.2 233.2 61ZM225 66.8C225 65.2 224.7 64 224 63.4C223.2 62.7 222.1 62.4 221.1 62.5H220.1L213.8 85.2H214.9C216.2 85.2 217.4 84.9 218.5 84.3C219.7 83.4 220.6 82.3 221.2 80.9C222.3 78.6 223.2 76.2 223.8 73.7C224.5 71.5 224.9 69.2 225 66.8Z" fill="#485BEA"/>
<path d="M65.9 51.1C53.9 51.1 44.2 41.4 44.2 29.4C44.2 26.1 45 22.8 46.4 19.8C51.7 9.00001 64.7 4.60001 75.4 9.90002C86.1 15.2 90.6 28.2 85.3 38.9C81.7 46.4 74.2 51.1 65.9 51.1Z" fill="#F4ECE9"/>
<path d="M72.4 16.3C65.1 12.7 56.3 15.7 52.7 23C49.1 30.3 52.1 39.1 59.4 42.7C66.7 46.3 75.5 43.3 79.1 36C82.7 28.6 79.7 19.8 72.4 16.3ZM59.7 23.3C60.3 22.1 61.4 21.5 62.2 21.9C63 22.3 63.2 23.6 62.6 24.8C62 26 60.9 26.6 60.1 26.2C59.3 25.8 59.1 24.4 59.7 23.3ZM71.1 35.6C67.5 38.4 62.3 37.7 59.6 34.1C58.5 32.7 57.9 30.9 57.9 29.1C57.9 28.8 58.2 28.5 58.5 28.5C58.8 28.5 59.1 28.8 59.1 29.1C59.1 33 62.3 36.1 66.2 36.1C67.8 36.1 69.3 35.6 70.5 34.6C70.8 34.4 71.1 34.5 71.3 34.7C71.4 35 71.3 35.4 71.1 35.6ZM72.1 32C71.3 31.6 71.1 30.3 71.7 29.1C72.3 27.9 73.4 27.3 74.2 27.7C75 28.1 75.2 29.4 74.6 30.6C74 31.8 72.9 32.4 72.1 32Z" fill="#485BEA"/>
</g>
<defs>
<clipPath id="clip0_0_671">
<rect width="275.8" height="111.5" fill="white"/>
</clipPath>
</defs>
</svg>
