<svg width="308" height="144" viewBox="0 0 308 144" fill="none" xmlns="http://www.w3.org/2000/svg">
<g clip-path="url(#clip0_0_719)">
<path d="M307.67 7.66001V136.24C307.67 137.247 307.472 138.244 307.086 139.174C306.7 140.104 306.135 140.949 305.423 141.66C304.711 142.371 303.865 142.935 302.934 143.32C302.004 143.704 301.007 143.901 300 143.9H205.11C203.863 143.889 202.638 143.571 201.543 142.975C200.447 142.378 199.516 141.522 198.83 140.48C193.858 133.117 187.155 127.087 179.309 122.918C171.463 118.749 162.715 116.569 153.83 116.569C144.945 116.569 136.197 118.749 128.351 122.918C120.505 127.087 113.802 133.117 108.83 140.48C108.145 141.523 107.214 142.38 106.119 142.977C105.023 143.574 103.797 143.891 102.55 143.9H7.66C5.62844 143.9 3.68009 143.093 2.24356 141.656C0.807033 140.22 0 138.272 0 136.24L0 7.66001C0 5.62845 0.807033 3.6801 2.24356 2.24357C3.68009 0.80704 5.62844 6.52801e-06 7.66 6.52801e-06H102.56C103.806 0.00997828 105.031 0.326213 106.126 0.920859C107.221 1.51551 108.153 2.37032 108.84 3.41001C113.809 10.7764 120.511 16.8094 128.357 20.9786C136.204 25.1477 144.955 27.3253 153.84 27.32C162.726 27.3271 171.477 25.1502 179.324 20.9809C187.171 16.8116 193.873 10.7777 198.84 3.41001C199.527 2.37233 200.457 1.51886 201.55 0.924362C202.644 0.329865 203.866 0.0124796 205.11 6.52801e-06H300C301.007 -0.00130779 302.004 0.195854 302.934 0.580217C303.865 0.964579 304.711 1.5286 305.423 2.24003C306.135 2.95146 306.7 3.79633 307.086 4.72634C307.472 5.65635 307.67 6.65324 307.67 7.66001Z" fill="#FFDFD7"/>
<path d="M91.71 69.05V51.46H94.14V53.54H94.35C94.5334 53.2128 94.7442 52.9017 94.98 52.61C95.2912 52.2307 95.6755 51.9178 96.11 51.69C96.6987 51.4077 97.3476 51.2738 98 51.3C98.9798 51.2829 99.943 51.5541 100.77 52.08C101.609 52.6354 102.272 53.4197 102.68 54.34C103.6 56.6173 103.6 59.1627 102.68 61.44C102.273 62.3606 101.615 63.1475 100.78 63.71C99.964 64.2457 99.006 64.5244 98.03 64.51C97.3734 64.5347 96.7209 64.3973 96.13 64.11C95.6944 63.8882 95.3096 63.5783 95 63.2C94.7614 62.9082 94.5473 62.5971 94.36 62.27H94.2V69.05H91.71ZM94.15 57.86C94.1344 58.6671 94.2666 59.4704 94.54 60.23C94.7648 60.8502 95.1557 61.3968 95.67 61.81C96.1954 62.199 96.8365 62.3998 97.49 62.38C98.1618 62.3983 98.8203 62.1906 99.36 61.79C99.8765 61.3623 100.267 60.8024 100.49 60.17C101.004 58.6865 101.004 57.0735 100.49 55.59C100.278 54.963 99.8889 54.4108 99.37 54C98.8239 53.6255 98.1772 53.425 97.515 53.425C96.8528 53.425 96.2061 53.6255 95.66 54C95.144 54.4033 94.7524 54.944 94.53 55.56C94.2674 56.2979 94.1388 57.0768 94.15 57.86Z" fill="#FCD6E1"/>
<path d="M114.29 59V51.46H116.78V64.26H114.34V62H114.2C113.903 62.6904 113.414 63.2806 112.79 63.7C112.08 64.1788 111.235 64.4171 110.38 64.38C109.618 64.3954 108.866 64.2091 108.2 63.84C107.559 63.4564 107.044 62.8931 106.72 62.22C106.336 61.3871 106.152 60.4765 106.18 59.56V51.46H108.67V59.3C108.633 60.0619 108.895 60.8082 109.4 61.38C109.639 61.6377 109.93 61.8408 110.255 61.9754C110.579 62.11 110.929 62.173 111.28 62.16C111.767 62.1533 112.247 62.0335 112.68 61.81C113.15 61.5646 113.547 61.1988 113.83 60.75C114.148 60.2229 114.308 59.6154 114.29 59Z" fill="#FCD6E1"/>
<path d="M126.09 51.46V53.46H119.09V51.46H126.09ZM121 48.4H123.49V60.5C123.465 60.8765 123.541 61.2527 123.71 61.59C123.834 61.8135 124.032 61.9867 124.27 62.08C124.511 62.1653 124.764 62.2092 125.02 62.21C125.196 62.2217 125.374 62.2217 125.55 62.21L125.9 62.14L126.35 64.2C126.146 64.2675 125.94 64.3243 125.73 64.37C125.4 64.4313 125.065 64.4614 124.73 64.46C124.102 64.4775 123.477 64.3581 122.9 64.11C122.342 63.876 121.866 63.483 121.53 62.98C121.149 62.3924 120.963 61.6994 121 61V48.4Z" fill="#FCD6E1"/>
<path d="M140.44 64.51C139.337 64.5366 138.249 64.2524 137.3 63.69C136.403 63.1308 135.682 62.3302 135.22 61.38C134.732 60.2881 134.48 59.1058 134.48 57.91C134.48 56.7142 134.732 55.5318 135.22 54.44C135.679 53.4851 136.401 52.6805 137.3 52.12C138.259 51.5821 139.34 51.2997 140.44 51.2997C141.54 51.2997 142.621 51.5821 143.58 52.12C144.484 52.6749 145.207 53.481 145.66 54.44C146.148 55.5318 146.4 56.7142 146.4 57.91C146.4 59.1058 146.148 60.2881 145.66 61.38C145.204 62.3343 144.481 63.1364 143.58 63.69C142.631 64.2535 141.543 64.5377 140.44 64.51ZM140.44 62.42C141.135 62.4464 141.817 62.2307 142.37 61.81C142.894 61.3789 143.288 60.8113 143.51 60.17C143.765 59.4441 143.89 58.6792 143.88 57.91C143.891 57.144 143.765 56.3822 143.51 55.66C143.291 55.0142 142.901 54.4403 142.38 54C141.815 53.5968 141.139 53.3801 140.445 53.3801C139.751 53.3801 139.075 53.5968 138.51 54C137.979 54.4332 137.584 55.0092 137.37 55.66C137.115 56.3822 136.989 57.144 137 57.91C136.99 58.6792 137.115 59.4441 137.37 60.17C137.584 60.815 137.98 61.3844 138.51 61.81C139.066 62.233 139.752 62.4487 140.45 62.42H140.44Z" fill="#FCD6E1"/>
<path d="M151.67 56.66V64.26H149.18V51.46H151.57V53.55H151.73C152.013 52.8762 152.495 52.3044 153.11 51.91C153.83 51.4782 154.661 51.2662 155.5 51.3C156.297 51.2829 157.085 51.4688 157.79 51.84C158.447 52.2161 158.977 52.7803 159.31 53.46C159.694 54.2929 159.878 55.2035 159.85 56.12V64.26H157.36V56.42C157.406 55.6282 157.148 54.8488 156.64 54.24C156.383 53.9728 156.071 53.7639 155.726 53.6276C155.381 53.4913 155.01 53.4308 154.64 53.45C154.102 53.4414 153.572 53.5724 153.1 53.83C152.65 54.0852 152.283 54.4633 152.04 54.92C151.778 55.4617 151.651 56.0587 151.67 56.66Z" fill="#FCD6E1"/>
<path d="M171 69.05C170.665 69.0513 170.33 69.0211 170 68.96C169.768 68.924 169.54 68.8636 169.32 68.78L169.92 66.78C170.317 66.8909 170.728 66.9448 171.14 66.94C171.491 66.9225 171.824 66.7807 172.08 66.54C172.419 66.1949 172.669 65.7729 172.81 65.31L173.12 64.46L168.44 51.46H171.1L174.34 61.39H174.48L177.72 51.46H180.39L175.07 66C174.851 66.614 174.534 67.1882 174.13 67.7C173.769 68.135 173.31 68.4778 172.79 68.7C172.225 68.9419 171.615 69.0612 171 69.05Z" fill="#FCD6E1"/>
<path d="M187.62 64.51C186.517 64.5377 185.429 64.2535 184.48 63.69C183.579 63.1364 182.856 62.3343 182.4 61.38C181.906 60.29 181.65 59.1069 181.65 57.91C181.65 56.7131 181.906 55.53 182.4 54.44C182.853 53.481 183.576 52.6749 184.48 52.12C185.439 51.5821 186.52 51.2997 187.62 51.2997C188.72 51.2997 189.801 51.5821 190.76 52.12C191.659 52.6805 192.381 53.4851 192.84 54.44C193.328 55.5318 193.58 56.7142 193.58 57.91C193.58 59.1058 193.328 60.2881 192.84 61.38C192.378 62.3302 191.657 63.1308 190.76 63.69C189.811 64.2524 188.723 64.5366 187.62 64.51ZM187.62 62.42C188.315 62.4464 188.997 62.2307 189.55 61.81C190.074 61.3808 190.466 60.8123 190.68 60.17C190.935 59.4441 191.06 58.6792 191.05 57.91C191.061 57.144 190.935 56.3822 190.68 55.66C190.469 55.013 190.081 54.4381 189.56 54C188.993 53.5974 188.315 53.3811 187.62 53.3811C186.925 53.3811 186.247 53.5974 185.68 54C185.156 54.439 184.762 55.013 184.54 55.66C184.285 56.3822 184.159 57.144 184.17 57.91C184.16 58.6792 184.285 59.4441 184.54 60.17C184.762 60.8113 185.156 61.3789 185.68 61.81C186.239 62.2352 186.929 62.4511 187.63 62.42H187.62Z" fill="#FCD6E1"/>
<path d="M204.46 59V51.46H207V64.26H204.5V62H204.37C204.073 62.6904 203.584 63.2806 202.96 63.7C202.248 64.175 201.405 64.4129 200.55 64.38C199.788 64.3954 199.036 64.2091 198.37 63.84C197.729 63.4564 197.214 62.8931 196.89 62.22C196.506 61.3871 196.322 60.4765 196.35 59.56V51.46H198.84V59.3C198.819 59.6777 198.873 60.0557 198.998 60.4126C199.123 60.7695 199.318 61.0982 199.57 61.38C199.809 61.6377 200.1 61.8408 200.425 61.9754C200.749 62.11 201.099 62.173 201.45 62.16C201.934 62.1543 202.411 62.0344 202.84 61.81C203.314 61.566 203.714 61.2001 204 60.75C204.318 60.2229 204.478 59.6154 204.46 59Z" fill="#FCD6E1"/>
<path d="M210.29 64.26V51.46H212.7V53.46H212.83C213.051 52.7941 213.487 52.2206 214.07 51.83C214.66 51.4312 215.358 51.2219 216.07 51.23H216.62H217.13V53.61C217.03 53.61 216.85 53.55 216.59 53.52C216.339 53.4802 216.084 53.4601 215.83 53.46C215.284 53.4532 214.745 53.5803 214.26 53.83C213.804 54.07 213.424 54.4316 213.161 54.8746C212.898 55.3177 212.762 55.8249 212.77 56.34V64.16L210.29 64.26Z" fill="#FCD6E1"/>
<path d="M95.92 84.8V92.4H93.43V75.34H95.89V81.69H96.05C96.3339 81.0195 96.8108 80.4486 97.42 80.05C98.1486 79.6119 98.9908 79.3996 99.84 79.44C100.64 79.423 101.431 79.6087 102.14 79.98C102.804 80.3457 103.339 80.9082 103.67 81.59C104.065 82.4229 104.254 83.3387 104.22 84.26V92.4H101.73V84.56C101.781 83.7628 101.519 82.9772 101 82.37C100.741 82.1051 100.429 81.8984 100.084 81.7639C99.7393 81.6294 99.3697 81.5701 99 81.59C98.4497 81.5817 97.9063 81.7124 97.42 81.97C96.957 82.2178 96.5778 82.597 96.33 83.06C96.0496 83.5964 95.9086 84.1948 95.92 84.8Z" fill="#FCD6E1"/>
<path d="M111.27 92.68C110.512 92.6922 109.76 92.535 109.07 92.22C108.438 91.9369 107.9 91.4789 107.52 90.9C107.123 90.266 106.924 89.5277 106.95 88.78C106.926 88.1595 107.071 87.5442 107.37 87C107.638 86.5368 108.024 86.1535 108.49 85.89C108.983 85.6084 109.516 85.4028 110.07 85.28C110.656 85.1378 111.251 85.0309 111.85 84.96L113.72 84.74C114.069 84.7072 114.408 84.6088 114.72 84.45C114.829 84.3824 114.918 84.286 114.976 84.1714C115.034 84.0567 115.06 83.9282 115.05 83.8V83.74C115.067 83.4309 115.021 83.1216 114.915 82.8309C114.808 82.5403 114.643 82.2745 114.43 82.05C114.182 81.8343 113.893 81.6701 113.58 81.5671C113.268 81.4641 112.938 81.4243 112.61 81.45C111.899 81.406 111.195 81.6033 110.61 82.01C110.174 82.3202 109.829 82.7414 109.61 83.23L107.27 82.7C107.514 81.9814 107.933 81.3352 108.49 80.82C109.029 80.3593 109.659 80.0184 110.34 79.82C111.055 79.5979 111.801 79.4866 112.55 79.49C113.098 79.494 113.644 79.5543 114.18 79.67C114.752 79.7868 115.297 80.0071 115.79 80.32C116.313 80.6555 116.74 81.1206 117.03 81.67C117.376 82.3785 117.541 83.162 117.51 83.95V92.45H115.08V90.65H114.98C114.793 91.0033 114.549 91.3241 114.26 91.6C113.897 91.9306 113.477 92.1916 113.02 92.37C112.461 92.5825 111.868 92.6877 111.27 92.68ZM111.81 90.68C112.425 90.696 113.034 90.5549 113.58 90.27C114.047 90.0221 114.437 89.6523 114.71 89.2C114.96 88.7686 115.091 88.2786 115.09 87.78V86.13C114.94 86.2494 114.766 86.3347 114.58 86.38C114.297 86.4602 114.01 86.5237 113.72 86.57L112.78 86.71L112.01 86.82C111.561 86.873 111.118 86.9736 110.69 87.12C110.312 87.2438 109.969 87.4564 109.69 87.74C109.413 88.1139 109.293 88.5808 109.355 89.0419C109.416 89.5029 109.655 89.9219 110.02 90.21C110.552 90.5514 111.179 90.7159 111.81 90.68Z" fill="#FCD6E1"/>
<path d="M120.9 97.19V79.6H123.33V81.68H123.54C123.719 81.3527 123.927 81.0415 124.16 80.75C124.473 80.3682 124.861 80.055 125.3 79.83C125.895 79.5445 126.551 79.4105 127.21 79.44C128.186 79.4249 129.146 79.696 129.97 80.22C130.815 80.7723 131.481 81.5572 131.89 82.48C132.81 84.7573 132.81 87.3027 131.89 89.58C131.483 90.5006 130.825 91.2875 129.99 91.85C129.174 92.3857 128.216 92.6644 127.24 92.65C126.58 92.6735 125.925 92.5362 125.33 92.25C124.888 92.0288 124.497 91.719 124.18 91.34C123.939 91.0466 123.725 90.732 123.54 90.4H123.39V97.19H120.9ZM123.34 86C123.323 86.804 123.456 87.6041 123.73 88.36C123.943 89.0028 124.335 89.5716 124.86 90C125.399 90.3773 126.042 90.5797 126.7 90.5797C127.358 90.5797 128.001 90.3773 128.54 90C129.059 89.5729 129.453 89.0131 129.68 88.38C130.194 86.8965 130.194 85.2835 129.68 83.8C129.465 83.1718 129.073 82.6194 128.55 82.21C128.004 81.8355 127.357 81.635 126.695 81.635C126.033 81.635 125.386 81.8355 124.84 82.21C124.321 82.6102 123.928 83.1519 123.71 83.77C123.459 84.4864 123.334 85.2409 123.34 86Z" fill="#FCD6E1"/>
<path d="M135.37 97.19V79.6H137.8V81.68H138C138.183 81.3528 138.394 81.0417 138.63 80.75C138.941 80.3707 139.325 80.0578 139.76 79.83C140.355 79.5445 141.011 79.4105 141.67 79.44C142.65 79.4229 143.613 79.6941 144.44 80.22C145.281 80.7733 145.945 81.5582 146.35 82.48C147.27 84.7573 147.27 87.3027 146.35 89.58C145.943 90.5006 145.285 91.2875 144.45 91.85C143.634 92.3857 142.676 92.6644 141.7 92.65C141.043 92.6747 140.391 92.5373 139.8 92.25C139.354 92.0317 138.958 91.7216 138.64 91.34C138.399 91.0466 138.185 90.732 138 90.4H137.85V97.19H135.37ZM137.81 86C137.793 86.804 137.926 87.6041 138.2 88.36C138.413 89.0055 138.809 89.5752 139.34 90C139.861 90.3904 140.499 90.5915 141.15 90.57C141.822 90.5883 142.48 90.3806 143.02 89.98C143.537 89.5524 143.927 88.9924 144.15 88.36C144.664 86.8765 144.664 85.2634 144.15 83.78C143.938 83.1311 143.538 82.56 143 82.14C142.454 81.7655 141.807 81.565 141.145 81.565C140.483 81.565 139.836 81.7655 139.29 82.14C138.774 82.5433 138.382 83.084 138.16 83.7C137.908 84.4398 137.789 85.2186 137.81 86Z" fill="#FCD6E1"/>
<path d="M151 97.19C150.665 97.1912 150.33 97.1611 150 97.1C149.768 97.0639 149.54 97.0036 149.32 96.92L149.92 94.92C150.316 95.0335 150.728 95.0841 151.14 95.07C151.491 95.0606 151.826 94.9216 152.08 94.68C152.419 94.3348 152.669 93.9128 152.81 93.45L153.12 92.6L148.44 79.6H151.1L154.34 89.53H154.47L157.71 79.6H160.39L155.12 94.1C154.901 94.7139 154.584 95.2881 154.18 95.8C153.818 96.2377 153.354 96.5808 152.83 96.8C152.255 97.0588 151.631 97.1918 151 97.19Z" fill="#FCD6E1"/>
<path d="M175 79.6V81.6H167.77V79.6H175ZM169.75 92.4V78.12C169.72 77.4164 169.901 76.7199 170.27 76.12C170.612 75.5965 171.098 75.1833 171.67 74.93C172.259 74.6578 172.901 74.5211 173.55 74.53C173.98 74.5234 174.409 74.5636 174.83 74.65C175.097 74.7089 175.361 74.7823 175.62 74.87L175.04 76.87L174.59 76.75C174.371 76.6983 174.145 76.6747 173.92 76.68C173.685 76.6572 173.448 76.6856 173.226 76.7633C173.003 76.841 172.8 76.9661 172.63 77.13C172.348 77.4983 172.209 77.9569 172.24 78.42V92.42L169.75 92.4Z" fill="#FCD6E1"/>
<path d="M180.86 92.68C180.105 92.6941 179.356 92.5368 178.67 92.22C178.033 91.9399 177.492 91.4815 177.11 90.9C176.713 90.266 176.514 89.5277 176.54 88.78C176.528 88.1558 176.687 87.5402 177 87C177.27 86.5385 177.656 86.1558 178.12 85.89C178.613 85.6084 179.146 85.4028 179.7 85.28C180.29 85.1378 180.888 85.0309 181.49 84.96L183.35 84.74C183.699 84.7084 184.038 84.6099 184.35 84.45C184.459 84.3824 184.548 84.286 184.606 84.1714C184.665 84.0567 184.69 83.9282 184.68 83.8V83.74C184.697 83.4318 184.652 83.1233 184.547 82.833C184.442 82.5426 184.28 82.2764 184.07 82.05C183.567 81.6172 182.912 81.4014 182.25 81.45C181.539 81.4068 180.835 81.604 180.25 82.01C179.818 82.3246 179.474 82.7446 179.25 83.23L176.91 82.7C177.154 81.9814 177.573 81.3351 178.13 80.82C178.672 80.358 179.306 80.0171 179.99 79.82C180.702 79.5979 181.444 79.4866 182.19 79.49C182.738 79.494 183.284 79.5543 183.82 79.67C184.395 79.7867 184.944 80.0069 185.44 80.32C185.957 80.6588 186.381 81.1233 186.67 81.67C187.02 82.3776 187.188 83.1611 187.16 83.95V92.45H184.72V90.65H184.62C184.433 91.0033 184.19 91.3241 183.9 91.6C183.537 91.9305 183.117 92.1916 182.66 92.37C182.086 92.5888 181.474 92.6941 180.86 92.68ZM181.4 90.68C182.015 90.696 182.624 90.5549 183.17 90.27C183.639 90.0251 184.03 89.6546 184.3 89.2C184.557 88.7711 184.692 88.2801 184.69 87.78V86.13C184.537 86.2509 184.36 86.3364 184.17 86.38C183.887 86.4602 183.6 86.5237 183.31 86.57L182.37 86.71L181.6 86.82C181.151 86.873 180.708 86.9736 180.28 87.12C179.922 87.2485 179.599 87.4611 179.34 87.74C179.091 88.0392 178.962 88.4209 178.98 88.81C178.964 89.0821 179.018 89.3537 179.137 89.5989C179.256 89.8441 179.436 90.0545 179.66 90.21C180.178 90.5413 180.786 90.7054 181.4 90.68Z" fill="#FCD6E1"/>
<path d="M195.88 92.65C194.755 92.6798 193.645 92.3884 192.68 91.81C191.788 91.2409 191.077 90.4291 190.63 89.47C190.155 88.3888 189.91 87.2208 189.91 86.04C189.91 84.8591 190.155 83.6911 190.63 82.61C191.087 81.6571 191.8 80.8503 192.69 80.28C193.635 79.7054 194.725 79.4138 195.83 79.44C196.726 79.4235 197.615 79.608 198.43 79.98C199.173 80.3062 199.814 80.8268 200.285 81.4867C200.757 82.1467 201.042 82.9217 201.11 83.73H198.69C198.555 83.1341 198.237 82.5955 197.78 82.19C197.251 81.7346 196.567 81.5017 195.87 81.54C195.225 81.5253 194.592 81.7142 194.06 82.08C193.515 82.471 193.092 83.0084 192.84 83.63C192.536 84.3823 192.39 85.1889 192.41 86C192.388 86.8242 192.534 87.6442 192.84 88.41C193.081 89.0405 193.497 89.5888 194.04 89.99C194.575 90.3662 195.216 90.5624 195.87 90.55C196.315 90.5567 196.755 90.4645 197.16 90.28C197.55 90.1157 197.893 89.8582 198.16 89.53C198.427 89.1816 198.615 88.7788 198.71 88.35H201.13C201.054 89.1465 200.773 89.91 200.316 90.5668C199.859 91.2236 199.24 91.7516 198.52 92.1C197.694 92.4846 196.791 92.6729 195.88 92.65Z" fill="#FCD6E1"/>
<path d="M209.32 92.65C208.183 92.6823 207.059 92.4021 206.07 91.84C205.159 91.3007 204.429 90.5039 203.97 89.55C203.482 88.46 203.23 87.2792 203.23 86.085C203.23 84.8908 203.482 83.71 203.97 82.62C204.416 81.6664 205.119 80.856 206 80.28C206.935 79.7078 208.014 79.4163 209.11 79.44C209.826 79.4383 210.536 79.5601 211.21 79.8C211.894 80.0365 212.518 80.4186 213.04 80.92C213.608 81.4829 214.042 82.1665 214.31 82.92C214.649 83.8827 214.809 84.8996 214.78 85.92V86.8H204.64V84.88H212.37C212.378 84.2764 212.24 83.6797 211.97 83.14C211.716 82.6437 211.328 82.2281 210.85 81.94C210.341 81.633 209.755 81.4769 209.16 81.49C208.512 81.4781 207.875 81.6591 207.33 82.01C206.819 82.3385 206.404 82.7976 206.13 83.34C205.849 83.8911 205.705 84.5016 205.71 85.12V86.57C205.686 87.3263 205.844 88.0773 206.17 88.76C206.447 89.3335 206.889 89.8108 207.44 90.13C208.021 90.4512 208.676 90.6133 209.34 90.6C209.779 90.6069 210.216 90.5358 210.63 90.39C211.005 90.2635 211.346 90.0551 211.63 89.78C211.918 89.4991 212.14 89.1575 212.28 88.78L214.64 89.21C214.458 89.8884 214.115 90.5127 213.64 91.03C213.129 91.5639 212.503 91.9743 211.81 92.23C211.014 92.5266 210.169 92.6691 209.32 92.65Z" fill="#FCD6E1"/>
<path d="M91.71 69.05V51.46H94.14V53.54H94.35C94.5334 53.2128 94.7442 52.9017 94.98 52.61C95.2912 52.2307 95.6755 51.9178 96.11 51.69C96.6987 51.4077 97.3476 51.2738 98 51.3C98.9798 51.2829 99.943 51.5541 100.77 52.08C101.609 52.6354 102.272 53.4197 102.68 54.34C103.6 56.6173 103.6 59.1627 102.68 61.44C102.273 62.3606 101.615 63.1475 100.78 63.71C99.964 64.2457 99.006 64.5244 98.03 64.51C97.3734 64.5347 96.7209 64.3973 96.13 64.11C95.6944 63.8882 95.3096 63.5783 95 63.2C94.7614 62.9082 94.5473 62.5971 94.36 62.27H94.2V69.05H91.71ZM94.15 57.86C94.1344 58.6671 94.2666 59.4704 94.54 60.23C94.7648 60.8502 95.1557 61.3968 95.67 61.81C96.1954 62.199 96.8365 62.3998 97.49 62.38C98.1618 62.3983 98.8203 62.1906 99.36 61.79C99.8765 61.3623 100.267 60.8024 100.49 60.17C101.004 58.6865 101.004 57.0735 100.49 55.59C100.278 54.963 99.8889 54.4108 99.37 54C98.8239 53.6255 98.1772 53.425 97.515 53.425C96.8528 53.425 96.2061 53.6255 95.66 54C95.144 54.4033 94.7524 54.944 94.53 55.56C94.2674 56.2979 94.1388 57.0768 94.15 57.86Z" fill="#4070D9"/>
<path d="M114.29 59V51.46H116.78V64.26H114.34V62H114.2C113.903 62.6904 113.414 63.2806 112.79 63.7C112.08 64.1788 111.235 64.4171 110.38 64.38C109.618 64.3954 108.866 64.2091 108.2 63.84C107.559 63.4564 107.044 62.8931 106.72 62.22C106.336 61.3871 106.152 60.4765 106.18 59.56V51.46H108.67V59.3C108.633 60.0619 108.895 60.8082 109.4 61.38C109.639 61.6377 109.93 61.8408 110.255 61.9754C110.579 62.11 110.929 62.173 111.28 62.16C111.767 62.1533 112.247 62.0335 112.68 61.81C113.15 61.5646 113.547 61.1988 113.83 60.75C114.148 60.2229 114.308 59.6154 114.29 59Z" fill="#4070D9"/>
<path d="M126.09 51.46V53.46H119.09V51.46H126.09ZM121 48.4H123.49V60.5C123.465 60.8765 123.541 61.2527 123.71 61.59C123.834 61.8135 124.032 61.9867 124.27 62.08C124.511 62.1653 124.764 62.2092 125.02 62.21C125.196 62.2217 125.374 62.2217 125.55 62.21L125.9 62.14L126.35 64.2C126.146 64.2675 125.94 64.3243 125.73 64.37C125.4 64.4313 125.065 64.4614 124.73 64.46C124.102 64.4775 123.477 64.3581 122.9 64.11C122.342 63.876 121.866 63.483 121.53 62.98C121.149 62.3924 120.963 61.6994 121 61V48.4Z" fill="#4070D9"/>
<path d="M140.44 64.51C139.337 64.5366 138.249 64.2524 137.3 63.69C136.403 63.1308 135.682 62.3302 135.22 61.38C134.732 60.2881 134.48 59.1058 134.48 57.91C134.48 56.7142 134.732 55.5318 135.22 54.44C135.679 53.4851 136.401 52.6805 137.3 52.12C138.259 51.5821 139.34 51.2997 140.44 51.2997C141.54 51.2997 142.621 51.5821 143.58 52.12C144.484 52.6749 145.207 53.481 145.66 54.44C146.148 55.5318 146.4 56.7142 146.4 57.91C146.4 59.1058 146.148 60.2881 145.66 61.38C145.204 62.3343 144.481 63.1364 143.58 63.69C142.631 64.2535 141.543 64.5377 140.44 64.51ZM140.44 62.42C141.135 62.4464 141.817 62.2307 142.37 61.81C142.894 61.3789 143.288 60.8113 143.51 60.17C143.765 59.4441 143.89 58.6792 143.88 57.91C143.891 57.144 143.765 56.3822 143.51 55.66C143.291 55.0142 142.901 54.4403 142.38 54C141.815 53.5968 141.139 53.3801 140.445 53.3801C139.751 53.3801 139.075 53.5968 138.51 54C137.979 54.4332 137.584 55.0092 137.37 55.66C137.115 56.3822 136.989 57.144 137 57.91C136.99 58.6792 137.115 59.4441 137.37 60.17C137.584 60.815 137.98 61.3844 138.51 61.81C139.066 62.233 139.752 62.4487 140.45 62.42H140.44Z" fill="#4070D9"/>
<path d="M151.67 56.66V64.26H149.18V51.46H151.57V53.55H151.73C152.013 52.8762 152.495 52.3044 153.11 51.91C153.83 51.4782 154.661 51.2662 155.5 51.3C156.297 51.2829 157.085 51.4688 157.79 51.84C158.447 52.2161 158.977 52.7803 159.31 53.46C159.694 54.2929 159.878 55.2035 159.85 56.12V64.26H157.36V56.42C157.406 55.6282 157.148 54.8488 156.64 54.24C156.383 53.9728 156.071 53.7639 155.726 53.6276C155.381 53.4913 155.01 53.4308 154.64 53.45C154.102 53.4414 153.572 53.5724 153.1 53.83C152.65 54.0852 152.283 54.4633 152.04 54.92C151.778 55.4617 151.651 56.0587 151.67 56.66Z" fill="#4070D9"/>
<path d="M171 69.05C170.665 69.0513 170.33 69.0211 170 68.96C169.768 68.924 169.54 68.8636 169.32 68.78L169.92 66.78C170.317 66.8909 170.728 66.9448 171.14 66.94C171.491 66.9225 171.824 66.7807 172.08 66.54C172.419 66.1949 172.669 65.7729 172.81 65.31L173.12 64.46L168.44 51.46H171.1L174.34 61.39H174.48L177.72 51.46H180.39L175.07 66C174.851 66.614 174.534 67.1882 174.13 67.7C173.769 68.135 173.31 68.4778 172.79 68.7C172.225 68.9419 171.615 69.0612 171 69.05Z" fill="#4070D9"/>
<path d="M187.62 64.51C186.517 64.5377 185.429 64.2535 184.48 63.69C183.579 63.1364 182.856 62.3343 182.4 61.38C181.906 60.29 181.65 59.1069 181.65 57.91C181.65 56.7131 181.906 55.53 182.4 54.44C182.853 53.481 183.576 52.6749 184.48 52.12C185.439 51.5821 186.52 51.2997 187.62 51.2997C188.72 51.2997 189.801 51.5821 190.76 52.12C191.659 52.6805 192.381 53.4851 192.84 54.44C193.328 55.5318 193.58 56.7142 193.58 57.91C193.58 59.1058 193.328 60.2881 192.84 61.38C192.378 62.3302 191.657 63.1308 190.76 63.69C189.811 64.2524 188.723 64.5366 187.62 64.51ZM187.62 62.42C188.315 62.4464 188.997 62.2307 189.55 61.81C190.074 61.3808 190.466 60.8123 190.68 60.17C190.935 59.4441 191.06 58.6792 191.05 57.91C191.061 57.144 190.935 56.3822 190.68 55.66C190.469 55.013 190.081 54.4381 189.56 54C188.993 53.5974 188.315 53.3811 187.62 53.3811C186.925 53.3811 186.247 53.5974 185.68 54C185.156 54.439 184.762 55.013 184.54 55.66C184.285 56.3822 184.159 57.144 184.17 57.91C184.16 58.6792 184.285 59.4441 184.54 60.17C184.762 60.8113 185.156 61.3789 185.68 61.81C186.239 62.2352 186.929 62.4511 187.63 62.42H187.62Z" fill="#4070D9"/>
<path d="M204.46 59V51.46H207V64.26H204.5V62H204.37C204.073 62.6904 203.584 63.2806 202.96 63.7C202.248 64.175 201.405 64.4129 200.55 64.38C199.788 64.3954 199.036 64.2091 198.37 63.84C197.729 63.4564 197.214 62.8931 196.89 62.22C196.506 61.3871 196.322 60.4765 196.35 59.56V51.46H198.84V59.3C198.819 59.6777 198.873 60.0557 198.998 60.4126C199.123 60.7695 199.318 61.0982 199.57 61.38C199.809 61.6377 200.1 61.8408 200.425 61.9754C200.749 62.11 201.099 62.173 201.45 62.16C201.934 62.1543 202.411 62.0344 202.84 61.81C203.314 61.566 203.714 61.2001 204 60.75C204.318 60.2229 204.478 59.6154 204.46 59Z" fill="#4070D9"/>
<path d="M210.29 64.26V51.46H212.7V53.46H212.83C213.051 52.7941 213.487 52.2206 214.07 51.83C214.66 51.4312 215.358 51.2219 216.07 51.23H216.62H217.13V53.61C217.03 53.61 216.85 53.55 216.59 53.52C216.339 53.4802 216.084 53.4601 215.83 53.46C215.284 53.4532 214.745 53.5803 214.26 53.83C213.804 54.07 213.424 54.4316 213.161 54.8746C212.898 55.3177 212.762 55.8249 212.77 56.34V64.16L210.29 64.26Z" fill="#4070D9"/>
<path d="M95.92 84.8V92.4H93.43V75.34H95.89V81.69H96.05C96.3339 81.0195 96.8108 80.4486 97.42 80.05C98.1486 79.6119 98.9908 79.3996 99.84 79.44C100.64 79.423 101.431 79.6087 102.14 79.98C102.804 80.3457 103.339 80.9082 103.67 81.59C104.065 82.4229 104.254 83.3387 104.22 84.26V92.4H101.73V84.56C101.781 83.7628 101.519 82.9772 101 82.37C100.741 82.1051 100.429 81.8984 100.084 81.7639C99.7393 81.6294 99.3697 81.5701 99 81.59C98.4497 81.5817 97.9063 81.7124 97.42 81.97C96.957 82.2178 96.5778 82.597 96.33 83.06C96.0496 83.5964 95.9086 84.1948 95.92 84.8Z" fill="#4070D9"/>
<path d="M111.27 92.68C110.512 92.6922 109.76 92.535 109.07 92.22C108.438 91.9369 107.9 91.4789 107.52 90.9C107.123 90.266 106.924 89.5277 106.95 88.78C106.926 88.1595 107.071 87.5442 107.37 87C107.638 86.5368 108.024 86.1535 108.49 85.89C108.983 85.6084 109.516 85.4028 110.07 85.28C110.656 85.1378 111.251 85.0309 111.85 84.96L113.72 84.74C114.069 84.7072 114.408 84.6088 114.72 84.45C114.829 84.3824 114.918 84.286 114.976 84.1714C115.034 84.0567 115.06 83.9282 115.05 83.8V83.74C115.067 83.4309 115.021 83.1216 114.915 82.8309C114.808 82.5403 114.643 82.2745 114.43 82.05C114.182 81.8343 113.893 81.6701 113.58 81.5671C113.268 81.4641 112.938 81.4243 112.61 81.45C111.899 81.406 111.195 81.6033 110.61 82.01C110.174 82.3202 109.829 82.7414 109.61 83.23L107.27 82.7C107.514 81.9814 107.933 81.3352 108.49 80.82C109.029 80.3593 109.659 80.0184 110.34 79.82C111.055 79.5979 111.801 79.4866 112.55 79.49C113.098 79.494 113.644 79.5543 114.18 79.67C114.752 79.7868 115.297 80.0071 115.79 80.32C116.313 80.6555 116.74 81.1206 117.03 81.67C117.376 82.3785 117.541 83.162 117.51 83.95V92.45H115.08V90.65H114.98C114.793 91.0033 114.549 91.3241 114.26 91.6C113.897 91.9306 113.477 92.1916 113.02 92.37C112.461 92.5825 111.868 92.6877 111.27 92.68ZM111.81 90.68C112.425 90.696 113.034 90.5549 113.58 90.27C114.047 90.0221 114.437 89.6523 114.71 89.2C114.96 88.7686 115.091 88.2786 115.09 87.78V86.13C114.94 86.2494 114.766 86.3347 114.58 86.38C114.297 86.4602 114.01 86.5237 113.72 86.57L112.78 86.71L112.01 86.82C111.561 86.873 111.118 86.9736 110.69 87.12C110.312 87.2438 109.969 87.4564 109.69 87.74C109.413 88.1139 109.293 88.5808 109.355 89.0419C109.416 89.5029 109.655 89.9219 110.02 90.21C110.552 90.5514 111.179 90.7159 111.81 90.68Z" fill="#4070D9"/>
<path d="M120.9 97.19V79.6H123.33V81.68H123.54C123.719 81.3527 123.927 81.0415 124.16 80.75C124.473 80.3682 124.861 80.055 125.3 79.83C125.895 79.5445 126.551 79.4105 127.21 79.44C128.186 79.4249 129.146 79.696 129.97 80.22C130.815 80.7723 131.481 81.5572 131.89 82.48C132.81 84.7573 132.81 87.3027 131.89 89.58C131.483 90.5006 130.825 91.2875 129.99 91.85C129.174 92.3857 128.216 92.6644 127.24 92.65C126.58 92.6735 125.925 92.5362 125.33 92.25C124.888 92.0288 124.497 91.719 124.18 91.34C123.939 91.0466 123.725 90.732 123.54 90.4H123.39V97.19H120.9ZM123.34 86C123.323 86.804 123.456 87.6041 123.73 88.36C123.943 89.0028 124.335 89.5716 124.86 90C125.399 90.3773 126.042 90.5797 126.7 90.5797C127.358 90.5797 128.001 90.3773 128.54 90C129.059 89.5729 129.453 89.0131 129.68 88.38C130.194 86.8965 130.194 85.2835 129.68 83.8C129.465 83.1718 129.073 82.6194 128.55 82.21C128.004 81.8355 127.357 81.635 126.695 81.635C126.033 81.635 125.386 81.8355 124.84 82.21C124.321 82.6102 123.928 83.1519 123.71 83.77C123.459 84.4864 123.334 85.2409 123.34 86Z" fill="#4070D9"/>
<path d="M135.37 97.19V79.6H137.8V81.68H138C138.183 81.3528 138.394 81.0417 138.63 80.75C138.941 80.3707 139.325 80.0578 139.76 79.83C140.355 79.5445 141.011 79.4105 141.67 79.44C142.65 79.4229 143.613 79.6941 144.44 80.22C145.281 80.7733 145.945 81.5582 146.35 82.48C147.27 84.7573 147.27 87.3027 146.35 89.58C145.943 90.5006 145.285 91.2875 144.45 91.85C143.634 92.3857 142.676 92.6644 141.7 92.65C141.043 92.6747 140.391 92.5373 139.8 92.25C139.354 92.0317 138.958 91.7216 138.64 91.34C138.399 91.0466 138.185 90.732 138 90.4H137.85V97.19H135.37ZM137.81 86C137.793 86.804 137.926 87.6041 138.2 88.36C138.413 89.0055 138.809 89.5752 139.34 90C139.861 90.3904 140.499 90.5915 141.15 90.57C141.822 90.5883 142.48 90.3806 143.02 89.98C143.537 89.5524 143.927 88.9924 144.15 88.36C144.664 86.8765 144.664 85.2634 144.15 83.78C143.938 83.1311 143.538 82.56 143 82.14C142.454 81.7655 141.807 81.565 141.145 81.565C140.483 81.565 139.836 81.7655 139.29 82.14C138.774 82.5433 138.382 83.084 138.16 83.7C137.908 84.4398 137.789 85.2186 137.81 86Z" fill="#4070D9"/>
<path d="M151 97.19C150.665 97.1912 150.33 97.1611 150 97.1C149.768 97.0639 149.54 97.0036 149.32 96.92L149.92 94.92C150.316 95.0335 150.728 95.0841 151.14 95.07C151.491 95.0606 151.826 94.9216 152.08 94.68C152.419 94.3348 152.669 93.9128 152.81 93.45L153.12 92.6L148.44 79.6H151.1L154.34 89.53H154.47L157.71 79.6H160.39L155.12 94.1C154.901 94.7139 154.584 95.2881 154.18 95.8C153.818 96.2377 153.354 96.5808 152.83 96.8C152.255 97.0588 151.631 97.1918 151 97.19Z" fill="#4070D9"/>
<path d="M175 79.6V81.6H167.77V79.6H175ZM169.75 92.4V78.12C169.72 77.4164 169.901 76.7199 170.27 76.12C170.612 75.5965 171.098 75.1833 171.67 74.93C172.259 74.6578 172.901 74.5211 173.55 74.53C173.98 74.5234 174.409 74.5636 174.83 74.65C175.097 74.7089 175.361 74.7823 175.62 74.87L175.04 76.87L174.59 76.75C174.371 76.6983 174.145 76.6747 173.92 76.68C173.685 76.6572 173.448 76.6856 173.226 76.7633C173.003 76.841 172.8 76.9661 172.63 77.13C172.348 77.4983 172.209 77.9569 172.24 78.42V92.42L169.75 92.4Z" fill="#4070D9"/>
<path d="M180.86 92.68C180.105 92.6941 179.356 92.5368 178.67 92.22C178.033 91.9399 177.492 91.4815 177.11 90.9C176.713 90.266 176.514 89.5277 176.54 88.78C176.528 88.1558 176.687 87.5402 177 87C177.27 86.5385 177.656 86.1558 178.12 85.89C178.613 85.6084 179.146 85.4028 179.7 85.28C180.29 85.1378 180.888 85.0309 181.49 84.96L183.35 84.74C183.699 84.7084 184.038 84.6099 184.35 84.45C184.459 84.3824 184.548 84.286 184.606 84.1714C184.665 84.0567 184.69 83.9282 184.68 83.8V83.74C184.697 83.4318 184.652 83.1233 184.547 82.833C184.442 82.5426 184.28 82.2764 184.07 82.05C183.567 81.6172 182.912 81.4014 182.25 81.45C181.539 81.4068 180.835 81.604 180.25 82.01C179.818 82.3246 179.474 82.7446 179.25 83.23L176.91 82.7C177.154 81.9814 177.573 81.3351 178.13 80.82C178.672 80.358 179.306 80.0171 179.99 79.82C180.702 79.5979 181.444 79.4866 182.19 79.49C182.738 79.494 183.284 79.5543 183.82 79.67C184.395 79.7867 184.944 80.0069 185.44 80.32C185.957 80.6588 186.381 81.1233 186.67 81.67C187.02 82.3776 187.188 83.1611 187.16 83.95V92.45H184.72V90.65H184.62C184.433 91.0033 184.19 91.3241 183.9 91.6C183.537 91.9305 183.117 92.1916 182.66 92.37C182.086 92.5888 181.474 92.6941 180.86 92.68ZM181.4 90.68C182.015 90.696 182.624 90.5549 183.17 90.27C183.639 90.0251 184.03 89.6546 184.3 89.2C184.557 88.7711 184.692 88.2801 184.69 87.78V86.13C184.537 86.2509 184.36 86.3364 184.17 86.38C183.887 86.4602 183.6 86.5237 183.31 86.57L182.37 86.71L181.6 86.82C181.151 86.873 180.708 86.9736 180.28 87.12C179.922 87.2485 179.599 87.4611 179.34 87.74C179.091 88.0392 178.962 88.4209 178.98 88.81C178.964 89.0821 179.018 89.3537 179.137 89.5989C179.256 89.8441 179.436 90.0545 179.66 90.21C180.178 90.5413 180.786 90.7054 181.4 90.68Z" fill="#4070D9"/>
<path d="M195.88 92.65C194.755 92.6798 193.645 92.3884 192.68 91.81C191.788 91.2409 191.077 90.4291 190.63 89.47C190.155 88.3888 189.91 87.2208 189.91 86.04C189.91 84.8591 190.155 83.6911 190.63 82.61C191.087 81.6571 191.8 80.8503 192.69 80.28C193.635 79.7054 194.725 79.4138 195.83 79.44C196.726 79.4235 197.615 79.608 198.43 79.98C199.173 80.3062 199.814 80.8268 200.285 81.4867C200.757 82.1467 201.042 82.9217 201.11 83.73H198.69C198.555 83.1341 198.237 82.5955 197.78 82.19C197.251 81.7346 196.567 81.5017 195.87 81.54C195.225 81.5253 194.592 81.7142 194.06 82.08C193.515 82.471 193.092 83.0084 192.84 83.63C192.536 84.3823 192.39 85.1889 192.41 86C192.388 86.8242 192.534 87.6442 192.84 88.41C193.081 89.0405 193.497 89.5888 194.04 89.99C194.575 90.3662 195.216 90.5624 195.87 90.55C196.315 90.5567 196.755 90.4645 197.16 90.28C197.55 90.1157 197.893 89.8582 198.16 89.53C198.427 89.1816 198.615 88.7788 198.71 88.35H201.13C201.054 89.1465 200.773 89.91 200.316 90.5668C199.859 91.2236 199.24 91.7516 198.52 92.1C197.694 92.4846 196.791 92.6729 195.88 92.65Z" fill="#4070D9"/>
<path d="M209.32 92.65C208.183 92.6823 207.059 92.4021 206.07 91.84C205.159 91.3007 204.429 90.5039 203.97 89.55C203.482 88.46 203.23 87.2792 203.23 86.085C203.23 84.8908 203.482 83.71 203.97 82.62C204.416 81.6664 205.119 80.856 206 80.28C206.935 79.7078 208.014 79.4163 209.11 79.44C209.826 79.4383 210.536 79.5601 211.21 79.8C211.894 80.0365 212.518 80.4186 213.04 80.92C213.608 81.4829 214.042 82.1665 214.31 82.92C214.649 83.8827 214.809 84.8996 214.78 85.92V86.8H204.64V84.88H212.37C212.378 84.2764 212.24 83.6797 211.97 83.14C211.716 82.6437 211.328 82.2281 210.85 81.94C210.341 81.633 209.755 81.4769 209.16 81.49C208.512 81.4781 207.875 81.6591 207.33 82.01C206.819 82.3385 206.404 82.7976 206.13 83.34C205.849 83.8911 205.705 84.5016 205.71 85.12V86.57C205.686 87.3263 205.844 88.0773 206.17 88.76C206.447 89.3335 206.889 89.8108 207.44 90.13C208.021 90.4512 208.676 90.6133 209.34 90.6C209.779 90.6069 210.216 90.5358 210.63 90.39C211.005 90.2635 211.346 90.0551 211.63 89.78C211.918 89.4991 212.14 89.1575 212.28 88.78L214.64 89.21C214.458 89.8884 214.115 90.5127 213.64 91.03C213.129 91.5639 212.503 91.9743 211.81 92.23C211.014 92.5266 210.169 92.6691 209.32 92.65Z" fill="#4070D9"/>
<path d="M44.66 54.67C41.2445 54.67 37.9056 55.6822 35.065 57.5788C32.2244 59.4753 30.0095 62.1711 28.7002 65.3257C27.3909 68.4803 27.0458 71.9522 27.7085 75.3028C28.3712 78.6534 30.012 81.7325 32.4236 84.1511C34.8353 86.5698 37.9096 88.2194 41.2583 88.8918C44.607 89.5642 48.0798 89.2291 51.2382 87.9289C54.3966 86.6287 57.0988 84.4217 59.0035 81.5866C60.9083 78.7515 61.9301 75.4155 61.94 72C61.9466 69.7265 61.5045 67.4741 60.639 65.3719C59.7736 63.2696 58.5018 61.3587 56.8965 59.7488C55.2913 58.1389 53.3841 56.8616 51.2843 55.9901C49.1846 55.1186 46.9335 54.67 44.66 54.67ZM34.85 68.67C34.85 67.13 35.72 65.87 36.8 65.87C37.88 65.87 38.8 67.13 38.8 68.67C38.8 70.21 37.92 71.48 36.8 71.48C35.68 71.48 34.85 70.18 34.85 68.63V68.67ZM53.3 75.75C52.5018 77.365 51.2678 78.7247 49.7375 79.6754C48.2072 80.626 46.4415 81.1298 44.64 81.1298C42.8385 81.1298 41.0728 80.626 39.5425 79.6754C38.0122 78.7247 36.7782 77.365 35.98 75.75C35.9032 75.5878 35.8926 75.402 35.9504 75.2321C36.0083 75.0622 36.1301 74.9216 36.29 74.84C36.3699 74.7992 36.4571 74.7749 36.5465 74.7685C36.6359 74.7621 36.7257 74.7737 36.8105 74.8026C36.8954 74.8315 36.9736 74.8771 37.0405 74.9368C37.1074 74.9965 37.1616 75.069 37.2 75.15C37.886 76.5372 38.9462 77.7051 40.2609 78.5216C41.5756 79.3381 43.0924 79.7708 44.64 79.7708C46.1876 79.7708 47.7044 79.3381 49.0191 78.5216C50.3338 77.7051 51.394 76.5372 52.08 75.15C52.118 75.0676 52.172 74.9935 52.2391 74.9323C52.3061 74.8711 52.3847 74.824 52.4702 74.7936C52.5557 74.7633 52.6465 74.7503 52.7371 74.7556C52.8277 74.7608 52.9163 74.7842 52.9977 74.8242C53.0792 74.8643 53.1518 74.9202 53.2113 74.9888C53.2707 75.0574 53.3159 75.1371 53.3441 75.2234C53.3722 75.3097 53.3828 75.4007 53.3753 75.4911C53.3677 75.5816 53.3421 75.6696 53.3 75.75ZM52.52 71.44C51.45 71.44 50.52 70.18 50.52 68.63C50.52 67.08 51.4 65.83 52.52 65.83C53.64 65.83 54.47 67.09 54.47 68.63C54.47 70.17 53.6 71.44 52.52 71.44Z" fill="#4070D9"/>
<path d="M263 54.67C259.585 54.672 256.247 55.6859 253.408 57.5836C250.568 59.4814 248.355 62.1779 247.047 65.3326C245.74 68.4874 245.396 71.959 246.06 75.3089C246.724 78.6589 248.365 81.737 250.777 84.1547C253.189 86.5723 256.264 88.221 259.612 88.8926C262.96 89.5642 266.433 89.2285 269.591 87.928C272.748 86.6275 275.45 84.4204 277.354 81.5855C279.259 78.7507 280.28 75.4151 280.29 72C280.297 69.7257 279.854 67.4725 278.988 65.3695C278.122 63.2666 276.849 61.3553 275.243 59.7453C273.637 58.1353 271.728 56.8582 269.627 55.9872C267.527 55.1163 265.274 54.6687 263 54.67ZM253.19 68.67C253.19 67.13 254.06 65.87 255.19 65.87C256.32 65.87 257.19 67.13 257.19 68.67C257.19 70.21 256.31 71.48 255.19 71.48C254.07 71.48 253.2 70.18 253.2 68.63L253.19 68.67ZM271.64 75.79C270.842 77.405 269.608 78.7647 268.078 79.7154C266.547 80.666 264.782 81.1698 262.98 81.1698C261.178 81.1698 259.413 80.666 257.883 79.7154C256.352 78.7647 255.118 77.405 254.32 75.79C254.243 75.6278 254.233 75.442 254.29 75.2721C254.348 75.1022 254.47 74.9616 254.63 74.88C254.71 74.8392 254.797 74.8149 254.887 74.8085C254.976 74.8021 255.066 74.8137 255.151 74.8426C255.235 74.8715 255.314 74.9171 255.381 74.9768C255.447 75.0365 255.502 75.109 255.54 75.19C256.226 76.5772 257.286 77.7451 258.601 78.5616C259.916 79.3781 261.432 79.8108 262.98 79.8108C264.528 79.8108 266.044 79.3781 267.359 78.5616C268.674 77.7451 269.734 76.5772 270.42 75.19C270.458 75.1076 270.512 75.0336 270.579 74.9723C270.646 74.9111 270.725 74.864 270.81 74.8336C270.896 74.8033 270.986 74.7903 271.077 74.7956C271.168 74.8008 271.256 74.8242 271.338 74.8642C271.419 74.9043 271.492 74.9602 271.551 75.0288C271.611 75.0973 271.656 75.1771 271.684 75.2634C271.712 75.3497 271.723 75.4407 271.715 75.5311C271.708 75.6216 271.682 75.7096 271.64 75.79ZM270.86 71.48C269.79 71.48 268.91 70.22 268.91 68.67C268.91 67.12 269.79 65.87 270.86 65.87C271.93 65.87 272.81 67.13 272.81 68.67C272.81 70.21 272 71.44 270.87 71.44L270.86 71.48Z" fill="#4070D9"/>
</g>
<defs>
<clipPath id="clip0_0_719">
<rect width="307.67" height="143.9" fill="white"/>
</clipPath>
</defs>
</svg>
