<svg width="506" height="135" viewBox="0 0 506 135" fill="none" xmlns="http://www.w3.org/2000/svg">
<g clip-path="url(#clip0_0_23)">
<path d="M474.42 0H31.23C13.9821 0 0 13.9821 0 31.23V103.18C0 120.428 13.9821 134.41 31.23 134.41H474.42C491.668 134.41 505.65 120.428 505.65 103.18V31.23C505.65 13.9821 491.668 0 474.42 0Z" fill="#191919"/>
<path d="M186.32 22H92.61C81.9012 22 73.22 30.6812 73.22 41.39C73.22 52.0988 81.9012 60.78 92.61 60.78H186.32C197.029 60.78 205.71 52.0988 205.71 41.39C205.71 30.6812 197.029 22 186.32 22Z" fill="#FB4AB5"/>
<path d="M107.5 45.58H107.09C106.969 45.841 106.821 46.0889 106.65 46.32C106.476 46.5841 106.256 46.8144 106 47C105.692 47.1963 105.354 47.3415 105 47.43C104.543 47.5462 104.072 47.6 103.6 47.59C102.915 47.605 102.234 47.4791 101.6 47.22C100.986 46.9544 100.439 46.5546 100 46.05C99.5524 45.5173 99.2127 44.9026 99 44.24C98.7395 43.4432 98.6144 42.6083 98.63 41.77V41.36C98.6153 40.5292 98.7509 39.7026 99.03 38.92C99.2699 38.2505 99.6404 37.6352 100.12 37.11C100.572 36.6344 101.116 36.2566 101.72 36C102.353 35.7341 103.034 35.6014 103.72 35.61C104.478 35.574 105.231 35.7544 105.89 36.13C106.436 36.4849 106.869 36.9879 107.14 37.58H107.55V31.28H110.42V47.28H107.5V45.58ZM104.5 44.81C104.903 44.8256 105.305 44.7572 105.68 44.6092C106.056 44.4611 106.396 44.2367 106.68 43.95C106.96 43.6501 107.177 43.2977 107.319 42.9132C107.462 42.5287 107.527 42.1197 107.51 41.71V41.43C107.527 41.0203 107.462 40.6114 107.319 40.2269C107.177 39.8424 106.96 39.4899 106.68 39.19C106.396 38.9034 106.056 38.6789 105.68 38.5309C105.305 38.3828 104.903 38.3144 104.5 38.33C104.1 38.3158 103.7 38.3819 103.326 38.5245C102.952 38.667 102.61 38.8831 102.32 39.16C102.036 39.4632 101.816 39.8205 101.674 40.2105C101.531 40.6005 101.469 41.0153 101.49 41.43V41.71C101.47 42.1246 101.533 42.5391 101.675 42.929C101.818 43.3188 102.037 43.6762 102.32 43.98C102.608 44.2557 102.949 44.4711 103.321 44.6136C103.694 44.7561 104.091 44.8229 104.49 44.81H104.5Z" fill="black"/>
<path d="M115.87 42.4999C115.881 42.8238 115.963 43.1413 116.11 43.4299C116.254 43.7114 116.455 43.96 116.7 44.1599C116.961 44.3672 117.255 44.5294 117.57 44.6399C117.892 44.7488 118.23 44.8061 118.57 44.8099C119.142 44.8424 119.711 44.7105 120.21 44.4299C120.56 44.2106 120.844 43.8993 121.03 43.5299L123.49 44.8999C123.335 45.221 123.144 45.523 122.92 45.7999C122.655 46.1328 122.338 46.4199 121.98 46.6499C121.543 46.9361 121.064 47.1521 120.56 47.2899C119.926 47.4694 119.269 47.5537 118.61 47.5399C117.818 47.5533 117.03 47.4141 116.29 47.1299C115.626 46.8788 115.02 46.4942 114.51 45.9999C113.986 45.4574 113.584 44.8097 113.33 44.0999C113.038 43.2891 112.895 42.4318 112.91 41.5699V41.4399C112.895 40.6283 113.044 39.822 113.35 39.0699C113.625 38.3819 114.041 37.7587 114.57 37.2399C115.086 36.7121 115.701 36.2908 116.38 35.9999C117.087 35.709 117.845 35.5628 118.61 35.5699C119.472 35.5495 120.327 35.7274 121.11 36.0899C121.772 36.4002 122.365 36.8426 122.85 37.3899C123.294 37.8952 123.634 38.4831 123.85 39.1199C124.055 39.712 124.163 40.3333 124.17 40.9599V42.4999H115.87ZM118.58 38.1899C117.942 38.1615 117.315 38.3599 116.81 38.7499C116.385 39.0759 116.074 39.5272 115.92 40.0399H121.25C121.205 39.774 121.106 39.5199 120.96 39.293C120.814 39.0662 120.623 38.8713 120.4 38.7199C119.867 38.3512 119.228 38.1653 118.58 38.1899Z" fill="black"/>
<path d="M130.9 39.11C130.899 39.284 130.953 39.4538 131.056 39.5943C131.159 39.7348 131.304 39.8385 131.47 39.89C132.139 40.1141 132.835 40.2486 133.54 40.29C134.559 40.3492 135.54 40.6959 136.37 41.29C136.73 41.5697 137.019 41.9318 137.21 42.346C137.401 42.7602 137.491 43.2142 137.47 43.67V43.81C137.486 44.3239 137.383 44.8345 137.168 45.3015C136.952 45.7684 136.631 46.1787 136.23 46.5C135.228 47.2255 134.005 47.5791 132.77 47.5C132.003 47.5198 131.238 47.4047 130.51 47.16C129.949 46.9654 129.425 46.6781 128.96 46.31C128.557 45.9972 128.218 45.6103 127.96 45.17C127.753 44.7879 127.604 44.3766 127.52 43.95L130.16 43.08C130.302 43.594 130.594 44.0538 131 44.4C131.506 44.8011 132.146 44.9941 132.79 44.94C133.303 44.9899 133.818 44.8743 134.26 44.61C134.373 44.5264 134.467 44.4199 134.536 44.2976C134.605 44.1753 134.647 44.0398 134.66 43.9C134.66 43.7497 134.622 43.6018 134.55 43.47C134.464 43.3172 134.335 43.1922 134.18 43.11C133.951 42.9742 133.701 42.8763 133.44 42.82C133.05 42.7381 132.656 42.678 132.26 42.64C131.189 42.5809 130.153 42.2356 129.26 41.64C128.885 41.3561 128.585 40.984 128.388 40.5566C128.191 40.1293 128.102 39.6598 128.13 39.19V39.05C128.117 38.5322 128.244 38.0206 128.5 37.57C128.736 37.1464 129.06 36.7781 129.45 36.49C129.861 36.1812 130.326 35.9507 130.82 35.81C131.34 35.6581 131.878 35.5807 132.42 35.58C133.051 35.5681 133.679 35.6593 134.28 35.85C134.759 35.9988 135.209 36.2289 135.61 36.53C135.956 36.7921 136.257 37.1098 136.5 37.47C136.713 37.7815 136.887 38.1172 137.02 38.47L134.42 39.52C134.308 39.1164 134.061 38.7634 133.72 38.52C133.335 38.2662 132.88 38.1402 132.42 38.16C132.034 38.1335 131.65 38.2278 131.32 38.43C131.194 38.4941 131.089 38.5913 131.015 38.7112C130.941 38.8312 130.901 38.9691 130.9 39.11Z" fill="black"/>
<path d="M141.46 44.49H145.29V38.65H141.73V35.91H148.16V44.49H151.44V47.22H141.44L141.46 44.49ZM148.87 32.56C148.871 32.8551 148.813 33.1473 148.7 33.42C148.588 33.6746 148.429 33.9054 148.23 34.1C148.025 34.2927 147.788 34.4484 147.53 34.56C147.266 34.672 146.982 34.7296 146.695 34.7296C146.408 34.7296 146.124 34.672 145.86 34.56C145.606 34.4458 145.373 34.2904 145.17 34.1C144.974 33.905 144.818 33.6741 144.71 33.42C144.589 33.1495 144.528 32.8563 144.53 32.56C144.527 32.2669 144.588 31.9767 144.71 31.71C144.816 31.4516 144.972 31.217 145.17 31.02C145.371 30.8295 145.605 30.6771 145.86 30.57C146.124 30.4581 146.408 30.4004 146.695 30.4004C146.982 30.4004 147.266 30.4581 147.53 30.57C147.79 30.6743 148.027 30.827 148.23 31.02C148.431 31.2164 148.591 31.451 148.7 31.71C148.813 31.9792 148.871 32.2682 148.87 32.56Z" fill="black"/>
<path d="M163.28 45.58H162.87C162.749 45.8433 162.598 46.0916 162.42 46.32C162.236 46.5717 162.005 46.7856 161.74 46.95C161.431 47.1445 161.094 47.2896 160.74 47.38C160.279 47.4968 159.805 47.5506 159.33 47.54C158.645 47.5525 157.965 47.4267 157.33 47.17C156.731 46.9162 156.195 46.5339 155.76 46.05C155.291 45.5241 154.934 44.9083 154.71 44.24C154.449 43.4432 154.324 42.6083 154.34 41.77V41.36C154.327 40.5302 154.459 39.7045 154.73 38.92C154.977 38.2518 155.351 37.6373 155.83 37.11C156.3 36.624 156.87 36.2453 157.5 36C158.117 35.7387 158.78 35.606 159.45 35.61C160.205 35.5759 160.954 35.7562 161.61 36.13C162.161 36.4813 162.599 36.985 162.87 37.58H163.28V35.91H166.15V50C166.158 50.2339 166.119 50.467 166.035 50.6853C165.951 50.9035 165.823 51.1025 165.66 51.27C165.497 51.4373 165.3 51.5684 165.083 51.6545C164.866 51.7407 164.633 51.78 164.4 51.77H156.78V49.05H162.66C163.07 49.05 163.28 48.82 163.28 48.36V45.58ZM160.28 44.81C160.683 44.8256 161.085 44.7572 161.46 44.6092C161.836 44.4611 162.176 44.2367 162.46 43.95C162.74 43.6501 162.957 43.2977 163.099 42.9132C163.242 42.5287 163.307 42.1197 163.29 41.71V41.43C163.307 41.0203 163.242 40.6114 163.099 40.2269C162.957 39.8424 162.74 39.49 162.46 39.19C162.176 38.9034 161.836 38.6789 161.46 38.5309C161.085 38.3828 160.683 38.3144 160.28 38.33C159.88 38.3158 159.48 38.3819 159.106 38.5245C158.732 38.667 158.39 38.8831 158.1 39.16C157.816 39.4632 157.596 39.8205 157.454 40.2105C157.311 40.6005 157.249 41.0153 157.27 41.43V41.71C157.25 42.1247 157.313 42.5391 157.455 42.929C157.598 43.3188 157.817 43.6762 158.1 43.98C158.388 44.2557 158.729 44.4711 159.101 44.6136C159.474 44.7561 159.871 44.8229 160.27 44.81H160.28Z" fill="black"/>
<path d="M172 47.22H169.12V35.91H172V37.6H172.41C172.647 36.9792 173.088 36.4573 173.66 36.12C174.266 35.7636 174.957 35.5803 175.66 35.59C176.185 35.586 176.707 35.6775 177.2 35.86C177.677 36.0282 178.109 36.3055 178.46 36.67C178.851 37.0596 179.146 37.5357 179.32 38.06C179.541 38.7029 179.646 39.3802 179.63 40.06V47.22H176.75V40.79C176.79 40.1077 176.584 39.4336 176.17 38.89C175.964 38.6532 175.706 38.4669 175.416 38.3456C175.127 38.2242 174.813 38.171 174.5 38.19C174.136 38.1659 173.771 38.2318 173.438 38.3817C173.105 38.5317 172.814 38.7612 172.59 39.05C172.142 39.7267 171.925 40.5298 171.97 41.34L172 47.22Z" fill="black"/>
<path d="M363.64 22H238.42C227.711 22 219.03 30.6812 219.03 41.39C219.03 52.0988 227.711 60.78 238.42 60.78H363.64C374.349 60.78 383.03 52.0988 383.03 41.39C383.03 30.6812 374.349 22 363.64 22Z" fill="#4329B5"/>
<path d="M246.67 35.91H250V31.26H252.87V35.91H257V38.65H252.91V43.8C252.91 44.26 253.12 44.49 253.53 44.49H256.59V47.22H251.8C251.565 47.2302 251.331 47.1909 251.112 47.1048C250.893 47.0187 250.695 46.8876 250.53 46.72C250.367 46.5525 250.239 46.3535 250.155 46.1352C250.071 45.9169 250.032 45.6838 250.04 45.45V38.65H246.69L246.67 35.91Z" fill="black"/>
<path d="M263.86 47.22H261V31.22H263.87V37.7H264.28C264.54 37.0549 264.985 36.5015 265.56 36.11C266.179 35.7219 266.9 35.527 267.63 35.55C268.163 35.5474 268.691 35.6423 269.19 35.83C269.657 36.0061 270.078 36.2866 270.42 36.65C270.792 37.0514 271.072 37.5292 271.24 38.05C271.447 38.6959 271.545 39.3718 271.53 40.05V47.16H268.66V40.79C268.7 40.1077 268.494 39.4337 268.08 38.89C267.871 38.6542 267.611 38.4687 267.32 38.3475C267.029 38.2263 266.715 38.1724 266.4 38.19C266.037 38.1658 265.674 38.2317 265.342 38.3818C265.011 38.5318 264.721 38.7613 264.5 39.05C264.049 39.7255 263.828 40.5287 263.87 41.34L263.86 47.22Z" fill="black"/>
<path d="M275.11 44.49H278.94V38.65H275.38V35.91H281.81V44.49H285.09V47.22H275.09L275.11 44.49ZM282.52 32.56C282.522 32.8563 282.461 33.1495 282.34 33.42C282.232 33.6741 282.076 33.905 281.88 34.1C281.675 34.2927 281.438 34.4484 281.18 34.56C280.918 34.672 280.635 34.7298 280.35 34.73C280.061 34.7317 279.775 34.6738 279.51 34.56C279.256 34.4458 279.023 34.2904 278.82 34.1C278.621 33.9054 278.462 33.6746 278.35 33.42C278.237 33.1473 278.179 32.8551 278.18 32.56C278.179 32.2682 278.237 31.9792 278.35 31.71C278.459 31.451 278.619 31.2164 278.82 31.02C279.021 30.8295 279.255 30.6771 279.51 30.57C279.774 30.4581 280.058 30.4004 280.345 30.4004C280.632 30.4004 280.916 30.4581 281.18 30.57C281.44 30.6743 281.677 30.827 281.88 31.02C282.078 31.217 282.234 31.4516 282.34 31.71C282.462 31.9767 282.523 32.2669 282.52 32.56Z" fill="black"/>
<path d="M291.73 47.22H288.86V35.91H291.73V37.6H292.14C292.382 36.982 292.821 36.4615 293.39 36.12C293.996 35.7646 294.688 35.5814 295.39 35.59C295.915 35.586 296.437 35.6775 296.93 35.86C297.409 36.0304 297.843 36.3074 298.2 36.67C298.585 37.0632 298.875 37.5384 299.05 38.06C299.271 38.703 299.376 39.3802 299.36 40.06V47.22H296.49V40.79C296.526 40.1083 296.32 39.4357 295.91 38.89C295.701 38.6542 295.441 38.4688 295.15 38.3475C294.859 38.2263 294.545 38.1725 294.23 38.19C293.867 38.1641 293.503 38.2292 293.171 38.3793C292.839 38.5295 292.55 38.76 292.33 39.05C291.879 39.7255 291.658 40.5287 291.7 41.34L291.73 47.22Z" fill="black"/>
<path d="M306.6 40.06H307.14L310.14 35.91H313.29V36.05L309.64 41.23V41.64L313.64 47.09V47.22H310.35L307.11 42.8H306.57V47.22H303.69V31.22H306.57L306.6 40.06Z" fill="black"/>
<path d="M317 44.4901H320.83V38.6501H317.28V35.91H323.71V44.4901H327V47.2201H317V44.4901ZM324.41 32.5601C324.416 32.8556 324.358 33.1489 324.24 33.42C324.132 33.6742 323.976 33.905 323.78 34.1C323.575 34.2927 323.338 34.4484 323.08 34.5601C322.814 34.6723 322.529 34.7301 322.24 34.7301C321.951 34.7301 321.666 34.6723 321.4 34.5601C321.149 34.4457 320.919 34.2902 320.72 34.1C320.521 33.9054 320.362 33.6746 320.25 33.42C320.137 33.1474 320.079 32.8551 320.08 32.5601C320.079 32.2682 320.137 31.9792 320.25 31.71C320.359 31.451 320.519 31.2165 320.72 31.0201C320.917 30.8297 321.148 30.6772 321.4 30.57C321.666 30.4578 321.951 30.4 322.24 30.4C322.529 30.4 322.814 30.4578 323.08 30.57C323.34 30.6744 323.577 30.8271 323.78 31.0201C323.978 31.217 324.134 31.4516 324.24 31.71C324.348 31.9798 324.396 32.2699 324.38 32.5601H324.41Z" fill="black"/>
<path d="M333.6 47.22H330.72V35.91H333.6V37.6H334C334.242 36.982 334.681 36.4615 335.25 36.12C335.856 35.7646 336.547 35.5814 337.25 35.59C337.775 35.586 338.297 35.6775 338.79 35.86C339.269 36.0304 339.703 36.3074 340.06 36.67C340.445 37.0632 340.735 37.5384 340.91 38.06C341.131 38.703 341.236 39.3802 341.22 40.06V47.22H338.35V40.79C338.387 40.1065 338.178 39.4323 337.76 38.89C337.554 38.6532 337.296 38.467 337.006 38.3456C336.717 38.2243 336.403 38.171 336.09 38.19C335.726 38.166 335.361 38.2318 335.028 38.3818C334.695 38.5317 334.404 38.7612 334.18 39.05C333.737 39.7288 333.52 40.5304 333.56 41.34L333.6 47.22Z" fill="black"/>
<path d="M352.75 45.58H352.34C352.219 45.8409 352.071 46.0888 351.9 46.32C351.71 46.5696 351.476 46.783 351.21 46.95C350.902 47.1462 350.564 47.2914 350.21 47.38C349.753 47.4961 349.282 47.5499 348.81 47.54C348.142 47.5482 347.479 47.4224 346.86 47.17C346.258 46.9163 345.719 46.534 345.28 46.05C344.832 45.5176 344.492 44.9027 344.28 44.24C344.011 43.4449 343.883 42.6091 343.9 41.77V41.36C343.885 40.5292 344.021 39.7026 344.3 38.92C344.54 38.2504 344.91 37.6352 345.39 37.11C345.846 36.6353 346.394 36.2578 347 36C347.617 35.7407 348.28 35.6081 348.95 35.61C349.708 35.574 350.461 35.7543 351.12 36.13C351.666 36.4849 352.099 36.9878 352.37 37.58H352.78V35.91H355.66V50C355.666 50.2335 355.626 50.466 355.542 50.684C355.458 50.9019 355.331 51.1011 355.17 51.27C355.005 51.4375 354.807 51.5686 354.588 51.6548C354.369 51.7409 354.135 51.7801 353.9 51.77H346.28V49.05H352.17C352.58 49.05 352.78 48.82 352.78 48.36L352.75 45.58ZM349.75 44.81C350.153 44.8256 350.555 44.7572 350.93 44.6091C351.306 44.4611 351.646 44.2366 351.93 43.95C352.21 43.6501 352.427 43.2976 352.569 42.9131C352.712 42.5286 352.777 42.1197 352.76 41.71V41.43C352.777 41.0203 352.712 40.6113 352.569 40.2268C352.427 39.8423 352.21 39.4899 351.93 39.19C351.646 38.9033 351.306 38.6789 350.93 38.5308C350.555 38.3828 350.153 38.3144 349.75 38.33C349.35 38.3158 348.95 38.3819 348.576 38.5244C348.202 38.667 347.86 38.8831 347.57 39.16C347.286 39.4632 347.066 39.8204 346.924 40.2105C346.781 40.6005 346.719 41.0152 346.74 41.43V41.71C346.72 42.1246 346.783 42.539 346.925 42.9289C347.068 43.3188 347.287 43.6761 347.57 43.98C347.858 44.2557 348.199 44.4711 348.571 44.6136C348.944 44.7561 349.341 44.8229 349.74 44.81H349.75Z" fill="black"/>
<path d="M285.84 73.64H92.61C81.9012 73.64 73.22 82.3212 73.22 93.03C73.22 103.739 81.9012 112.42 92.61 112.42H285.84C296.549 112.42 305.23 103.739 305.23 93.03C305.23 82.3212 296.549 73.64 285.84 73.64Z" fill="#FED54A"/>
<path d="M100.5 96.13H104.33V90.29H100.77V87.55H107.2V96.13H110.49V98.86H100.49L100.5 96.13ZM107.91 84.2C107.911 84.4951 107.853 84.7873 107.74 85.06C107.632 85.3169 107.472 85.5485 107.27 85.74C107.067 85.9304 106.834 86.0858 106.58 86.2C106.314 86.3109 106.028 86.3687 105.74 86.37C105.451 86.3706 105.166 86.3127 104.9 86.2C104.648 86.0881 104.418 85.9324 104.22 85.74C104.018 85.5485 103.858 85.3169 103.75 85.06C103.632 84.7888 103.574 84.4955 103.58 84.2C103.574 83.9076 103.632 83.6175 103.75 83.35C103.856 83.0895 104.017 82.8544 104.22 82.66C104.415 82.4674 104.646 82.3146 104.9 82.21C105.164 82.0899 105.45 82.0284 105.74 82.03C106.03 82.0284 106.316 82.0899 106.58 82.21C106.835 82.3171 107.069 82.4695 107.27 82.66C107.473 82.8544 107.634 83.0895 107.74 83.35C107.853 83.6192 107.911 83.9082 107.91 84.2Z" fill="black"/>
<path d="M117.12 98.86H114.25V87.55H117.12V89.24H117.53C117.774 88.6205 118.217 88.0998 118.79 87.76C119.396 87.4036 120.087 87.2203 120.79 87.23C121.315 87.2269 121.837 87.3183 122.33 87.5C122.807 87.6682 123.239 87.9455 123.59 88.31C123.978 88.7023 124.272 89.1776 124.45 89.7C124.662 90.3449 124.764 91.0211 124.75 91.7V98.86H121.88V92.43C121.92 91.7477 121.714 91.0737 121.3 90.53C121.091 90.2942 120.831 90.1087 120.54 89.9875C120.249 89.8663 119.935 89.8124 119.62 89.83C119.257 89.8059 118.894 89.8717 118.562 90.0218C118.231 90.1718 117.941 90.4013 117.72 90.69C117.269 91.3655 117.048 92.1687 117.09 92.98L117.12 98.86Z" fill="black"/>
<path d="M131.81 90.75C131.809 90.924 131.863 91.0938 131.966 91.2343C132.069 91.3748 132.214 91.4785 132.38 91.53C133.049 91.7541 133.745 91.8886 134.45 91.93C135.469 91.9892 136.45 92.336 137.28 92.93C137.64 93.2097 137.929 93.5719 138.12 93.986C138.311 94.4002 138.401 94.8542 138.38 95.31V95.45C138.398 95.9632 138.297 96.4736 138.083 96.9406C137.87 97.4075 137.55 97.8183 137.15 98.14C136.143 98.8639 134.917 99.2173 133.68 99.14C132.913 99.1598 132.148 99.0447 131.42 98.8C130.859 98.6055 130.335 98.3181 129.87 97.95C129.467 97.6373 129.128 97.2503 128.87 96.81C128.667 96.426 128.519 96.0153 128.43 95.59L131.07 94.72C131.2 95.2113 131.467 95.6553 131.84 96C132.347 96.4002 132.986 96.5932 133.63 96.54C134.143 96.59 134.658 96.4743 135.1 96.21C135.217 96.1288 135.315 96.0216 135.384 95.8967C135.453 95.7719 135.493 95.6327 135.5 95.49C135.498 95.3444 135.464 95.2011 135.4 95.07C135.308 94.9184 135.176 94.7942 135.02 94.71C134.791 94.5742 134.541 94.4763 134.28 94.42C133.89 94.3374 133.496 94.2773 133.1 94.24C132.029 94.181 130.993 93.8356 130.1 93.24C129.737 92.9578 129.448 92.5923 129.257 92.1746C129.065 91.7568 128.977 91.299 129 90.84V90.7C128.987 90.1822 129.114 89.6706 129.37 89.22C129.62 88.7913 129.962 88.4227 130.37 88.14C130.781 87.8312 131.245 87.6007 131.74 87.46C132.26 87.3081 132.798 87.2307 133.34 87.23C133.971 87.2181 134.599 87.3093 135.2 87.5C135.679 87.6489 136.129 87.8789 136.53 88.18C136.879 88.4394 137.18 88.7575 137.42 89.12C137.632 89.4315 137.807 89.7672 137.94 90.12L135.35 91.12C135.23 90.7174 134.981 90.3657 134.64 90.12C134.255 89.8662 133.8 89.7403 133.34 89.76C132.954 89.7335 132.57 89.8279 132.24 90.03C132.106 90.0956 131.995 90.1986 131.918 90.3264C131.842 90.4541 131.804 90.6013 131.81 90.75Z" fill="black"/>
<path d="M144.44 103.42H141.57V87.55H144.44V89.19H144.85C145.141 88.5888 145.604 88.0876 146.18 87.75C146.855 87.3761 147.619 87.1961 148.39 87.23C149.044 87.2271 149.69 87.3599 150.29 87.62C150.889 87.8784 151.425 88.264 151.86 88.75C152.332 89.2792 152.698 89.8935 152.94 90.56C153.214 91.3438 153.35 92.1696 153.34 93V93.41C153.354 94.2497 153.222 95.0855 152.95 95.88C152.733 96.5408 152.394 97.1549 151.95 97.69C151.521 98.1756 150.987 98.5584 150.39 98.81C149.756 99.069 149.075 99.195 148.39 99.18C147.92 99.1869 147.452 99.1263 147 99C146.646 98.9105 146.308 98.7653 146 98.57C145.73 98.4006 145.49 98.1877 145.29 97.94C145.103 97.71 144.939 97.4621 144.8 97.2H144.39L144.44 103.42ZM147.44 96.42C147.841 96.4364 148.242 96.3703 148.617 96.2258C148.992 96.0813 149.333 95.8615 149.62 95.58C149.907 95.281 150.129 94.9259 150.272 94.5369C150.415 94.1479 150.475 93.7336 150.45 93.32V93.04C150.474 92.625 150.412 92.2096 150.269 91.8193C150.127 91.4289 149.906 91.0718 149.62 90.77C149.33 90.4931 148.988 90.277 148.614 90.1344C148.24 89.9919 147.84 89.9258 147.44 89.94C147.038 89.9246 146.638 89.9931 146.264 90.1412C145.891 90.2892 145.552 90.5136 145.27 90.8C144.987 91.0978 144.766 91.4496 144.622 91.8345C144.478 92.2193 144.412 92.6293 144.43 93.04V93.32C144.412 93.7306 144.478 94.1406 144.622 94.5255C144.766 94.9103 144.987 95.2622 145.27 95.56C145.551 95.853 145.89 96.0837 146.265 96.2371C146.641 96.3904 147.045 96.463 147.45 96.45L147.44 96.42Z" fill="black"/>
<path d="M156.32 96.13H160.15V90.29H156.6V87.55H163V96.13H166.28V98.86H156.28L156.32 96.13ZM163.73 84.2C163.736 84.4955 163.678 84.7888 163.56 85.06C163.452 85.3141 163.296 85.545 163.1 85.74C162.895 85.9327 162.658 86.0883 162.4 86.2C162.134 86.3122 161.849 86.37 161.56 86.37C161.271 86.37 160.986 86.3122 160.72 86.2C160.471 86.0832 160.241 85.928 160.04 85.74C159.841 85.5454 159.682 85.3145 159.57 85.06C159.457 84.7873 159.399 84.495 159.4 84.2C159.399 83.9081 159.457 83.6192 159.57 83.35C159.679 83.091 159.839 82.8564 160.04 82.66C160.239 82.4718 160.469 82.3196 160.72 82.21C160.983 82.0881 161.27 82.025 161.56 82.025C161.85 82.025 162.137 82.0881 162.4 82.21C162.66 82.3143 162.897 82.467 163.1 82.66C163.298 82.8569 163.454 83.0916 163.56 83.35C163.678 83.6175 163.736 83.9076 163.73 84.2Z" fill="black"/>
<path d="M169.53 87.55H174.32V89.19H174.73C174.916 88.6013 175.297 88.0935 175.81 87.75C176.355 87.3908 176.998 87.2091 177.65 87.23C178.15 87.2108 178.649 87.295 179.116 87.4774C179.582 87.6598 180.005 87.9364 180.36 88.29C181.099 89.1967 181.457 90.3545 181.36 91.52V92L178.36 92.28V92C178.388 91.4582 178.217 90.9249 177.88 90.5C177.696 90.3074 177.471 90.1581 177.222 90.063C176.973 89.9679 176.706 89.9293 176.44 89.95C176.156 89.9366 175.873 89.9892 175.612 90.1038C175.352 90.2183 175.122 90.3915 174.94 90.61C174.539 91.155 174.344 91.8247 174.39 92.5V96.15H176.99V98.88H169.19V96.13H171.52V90.29H169.47L169.53 87.55Z" fill="black"/>
<path d="M191.35 97.22C191.113 97.8603 190.661 98.3979 190.07 98.74C189.48 99.0428 188.823 99.194 188.16 99.18C187.498 99.1824 186.842 99.0532 186.23 98.8C185.624 98.5388 185.085 98.1459 184.65 97.65C184.172 97.1202 183.801 96.5019 183.56 95.83C183.285 95.0464 183.149 94.2205 183.16 93.39V93C183.147 92.1767 183.279 91.3575 183.55 90.58C183.771 89.9151 184.11 89.2952 184.55 88.75C184.98 88.2617 185.512 87.8729 186.108 87.6104C186.703 87.3479 187.349 87.2181 188 87.23C188.674 87.2 189.345 87.3411 189.95 87.64C190.461 87.9407 190.872 88.3861 191.13 88.92H191.54V87.55H194.41V95.44C194.41 95.9 194.61 96.13 195.02 96.13H195.46V98.86H193.46C192.995 98.8791 192.54 98.7179 192.19 98.41C192.028 98.2583 191.9 98.0736 191.816 97.8683C191.731 97.663 191.692 97.4419 191.7 97.22H191.35ZM188.8 96.45C189.175 96.4657 189.548 96.3985 189.894 96.2533C190.239 96.1081 190.549 95.8885 190.8 95.61C191.33 94.9802 191.602 94.1724 191.56 93.35V93.07C191.602 92.2446 191.33 91.4339 190.8 90.8C190.268 90.2724 189.549 89.9764 188.8 89.9764C188.051 89.9764 187.332 90.2724 186.8 90.8C186.272 91.4349 186.005 92.2458 186.05 93.07V93.35C186.005 94.1711 186.273 94.9787 186.8 95.61C187.052 95.8879 187.361 96.1072 187.707 96.2523C188.052 96.3975 188.425 96.465 188.8 96.45Z" fill="black"/>
<path d="M197.67 87.55H201V82.9H203.87V87.55H208V90.29H203.92V95.44C203.92 95.9 204.13 96.13 204.54 96.13H207.59V98.86H202.81C202.575 98.8702 202.341 98.8309 202.122 98.7448C201.903 98.6587 201.705 98.5276 201.54 98.36C201.377 98.1925 201.249 97.9935 201.165 97.7752C201.081 97.557 201.042 97.3238 201.05 97.09V90.29H197.7L197.67 87.55Z" fill="black"/>
<path d="M212.15 96.13H216V90.29H212.44V87.55H218.87V96.13H222.16V98.86H212.16L212.15 96.13ZM219.56 84.2C219.561 84.4951 219.503 84.7873 219.39 85.06C219.278 85.3146 219.119 85.5454 218.92 85.74C218.715 85.9327 218.478 86.0883 218.22 86.2C217.956 86.3119 217.672 86.3696 217.385 86.3696C217.098 86.3696 216.814 86.3119 216.55 86.2C216.296 86.0858 216.063 85.9304 215.86 85.74C215.664 85.545 215.508 85.3141 215.4 85.06C215.282 84.7888 215.224 84.4955 215.23 84.2C215.224 83.9076 215.282 83.6175 215.4 83.35C215.506 83.0916 215.662 82.857 215.86 82.66C216.061 82.4695 216.295 82.317 216.55 82.21C216.812 82.0897 217.097 82.0273 217.385 82.0273C217.673 82.0273 217.958 82.0897 218.22 82.21C218.48 82.3143 218.717 82.467 218.92 82.66C219.121 82.8564 219.281 83.091 219.39 83.35C219.503 83.6192 219.561 83.9082 219.56 84.2Z" fill="black"/>
<path d="M237 93.35C237.017 94.2045 236.853 95.0529 236.52 95.84C236.22 96.5345 235.777 97.158 235.22 97.67C234.671 98.163 234.033 98.5465 233.34 98.8C231.9 99.307 230.33 99.307 228.89 98.8C228.195 98.5453 227.553 98.1619 227 97.67C226.446 97.1553 226.004 96.5324 225.7 95.84C225.367 95.0529 225.203 94.2045 225.22 93.35V93.07C225.204 92.222 225.367 91.3801 225.7 90.6C226.003 89.9045 226.446 89.2784 227 88.76C227.547 88.2626 228.186 87.8755 228.88 87.62C230.318 87.0998 231.892 87.0998 233.33 87.62C234.025 87.8732 234.664 88.2605 235.21 88.76C235.767 89.2757 236.21 89.9025 236.51 90.6C236.843 91.3801 237.006 92.222 236.99 93.07L237 93.35ZM231.12 96.45C231.516 96.4527 231.91 96.3814 232.28 96.24C232.652 96.1179 232.993 95.9166 233.28 95.65C233.563 95.3649 233.784 95.0245 233.93 94.65C234.096 94.2509 234.177 93.822 234.17 93.39V93C234.177 92.568 234.096 92.1391 233.93 91.74C233.787 91.364 233.566 91.023 233.28 90.74C232.993 90.4734 232.652 90.2721 232.28 90.15C231.9 90.0264 231.499 89.9756 231.1 90C230.7 89.9981 230.304 90.0693 229.93 90.21C229.571 90.3413 229.243 90.5461 228.968 90.8113C228.692 91.0765 228.475 91.3962 228.33 91.75C228.164 92.1491 228.083 92.578 228.09 93.01V93.47C228.083 93.902 228.164 94.3309 228.33 94.73C228.471 95.1066 228.693 95.4478 228.98 95.73C229.266 95.9976 229.607 96.199 229.98 96.32C230.343 96.4276 230.722 96.4716 231.1 96.45H231.12Z" fill="black"/>
<path d="M242.73 98.86H239.85V87.55H242.73V89.24H243.14C243.382 88.622 243.821 88.1016 244.39 87.76C244.996 87.4046 245.687 87.2214 246.39 87.23C246.915 87.2261 247.437 87.3175 247.93 87.5C248.409 87.6704 248.843 87.9474 249.2 88.31C249.585 88.7032 249.875 89.1784 250.05 89.7C250.271 90.343 250.376 91.0202 250.36 91.7V98.86H247.49V92.43C247.525 91.7483 247.32 91.0757 246.91 90.53C246.701 90.2942 246.441 90.1088 246.15 89.9876C245.859 89.8663 245.545 89.8125 245.23 89.83C244.867 89.8041 244.503 89.8692 244.171 90.0193C243.839 90.1695 243.55 90.4 243.33 90.69C242.879 91.3655 242.658 92.1688 242.7 92.98L242.73 98.86Z" fill="black"/>
<path d="M261.13 97.22C260.893 97.8603 260.441 98.3979 259.85 98.74C259.26 99.0428 258.603 99.194 257.94 99.18C257.274 99.1837 256.615 99.0545 256 98.8C255.394 98.5388 254.855 98.1459 254.42 97.65C253.942 97.1201 253.571 96.5019 253.33 95.83C253.055 95.0464 252.919 94.2205 252.93 93.39V93C252.917 92.1767 253.049 91.3575 253.32 90.58C253.541 89.915 253.88 89.2952 254.32 88.75C254.744 88.2601 255.27 87.8679 255.86 87.6003C256.451 87.3328 257.092 87.1962 257.74 87.2C258.414 87.17 259.085 87.311 259.69 87.61C260.201 87.9107 260.612 88.3561 260.87 88.89H261.28V87.55H264.15V95.44C264.15 95.9 264.35 96.13 264.76 96.13H265.2V98.86H263.2C262.735 98.879 262.28 98.7179 261.93 98.41C261.768 98.2583 261.64 98.0736 261.556 97.8683C261.471 97.663 261.432 97.4419 261.44 97.22H261.13ZM258.58 96.45C258.955 96.4656 259.328 96.3985 259.674 96.2533C260.019 96.1081 260.329 95.8884 260.58 95.61C261.11 94.9802 261.382 94.1724 261.34 93.35V93.07C261.382 92.2446 261.11 91.4339 260.58 90.8C260.048 90.2724 259.329 89.9763 258.58 89.9763C257.831 89.9763 257.112 90.2724 256.58 90.8C256.052 91.4349 255.785 92.2458 255.83 93.07V93.35C255.785 94.1711 256.053 94.9787 256.58 95.61C256.832 95.8879 257.141 96.1072 257.487 96.2523C257.832 96.3975 258.205 96.4649 258.58 96.45Z" fill="black"/>
<path d="M267.7 96.13H271.7V85.64H267.86V82.9H274.57V96.13H278.26V98.86H267.7V96.13Z" fill="black"/>
<path d="M446.9 73.64H337.75C327.041 73.64 318.36 82.3212 318.36 93.03C318.36 103.739 327.041 112.42 337.75 112.42H446.9C457.609 112.42 466.29 103.739 466.29 93.03C466.29 82.3212 457.609 73.64 446.9 73.64Z" fill="#FBF9F6"/>
<path d="M353.65 97.22H353.24C353.119 97.4809 352.971 97.7288 352.8 97.96C352.61 98.2096 352.376 98.423 352.11 98.59C351.802 98.7862 351.464 98.9314 351.11 99.02C350.653 99.1361 350.182 99.1899 349.71 99.18C349.042 99.1882 348.379 99.0624 347.76 98.81C347.157 98.5589 346.617 98.1763 346.18 97.69C345.711 97.164 345.354 96.5482 345.13 95.88C344.87 95.0831 344.744 94.2482 344.76 93.41V93C344.745 92.1692 344.881 91.3426 345.16 90.56C345.4 89.8904 345.77 89.2752 346.25 88.75C346.704 88.2626 347.256 87.8774 347.87 87.62C348.487 87.3607 349.15 87.2281 349.82 87.23C350.578 87.194 351.331 87.3743 351.99 87.75C352.536 88.1049 352.969 88.6078 353.24 89.2H353.65V87.55H356.52V101.65C356.528 101.884 356.489 102.117 356.405 102.335C356.321 102.553 356.193 102.752 356.03 102.92C355.867 103.089 355.671 103.221 355.454 103.309C355.237 103.397 355.004 103.438 354.77 103.43H347.15V100.69H353C353.41 100.69 353.62 100.46 353.62 100.01L353.65 97.22ZM350.65 96.45C351.053 96.4656 351.455 96.3972 351.83 96.2491C352.206 96.1011 352.546 95.8766 352.83 95.59C353.11 95.29 353.327 94.9376 353.469 94.5531C353.612 94.1686 353.677 93.7597 353.66 93.35V93.07C353.677 92.6603 353.612 92.2513 353.469 91.8668C353.327 91.4823 353.11 91.1299 352.83 90.83C352.546 90.5433 352.206 90.3189 351.83 90.1708C351.455 90.0228 351.053 89.9544 350.65 89.97C350.25 89.9557 349.85 90.0219 349.476 90.1644C349.102 90.307 348.76 90.5231 348.47 90.8C348.186 91.1032 347.966 91.4604 347.824 91.8504C347.681 92.2405 347.619 92.6552 347.64 93.07V93.35C347.62 93.7646 347.683 94.179 347.825 94.5689C347.968 94.9588 348.187 95.3161 348.47 95.62C348.758 95.8957 349.099 96.111 349.471 96.2536C349.844 96.3961 350.241 96.4628 350.64 96.45H350.65Z" fill="black"/>
<path d="M359 87.55H363.79V89.2H364.2C364.383 88.6073 364.765 88.0954 365.28 87.75C365.824 87.3969 366.462 87.2157 367.11 87.23C367.613 87.2089 368.115 87.2931 368.583 87.4774C369.052 87.6617 369.476 87.9419 369.83 88.3C370.57 89.2022 370.929 90.3574 370.83 91.52V92L367.83 92.28V92C367.856 91.4585 367.686 90.9258 367.35 90.5C367.166 90.3074 366.941 90.1582 366.692 90.063C366.443 89.9679 366.176 89.9293 365.91 89.95C365.626 89.9366 365.343 89.9893 365.082 90.1038C364.822 90.2183 364.592 90.3916 364.41 90.61C364.009 91.1551 363.814 91.8248 363.86 92.5V96.15H366.46V98.88H358.66V96.13H361V90.29H359V87.55Z" fill="black"/>
<path d="M380.81 97.22C380.573 97.8603 380.121 98.3979 379.53 98.74C378.942 99.0477 378.284 99.1992 377.62 99.18C376.958 99.1824 376.302 99.0532 375.69 98.8C375.087 98.5391 374.548 98.1501 374.11 97.66C373.626 97.1266 373.25 96.5053 373 95.83C372.725 95.0464 372.589 94.2205 372.6 93.39V93C372.587 92.1766 372.719 91.3574 372.99 90.58C373.224 89.9133 373.58 89.2961 374.04 88.76C374.462 88.2654 374.988 87.8695 375.58 87.6C376.171 87.3346 376.812 87.1982 377.46 87.2C378.135 87.1695 378.807 87.3142 379.41 87.62C379.922 87.9116 380.331 88.3555 380.58 88.89H381V87.55H383.88V95.44C383.88 95.9 384.08 96.13 384.49 96.13H384.93V98.86H382.93C382.465 98.879 382.01 98.7178 381.66 98.41C381.497 98.2591 381.368 98.0745 381.284 97.869C381.199 97.6635 381.16 97.442 381.17 97.22H380.81ZM378.26 96.45C378.634 96.4648 379.006 96.3983 379.351 96.2549C379.697 96.1116 380.007 95.895 380.26 95.62C380.786 94.9841 381.054 94.1739 381.01 93.35V93.07C381.056 92.2458 380.788 91.4349 380.26 90.8C379.728 90.2724 379.009 89.9763 378.26 89.9763C377.511 89.9763 376.792 90.2724 376.26 90.8C375.732 91.4349 375.465 92.2458 375.51 93.07V93.35C375.467 94.1739 375.734 94.9841 376.26 95.62C376.514 95.8944 376.824 96.1107 377.169 96.254C377.514 96.3973 377.887 96.4641 378.26 96.45Z" fill="black"/>
<path d="M389.73 103.43H386.85V87.55H389.73V89.2H390.14C390.421 88.5926 390.882 88.0864 391.46 87.75C392.137 87.3818 392.9 87.2022 393.67 87.23C394.327 87.228 394.977 87.3607 395.58 87.62C396.177 87.8811 396.713 88.2663 397.15 88.75C397.616 89.2813 397.979 89.8952 398.22 90.56C398.499 91.3426 398.635 92.1692 398.62 93V93.41C398.634 94.2497 398.502 95.0855 398.23 95.88C397.998 96.5446 397.642 97.159 397.18 97.69C396.751 98.1756 396.217 98.5584 395.62 98.81C395.001 99.0624 394.338 99.1882 393.67 99.18C393.218 99.1897 392.767 99.1359 392.33 99.02C391.977 98.9276 391.64 98.7826 391.33 98.59C391.063 98.4204 390.827 98.2075 390.63 97.96C390.44 97.7322 390.275 97.484 390.14 97.22H389.73V103.43ZM392.73 96.43C393.129 96.4428 393.526 96.3761 393.899 96.2336C394.271 96.091 394.612 95.8756 394.9 95.6C395.186 95.2983 395.409 94.9415 395.553 94.5512C395.698 94.161 395.761 93.7455 395.74 93.33V93.05C395.762 92.6344 395.698 92.2187 395.554 91.8284C395.41 91.4381 395.187 91.0813 394.9 90.78C394.612 90.5043 394.271 90.2889 393.899 90.1464C393.526 90.0039 393.129 89.9371 392.73 89.95C392.327 89.9338 391.925 90.0019 391.549 90.15C391.174 90.298 390.833 90.5228 390.55 90.81C390.268 91.1086 390.05 91.4608 389.907 91.8456C389.765 92.2304 389.701 92.64 389.72 93.05V93.33C389.701 93.7399 389.765 94.1495 389.907 94.5343C390.05 94.9191 390.268 95.2713 390.55 95.57C390.833 95.862 391.174 96.0912 391.551 96.2428C391.929 96.3944 392.334 96.465 392.74 96.45L392.73 96.43Z" fill="black"/>
<path d="M404.32 98.86H401.45V82.86H404.32V89.34H404.73C404.994 88.7109 405.435 88.1723 406 87.79C406.619 87.402 407.34 87.207 408.07 87.23C408.6 87.2266 409.125 87.3216 409.62 87.51C410.09 87.6861 410.514 87.9664 410.86 88.33C411.228 88.734 411.508 89.211 411.68 89.73C411.881 90.3772 411.979 91.0522 411.97 91.73V98.84H409.1V92.43C409.14 91.7477 408.934 91.0737 408.52 90.53C408.311 90.2942 408.051 90.1087 407.76 89.9875C407.469 89.8663 407.155 89.8124 406.84 89.83C406.477 89.8059 406.114 89.8717 405.782 90.0218C405.451 90.1718 405.161 90.4013 404.94 90.69C404.489 91.3655 404.268 92.1687 404.31 92.98L404.32 98.86Z" fill="black"/>
<path d="M415.56 96.13H419.39V90.29H415.84V87.55H422.27V96.13H425.55V98.86H415.55L415.56 96.13ZM423 84.2C423.006 84.4955 422.948 84.7888 422.83 85.06C422.722 85.3141 422.566 85.545 422.37 85.74C422.165 85.9327 421.928 86.0883 421.67 86.2C421.404 86.3122 421.119 86.37 420.83 86.37C420.541 86.37 420.256 86.3122 419.99 86.2C419.741 86.0832 419.511 85.928 419.31 85.74C419.111 85.5454 418.952 85.3146 418.84 85.06C418.727 84.7873 418.669 84.4951 418.67 84.2C418.669 83.9082 418.727 83.6192 418.84 83.35C418.949 83.091 419.109 82.8564 419.31 82.66C419.509 82.4718 419.739 82.3196 419.99 82.21C420.256 82.0978 420.541 82.04 420.83 82.04C421.119 82.04 421.404 82.0978 421.67 82.21C421.93 82.3143 422.167 82.467 422.37 82.66C422.568 82.857 422.724 83.0916 422.83 83.35C422.948 83.6175 423.006 83.9076 423 84.2Z" fill="black"/>
<path d="M440.35 94.71C440.147 95.9904 439.494 97.1566 438.51 98C437.415 98.8647 436.043 99.3019 434.65 99.23C433.854 99.2356 433.063 99.1071 432.31 98.85C431.614 98.6071 430.975 98.2262 430.43 97.73C429.889 97.2267 429.463 96.6128 429.18 95.93C428.861 95.1568 428.704 94.3263 428.72 93.49V93.21C428.706 92.3674 428.862 91.5305 429.18 90.75C429.467 90.0566 429.897 89.4312 430.441 88.9144C430.986 88.3976 431.633 88.0009 432.34 87.75C433.077 87.467 433.861 87.3245 434.65 87.33C436.037 87.2695 437.4 87.7096 438.49 88.57C439.472 89.3935 440.131 90.5376 440.35 91.8L437.52 92.53C437.432 91.8743 437.13 91.2661 436.66 90.8C436.39 90.5324 436.068 90.3233 435.713 90.1857C435.359 90.0481 434.98 89.9849 434.6 90C434.202 89.999 433.808 90.0772 433.44 90.23C433.067 90.3776 432.726 90.5986 432.44 90.88C432.16 91.1677 431.939 91.5074 431.79 91.88C431.624 92.3106 431.543 92.7688 431.55 93.23V93.37C431.541 93.8249 431.623 94.277 431.79 94.7C431.929 95.0604 432.145 95.386 432.423 95.6538C432.701 95.9216 433.035 96.1251 433.4 96.25C433.772 96.3827 434.165 96.4503 434.56 96.45C435.287 96.4976 436.004 96.261 436.56 95.79C437.048 95.312 437.364 94.6863 437.46 94.01L440.35 94.71Z" fill="black"/>
<path d="M42.68 60.78C53.3888 60.78 62.07 52.0988 62.07 41.39C62.07 30.6812 53.3888 22 42.68 22C31.9712 22 23.29 30.6812 23.29 41.39C23.29 52.0988 31.9712 60.78 42.68 60.78Z" fill="#FBF9F6"/>
<path d="M43.55 45.1701V42.5701H41.81V45.1701H39.35V42.5701H37V40.1101H39.32V38.3801H37V35.9101H39.32V33.3101H41.78V35.9101H43.52V33.3101H46V35.9101H48.33V38.3801H46V40.1101H48.33V42.5701H46V45.1701H43.55ZM43.55 38.3801H41.81V40.1101H43.55V38.3801Z" fill="black"/>
</g>
<defs>
<clipPath id="clip0_0_23">
<rect width="505.65" height="134.41" fill="white"/>
</clipPath>
</defs>
</svg>
