<svg width="208" height="224" viewBox="0 0 208 224" fill="none" xmlns="http://www.w3.org/2000/svg">
<g clip-path="url(#clip0_0_1031)">
<path d="M101.75 0H105.82C119.182 0 132.413 2.63184 144.758 7.74526C157.103 12.8587 168.32 20.3535 177.768 29.8019C187.216 39.2502 194.711 50.4671 199.825 62.812C204.938 75.1568 207.57 88.388 207.57 101.75V223.75H0V101.75C0 74.7642 10.7201 48.8837 29.8019 29.8019C48.8837 10.7201 74.7642 0 101.75 0Z" fill="#F5F5F5"/>
<path d="M8.79004 177.84V103.84C8.79004 78.6445 18.7989 54.4808 36.6149 36.6649C54.4309 18.8489 78.5945 8.84003 103.79 8.84003C128.986 8.84003 153.149 18.8489 170.965 36.6649C188.781 54.4808 198.79 78.6445 198.79 103.84V177.89L8.79004 177.84Z" fill="#0041F5"/>
<path d="M118.11 99.13C117.41 99.13 116.738 99.4081 116.243 99.9032C115.748 100.398 115.47 101.07 115.47 101.77V112.68C115.145 112.5 114.781 112.404 114.41 112.4C114.059 112.412 113.716 112.508 113.41 112.68V86.68C113.407 86.0266 113.146 85.401 112.683 84.9399C112.22 84.4788 111.593 84.22 110.94 84.22H110.59C109.938 84.22 109.312 84.4792 108.85 84.9405C108.389 85.4018 108.13 86.0276 108.13 86.68V99.5C107.879 99.3993 107.611 99.3484 107.34 99.35C107.042 99.3495 106.746 99.4072 106.47 99.52V81.63C106.47 80.9298 106.192 80.2583 105.697 79.7632C105.202 79.2681 104.53 78.99 103.83 78.99C103.13 78.99 102.458 79.2681 101.963 79.7632C101.468 80.2583 101.19 80.9298 101.19 81.63V99.63C100.883 99.4613 100.54 99.3687 100.19 99.36C99.9346 99.3625 99.6813 99.4064 99.44 99.49V85.93C99.44 85.2298 99.1618 84.5583 98.6667 84.0632C98.1716 83.5681 97.5001 83.29 96.8 83.29C96.0998 83.29 95.4283 83.5681 94.9332 84.0632C94.4381 84.5583 94.16 85.2298 94.16 85.93V99.63C93.8073 99.4296 93.4053 99.3325 93 99.35C92.6941 99.3489 92.3913 99.4101 92.11 99.53V90.08C92.1321 89.7203 92.0804 89.3599 91.958 89.0209C91.8356 88.682 91.6451 88.3717 91.3983 88.1092C91.1514 87.8466 90.8534 87.6374 90.5227 87.4944C90.1919 87.3514 89.8353 87.2776 89.475 87.2776C89.1146 87.2776 88.758 87.3514 88.4273 87.4944C88.0965 87.6374 87.7985 87.8466 87.5516 88.1092C87.3048 88.3717 87.1143 88.682 86.9919 89.0209C86.8695 89.3599 86.8178 89.7203 86.84 90.08V116.62C86.8426 116.964 86.914 117.304 87.05 117.62C87.5005 120.168 88.6874 122.529 90.4642 124.411C92.241 126.292 94.5299 127.612 97.0483 128.208C99.5667 128.803 102.204 128.648 104.636 127.762C107.067 126.876 109.186 125.297 110.73 123.22H114.09C115.859 123.22 117.556 122.517 118.806 121.266C120.057 120.016 120.76 118.319 120.76 116.55V101.77C120.76 101.422 120.691 101.078 120.558 100.757C120.425 100.436 120.229 100.145 119.983 99.8997C119.737 99.6544 119.445 99.4602 119.123 99.3281C118.802 99.196 118.457 99.1287 118.11 99.13Z" fill="#F5F5F5"/>
<path d="M103.79 68.55C103.47 68.5513 103.153 68.4894 102.857 68.3679C102.561 68.2464 102.292 68.0676 102.065 67.8418C101.839 67.616 101.659 67.3477 101.536 67.0522C101.413 66.7568 101.35 66.44 101.35 66.12V48.2C101.39 47.5812 101.663 47.0007 102.116 46.5765C102.568 46.1522 103.165 45.9161 103.785 45.9161C104.405 45.9161 105.002 46.1522 105.454 46.5765C105.906 47.0007 106.18 47.5812 106.22 48.2V66.12C106.22 66.4391 106.157 66.7551 106.035 67.0499C105.913 67.3448 105.734 67.6126 105.508 67.8383C105.283 68.0639 105.015 68.2429 104.72 68.365C104.425 68.4872 104.109 68.55 103.79 68.55Z" fill="#F5F5F5"/>
<path d="M103.79 161.84C103.47 161.841 103.153 161.779 102.857 161.658C102.561 161.536 102.292 161.358 102.065 161.132C101.839 160.906 101.659 160.638 101.536 160.342C101.413 160.047 101.35 159.73 101.35 159.41V141.49C101.329 141.157 101.376 140.823 101.488 140.509C101.601 140.195 101.777 139.908 102.005 139.665C102.233 139.421 102.509 139.227 102.815 139.095C103.121 138.962 103.451 138.894 103.785 138.894C104.119 138.894 104.449 138.962 104.755 139.095C105.061 139.227 105.336 139.421 105.565 139.665C105.793 139.908 105.969 140.195 106.081 140.509C106.194 140.823 106.241 141.157 106.22 141.49V159.41C106.22 159.729 106.157 160.045 106.035 160.34C105.913 160.635 105.734 160.903 105.508 161.128C105.283 161.354 105.015 161.533 104.72 161.655C104.425 161.777 104.109 161.84 103.79 161.84Z" fill="#F5F5F5"/>
<path d="M83.43 74.61C83.0043 74.6117 82.5857 74.5007 82.2168 74.2882C81.848 74.0756 81.542 73.7692 81.33 73.4L72.33 57.87C72.1704 57.5935 72.0669 57.2884 72.0253 56.9719C71.9837 56.6555 72.0048 56.3339 72.0874 56.0256C72.17 55.7174 72.3126 55.4284 72.5069 55.1752C72.7013 54.922 72.9436 54.7095 73.22 54.55C73.4964 54.3904 73.8016 54.2869 74.118 54.2452C74.4345 54.2036 74.756 54.2247 75.0643 54.3074C75.3726 54.39 75.6616 54.5326 75.9148 54.7269C76.168 54.9212 76.3804 55.1635 76.54 55.44L85.54 70.97C85.7555 71.3392 85.8694 71.7588 85.8701 72.1863C85.8707 72.6138 85.7581 73.0339 85.5437 73.4037C85.3294 73.7735 85.0208 74.08 84.6495 74.2919C84.2783 74.5038 83.8575 74.6135 83.43 74.61Z" fill="#F5F5F5"/>
<path d="M69.36 90.87C68.9356 90.8718 68.5182 90.7614 68.15 90.55L52.63 81.55C52.0718 81.2278 51.6644 80.697 51.4974 80.0743C51.3305 79.4517 51.4178 78.7883 51.74 78.23C52.0623 77.6717 52.5931 77.2643 53.2157 77.0974C53.8383 76.9305 54.5018 77.0178 55.06 77.34L70.58 86.34C71.0415 86.6087 71.4016 87.0218 71.6047 87.5156C71.8078 88.0094 71.8426 88.5564 71.7038 89.0719C71.5649 89.5875 71.2601 90.043 70.8365 90.368C70.4129 90.693 69.894 90.8694 69.36 90.87Z" fill="#F5F5F5"/>
<path d="M66.1 106.23H48.18C47.5355 106.23 46.9174 105.974 46.4617 105.518C46.006 105.063 45.75 104.444 45.75 103.8C45.75 103.156 46.006 102.537 46.4617 102.082C46.9174 101.626 47.5355 101.37 48.18 101.37H66.1C66.7445 101.37 67.3626 101.626 67.8183 102.082C68.274 102.537 68.53 103.156 68.53 103.8C68.53 104.444 68.274 105.063 67.8183 105.518C67.3626 105.974 66.7445 106.23 66.1 106.23Z" fill="#F5F5F5"/>
<path d="M55.68 134.13C55.1428 134.133 54.6198 133.958 54.1925 133.633C53.7652 133.307 53.4579 132.849 53.3185 132.331C53.1791 131.812 53.2155 131.262 53.422 130.766C53.6286 130.27 53.9936 129.856 54.46 129.59L69.99 120.59C70.2664 120.43 70.5716 120.327 70.888 120.285C71.2045 120.244 71.526 120.265 71.8343 120.347C72.1426 120.43 72.4316 120.573 72.6848 120.767C72.938 120.961 73.1504 121.204 73.31 121.48C73.4695 121.756 73.5731 122.062 73.6147 122.378C73.6563 122.694 73.6352 123.016 73.5526 123.324C73.4699 123.633 73.3274 123.922 73.1331 124.175C72.9387 124.428 72.6964 124.64 72.42 124.8L56.89 133.8C56.5246 134.019 56.106 134.133 55.68 134.13Z" fill="#F5F5F5"/>
<path d="M76.55 154.72C76.1243 154.717 75.7068 154.602 75.3391 154.388C74.9713 154.173 74.6662 153.866 74.4538 153.497C74.2415 153.128 74.1295 152.71 74.1288 152.284C74.1281 151.858 74.2388 151.44 74.45 151.07L83.45 135.55C83.5922 135.242 83.7974 134.967 84.0523 134.743C84.3072 134.519 84.6062 134.351 84.9299 134.25C85.2537 134.149 85.5951 134.116 85.9321 134.155C86.2692 134.193 86.5944 134.302 86.8869 134.474C87.1794 134.646 87.4327 134.877 87.6305 135.153C87.8282 135.428 87.9661 135.742 88.0351 136.074C88.1042 136.407 88.1029 136.75 88.0314 137.081C87.9599 137.413 87.8198 137.726 87.62 138L78.62 153.52C78.407 153.881 78.1047 154.181 77.7422 154.391C77.3796 154.601 76.969 154.715 76.55 154.72Z" fill="#F5F5F5"/>
<path d="M124.14 74.61C123.712 74.6107 123.292 74.5005 122.92 74.29C122.365 73.973 121.956 73.4498 121.784 72.834C121.612 72.2181 121.69 71.5591 122 71L131 55.47C131.322 54.9117 131.853 54.5043 132.476 54.3374C133.098 54.1705 133.762 54.2578 134.32 54.58C134.878 54.9022 135.286 55.4331 135.453 56.0557C135.619 56.6783 135.532 57.3417 135.21 57.9L126.21 73.43C125.995 73.7879 125.692 74.0845 125.329 74.2911C124.967 74.4978 124.557 74.6076 124.14 74.61Z" fill="#F5F5F5"/>
<path d="M138.21 90.87C137.677 90.8672 137.16 90.6892 136.738 90.3634C136.316 90.0376 136.012 89.5821 135.875 89.0671C135.737 88.5521 135.773 88.0061 135.976 87.5133C136.18 87.0205 136.539 86.6082 137 86.34L152.52 77.34C152.799 77.1771 153.107 77.0709 153.428 77.0272C153.748 76.9835 154.073 77.0034 154.386 77.0856C154.698 77.1677 154.991 77.3107 155.249 77.5062C155.506 77.7017 155.722 77.9459 155.885 78.225C156.048 78.504 156.154 78.8124 156.198 79.1326C156.241 79.4527 156.222 79.7783 156.139 80.0908C156.057 80.4032 155.914 80.6965 155.719 80.9537C155.523 81.2109 155.279 81.4271 155 81.59L139.47 90.59C139.083 90.7961 138.648 90.8929 138.21 90.87Z" fill="#F5F5F5"/>
<path d="M159.39 106.23H141.47C140.826 106.23 140.207 105.974 139.752 105.518C139.296 105.063 139.04 104.444 139.04 103.8C139.04 103.156 139.296 102.537 139.752 102.082C140.207 101.626 140.826 101.37 141.47 101.37H159.39C160.035 101.37 160.653 101.626 161.108 102.082C161.564 102.537 161.82 103.156 161.82 103.8C161.82 104.444 161.564 105.063 161.108 105.518C160.653 105.974 160.035 106.23 159.39 106.23Z" fill="#F5F5F5"/>
<path d="M151.89 134.13C151.464 134.133 151.045 134.019 150.68 133.8L135.15 124.8C134.592 124.476 134.185 123.944 134.019 123.321C133.853 122.697 133.941 122.033 134.265 121.475C134.589 120.917 135.121 120.51 135.744 120.344C136.368 120.178 137.032 120.266 137.59 120.59L153.11 129.59C153.576 129.856 153.941 130.27 154.148 130.766C154.354 131.262 154.391 131.812 154.251 132.331C154.112 132.849 153.805 133.307 153.377 133.633C152.95 133.958 152.427 134.133 151.89 134.13Z" fill="#F5F5F5"/>
<path d="M131 154.72C130.574 154.72 130.155 154.607 129.786 154.392C129.417 154.178 129.112 153.87 128.9 153.5L120 138C119.678 137.442 119.591 136.778 119.757 136.156C119.924 135.533 120.332 135.002 120.89 134.68C121.448 134.358 122.112 134.27 122.734 134.437C123.357 134.604 123.888 135.012 124.21 135.57L133.21 151.09C133.37 151.366 133.473 151.672 133.515 151.988C133.557 152.304 133.535 152.626 133.453 152.934C133.37 153.243 133.228 153.532 133.033 153.785C132.839 154.038 132.597 154.25 132.32 154.41C131.918 154.635 131.46 154.742 131 154.72Z" fill="#F5F5F5"/>
<path d="M16.22 210C14.5819 209.26 13.1928 208.062 12.22 206.55C11.1869 204.899 10.6682 202.977 10.73 201.03C10.7522 199.367 11.0184 197.716 11.52 196.13C12.68 192.35 14.4267 189.627 16.76 187.96C18.9316 186.344 21.5631 185.464 24.2701 185.45C25.5683 185.431 26.8593 185.647 28.08 186.09C29.1914 186.549 30.2162 187.195 31.1101 188L32.1101 187.21C32.6359 186.777 33.2137 186.41 33.8301 186.12C34.3231 185.91 34.8542 185.804 35.39 185.81C35.9256 185.783 36.4554 185.93 36.9001 186.23C37.0878 186.369 37.2382 186.552 37.3377 186.763C37.4371 186.974 37.4826 187.207 37.4701 187.44C37.4644 187.724 37.4103 188.004 37.3101 188.27L35.2001 194.15C35.0632 194.691 34.7834 195.185 34.39 195.58C33.9957 195.889 33.4996 196.039 33 196C32.6969 196.008 32.3957 195.949 32.1176 195.828C31.8395 195.707 31.5912 195.527 31.39 195.3C30.8173 194.565 30.3432 193.758 29.98 192.9C29.6017 192.058 29.1069 191.274 28.51 190.57C28.286 190.368 28.0234 190.214 27.7382 190.116C27.453 190.018 27.1509 189.978 26.85 190C26.2348 190.059 25.6424 190.263 25.121 190.595C24.5996 190.927 24.1641 191.378 23.85 191.91C22.6729 193.656 21.7943 195.586 21.25 197.62C20.6587 199.345 20.3218 201.148 20.25 202.97C20.177 203.959 20.4261 204.945 20.96 205.78C21.1827 206.079 21.4746 206.32 21.8107 206.482C22.1468 206.644 22.5172 206.722 22.89 206.71C23.9209 206.748 24.939 206.473 25.81 205.92C26.6774 205.297 27.4694 204.576 28.17 203.77C28.5485 203.333 28.9561 202.922 29.39 202.54C29.6662 202.294 30.0202 202.152 30.39 202.14C30.9371 202.183 31.4495 202.425 31.83 202.82C32.0439 202.978 32.219 203.182 32.342 203.418C32.465 203.654 32.5328 203.914 32.5401 204.18C32.3695 205.154 31.9014 206.052 31.2001 206.75C30.143 208.023 28.8491 209.079 27.39 209.86C25.7006 210.789 23.7979 211.261 21.8701 211.23C19.9195 211.237 17.9911 210.817 16.22 210Z" fill="#0041F5"/>
<path d="M59.94 187C60.4196 186.545 60.9874 186.193 61.6083 185.966C62.2292 185.739 62.89 185.642 63.55 185.68C64.0871 185.656 64.6232 185.746 65.1231 185.945C65.6229 186.143 66.0751 186.445 66.45 186.83C67.1756 187.599 67.5675 188.623 67.54 189.68C67.5311 190.126 67.4673 190.57 67.35 191C67.1743 191.952 66.6502 192.804 65.88 193.39C65.2097 193.871 64.4052 194.13 63.58 194.13C63.1943 194.135 62.809 194.102 62.43 194.03C62.091 193.976 61.7567 193.895 61.43 193.79L59.25 202C58.6591 204.643 57.2612 207.037 55.25 208.85C53.0464 210.52 50.3209 211.353 47.56 211.2C45.136 211.344 42.7248 210.755 40.64 209.51C39.8134 208.912 39.1529 208.114 38.7207 207.19C38.2885 206.266 38.0989 205.247 38.17 204.23C38.1902 202.938 38.3922 201.656 38.77 200.42L41.64 190.27C41.737 189.966 41.7876 189.649 41.79 189.33C41.7955 189.077 41.7513 188.826 41.66 188.59C41.57 188.41 41.45 188.18 41.3 187.93C41.1114 187.706 40.9932 187.431 40.96 187.14C40.9639 187.011 40.9875 186.882 41.03 186.76C41.0817 186.6 41.1702 186.454 41.2883 186.334C41.4063 186.215 41.5507 186.124 41.71 186.07C42.2099 185.908 42.7349 185.837 43.26 185.86H52.12C53.2 185.86 53.74 186.19 53.74 186.86C53.7575 186.986 53.7575 187.114 53.74 187.24C53.681 187.444 53.5708 187.63 53.42 187.78C53.2328 187.964 53.0247 188.125 52.8 188.26C52.4262 188.451 52.0879 188.705 51.8 189.01C51.4995 189.387 51.2815 189.823 51.16 190.29L47.88 201.83C47.6736 202.543 47.5594 203.279 47.54 204.02C47.54 205.7 48.44 206.55 50.26 206.55C50.7667 206.557 51.2696 206.463 51.7399 206.274C52.2102 206.085 52.6384 205.805 53 205.45C53.9196 204.399 54.5594 203.134 54.86 201.77L57.93 191C58.2465 189.517 58.9386 188.139 59.94 187Z" fill="#0041F5"/>
<path d="M87.06 201.68C87.2413 201.828 87.3854 202.016 87.4809 202.23C87.5764 202.443 87.6206 202.676 87.61 202.91C87.6047 203.164 87.5643 203.417 87.49 203.66L86.25 208.07C86.0444 208.955 85.5608 209.75 84.87 210.34C84.0827 210.816 83.1683 211.04 82.25 210.98H64.53C64.1031 211.004 63.6776 210.911 63.3 210.71C63.1695 210.643 63.0602 210.541 62.9843 210.416C62.9083 210.291 62.8688 210.147 62.87 210C62.8771 209.808 62.9244 209.62 63.0088 209.448C63.0932 209.276 63.2129 209.123 63.36 209C63.5391 208.856 63.7261 208.723 63.92 208.6C64.2837 208.385 64.6195 208.127 64.92 207.83C65.23 207.451 65.4489 207.007 65.56 206.53L70.17 190.27C70.2671 189.966 70.3176 189.649 70.32 189.33C70.326 189.089 70.2782 188.85 70.18 188.63C70.0785 188.402 69.9616 188.182 69.83 187.97C69.643 187.745 69.5249 187.471 69.49 187.18C69.4983 187.038 69.5218 186.897 69.56 186.76C69.6098 186.602 69.6952 186.458 69.8096 186.338C69.9241 186.218 70.0645 186.127 70.22 186.07C70.7262 185.905 71.2583 185.834 71.79 185.86H80.65C81.0735 185.838 81.496 185.92 81.88 186.1C82.009 186.166 82.1173 186.266 82.1932 186.39C82.269 186.513 82.3094 186.655 82.31 186.8C82.3041 187.177 82.1496 187.536 81.88 187.8C81.765 187.917 81.6376 188.021 81.5 188.11C81.4077 188.152 81.3232 188.21 81.25 188.28C80.8763 188.471 80.538 188.725 80.25 189.03C79.9496 189.407 79.7315 189.843 79.61 190.31L74.75 207.4H77.08C77.5942 207.416 78.1049 207.31 78.57 207.09C79.0839 206.813 79.531 206.428 79.88 205.96L82.48 202.87C82.8701 202.397 83.3325 201.989 83.85 201.66C84.3454 201.399 84.9003 201.271 85.46 201.29C86.022 201.237 86.5854 201.374 87.06 201.68Z" fill="#0041F5"/>
<path d="M116.91 187.56C116.897 188.009 116.82 188.453 116.68 188.88L115.78 191.93C115.621 192.67 115.277 193.358 114.78 193.93C114.3 194.338 113.679 194.543 113.05 194.5C112.786 194.519 112.521 194.485 112.271 194.401C112.02 194.317 111.789 194.184 111.59 194.01C111.158 193.564 110.818 193.038 110.59 192.46L109.95 190.92C109.822 190.539 109.602 190.196 109.31 189.92C108.993 189.724 108.622 189.634 108.25 189.66H107.39L102.6 206.52C102.526 206.804 102.486 207.096 102.48 207.39C102.473 207.647 102.521 207.903 102.62 208.14C102.721 208.37 102.852 208.585 103.01 208.78C103.202 209.033 103.32 209.334 103.35 209.65C103.339 209.779 103.315 209.906 103.28 210.03C103.212 210.193 103.111 210.34 102.984 210.462C102.856 210.584 102.705 210.679 102.54 210.74C102.039 210.914 101.51 210.992 100.98 210.97H92.1299C91.7075 210.992 91.2868 210.902 90.91 210.71C90.7744 210.635 90.6617 210.525 90.5842 210.391C90.5067 210.257 90.4672 210.105 90.47 209.95C90.474 209.793 90.5151 209.638 90.5899 209.5C90.6665 209.306 90.7862 209.131 90.94 208.99C91.1413 208.834 91.3517 208.691 91.57 208.56C91.9177 208.352 92.2342 208.097 92.51 207.8C92.8104 207.423 93.0284 206.987 93.15 206.52L97.9 189.66H97C96.5328 189.643 96.068 189.732 95.64 189.92C95.2016 190.176 94.8177 190.516 94.51 190.92L93.26 192.46C92.7921 193.051 92.2394 193.57 91.62 194C91.0979 194.335 90.4902 194.512 89.87 194.51C89.3758 194.539 88.8893 194.378 88.51 194.06C88.3457 193.897 88.2173 193.702 88.1329 193.487C88.0486 193.271 88.0101 193.041 88.0199 192.81C88.024 192.529 88.0644 192.25 88.14 191.98L89.14 188.55C89.2788 187.985 89.5049 187.445 89.8099 186.95C90.0757 186.575 90.454 186.295 90.89 186.15C91.5395 185.964 92.2147 185.883 92.89 185.91H114.89C116.22 185.86 116.91 186.43 116.91 187.56Z" fill="#0041F5"/>
<path d="M138.31 187C138.788 186.546 139.354 186.194 139.973 185.967C140.592 185.74 141.252 185.643 141.91 185.68C142.449 185.655 142.987 185.745 143.488 185.943C143.99 186.142 144.444 186.444 144.82 186.83C145.546 187.599 145.937 188.623 145.91 189.68C145.901 190.126 145.837 190.569 145.72 191C145.544 191.952 145.02 192.804 144.25 193.39C143.58 193.871 142.775 194.13 141.95 194.13C141.564 194.135 141.179 194.102 140.8 194.03C140.461 193.976 140.127 193.895 139.8 193.79L137.62 202C137.029 204.643 135.631 207.037 133.62 208.85C131.416 210.52 128.691 211.353 125.93 211.2C123.506 211.344 121.095 210.755 119.01 209.51C118.183 208.912 117.523 208.114 117.091 207.19C116.658 206.266 116.469 205.247 116.54 204.23C116.56 202.938 116.762 201.656 117.14 200.42L120 190.27C120.097 189.966 120.148 189.649 120.15 189.33C120.158 189.076 120.11 188.824 120.01 188.59C119.906 188.363 119.789 188.143 119.66 187.93C119.471 187.706 119.353 187.431 119.32 187.14C119.324 187.011 119.348 186.882 119.39 186.76C119.442 186.6 119.53 186.454 119.648 186.334C119.766 186.215 119.911 186.124 120.07 186.07C120.57 185.908 121.095 185.837 121.62 185.86H130.48C131.56 185.86 132.1 186.19 132.1 186.86C132.117 186.986 132.117 187.114 132.1 187.24C132.041 187.444 131.931 187.63 131.78 187.78C131.591 187.961 131.383 188.122 131.16 188.26C130.786 188.451 130.448 188.705 130.16 189.01C129.856 189.385 129.637 189.822 129.52 190.29L126.24 201.83C126.034 202.543 125.919 203.279 125.9 204.02C125.9 205.7 126.8 206.55 128.61 206.55C129.122 206.564 129.631 206.476 130.109 206.29C130.586 206.105 131.022 205.826 131.39 205.47C132.31 204.419 132.949 203.154 133.25 201.79L136.3 191C136.617 189.517 137.309 188.139 138.31 187Z" fill="#0041F5"/>
<path d="M169.14 196.93C167.906 197.799 166.464 198.327 164.96 198.46C165.953 198.463 166.913 198.817 167.67 199.46C167.976 199.774 168.215 200.147 168.371 200.556C168.528 200.965 168.599 201.402 168.58 201.84C168.569 202.309 168.506 202.775 168.39 203.23L167.97 205.08C167.931 205.254 167.908 205.432 167.9 205.61C167.889 205.741 167.903 205.873 167.942 205.998C167.982 206.123 168.046 206.239 168.13 206.34C168.211 206.427 168.311 206.494 168.422 206.537C168.533 206.58 168.651 206.598 168.77 206.59C169.167 206.564 169.564 206.643 169.92 206.82C170.16 206.97 170.24 207.24 170.16 207.65C170.027 208.287 169.714 208.874 169.26 209.34C168.665 209.956 167.936 210.428 167.13 210.72C166.061 211.109 164.928 211.296 163.79 211.27C162.369 211.355 160.96 210.96 159.79 210.15C159.305 209.78 158.917 209.296 158.661 208.742C158.405 208.188 158.288 207.58 158.32 206.97C158.323 206.396 158.397 205.826 158.54 205.27L159.15 202.86C159.248 202.536 159.299 202.199 159.3 201.86C159.32 201.618 159.276 201.375 159.173 201.156C159.069 200.936 158.91 200.748 158.71 200.61C158.135 200.32 157.492 200.192 156.85 200.24H155.41L153.68 206.5C153.624 206.681 153.597 206.87 153.6 207.06C153.591 207.384 153.686 207.703 153.87 207.97C154.077 208.258 154.315 208.523 154.58 208.76C154.778 208.907 154.956 209.078 155.11 209.27C155.232 209.412 155.299 209.593 155.3 209.78C155.309 209.974 155.256 210.167 155.148 210.329C155.04 210.491 154.883 210.614 154.7 210.68C154.159 210.894 153.582 211.002 153 211H143.5C142.984 211.038 142.47 210.912 142.03 210.64C141.873 210.533 141.755 210.377 141.693 210.197C141.632 210.016 141.631 209.821 141.69 209.64C141.727 209.433 141.825 209.242 141.97 209.09C142.162 208.915 142.369 208.757 142.59 208.62C142.962 208.41 143.299 208.143 143.59 207.83C143.887 207.455 144.096 207.017 144.2 206.55L148.8 190.29C148.897 189.986 148.948 189.669 148.95 189.35C148.954 189.11 148.91 188.872 148.82 188.65C148.727 188.463 148.607 188.243 148.46 187.99C148.273 187.765 148.155 187.491 148.12 187.2C148.128 187.058 148.152 186.917 148.19 186.78C148.24 186.622 148.325 186.478 148.44 186.358C148.554 186.238 148.695 186.147 148.85 186.09C149.356 185.925 149.888 185.854 150.42 185.88H163.05C164.604 185.846 166.149 186.115 167.6 186.67C168.778 187.108 169.815 187.858 170.6 188.84C171.268 189.738 171.62 190.831 171.6 191.95C171.601 192.484 171.527 193.016 171.38 193.53C171.04 194.884 170.25 196.083 169.14 196.93ZM161.94 191.82C161.94 190.49 161.21 189.82 159.75 189.82H158.17L156.51 196.49H158.09C158.924 196.541 159.748 196.289 160.41 195.78C161.113 195.055 161.58 194.135 161.75 193.14C161.858 192.708 161.922 192.265 161.94 191.82Z" fill="#0041F5"/>
<path d="M198 186.46C198.253 186.654 198.456 186.907 198.592 187.195C198.727 187.484 198.792 187.801 198.78 188.12C198.779 188.459 198.728 188.796 198.63 189.12L197.63 192.63C197.53 193.172 197.256 193.667 196.85 194.04C196.426 194.334 195.915 194.475 195.4 194.44C194.898 194.471 194.401 194.33 193.99 194.04C193.601 193.698 193.329 193.244 193.21 192.74L192.61 190.59C192.539 190.257 192.384 189.947 192.16 189.69C191.861 189.505 191.51 189.424 191.16 189.46H187.16L185.27 196.17H187C187.274 196.128 187.526 195.998 187.72 195.8L189 194.66C189.309 194.39 189.644 194.153 190 193.95C190.31 193.793 190.653 193.714 191 193.72C191.401 193.704 191.795 193.831 192.11 194.08C192.249 194.189 192.361 194.329 192.438 194.489C192.514 194.648 192.552 194.823 192.55 195C192.54 195.156 192.513 195.31 192.47 195.46L190.92 200.7C190.816 201.185 190.543 201.618 190.15 201.92C189.809 202.182 189.39 202.322 188.96 202.32C188.617 202.321 188.281 202.218 187.999 202.023C187.717 201.828 187.501 201.551 187.38 201.23L186.74 199.91C186.678 199.741 186.565 199.595 186.416 199.493C186.267 199.391 186.09 199.337 185.91 199.34H184.44L182.21 207.34H185.53C185.971 207.347 186.406 207.248 186.8 207.05C187.25 206.79 187.65 206.452 187.98 206.05L190.25 203.57C190.577 203.196 190.966 202.882 191.4 202.64C191.817 202.44 192.277 202.343 192.74 202.36C193.219 202.336 193.694 202.469 194.09 202.74C194.267 202.868 194.408 203.039 194.501 203.237C194.593 203.434 194.635 203.652 194.62 203.87C194.613 204.11 194.576 204.349 194.51 204.58L193.41 208.39C193.248 209.173 192.825 209.879 192.21 210.39C191.521 210.813 190.717 211.012 189.91 210.96H171.91C171.483 210.984 171.058 210.891 170.68 210.69C170.55 210.623 170.44 210.521 170.364 210.396C170.288 210.271 170.249 210.127 170.25 209.98C170.263 209.758 170.323 209.542 170.427 209.345C170.53 209.149 170.675 208.976 170.85 208.84L171.27 208.58C171.632 208.363 171.967 208.104 172.27 207.81C172.576 207.429 172.795 206.985 172.91 206.51L177.55 190.25C177.644 189.959 177.695 189.656 177.7 189.35C177.708 189.09 177.66 188.831 177.56 188.59C177.457 188.361 177.326 188.146 177.17 187.95C176.983 187.725 176.865 187.451 176.83 187.16C176.838 187.017 176.865 186.876 176.91 186.74C176.96 186.581 177.047 186.435 177.163 186.315C177.279 186.196 177.422 186.105 177.58 186.05C178.08 185.889 178.605 185.818 179.13 185.84H195.88C196.636 185.807 197.381 186.025 198 186.46Z" fill="#0041F5"/>
<path d="M23.46 153.64V155.49C23.1033 155.555 22.7633 155.691 22.46 155.89C22.1623 156.078 21.9014 156.319 21.69 156.6C21.4804 156.884 21.3214 157.202 21.22 157.54C21.1095 157.896 21.0555 158.267 21.06 158.64C21.0509 159.302 21.2351 159.952 21.59 160.51C21.9663 161.086 22.5011 161.541 23.13 161.82C23.917 162.152 24.766 162.312 25.62 162.29C26.4807 162.315 27.3367 162.155 28.13 161.82C28.757 161.538 29.291 161.084 29.67 160.51C30.0156 159.948 30.1958 159.3 30.19 158.64C30.1937 158.271 30.1397 157.903 30.03 157.55C29.8368 156.868 29.4035 156.278 28.81 155.89C28.5052 155.694 28.1658 155.558 27.81 155.49V153.64C28.3853 153.734 28.9401 153.927 29.45 154.21C29.9469 154.486 30.3851 154.856 30.74 155.3C31.1115 155.743 31.3965 156.252 31.58 156.8C31.7839 157.395 31.8854 158.021 31.88 158.65C31.8985 159.638 31.6386 160.612 31.13 161.46C30.614 162.299 29.8677 162.973 28.98 163.4C27.9398 163.901 26.7941 164.145 25.64 164.11C24.4859 164.144 23.3405 163.9 22.3 163.4C21.4168 162.97 20.6745 162.297 20.16 161.46C19.6528 160.612 19.393 159.638 19.41 158.65C19.4055 158.04 19.4966 157.432 19.68 156.85C19.863 156.305 20.1369 155.794 20.49 155.34C20.8421 154.888 21.2806 154.511 21.78 154.23C22.3001 153.934 22.8692 153.735 23.46 153.64Z" fill="#F5F5F5"/>
<path d="M27.88 145.81H22.55V144H31.65V145.75H30.08V145.84C30.5685 146.054 30.9875 146.401 31.2901 146.84C31.6237 147.346 31.7915 147.944 31.7701 148.55C31.7826 149.092 31.6478 149.628 31.38 150.1C31.1126 150.561 30.7116 150.931 30.23 151.16C29.6373 151.429 28.9908 151.559 28.34 151.54H22.55V149.77H28.13C28.6727 149.799 29.2046 149.612 29.6101 149.25C29.7926 149.079 29.9362 148.871 30.0311 148.64C30.126 148.409 30.17 148.16 30.16 147.91C30.1594 147.561 30.0736 147.218 29.91 146.91C29.7382 146.574 29.4791 146.291 29.16 146.09C28.7696 145.875 28.3248 145.777 27.88 145.81Z" fill="#F5F5F5"/>
<path d="M19.51 139.87H31.65V141.64H19.51V139.87Z" fill="#F5F5F5"/>
<path d="M20.37 136.88V135.11H29C29.2661 135.124 29.5314 135.069 29.77 134.95C29.9334 134.866 30.0586 134.723 30.12 134.55C30.1905 134.379 30.2246 134.195 30.22 134.01C30.2311 133.887 30.2311 133.763 30.22 133.64C30.22 133.53 30.22 133.45 30.17 133.39L31.63 133.07C31.6803 133.214 31.7204 133.361 31.75 133.51C31.8027 133.743 31.8262 133.981 31.82 134.22C31.836 134.67 31.7506 135.118 31.57 135.53C31.41 135.936 31.1312 136.285 30.77 136.53C30.3627 136.793 29.8847 136.926 29.4 136.91L20.37 136.88ZM22.55 133.24H24V138.24H22.55V133.24Z" fill="#F5F5F5"/>
<path d="M27.88 125.5H22.55V123.72H31.65V125.47H30.08V125.56C30.5685 125.774 30.9875 126.121 31.2901 126.56C31.6237 127.066 31.7915 127.664 31.7701 128.27C31.7826 128.812 31.6478 129.348 31.38 129.82C31.1126 130.281 30.7116 130.651 30.23 130.88C29.6373 131.149 28.9908 131.279 28.34 131.26H22.55V129.5H28.13C28.6727 129.529 29.2046 129.342 29.6101 128.98C29.7926 128.809 29.9362 128.601 30.0311 128.37C30.126 128.139 30.17 127.89 30.16 127.64C30.1544 127.278 30.0603 126.923 29.886 126.606C29.7117 126.289 29.4625 126.019 29.16 125.82C28.7721 125.595 28.3283 125.484 27.88 125.5Z" fill="#F5F5F5"/>
<path d="M31.65 121.35H22.55V119.64H24V119.54C23.526 119.389 23.1194 119.078 22.85 118.66C22.5607 118.24 22.4104 117.74 22.42 117.23C22.42 117.12 22.42 116.99 22.42 116.84C22.42 116.69 22.42 116.57 22.42 116.48H24.12C24.12 116.55 24.12 116.68 24.05 116.86C24.0401 117.04 24.0401 117.22 24.05 117.4C24.0417 117.79 24.1347 118.176 24.32 118.52C24.4916 118.842 24.7483 119.112 25.062 119.298C25.3758 119.485 25.7348 119.583 26.1 119.58H31.66L31.65 121.35Z" fill="#F5F5F5"/>
<path d="M31.84 111.36C31.8637 112.169 31.663 112.968 31.26 113.67C30.8739 114.318 30.3075 114.839 29.63 115.17C28.8587 115.534 28.0126 115.712 27.16 115.69C26.3077 115.708 25.4627 115.53 24.69 115.17C23.9943 114.843 23.4097 114.319 23.0081 113.663C22.6065 113.007 22.4055 112.248 22.43 111.48C22.4276 110.973 22.5121 110.469 22.68 109.99C22.8522 109.503 23.1286 109.059 23.49 108.69C23.885 108.284 24.3671 107.973 24.9 107.78C25.5779 107.545 26.2926 107.433 27.01 107.45H27.64V114.69H26.31V109.19C25.8799 109.18 25.4539 109.276 25.07 109.47C24.7143 109.651 24.4164 109.928 24.21 110.27C23.9923 110.632 23.8814 111.048 23.89 111.47C23.8821 111.93 24.0109 112.383 24.26 112.77C24.4927 113.135 24.8213 113.429 25.21 113.62C25.5997 113.82 26.0319 113.923 26.47 113.92H27.47C28.0049 113.94 28.5367 113.83 29.02 113.6C29.4369 113.408 29.7857 113.095 30.02 112.7C30.382 111.995 30.4503 111.175 30.21 110.42C30.1194 110.15 29.969 109.904 29.77 109.7C29.57 109.496 29.3276 109.339 29.06 109.24L29.36 107.56C29.8408 107.695 30.2829 107.941 30.65 108.28C31.0312 108.643 31.3253 109.087 31.51 109.58C31.734 110.146 31.8461 110.751 31.84 111.36Z" fill="#F5F5F5"/>
<path d="M21.2 99.92C21.1886 100.213 21.0672 100.492 20.86 100.7C20.7616 100.801 20.643 100.879 20.5121 100.931C20.3811 100.983 20.2407 101.006 20.1 101C19.959 100.997 19.8201 100.965 19.6926 100.904C19.565 100.844 19.4517 100.757 19.36 100.65C19.164 100.427 19.0634 100.136 19.08 99.84C19.0863 99.5454 19.2085 99.2652 19.42 99.06C19.518 98.9589 19.6362 98.8796 19.7669 98.8274C19.8975 98.7751 20.0378 98.751 20.1785 98.7567C20.3191 98.7623 20.457 98.7976 20.583 98.8602C20.7091 98.9229 20.8205 99.0114 20.91 99.12C21.0091 99.2274 21.0857 99.3535 21.1355 99.4908C21.1853 99.6282 21.2072 99.7741 21.2 99.92ZM31.67 101.18L22.57 100.86L22.63 99.09L31.73 99.41L31.67 101.18Z" fill="#F5F5F5"/>
<path d="M25.7701 89.81L25.8601 91.44C25.6404 91.4813 25.4302 91.5626 25.2401 91.68C25.0234 91.8116 24.8417 91.9934 24.7101 92.21C24.5505 92.4816 24.4548 92.786 24.4301 93.1C24.3628 93.5383 24.4253 93.9868 24.6101 94.39C24.6782 94.5501 24.7869 94.6896 24.9254 94.7949C25.064 94.9001 25.2276 94.9673 25.4001 94.99C25.539 95.0098 25.6806 94.9976 25.814 94.9542C25.9475 94.9109 26.0693 94.8376 26.1701 94.74C26.4396 94.4554 26.6413 94.1135 26.7601 93.74L27.2601 92.35C27.4683 91.6757 27.8513 91.0685 28.3701 90.59C28.5957 90.4061 28.8572 90.2712 29.1378 90.1937C29.4184 90.1162 29.712 90.0979 30.0001 90.14C30.5198 90.1995 31.0069 90.4237 31.3901 90.78C31.788 91.1712 32.0745 91.6613 32.2201 92.2C32.4013 92.8505 32.4456 93.5315 32.3501 94.2C32.286 95.0783 31.9545 95.9158 31.4001 96.6C31.1549 96.897 30.8503 97.1394 30.5059 97.3116C30.1614 97.4838 29.7847 97.5821 29.4001 97.6L29.3501 95.86C29.7653 95.8306 30.1527 95.6404 30.4301 95.33C30.7193 94.9735 30.8936 94.5376 30.9301 94.08C31.0123 93.5974 30.9424 93.1011 30.7301 92.66C30.6577 92.4943 30.5446 92.3495 30.4012 92.2394C30.2578 92.1292 30.0888 92.0572 29.9101 92.03C29.776 92.0158 29.6404 92.0289 29.5116 92.0684C29.3827 92.1079 29.2631 92.1731 29.1601 92.26C28.902 92.5114 28.7127 92.8247 28.6101 93.17L28.0901 94.66C27.8888 95.3127 27.5117 95.8974 27.0001 96.35C26.7647 96.5257 26.4966 96.6525 26.2115 96.7229C25.9264 96.7933 25.6301 96.8059 25.3401 96.76C24.8324 96.7137 24.356 96.4949 23.9901 96.14C23.6055 95.7728 23.3318 95.3051 23.2001 94.79C23.0163 94.2123 22.9484 93.604 23.0001 93C23.0528 92.1775 23.3723 91.3946 23.9101 90.77C24.3947 90.2371 25.0549 89.8963 25.7701 89.81Z" fill="#F5F5F5"/>
<path d="M23.2 81.2L23.69 79.5L32 81.87C32.2542 81.9555 32.5257 81.9761 32.79 81.93C32.9682 81.8864 33.1266 81.7843 33.24 81.64C33.3461 81.4922 33.4241 81.3261 33.47 81.15C33.5079 81.0294 33.5346 80.9055 33.5499 80.78C33.5499 80.68 33.5499 80.59 33.5499 80.53L35.04 80.63C35.0501 80.7798 35.0501 80.9302 35.04 81.08C34.9842 81.7781 34.7271 82.445 34.2999 83C34.0428 83.3312 33.6956 83.5811 33.2999 83.72C32.8376 83.8645 32.3423 83.8645 31.8799 83.72L23.2 81.2ZM26.2999 78.3L27.67 78.69L26.2999 83.47L24.94 83.08L26.2999 78.3Z" fill="#F5F5F5"/>
<path d="M31.2001 75.49L36.2001 77.54L35.5201 79.18L24.3 74.58L25 73L29.18 74.71V74.61C28.8162 74.2393 28.5693 73.7699 28.47 73.26C28.3841 72.6648 28.4708 72.0574 28.72 71.51C28.9342 70.9745 29.2778 70.5003 29.72 70.13C30.1458 69.7972 30.661 69.5988 31.2001 69.56C31.8531 69.526 32.5047 69.6495 33.1 69.92L38.46 72.11L37.7901 73.75L32.6101 71.6C32.1064 71.3617 31.5314 71.3224 31 71.49C30.7647 71.597 30.5542 71.7518 30.382 71.9446C30.2098 72.1375 30.0797 72.3641 30 72.61C29.8441 72.9686 29.7822 73.3609 29.82 73.75C29.8605 74.1188 30.0102 74.467 30.25 74.75C30.5023 75.0698 30.8282 75.3238 31.2001 75.49Z" fill="#F5F5F5"/>
<path d="M41.36 67.12C40.975 67.8315 40.4049 68.4258 39.71 68.84C39.0523 69.2081 38.3022 69.3783 37.55 69.33C36.7047 69.2445 35.8868 68.9822 35.1495 68.5601C34.4121 68.138 33.7718 67.5656 33.27 66.88C32.8332 66.2638 32.5832 65.5347 32.55 64.78C32.5224 63.9993 32.724 63.2275 33.13 62.56C33.388 62.1115 33.7271 61.7148 34.13 61.39C34.5175 61.0511 34.9751 60.8018 35.47 60.66C36.0166 60.5072 36.5902 60.4765 37.15 60.57C37.8565 60.7027 38.5337 60.9601 39.15 61.33L39.7 61.64L36.11 67.93L34.95 67.27L37.68 62.49C37.3088 62.2707 36.8904 62.1438 36.46 62.12C36.0627 62.1068 35.6691 62.2 35.32 62.39C34.9524 62.5994 34.651 62.9078 34.45 63.28C34.216 63.6754 34.1046 64.1313 34.13 64.59C34.1513 65.0221 34.2896 65.4403 34.53 65.8C34.7865 66.1732 35.1296 66.4786 35.53 66.69L36.43 67.2C36.8873 67.4809 37.4049 67.6489 37.94 67.69C38.3903 67.7211 38.8396 67.6166 39.23 67.39C39.6462 67.1515 39.9914 66.8063 40.23 66.39C40.3799 66.1168 40.491 65.824 40.56 65.52C40.6115 65.2389 40.6006 64.9498 40.5281 64.6733C40.4555 64.3968 40.323 64.1396 40.14 63.92L41.1 62.6C41.459 62.9521 41.7238 63.3888 41.87 63.87C42.0202 64.3759 42.0543 64.9091 41.97 65.43C41.8746 66.0267 41.6677 66.6 41.36 67.12Z" fill="#F5F5F5"/>
<path d="M48.28 57.15C47.9387 57.572 47.5085 57.9134 47.02 58.15C46.5743 58.359 46.0788 58.4387 45.59 58.38C45.0653 58.3038 44.5747 58.0742 44.18 57.72C43.8322 57.4448 43.5631 57.0826 43.4 56.67C43.2742 56.3105 43.2465 55.9238 43.32 55.55C43.3956 55.1535 43.5269 54.7697 43.71 54.41C43.9035 54.0237 44.1205 53.6496 44.36 53.29L45.09 52.18C45.2446 51.9704 45.3567 51.7326 45.42 51.48C45.4307 51.3886 45.4168 51.296 45.3799 51.2116C45.343 51.1273 45.2844 51.0543 45.21 51C45.0529 50.8448 44.8648 50.7246 44.6581 50.647C44.4513 50.5695 44.2305 50.5364 44.01 50.55C43.5438 50.6284 43.1272 50.887 42.85 51.27C42.503 51.6282 42.2879 52.0936 42.24 52.59C42.2099 52.9721 42.2824 53.3554 42.45 53.7L41.08 54.7C40.8006 54.2368 40.6424 53.7106 40.62 53.17C40.6072 52.6592 40.7026 52.1514 40.9 51.68C41.1072 51.1886 41.3907 50.733 41.74 50.33C41.9926 50.033 42.274 49.7617 42.58 49.52C42.9098 49.2659 43.2823 49.0729 43.68 48.95C44.1077 48.8158 44.5635 48.7985 45 48.9C45.5446 49.033 46.0468 49.3013 46.46 49.68L51 53.59L49.88 54.91L48.93 54.11C49.0362 54.3746 49.0971 54.6552 49.11 54.94C49.1423 55.2972 49.105 55.6571 49 56C48.8423 56.4291 48.5971 56.8207 48.28 57.15ZM47.45 55.94C47.7229 55.6063 47.9115 55.2119 48 54.79C48.1011 54.4269 48.1011 54.0431 48 53.68C47.8829 53.3462 47.6793 53.0495 47.41 52.82L46.51 52.06C46.511 52.1965 46.4765 52.3308 46.41 52.45C46.3292 52.6445 46.2322 52.8318 46.12 53.01L45.76 53.59L45.47 54.05C45.2902 54.3184 45.1425 54.6071 45.03 54.91C44.9253 55.1628 44.8908 55.4392 44.93 55.71C44.9977 56.0388 45.1918 56.3278 45.4705 56.5148C45.7492 56.7019 46.0902 56.772 46.42 56.71C46.8313 56.5596 47.1894 56.2919 47.45 55.94Z" fill="#F5F5F5"/>
<path d="M52.42 52.23L46.11 45.66L47.35 44.47L48.35 45.52L48.42 45.45C48.1983 45.0006 48.1383 44.4885 48.25 44C48.3611 43.5025 48.6189 43.0496 48.99 42.7L49.28 42.43L49.56 42.21L50.74 43.43L50.42 43.64C50.2733 43.752 50.1331 43.8722 50 44C49.7086 44.2745 49.4918 44.6186 49.37 45C49.2746 45.3469 49.2746 45.7131 49.37 46.06C49.4416 46.4392 49.6264 46.7879 49.9 47.06L53.75 51.06L52.42 52.23Z" fill="#F5F5F5"/>
<path d="M50.64 38.59L52 37.48L57.4 44.2C57.5503 44.421 57.7576 44.5973 58 44.71C58.1725 44.7644 58.3575 44.7644 58.53 44.71C58.7041 44.6477 58.8664 44.5564 59.01 44.44C59.1066 44.3641 59.1969 44.2805 59.28 44.19C59.35 44.1 59.41 44.04 59.44 43.99L60.61 44.93C60.5313 45.0612 60.441 45.185 60.34 45.3C60.1876 45.4837 60.0167 45.6512 59.83 45.8C59.4911 46.0912 59.0913 46.303 58.66 46.42C58.2459 46.5448 57.8041 46.5448 57.39 46.42C56.9314 46.2611 56.5309 45.9685 56.24 45.58L50.64 38.59ZM54.85 38L55.74 39.11L51.86 42.23L51 41.13L54.85 38Z" fill="#F5F5F5"/>
<path d="M63.6 34.75L62.42 35.87C62.2427 35.7308 62.0433 35.6227 61.83 35.55C61.5922 35.4687 61.3378 35.4481 61.09 35.49C60.777 35.5386 60.4794 35.6583 60.22 35.84C59.8369 36.0765 59.5365 36.4259 59.36 36.84C59.2722 36.992 59.226 37.1645 59.226 37.34C59.226 37.5155 59.2722 37.688 59.36 37.84C59.4316 37.96 59.5305 38.0615 59.6486 38.1362C59.7668 38.2109 59.9008 38.2567 60.04 38.27C60.4588 38.2751 60.8731 38.1826 61.25 38L62.65 37.49C63.295 37.2113 64.0039 37.1145 64.7 37.21C64.9873 37.2704 65.2588 37.3906 65.4965 37.5629C65.7343 37.7352 65.9331 37.9557 66.08 38.21C66.3708 38.6429 66.5113 39.1594 66.48 39.68C66.4413 40.2402 66.2512 40.7794 65.93 41.24C65.5565 41.7872 65.0728 42.2504 64.51 42.6C63.7941 43.1129 62.9404 43.3986 62.06 43.42C61.6815 43.417 61.3078 43.3344 60.9632 43.1776C60.6187 43.0209 60.3109 42.7934 60.06 42.51L61.35 41.35C61.6395 41.6495 62.0337 41.8251 62.45 41.84C62.9108 41.8324 63.358 41.6822 63.73 41.41C64.166 41.1699 64.5157 40.7992 64.73 40.35C64.803 40.1916 64.8366 40.018 64.8279 39.8438C64.8192 39.6697 64.7684 39.5003 64.68 39.35C64.6038 39.2392 64.5062 39.1449 64.3928 39.0728C64.2794 39.0006 64.1526 38.952 64.02 38.93C63.6786 38.9022 63.3356 38.957 63.02 39.09L61.54 39.65C60.8871 39.9387 60.1638 40.0292 59.46 39.91C59.175 39.8435 58.9062 39.7208 58.6692 39.549C58.4323 39.3773 58.2319 39.1601 58.08 38.91C57.7908 38.4913 57.65 37.9879 57.68 37.48C57.6861 36.9581 57.8311 36.4473 58.1 36C58.4548 35.4865 58.9108 35.0509 59.44 34.72C60.1013 34.2284 60.9061 33.9684 61.73 33.98C62.4251 34.0057 63.0883 34.2788 63.6 34.75Z" fill="#F5F5F5"/>
<path d="M76.15 36.43C75.4107 36.7622 74.5948 36.8867 73.79 36.79C73.0482 36.684 72.3532 36.3643 71.79 35.87C71.1575 35.2996 70.6648 34.5914 70.35 33.8C70.0055 33.02 69.8415 32.1723 69.87 31.32C69.908 30.5533 70.1658 29.8138 70.6126 29.1896C71.0595 28.5655 71.6765 28.0831 72.39 27.8C72.8601 27.6023 73.3608 27.4873 73.87 27.46C74.3805 27.4316 74.8914 27.51 75.37 27.69C75.8992 27.8975 76.3744 28.2224 76.76 28.64C77.2421 29.1726 77.6218 29.7896 77.88 30.46L78.13 31.03L71.46 33.85L70.94 32.62L76 30.49C75.8348 30.1034 75.5814 29.761 75.26 29.49C74.9542 29.233 74.5844 29.0636 74.19 29C73.7712 28.9428 73.3448 29.0052 72.96 29.18C72.5328 29.3415 72.1637 29.6271 71.9 30C71.662 30.3624 71.5177 30.7781 71.48 31.21C71.4493 31.6482 71.5248 32.0873 71.7 32.49L72.1 33.49C72.2965 33.9894 72.6043 34.4374 73 34.8C73.3444 35.0982 73.7685 35.2894 74.22 35.35C74.6913 35.3967 75.1666 35.321 75.6 35.13C75.8876 35.0096 76.1543 34.8442 76.39 34.64C76.5965 34.4479 76.7631 34.2168 76.88 33.96C76.9898 33.6941 77.041 33.4075 77.03 33.12L78.69 32.74C78.7577 33.239 78.7027 33.747 78.53 34.22C78.3416 34.708 78.0479 35.1484 77.67 35.51C77.2234 35.9064 76.7083 36.2181 76.15 36.43Z" fill="#F5F5F5"/>
<path d="M79.2599 22.21L82.9199 33.79L81.2299 34.32L77.5699 22.75L79.2599 22.21Z" fill="#F5F5F5"/>
<path d="M88.69 32.5C87.9009 32.6919 87.0744 32.6642 86.3 32.42C85.5891 32.181 84.9635 31.7396 84.5 31.15C84.0019 30.463 83.6553 29.6781 83.4829 28.8473C83.3105 28.0164 83.3163 27.1584 83.5 26.33C83.6692 25.5794 84.0551 24.8951 84.6097 24.3618C85.1644 23.8285 85.8633 23.4697 86.62 23.33C87.1158 23.2217 87.6263 23.198 88.13 23.26C88.642 23.3206 89.134 23.4948 89.57 23.77C90.0379 24.0887 90.4277 24.5092 90.71 25C91.086 25.6144 91.3469 26.2921 91.48 27L91.61 27.62L84.54 29.1L84.26 27.8L89.63 26.63C89.5451 26.2088 89.3599 25.8143 89.09 25.48C88.8299 25.163 88.482 24.9299 88.09 24.81C87.6848 24.6939 87.2551 24.6939 86.85 24.81C86.3976 24.8917 85.9818 25.1119 85.66 25.44C85.357 25.7506 85.137 26.1322 85.02 26.55C84.9149 26.977 84.9149 27.423 85.02 27.85L85.24 28.85C85.3349 29.3792 85.5581 29.877 85.89 30.3C86.181 30.6399 86.5679 30.8839 87 31C87.3775 31.1041 87.7722 31.1312 88.1605 31.0797C88.5487 31.0281 88.9226 30.899 89.26 30.7C89.5011 30.555 89.709 30.3608 89.87 30.13C90.031 29.8904 90.1338 29.6164 90.17 29.33L91.87 29.27C91.85 29.7691 91.7019 30.2547 91.44 30.68C91.1688 31.1298 90.7997 31.5127 90.36 31.8C89.8505 32.133 89.2846 32.3703 88.69 32.5Z" fill="#F5F5F5"/>
<path d="M100.59 21.57L98.12 30.93L96.24 31.11L92.12 22.34L94 22.17L96.93 28.94H97L98.65 21.75L100.59 21.57Z" fill="#F5F5F5"/>
<path d="M105 30.93C104.463 30.9201 103.934 30.7938 103.45 30.56C103.001 30.3372 102.627 29.99 102.37 29.56C102.101 29.1008 101.975 28.5713 102.01 28.04C101.999 27.5973 102.113 27.1605 102.34 26.78C102.54 26.4554 102.823 26.1897 103.16 26.01C103.52 25.8229 103.903 25.685 104.3 25.6C104.723 25.5142 105.15 25.454 105.58 25.42L106.91 25.3C107.17 25.2882 107.425 25.2236 107.66 25.11C107.736 25.0627 107.798 24.9961 107.84 24.9171C107.882 24.8382 107.903 24.7495 107.9 24.66C107.921 24.44 107.897 24.2181 107.828 24.0081C107.759 23.7981 107.647 23.6047 107.5 23.44C107.328 23.2822 107.126 23.1603 106.906 23.0813C106.686 23.0024 106.453 22.9679 106.22 22.98C105.721 22.9361 105.221 23.0592 104.8 23.33C104.479 23.5407 104.226 23.8392 104.07 24.19L102.41 23.76C102.596 23.2495 102.909 22.7951 103.32 22.44C103.71 22.1093 104.167 21.8671 104.66 21.73C105.171 21.5907 105.7 21.5267 106.23 21.54C106.621 21.5566 107.009 21.6102 107.39 21.7C107.795 21.8018 108.181 21.9708 108.53 22.2C108.892 22.4574 109.184 22.8011 109.38 23.2C109.607 23.712 109.71 24.2706 109.68 24.83L109.5 30.83L107.77 30.78V29.54H107.7C107.554 29.7858 107.372 30.0083 107.16 30.2C106.898 30.4321 106.592 30.609 106.26 30.72C105.857 30.869 105.429 30.9402 105 30.93ZM105.43 29.52C105.868 29.539 106.304 29.4497 106.7 29.26C107.037 29.0952 107.322 28.8387 107.52 28.52C107.707 28.2191 107.81 27.874 107.82 27.52V26.35C107.709 26.4279 107.583 26.4823 107.45 26.51C107.246 26.5643 107.039 26.6044 106.83 26.63L106.16 26.71L105.61 26.77C105.291 26.7984 104.975 26.8621 104.67 26.96C104.407 27.0415 104.169 27.1896 103.98 27.39C103.792 27.5938 103.692 27.863 103.7 28.14C103.686 28.332 103.721 28.5243 103.801 28.6992C103.882 28.8741 104.005 29.0257 104.16 29.14C104.523 29.3859 104.951 29.5182 105.39 29.52H105.43Z" fill="#F5F5F5"/>
<path d="M116.79 22.62L116.6 24L111.67 23.35L111.86 21.94L116.79 22.62ZM113.47 20L115.22 20.24L114.1 28.77C114.045 29.033 114.062 29.306 114.15 29.56C114.212 29.7326 114.337 29.8754 114.5 29.96C114.662 30.0459 114.838 30.1002 115.02 30.12C115.143 30.1342 115.267 30.1342 115.39 30.12H115.65L115.77 31.61C115.622 31.6453 115.472 31.6654 115.32 31.67C115.084 31.6939 114.846 31.6939 114.61 31.67C114.164 31.6279 113.733 31.4843 113.35 31.25C112.974 31.034 112.671 30.71 112.48 30.32C112.275 29.8837 112.209 29.3951 112.29 28.92L113.47 20Z" fill="#F5F5F5"/>
<path d="M120.76 32.93C119.97 32.7598 119.242 32.3797 118.65 31.83C118.108 31.304 117.736 30.6286 117.58 29.89C117.401 29.057 117.422 28.1936 117.64 27.37C117.822 26.5358 118.195 25.7553 118.73 25.09C119.202 24.505 119.829 24.0649 120.54 23.82C121.284 23.5753 122.083 23.551 122.84 23.75C123.334 23.8684 123.805 24.0714 124.23 24.35C124.665 24.6256 125.034 24.9945 125.31 25.43C125.607 25.91 125.795 26.4494 125.86 27.01C125.931 27.7244 125.874 28.4459 125.69 29.14L125.54 29.75L118.54 28.06L118.85 26.77L124.2 28.05C124.305 27.6331 124.305 27.1969 124.2 26.78C124.096 26.4022 123.896 26.0577 123.62 25.78C123.319 25.487 122.941 25.2858 122.53 25.2C122.085 25.0799 121.615 25.0973 121.18 25.25C120.79 25.3997 120.446 25.6477 120.18 25.97C119.892 26.3032 119.69 26.7013 119.59 27.13L119.35 28.13C119.227 28.6528 119.227 29.1972 119.35 29.72C119.45 30.1612 119.676 30.564 120 30.88C120.352 31.1956 120.779 31.416 121.24 31.52C121.544 31.5965 121.858 31.6202 122.17 31.59C122.455 31.5632 122.731 31.4729 122.976 31.3258C123.222 31.1788 123.432 30.9786 123.59 30.74L125.15 31.43C124.91 31.8692 124.567 32.2433 124.15 32.52C123.706 32.8069 123.204 32.9913 122.68 33.06C122.037 33.1384 121.386 33.0943 120.76 32.93Z" fill="#F5F5F5"/>
<path d="M129.09 35.49C128.436 35.2474 127.868 34.8158 127.46 34.25C127.047 33.6618 126.811 32.9678 126.78 32.25C126.745 31.3831 126.902 30.5193 127.24 29.72C127.53 28.9009 127.998 28.1563 128.61 27.54C129.118 27.0357 129.76 26.6885 130.46 26.54C131.13 26.4068 131.824 26.4693 132.46 26.72C132.907 26.8729 133.309 27.134 133.63 27.48C133.865 27.7397 134.042 28.0465 134.15 28.38C134.23 28.635 134.29 28.8958 134.33 29.16H134.43L136.09 25L137.74 25.64L133.36 37L131.74 36.38L132.26 35.06L132.12 35C131.91 35.1685 131.685 35.319 131.45 35.45C131.141 35.6216 130.801 35.7303 130.45 35.77C129.981 35.7843 129.515 35.6884 129.09 35.49ZM130 34.22C130.428 34.3974 130.902 34.429 131.35 34.31C131.8 34.1697 132.202 33.9064 132.51 33.55C132.886 33.1163 133.181 32.6184 133.38 32.08C133.595 31.556 133.71 30.9964 133.72 30.43C133.734 29.9667 133.616 29.509 133.38 29.11C133.107 28.7268 132.727 28.433 132.287 28.2657C131.848 28.0984 131.368 28.0651 130.91 28.17C130.459 28.3141 130.058 28.5807 129.75 28.94C129.388 29.3543 129.106 29.8324 128.92 30.35C128.707 30.8677 128.592 31.4204 128.58 31.98C128.559 32.4599 128.677 32.9357 128.92 33.35C129.169 33.7556 129.551 34.0628 130 34.22Z" fill="#F5F5F5"/>
<path d="M145.18 30.44L146.71 31.35L142.3 38.75C142.152 38.9707 142.063 39.2253 142.04 39.49C142.036 39.6745 142.096 39.8547 142.21 40C142.326 40.1393 142.464 40.2577 142.62 40.35C142.728 40.4166 142.842 40.4735 142.96 40.52L143.19 40.6L142.72 42L142.28 41.88C142.059 41.7935 141.845 41.6899 141.64 41.57C141.248 41.3511 140.907 41.0511 140.64 40.69C140.385 40.3429 140.236 39.9297 140.21 39.5C140.193 39.0151 140.325 38.5368 140.59 38.13L145.18 30.44ZM147.18 34.18L146.45 35.4L142.18 32.86L142.9 31.63L147.18 34.18Z" fill="#F5F5F5"/>
<path d="M146.74 45.18C146.1 44.7255 145.604 44.0974 145.31 43.37C145.029 42.6722 144.956 41.9082 145.1 41.17C145.29 40.3294 145.655 39.5384 146.172 38.849C146.689 38.1597 147.346 37.5874 148.1 37.17C148.767 36.8196 149.52 36.6703 150.27 36.74C151.054 36.8163 151.8 37.1146 152.42 37.6C153.057 38.0593 153.556 38.6856 153.86 39.41C154.134 40.113 154.203 40.8792 154.06 41.62C153.896 42.4847 153.533 43.2995 153 44C152.503 44.6918 151.852 45.2598 151.1 45.66C150.43 46.0009 149.679 46.1497 148.93 46.09C148.128 46.0011 147.369 45.6854 146.74 45.18ZM147.64 43.99C148.024 44.3019 148.506 44.4683 149 44.46C149.484 44.4451 149.954 44.2886 150.35 44.01C150.804 43.7055 151.2 43.3229 151.52 42.88C151.855 42.4492 152.109 41.9613 152.27 41.44C152.419 40.9775 152.44 40.4833 152.33 40.01C152.18 39.5387 151.886 39.1263 151.49 38.8304C151.093 38.5345 150.615 38.37 150.12 38.36C149.633 38.3847 149.162 38.5439 148.76 38.82C148.309 39.1236 147.913 39.5024 147.59 39.94C147.257 40.3755 147.003 40.8663 146.84 41.39C146.694 41.8499 146.677 42.3409 146.79 42.81C146.925 43.2941 147.226 43.7154 147.64 44V43.99Z" fill="#F5F5F5"/>
<path d="M156 53.48C155.634 53.0856 155.355 52.6189 155.18 52.11C155.021 51.6424 155 51.139 155.12 50.66C155.263 50.1438 155.556 49.6813 155.96 49.33C156.27 49.016 156.661 48.7944 157.09 48.69C157.462 48.6096 157.849 48.6303 158.21 48.75C158.598 48.8711 158.965 49.0498 159.3 49.28C159.651 49.5167 159.985 49.7773 160.3 50.06L161.3 50.93C161.489 51.1038 161.71 51.2396 161.95 51.33C162.038 51.3535 162.131 51.353 162.219 51.3284C162.307 51.3037 162.387 51.2559 162.45 51.19C162.622 51.051 162.763 50.8779 162.864 50.6817C162.966 50.4855 163.026 50.2704 163.04 50.05C163.02 49.5778 162.815 49.1325 162.47 48.81C162.154 48.4226 161.717 48.1517 161.23 48.04C160.856 47.9679 160.47 47.9955 160.11 48.12L159.26 46.63C159.752 46.4078 160.292 46.3149 160.83 46.36C161.341 46.4125 161.835 46.5727 162.28 46.83C162.738 47.0991 163.153 47.4363 163.51 47.83C163.774 48.1193 164.009 48.4341 164.21 48.77C164.422 49.1277 164.568 49.5206 164.64 49.93C164.717 50.3655 164.679 50.8136 164.53 51.23C164.318 51.758 163.973 52.2228 163.53 52.58L159.09 56.68L157.91 55.41L158.83 54.57V54.51C158.554 54.5894 158.266 54.6166 157.98 54.59C157.633 54.5611 157.294 54.4697 156.98 54.32C156.606 54.0999 156.275 53.8155 156 53.48ZM157.31 52.79C157.597 53.1227 157.966 53.3744 158.38 53.52C158.733 53.6451 159.113 53.6728 159.48 53.6C159.83 53.5268 160.152 53.3571 160.41 53.11L161.27 52.32C161.138 52.2934 161.013 52.2425 160.9 52.17C160.721 52.0589 160.547 51.9388 160.38 51.81L159.85 51.39L159.43 51.03C159.183 50.8229 158.915 50.642 158.63 50.49C158.391 50.3592 158.122 50.2937 157.85 50.3C157.712 50.3017 157.576 50.3319 157.451 50.3887C157.325 50.4455 157.212 50.5276 157.12 50.63C156.972 50.7477 156.858 50.9018 156.788 51.0771C156.718 51.2524 156.694 51.4429 156.72 51.63C156.793 52.0768 157.015 52.4857 157.35 52.79H157.31Z" fill="#F5F5F5"/>
<path d="M172.37 63.5L171.27 62.29C171.411 62.118 171.52 61.9214 171.59 61.71C171.675 61.4731 171.699 61.2186 171.66 60.97C171.617 60.6572 171.5 60.3591 171.32 60.1C171.081 59.714 170.733 59.4078 170.32 59.22C170.168 59.1322 169.995 59.086 169.82 59.086C169.644 59.086 169.472 59.1322 169.32 59.22C169.201 59.2928 169.1 59.392 169.026 59.5099C168.951 59.6278 168.905 59.7613 168.89 59.9C168.869 60.3 168.937 60.6997 169.09 61.07L169.58 62.47C169.854 63.1199 169.944 63.8325 169.84 64.53C169.776 64.8135 169.655 65.0808 169.483 65.3149C169.31 65.549 169.092 65.7448 168.84 65.89C168.402 66.1766 167.882 66.3102 167.36 66.27C166.805 66.2273 166.273 66.0336 165.82 65.71C165.273 65.3271 164.813 64.833 164.47 64.26C163.965 63.542 163.689 62.6878 163.68 61.81C163.687 61.4302 163.773 61.056 163.933 60.7115C164.093 60.367 164.324 60.0599 164.61 59.81L165.75 61.11C165.45 61.3995 165.275 61.7937 165.26 62.21C165.259 62.6691 165.402 63.1168 165.67 63.49C165.896 63.9155 166.244 64.2637 166.67 64.49C166.825 64.5698 166.996 64.6114 167.17 64.6114C167.344 64.6114 167.515 64.5698 167.67 64.49C167.784 64.4158 167.883 64.319 167.958 64.2055C168.034 64.092 168.085 63.9642 168.11 63.83C168.15 63.4729 168.099 63.1115 167.96 62.78L167.41 61.3C167.134 60.6399 167.054 59.9143 167.18 59.21C167.334 58.6846 167.661 58.2263 168.107 57.9089C168.553 57.5914 169.093 57.4333 169.64 57.46C170.168 57.5103 170.675 57.6963 171.11 58C171.617 58.3596 172.046 58.8189 172.37 59.35C172.851 60.0192 173.104 60.8258 173.09 61.65C173.062 62.3295 172.809 62.9805 172.37 63.5Z" fill="#F5F5F5"/>
<path d="M168.88 72.22C168.516 71.4998 168.354 70.6948 168.41 69.89C168.485 69.1565 168.774 68.4612 169.24 67.89C169.778 67.228 170.463 66.7007 171.24 66.35C172 65.9674 172.839 65.7655 173.69 65.76C174.446 65.7627 175.186 65.9738 175.83 66.37C176.483 66.795 177.001 67.399 177.32 68.11C177.54 68.5695 177.678 69.0634 177.73 69.57C177.787 70.0823 177.732 70.6008 177.57 71.09C177.386 71.6281 177.081 72.1172 176.68 72.52C176.172 73.0247 175.575 73.4315 174.92 73.72L174.36 73.99L171.24 67.46L172.44 66.89L174.81 71.89C175.203 71.7119 175.546 71.4408 175.81 71.1C176.049 70.7822 176.198 70.4055 176.24 70.01C176.293 69.5591 176.21 69.1027 176 68.7C175.809 68.2891 175.503 67.9419 175.12 67.7C174.748 67.4741 174.325 67.3468 173.89 67.33C173.45 67.3185 173.014 67.4146 172.62 67.61L171.68 68.05C171.189 68.2828 170.758 68.6249 170.42 69.05C170.136 69.4047 169.965 69.8368 169.93 70.29C169.898 70.7635 169.995 71.2368 170.21 71.66C170.344 71.9435 170.523 72.2035 170.74 72.43C170.938 72.631 171.177 72.7878 171.44 72.89C171.713 72.9836 172.002 73.021 172.29 73L172.73 74.64C172.24 74.7326 171.735 74.7017 171.26 74.55C170.757 74.3856 170.299 74.1086 169.92 73.74C169.479 73.3046 169.126 72.7886 168.88 72.22Z" fill="#F5F5F5"/>
<path d="M182.06 74L182.65 75.67L174.52 78.53C174.267 78.6048 174.036 78.7424 173.85 78.93C173.726 79.0677 173.655 79.2449 173.65 79.43C173.651 79.6104 173.682 79.7893 173.74 79.96C173.783 80.0797 173.833 80.1966 173.89 80.31C173.938 80.3805 173.981 80.454 174.02 80.53L172.75 81.32C172.651 81.2019 172.564 81.0746 172.49 80.94C172.361 80.7366 172.257 80.5184 172.18 80.29C172.03 79.8775 171.969 79.4379 172 79C172.026 78.5703 172.175 78.1571 172.43 77.81C172.729 77.4275 173.137 77.145 173.6 77L182.06 74ZM181.21 78.16L179.87 78.63L178.22 73.94L179.56 73.46L181.21 78.16Z" fill="#F5F5F5"/>
<path d="M174.66 90.43C174.505 89.66 174.574 88.8617 174.86 88.13C175.134 87.4297 175.606 86.8248 176.22 86.39C176.909 85.8744 177.711 85.5314 178.56 85.39C179.399 85.2243 180.266 85.2585 181.09 85.49C181.833 85.6998 182.497 86.1242 183 86.71C183.495 87.3178 183.826 88.0424 183.961 88.8145C184.095 89.5867 184.03 90.3805 183.77 91.12C183.484 91.816 183.009 92.4186 182.4 92.86C181.692 93.3332 180.893 93.6532 180.055 93.7996C179.216 93.9459 178.356 93.9154 177.53 93.71C176.805 93.5019 176.153 93.0928 175.65 92.53C175.131 91.9355 174.789 91.2083 174.66 90.43ZM176.13 90.18C176.195 90.6725 176.432 91.126 176.8 91.46C177.165 91.777 177.612 91.9849 178.09 92.06C178.626 92.1548 179.174 92.1548 179.71 92.06C180.251 91.973 180.773 91.7902 181.25 91.52C181.668 91.2842 182.014 90.9384 182.25 90.52C182.466 90.0737 182.536 89.5707 182.449 89.0825C182.363 88.5942 182.126 88.1455 181.77 87.8C181.405 87.4831 180.958 87.2752 180.48 87.2C179.941 87.1051 179.389 87.1051 178.85 87.2C178.309 87.287 177.787 87.4699 177.31 87.74C176.891 87.9754 176.545 88.3213 176.31 88.74C176.085 89.1846 176.021 89.6937 176.13 90.18Z" fill="#F5F5F5"/>
<path d="M175.67 96.7L185.81 96C186.306 95.9454 186.807 96.0394 187.25 96.27C187.634 96.4899 187.949 96.8118 188.16 97.2C188.38 97.6069 188.507 98.0579 188.53 98.52C188.561 98.8259 188.561 99.1341 188.53 99.44C188.505 99.6328 188.465 99.8233 188.41 100.01L186.95 99.69C186.95 99.61 186.95 99.5 187.01 99.37C187.031 99.2107 187.031 99.0493 187.01 98.89C187.017 98.7213 186.986 98.5532 186.92 98.3976C186.855 98.2421 186.756 98.1029 186.63 97.99C186.353 97.8068 186.019 97.732 185.69 97.78L175.79 98.44L175.67 96.7ZM185 99.82L183.58 99.92L183.24 94.78L184.66 94.69L185 99.82Z" fill="#F5F5F5"/>
<path d="M175.92 106.54H188.06V108.31H183.55V108.42C183.779 108.547 183.997 108.694 184.2 108.86C184.47 109.085 184.694 109.36 184.86 109.67C185.066 110.093 185.162 110.56 185.14 111.03C185.162 111.738 184.966 112.436 184.58 113.03C184.189 113.628 183.633 114.1 182.98 114.39C182.184 114.742 181.32 114.913 180.45 114.89C179.581 114.909 178.719 114.742 177.92 114.4C177.264 114.11 176.705 113.638 176.31 113.04C175.918 112.448 175.719 111.749 175.74 111.04C175.72 110.574 175.816 110.11 176.02 109.69C176.173 109.372 176.395 109.092 176.67 108.87C176.878 108.701 177.099 108.547 177.33 108.41V108.26H175.92V106.54ZM180.47 108.28C179.897 108.267 179.327 108.362 178.79 108.56C178.344 108.712 177.952 108.99 177.66 109.36C177.381 109.735 177.237 110.193 177.25 110.66C177.231 111.137 177.384 111.605 177.68 111.98C177.978 112.354 178.377 112.635 178.83 112.79C179.354 112.986 179.911 113.081 180.47 113.07C181.022 113.078 181.571 112.987 182.09 112.8C182.536 112.642 182.927 112.361 183.22 111.99C183.508 111.608 183.656 111.138 183.64 110.66C183.652 110.192 183.511 109.732 183.24 109.35C182.952 108.985 182.567 108.708 182.13 108.55C181.598 108.36 181.035 108.269 180.47 108.28Z" fill="#F5F5F5"/>
<path d="M175.73 120.77C175.711 119.962 175.911 119.163 176.31 118.46C176.696 117.812 177.262 117.291 177.94 116.96C178.712 116.597 179.557 116.419 180.41 116.44C181.262 116.421 182.108 116.599 182.88 116.96C183.576 117.287 184.16 117.811 184.562 118.467C184.963 119.123 185.164 119.881 185.14 120.65C185.142 121.157 185.058 121.661 184.89 122.14C184.717 122.625 184.445 123.068 184.09 123.44C183.69 123.844 183.205 124.155 182.67 124.35C181.992 124.585 181.277 124.697 180.56 124.68H179.94V117.44H181.26V122.94C181.693 122.949 182.122 122.853 182.51 122.66C182.861 122.476 183.155 122.199 183.36 121.86C183.578 121.478 183.688 121.043 183.68 120.603C183.671 120.163 183.543 119.733 183.31 119.36C183.077 118.995 182.749 118.701 182.36 118.51C181.972 118.305 181.539 118.202 181.1 118.21H180.1C179.565 118.19 179.033 118.3 178.55 118.53C178.135 118.724 177.787 119.037 177.55 119.43C177.323 119.847 177.209 120.316 177.22 120.79C177.219 121.102 177.266 121.412 177.36 121.71C177.457 121.977 177.607 122.222 177.8 122.43C178.002 122.636 178.248 122.793 178.52 122.89L178.21 124.57C177.729 124.435 177.287 124.189 176.92 123.85C176.539 123.487 176.245 123.043 176.06 122.55C175.841 121.982 175.729 121.379 175.73 120.77Z" fill="#F5F5F5"/>
<path d="M188.06 128.43H175.92V126.66H188.06V128.43Z" fill="#F5F5F5"/>
<path d="M175.92 130.83H185V132.6H175.9L175.92 130.83ZM186.43 131.72C186.426 131.574 186.452 131.429 186.505 131.294C186.558 131.158 186.638 131.034 186.74 130.93C186.834 130.825 186.949 130.741 187.077 130.684C187.205 130.627 187.344 130.597 187.485 130.597C187.626 130.597 187.765 130.627 187.893 130.684C188.021 130.741 188.136 130.825 188.23 130.93C188.43 131.145 188.541 131.427 188.541 131.72C188.541 132.013 188.43 132.295 188.23 132.51C188.137 132.614 188.022 132.696 187.895 132.753C187.767 132.81 187.63 132.84 187.49 132.84C187.349 132.841 187.209 132.812 187.08 132.755C186.95 132.698 186.835 132.615 186.74 132.51C186.638 132.406 186.558 132.282 186.505 132.146C186.452 132.011 186.426 131.866 186.43 131.72Z" fill="#F5F5F5"/>
<path d="M175.73 138.9C175.711 138.092 175.911 137.293 176.31 136.59C176.696 135.942 177.262 135.421 177.94 135.09C178.712 134.727 179.557 134.549 180.41 134.57C181.262 134.551 182.108 134.729 182.88 135.09C183.576 135.417 184.16 135.941 184.562 136.597C184.963 137.253 185.164 138.011 185.14 138.78C185.142 139.287 185.058 139.791 184.89 140.27C184.717 140.755 184.445 141.198 184.09 141.57C183.69 141.974 183.205 142.285 182.67 142.48C181.992 142.715 181.277 142.827 180.56 142.81H179.94V135.57H181.26V141.07C181.693 141.079 182.122 140.983 182.51 140.79C182.861 140.606 183.155 140.329 183.36 139.99C183.578 139.608 183.688 139.173 183.68 138.733C183.671 138.293 183.543 137.863 183.31 137.49C183.077 137.125 182.749 136.831 182.36 136.64C181.972 136.435 181.539 136.332 181.1 136.34H180.1C179.565 136.32 179.033 136.43 178.55 136.66C178.135 136.854 177.787 137.167 177.55 137.56C177.323 137.977 177.209 138.446 177.22 138.92C177.219 139.232 177.266 139.542 177.36 139.84C177.457 140.107 177.607 140.352 177.8 140.56C178.002 140.766 178.248 140.923 178.52 141.02L178.21 142.7C177.729 142.565 177.287 142.319 176.92 141.98C176.539 141.617 176.245 141.173 176.06 140.68C175.841 140.112 175.729 139.509 175.73 138.9Z" fill="#F5F5F5"/>
<path d="M175.92 145.39H186.08C186.58 145.37 187.074 145.499 187.5 145.76C187.873 146.005 188.168 146.352 188.35 146.76C188.536 147.182 188.631 147.639 188.63 148.1C188.635 148.409 188.605 148.718 188.54 149.02C188.5 149.21 188.446 149.397 188.38 149.58L186.95 149.16C186.95 149.08 187 148.97 187.04 148.84C187.075 148.686 187.092 148.528 187.09 148.37C187.107 148.203 187.087 148.034 187.031 147.875C186.976 147.716 186.887 147.571 186.77 147.45C186.504 147.247 186.174 147.148 185.84 147.17H175.92V145.39ZM185.02 149.12H183.6V144H185L185.02 149.12Z" fill="#F5F5F5"/>
<path d="M182.8 157.4L182.52 155.8C182.729 155.725 182.925 155.617 183.1 155.48C183.297 155.326 183.455 155.127 183.56 154.9C183.688 154.61 183.749 154.296 183.74 153.98C183.754 153.536 183.635 153.097 183.4 152.72C183.313 152.569 183.187 152.443 183.037 152.355C182.886 152.268 182.714 152.221 182.54 152.22C182.4 152.215 182.26 152.242 182.132 152.299C182.003 152.356 181.89 152.442 181.8 152.55C181.575 152.881 181.422 153.256 181.35 153.65L181.02 155.09C180.891 155.785 180.581 156.434 180.12 156.97C179.915 157.175 179.669 157.334 179.399 157.439C179.129 157.544 178.84 157.592 178.55 157.58C178.025 157.586 177.513 157.421 177.09 157.11C176.645 156.772 176.299 156.319 176.09 155.8C175.831 155.187 175.705 154.525 175.72 153.86C175.682 152.979 175.912 152.107 176.38 151.36C176.591 151.044 176.865 150.777 177.185 150.573C177.505 150.37 177.865 150.236 178.24 150.18L178.5 151.89C178.097 151.98 177.741 152.215 177.5 152.55C177.26 152.94 177.141 153.392 177.16 153.85C177.134 154.341 177.263 154.827 177.53 155.24C177.621 155.396 177.751 155.526 177.907 155.617C178.063 155.708 178.239 155.757 178.42 155.76C178.556 155.763 178.691 155.735 178.816 155.68C178.94 155.625 179.051 155.543 179.14 155.44C179.373 155.153 179.522 154.807 179.57 154.44L179.91 152.9C180.032 152.197 180.355 151.544 180.84 151.02C181.271 150.613 181.847 150.393 182.44 150.41C182.95 150.401 183.449 150.559 183.86 150.86C184.278 151.186 184.603 151.618 184.8 152.11C185.037 152.687 185.153 153.306 185.14 153.93C185.188 154.753 184.963 155.568 184.5 156.25C184.09 156.825 183.486 157.233 182.8 157.4Z" fill="#F5F5F5"/>
<path d="M175.8 160.76C175.799 160.605 175.829 160.452 175.889 160.309C175.95 160.166 176.038 160.037 176.15 159.93C176.259 159.819 176.389 159.731 176.532 159.671C176.676 159.611 176.829 159.58 176.985 159.58C177.14 159.58 177.294 159.611 177.438 159.671C177.581 159.731 177.711 159.819 177.82 159.93C177.932 160.037 178.02 160.166 178.08 160.309C178.141 160.452 178.171 160.605 178.17 160.76C178.171 160.916 178.141 161.071 178.081 161.216C178.021 161.36 177.932 161.491 177.82 161.6C177.638 161.789 177.397 161.909 177.137 161.942C176.877 161.975 176.613 161.917 176.39 161.78C176.212 161.677 176.063 161.528 175.96 161.35C175.855 161.171 175.8 160.967 175.8 160.76Z" fill="#F5F5F5"/>
</g>
<defs>
<clipPath id="clip0_0_1031">
<rect width="207.57" height="223.78" fill="white"/>
</clipPath>
</defs>
</svg>
