<svg width="252" height="148" viewBox="0 0 252 148" fill="none" xmlns="http://www.w3.org/2000/svg">
<g clip-path="url(#clip0_0_1263)">
<path d="M125.62 147.98C194.998 147.98 251.24 114.854 251.24 73.99C251.24 33.1264 194.998 0 125.62 0C56.242 0 0 33.1264 0 73.99C0 114.854 56.242 147.98 125.62 147.98Z" fill="#EA5A27"/>
<path d="M125.62 138.49C93.74 138.49 63.9 131.26 41.62 118.13C20.91 105.93 9.5 90.26 9.5 74C9.5 57.74 20.91 42.06 41.62 29.86C63.9 16.73 93.74 9.5 125.62 9.5C157.5 9.5 187.34 16.73 209.62 29.86C230.33 42.06 241.74 57.73 241.74 73.99C241.74 90.25 230.33 105.93 209.62 118.13C187.34 131.26 157.51 138.49 125.62 138.49ZM125.62 10.49C93.91 10.49 64.26 17.67 42.12 30.71C21.73 42.73 10.5 58.1 10.5 74C10.5 89.9 21.73 105.27 42.12 117.28C64.26 130.28 93.91 137.5 125.62 137.5C157.33 137.5 186.99 130.32 209.12 117.28C229.52 105.28 240.75 89.9 240.75 74C240.75 58.1 229.52 42.74 209.12 30.73C187 17.68 157.33 10.5 125.62 10.5V10.49Z" fill="#F2910D"/>
<path d="M125.62 138.49C110.51 138.49 96.39 131.22 85.84 118.01C76.0672 105.425 70.7624 89.9441 70.7624 74.01C70.7624 58.0759 76.0672 42.5952 85.84 30.01C96.39 16.77 110.51 9.5 125.62 9.5C140.73 9.5 154.86 16.77 165.4 30C175.179 42.5824 180.488 58.0641 180.488 74C180.488 89.9359 175.179 105.418 165.4 118C154.86 131.22 140.73 138.49 125.62 138.49ZM125.62 10.49C110.82 10.49 96.97 17.63 86.62 30.59C76.9761 42.9998 71.7408 58.2685 71.7408 73.985C71.7408 89.7015 76.9761 104.97 86.62 117.38C96.96 130.38 110.81 137.48 125.62 137.48C140.43 137.48 154.27 130.34 164.62 117.38C174.264 104.97 179.499 89.7015 179.499 73.985C179.499 58.2685 174.264 42.9998 164.62 30.59C154.27 17.64 140.42 10.5 125.62 10.5V10.49Z" fill="#F2910D"/>
<path d="M241.25 73.49H10V74.49H241.25V73.49Z" fill="#F2910D"/>
<path d="M125.62 52.46C93.73 52.46 63.9 45.23 41.62 32.1L40.62 31.49L39.76 31L40.46 30.57L41.62 29.88C63.91 16.73 93.75 9.5 125.62 9.5C157.49 9.5 187.33 16.73 209.62 29.86L210.77 30.55L211.48 30.98L210.63 31.49L209.63 32.1C187.35 45.23 157.52 52.46 125.62 52.46ZM41.69 31L42.13 31.26C64.25 44.26 93.9 51.48 125.62 51.48C157.34 51.48 186.99 44.3 209.12 31.26L209.55 31C209.41 30.91 209.27 30.82 209.12 30.74C186.98 17.74 157.33 10.52 125.62 10.52C93.91 10.52 64.27 17.68 42.13 30.72L41.69 31Z" fill="#F2910D"/>
<path d="M125.62 138.49C93.75 138.49 63.91 131.26 41.62 118.13L40.46 117.44L39.76 117.01L40.6 116.5L41.6 115.89C63.88 102.76 93.71 95.53 125.6 95.53C157.49 95.53 187.33 102.76 209.6 115.89L210.6 116.49L211.45 117.01L210.74 117.44L209.59 118.13C187.33 131.26 157.5 138.49 125.62 138.49ZM41.69 117L42.13 117.26C64.27 130.26 93.92 137.48 125.62 137.48C157.32 137.48 186.98 130.3 209.12 117.26L209.55 117C209.41 116.91 209.27 116.82 209.12 116.74C186.99 103.74 157.34 96.52 125.62 96.52C93.9 96.52 64.25 103.7 42.13 116.74L41.69 117Z" fill="#F2910D"/>
<path d="M126.12 10H125.12V137.99H126.12V10Z" fill="#F2910D"/>
<path d="M78.32 53.92C81.97 55.83 84.18 58.54 83.65 61.92C83.1994 64.0507 82.2956 66.0595 81 67.81C78.8843 70.9731 76.545 73.9808 74 76.81C71.9663 79.1579 69.4163 81.0028 66.55 82.2C62.8808 83.4952 58.9975 84.0757 55.11 83.91H41.66C41.1017 83.9392 40.5458 83.8184 40.05 83.56C39.8751 83.4768 39.7282 83.3447 39.627 83.1796C39.5258 83.0145 39.4748 82.8236 39.48 82.63C39.4852 82.4054 39.5362 82.1842 39.63 81.98C39.701 81.7234 39.8516 81.4958 40.06 81.33C40.24 81.19 40.52 81.01 40.89 80.76C41.3711 80.4984 41.8067 80.1607 42.18 79.76C42.5977 79.2385 42.9102 78.6407 43.1 78C45.29 70.74 48.94 63.72 50.52 56.78C50.6035 56.3776 50.6035 55.9624 50.52 55.56C50.4714 55.2378 50.3519 54.9304 50.17 54.66C49.99 54.42 49.76 54.13 49.48 53.8C49.159 53.5332 48.9113 53.189 48.76 52.8C48.7449 52.6203 48.7449 52.4397 48.76 52.26C48.7645 52.062 48.8278 51.8698 48.9418 51.7078C49.0557 51.5458 49.2152 51.4213 49.4 51.35C50.0432 51.1327 50.7222 51.0411 51.4 51.08H65C69.6019 50.962 74.1664 51.9352 78.32 53.92ZM70.85 59.92C70.8716 59.2489 70.73 58.5825 70.4374 57.9781C70.1448 57.3737 69.7099 56.8493 69.17 56.45C68.0866 55.7625 66.8226 55.4143 65.54 55.45H64.37C64.24 63.23 58 70.63 55.22 79.15H56.4C57.7817 79.1373 59.1324 78.739 60.3 78C61.6885 76.9861 62.8783 75.725 63.81 74.28C65.07 72.5 66.73 69.98 68.55 66.8C70.2 63.86 70.92 61.58 70.85 59.88V59.92Z" fill="white"/>
<path d="M103.69 51.48C105.863 52.0365 107.976 52.8035 110 53.77C110.19 53.44 110.36 53.11 110.52 52.77C110.732 52.247 111.041 51.7687 111.43 51.36C111.849 51.072 112.354 50.9378 112.86 50.98C113.673 50.9843 114.473 51.1868 115.19 51.57C115.941 51.9371 116.57 52.5136 117 53.23C117.155 53.5097 117.26 53.8143 117.31 54.13C117.703 56.4541 117.29 58.8427 116.14 60.9C115.87 61.5108 115.454 62.0463 114.93 62.46C114.458 62.7733 113.896 62.9243 113.33 62.89C113.034 62.8999 112.74 62.847 112.466 62.735C112.191 62.623 111.944 62.4543 111.74 62.24C111.34 61.82 110.8 60.96 109.74 59.62C108.846 58.5005 107.742 57.5663 106.49 56.87C105.547 56.3522 104.495 56.0643 103.42 56.03C103.119 56.0038 102.815 56.0531 102.538 56.1736C102.26 56.2941 102.017 56.4819 101.83 56.72C101.466 57.2071 101.308 57.8176 101.39 58.42C101.487 59.2379 101.891 59.9885 102.52 60.52C103.477 61.379 104.478 62.1868 105.52 62.94C106.602 63.7109 107.607 64.585 108.52 65.55C109.237 66.3455 109.697 67.3388 109.84 68.4C109.966 69.7455 109.749 71.101 109.21 72.34C108.86 73.34 108.43 74.34 107.95 75.34C106.76 77.97 105.77 80.17 104.08 81.73C103.143 82.5694 102.049 83.2146 100.861 83.6283C99.6736 84.042 98.4155 84.2159 97.16 84.14C95.1203 84.1705 93.0906 83.8491 91.16 83.19C89.2715 82.4809 87.5242 81.4414 86 80.12C85.45 80.67 84.94 81.23 84.44 81.8C83.9555 82.4219 83.3905 82.9768 82.76 83.45C82.2072 83.7758 81.5704 83.9306 80.9297 83.895C80.2891 83.8594 79.6733 83.635 79.16 83.25C78.9011 83.0424 78.6882 82.7831 78.535 82.4887C78.3817 82.1943 78.2915 81.8712 78.27 81.54C78.2434 81.1447 78.2909 80.7479 78.41 80.37C79.2154 77.6198 80.4507 75.0143 82.07 72.65C82.4852 71.9383 83.0562 71.3297 83.74 70.87C84.312 70.5219 84.9704 70.3417 85.64 70.35C85.9579 70.3299 86.2759 70.3887 86.5656 70.5213C86.8552 70.6539 87.1075 70.8562 87.3 71.11C87.8486 71.9876 88.2822 72.932 88.59 73.92C88.9826 75.1712 89.7045 76.2937 90.68 77.17C91.5391 77.8312 92.596 78.1835 93.68 78.17C94.3761 78.2159 95.0706 78.0596 95.68 77.72C96.1831 77.3701 96.567 76.8746 96.78 76.3C96.8834 76.0426 96.9572 75.7742 97 75.5C97.087 75.1232 97.0881 74.7316 97.0032 74.3542C96.9184 73.9769 96.7499 73.6234 96.51 73.32C95.7701 72.4482 94.9273 71.6692 94 71C93.0188 70.1899 92.0934 69.3146 91.23 68.38C90.518 67.5547 89.9988 66.5811 89.71 65.53C89.3843 64.2201 89.3501 62.8546 89.61 61.53C89.76 60.45 89.97 59.38 90.2 58.32C90.4474 56.3736 91.1723 54.5185 92.31 52.92C93.45 51.49 95.11 50.72 97.9 50.73C99.8533 50.7435 101.798 50.9953 103.69 51.48Z" fill="white"/>
<path d="M119.66 82.55C117.366 81.572 115.419 79.9277 114.07 77.83C113.506 76.81 113.198 75.6686 113.172 74.5035C113.146 73.3383 113.402 72.1842 113.92 71.14C114.971 68.9499 116.273 66.8894 117.8 65C121.52 60.24 123.31 56.55 125.42 54.2C126.423 53.0048 127.686 52.0546 129.112 51.422C130.539 50.7894 132.091 50.4912 133.65 50.55C137.582 50.7043 141.346 52.1846 144.33 54.75C144.69 54.234 145.024 53.7 145.33 53.15C145.717 52.5198 146.208 51.9587 146.78 51.49C147.336 51.1529 147.981 50.9925 148.63 51.03C149.474 51.0182 150.3 51.2738 150.99 51.76C151.665 52.199 152.143 52.8843 152.32 53.67C152.372 54.0181 152.372 54.3719 152.32 54.72C151.999 57.0005 151.209 59.1897 150 61.15C149.531 61.9792 148.898 62.7039 148.14 63.28C147.583 63.6756 146.913 63.8824 146.23 63.87C145.609 63.8981 145 63.687 144.53 63.28C144.002 62.68 143.595 61.984 143.33 61.23C142.9 60.1057 142.215 59.0961 141.33 58.28C140.65 57.6993 139.784 57.3802 138.89 57.38C137.48 57.38 136.23 58.13 134.76 59.59C133.29 61.05 131.49 63.41 128.95 66.59C127.576 68.2091 126.465 70.0349 125.66 72C125.379 72.6024 125.246 73.2628 125.27 73.9269C125.295 74.5909 125.476 75.2398 125.8 75.82C126.378 76.5661 127.226 77.0555 128.161 77.1826C129.096 77.3098 130.044 77.0647 130.8 76.5C131.436 75.7651 131.928 74.917 132.25 74C132.43 73.61 132.63 73.22 132.84 72.84C133.16 72.22 133.38 71.84 133.46 71.6C133.516 71.4778 133.546 71.3447 133.546 71.21C133.546 71.0753 133.516 70.9423 133.46 70.82C133.282 70.6077 133.064 70.4313 132.82 70.3L131.49 69.69C130.91 69.4 130.8 68.9 131.15 68.18C131.234 68.0066 131.331 67.8395 131.44 67.68C131.729 67.319 132.099 67.0312 132.52 66.84C133.031 66.6485 133.576 66.5667 134.12 66.6C138.66 66.69 143.22 66.79 147.83 66.87C148.83 66.87 149.2 67.21 148.91 67.87C148.821 68.0651 148.71 68.2496 148.58 68.42C148.289 68.8395 147.927 69.205 147.51 69.5C147.027 69.8121 146.514 70.0766 145.98 70.29L144.52 70.95C144.209 71.0912 143.914 71.2655 143.64 71.47C143.426 71.6325 143.252 71.841 143.13 72.08C141.49 74.88 140.59 77.77 141.56 81C141.861 81.7507 142.043 82.5434 142.1 83.35C142.02 83.76 141.71 83.96 141.1 83.96H139.02C138.186 83.9501 137.363 83.759 136.61 83.4C135.599 82.8569 134.71 82.1114 134 81.21C133.55 80.69 133.16 80.21 132.8 79.68C131.68 82.57 130.42 84.26 126.8 84.25C124.325 84.2037 121.89 83.6238 119.66 82.55Z" fill="white"/>
<path d="M189.77 52.53C189.775 52.7114 189.759 52.8927 189.72 53.07C189.634 53.3841 189.473 53.6724 189.25 53.91C188.983 54.1632 188.695 54.3939 188.39 54.6C187.908 54.8976 187.471 55.2611 187.09 55.68C186.63 56.212 186.261 56.8169 186 57.47C182.88 65.18 176.56 71.69 176.8 78.78C176.88 80.71 177.13 82.11 176.88 82.92C176.63 83.73 175.88 84.15 174.39 84.15C172.864 84.0929 171.373 83.6748 170.04 82.93C168.265 81.9855 166.66 80.7519 165.29 79.28C160.47 74.07 160.29 69.4 160.04 64.42C156.85 68.99 153.2 73.19 153.12 77.9C153.138 78.2873 153.219 78.669 153.36 79.03C153.519 79.4326 153.761 79.7972 154.07 80.1C154.418 80.4267 154.793 80.7244 155.19 80.99C155.685 81.3018 156.13 81.6861 156.51 82.13C156.634 82.2745 156.741 82.4321 156.83 82.6C157.09 83.09 157.11 83.43 156.83 83.6C156.266 83.8522 155.645 83.9522 155.03 83.89H149.64C149.03 83.9191 148.421 83.8059 147.863 83.5595C147.304 83.313 146.81 82.9401 146.42 82.47C146.285 82.3086 146.17 82.1305 146.08 81.94C146.012 81.8176 145.969 81.683 145.954 81.544C145.939 81.405 145.951 81.2643 145.99 81.13C146.101 80.8894 146.257 80.6722 146.45 80.49C146.754 80.2077 146.999 79.8677 147.17 79.49C147.347 78.948 147.432 78.3801 147.42 77.81C147.67 70.54 156.36 64.54 158.72 56.63C158.494 56.0273 158.236 55.4366 157.95 54.86C157.614 54.2269 157.355 53.5553 157.18 52.86C156.91 51.68 157.3 51.06 158.62 51.06H165.88C166.807 51.0225 167.716 51.3208 168.44 51.9C169.281 52.7155 169.945 53.696 170.39 54.78C172.64 60.1 172.39 64.65 173.63 69.19C175.82 65.46 178.58 61.66 180.37 57.47C180.523 57.0802 180.63 56.6742 180.69 56.26C180.754 55.8777 180.719 55.4854 180.59 55.12C180.444 54.7841 180.256 54.4682 180.03 54.18C179.744 53.8331 179.557 53.4148 179.49 52.97C179.467 52.8008 179.467 52.6292 179.49 52.46C179.516 52.2255 179.601 52.0015 179.738 51.8091C179.874 51.6166 180.057 51.4621 180.27 51.36C180.907 51.1132 181.588 51.0041 182.27 51.04H187.63C189.05 51.09 189.76 51.58 189.77 52.53Z" fill="white"/>
<path d="M191.7 69C190.425 68.4843 189.385 67.5156 188.78 66.28C188.249 65.0299 188.165 63.6352 188.54 62.33C188.692 61.6996 188.899 61.0839 189.16 60.49C189.904 58.6629 190.949 56.9729 192.25 55.49C193.549 53.9498 195.127 52.6675 196.9 51.71C198.645 50.7709 200.598 50.286 202.58 50.3C204.242 50.2721 205.887 50.6388 207.38 51.37C208.683 52.0111 209.789 52.9923 210.58 54.21C211.337 55.4063 211.736 56.7943 211.73 58.21C211.739 58.8298 211.668 59.4481 211.52 60.05C211.129 61.924 210.201 63.6439 208.85 65C207.325 66.5425 205.501 67.7573 203.49 68.57C201.402 69.4469 199.165 69.9154 196.9 69.95C195.118 70.0238 193.341 69.6993 191.7 69ZM203.05 66.55C204.809 65.7421 206.348 64.5249 207.54 63C208.609 61.7079 209.218 60.0965 209.27 58.42C209.321 57.613 209.188 56.805 208.881 56.0568C208.574 55.3085 208.102 54.6395 207.5 54.1C206.109 52.9275 204.315 52.3428 202.5 52.47C200.695 52.4871 198.924 52.9692 197.36 53.87C195.754 54.7783 194.344 55.9949 193.21 57.45C192.109 58.791 191.327 60.3636 190.92 62.05C190.68 62.7929 190.655 63.5882 190.845 64.3451C191.036 65.1019 191.437 65.7898 192 66.33C193.13 67.4 194.89 67.91 197.23 67.87C199.245 67.8428 201.231 67.3788 203.05 66.51V66.55ZM203.42 59.93C204.42 60 204.94 60.46 204.87 61.32C204.81 61.52 204.76 61.72 204.71 61.92C204.66 62.12 204.56 62.42 204.49 62.67L204.41 62.91C204.41 63.18 204.5 63.31 204.76 63.3C204.948 63.2812 205.138 63.2982 205.32 63.35C205.41 63.35 205.42 63.51 205.38 63.67C205.202 64.1055 204.872 64.4612 204.45 64.67C203.809 65.029 203.085 65.2119 202.35 65.2C201.758 65.2564 201.164 65.1158 200.66 64.8C200.465 64.6629 200.315 64.4708 200.229 64.2482C200.144 64.0255 200.127 63.7825 200.18 63.55C200.224 63.2978 200.291 63.0501 200.38 62.81C200.49 62.48 200.61 62.15 200.72 61.81C200.77 61.66 200.83 61.52 200.88 61.37C200.93 60.97 200.59 60.78 199.88 60.8H199.31C198.94 61.65 198.55 62.5 198.16 63.34C198.106 63.409 198.075 63.4927 198.07 63.58C198.05 63.7091 198.067 63.8412 198.118 63.9614C198.169 64.0816 198.253 64.185 198.36 64.26C198.6 64.45 198.69 64.61 198.64 64.74C198.614 64.817 198.569 64.8864 198.51 64.9421C198.45 64.9979 198.378 65.0384 198.3 65.06C198.061 65.1193 197.816 65.1496 197.57 65.15L193.43 65.24C192.8 65.24 192.55 65.08 192.69 64.72C192.843 64.5153 193.046 64.3535 193.28 64.25C193.614 64.0672 193.878 63.7788 194.03 63.43C195.13 61.23 196.19 58.99 197.09 56.68C197.137 56.5476 197.167 56.4099 197.18 56.27C197.194 56.0781 197.141 55.8872 197.03 55.73C196.977 55.6516 196.944 55.5609 196.935 55.4665C196.927 55.372 196.942 55.2769 196.98 55.19C197.001 55.1246 197.035 55.0646 197.082 55.0144C197.129 54.9643 197.186 54.9252 197.25 54.9C197.459 54.8288 197.68 54.7983 197.9 54.81L203.04 54.71C203.948 54.6331 204.856 54.8619 205.62 55.36C205.911 55.5532 206.146 55.8192 206.302 56.1315C206.458 56.4437 206.53 56.7914 206.51 57.14C206.487 57.3644 206.44 57.5857 206.37 57.8C206.145 58.4044 205.743 58.927 205.217 59.2998C204.691 59.6726 204.065 59.8783 203.42 59.89V59.93ZM202.42 57.26C202.447 57.1413 202.445 57.0179 202.416 56.8998C202.386 56.7818 202.329 56.6722 202.25 56.58C202.055 56.4513 201.822 56.3947 201.59 56.42H200.94C200.62 57.42 200.29 58.33 199.94 59.27H200.61C200.97 59.2686 201.32 59.1531 201.61 58.94C201.947 58.6424 202.19 58.2533 202.31 57.82C202.361 57.6238 202.391 57.4226 202.4 57.22L202.42 57.26Z" fill="white"/>
<path d="M217.38 61C216.995 60.4065 216.531 59.8682 216 59.4L215.9 59.3L215.8 59.2C215.772 59.1618 215.738 59.1281 215.7 59.1L215.6 59L215.5 58.9L215.4 58.8L215.3 58.7C215.272 58.6618 215.238 58.6281 215.2 58.6L215.1 58.5L215 58.4L214.9 58.3L214.8 58.2C214.772 58.1618 214.738 58.1281 214.7 58.1L214.6 58L214.5 57.9L214.4 57.8L214.3 57.7C214.272 57.6618 214.238 57.6281 214.2 57.6L214.1 57.5L214 57.4L213.9 57.3L213.8 57.2C213.772 57.1618 213.738 57.1281 213.7 57.1L213.6 57L213.5 56.9L213.4 56.8L213.3 56.7C213.272 56.6618 213.238 56.6281 213.2 56.6L213.1 56.5L213 56.4L212.9 56.3L212.8 56.2C212.772 56.1618 212.738 56.1281 212.7 56.1L212.6 56L212.5 55.9L212.4 55.8L212.3 55.7C212.272 55.6618 212.238 55.6281 212.2 55.6L212.1 55.5L212 55.4L211.9 55.3L211.8 55.2C211.772 55.1618 211.738 55.1281 211.7 55.1L211.6 55L211.5 54.9L211.4 54.8L211.3 54.7C211.272 54.6618 211.238 54.6281 211.2 54.6L211.1 54.5L211 54.4L210.9 54.3L210.8 54.2C210.772 54.1618 210.738 54.1281 210.7 54.1L210.6 54L210.5 53.9L210.4 53.8L210.3 53.7C210.272 53.6618 210.238 53.6281 210.2 53.6L210.1 53.5L210 53.4L209.9 53.3L209.8 53.2C209.772 53.1618 209.738 53.1281 209.7 53.1L209.6 53L209.5 52.9L209.4 52.8L209.3 52.7C208.723 52.1693 208.077 51.7186 207.38 51.36C205.887 50.6287 204.242 50.262 202.58 50.29C200.598 50.276 198.645 50.7609 196.9 51.7C195.342 52.5566 193.942 53.6726 192.76 55C192.76 55 192.76 55 192.68 54.93L192.58 54.83L192.48 54.73L192.38 54.63L192.28 54.53L192.18 54.43L192.08 54.33L191.98 54.23L191.88 54.13L191.78 54.03L191.68 53.93L191.58 53.83L191.48 53.73L191.38 53.63L191.28 53.53L191.18 53.43L191.08 53.33L190.98 53.23L190.88 53.13L190.78 53.03L190.68 52.93L190.58 52.83L190.48 52.73L190.38 52.63L190.28 52.53L190.18 52.43L190.08 52.33L189.98 52.23L189.88 52.13L189.78 52.03L189.68 51.93L189.58 51.83L189.48 51.73C189.244 51.5077 188.963 51.3398 188.655 51.2378C188.348 51.1359 188.022 51.1025 187.7 51.14H182.34C181.658 51.1041 180.977 51.2132 180.34 51.46C180.127 51.5621 179.944 51.7166 179.808 51.9091C179.671 52.1015 179.586 52.3255 179.56 52.56C179.537 52.7292 179.537 52.9008 179.56 53.07C179.627 53.5148 179.814 53.9331 180.1 54.28C180.326 54.5682 180.514 54.8841 180.66 55.22C180.789 55.5854 180.824 55.9777 180.76 56.36C180.7 56.7742 180.593 57.1802 180.44 57.57C179.647 59.3736 178.731 61.1209 177.7 62.8C177.57 62.43 177.42 62.06 177.26 61.68C176.804 60.5896 176.122 59.608 175.26 58.8L175.17 58.7L175.07 58.6L174.98 58.5L174.89 58.4L174.79 58.3L174.7 58.2L174.6 58.1L174.51 58L174.42 57.9L174.32 57.8L174.23 57.7L174.13 57.6L174.04 57.5L173.95 57.4L173.85 57.3L173.76 57.2L173.66 57.1L173.57 57L173.48 56.9L173.38 56.8L173.29 56.7L173.19 56.6L173.1 56.5L173.01 56.4L172.91 56.3L172.82 56.2L172.72 56.1L172.63 56L172.54 55.9L172.44 55.8L172.35 55.7L172.25 55.6L172.16 55.5L172.07 55.4L171.97 55.3L171.88 55.2L171.78 55.1L171.69 55L171.6 54.9L171.5 54.8L171.41 54.7L171.31 54.6L171.22 54.5L171.13 54.4L171.03 54.3L170.94 54.2L170.84 54.1L170.75 54L170.66 53.9L170.56 53.8L170.47 53.7L170.37 53.6L170.28 53.5L170.19 53.4L170.09 53.3L170 53.2L169.9 53.1L169.81 53L169.72 52.9L169.62 52.8L169.53 52.7L169.43 52.6L169.34 52.5L169.25 52.4L169.15 52.3L169.06 52.2L168.96 52.1L168.87 52C168.146 51.4208 167.237 51.1225 166.31 51.16H159.05C157.73 51.16 157.34 51.78 157.61 52.96C157.785 53.6553 158.044 54.3269 158.38 54.96C158.666 55.5366 158.923 56.1273 159.15 56.73C158.94 57.4122 158.686 58.0802 158.39 58.73L158.29 58.63C158.19 58.5299 158.19 58.5299 158.09 58.4299L157.99 58.33L157.89 58.23L157.79 58.13C157.69 58.03 157.69 58.03 157.59 57.93L157.49 57.83L157.39 57.73L157.29 57.63C157.19 57.5299 157.19 57.5299 157.09 57.4299L156.99 57.33L156.89 57.23L156.79 57.13C156.69 57.0299 156.69 57.0299 156.59 56.9299L156.49 56.83L156.39 56.73L156.29 56.63C156.19 56.5298 156.19 56.5298 156.09 56.4298L155.99 56.33L155.89 56.23L155.79 56.13C155.69 56.0298 155.69 56.0298 155.59 55.9298L155.49 55.83L155.39 55.73L155.29 55.63C155.19 55.5299 155.19 55.5299 155.09 55.4299L154.99 55.33L154.89 55.23L154.79 55.13C154.69 55.03 154.69 55.03 154.59 54.93L154.49 54.83L154.39 54.73L154.29 54.63C154.19 54.5299 154.19 54.5299 154.09 54.4299L153.99 54.33L153.89 54.23L153.79 54.13C153.69 54.03 153.69 54.03 153.59 53.93L153.49 53.83L153.39 53.73L153.29 53.63C153.19 53.53 153.19 53.53 153.09 53.43L152.99 53.33L152.89 53.23L152.79 53.13C152.69 53.03 152.69 53.03 152.59 52.93L152.49 52.83L152.39 52.73L152.29 52.63C152.19 52.5299 152.19 52.5299 152.09 52.4299L151.99 52.33C151.825 52.167 151.648 52.0166 151.46 51.88C150.77 51.3938 149.944 51.1382 149.1 51.15C148.451 51.1125 147.806 51.2729 147.25 51.61C146.678 52.0787 146.187 52.6397 145.8 53.27C145.494 53.82 145.16 54.354 144.8 54.87C141.816 52.3046 138.052 50.8243 134.12 50.67C132.561 50.6112 131.009 50.9094 129.582 51.542C128.156 52.1746 126.893 53.1248 125.89 54.32C124.767 55.6663 123.744 57.0934 122.83 58.59L122.73 58.49L122.63 58.39L122.53 58.29C122.43 58.1899 122.43 58.1899 122.33 58.0899L122.23 57.99L122.13 57.89L122.03 57.79C121.93 57.6898 121.93 57.6898 121.83 57.5898L121.73 57.49L121.63 57.39L121.53 57.29C121.43 57.1901 121.43 57.1901 121.33 57.0901L121.23 56.99L121.13 56.89L121.03 56.79C120.93 56.6901 120.93 56.6901 120.83 56.5901L120.73 56.49L120.63 56.39L120.53 56.29C120.43 56.1901 120.43 56.1901 120.33 56.0901L120.23 55.99L120.13 55.89L120.03 55.79C119.93 55.6898 119.93 55.6898 119.83 55.5898L119.73 55.49L119.63 55.39L119.53 55.29C119.43 55.1898 119.43 55.1898 119.33 55.0898L119.23 54.99L119.13 54.89L119.03 54.79C118.93 54.6903 118.93 54.6903 118.83 54.5903L118.73 54.49L118.63 54.39L118.53 54.29C118.43 54.1899 118.43 54.1899 118.33 54.0899L118.23 53.99L118.13 53.89L118.03 53.79C117.93 53.6898 117.93 53.6898 117.83 53.5898L117.73 53.49L117.63 53.39L117.53 53.29C117.43 53.1898 117.43 53.1898 117.33 53.0898L117.23 52.99L117.13 52.89L117.03 52.79C116.93 52.6901 116.93 52.6901 116.83 52.5901L116.73 52.49C116.408 52.174 116.041 51.9077 115.64 51.7C114.923 51.3168 114.123 51.1143 113.31 51.11C112.804 51.0678 112.298 51.202 111.88 51.49C111.491 51.8986 111.182 52.377 110.97 52.9C110.81 53.24 110.64 53.57 110.45 53.9C108.432 52.9347 106.326 52.1678 104.16 51.61C102.277 51.1311 100.343 50.8826 98.4 50.87C95.61 50.87 93.95 51.63 92.81 53.06C91.6722 54.6585 90.9474 56.5136 90.7 58.46C90.47 59.52 90.26 60.59 90.11 61.67C89.9569 62.6354 89.9199 63.6158 90 64.59C89.6968 64.1059 89.3413 63.6565 88.94 63.25L88.84 63.15C88.8042 63.1192 88.7708 63.0858 88.74 63.05L88.64 62.95L88.53 62.85L88.44 62.75L88.34 62.65C88.3042 62.6192 88.2708 62.5858 88.24 62.55L88.14 62.45L88.03 62.35L87.94 62.25L87.84 62.15C87.8042 62.1192 87.7708 62.0858 87.74 62.05L87.64 61.95L87.53 61.85L87.44 61.75L87.34 61.65C87.3042 61.6192 87.2708 61.5858 87.24 61.55L87.14 61.45L87.03 61.35L86.94 61.25L86.84 61.15C86.8042 61.1192 86.7708 61.0858 86.74 61.05L86.64 60.95L86.53 60.85L86.44 60.75L86.34 60.65C86.3042 60.6192 86.2708 60.5858 86.24 60.55L86.14 60.45L86.03 60.35L85.94 60.25L85.84 60.15C85.8042 60.1192 85.7708 60.0858 85.74 60.05L85.64 59.95L85.53 59.85L85.44 59.75L85.34 59.65C85.3042 59.6192 85.2708 59.5858 85.24 59.55L85.14 59.45L85.03 59.35L84.94 59.25L84.84 59.15C84.8042 59.1192 84.7708 59.0858 84.74 59.05L84.64 58.95L84.53 58.85L84.44 58.75L84.34 58.65C84.3042 58.6192 84.2708 58.5858 84.24 58.55L84.14 58.45L84.03 58.35L83.94 58.25L83.84 58.15C83.8042 58.1192 83.7708 58.0858 83.74 58.05L83.64 57.95L83.53 57.85L83.44 57.75L83.34 57.65C83.3042 57.6192 83.2708 57.5858 83.24 57.55L83.14 57.45L83.03 57.35L82.94 57.25L82.84 57.15C82.8042 57.1192 82.7708 57.0858 82.74 57.05L82.64 56.95L82.53 56.85L82.44 56.75L82.34 56.65C82.3042 56.6192 82.2708 56.5858 82.24 56.55C81.2327 55.5356 80.0676 54.6913 78.79 54.05C74.5127 51.9187 69.7771 50.8713 65 51H51.43C50.7522 50.9611 50.0732 51.0527 49.43 51.27C49.2452 51.3412 49.0857 51.4658 48.9718 51.6278C48.8578 51.7898 48.7945 51.982 48.79 52.18C48.7749 52.3597 48.7749 52.5403 48.79 52.72C48.9413 53.109 49.189 53.4531 49.51 53.72C49.79 54.05 50.02 54.34 50.2 54.58C50.3819 54.8504 50.5014 55.1578 50.55 55.48C50.6335 55.8824 50.6335 56.2976 50.55 56.7C48.97 63.64 45.32 70.7 43.13 77.92C42.9504 78.5619 42.6482 79.163 42.24 79.69C41.8667 80.0907 41.4311 80.4284 40.95 80.69C40.58 80.94 40.3 81.12 40.12 81.26C39.9116 81.4258 39.761 81.6533 39.69 81.91C39.5962 82.1142 39.5452 82.3354 39.54 82.56C39.5395 82.7094 39.5724 82.857 39.6365 82.992C39.7005 83.127 39.794 83.2459 39.91 83.34L40.01 83.44C40.1098 83.54 40.1098 83.54 40.2098 83.64L40.31 83.74C40.3381 83.7782 40.3718 83.8119 40.41 83.84L40.51 83.94C40.6101 84.04 40.6101 84.04 40.7101 84.14L40.81 84.24C40.8381 84.2782 40.8718 84.3119 40.91 84.34L41.01 84.44C41.1098 84.5398 41.1098 84.5398 41.2098 84.6398L41.31 84.74C41.3381 84.7782 41.3718 84.8119 41.41 84.84L41.51 84.94C41.6101 85.0403 41.6101 85.0403 41.71 85.1402L41.81 85.24C41.8381 85.2782 41.8718 85.3119 41.91 85.34L42.01 85.44C42.1101 85.54 42.1101 85.54 42.2101 85.64L42.31 85.74C42.3381 85.7782 42.3718 85.8119 42.41 85.84L42.51 85.94C42.6098 86.0398 42.6098 86.0398 42.7098 86.1398L42.81 86.24C42.8381 86.2782 42.8718 86.3119 42.91 86.34L43.01 86.44C43.1103 86.54 43.1103 86.54 43.2103 86.64L43.31 86.74C43.3381 86.7782 43.3718 86.8119 43.41 86.84L43.51 86.94C43.6101 87.04 43.6101 87.04 43.71 87.14L43.81 87.24C43.8381 87.2782 43.8718 87.3119 43.91 87.34L44.01 87.44C44.1101 87.54 44.1101 87.54 44.2101 87.64L44.31 87.74C44.3381 87.7782 44.3718 87.8119 44.41 87.84L44.51 87.94C44.6101 88.04 44.6101 88.04 44.7101 88.14L44.81 88.24C44.8381 88.2782 44.8718 88.3119 44.91 88.34L45.01 88.44C45.1101 88.5403 45.1101 88.5403 45.2101 88.6403L45.31 88.74C45.3381 88.7782 45.3718 88.8119 45.41 88.84L45.51 88.94C45.6098 89.04 45.6098 89.04 45.7098 89.14L45.81 89.24C45.8381 89.2782 45.8718 89.3119 45.91 89.34L46.01 89.44C46.1101 89.5403 46.1101 89.5403 46.2101 89.6403L46.31 89.74C46.3381 89.7782 46.3718 89.8119 46.41 89.84L46.51 89.94C46.5381 89.9782 46.5718 90.0119 46.61 90.04C46.6963 90.1385 46.7975 90.2229 46.91 90.29C47.4058 90.5484 47.9617 90.6692 48.52 90.64H61.97C65.843 90.8243 69.7156 90.2677 73.38 89C75.9631 87.9349 78.286 86.3249 80.19 84.28C80.2208 84.3158 80.2542 84.3492 80.29 84.38L80.39 84.48C80.49 84.5801 80.49 84.5801 80.5899 84.68L80.69 84.78C80.7208 84.8158 80.7542 84.8492 80.79 84.88L80.89 84.98C80.9902 85.0801 80.9902 85.0801 81.0902 85.1801L81.19 85.28C81.2208 85.3158 81.2542 85.3492 81.29 85.38L81.39 85.48C81.4897 85.5801 81.4897 85.5801 81.5897 85.6801L81.69 85.78C81.7208 85.8158 81.7542 85.8492 81.79 85.88L81.89 85.98C81.99 86.0803 81.99 86.0803 82.09 86.1803L82.19 86.28C82.2208 86.3158 82.2542 86.3492 82.29 86.38L82.39 86.48C82.49 86.5801 82.49 86.5801 82.5899 86.68L82.69 86.78C82.7208 86.8158 82.7542 86.8492 82.79 86.88L82.89 86.98C82.99 87.0801 82.99 87.0801 83.09 87.1801L83.19 87.28C83.2208 87.3158 83.2542 87.3492 83.29 87.38L83.39 87.48C83.4897 87.5801 83.4897 87.5801 83.5897 87.6801L83.69 87.78C83.7208 87.8158 83.7542 87.8492 83.79 87.88L83.89 87.98C83.99 88.0803 83.99 88.0803 84.09 88.1803L84.19 88.28C84.2208 88.3158 84.2542 88.3492 84.29 88.38L84.39 88.48C84.4902 88.5798 84.4902 88.5798 84.5901 88.6798L84.69 88.78C84.7208 88.8158 84.7542 88.8492 84.79 88.88L84.89 88.98C84.9902 89.0801 84.9902 89.0801 85.0902 89.1801L85.19 89.28C85.2208 89.3158 85.2542 89.3492 85.29 89.38L85.39 89.48C85.4902 89.5798 85.4902 89.5798 85.5902 89.6798C85.6938 89.8088 85.8112 89.9261 85.94 90.03C86.4533 90.415 87.0691 90.6394 87.7097 90.675C88.3504 90.7106 88.9872 90.5558 89.54 90.23C90.1705 89.7568 90.7355 89.2019 91.22 88.58C91.72 88.01 92.22 87.45 92.78 86.9C94.3199 88.2382 96.0881 89.2883 98 90C99.9434 90.6818 101.991 91.0202 104.05 91C105.306 91.0759 106.564 90.9019 107.751 90.4883C108.939 90.0746 110.033 89.4294 110.97 88.59C112.66 87.03 113.65 84.83 114.84 82.2C115.19 81.45 115.5 80.73 115.84 80.01L115.93 80.1L116.03 80.2C116.066 80.2308 116.099 80.2642 116.13 80.3L116.23 80.4C116.33 80.5 116.33 80.5 116.43 80.6L116.53 80.7C116.566 80.7308 116.599 80.7642 116.63 80.8L116.73 80.9C116.83 81 116.83 81 116.93 81.1002L117.03 81.2C117.066 81.2308 117.099 81.2642 117.13 81.3L117.23 81.4C117.33 81.5 117.33 81.5 117.43 81.6L117.53 81.7C117.566 81.7308 117.599 81.7642 117.63 81.8L117.73 81.9C117.83 82 117.83 82 117.93 82.1002L118.03 82.2C118.066 82.2308 118.099 82.2642 118.13 82.3L118.23 82.4C118.33 82.5 118.33 82.5 118.43 82.6L118.53 82.7C118.566 82.7308 118.599 82.7642 118.63 82.8L118.73 82.9C118.83 82.9999 118.83 82.9999 118.93 83.0999L119.03 83.2C119.066 83.2308 119.099 83.2642 119.13 83.3L119.23 83.4C119.33 83.5 119.33 83.5 119.43 83.6L119.53 83.7C119.566 83.7308 119.599 83.7642 119.63 83.8L119.73 83.9C119.83 83.9999 119.83 83.9999 119.93 84.0999L120.03 84.2C120.066 84.2308 120.099 84.2642 120.13 84.3L120.23 84.4C120.33 84.5 120.33 84.5 120.43 84.6L120.53 84.7C120.566 84.7308 120.599 84.7642 120.63 84.8L120.73 84.9C120.83 84.9999 120.83 84.9999 120.93 85.0999L121.03 85.2C121.066 85.2308 121.099 85.2642 121.13 85.3L121.23 85.4C121.33 85.5 121.33 85.5 121.43 85.6L121.53 85.7C121.566 85.7308 121.599 85.7642 121.63 85.8L121.73 85.9C121.83 85.9999 121.83 85.9999 121.93 86.0999L122.03 86.2C122.066 86.2308 122.099 86.2642 122.13 86.3L122.23 86.4C122.33 86.5 122.33 86.5 122.43 86.6L122.53 86.7C123.704 87.8219 125.055 88.7411 126.53 89.42C128.748 90.4882 131.169 91.0679 133.63 91.12C137.17 91.12 138.46 89.54 139.56 86.81C139.66 86.91 139.66 86.91 139.76 87.01L139.86 87.11C139.891 87.1458 139.924 87.1792 139.96 87.21L140.06 87.31C140.16 87.4101 140.16 87.4101 140.26 87.5101L140.36 87.61C140.391 87.6458 140.424 87.6792 140.46 87.71L140.56 87.81C140.66 87.9101 140.66 87.9101 140.76 88.0101L140.86 88.11C140.891 88.1458 140.924 88.1792 140.96 88.21L141.06 88.31C141.16 88.4101 141.16 88.4101 141.26 88.5101L141.36 88.61C141.391 88.6458 141.424 88.6792 141.46 88.71C142.059 89.3201 142.755 89.8269 143.52 90.21C144.273 90.569 145.096 90.7601 145.93 90.77H148C148.59 90.77 148.9 90.57 149 90.16C148.943 89.3534 148.761 88.5607 148.46 87.81C148.1 86.6359 147.984 85.4005 148.12 84.18C148.12 84.18 148.18 84.18 148.2 84.26C148.231 84.2958 148.264 84.3292 148.3 84.36C148.331 84.3958 148.364 84.4292 148.4 84.46L148.5 84.56C148.531 84.5958 148.564 84.6292 148.6 84.66C148.631 84.6958 148.664 84.7292 148.7 84.76C148.731 84.7958 148.764 84.8292 148.8 84.86C148.831 84.8958 148.864 84.9292 148.9 84.96L149 85.06C149.031 85.0958 149.064 85.1292 149.1 85.16C149.131 85.1958 149.164 85.2292 149.2 85.26C149.231 85.2958 149.264 85.3292 149.3 85.36C149.331 85.3958 149.364 85.4292 149.4 85.46L149.5 85.56C149.531 85.5958 149.564 85.6292 149.6 85.66C149.631 85.6958 149.664 85.7292 149.7 85.76C149.731 85.7958 149.764 85.8292 149.8 85.86C149.831 85.8958 149.864 85.9292 149.9 85.96L150 86.06C150.031 86.0958 150.064 86.1292 150.1 86.16C150.131 86.1958 150.164 86.2292 150.2 86.26C150.231 86.2958 150.264 86.3292 150.3 86.36C150.331 86.3958 150.364 86.4292 150.4 86.46L150.5 86.56C150.531 86.5958 150.564 86.6292 150.6 86.66C150.631 86.6958 150.664 86.7292 150.7 86.76C150.731 86.7958 150.764 86.8292 150.8 86.86C150.831 86.8958 150.864 86.9292 150.9 86.96L151 87.06C151.031 87.0958 151.064 87.1292 151.1 87.16C151.131 87.1958 151.164 87.2292 151.2 87.26C151.231 87.2958 151.264 87.3292 151.3 87.36C151.331 87.3958 151.364 87.4292 151.4 87.46L151.5 87.56C151.531 87.5958 151.564 87.6292 151.6 87.66C151.631 87.6958 151.664 87.7292 151.7 87.76C151.731 87.7958 151.764 87.8292 151.8 87.86C151.831 87.8958 151.864 87.9292 151.9 87.96L152 88.06C152.031 88.0958 152.064 88.1292 152.1 88.16C152.131 88.1958 152.164 88.2292 152.2 88.26C152.231 88.2958 152.264 88.3292 152.3 88.36C152.331 88.3958 152.364 88.4292 152.4 88.46L152.5 88.56C152.531 88.5958 152.564 88.6292 152.6 88.66C152.631 88.6958 152.664 88.7292 152.7 88.76C152.731 88.7958 152.764 88.8292 152.8 88.86C152.831 88.8958 152.864 88.9292 152.9 88.96L153 89.06C153.031 89.0958 153.064 89.1292 153.1 89.16C153.131 89.1958 153.164 89.2292 153.2 89.26C153.231 89.2958 153.264 89.3292 153.3 89.36C153.69 89.8301 154.184 90.203 154.743 90.4495C155.301 90.6959 155.91 90.8091 156.52 90.78H161.91C162.525 90.8422 163.146 90.7422 163.71 90.49C164 90.29 163.98 89.95 163.71 89.49C163.621 89.3221 163.514 89.1645 163.39 89.02C163.305 88.9091 163.212 88.8054 163.11 88.71L163.01 88.61L162.91 88.51C162.879 88.4742 162.846 88.4408 162.81 88.41L162.71 88.31L162.61 88.21L162.51 88.11L162.41 88.01C162.379 87.9742 162.346 87.9408 162.31 87.91L162.21 87.81L162.11 87.71L162.01 87.61L161.91 87.51C161.879 87.4742 161.846 87.4408 161.81 87.41L161.71 87.31L161.61 87.21L161.51 87.11L161.41 87.01C161.379 86.9742 161.346 86.9408 161.31 86.91L161.21 86.81L161.11 86.71L161.01 86.61L160.91 86.51C160.879 86.4742 160.846 86.4408 160.81 86.41L160.71 86.31L160.61 86.21L160.51 86.11L160.41 86.01C160.379 85.9742 160.346 85.9408 160.31 85.91L160.21 85.81C160.096 85.488 160.028 85.1512 160.01 84.81C160.06 81.96 161.42 79.29 163.19 76.61C163.843 77.5951 164.575 78.5249 165.38 79.39L165.47 79.48L165.56 79.57L165.65 79.66L165.75 79.75L165.84 79.84L165.93 79.93L166 80L166.09 80.09L166.19 80.18L166.28 80.27L166.37 80.36L166.46 80.45L166.55 80.54L166.65 80.63L166.74 80.72L166.83 80.81L167 81L167.09 81.09L167.19 81.18L167.28 81.27L167.37 81.36L167.46 81.45L167.55 81.54L167.65 81.63L167.74 81.72L167.83 81.81L168 82L168.09 82.09L168.19 82.18L168.28 82.27L168.37 82.36L168.46 82.45L168.55 82.54L168.65 82.63L168.74 82.72L168.83 82.81L169 83L169.09 83.09L169.19 83.18L169.28 83.27L169.37 83.36L169.46 83.45L169.55 83.54L169.65 83.63L169.74 83.72L169.83 83.81L170 84L170.09 84.09L170.19 84.18L170.28 84.27L170.37 84.36L170.46 84.45L170.55 84.54L170.65 84.63L170.74 84.72L170.83 84.81L171 85L171.09 85.09L171.19 85.18L171.28 85.27L171.37 85.36L171.46 85.45L171.55 85.54L171.65 85.63L171.74 85.72L171.83 85.81L172 86L172.09 86.09C173.46 87.5619 175.065 88.7954 176.84 89.74C178.179 90.5033 179.68 90.9354 181.22 91C182.71 91 183.48 90.58 183.71 89.77C183.94 88.96 183.71 87.56 183.63 85.63C183.44 79.91 187.51 74.57 190.73 68.63L190.83 68.72L190.93 68.82L191.03 68.92L191.13 69.02L191.23 69.13L191.33 69.22L191.43 69.32L191.53 69.42L191.63 69.52L191.73 69.63L191.83 69.72L191.93 69.82L192.03 69.92L192.13 70.02L192.23 70.13L192.33 70.22L192.43 70.32L192.53 70.42L192.63 70.52L192.73 70.63L192.83 70.72L192.93 70.82L193.03 70.92L193.13 71.02L193.23 71.13L193.33 71.22L193.43 71.32L193.53 71.42L193.63 71.52L193.73 71.63L193.83 71.72L193.93 71.82L194.03 71.92L194.13 72.02L194.23 72.13L194.33 72.22L194.43 72.32L194.53 72.42L194.63 72.52L194.73 72.63L194.83 72.72L194.93 72.82L195.03 72.92L195.13 73.02L195.23 73.13L195.33 73.22L195.43 73.32L195.53 73.42L195.63 73.52L195.73 73.63L195.83 73.72L195.93 73.82L196.03 73.92L196.13 74.02L196.23 74.13L196.33 74.22L196.43 74.32L196.53 74.42L196.63 74.52C197.175 75.0355 197.804 75.4548 198.49 75.76C200.132 76.4558 201.908 76.7769 203.69 76.7C205.955 76.6654 208.192 76.1969 210.28 75.32C212.291 74.5073 214.115 73.2925 215.64 71.75C216.981 70.4102 217.908 68.7126 218.31 66.86C218.458 66.2581 218.529 65.6398 218.52 65.02C218.535 63.5982 218.139 62.2024 217.38 61ZM114 71C113.9 70.9 113.9 70.9 113.8 70.8C113.7 70.7 113.7 70.7 113.6 70.6L113.5 70.5C113.4 70.4 113.4 70.4 113.3 70.3C113.2 70.2 113.2 70.2 113.1 70.1L113 70C112.9 69.9 112.9 69.9 112.8 69.8C112.7 69.7 112.7 69.7 112.6 69.6L112.5 69.5C112.4 69.4001 112.4 69.4001 112.3 69.3001C112.2 69.2 112.2 69.2 112.1 69.1L112 69C111.9 68.9 111.9 68.9 111.8 68.8C111.7 68.7 111.7 68.7 111.6 68.6L111.5 68.5C111.4 68.4 111.4 68.4 111.3 68.3C111.2 68.2 111.2 68.2 111.1 68.0999L111 68C110.9 67.9 110.9 67.9 110.8 67.8C110.7 67.7 110.7 67.7 110.6 67.6L110.5 67.5C110.4 67.4001 110.4 67.4001 110.3 67.3001C110.2 67.2 110.2 67.2 110.1 67.0999L110 67C109.9 66.9 109.9 66.9 109.8 66.8C109.7 66.7 109.7 66.7 109.6 66.6L109.5 66.5C109.4 66.4001 109.4 66.4001 109.3 66.3001C109.2 66.2 109.2 66.2 109.1 66.0999L109 66C108.9 65.9 108.9 65.9 108.8 65.8C108.7 65.7 108.7 65.7 108.6 65.5999L108.5 65.5C108.4 65.4 108.4 65.4 108.3 65.3L108.21 65.22C108.146 64.6406 108.303 64.0584 108.65 63.59C108.837 63.3519 109.08 63.164 109.358 63.0436C109.635 62.9231 109.938 62.8737 110.24 62.9C111.207 62.9306 112.156 63.1729 113.02 63.61L113.08 63.66H113.14V63.71H113.2V63.76H113.26L113.32 63.81V63.86H113.38H113.44L113.5 63.91H113.56H113.62V63.96H113.68H113.74L113.8 64.01H113.86H113.92V64.06H113.98H114.04L114.1 64.11H114.16H114.22V64.16H114.28H114.34L114.4 64.21H114.46H114.52V64.26H114.58H114.64L114.7 64.31H114.76H114.82V64.36H114.88H114.94L115 64.41H115.06C114.396 66.5452 114.039 68.7641 114 71ZM147.87 66.88L141.28 66.75L141.59 66.42C142.97 65.05 144.16 64.29 145.47 64.22L145.54 64.29C145.566 64.3107 145.589 64.3342 145.61 64.36L145.68 64.43L145.75 64.5C145.776 64.5207 145.799 64.5442 145.82 64.57L145.89 64.64C145.916 64.6607 145.939 64.6842 145.96 64.71L146.03 64.78L146.1 64.85C146.126 64.8707 146.149 64.8942 146.17 64.92L146.24 64.99C146.266 65.0107 146.289 65.0342 146.31 65.06L146.38 65.13L146.45 65.2C146.476 65.2207 146.499 65.2442 146.52 65.27L146.59 65.34C146.616 65.3607 146.639 65.3842 146.66 65.41L146.73 65.48L146.8 65.55C146.826 65.5707 146.849 65.5942 146.87 65.62L146.94 65.69C146.966 65.7107 146.989 65.7342 147.01 65.76L147.08 65.83L147.15 65.9C147.176 65.9207 147.199 65.9442 147.22 65.97L147.29 66.04L147.87 66.88ZM91.89 69L91.99 69.11C92.0258 69.1408 92.0592 69.1742 92.09 69.21L92.19 69.31L92.29 69.4C92.3208 69.4358 92.3542 69.4692 92.39 69.5L92.49 69.61C92.5258 69.6408 92.5592 69.6742 92.59 69.71L92.69 69.81L92.79 69.9C92.8208 69.9358 92.8542 69.9692 92.89 70L92.99 70.11C93.0258 70.1408 93.0592 70.1742 93.09 70.21L93.19 70.31L93.29 70.4C93.3208 70.4358 93.3542 70.4692 93.39 70.5L93.49 70.61C93.5258 70.6408 93.5592 70.6742 93.59 70.71L93.69 70.81L93.79 70.9C93.8208 70.9358 93.8542 70.9692 93.89 71L93.99 71.11C94.0258 71.1408 94.0592 71.1742 94.09 71.21L94.19 71.31L94.29 71.4C94.3208 71.4358 94.3542 71.4692 94.39 71.5L94.49 71.61C94.5258 71.6408 94.5592 71.6742 94.59 71.71L94.69 71.81L94.79 71.9C94.8208 71.9358 94.8542 71.9692 94.89 72L94.99 72.11C95.0258 72.1408 95.0592 72.1742 95.09 72.21L95.19 72.31L95.29 72.4C95.3208 72.4358 95.3542 72.4692 95.39 72.5L95.49 72.61C95.5258 72.6408 95.5592 72.6742 95.59 72.71L95.69 72.81L95.79 72.9C95.8208 72.9358 95.8542 72.9692 95.89 73L95.99 73.11C96.0258 73.1408 96.0592 73.1742 96.09 73.21L96.19 73.31L96.29 73.4C96.3208 73.4358 96.3542 73.4692 96.39 73.5L96.49 73.61C96.5258 73.6408 96.5592 73.6742 96.59 73.71L96.69 73.81L96.79 73.9C97.0286 74.3974 97.1022 74.9579 97 75.5C96.9536 75.7571 96.8799 76.0086 96.78 76.25C96.5669 76.8246 96.1831 77.3201 95.68 77.67C95.2471 77.9216 94.7601 78.0656 94.26 78.09C94.26 78.03 94.18 77.96 94.14 77.91C94.043 77.7847 93.9323 77.6707 93.81 77.57C93.7792 77.5342 93.7458 77.5008 93.71 77.47L93.61 77.37C93.5792 77.3342 93.5458 77.3008 93.51 77.27C93.4792 77.2342 93.4458 77.2008 93.41 77.17L93.31 77.07C93.2792 77.0342 93.2458 77.0008 93.21 76.97L93.11 76.87C93.0792 76.8342 93.0458 76.8008 93.01 76.77C92.9792 76.7342 92.9458 76.7008 92.91 76.67L92.81 76.57C92.7792 76.5342 92.7458 76.5008 92.71 76.47L92.61 76.37C92.5792 76.3342 92.5458 76.3008 92.51 76.27C92.4792 76.2342 92.4458 76.2008 92.41 76.17L92.31 76.07C92.2792 76.0342 92.2458 76.0008 92.21 75.97L92.11 75.87C92.0792 75.8342 92.0458 75.8008 92.01 75.77C91.9792 75.7342 91.9458 75.7008 91.91 75.67L91.81 75.57C91.7792 75.5342 91.7458 75.5008 91.71 75.47L91.61 75.37C91.5792 75.3342 91.5458 75.3008 91.51 75.27C91.4792 75.2342 91.4458 75.2008 91.41 75.17L91.31 75.07C91.2792 75.0342 91.2458 75.0008 91.21 74.97L91.11 74.87C91.0792 74.8342 91.0458 74.8008 91.01 74.77C90.9792 74.7342 90.9458 74.7008 90.91 74.67L90.81 74.57C90.7792 74.5342 90.7458 74.5008 90.71 74.47L90.61 74.37C90.5792 74.3342 90.5458 74.3008 90.51 74.27C90.4792 74.2342 90.4458 74.2008 90.41 74.17L90.31 74.07C90.2792 74.0342 90.2458 74.0008 90.21 73.97L90.11 73.87C90.0792 73.8342 90.0458 73.8008 90.01 73.77C89.9792 73.7342 89.9458 73.7008 89.91 73.67L89.81 73.57C89.7792 73.5342 89.7458 73.5008 89.71 73.47L89.61 73.37C89.5792 73.3342 89.5458 73.3008 89.51 73.27C89.4792 73.2342 89.4458 73.2008 89.41 73.17L89.31 73.07C89.2792 73.0342 89.2458 73.0008 89.21 72.97L89.11 72.87C89.0792 72.8342 89.0458 72.8008 89.01 72.77C89.7523 71.5405 90.2608 70.1844 90.51 68.77C90.5842 68.3005 90.6043 67.8241 90.57 67.35C90.7818 67.7288 91.0332 68.0842 91.32 68.41C91.45 68.59 91.66 68.82 91.89 69Z" fill="#303030"/>
<path d="M78.32 53.92C81.97 55.83 84.18 58.54 83.65 61.92C83.1994 64.0507 82.2956 66.0595 81 67.81C78.8843 70.9731 76.545 73.9808 74 76.81C71.9663 79.1579 69.4163 81.0028 66.55 82.2C62.8808 83.4952 58.9975 84.0757 55.11 83.91H41.66C41.1017 83.9392 40.5458 83.8184 40.05 83.56C39.8751 83.4768 39.7282 83.3447 39.627 83.1796C39.5258 83.0145 39.4748 82.8236 39.48 82.63C39.4852 82.4054 39.5362 82.1842 39.63 81.98C39.701 81.7234 39.8516 81.4958 40.06 81.33C40.24 81.19 40.52 81.01 40.89 80.76C41.3711 80.4984 41.8067 80.1607 42.18 79.76C42.5977 79.2385 42.9102 78.6407 43.1 78C45.29 70.74 48.94 63.72 50.52 56.78C50.6035 56.3776 50.6035 55.9624 50.52 55.56C50.4714 55.2378 50.3519 54.9304 50.17 54.66C49.99 54.42 49.76 54.13 49.48 53.8C49.159 53.5332 48.9113 53.189 48.76 52.8C48.7449 52.6203 48.7449 52.4397 48.76 52.26C48.7645 52.062 48.8278 51.8698 48.9418 51.7078C49.0557 51.5458 49.2152 51.4213 49.4 51.35C50.0432 51.1327 50.7222 51.0411 51.4 51.08H65C69.6019 50.962 74.1664 51.9352 78.32 53.92ZM70.85 59.92C70.8716 59.2489 70.73 58.5825 70.4374 57.9781C70.1448 57.3737 69.7099 56.8493 69.17 56.45C68.0866 55.7625 66.8226 55.4143 65.54 55.45H64.37C64.24 63.23 58 70.63 55.22 79.15H56.4C57.7817 79.1373 59.1324 78.739 60.3 78C61.6885 76.9861 62.8783 75.725 63.81 74.28C65.07 72.5 66.73 69.98 68.55 66.8C70.2 63.86 70.92 61.58 70.85 59.88V59.92Z" fill="#F3F3F3"/>
<path d="M103.69 51.48C105.863 52.0365 107.976 52.8035 110 53.77C110.19 53.44 110.36 53.11 110.52 52.77C110.732 52.247 111.041 51.7687 111.43 51.36C111.849 51.072 112.354 50.9378 112.86 50.98C113.673 50.9843 114.473 51.1868 115.19 51.57C115.941 51.9371 116.57 52.5136 117 53.23C117.155 53.5097 117.26 53.8143 117.31 54.13C117.703 56.4541 117.29 58.8427 116.14 60.9C115.87 61.5108 115.454 62.0463 114.93 62.46C114.458 62.7733 113.896 62.9243 113.33 62.89C113.034 62.8999 112.74 62.847 112.466 62.735C112.191 62.623 111.944 62.4543 111.74 62.24C111.34 61.82 110.8 60.96 109.74 59.62C108.846 58.5005 107.742 57.5663 106.49 56.87C105.547 56.3522 104.495 56.0643 103.42 56.03C103.119 56.0038 102.815 56.0531 102.538 56.1736C102.26 56.2941 102.017 56.4819 101.83 56.72C101.466 57.2071 101.308 57.8176 101.39 58.42C101.487 59.2379 101.891 59.9885 102.52 60.52C103.477 61.379 104.478 62.1868 105.52 62.94C106.602 63.7109 107.607 64.585 108.52 65.55C109.237 66.3455 109.697 67.3388 109.84 68.4C109.966 69.7455 109.749 71.101 109.21 72.34C108.86 73.34 108.43 74.34 107.95 75.34C106.76 77.97 105.77 80.17 104.08 81.73C103.143 82.5694 102.049 83.2146 100.861 83.6283C99.6736 84.042 98.4155 84.2159 97.16 84.14C95.1203 84.1705 93.0906 83.8491 91.16 83.19C89.2715 82.4809 87.5242 81.4414 86 80.12C85.45 80.67 84.94 81.23 84.44 81.8C83.9555 82.4219 83.3905 82.9768 82.76 83.45C82.2072 83.7758 81.5704 83.9306 80.9297 83.895C80.2891 83.8594 79.6733 83.635 79.16 83.25C78.9011 83.0424 78.6882 82.7831 78.535 82.4887C78.3817 82.1943 78.2915 81.8712 78.27 81.54C78.2434 81.1447 78.2909 80.7479 78.41 80.37C79.2154 77.6198 80.4507 75.0143 82.07 72.65C82.4852 71.9383 83.0562 71.3297 83.74 70.87C84.312 70.5219 84.9704 70.3417 85.64 70.35C85.9579 70.3299 86.2759 70.3887 86.5656 70.5213C86.8552 70.6539 87.1075 70.8562 87.3 71.11C87.8486 71.9876 88.2822 72.932 88.59 73.92C88.9826 75.1712 89.7045 76.2937 90.68 77.17C91.5391 77.8312 92.596 78.1835 93.68 78.17C94.3761 78.2159 95.0706 78.0596 95.68 77.72C96.1831 77.3701 96.567 76.8746 96.78 76.3C96.8834 76.0426 96.9572 75.7742 97 75.5C97.087 75.1232 97.0881 74.7316 97.0032 74.3542C96.9184 73.9769 96.7499 73.6234 96.51 73.32C95.7701 72.4482 94.9273 71.6692 94 71C93.0188 70.1899 92.0934 69.3146 91.23 68.38C90.518 67.5547 89.9988 66.5811 89.71 65.53C89.3843 64.2201 89.3501 62.8546 89.61 61.53C89.76 60.45 89.97 59.38 90.2 58.32C90.4474 56.3736 91.1723 54.5185 92.31 52.92C93.45 51.49 95.11 50.72 97.9 50.73C99.8533 50.7435 101.798 50.9953 103.69 51.48Z" fill="#F3F3F3"/>
<path d="M119.66 82.55C117.366 81.572 115.419 79.9277 114.07 77.83C113.506 76.81 113.198 75.6686 113.172 74.5035C113.146 73.3383 113.402 72.1842 113.92 71.14C114.971 68.9499 116.273 66.8894 117.8 65C121.52 60.24 123.31 56.55 125.42 54.2C126.423 53.0048 127.686 52.0546 129.112 51.422C130.539 50.7894 132.091 50.4912 133.65 50.55C137.582 50.7043 141.346 52.1846 144.33 54.75C144.69 54.234 145.024 53.7 145.33 53.15C145.717 52.5198 146.208 51.9587 146.78 51.49C147.336 51.1529 147.981 50.9925 148.63 51.03C149.474 51.0182 150.3 51.2738 150.99 51.76C151.665 52.199 152.143 52.8843 152.32 53.67C152.372 54.0181 152.372 54.3719 152.32 54.72C151.999 57.0005 151.209 59.1897 150 61.15C149.531 61.9792 148.898 62.7039 148.14 63.28C147.583 63.6756 146.913 63.8824 146.23 63.87C145.609 63.8981 145 63.687 144.53 63.28C144.002 62.68 143.595 61.984 143.33 61.23C142.9 60.1057 142.215 59.0961 141.33 58.28C140.65 57.6993 139.784 57.3802 138.89 57.38C137.48 57.38 136.23 58.13 134.76 59.59C133.29 61.05 131.49 63.41 128.95 66.59C127.576 68.2091 126.465 70.0349 125.66 72C125.379 72.6024 125.246 73.2628 125.27 73.9269C125.295 74.5909 125.476 75.2398 125.8 75.82C126.378 76.5661 127.226 77.0555 128.161 77.1826C129.096 77.3098 130.044 77.0647 130.8 76.5C131.436 75.7651 131.928 74.917 132.25 74C132.43 73.61 132.63 73.22 132.84 72.84C133.16 72.22 133.38 71.84 133.46 71.6C133.516 71.4778 133.546 71.3447 133.546 71.21C133.546 71.0753 133.516 70.9423 133.46 70.82C133.282 70.6077 133.064 70.4313 132.82 70.3L131.49 69.69C130.91 69.4 130.8 68.9 131.15 68.18C131.234 68.0066 131.331 67.8395 131.44 67.68C131.729 67.319 132.099 67.0312 132.52 66.84C133.031 66.6485 133.576 66.5667 134.12 66.6C138.66 66.69 143.22 66.79 147.83 66.87C148.83 66.87 149.2 67.21 148.91 67.87C148.821 68.0651 148.71 68.2496 148.58 68.42C148.289 68.8395 147.927 69.205 147.51 69.5C147.027 69.8121 146.514 70.0766 145.98 70.29L144.52 70.95C144.209 71.0912 143.914 71.2655 143.64 71.47C143.426 71.6325 143.252 71.841 143.13 72.08C141.49 74.88 140.59 77.77 141.56 81C141.861 81.7507 142.043 82.5434 142.1 83.35C142.02 83.76 141.71 83.96 141.1 83.96H139.02C138.186 83.9501 137.363 83.759 136.61 83.4C135.599 82.8569 134.71 82.1114 134 81.21C133.55 80.69 133.16 80.21 132.8 79.68C131.68 82.57 130.42 84.26 126.8 84.25C124.325 84.2037 121.89 83.6238 119.66 82.55Z" fill="#F3F3F3"/>
<path d="M189.77 52.53C189.775 52.7114 189.759 52.8927 189.72 53.07C189.634 53.3841 189.473 53.6724 189.25 53.91C188.983 54.1632 188.695 54.3939 188.39 54.6C187.908 54.8976 187.471 55.2611 187.09 55.68C186.63 56.212 186.261 56.8169 186 57.47C182.88 65.18 176.56 71.69 176.8 78.78C176.88 80.71 177.13 82.11 176.88 82.92C176.63 83.73 175.88 84.15 174.39 84.15C172.864 84.0929 171.373 83.6748 170.04 82.93C168.265 81.9855 166.66 80.7519 165.29 79.28C160.47 74.07 160.29 69.4 160.04 64.42C156.85 68.99 153.2 73.19 153.12 77.9C153.138 78.2873 153.219 78.669 153.36 79.03C153.519 79.4326 153.761 79.7972 154.07 80.1C154.418 80.4267 154.793 80.7244 155.19 80.99C155.685 81.3018 156.13 81.6861 156.51 82.13C156.634 82.2745 156.741 82.4321 156.83 82.6C157.09 83.09 157.11 83.43 156.83 83.6C156.266 83.8522 155.645 83.9522 155.03 83.89H149.64C149.03 83.9191 148.421 83.8059 147.863 83.5595C147.304 83.313 146.81 82.9401 146.42 82.47C146.285 82.3086 146.17 82.1305 146.08 81.94C146.012 81.8176 145.969 81.683 145.954 81.544C145.939 81.405 145.951 81.2643 145.99 81.13C146.101 80.8894 146.257 80.6722 146.45 80.49C146.754 80.2077 146.999 79.8677 147.17 79.49C147.347 78.948 147.432 78.3801 147.42 77.81C147.67 70.54 156.36 64.54 158.72 56.63C158.494 56.0273 158.236 55.4366 157.95 54.86C157.614 54.2269 157.355 53.5553 157.18 52.86C156.91 51.68 157.3 51.06 158.62 51.06H165.88C166.807 51.0225 167.716 51.3208 168.44 51.9C169.281 52.7155 169.945 53.696 170.39 54.78C172.64 60.1 172.39 64.65 173.63 69.19C175.82 65.46 178.58 61.66 180.37 57.47C180.523 57.0802 180.63 56.6742 180.69 56.26C180.754 55.8777 180.719 55.4854 180.59 55.12C180.444 54.7841 180.256 54.4682 180.03 54.18C179.744 53.8331 179.557 53.4148 179.49 52.97C179.467 52.8008 179.467 52.6292 179.49 52.46C179.516 52.2255 179.601 52.0015 179.738 51.8091C179.874 51.6166 180.057 51.4621 180.27 51.36C180.907 51.1132 181.588 51.0041 182.27 51.04H187.63C189.05 51.09 189.76 51.58 189.77 52.53Z" fill="#F3F3F3"/>
<path d="M191.7 69C190.425 68.4843 189.385 67.5156 188.78 66.28C188.249 65.0299 188.165 63.6352 188.54 62.33C188.692 61.6996 188.899 61.0839 189.16 60.49C189.904 58.6629 190.949 56.9729 192.25 55.49C193.549 53.9498 195.127 52.6675 196.9 51.71C198.645 50.7709 200.598 50.286 202.58 50.3C204.242 50.2721 205.887 50.6388 207.38 51.37C208.683 52.0111 209.789 52.9923 210.58 54.21C211.337 55.4063 211.736 56.7943 211.73 58.21C211.739 58.8298 211.668 59.4481 211.52 60.05C211.129 61.924 210.201 63.6439 208.85 65C207.325 66.5425 205.501 67.7573 203.49 68.57C201.402 69.4469 199.165 69.9154 196.9 69.95C195.118 70.0238 193.341 69.6993 191.7 69ZM203.05 66.55C204.809 65.7421 206.348 64.5249 207.54 63C208.609 61.7079 209.218 60.0965 209.27 58.42C209.321 57.613 209.188 56.805 208.881 56.0568C208.574 55.3085 208.102 54.6395 207.5 54.1C206.109 52.9275 204.315 52.3428 202.5 52.47C200.695 52.4871 198.924 52.9692 197.36 53.87C195.754 54.7783 194.344 55.9949 193.21 57.45C192.109 58.791 191.327 60.3636 190.92 62.05C190.68 62.7929 190.655 63.5882 190.845 64.3451C191.036 65.1019 191.437 65.7898 192 66.33C193.13 67.4 194.89 67.91 197.23 67.87C199.245 67.8428 201.231 67.3788 203.05 66.51V66.55ZM203.42 59.93C204.42 60 204.94 60.46 204.87 61.32C204.81 61.52 204.76 61.72 204.71 61.92C204.66 62.12 204.56 62.42 204.49 62.67L204.41 62.91C204.41 63.18 204.5 63.31 204.76 63.3C204.948 63.2812 205.138 63.2982 205.32 63.35C205.41 63.35 205.42 63.51 205.38 63.67C205.202 64.1055 204.872 64.4612 204.45 64.67C203.809 65.029 203.085 65.2119 202.35 65.2C201.758 65.2564 201.164 65.1158 200.66 64.8C200.465 64.6629 200.315 64.4708 200.229 64.2482C200.144 64.0255 200.127 63.7825 200.18 63.55C200.224 63.2978 200.291 63.0501 200.38 62.81C200.49 62.48 200.61 62.15 200.72 61.81C200.77 61.66 200.83 61.52 200.88 61.37C200.93 60.97 200.59 60.78 199.88 60.8H199.31C198.94 61.65 198.55 62.5 198.16 63.34C198.106 63.409 198.075 63.4927 198.07 63.58C198.05 63.7091 198.067 63.8412 198.118 63.9614C198.169 64.0816 198.253 64.185 198.36 64.26C198.6 64.45 198.69 64.61 198.64 64.74C198.614 64.817 198.569 64.8864 198.51 64.9421C198.45 64.9979 198.378 65.0384 198.3 65.06C198.061 65.1193 197.816 65.1496 197.57 65.15L193.43 65.24C192.8 65.24 192.55 65.08 192.69 64.72C192.843 64.5153 193.046 64.3535 193.28 64.25C193.614 64.0672 193.878 63.7788 194.03 63.43C195.13 61.23 196.19 58.99 197.09 56.68C197.137 56.5476 197.167 56.4099 197.18 56.27C197.194 56.0781 197.141 55.8872 197.03 55.73C196.977 55.6516 196.944 55.5609 196.935 55.4665C196.927 55.372 196.942 55.2769 196.98 55.19C197.001 55.1246 197.035 55.0646 197.082 55.0144C197.129 54.9643 197.186 54.9252 197.25 54.9C197.459 54.8288 197.68 54.7983 197.9 54.81L203.04 54.71C203.948 54.6331 204.856 54.8619 205.62 55.36C205.911 55.5532 206.146 55.8192 206.302 56.1315C206.458 56.4437 206.53 56.7914 206.51 57.14C206.487 57.3644 206.44 57.5857 206.37 57.8C206.145 58.4044 205.743 58.927 205.217 59.2998C204.691 59.6726 204.065 59.8783 203.42 59.89V59.93ZM202.42 57.26C202.447 57.1413 202.445 57.0179 202.416 56.8998C202.386 56.7818 202.329 56.6722 202.25 56.58C202.055 56.4513 201.822 56.3947 201.59 56.42H200.94C200.62 57.42 200.29 58.33 199.94 59.27H200.61C200.97 59.2686 201.32 59.1531 201.61 58.94C201.947 58.6424 202.19 58.2533 202.31 57.82C202.361 57.6238 202.391 57.4226 202.4 57.22L202.42 57.26Z" fill="#F3F3F3"/>
</g>
<defs>
<clipPath id="clip0_0_1263">
<rect width="251.25" height="147.99" fill="white"/>
</clipPath>
</defs>
</svg>
