<svg width="163" height="163" viewBox="0 0 163 163" fill="none" xmlns="http://www.w3.org/2000/svg">
<g clip-path="url(#clip0_0_1285)">
<path d="M81.46 162.92C126.449 162.92 162.92 126.449 162.92 81.46C162.92 36.4709 126.449 0 81.46 0C36.4709 0 0 36.4709 0 81.46C0 126.449 36.4709 162.92 81.46 162.92Z" fill="#F0372E"/>
<path d="M138.08 81.46C138.083 78.6574 137.209 75.9242 135.581 73.6432C133.952 71.3622 131.651 69.6477 129 68.74C130.846 66.6256 131.984 63.9872 132.256 61.1938C132.529 58.4005 131.921 55.5919 130.518 53.161C129.115 50.7301 126.988 48.7985 124.433 47.6364C121.878 46.4744 119.024 46.14 116.27 46.68C116.801 43.9262 116.459 41.0752 115.292 38.5252C114.124 35.9753 112.189 33.8538 109.757 32.4571C107.325 31.0604 104.517 30.4583 101.726 30.7349C98.9354 31.0115 96.3006 32.1531 94.19 34C93.2865 31.3421 91.5735 29.0337 89.2913 27.399C87.0091 25.7643 84.2723 24.8853 81.465 24.8853C78.6577 24.8853 75.9209 25.7643 73.6387 27.399C71.3565 29.0337 69.6434 31.3421 68.74 34C66.6284 32.1611 63.996 31.0264 61.2092 30.7541C58.4224 30.4818 55.6201 31.0853 53.1925 32.4807C50.7649 33.8761 48.8329 35.9938 47.6656 38.5389C46.4983 41.084 46.1537 43.9298 46.68 46.68C43.9298 46.1537 41.084 46.4983 38.5389 47.6656C35.9938 48.8329 33.8761 50.7649 32.4807 53.1925C31.0853 55.6201 30.4818 58.4224 30.7541 61.2092C31.0264 63.996 32.1611 66.6284 34 68.74C31.3421 69.6434 29.0337 71.3565 27.399 73.6387C25.7643 75.9209 24.8853 78.6577 24.8853 81.465C24.8853 84.2723 25.7643 87.0091 27.399 89.2913C29.0337 91.5735 31.3421 93.2865 34 94.19C32.1543 96.3044 31.0158 98.9428 30.7436 101.736C30.4714 104.53 31.0792 107.338 32.482 109.769C33.8847 112.2 36.0123 114.131 38.567 115.294C41.1218 116.456 43.9758 116.79 46.73 116.25C46.1975 118.997 46.5342 121.841 47.6932 124.388C48.8523 126.934 50.7761 129.056 53.1971 130.459C55.6181 131.861 58.416 132.474 61.2016 132.213C63.9872 131.951 66.6222 130.828 68.74 129C69.6483 131.653 71.3632 133.956 73.6448 135.587C75.9264 137.217 78.6606 138.094 81.465 138.094C84.2693 138.094 87.0036 137.217 89.2852 135.587C91.5668 133.956 93.2817 131.653 94.19 129C96.3044 130.846 98.9428 131.984 101.736 132.256C104.53 132.529 107.338 131.921 109.769 130.518C112.2 129.115 114.131 126.988 115.294 124.433C116.456 121.878 116.79 119.024 116.25 116.27C119.009 116.821 121.872 116.493 124.435 115.333C126.999 114.173 129.134 112.238 130.541 109.801C131.949 107.365 132.557 104.548 132.28 101.748C132.004 98.9477 130.856 96.3045 129 94.19C131.652 93.2804 133.954 91.5641 135.582 89.2814C137.21 86.9986 138.084 84.2639 138.08 81.46Z" fill="#E22B2B"/>
<path d="M127.71 81.46C127.71 82.98 127.64 84.46 127.49 86C127.34 87.54 127.12 89 126.82 90.49C126.528 91.9743 126.161 93.4428 125.72 94.89C125.28 96.34 124.72 97.76 124.19 99.16C123.613 100.562 122.965 101.933 122.25 103.27C121.543 104.603 120.767 105.9 119.92 107.16C119.073 108.42 118.173 109.633 117.22 110.8C116.22 111.97 115.22 113.1 114.22 114.16C113.151 115.219 112.026 116.221 110.85 117.16C109.68 118.16 108.47 119.03 107.21 119.87C105.95 120.71 104.65 121.48 103.32 122.2C101.99 122.92 100.61 123.56 99.22 124.14C97.83 124.72 96.39 125.23 94.94 125.67C93.4928 126.111 92.0243 126.478 90.54 126.77C89.05 127.07 87.54 127.29 86.05 127.44C84.56 127.59 83.05 127.66 81.51 127.66C79.97 127.66 78.51 127.59 76.98 127.44C75.45 127.29 73.98 127.07 72.49 126.77C71.0058 126.478 69.5372 126.111 68.09 125.67C66.64 125.23 65.22 124.67 63.82 124.14C62.42 123.61 61 123 59.66 122.25C58.32 121.5 57.03 120.76 55.77 119.92C54.51 119.08 53.3 118.17 52.13 117.21C49.7918 115.285 47.6452 113.138 45.72 110.8C44.7505 109.635 43.8426 108.42 43 107.16C42.16 105.9 41.3834 104.603 40.67 103.27C39.9549 101.933 39.3075 100.562 38.73 99.16C38.15 97.76 37.64 96.34 37.2 94.89C36.7595 93.4428 36.3923 91.9743 36.1 90.49C35.8 89 35.58 87.49 35.43 86C35.28 84.51 35.21 83 35.21 81.46C35.21 79.92 35.28 78.46 35.43 76.93C35.58 75.4 35.8 73.93 36.1 72.44C36.3923 70.9558 36.7595 69.4872 37.2 68.04C37.64 66.59 38.15 65.16 38.73 63.76C39.31 62.36 40 61 40.68 59.66C41.36 58.32 42.17 57 43 55.77C43.8369 54.5086 44.7416 53.2935 45.71 52.13C46.6656 50.9529 47.6837 49.8279 48.76 48.76C49.8283 47.7036 50.9498 46.7023 52.12 45.76C53.2867 44.8 54.5 43.9 55.76 43.06C57.02 42.22 58.3167 41.4434 59.65 40.73C60.9867 40.0149 62.3584 39.3674 63.76 38.79C65.16 38.21 66.58 37.7 68.03 37.26C69.48 36.82 70.95 36.45 72.43 36.15C73.91 35.85 75.43 35.64 76.92 35.49C78.41 35.34 79.92 35.27 81.45 35.27C82.98 35.27 84.45 35.34 85.99 35.49C87.53 35.64 88.99 35.86 90.48 36.15C91.97 36.44 93.48 36.82 94.88 37.26C96.28 37.7 97.75 38.21 99.16 38.79C100.57 39.37 101.92 40.01 103.26 40.73C104.6 41.45 105.89 42.22 107.15 43.06C108.41 43.9 109.62 44.8 110.79 45.76C111.964 46.7022 113.088 47.7035 114.16 48.76C115.23 49.83 116.24 50.95 117.16 52.13C118.122 53.2961 119.023 54.511 119.86 55.77C120.7 57.03 121.477 58.3267 122.19 59.66C122.91 61 123.55 62.37 124.13 63.76C124.71 65.15 125.22 66.59 125.66 68.04C126.101 69.4872 126.468 70.9558 126.76 72.44C127.06 73.93 127.28 75.44 127.43 76.93C127.58 78.42 127.71 80 127.71 81.46Z" fill="#F0372E"/>
<path d="M30.14 69.38C28.9722 68.4094 27.9188 67.309 27 66.1C27.68 65.62 28.35 65.1 29 64.6C29.6248 65.4086 30.3431 66.1404 31.14 66.78C31.8007 67.3323 32.526 67.8024 33.3 68.18C33.7129 68.3981 34.173 68.5114 34.64 68.51C34.95 68.51 35.11 68.32 35.11 68.06C35.1043 67.8485 35.0227 67.6462 34.88 67.49C34.7049 67.2966 34.4852 67.149 34.24 67.06L33.68 66.84L33.17 66.65C32.4588 66.4092 31.7669 66.115 31.1 65.77C30.0326 65.2215 29.087 64.463 28.32 63.54C27.6473 62.7642 27.2686 61.7767 27.25 60.75C27.25 59.61 27.78 59.09 28.85 59.11C30.4913 59.3238 32.0823 59.8248 33.55 60.59C34.6124 61.0602 35.6385 61.6083 36.62 62.23C37.615 62.8326 38.5377 63.5473 39.37 64.36C38.63 64.9133 37.89 65.4433 37.15 65.95C36.5178 65.3903 35.8497 64.8726 35.15 64.4C34.5407 64.0023 33.9022 63.6513 33.24 63.35C32.8799 63.17 32.4825 63.0775 32.08 63.08C31.76 63.08 31.6 63.23 31.6 63.46C31.6064 63.6539 31.6767 63.8402 31.8 63.99C31.9422 64.1662 32.1237 64.3066 32.33 64.4C32.6248 64.5406 32.9288 64.6609 33.24 64.76C34.17 65.12 34.87 65.36 35.34 65.54C36.4683 65.9223 37.5185 66.505 38.44 67.26C38.7859 67.5503 39.0637 67.913 39.2538 68.3226C39.4439 68.7321 39.5416 69.1785 39.54 69.63C39.54 71.02 39 71.9 37.92 72.2C36.3903 72.4587 34.8179 72.202 33.45 71.47C32.256 70.9286 31.1422 70.2253 30.14 69.38Z" fill="#F5F5F5"/>
<path d="M52.58 69.32C52.58 71.22 52.58 72.98 52.71 74.61H50.77H48.77C48.58 73.61 48.4 72.71 48.21 71.75C48.0284 72.6291 47.5565 73.4216 46.87 74C46.238 74.458 45.4524 74.6517 44.68 74.54C43.9527 74.4544 43.2619 74.1746 42.68 73.73C42.1277 73.2983 41.6884 72.7389 41.4 72.1C41.1161 71.4715 40.9695 70.7896 40.97 70.1V67.31C40.97 65.59 40.97 64.21 40.87 63.16C42.3027 63.4777 43.7515 63.718 45.21 63.88C45.13 65.76 45.09 67.63 45.09 69.49C45.068 69.9907 45.216 70.4841 45.51 70.89C45.6243 71.0546 45.7728 71.1925 45.9454 71.2944C46.118 71.3962 46.3106 71.4595 46.51 71.48C46.7173 71.497 46.9255 71.462 47.1158 71.3781C47.3062 71.2943 47.4726 71.1643 47.6 71C47.9256 70.591 48.1176 70.0917 48.15 69.57V69.12C48.15 68.12 48.15 67.42 48.15 67.03C48.15 66.15 48.15 65.16 48.08 64.03C49.6123 64.11 51.1477 64.11 52.68 64.03C52.62 65.68 52.58 67.44 52.58 69.32Z" fill="#F5F5F5"/>
<path d="M61.77 73.4C61.84 71.49 61.88 69.74 61.88 68.14C61.9153 67.6793 61.7681 67.2231 61.47 66.87C61.3407 66.7418 61.1818 66.6474 61.0075 66.5951C60.8331 66.5428 60.6485 66.5342 60.47 66.57C60.2473 66.6155 60.0365 66.7065 59.8506 66.8372C59.6648 66.968 59.508 67.1358 59.39 67.33C59.0482 67.8227 58.8508 68.4011 58.82 69C58.82 70 58.82 70.68 58.82 71.1C58.82 71.97 58.82 72.93 58.9 73.97C57.36 74.21 55.83 74.41 54.29 74.54C54.39 72.67 54.45 70.91 54.45 69.26C54.45 67.61 54.39 65.85 54.29 63.98C55.14 63.98 55.79 63.89 56.29 63.84C56.79 63.79 57.41 63.68 58.23 63.52C58.42 64.44 58.61 65.36 58.79 66.27C59.0205 65.3212 59.5004 64.4512 60.18 63.75C60.7832 63.1533 61.548 62.7466 62.38 62.58C63.0383 62.4055 63.7332 62.4264 64.38 62.64C64.9229 62.8338 65.3775 63.2174 65.66 63.72C65.9257 64.2845 66.0428 64.9075 66 65.53V68.32C66 70.03 66 71.4 66.1 72.41C64.66 72.78 63.21 73.11 61.77 73.4Z" fill="#F5F5F5"/>
<path d="M71.86 59.61C71.854 59.6971 71.876 59.7839 71.9228 59.8576C71.9695 59.9314 72.0386 59.9883 72.12 60.02C72.3529 60.1024 72.607 60.1024 72.84 60.02C73.69 59.76 74.54 59.5 75.39 59.22V62.65C74.32 62.9 73.47 63.11 72.84 63.29C72.84 65.69 72.8933 68.0933 73 70.5C71.48 70.97 70 71.42 68.43 71.83C68.43 70.31 68.43 67.9133 68.43 64.64C68.16 64.72 67.7 64.88 67.04 65.11V61.64L68.41 61.27V60.91C68.3944 59.9785 68.5959 59.0562 68.9986 58.2161C69.4013 57.376 69.9941 56.6413 70.73 56.07C71.4742 55.4834 72.3224 55.0424 73.23 54.77C73.9723 54.5378 74.7426 54.4066 75.52 54.38C75.26 55.38 75.01 56.66 74.75 58.16L74.63 58.78C74.3445 58.6219 74.026 58.5329 73.7 58.52C73.386 58.5034 73.0714 58.5406 72.77 58.63C72.5595 58.6876 72.3624 58.7861 72.19 58.92C72.0461 59.025 71.9379 59.1716 71.88 59.34C71.8558 59.4278 71.849 59.5196 71.86 59.61ZM81.2 63.61C81.2 65.53 81.2 66.92 81.2 67.77C79.69 68.28 78.2 68.77 76.66 69.27C76.66 68.54 76.66 67.81 76.66 67.08C76.66 64.68 76.66 62.82 76.66 61.52C76.66 60.22 76.66 58.52 76.66 56.27V54.19L81.2 52.69C81.2 54.53 81.2 56.03 81.2 57.19C81.2 58.35 81.2 59.43 81.2 60.05C81.2 60.67 81.2 62 81.2 63.62V63.61Z" fill="#F5F5F5"/>
<path d="M84.14 65.5C83.5974 65.1038 83.1685 64.5718 82.8964 63.9575C82.6243 63.3432 82.5187 62.6681 82.59 62C82.592 60.3877 83.1382 58.8232 84.14 57.56C85.4061 56.0657 87.1039 55.0002 89 54.51C90.1857 54.0766 91.4601 53.9427 92.71 54.12C93.1474 54.1821 93.5677 54.3319 93.9457 54.5605C94.3238 54.789 94.6518 55.0916 94.91 55.45C95.3993 56.2081 95.6437 57.0983 95.61 58C95.6355 59.6363 95.0631 61.2257 94 62.47C92.6546 63.9276 90.9193 64.9688 89 65.47C86.79 66.14 85.18 66.17 84.14 65.5ZM90.93 61C91.3369 60.4926 91.5559 59.8603 91.55 59.21C91.5714 58.9478 91.5257 58.6844 91.4173 58.4447C91.3088 58.2051 91.1411 57.9969 90.93 57.84C90.638 57.7006 90.3186 57.6282 89.995 57.6282C89.6715 57.6282 89.352 57.7006 89.06 57.84C88.3432 58.0246 87.7029 58.4305 87.23 59C86.857 59.5069 86.6571 60.1206 86.66 60.75C86.6307 61.0153 86.6674 61.2838 86.7668 61.5315C86.8662 61.7792 87.0254 61.9986 87.23 62.17C87.5144 62.311 87.8276 62.3843 88.145 62.3843C88.4625 62.3843 88.7756 62.311 89.06 62.17C89.7883 61.9804 90.441 61.572 90.93 61Z" fill="#F5F5F5"/>
<path d="M106.88 58.16C107.44 55.5733 107.993 52.9933 108.54 50.42C109.82 50.3133 111.1 50.2533 112.38 50.24C111.66 53.76 110.947 57.3 110.24 60.86C108.52 60.95 106.81 61.12 105.09 61.37C104.69 59.78 104.28 58.2 103.88 56.62C103.42 58.34 102.97 60.06 102.51 61.78C100.86 62.08 99.21 62.44 97.51 62.84C96.7967 59.5067 96.0833 56.1733 95.37 52.84C96.65 52.5 97.93 52.18 99.21 51.9C99.75 54.3 100.3 56.7 100.84 59.11C101.22 56.51 101.593 53.9167 101.96 51.33C103.23 51.09 104.49 50.89 105.76 50.72C106.153 53.1933 106.527 55.6733 106.88 58.16Z" fill="#F5F5F5"/>
<path d="M122.37 57C120.306 56.505 118.206 56.1707 116.09 56C116.184 56.5514 116.45 57.059 116.85 57.45C117.334 57.8722 117.94 58.1281 118.58 58.18C119.088 58.2518 119.604 58.2212 120.1 58.09C120.54 57.9843 120.938 57.7471 121.24 57.41C122.1 58.01 123.24 58.73 124.67 59.64C124.445 60.0452 124.134 60.3965 123.759 60.6694C123.384 60.9422 122.955 61.1301 122.5 61.22C121.149 61.4935 119.758 61.5105 118.4 61.27C116.627 61.1856 114.929 60.5295 113.56 59.4C113.035 58.8791 112.623 58.2543 112.353 57.5656C112.083 56.8768 111.959 56.1393 111.99 55.4C111.96 54.6737 112.084 53.9494 112.353 53.274C112.622 52.5986 113.029 51.9874 113.55 51.48C114.55 50.48 116.21 50.04 118.4 50.32C119.62 50.4607 120.788 50.8891 121.81 51.57C122.726 52.1903 123.478 53.0243 124 54C124.502 54.8843 124.767 55.8832 124.77 56.9C124.79 57.1463 124.79 57.3937 124.77 57.64C124 57.44 123.17 57.23 122.37 57ZM117.09 53.5C116.694 53.6876 116.386 54.0208 116.23 54.43C117.753 54.5497 119.269 54.7533 120.77 55.04C120.626 54.5998 120.367 54.2061 120.02 53.9C119.642 53.5697 119.17 53.3668 118.67 53.32C118.133 53.2293 117.582 53.3061 117.09 53.54V53.5Z" fill="#F5F5F5"/>
<path d="M130.62 57.12C131.16 55.44 132.5 55.12 134.62 56.43C134.993 56.6628 135.351 56.9201 135.69 57.2C135.49 58.51 135.28 59.82 135.08 61.13C134.406 60.4034 133.639 59.768 132.8 59.24C132.07 58.83 131.53 58.78 131.19 59.04C130.994 59.2332 130.845 59.469 130.755 59.7292C130.664 59.9894 130.635 60.2668 130.67 60.54V61.81C130.67 62.72 130.67 63.75 130.74 64.9C129.249 64.166 127.712 63.528 126.14 62.99C126.24 61.16 126.29 59.43 126.29 57.78C126.29 56.13 126.29 54.34 126.14 52.43L128.09 53.21L130 54C130.23 55 130.43 56.07 130.62 57.12Z" fill="#F5F5F5"/>
<path d="M30.14 88.83C28.9773 87.854 27.9244 86.7542 27 85.55C27.68 85.07 28.35 84.55 29 84.05C29.6274 84.8564 30.3454 85.5878 31.14 86.23C31.8007 86.7823 32.526 87.2524 33.3 87.63C33.7132 87.8462 34.1737 87.9562 34.64 87.95C34.95 87.95 35.11 87.77 35.11 87.51C35.1062 87.2982 35.0243 87.0952 34.88 86.94C34.7049 86.7467 34.4852 86.599 34.24 86.51L33.68 86.28L33.17 86.1C32.4587 85.8557 31.7667 85.5582 31.1 85.21C30.0426 84.6679 29.1069 83.916 28.35 83C27.6759 82.2211 27.2971 81.23 27.28 80.2C27.28 79.07 27.81 78.55 28.88 78.56C30.5185 78.7629 32.109 79.2502 33.58 80C34.6423 80.4666 35.6684 81.0115 36.65 81.63C37.6448 82.2484 38.5672 82.9763 39.4 83.8C38.66 84.36 37.92 84.89 37.18 85.4C36.5502 84.8344 35.8819 84.3131 35.18 83.84C34.5693 83.4592 33.9309 83.1249 33.27 82.84C32.9116 82.6556 32.513 82.5628 32.11 82.57C31.79 82.57 31.63 82.71 31.63 82.95C31.6364 83.1409 31.7068 83.3241 31.83 83.47C31.9745 83.6464 32.1553 83.7896 32.36 83.89C32.58 83.99 32.88 84.11 33.27 84.25C34.2 84.61 34.9 84.85 35.37 85.03C36.5 85.4085 37.5508 85.9915 38.47 86.75C38.8159 87.0403 39.0937 87.403 39.2838 87.8126C39.4739 88.2222 39.5716 88.6685 39.57 89.12C39.652 89.6714 39.5337 90.2338 39.2364 90.7053C38.9392 91.1769 38.4828 91.5262 37.95 91.69C36.4203 91.9488 34.8479 91.692 33.48 90.96C32.2731 90.4086 31.149 89.6917 30.14 88.83Z" fill="#F5F5F5"/>
<path d="M52.58 88.77C52.58 90.66 52.58 92.43 52.71 94.06H50.77L48.77 94.11C48.58 93.11 48.4 92.21 48.21 91.25C48.009 92.125 47.5194 92.907 46.82 93.47C46.1866 93.9245 45.4011 94.1146 44.63 94C43.9027 93.9212 43.211 93.6445 42.63 93.2C42.0777 92.7683 41.6384 92.2089 41.35 91.57C41.067 90.9412 40.9204 90.2595 40.92 89.57V86.75C40.92 85.04 40.92 83.66 40.82 82.61C42.2529 82.9244 43.7016 83.1614 45.16 83.32C45.08 85.21 45.04 87.08 45.04 88.94C45.0195 89.4374 45.1674 89.9272 45.46 90.33C45.5723 90.4974 45.7201 90.638 45.893 90.7417C46.0658 90.8454 46.2594 90.9097 46.46 90.93C46.659 90.9426 46.8582 90.9075 47.0408 90.8274C47.2235 90.7474 47.3844 90.6249 47.51 90.47C47.8752 90.0612 48.0996 89.5459 48.15 89V88.56C48.15 87.56 48.15 86.86 48.15 86.47C48.15 85.58 48.15 84.59 48.08 83.47C49.61 83.53 51.15 83.47 52.68 83.47C52.62 85.13 52.58 86.89 52.58 88.77Z" fill="#F5F5F5"/>
<path d="M61.77 92.85C61.84 90.94 61.88 89.19 61.88 87.59C61.9154 87.1293 61.7681 86.6731 61.47 86.32C61.3407 86.1915 61.1822 86.0962 61.0081 86.0422C60.834 85.9882 60.6494 85.9772 60.47 86.01C60.2461 86.0555 60.0342 86.1476 59.8482 86.2802C59.6621 86.4129 59.506 86.5831 59.39 86.78C59.0712 87.2694 58.8914 87.8363 58.87 88.42C58.87 89.42 58.87 90.1 58.87 90.51C58.87 91.39 58.87 92.35 58.95 93.38C57.41 93.63 55.88 93.82 54.34 93.95C54.44 92.09 54.5 90.33 54.5 88.68C54.5 87.03 54.44 85.27 54.34 83.39C55.19 83.39 55.84 83.31 56.34 83.25C56.84 83.19 57.46 83.09 58.28 82.93C58.47 83.85 58.66 84.77 58.84 85.69C59.068 84.7373 59.5481 83.8634 60.23 83.16C60.7986 82.5935 61.5108 82.1925 62.29 82C62.9499 81.8339 63.6434 81.8581 64.29 82.07C64.83 82.2637 65.2837 82.6429 65.57 83.14C65.874 83.7116 66.0223 84.353 66 85V87.78C66 89.5 66 90.86 66.1 91.88C64.66 92.22 63.21 92.56 61.77 92.85Z" fill="#F5F5F5"/>
<path d="M71.86 79.05C71.8518 79.1388 71.8727 79.2278 71.9196 79.3036C71.9665 79.3793 72.0369 79.4378 72.12 79.47C72.3537 79.5478 72.6063 79.5478 72.84 79.47L75.39 78.67V82.09C74.32 82.35 73.47 82.56 72.84 82.74C72.84 85.1267 72.8933 87.5267 73 89.94C71.48 90.41 70 90.86 68.43 91.28C68.43 89.76 68.43 87.36 68.43 84.08L67.04 84.55V81.09L68.41 80.72V80.35C68.3992 79.4007 68.6115 78.4622 69.03 77.61C69.4348 76.7932 70.0154 76.0761 70.73 75.51C71.4771 74.9303 72.3246 74.4931 73.23 74.22C73.9719 73.9845 74.7421 73.8499 75.52 73.82C75.26 74.82 75.01 76.11 74.75 77.61L74.63 78.23C74.3445 78.0719 74.026 77.9829 73.7 77.97C73.3865 77.9504 73.0721 77.9842 72.77 78.07C72.5571 78.1265 72.3591 78.2289 72.19 78.37C72.0442 78.473 71.9354 78.6203 71.88 78.79C71.8566 78.8746 71.8498 78.9629 71.86 79.05ZM81.2 83.05C81.2 84.97 81.2 86.36 81.2 87.21L76.66 88.71C76.66 87.98 76.66 87.25 76.66 86.52C76.66 84.11 76.66 82.26 76.66 80.95C76.66 79.64 76.66 77.95 76.66 75.71V73.62L81.2 72.13C81.2 73.97 81.2 75.46 81.2 76.63C81.2 77.8 81.2 78.87 81.2 79.48C81.21 80.28 81.2 81.47 81.2 83.07V83.05Z" fill="#F5F5F5"/>
<path d="M84.14 85C83.6012 84.6026 83.1749 84.072 82.9032 83.4601C82.6315 82.8482 82.5235 82.1762 82.59 81.51C82.5729 79.8732 83.1203 78.2804 84.14 77C85.4105 75.5211 87.1086 74.4729 89 74C90.1851 73.5641 91.4593 73.4267 92.71 73.6C93.1473 73.666 93.5671 73.8186 93.9448 74.0486C94.3226 74.2787 94.6507 74.5817 94.91 74.94C95.4068 75.7026 95.6548 76.6005 95.62 77.51C95.6303 79.1244 95.0547 80.6877 94 81.91C92.66 83.3743 90.9226 84.4167 89 84.91C86.79 85.59 85.18 85.62 84.14 85ZM90.93 80.47C91.3354 79.9619 91.5543 79.33 91.55 78.68C91.5714 78.4178 91.5257 78.1544 91.4173 77.9148C91.3088 77.6751 91.1411 77.4669 90.93 77.31C90.6386 77.1684 90.3189 77.0949 89.995 77.0949C89.6711 77.0949 89.3514 77.1684 89.06 77.31C88.3406 77.5 87.7 77.9131 87.23 78.49C86.8557 78.9963 86.6557 79.6103 86.66 80.24C86.6324 80.5052 86.6699 80.7731 86.7693 81.0205C86.8686 81.268 87.0267 81.4875 87.23 81.66C87.5151 81.7988 87.828 81.8709 88.145 81.8709C88.4621 81.8709 88.775 81.7988 89.06 81.66C89.7972 81.4514 90.451 81.0179 90.93 80.42V80.47Z" fill="#F5F5F5"/>
<path d="M106.88 77.6C107.44 75.02 107.993 72.44 108.54 69.86C109.82 69.76 111.1 69.69 112.38 69.68C111.66 73.2267 110.947 76.77 110.24 80.31C108.52 80.39 106.81 80.57 105.09 80.81L103.88 76.06C103.42 77.78 102.97 79.5 102.51 81.23C100.86 81.53 99.21 81.89 97.51 82.29C96.7967 78.9567 96.0833 75.6233 95.37 72.29C96.65 71.95 97.93 71.63 99.21 71.29C99.75 73.69 100.3 76.1 100.84 78.51C101.22 75.91 101.59 73.32 101.96 70.72C103.23 70.49 104.49 70.28 105.76 70.12C106.153 72.6267 106.527 75.12 106.88 77.6Z" fill="#F5F5F5"/>
<path d="M122.37 76.49C120.306 75.995 118.206 75.6607 116.09 75.49C116.188 76.0399 116.454 76.5462 116.85 76.94C117.335 77.3585 117.941 77.6109 118.58 77.66C119.087 77.7398 119.604 77.7126 120.1 77.58C120.541 77.471 120.939 77.2303 121.24 76.89C122.1 77.5 123.24 78.21 124.67 79.13C124.444 79.5338 124.133 79.8834 123.758 80.1546C123.384 80.4257 122.954 80.6119 122.5 80.7C121.149 80.9788 119.757 80.9958 118.4 80.75C116.626 80.6706 114.927 80.0139 113.56 78.88C113.033 78.3602 112.621 77.7356 112.351 77.0466C112.08 76.3575 111.957 75.6194 111.99 74.88C111.968 74.1606 112.096 73.4446 112.364 72.7769C112.633 72.1092 113.037 71.5042 113.55 71C114.55 70 116.21 69.57 118.4 69.85C119.62 69.9907 120.788 70.4191 121.81 71.1C122.719 71.708 123.469 72.5239 124 73.48C124.5 74.3688 124.765 75.3703 124.77 76.39C124.79 76.6362 124.79 76.8837 124.77 77.13C124 76.89 123.17 76.67 122.37 76.49ZM117.09 73C116.692 73.185 116.383 73.5191 116.23 73.93C117.754 74.0414 119.27 74.2417 120.77 74.53C120.623 74.094 120.365 73.7043 120.02 73.4C119.64 73.0706 119.17 72.8647 118.67 72.81C118.136 72.715 117.586 72.7811 117.09 73Z" fill="#F5F5F5"/>
<path d="M130.62 76.56C131.16 74.89 132.5 74.56 134.62 75.88C134.993 76.1128 135.351 76.3701 135.69 76.65C135.49 77.96 135.28 79.27 135.08 80.58C134.409 79.8501 133.642 79.2143 132.8 78.69C132.07 78.28 131.53 78.22 131.19 78.49C130.993 78.6823 130.843 78.918 130.752 79.1784C130.662 79.4388 130.634 79.7167 130.67 79.99V81.25C130.67 82.17 130.67 83.25 130.74 84.35C129.249 83.6127 127.713 82.9714 126.14 82.43C126.24 80.61 126.29 78.88 126.29 77.23C126.29 75.58 126.29 73.79 126.14 71.87C126.99 72.2 127.64 72.48 128.09 72.66C128.54 72.84 129.21 73.1 130.03 73.45C130.23 74.47 130.43 75.52 130.62 76.56Z" fill="#F5F5F5"/>
<path d="M30.14 108.28C28.9753 107.306 27.9222 106.206 27 105C27.68 104.53 28.35 104 29 103.51C29.6274 104.316 30.3454 105.048 31.14 105.69C31.8006 106.24 32.526 106.707 33.3 107.08C33.7129 107.298 34.173 107.411 34.64 107.41C34.95 107.41 35.11 107.22 35.11 106.97C35.1058 106.755 35.0241 106.549 34.88 106.39C34.7022 106.2 34.4833 106.053 34.24 105.96L33.68 105.74L33.17 105.55C32.4572 105.314 31.7649 105.019 31.1 104.67C30.0331 104.125 29.0874 103.37 28.32 102.45C27.6473 101.67 27.2688 100.68 27.25 99.65C27.25 98.51 27.78 97.99 28.85 98.01C30.4916 98.2286 32.0823 98.7329 33.55 99.5C34.6142 99.9626 35.6406 100.508 36.62 101.13C37.615 101.733 38.5377 102.447 39.37 103.26C38.63 103.82 37.89 104.35 37.15 104.85C36.5178 104.29 35.8497 103.773 35.15 103.3C34.5407 102.902 33.9022 102.551 33.24 102.25C32.8799 102.07 32.4825 101.978 32.08 101.98C31.76 101.98 31.6 102.13 31.6 102.36C31.6064 102.554 31.6767 102.74 31.8 102.89C31.9422 103.066 32.1237 103.207 32.33 103.3C32.6262 103.44 32.93 103.564 33.24 103.67L35.34 104.44C36.4683 104.822 37.5185 105.405 38.44 106.16C38.7859 106.45 39.0637 106.813 39.2538 107.223C39.4439 107.632 39.5416 108.078 39.54 108.53C39.54 109.92 39 110.8 37.92 111.1C36.3903 111.367 34.8154 111.109 33.45 110.37C32.2556 109.829 31.1417 109.126 30.14 108.28Z" fill="#F5F5F5"/>
<path d="M52.58 108.21C52.58 110.11 52.58 111.87 52.71 113.51H50.77C50.32 113.51 49.67 113.51 48.77 113.51C48.58 112.51 48.4 111.6 48.21 110.65C48.0089 111.525 47.5193 112.307 46.82 112.87C46.1866 113.325 45.4011 113.515 44.63 113.4C43.9017 113.318 43.2099 113.038 42.63 112.59C42.0962 112.166 41.6711 111.621 41.39 111C41.1084 110.371 40.9619 109.689 40.96 109V106.2C40.96 104.48 40.96 103.1 40.86 102.06C42.2929 102.374 43.7416 102.611 45.2 102.77C45.12 104.65 45.08 106.53 45.08 108.38C45.0579 108.881 45.206 109.374 45.5 109.78C45.6137 109.946 45.762 110.086 45.9345 110.189C46.1071 110.293 46.3 110.358 46.5 110.38C46.6997 110.391 46.8992 110.354 47.0818 110.272C47.2643 110.19 47.4248 110.066 47.55 109.91C47.8756 109.501 48.0676 109.002 48.1 108.48V108C48.1 107 48.1 106.3 48.1 105.92C48.1 105.03 48.1 104.04 48.03 102.92C49.56 102.98 51.1 102.92 52.63 102.92C52.62 104.58 52.58 106.33 52.58 108.21Z" fill="#F5F5F5"/>
<path d="M61.77 112.3C61.84 110.39 61.88 108.63 61.88 107.03C61.9132 106.57 61.7662 106.114 61.47 105.76C61.3407 105.632 61.1819 105.537 61.0075 105.485C60.8331 105.433 60.6485 105.424 60.47 105.46C60.2474 105.506 60.0365 105.596 59.8507 105.727C59.6648 105.858 59.508 106.026 59.39 106.22C59.0725 106.71 58.8929 107.277 58.87 107.86C58.87 108.86 58.87 109.55 58.87 109.96C58.87 110.83 58.87 111.79 58.95 112.83C57.41 113.08 55.88 113.27 54.34 113.4C54.44 111.53 54.5 109.77 54.5 108.13C54.5 106.49 54.44 104.71 54.34 102.84C55.19 102.84 55.84 102.75 56.34 102.7C56.84 102.65 57.46 102.54 58.28 102.38C58.47 103.3 58.66 104.22 58.84 105.14C59.068 104.187 59.5481 103.313 60.23 102.61C60.8332 102.013 61.5981 101.607 62.43 101.44C63.0899 101.274 63.7834 101.298 64.43 101.51C64.9718 101.701 65.4264 102.081 65.71 102.58C66.0119 103.145 66.1602 103.78 66.14 104.42V107.21C66.14 108.92 66.14 110.29 66.24 111.3C64.66 111.67 63.21 112 61.77 112.3Z" fill="#F5F5F5"/>
<path d="M71.86 98.5C71.854 98.5871 71.876 98.6739 71.9228 98.7476C71.9695 98.8214 72.0386 98.8783 72.12 98.91C72.3536 98.9885 72.6064 98.9885 72.84 98.91L75.39 98.11V101.53C74.32 101.78 73.47 101.99 72.84 102.17C72.84 104.57 72.8933 106.973 73 109.38C71.48 109.85 70 110.3 68.43 110.72C68.43 109.187 68.43 106.787 68.43 103.52L67.04 103.99V100.57L68.41 100.2V99.8C68.3969 98.8505 68.6094 97.9114 69.03 97.06C69.4348 96.2432 70.0154 95.5261 70.73 94.96C71.479 94.3809 72.3257 93.9406 73.23 93.66C73.9735 93.4325 74.7431 93.3014 75.52 93.27C75.26 94.27 75.01 95.56 74.75 97.06L74.63 97.67C74.3428 97.5162 74.0253 97.4274 73.7 97.41C73.386 97.3934 73.0714 97.4306 72.77 97.52C72.5595 97.5776 72.3624 97.6762 72.19 97.81C72.0454 97.9185 71.9372 98.0685 71.88 98.24C71.8566 98.3246 71.8498 98.4129 71.86 98.5ZM81.2 102.5C81.2 104.42 81.2 105.81 81.2 106.67L76.66 108.16C76.66 107.43 76.66 106.7 76.66 105.97C76.66 103.57 76.66 101.71 76.66 100.41C76.66 99.11 76.66 97.41 76.66 95.16V93.08C78.17 92.59 79.66 92.08 81.2 91.58C81.2 93.42 81.2 94.92 81.2 96.08C81.2 97.24 81.2 98.32 81.2 98.94C81.2 99.56 81.2 100.91 81.2 102.51V102.5Z" fill="#F5F5F5"/>
<path d="M84.14 104.39C83.6005 103.996 83.1736 103.467 82.9017 102.856C82.6297 102.246 82.5223 101.575 82.59 100.91C82.5921 99.2977 83.1382 97.7333 84.14 96.47C85.4063 94.9718 87.1032 93.8999 89 93.4C90.1818 92.9649 91.4526 92.8275 92.7 93C93.1373 93.066 93.5571 93.2186 93.9348 93.4486C94.3126 93.6787 94.6407 93.9817 94.9 94.34C95.3972 95.0987 95.6454 95.9936 95.61 96.9C95.635 98.5332 95.0624 100.119 94 101.36C92.6546 102.818 90.9193 103.859 89 104.36C86.79 105 85.18 105.06 84.14 104.39ZM90.93 99.86C91.3384 99.3535 91.5576 98.7206 91.55 98.07C91.5714 97.8078 91.5258 97.5444 91.4173 97.3048C91.3088 97.0651 91.1411 96.857 90.93 96.7C90.6379 96.5613 90.3185 96.4893 89.995 96.4893C89.6716 96.4893 89.3522 96.5613 89.06 96.7C88.3417 96.8867 87.701 97.2963 87.23 97.87C86.8556 98.38 86.6557 98.9973 86.66 99.63C86.6325 99.8952 86.6699 100.163 86.7693 100.411C86.8686 100.658 87.0268 100.877 87.23 101.05C87.5159 101.186 87.8285 101.257 88.145 101.257C88.4616 101.257 88.7742 101.186 89.06 101.05C89.7922 100.858 90.446 100.442 90.93 99.86Z" fill="#F5F5F5"/>
<path d="M106.88 97.05C107.44 94.4567 107.993 91.8767 108.54 89.31C109.82 89.2033 111.1 89.1433 112.38 89.13C111.66 92.6633 110.947 96.2033 110.24 99.75C108.52 99.84 106.81 100.01 105.09 100.26C104.69 98.67 104.28 97.09 103.88 95.51C103.42 97.23 102.97 98.95 102.51 100.68C100.857 100.98 99.19 101.333 97.51 101.74C96.7967 98.4067 96.0833 95.0733 95.37 91.74C96.65 91.4 97.93 91.09 99.21 90.8C99.75 93.2 100.3 95.6 100.84 98.01C101.22 95.42 101.59 92.82 101.96 90.23C103.23 89.99 104.49 89.79 105.76 89.62C106.17 92.08 106.53 94.57 106.88 97.05Z" fill="#F5F5F5"/>
<path d="M122.37 95.93C120.307 95.4301 118.207 95.0957 116.09 94.93C116.187 95.4776 116.452 95.9812 116.85 96.37C117.334 96.7922 117.94 97.0481 118.58 97.1C119.087 97.175 119.604 97.1478 120.1 97.02C120.541 96.911 120.939 96.6703 121.24 96.33C122.1 96.93 123.24 97.65 124.67 98.56C124.446 98.9665 124.136 99.3188 123.761 99.5919C123.386 99.8649 122.955 100.052 122.5 100.14C121.145 100.397 119.755 100.397 118.4 100.14C116.627 100.056 114.929 99.3995 113.56 98.27C113.034 97.7495 112.623 97.1247 112.352 96.4359C112.082 95.7471 111.959 95.0093 111.99 94.27C111.96 93.5422 112.084 92.8163 112.352 92.1393C112.621 91.4623 113.029 90.8493 113.55 90.34C114.22 89.7956 115.003 89.4087 115.843 89.2079C116.682 89.0071 117.556 88.9976 118.4 89.18C119.619 89.3285 120.787 89.76 121.81 90.44C122.735 91.0763 123.487 91.9318 124 92.93C124.501 93.8148 124.766 94.8134 124.77 95.83C124.791 96.0762 124.791 96.3238 124.77 96.57C124 96.33 123.17 96.12 122.37 95.93ZM117.09 92.43C116.696 92.6201 116.389 92.9524 116.23 93.36C117.753 93.4797 119.269 93.6833 120.77 93.97C120.623 93.534 120.365 93.1443 120.02 92.84C119.64 92.5106 119.17 92.3048 118.67 92.25C118.137 92.1519 117.587 92.2145 117.09 92.43Z" fill="#F5F5F5"/>
<path d="M130.62 96C131.16 94.32 132.5 94 134.62 95.31C134.993 95.5462 135.351 95.8068 135.69 96.09C135.49 97.39 135.28 98.7 135.08 100.01C134.409 99.2829 133.642 98.6505 132.8 98.13C132.07 97.72 131.53 97.66 131.19 97.92C130.994 98.1132 130.845 98.349 130.755 98.6092C130.664 98.8694 130.635 99.1468 130.67 99.42V100.69C130.67 101.6 130.67 102.64 130.74 103.78C129.247 103.05 127.711 102.412 126.14 101.87C126.24 100.05 126.29 98.31 126.29 96.66C126.29 95.01 126.29 93.23 126.14 91.31C126.99 91.64 127.64 91.91 128.09 92.09L130.03 92.88C130.23 93.92 130.43 95 130.62 96Z" fill="#F5F5F5"/>
</g>
<defs>
<clipPath id="clip0_0_1285">
<rect width="162.93" height="162.93" fill="white"/>
</clipPath>
</defs>
</svg>
