<svg width="189" height="148" viewBox="0 0 189 148" fill="none" xmlns="http://www.w3.org/2000/svg">
<g clip-path="url(#clip0_0_1316)">
<path d="M48.78 116.37C46.35 116.44 20.96 116.82 7.40001 97.37C-2.17999 83.6 1.03712e-05 68.39 0.71001 63.41C5.42001 29.35 42 12.28 47.5 9.69001C63.88 2.00001 78.13 1.27001 94.8 0.430013C109.84 -0.329987 127.69 -0.999987 148 7.12001C160.22 12.02 175.41 18.12 183.47 34.12C184.87 36.88 192.14 52.03 186.3 69.12C182 81.59 173 88.36 166.26 93.23C145.44 108.35 118.32 107.93 114.33 107.88C105.242 107.624 96.16 108.593 87.33 110.76C78.22 113.04 75.18 115.26 73.69 118.16C70.69 124.07 74.69 131.67 76 134.62C79.9 143.08 86.44 145.85 85.77 146.95C84.83 148.52 71.3 144.64 60.83 134.62C55.541 129.48 51.4298 123.253 48.78 116.37Z" fill="#FED54A"/>
<path d="M64.69 69.23H59.89V58.82C59.9748 57.6832 59.6793 56.5505 59.05 55.6C58.777 55.2524 58.425 54.9749 58.0232 54.7906C57.6215 54.6062 57.1816 54.5203 56.74 54.54C56.103 54.556 55.479 54.724 54.92 55.03C54.2623 55.3698 53.6725 55.8273 53.18 56.38C52.6639 56.956 52.2815 57.639 52.06 58.38V69.23H47.26V43H52.06V54.06C52.7326 52.899 53.7071 51.9418 54.88 51.29C56.0723 50.6267 57.4156 50.2823 58.78 50.29C59.816 50.2442 60.8471 50.4573 61.78 50.91C62.5148 51.2972 63.1328 51.8738 63.57 52.58C64.0084 53.2995 64.3133 54.0922 64.47 54.92C64.6348 55.8039 64.7185 56.7009 64.72 57.6L64.69 69.23Z" fill="#1B1B41"/>
<path d="M77.57 69.59C76.1721 69.6099 74.7845 69.348 73.49 68.82C72.3174 68.3453 71.2553 67.6338 70.37 66.73C68.6339 64.9216 67.6723 62.5068 67.69 60C67.6715 58.3045 68.0844 56.6321 68.89 55.14C69.6892 53.6694 70.8753 52.4452 72.32 51.6C73.9286 50.6936 75.7544 50.244 77.6 50.3C79.4431 50.2438 81.2651 50.7045 82.86 51.63C84.2771 52.4799 85.4354 53.7004 86.21 55.16C86.9817 56.6094 87.3803 58.2281 87.37 59.87C87.3845 60.1598 87.3845 60.4502 87.37 60.74C87.37 61.04 87.37 61.28 87.3 61.47H72.77C72.8479 62.3426 73.1361 63.1832 73.61 63.92C74.0512 64.6053 74.6697 65.1582 75.4 65.52C76.1267 65.8825 76.9279 66.0708 77.74 66.07C78.688 66.0694 79.6203 65.8286 80.45 65.37C81.2233 64.972 81.8347 64.3182 82.18 63.52L86.3 64.67C85.8132 65.644 85.1326 66.5083 84.3 67.21C83.4181 67.9756 82.4005 68.5691 81.3 68.96C80.1024 69.3838 78.8404 69.597 77.57 69.59ZM72.66 58.42H82.47C82.3913 57.5614 82.114 56.733 81.66 56C81.2305 55.3217 80.6351 54.7641 79.93 54.38C79.19 53.9919 78.3656 53.7926 77.53 53.8C76.7135 53.7924 75.9085 53.992 75.19 54.38C74.4878 54.7644 73.8957 55.3221 73.47 56C73.016 56.733 72.7387 57.5614 72.66 58.42Z" fill="#1B1B41"/>
<path d="M90.27 43H95.06V63.26C94.9871 63.873 95.14 64.4915 95.49 65C95.6425 65.1565 95.8266 65.2785 96.0302 65.3578C96.2337 65.4372 96.4519 65.472 96.67 65.46C97.446 65.4543 98.2135 65.298 98.93 65L99.57 68.67C98.8544 69.0044 98.0979 69.2431 97.32 69.38C96.5535 69.5413 95.7732 69.6284 94.99 69.64C94.3573 69.6777 93.7234 69.5902 93.1245 69.3826C92.5256 69.175 91.9736 68.8513 91.5 68.43C91.0704 67.9713 90.7396 67.4294 90.528 66.8376C90.3164 66.2459 90.2286 65.617 90.27 64.99V43Z" fill="#1B1B41"/>
<path d="M101.61 43H106.4V63.26C106.333 63.8726 106.485 64.4893 106.83 65C106.982 65.1565 107.167 65.2785 107.37 65.3578C107.574 65.4372 107.792 65.472 108.01 65.46C108.408 65.4588 108.804 65.4084 109.19 65.31C109.563 65.2325 109.925 65.1117 110.27 64.95L110.91 68.62C110.195 68.9557 109.438 69.1945 108.66 69.33C107.893 69.4913 107.113 69.5784 106.33 69.59C105.697 69.6277 105.063 69.5402 104.464 69.3326C103.866 69.125 103.314 68.8012 102.84 68.38C102.41 67.9213 102.08 67.3794 101.868 66.7876C101.656 66.1959 101.569 65.5671 101.61 64.94V43Z" fill="#1B1B41"/>
<path d="M121.65 69.59C120.239 69.6106 118.838 69.3488 117.53 68.82C116.361 68.3463 115.307 67.6267 114.44 66.71C113.577 65.8215 112.897 64.7715 112.44 63.62C111.533 61.2539 111.533 58.6361 112.44 56.27C112.897 55.1185 113.577 54.0685 114.44 53.18C115.306 52.2602 116.36 51.5372 117.53 51.06C118.839 50.5346 120.24 50.2762 121.65 50.3C123.051 50.275 124.442 50.5335 125.74 51.06C126.884 51.5433 127.917 52.2545 128.776 53.1503C129.636 54.046 130.304 55.1075 130.74 56.27C131.62 58.6409 131.62 61.249 130.74 63.62C130.305 64.7665 129.649 65.8163 128.81 66.71C127.938 67.6248 126.881 68.344 125.71 68.82C124.421 69.3415 123.041 69.6032 121.65 69.59ZM116.74 60C116.722 60.9951 116.945 61.9799 117.39 62.87C117.778 63.6848 118.384 64.3769 119.14 64.87C119.891 65.3409 120.763 65.584 121.65 65.57C122.523 65.5776 123.379 65.3272 124.11 64.85C124.864 64.3463 125.477 63.6578 125.89 62.85C126.324 61.9573 126.55 60.9777 126.55 59.985C126.55 58.9923 126.324 58.0127 125.89 57.12C125.483 56.3083 124.869 55.6184 124.11 55.12C123.376 54.6501 122.521 54.4035 121.65 54.41C120.759 54.3966 119.885 54.6509 119.14 55.14C118.387 55.6366 117.782 56.3277 117.39 57.14C116.946 58.0271 116.723 59.0082 116.74 60Z" fill="#1B1B41"/>
<path d="M135.6 59.64V43.55H140.39V59.64H135.6ZM135.6 69.23V63.8H140.39V69.23H135.6Z" fill="#1B1B41"/>
</g>
<defs>
<clipPath id="clip0_0_1316">
<rect width="188.55" height="147.29" fill="white"/>
</clipPath>
</defs>
</svg>
