<svg width="160" height="187" viewBox="0 0 160 187" fill="none" xmlns="http://www.w3.org/2000/svg">
<g clip-path="url(#clip0_0_1327)">
<path d="M26.78 125.17L0 52.98L57.64 0L125.75 13.97L159.52 66.37L84.42 186.88L91.4 133.9L26.78 125.17Z" fill="#37669D"/>
<path d="M34.48 67.51L29.17 49.21H34L36.75 61.21H36.9L40.04 49.21H44.04L47.18 61.21H47.33L50.09 49.21H55L49.7 67.51H45.42L42.14 56.41H42L38.72 67.51H34.48Z" fill="#F6D4E1"/>
<path d="M56.78 67.51V49.21H61.19V56.56H68.37V49.21H72.76V67.51H68.37V60.16H61.19V67.51H56.78Z" fill="#F6D4E1"/>
<path d="M79.46 67.51H74.73L80.88 49.21H86.74L92.89 67.51H88.15L83.87 53.82H83.73L79.46 67.51ZM78.83 60.31H88.72V63.67H78.83V60.31Z" fill="#F6D4E1"/>
<path d="M92 52.8V49.21H107.4V52.8H101.88V67.51H97.51V52.8H92Z" fill="#F6D4E1"/>
<path d="M113.16 49.21V51.21C113.157 51.7956 113.045 52.3754 112.83 52.92C112.612 53.4924 112.319 54.0337 111.96 54.53C111.639 54.9995 111.259 55.4262 110.83 55.8L108.98 54.8C109.275 54.3161 109.519 53.8035 109.71 53.27C109.937 52.6282 110.045 51.9506 110.03 51.27V49.27L113.16 49.21Z" fill="#F6D4E1"/>
<path d="M125.47 54.7C125.456 54.4031 125.379 54.1126 125.243 53.8485C125.106 53.5844 124.914 53.3529 124.68 53.17C124.096 52.7639 123.39 52.5699 122.68 52.62C122.197 52.6045 121.716 52.6791 121.26 52.84C120.924 52.9573 120.629 53.1691 120.41 53.45C120.221 53.7088 120.116 54.0196 120.11 54.34C120.095 54.5915 120.154 54.842 120.28 55.06C120.411 55.2827 120.592 55.4712 120.81 55.61C121.076 55.7832 121.361 55.9242 121.66 56.03C122.026 56.1574 122.4 56.2609 122.78 56.34L124.35 56.7C125.174 56.8724 125.976 57.1375 126.74 57.49C127.383 57.7779 127.971 58.1736 128.48 58.66C128.943 59.0981 129.308 59.6299 129.55 60.22C129.807 60.8552 129.936 61.5348 129.93 62.22C129.955 63.2871 129.648 64.3356 129.05 65.22C128.429 66.0802 127.571 66.7406 126.58 67.12C125.335 67.5892 124.01 67.8133 122.68 67.78C121.315 67.8116 119.956 67.5772 118.68 67.09C117.617 66.6765 116.706 65.9471 116.07 65C115.391 63.946 115.043 62.7133 115.07 61.46H119.28C119.302 61.9834 119.464 62.4912 119.75 62.93C120.044 63.3311 120.446 63.6399 120.91 63.82C121.451 64.0334 122.029 64.1387 122.61 64.13C123.128 64.1442 123.644 64.0593 124.13 63.88C124.522 63.759 124.869 63.5261 125.13 63.21C125.36 62.9277 125.484 62.574 125.48 62.21C125.48 61.8852 125.367 61.5706 125.16 61.32C124.881 61.0321 124.538 60.813 124.16 60.68C123.629 60.466 123.08 60.2987 122.52 60.18L120.62 59.73C119.261 59.4718 117.989 58.877 116.92 58C116.465 57.582 116.108 57.0684 115.874 56.4962C115.641 55.9239 115.537 55.3071 115.57 54.69C115.531 53.6166 115.852 52.561 116.48 51.69C117.125 50.8049 118 50.1133 119.01 49.69C120.178 49.2032 121.435 48.9681 122.7 49C123.964 48.9703 125.22 49.216 126.38 49.72C127.361 50.1459 128.203 50.8389 128.81 51.72C129.393 52.6114 129.699 53.6551 129.69 54.72L125.47 54.7Z" fill="#F6D4E1"/>
<path d="M67.63 79.4H72V91.19C72.0421 92.4265 71.7156 93.6476 71.0622 94.6981C70.4087 95.7486 69.4577 96.5812 68.33 97.09C67.0518 97.6377 65.6756 97.9202 64.285 97.9202C62.8944 97.9202 61.5182 97.6377 60.24 97.09C59.1334 96.5864 58.1958 95.7739 57.54 94.75C56.8685 93.6854 56.5211 92.4486 56.54 91.19V79.4H61V90.81C60.9869 91.3995 61.1283 91.9821 61.41 92.5C61.6814 92.987 62.0831 93.3886 62.57 93.66C63.1038 93.9485 63.7034 94.0932 64.31 94.08C64.9134 94.0933 65.5098 93.9485 66.04 93.66C66.5244 93.3853 66.9253 92.9844 67.2 92.5C67.4848 91.9829 67.6296 91.4003 67.62 90.81L67.63 79.4Z" fill="#F6D4E1"/>
<path d="M74.78 97.69V79.4H82.31C83.5353 79.3648 84.7496 79.64 85.84 80.2C86.8061 80.7008 87.6053 81.4722 88.14 82.42C88.7138 83.428 89.0106 84.5701 89 85.73C89.0047 86.8778 88.7045 88.0063 88.13 89C87.5786 89.9413 86.7657 90.7021 85.79 91.19C84.6627 91.7346 83.4216 92.002 82.17 91.97H77.53V88.52H81.35C81.9191 88.5387 82.4846 88.4222 83 88.18C83.4255 87.9536 83.7737 87.6054 84 87.18C84.2402 86.7279 84.3607 86.2218 84.35 85.71C84.3573 85.2049 84.2369 84.7061 84 84.26C83.7762 83.8326 83.4273 83.4838 83 83.26C82.4774 83.0473 81.9127 82.9583 81.35 83H79.18V97.69H74.78Z" fill="#F6D4E1"/>
<path d="M94.54 92.09V91.72C94.519 90.9054 94.6064 90.0916 94.8 89.3C94.9289 88.7651 95.1825 88.2682 95.54 87.85C95.8892 87.464 96.2896 87.1275 96.73 86.85C97.079 86.6326 97.4131 86.392 97.73 86.13C98.0034 85.9012 98.2395 85.6313 98.43 85.33C98.6079 85.0273 98.6979 84.681 98.69 84.33C98.6952 84.0106 98.6109 83.696 98.4465 83.4221C98.2822 83.1481 98.0443 82.9257 97.76 82.78C97.448 82.6318 97.1053 82.5598 96.76 82.57C96.4117 82.5642 96.0677 82.6467 95.76 82.81C95.4558 82.9686 95.1975 83.2028 95.01 83.49C94.8109 83.8112 94.7069 84.1821 94.71 84.56H90.68C90.6516 83.4721 90.955 82.4013 91.55 81.49C92.1047 80.6927 92.8795 80.0741 93.78 79.71C94.7524 79.32 95.7924 79.1262 96.84 79.14C97.953 79.1206 99.0595 79.3141 100.1 79.71C100.994 80.045 101.772 80.632 102.34 81.4C102.905 82.1955 103.193 83.1547 103.16 84.13C103.171 84.7706 103.052 85.4068 102.81 86C102.575 86.541 102.235 87.0304 101.81 87.44C101.359 87.8736 100.859 88.2529 100.32 88.57C99.9206 88.7965 99.5511 89.072 99.22 89.39C98.927 89.671 98.6985 90.0122 98.55 90.39C98.3951 90.8194 98.3205 91.2736 98.33 91.73V92.1L94.54 92.09ZM96.54 97.95C96.2347 97.9544 95.9318 97.8963 95.6497 97.7794C95.3677 97.6625 95.1126 97.4891 94.9 97.27C94.685 97.0554 94.5145 96.8006 94.3981 96.52C94.2817 96.2395 94.2218 95.9387 94.2218 95.635C94.2218 95.3313 94.2817 95.0305 94.3981 94.75C94.5145 94.4694 94.685 94.2146 94.9 94C95.2261 93.6844 95.6373 93.4709 96.083 93.3857C96.5288 93.3005 96.9897 93.3473 97.4092 93.5204C97.8287 93.6935 98.1885 93.9854 98.4445 94.3602C98.7004 94.7349 98.8414 95.1763 98.85 95.63C98.8453 96.0374 98.7339 96.4365 98.5269 96.7875C98.3198 97.1384 98.0244 97.4289 97.67 97.63C97.3278 97.8641 96.9245 97.9927 96.51 98L96.54 97.95Z" fill="#F6D4E1"/>
</g>
<defs>
<clipPath id="clip0_0_1327">
<rect width="159.52" height="186.88" fill="white"/>
</clipPath>
</defs>
</svg>
