<svg width="328" height="188" viewBox="0 0 328 188" fill="none" xmlns="http://www.w3.org/2000/svg">
<g clip-path="url(#clip0_0_1341)">
<path d="M14.4 187.08C10.5825 187.075 6.92288 185.556 4.22351 182.857C1.52413 180.157 0.00529106 176.497 0 172.68L0 70.21C0.00529106 66.3925 1.52413 62.7329 4.22351 60.0335C6.92288 57.3341 10.5825 55.8153 14.4 55.81H87.29C92.4817 39.6081 102.685 25.4738 116.429 15.4456C130.173 5.41743 146.747 0.0136719 163.76 0.0136719C180.773 0.0136719 197.347 5.41743 211.091 15.4456C224.835 25.4738 235.038 39.6081 240.23 55.81H313.12C316.938 55.8153 320.597 57.3341 323.297 60.0335C325.996 62.7329 327.515 66.3925 327.52 70.21V172.68C327.515 176.497 325.996 180.157 323.297 182.857C320.597 185.556 316.938 187.075 313.12 187.08H14.4Z" fill="#F5F5F5"/>
<path d="M234.15 63.81C230.435 47.9286 221.459 33.7701 208.68 23.6353C195.901 13.5004 180.07 7.98486 163.76 7.98486C147.45 7.98486 131.619 13.5004 118.84 23.6353C106.061 33.7701 97.0848 47.9286 93.37 63.81H14.37C12.6786 63.8205 11.06 64.4992 9.8668 65.698C8.67362 66.8968 8.00261 68.5186 8 70.21V172.68C8 174.378 8.67396 176.007 9.87391 177.209C11.0739 178.411 12.7017 179.087 14.4 179.09H313.12C314.818 179.087 316.446 178.411 317.646 177.209C318.846 176.007 319.52 174.378 319.52 172.68V70.21C319.517 68.5134 318.842 66.8871 317.643 65.6874C316.443 64.4878 314.817 63.8126 313.12 63.81H234.15Z" fill="#E95187"/>
<path d="M76.28 132.5C81.7808 132.5 86.24 128.041 86.24 122.54C86.24 117.039 81.7808 112.58 76.28 112.58C70.7792 112.58 66.32 117.039 66.32 122.54C66.32 128.041 70.7792 132.5 76.28 132.5Z" fill="#F5F5F5"/>
<path d="M86.24 105.93L99.61 106.51C99.05 114.137 98.4633 124.993 97.85 139.08C97.61 144.62 96.31 149.117 93.95 152.57C91.7482 155.889 88.583 158.454 84.88 159.92C80.9818 161.403 76.8137 162.044 72.65 161.8C68.6174 161.689 64.6362 160.867 60.89 159.37C57.8847 158.244 55.2242 156.356 53.17 153.89L56.77 143.32C58.9514 144.748 61.303 145.897 63.77 146.74C66.0012 147.475 68.3231 147.899 70.67 148C78.5567 148.34 82.65 145.153 82.95 138.44C82.9651 137.741 83.0185 137.043 83.11 136.35C83.11 136.07 83.11 135.7 83.19 135.23C83.2237 134.624 83.2237 134.016 83.19 133.41C80.5233 139.93 75.3667 143.023 67.72 142.69C64.7489 142.599 61.8783 141.593 59.5 139.81C57.1037 137.984 55.2449 135.545 54.12 132.75C52.8809 129.719 52.331 126.45 52.51 123.18C52.6311 119.815 53.4806 116.515 55 113.51C56.3478 110.76 58.401 108.417 60.95 106.72C63.3944 105.113 66.2891 104.332 69.21 104.49C77.0567 104.83 82.0567 107.83 84.21 113.49L86.24 105.93ZM78.86 131.21C80.0849 130.766 81.169 130.003 82 129C82.9058 127.861 83.4087 126.455 83.43 125C83.55 122.107 82.99 120.017 81.75 118.73C80.1948 117.315 78.1515 116.559 76.05 116.62C75.058 116.533 74.0591 116.667 73.1253 117.013C72.1915 117.359 71.3461 117.908 70.65 118.62C69.2375 120.191 68.4542 122.228 68.45 124.34C68.3712 125.308 68.4999 126.281 68.8275 127.195C69.1552 128.109 69.6743 128.943 70.35 129.64C71.7175 131.032 73.5786 131.83 75.53 131.86C76.6724 131.869 77.8048 131.648 78.86 131.21Z" fill="#FFBE5F"/>
<path d="M120.89 117.8C123.15 110.84 128.15 107.53 135.89 107.87C137.196 107.925 138.496 108.076 139.78 108.32L136.87 123.88C134.306 122.669 131.552 121.911 128.73 121.64C126.09 121.53 124.1 122.23 122.73 123.76C121.313 125.549 120.551 127.768 120.57 130.05V130L120.3 134.61C120.15 137.92 120.09 141.61 120.1 145.67L103.45 144.95C104.117 138.25 104.577 131.917 104.83 125.95C105.083 119.983 105.173 113.59 105.1 106.77C108.16 107.043 110.493 107.213 112.1 107.28C113.82 107.36 116.16 107.39 119.1 107.38L120.89 117.8Z" fill="#FFBE5F"/>
<path d="M179.24 130.69L156.53 129.69C156.754 131.638 157.649 133.448 159.06 134.81C160.777 136.267 162.968 137.046 165.22 137C167.114 137.093 169.007 136.779 170.77 136.08C172.428 135.447 173.888 134.384 175 133C178.942 135.084 183.01 136.921 187.18 138.5C185.426 141.888 182.527 144.546 179 146C175.127 147.767 170.15 148.52 164.07 148.26C156.183 147.92 150.423 145.837 146.79 142.01C143.157 138.183 141.49 133.29 141.79 127.33C142.043 121.497 144.127 116.847 148.04 113.38C151.953 109.913 157.883 108.347 165.83 108.68C170.046 108.773 174.195 109.761 178 111.58C181.194 113.124 183.877 115.554 185.73 118.58C187.476 121.538 188.298 124.951 188.09 128.38C188.069 129.295 187.982 130.207 187.83 131.11L179.24 130.69ZM160.56 120.35C159.099 121.112 157.94 122.345 157.27 123.85L173.71 124.57C173.252 123.1 172.359 121.803 171.15 120.85C169.751 119.826 168.064 119.273 166.33 119.27C164.345 119.105 162.351 119.478 160.56 120.35Z" fill="#FFBE5F"/>
<path d="M237.29 139.09C237.159 140.233 237.3 141.391 237.7 142.47C237.94 142.854 238.257 143.184 238.63 143.441C239.003 143.697 239.425 143.874 239.87 143.96L239.3 150.52C237.81 150.69 236.51 150.8 235.42 150.85C234.33 150.9 232.87 150.85 231.06 150.85C227.06 150.67 224.46 149.66 223.23 147.85C221.944 145.754 221.365 143.3 221.58 140.85L221.66 139.1C220.475 142.439 218.289 145.33 215.4 147.38C212.405 149.218 208.901 150.048 205.4 149.75C200.733 149.55 197.28 148.467 195.04 146.5C192.8 144.533 191.753 141.7 191.9 138C191.892 136.66 192.185 135.335 192.758 134.123C193.331 132.911 194.169 131.844 195.21 131C197.277 129.36 200.417 128.307 204.63 127.84C201.352 125.281 197.908 122.942 194.32 120.84C197.027 117.601 200.405 114.987 204.22 113.18C208.362 111.41 212.867 110.656 217.36 110.98C224.507 111.287 229.747 113.067 233.08 116.32C236.413 119.573 237.937 124.417 237.65 130.85L237.29 139.09ZM217.41 137.28C219.295 136.582 220.882 135.254 221.9 133.52L221.97 131.7C220.775 132.231 219.519 132.61 218.23 132.83C216.87 133.08 215.23 133.3 213.31 133.5L210.79 133.81C208.16 134.21 206.79 135.04 206.79 136.3C206.79 137.56 207.91 138.38 210.33 138.48C212.75 138.616 215.17 138.206 217.41 137.28ZM212 124.19C210.115 124.945 208.411 126.09 207 127.55C210.487 127.35 213.983 127.35 217.47 127.55C218.707 127.697 219.961 127.535 221.12 127.08C221.432 126.946 221.7 126.729 221.896 126.452C222.092 126.174 222.208 125.849 222.23 125.51C222.218 125.195 222.118 124.889 221.941 124.627C221.765 124.366 221.518 124.159 221.23 124.03C220.338 123.553 219.341 123.305 218.33 123.31C216.182 123.165 214.027 123.464 212 124.19Z" fill="#FFBE5F"/>
<path d="M276.42 126.7C272.16 126.24 268.267 125.86 264.74 125.56L264.35 132.97C264.131 135.068 264.617 137.179 265.73 138.97C266.757 140.437 268.667 141.233 271.46 141.36C272.486 141.402 273.513 141.352 274.53 141.21C274.267 142.943 274.1 144.689 274.03 146.44C274.03 147.28 273.95 149.2 273.92 152.18C272.201 152.439 270.468 152.6 268.73 152.66C267.33 152.66 265.52 152.66 263.29 152.56C257.857 152.333 254.073 150.85 251.94 148.11C249.807 145.37 248.827 141.643 249 136.93L249.59 125.12C247.403 125.12 245.12 125.16 242.74 125.24L243.28 112.87C245.544 113.02 247.778 112.285 249.51 110.82C251.183 109.456 252.326 107.549 252.74 105.43L271.74 106.25C269.458 109.203 266.68 111.738 263.53 113.74L276.97 114.32L276.42 126.7Z" fill="#FFBE5F"/>
<path d="M74.21 167.84C73.61 167.84 73 167.84 72.39 167.84C67.6517 167.695 62.9763 166.714 58.58 164.94C54.6149 163.419 51.116 160.889 48.43 157.6L46.43 155.05L51.49 140.19C50.3231 138.614 49.3527 136.901 48.6 135.09C47.0231 131.246 46.3162 127.1 46.53 122.95C46.6763 118.735 47.7302 114.601 49.62 110.83C51.4313 107.143 54.1928 104.005 57.62 101.74C60.8462 99.6164 64.6276 98.4927 68.49 98.51H69.42C73.5252 98.5899 77.5566 99.6166 81.2 101.51L81.68 99.79L106.01 100.79L105.55 106.96C105 114.49 104.41 125.38 103.81 139.35C103.52 146 101.86 151.59 98.86 155.97C95.9839 160.28 91.8599 163.608 87.04 165.51C82.9463 167.081 78.5946 167.871 74.21 167.84ZM75.59 122.54C75.11 122.54 75.03 122.63 74.96 122.69C74.547 123.214 74.3502 123.876 74.41 124.54C74.41 125.16 74.5 125.29 74.6 125.39C74.7471 125.54 74.9257 125.655 75.1228 125.728C75.3199 125.801 75.5307 125.829 75.74 125.81C76.0839 125.798 76.4227 125.723 76.74 125.59C76.9682 125.491 77.1653 125.332 77.31 125.13C77.3379 124.978 77.3579 124.824 77.37 124.67C77.4117 124.037 77.3713 123.402 77.25 122.78C76.753 122.633 76.2381 122.556 75.72 122.55L75.59 122.54Z" fill="#F5F5F5"/>
<path d="M96.94 150.65L97.56 144.34C98.21 137.77 98.66 131.49 98.92 125.67C99.18 119.85 99.26 113.51 99.18 106.82L99.11 100.18L105.72 100.77C108.64 101.03 110.91 101.2 112.47 101.27C114.03 101.34 115.79 101.36 118.11 101.36H124.38L124.81 104.09C127.935 102.558 131.38 101.793 134.86 101.86H136.17C137.768 101.927 139.36 102.114 140.93 102.42L146.79 103.54L141.42 132.32L134.54 129.39C132.653 128.469 130.625 127.871 128.54 127.62H128.26C127.953 127.609 127.647 127.642 127.35 127.72C126.887 128.499 126.658 129.395 126.69 130.3L125.37 130.24L126.69 130.32L126.42 134.93C126.28 138.07 126.22 141.69 126.23 145.62V151.9L96.94 150.65Z" fill="#F5F5F5"/>
<path d="M166.41 154.3C165.57 154.3 164.72 154.3 163.84 154.24C154.37 153.83 147.18 151.1 142.47 146.13C137.76 141.16 135.47 134.69 135.77 127.06C136.07 119.43 138.88 113.45 144.04 108.88C148.72 104.73 155.34 102.62 163.72 102.62C164.49 102.62 165.27 102.62 166.07 102.68C171.164 102.798 176.174 104.009 180.76 106.23C184.955 108.274 188.477 111.477 190.91 115.46C193.27 119.421 194.391 123.997 194.13 128.6C194.099 129.818 193.975 131.031 193.76 132.23L193.32 134.48L195.48 135.33L192.58 141.19C190.218 145.801 186.305 149.431 181.53 151.44C176.752 153.463 171.597 154.438 166.41 154.3Z" fill="#F5F5F5"/>
<path d="M234.05 156.87C233.11 156.87 232.05 156.87 230.8 156.79C225.42 156.56 221.46 154.99 219.02 152.12L218.7 152.33C215.051 154.642 210.798 155.819 206.48 155.71H205.16C199.16 155.45 194.43 153.87 191.16 151C188.61 148.79 185.64 144.69 185.94 137.73C185.965 135.53 186.477 133.363 187.441 131.385C188.404 129.406 189.794 127.666 191.51 126.29L191.66 126.17L185.12 122.34L189.8 116.88C193.071 112.993 197.14 109.856 201.73 107.68C206.113 105.751 210.863 104.799 215.65 104.89C216.3 104.89 216.97 104.89 217.65 104.89C226.29 105.26 232.9 107.63 237.3 111.89C241.88 116.37 244.03 122.79 243.67 130.97L243.34 138.66L246.26 139.53L245.88 144.42L244.88 155.87L240 156.43C238.39 156.61 236.93 156.73 235.69 156.78C235.23 156.84 234.683 156.87 234.05 156.87Z" fill="#F5F5F5"/>
<path d="M267.57 158.65C266.29 158.65 264.76 158.65 263.03 158.54C255.79 158.22 250.47 155.95 247.21 151.79C244.21 147.92 242.77 142.79 243.04 136.67L243.31 131.23L236.5 131.47L237.57 106.61L243.57 106.87H243.78C244.469 106.906 245.145 106.677 245.67 106.23C246.31 105.738 246.741 105.025 246.88 104.23L247.88 99.16L283.75 100.72L277.75 108.3L283.25 108.54L282.17 133.31L275.81 132.62C273.95 132.41 272.16 132.23 270.44 132.06L270.38 133.24C270.329 133.878 270.387 134.521 270.55 135.14C270.947 135.234 271.352 135.284 271.76 135.29H272.26C272.745 135.293 273.23 135.26 273.71 135.19L281.71 134.02L280.49 142.02C280.266 143.542 280.119 145.074 280.05 146.61C280.05 147.06 279.99 148.39 279.95 152.16L279.89 157.33L274.77 158.04C272.824 158.323 270.865 158.499 268.9 158.57L267.57 158.65Z" fill="#F5F5F5"/>
<path d="M86.24 105.93L99.61 106.51C99.05 114.137 98.4633 124.993 97.85 139.08C97.61 144.62 96.31 149.117 93.95 152.57C91.7482 155.889 88.583 158.454 84.88 159.92C80.9818 161.403 76.8137 162.044 72.65 161.8C68.6174 161.689 64.6362 160.867 60.89 159.37C57.8847 158.244 55.2242 156.356 53.17 153.89L56.77 143.32C58.9514 144.748 61.303 145.897 63.77 146.74C66.0012 147.475 68.3231 147.899 70.67 148C78.5567 148.34 82.65 145.153 82.95 138.44C82.9651 137.741 83.0185 137.043 83.11 136.35C83.11 136.07 83.11 135.7 83.19 135.23C83.2237 134.624 83.2237 134.016 83.19 133.41C80.5233 139.93 75.3667 143.023 67.72 142.69C64.7489 142.599 61.8783 141.593 59.5 139.81C57.1037 137.984 55.2449 135.545 54.12 132.75C52.8809 129.719 52.331 126.45 52.51 123.18C52.6311 119.815 53.4806 116.515 55 113.51C56.3478 110.76 58.401 108.417 60.95 106.72C63.3944 105.113 66.2891 104.332 69.21 104.49C77.0567 104.83 82.0567 107.83 84.21 113.49L86.24 105.93ZM78.86 131.21C80.0849 130.766 81.169 130.003 82 129C82.9058 127.861 83.4087 126.455 83.43 125C83.55 122.107 82.99 120.017 81.75 118.73C80.1948 117.315 78.1515 116.559 76.05 116.62C75.058 116.533 74.0591 116.667 73.1253 117.013C72.1915 117.359 71.3461 117.908 70.65 118.62C69.2375 120.191 68.4542 122.228 68.45 124.34C68.3712 125.308 68.4999 126.281 68.8275 127.195C69.1552 128.109 69.6743 128.943 70.35 129.64C71.7175 131.032 73.5786 131.83 75.53 131.86C76.6724 131.869 77.8048 131.648 78.86 131.21Z" fill="#FFBE5F"/>
<path d="M120.89 117.8C123.15 110.84 128.15 107.53 135.89 107.87C137.196 107.925 138.496 108.076 139.78 108.32L136.87 123.88C134.306 122.669 131.552 121.911 128.73 121.64C126.09 121.53 124.1 122.23 122.73 123.76C121.313 125.549 120.551 127.768 120.57 130.05V130L120.3 134.61C120.15 137.92 120.09 141.61 120.1 145.67L103.45 144.95C104.117 138.25 104.577 131.917 104.83 125.95C105.083 119.983 105.173 113.59 105.1 106.77C108.16 107.043 110.493 107.213 112.1 107.28C113.82 107.36 116.16 107.39 119.1 107.38L120.89 117.8Z" fill="#FFBE5F"/>
<path d="M179.24 130.69L156.53 129.69C156.754 131.638 157.649 133.448 159.06 134.81C160.777 136.267 162.968 137.046 165.22 137C167.114 137.093 169.007 136.779 170.77 136.08C172.428 135.447 173.888 134.384 175 133C178.942 135.084 183.01 136.921 187.18 138.5C185.426 141.888 182.527 144.546 179 146C175.127 147.767 170.15 148.52 164.07 148.26C156.183 147.92 150.423 145.837 146.79 142.01C143.157 138.183 141.49 133.29 141.79 127.33C142.043 121.497 144.127 116.847 148.04 113.38C151.953 109.913 157.883 108.347 165.83 108.68C170.046 108.773 174.195 109.761 178 111.58C181.194 113.124 183.877 115.554 185.73 118.58C187.476 121.538 188.298 124.951 188.09 128.38C188.069 129.295 187.982 130.207 187.83 131.11L179.24 130.69ZM160.56 120.35C159.099 121.112 157.94 122.345 157.27 123.85L173.71 124.57C173.252 123.1 172.359 121.803 171.15 120.85C169.751 119.826 168.064 119.273 166.33 119.27C164.345 119.105 162.351 119.478 160.56 120.35Z" fill="#FFBE5F"/>
<path d="M237.29 139.09C237.159 140.233 237.3 141.391 237.7 142.47C237.94 142.854 238.257 143.184 238.63 143.441C239.003 143.697 239.425 143.874 239.87 143.96L239.3 150.52C237.81 150.69 236.51 150.8 235.42 150.85C234.33 150.9 232.87 150.85 231.06 150.85C227.06 150.67 224.46 149.66 223.23 147.85C221.944 145.754 221.365 143.3 221.58 140.85L221.66 139.1C220.475 142.439 218.289 145.33 215.4 147.38C212.405 149.218 208.901 150.048 205.4 149.75C200.733 149.55 197.28 148.467 195.04 146.5C192.8 144.533 191.753 141.7 191.9 138C191.892 136.66 192.185 135.335 192.758 134.123C193.331 132.911 194.169 131.844 195.21 131C197.277 129.36 200.417 128.307 204.63 127.84C201.352 125.281 197.908 122.942 194.32 120.84C197.027 117.601 200.405 114.987 204.22 113.18C208.362 111.41 212.867 110.656 217.36 110.98C224.507 111.287 229.747 113.067 233.08 116.32C236.413 119.573 237.937 124.417 237.65 130.85L237.29 139.09ZM217.41 137.28C219.295 136.582 220.882 135.254 221.9 133.52L221.97 131.7C220.775 132.231 219.519 132.61 218.23 132.83C216.87 133.08 215.23 133.3 213.31 133.5L210.79 133.81C208.16 134.21 206.79 135.04 206.79 136.3C206.79 137.56 207.91 138.38 210.33 138.48C212.75 138.616 215.17 138.206 217.41 137.28ZM212 124.19C210.115 124.945 208.411 126.09 207 127.55C210.487 127.35 213.983 127.35 217.47 127.55C218.707 127.697 219.961 127.535 221.12 127.08C221.432 126.946 221.7 126.729 221.896 126.452C222.092 126.174 222.208 125.849 222.23 125.51C222.218 125.195 222.118 124.889 221.941 124.627C221.765 124.366 221.518 124.159 221.23 124.03C220.338 123.553 219.341 123.305 218.33 123.31C216.182 123.165 214.027 123.464 212 124.19Z" fill="#FFBE5F"/>
<path d="M276.42 126.7C272.16 126.24 268.267 125.86 264.74 125.56L264.35 132.97C264.131 135.068 264.617 137.179 265.73 138.97C266.757 140.437 268.667 141.233 271.46 141.36C272.486 141.402 273.513 141.352 274.53 141.21C274.267 142.943 274.1 144.689 274.03 146.44C274.03 147.28 273.95 149.2 273.92 152.18C272.201 152.439 270.468 152.6 268.73 152.66C267.33 152.66 265.52 152.66 263.29 152.56C257.857 152.333 254.073 150.85 251.94 148.11C249.807 145.37 248.827 141.643 249 136.93L249.59 125.12C247.403 125.12 245.12 125.16 242.74 125.24L243.28 112.87C245.544 113.02 247.778 112.285 249.51 110.82C251.183 109.456 252.326 107.549 252.74 105.43L271.74 106.25C269.458 109.203 266.68 111.738 263.53 113.74L276.97 114.32L276.42 126.7Z" fill="#FFBE5F"/>
<path d="M291.8 94.55C291.117 94.2277 290.548 93.7043 290.17 93.05C289.777 92.3468 289.599 91.5434 289.66 90.74C289.669 89.9347 289.912 89.1495 290.36 88.48C290.799 87.8646 291.412 87.3944 292.12 87.13C292.944 86.8387 293.818 86.7163 294.69 86.77C295.99 86.7325 297.259 87.1697 298.26 88C298.668 88.4128 298.979 88.9118 299.169 89.4603C299.36 90.0088 299.425 90.593 299.36 91.17C299.346 91.976 299.1 92.7609 298.65 93.43C298.219 94.0531 297.604 94.5252 296.89 94.78C296.072 95.0805 295.2 95.2065 294.33 95.15C293.454 95.1275 292.593 94.9232 291.8 94.55ZM296.58 92.89C297.065 92.4051 297.35 91.7561 297.38 91.0711C297.409 90.3861 297.181 89.7149 296.74 89.19C296.115 88.7533 295.378 88.5043 294.616 88.4724C293.854 88.4405 293.099 88.627 292.44 89.01C292.18 89.2327 291.973 89.5109 291.834 89.8241C291.696 90.1374 291.63 90.4777 291.64 90.82C291.601 91.1612 291.638 91.5068 291.749 91.8319C291.859 92.157 292.041 92.4535 292.28 92.7C292.874 93.1935 293.628 93.453 294.4 93.43C295.168 93.5175 295.942 93.3258 296.58 92.89ZM292.52 92.55C292.304 92.3284 292.14 92.0623 292.038 91.7703C291.936 91.4784 291.899 91.1677 291.93 90.86C291.928 90.5519 291.992 90.2468 292.118 89.9656C292.244 89.6844 292.429 89.4335 292.66 89.23C293.212 88.8309 293.893 88.6525 294.57 88.73C295.109 88.7363 295.639 88.8772 296.11 89.14C296.512 89.3644 296.829 89.7162 297.01 90.14C296.43 90.2329 295.875 90.4439 295.38 90.76C295.312 90.5877 295.192 90.4415 295.035 90.3425C294.879 90.2436 294.695 90.1972 294.51 90.21C293.94 90.21 293.64 90.43 293.59 90.95C293.54 91.47 293.87 91.75 294.44 91.77C294.623 91.8004 294.812 91.77 294.976 91.6833C295.14 91.5966 295.272 91.4585 295.35 91.29C295.822 91.6445 296.359 91.9027 296.93 92.05C296.714 92.464 296.36 92.7894 295.93 92.97C295.431 93.1776 294.89 93.2666 294.35 93.23C293.678 93.2293 293.029 92.9881 292.52 92.55Z" fill="#FFBE5F"/>
<path d="M294.7 99.15H294.15C292.725 99.1055 291.326 98.7649 290.04 98.15C288.644 97.4748 287.482 96.399 286.7 95.06C285.941 93.6875 285.593 92.125 285.7 90.56C285.742 88.9876 286.242 87.4617 287.14 86.17C288.028 84.9037 289.28 83.9376 290.73 83.4C291.894 82.965 293.128 82.7481 294.37 82.76H294.9C297.161 82.7543 299.347 83.5719 301.05 85.06C301.882 85.8635 302.524 86.8422 302.931 87.925C303.337 89.0078 303.498 90.1675 303.4 91.32C303.351 92.8896 302.855 94.4126 301.97 95.71C301.077 96.9804 299.823 97.9526 298.37 98.5C297.197 98.9415 295.953 99.1619 294.7 99.15Z" fill="#F5F5F5"/>
<path d="M291.8 94.55C291.117 94.2277 290.548 93.7043 290.17 93.05C289.777 92.3468 289.599 91.5434 289.66 90.74C289.669 89.9347 289.912 89.1495 290.36 88.48C290.799 87.8646 291.412 87.3944 292.12 87.13C292.944 86.8387 293.818 86.7163 294.69 86.77C295.99 86.7325 297.259 87.1697 298.26 88C298.668 88.4128 298.979 88.9118 299.169 89.4603C299.36 90.0088 299.425 90.593 299.36 91.17C299.346 91.976 299.1 92.7609 298.65 93.43C298.219 94.0531 297.604 94.5252 296.89 94.78C296.072 95.0805 295.2 95.2065 294.33 95.15C293.454 95.1275 292.593 94.9232 291.8 94.55ZM296.58 92.89C297.065 92.4051 297.35 91.7561 297.38 91.0711C297.409 90.3861 297.181 89.7149 296.74 89.19C296.115 88.7533 295.378 88.5043 294.616 88.4724C293.854 88.4405 293.099 88.627 292.44 89.01C292.18 89.2327 291.973 89.5109 291.834 89.8241C291.696 90.1374 291.63 90.4777 291.64 90.82C291.601 91.1612 291.638 91.5068 291.749 91.8319C291.859 92.157 292.041 92.4535 292.28 92.7C292.874 93.1935 293.628 93.453 294.4 93.43C295.168 93.5175 295.942 93.3258 296.58 92.89ZM292.52 92.55C292.304 92.3284 292.14 92.0623 292.038 91.7703C291.936 91.4784 291.899 91.1677 291.93 90.86C291.928 90.5519 291.992 90.2468 292.118 89.9656C292.244 89.6844 292.429 89.4335 292.66 89.23C293.212 88.8309 293.893 88.6525 294.57 88.73C295.109 88.7363 295.639 88.8772 296.11 89.14C296.512 89.3644 296.829 89.7162 297.01 90.14C296.43 90.2329 295.875 90.4439 295.38 90.76C295.312 90.5877 295.192 90.4415 295.035 90.3425C294.879 90.2436 294.695 90.1972 294.51 90.21C293.94 90.21 293.64 90.43 293.59 90.95C293.54 91.47 293.87 91.75 294.44 91.77C294.623 91.8004 294.812 91.77 294.976 91.6833C295.14 91.5966 295.272 91.4585 295.35 91.29C295.822 91.6445 296.359 91.9027 296.93 92.05C296.714 92.464 296.36 92.7894 295.93 92.97C295.431 93.1776 294.89 93.2666 294.35 93.23C293.678 93.2293 293.029 92.9881 292.52 92.55Z" fill="#FFBE5F"/>
<path d="M130.72 85.81L130.22 45.46L156.46 43.51L158.35 83.76L130.72 85.81Z" fill="#F5F5F5"/>
<path d="M135.84 50.62L136.21 79.83L152.54 78.62L151.18 49.48L135.84 50.62Z" fill="#FFBE5F"/>
<path d="M151.8 81.64L149.23 47.06L151.04 45.26C161.18 35.14 160.31 31.26 159.98 29.79C159.88 29.32 159.79 28.9 159.75 28.54C159.61 27.4775 159.688 26.3977 159.978 25.3663C160.269 24.3348 160.766 23.3732 161.44 22.54C162.087 21.7343 162.894 21.0707 163.809 20.5907C164.725 20.1107 165.729 19.8245 166.76 19.75C169.22 19.57 172.88 20.43 176.34 25.59C179.01 29.59 178.96 34.52 178.11 38.74L182.9 38.42C184.663 38.2847 186.432 38.5715 188.062 39.2567C189.691 39.9419 191.134 41.0058 192.27 42.36C193.135 43.3609 193.76 44.5459 194.098 45.8247C194.435 47.1035 194.477 48.4426 194.22 49.74C194.028 50.6578 193.69 51.5389 193.22 52.35C193.656 53.3468 193.884 54.4221 193.89 55.51C193.882 57.2241 193.352 58.895 192.37 60.3C192.716 61.2959 192.878 62.3461 192.85 63.4C192.822 64.7724 192.479 66.1201 191.85 67.34C192.146 68.1328 192.321 68.9653 192.37 69.81C192.409 71.3012 192.124 72.783 191.535 74.1537C190.946 75.5243 190.068 76.7512 188.96 77.75L187.52 79L151.8 81.64Z" fill="#F5F5F5"/>
<path d="M155 49.2L157 75.69L185.28 73.59C185.28 73.59 189.16 70.09 184.8 67.08C184.8 67.08 190.41 63.46 185.04 59.58C185.04 59.58 192.23 55.71 185.56 52.2C185.56 52.2 190.97 49.42 188.04 45.85C187.464 45.1817 186.738 44.6599 185.921 44.3277C185.103 43.9956 184.219 43.8627 183.34 43.94C179.54 44.19 171.88 44.71 170.2 44.94C170.2 44.94 175.55 34.26 171.8 28.67C168.05 23.08 165.03 25.57 165.33 27.81C165.63 30.05 168.64 35.56 155 49.2Z" fill="#FFBE5F"/>
</g>
<defs>
<clipPath id="clip0_0_1341">
<rect width="327.52" height="187.08" fill="white"/>
</clipPath>
</defs>
</svg>
