<svg width="336" height="186" viewBox="0 0 336 186" fill="none" xmlns="http://www.w3.org/2000/svg">
<g clip-path="url(#clip0_0_1370)">
<path d="M223.91 81.27H53.53C51.1531 81.271 48.8053 81.793 46.6519 82.7994C44.4986 83.8058 42.592 85.2721 41.0666 87.095C39.5412 88.9179 38.434 91.053 37.8229 93.35C37.2119 95.6471 37.1119 98.0502 37.53 100.39L50.41 172.39C51.0832 176.144 53.0545 179.542 55.9793 181.99C58.904 184.437 62.5961 185.779 66.41 185.78H267.89C271.704 185.781 275.398 184.44 278.323 181.992C281.248 179.544 283.219 176.145 283.89 172.39L296.77 100.39C297.188 98.0502 297.088 95.6471 296.477 93.35C295.866 91.053 294.759 88.9179 293.233 87.095C291.708 85.2721 289.801 83.8058 287.648 82.7994C285.495 81.793 283.147 81.271 280.77 81.27H223.91Z" fill="#4070D9"/>
<path d="M117.9 118.69C114.941 118.692 112.033 117.914 109.47 116.436C106.907 114.957 104.778 112.829 103.298 110.267C101.818 107.704 101.039 104.797 101.04 101.838C101.04 98.8791 101.82 95.9722 103.3 93.41L152.37 8.41C153.849 5.84731 155.976 3.71911 158.538 2.23942C161.1 0.75973 164.006 -0.0192871 166.965 -0.0192871C169.924 -0.0192871 172.83 0.75973 175.392 2.23942C177.954 3.71911 180.081 5.84731 181.56 8.41L230.63 93.41C232.112 95.9744 232.891 98.8841 232.89 101.846C232.889 104.807 232.108 107.717 230.624 110.28C229.141 112.843 227.008 114.97 224.44 116.447C221.873 117.923 218.962 118.697 216 118.69H117.9Z" fill="#4070D9"/>
<path d="M157.71 11.51L108.64 96.51C107.707 98.1339 107.218 99.9744 107.221 101.847C107.224 103.72 107.719 105.559 108.657 107.18C109.595 108.801 110.943 110.146 112.565 111.082C114.188 112.017 116.027 112.51 117.9 112.51H216C217.873 112.51 219.712 112.017 221.335 111.082C222.957 110.146 224.305 108.801 225.243 107.18C226.181 105.559 226.676 103.72 226.679 101.847C226.682 99.9744 226.193 98.1339 225.26 96.51L176.19 11.51C175.249 9.89325 173.901 8.5516 172.28 7.61906C170.658 6.68652 168.82 6.19574 166.95 6.19574C165.08 6.19574 163.242 6.68652 161.62 7.61906C159.999 8.5516 158.651 9.89325 157.71 11.51Z" fill="#C0EAFD"/>
<path d="M162.12 43.49C164.924 43.2019 167.741 43.0683 170.56 43.09C173.787 43.09 175.4 43.5633 175.4 44.51C175.4 45.71 175.027 55.6766 174.28 74.41C174.28 75.41 173.5 76.41 172.05 77.21C170.141 78.1344 168.028 78.5609 165.91 78.45C162.31 78.45 160.427 77.4766 160.26 75.53L158.59 44.58C158.55 44.12 159.73 43.76 162.12 43.49ZM172.7 91.82C170.958 92.7075 169.011 93.1148 167.06 93C165.145 93.1031 163.234 92.7285 161.5 91.91C160.22 91.19 159.58 89.69 159.58 87.41C159.58 83.69 162.103 81.83 167.15 81.83C172.197 81.83 174.72 83.69 174.72 87.41C174.72 89.5366 174.047 91.0066 172.7 91.82Z" fill="#4070D9"/>
<path d="M22.18 165.28H10.49C9.2839 165.351 8.07437 165.222 6.91 164.9C6.65255 164.829 6.42491 164.677 6.26094 164.466C6.09698 164.255 6.00546 163.997 6 163.73V129.39C6 127.683 11.1433 126.83 21.43 126.83C27.3433 126.83 31.42 127.4 33.66 128.54C35.6285 129.41 37.1838 131.009 38 133C38.3722 134.211 38.551 135.473 38.53 136.74C38.53 139.52 38.06 141.603 37.12 142.99C36.7958 143.571 36.3562 144.079 35.8282 144.483C35.3002 144.887 34.695 145.179 34.05 145.34C35.6721 145.667 37.1372 146.53 38.21 147.79C39.31 149.08 39.87 151.25 39.87 154.31C39.87 157.87 38.7833 160.503 36.61 162.21C34.7167 163.71 31.8333 164.653 27.96 165.04C26.36 165.2 24.42 165.28 22.18 165.28ZM22.23 142C24.05 142 24.96 140.8 24.96 138.37C25.0366 137.416 24.7785 136.465 24.23 135.68C24.0463 135.418 23.8045 135.202 23.5234 135.05C23.2423 134.897 22.9297 134.812 22.61 134.8H20.9V142H22.23ZM20.9 157.32H22.23C24.05 157.32 24.96 156.11 24.96 153.69C25.0356 152.733 24.7777 151.779 24.23 150.99C24.0463 150.728 23.8045 150.512 23.5234 150.36C23.2423 150.207 22.9297 150.122 22.61 150.11H20.9V157.32Z" fill="#C0EAFD"/>
<path d="M70.72 165.28H48.08C46.8904 165.349 45.6977 165.221 44.55 164.9C44.2934 164.828 44.0666 164.675 43.9029 164.464C43.7392 164.254 43.647 163.997 43.64 163.73V129.93C43.6103 129.506 43.7164 129.084 43.9429 128.724C44.1695 128.364 44.5047 128.086 44.9 127.93C46.3513 127.444 47.8827 127.244 49.41 127.34H70.88C71.62 127.34 72 128.58 72 131.06C72.0534 132.959 71.8924 134.857 71.52 136.72C71.2 138.02 70.77 138.66 70.24 138.66C67.92 138.66 64.02 138.43 58.54 137.97V141.55C63.81 141.33 67.25 141.23 68.85 141.23C69.81 141.23 70.29 142.35 70.29 144.59C70.3513 146.308 70.1627 148.026 69.73 149.69C69.35 150.85 68.85 151.43 68.21 151.43L58.54 151.21V154.63C64.74 154.17 69.0133 153.94 71.36 153.94C72.1 153.94 72.48 155.18 72.48 157.67C72.5356 159.569 72.3745 161.468 72 163.33C71.68 164.64 71.25 165.28 70.72 165.28Z" fill="#C0EAFD"/>
<path d="M115 164.88C113.568 165.212 112.114 165.442 110.65 165.57C109.17 165.69 107.73 165.76 106.32 165.76C104.91 165.76 103.83 165.76 103.07 165.65C102.06 165.535 101.058 165.358 100.07 165.12C98.8895 164.856 97.7423 164.46 96.65 163.94C95.4726 163.345 94.3713 162.609 93.37 161.75C92.209 160.787 91.2243 159.63 90.46 158.33C88.64 155.27 87.7333 151.32 87.74 146.48C87.6827 143.542 88.199 140.621 89.26 137.88C90.0575 135.717 91.3128 133.752 92.94 132.12C94.3883 130.759 96.0591 129.656 97.88 128.86C100.703 127.558 103.772 126.876 106.88 126.86C111.23 126.86 114.34 127.22 116.23 127.93C117.091 128.257 117.872 128.765 118.52 129.42C118.874 129.819 119.145 130.284 119.317 130.789C119.489 131.294 119.558 131.828 119.52 132.36C119.452 134.018 119.135 135.656 118.58 137.22C117.96 139.22 117.06 140.16 115.89 140.16C114.539 139.961 113.203 139.674 111.89 139.3C110.372 138.861 108.815 138.577 107.24 138.45C106.573 138.484 105.928 138.695 105.369 139.06C104.81 139.425 104.358 139.933 104.06 140.53C103.089 142.349 102.639 144.401 102.76 146.46C102.654 148.522 103.045 150.58 103.9 152.46C104.146 153.063 104.559 153.584 105.09 153.961C105.622 154.338 106.249 154.557 106.9 154.59C108.55 154.432 110.173 154.066 111.73 153.5C113.061 153.022 114.429 152.654 115.82 152.4C116.92 152.4 117.82 153.4 118.41 155.45C118.95 157.035 119.263 158.688 119.34 160.36C119.374 160.913 119.289 161.467 119.091 161.985C118.893 162.503 118.585 162.971 118.19 163.36C117.274 164.131 116.176 164.654 115 164.88Z" fill="#C0EAFD"/>
<path d="M136.37 164.69C134.586 165.178 132.736 165.377 130.89 165.28C128.671 165.328 126.456 165.085 124.3 164.56C122.54 164.07 121.65 163.46 121.65 162.71C121.65 161.96 123.24 156.4 126.41 146.35C129.58 136.3 131.41 130.5 131.85 128.97C132.03 128.5 133.46 128.12 136.15 127.82C139.023 127.507 141.91 127.353 144.8 127.36C147.88 127.36 149.58 127.897 149.9 128.97C156.633 151.323 160 162.667 160 163C159.981 163.215 159.914 163.423 159.803 163.608C159.692 163.794 159.541 163.952 159.36 164.07C158.36 164.85 156.36 165.25 153.44 165.25C147.127 165.25 143.903 164.5 143.77 163L143.4 159.53H138.27L138 162.53C137.988 163.015 137.825 163.485 137.533 163.872C137.24 164.26 136.834 164.546 136.37 164.69ZM142.27 149.42L141.46 139.81H140.29L139.38 149.42H142.27Z" fill="#C0EAFD"/>
<path d="M177.61 163.73C177.61 164.19 176.53 164.56 174.36 164.85C172.191 165.133 170.007 165.277 167.82 165.28C166.402 165.364 164.98 165.236 163.6 164.9C163.337 164.835 163.103 164.685 162.933 164.473C162.763 164.262 162.667 164.001 162.66 163.73V129.39C162.66 128.47 163.83 127.81 166.16 127.39C169.086 126.956 172.042 126.759 175 126.8C178.56 126.8 180.863 126.8 181.91 126.8C182.96 126.8 184.2 126.88 185.62 126.98C186.766 127.043 187.902 127.224 189.01 127.52C189.85 127.77 190.78 128.09 191.79 128.52C192.69 128.835 193.505 129.356 194.17 130.04C194.789 130.726 195.342 131.469 195.82 132.26C196.894 134.266 197.392 136.529 197.26 138.8C197.336 141.259 196.854 143.704 195.85 145.95C195.03 147.743 193.724 149.271 192.08 150.36C196.18 156.8 198.23 160.893 198.23 162.64C198.23 164.387 194.723 165.26 187.71 165.26C186.298 165.306 184.885 165.216 183.49 164.99C183.157 164.945 182.843 164.812 182.579 164.604C182.315 164.397 182.112 164.123 181.99 163.81L178.52 152.81L177.61 152.76V163.73ZM177.61 144.56H179C181.067 144.56 182.1 142.957 182.1 139.75C182.208 138.534 181.917 137.316 181.27 136.28C181.053 135.979 180.77 135.732 180.442 135.559C180.114 135.385 179.751 135.29 179.38 135.28H177.61V144.56Z" fill="#C0EAFD"/>
<path d="M228 165.28H205.33C204.14 165.349 202.948 165.221 201.8 164.9C201.543 164.828 201.317 164.675 201.153 164.464C200.989 164.254 200.897 163.997 200.89 163.73V129.93C200.86 129.506 200.966 129.084 201.193 128.724C201.419 128.364 201.755 128.086 202.15 127.93C203.601 127.444 205.133 127.244 206.66 127.34H228.13C228.87 127.34 229.25 128.58 229.25 131.06C229.303 132.959 229.142 134.857 228.77 136.72C228.45 138.02 228.02 138.66 227.49 138.66C225.17 138.66 221.27 138.43 215.79 137.97V141.55C221.06 141.33 224.5 141.23 226.1 141.23C227.06 141.23 227.54 142.35 227.54 144.59C227.601 146.308 227.413 148.026 226.98 149.69C226.6 150.85 226.1 151.43 225.46 151.43L215.79 151.21V154.63C221.99 154.17 226.263 153.94 228.61 153.94C229.35 153.94 229.73 155.18 229.73 157.67C229.786 159.569 229.624 161.468 229.25 163.33C228.93 164.64 228.5 165.28 228 165.28Z" fill="#C0EAFD"/>
<path d="M244.92 164.9C242.748 165.144 240.565 165.271 238.38 165.28C237.035 165.36 235.686 165.232 234.38 164.9C234.124 164.827 233.899 164.674 233.737 164.463C233.575 164.253 233.485 163.996 233.48 163.73V129.87C233.459 129.431 233.582 128.998 233.831 128.636C234.081 128.275 234.442 128.006 234.86 127.87C236.56 127.376 238.332 127.176 240.1 127.28H259.9C260.64 127.28 261.02 128.62 261.02 131.28C261.078 133.339 260.907 135.399 260.51 137.42C260.17 138.83 259.74 139.53 259.2 139.53L248.36 139V142.63C253.1 142.423 256.27 142.317 257.87 142.31C258.122 142.304 258.368 142.385 258.567 142.54C258.766 142.695 258.905 142.914 258.96 143.16C259.215 144.237 259.316 145.345 259.26 146.45C259.267 148.013 259.086 149.571 258.72 151.09C258.37 152.57 257.87 153.31 257.23 153.31L248.36 152.99V163.67C248.36 164.26 247.22 164.65 244.92 164.9Z" fill="#C0EAFD"/>
<path d="M294.84 161.89C291.913 164.43 287.66 165.7 282.08 165.7C276.5 165.7 272.22 164.43 269.24 161.89C266.247 159.343 264.753 155.507 264.76 150.38V130.78C264.76 129.89 265.76 129.09 267.76 128.38C270.016 127.631 272.383 127.269 274.76 127.31C276.9 127.31 278.29 127.72 278.93 128.54C279.322 129.007 279.563 129.583 279.62 130.19V146.11C279.523 148.785 279.677 151.464 280.08 154.11C280.38 155.41 281.03 156.06 282.03 156.06C283.03 156.06 283.66 155.43 283.92 154.16C284.274 151.479 284.408 148.773 284.32 146.07V130.78C284.32 129.89 285.32 129.09 287.32 128.38C289.575 127.627 291.943 127.266 294.32 127.31C296.56 127.31 297.98 127.72 298.59 128.54C298.958 129.017 299.18 129.59 299.23 130.19V150.38C299.243 155.5 297.78 159.337 294.84 161.89Z" fill="#C0EAFD"/>
<path d="M308 165.28C306.799 165.338 305.595 165.237 304.42 164.98C303.81 164.79 303.51 164.46 303.51 163.98V130.78C303.51 130 304.51 129.23 306.61 128.46C308.836 127.664 311.186 127.274 313.55 127.31C315.83 127.31 317.32 127.79 318.04 128.75C318.264 129.064 318.392 129.435 318.41 129.82V153.48C322.75 153.19 326.03 153.05 328.23 153.05C328.98 153.05 329.35 154.23 329.35 156.6C329.376 158.647 329.216 160.692 328.87 162.71C328.55 164.42 328.13 165.28 327.59 165.28H308Z" fill="#C0EAFD"/>
<path d="M10.49 171.28C8.49787 171.39 6.50347 171.108 4.62 170.45C3.2624 169.926 2.09483 169.004 1.2704 167.805C0.445967 166.606 0.00314698 165.185 0 163.73L0 129.39C0 120.83 11.88 120.83 21.43 120.83C28.43 120.83 33.21 121.58 36.43 123.19C39.7765 124.749 42.3841 127.551 43.7 131V131.1C44.2802 132.919 44.5638 134.82 44.54 136.73C44.6153 139.346 44.1524 141.95 43.18 144.38C44.99 146.77 45.88 150.02 45.88 154.3C45.88 161.12 42.88 164.93 40.33 166.92C37.51 169.15 33.66 170.49 28.57 171C26.69 171.167 24.55 171.25 22.15 171.25L10.49 171.28Z" fill="#4070D9"/>
<path d="M48.08 171.28C46.1044 171.386 44.1271 171.104 42.26 170.45C40.9024 169.926 39.7348 169.004 38.9104 167.805C38.086 166.606 37.6431 165.185 37.64 163.73V129.93C37.6171 128.37 38.0507 126.838 38.8876 125.521C39.7244 124.205 40.9279 123.161 42.35 122.52C44.59 121.621 47.0001 121.225 49.41 121.36H70.88C72.55 121.36 78 122.06 78 131.08C78.0578 133.461 77.8362 135.841 77.34 138.17C77.0857 139.335 76.6324 140.448 76 141.46C76.2198 142.495 76.3271 143.552 76.32 144.61C76.3427 146.312 76.2121 148.012 75.93 149.69C77.36 151.06 78.51 153.48 78.51 157.69C78.5702 160.081 78.3487 162.471 77.85 164.81C76.35 170.81 72.03 171.28 70.75 171.28H48.08Z" fill="#4070D9"/>
<path d="M106.3 171.76C104.71 171.76 103.46 171.76 102.5 171.62C101.22 171.488 99.9509 171.27 98.7 170.97C95.2949 170.227 92.1291 168.646 89.49 166.37C87.8048 164.957 86.3741 163.266 85.26 161.37C82.89 157.37 81.7 152.37 81.7 146.45C81.6597 142.735 82.3388 139.047 83.7 135.59C84.8294 132.628 86.5784 129.941 88.83 127.71C90.7767 125.893 93.0144 124.416 95.45 123.34C99.0422 121.688 102.946 120.822 106.9 120.8C112.09 120.8 115.73 121.26 118.36 122.25C120.024 122.875 121.532 123.854 122.78 125.12C123.704 126.067 124.426 127.192 124.904 128.426C125.382 129.66 125.605 130.978 125.56 132.3C125.486 134.585 125.061 136.844 124.3 139C122.3 145.42 117.74 146.12 115.89 146.12C114.99 146.12 114.04 145.97 110.48 145.12L108.92 144.75C108.837 145.316 108.801 145.888 108.81 146.46C108.806 147.004 108.832 147.549 108.89 148.09L110.01 147.75C113.78 146.57 114.83 146.38 115.89 146.38C117.72 146.38 122.19 147.09 124.21 153.67C124.936 155.822 125.341 158.07 125.41 160.34C125.447 161.7 125.199 163.053 124.682 164.312C124.165 165.571 123.392 166.708 122.41 167.65C120.722 169.197 118.65 170.264 116.41 170.74C114.687 171.153 112.935 171.433 111.17 171.58C109.49 171.69 107.87 171.76 106.3 171.76Z" fill="#4070D9"/>
<path d="M153.43 171.28C150.15 171.28 144.49 171.28 140.94 168.9C140.213 169.484 139.4 169.953 138.53 170.29C136.063 171.077 133.476 171.415 130.89 171.29C128.137 171.342 125.389 171.026 122.72 170.35C116.34 168.61 115.65 164.44 115.65 162.72C115.65 161.54 115.65 160.52 120.65 144.55C123.8 134.55 125.65 128.74 126.08 127.24L126.14 127.03L126.22 126.82C127.8 122.73 132.4 122.21 135.45 121.82C138.545 121.479 141.656 121.312 144.77 121.32C150.77 121.32 154.45 123.32 155.62 127.2C166 161.62 166 161.8 166 163C165.989 164.096 165.732 165.176 165.247 166.159C164.762 167.142 164.063 168.004 163.2 168.68L163.07 168.79C160.9 170.52 157.93 171.28 153.43 171.28Z" fill="#4070D9"/>
<path d="M187.71 171.28C185.85 171.34 183.99 171.199 182.16 170.86C181.179 170.645 180.244 170.255 179.4 169.71C178.036 170.266 176.603 170.633 175.14 170.8C172.713 171.115 170.268 171.275 167.82 171.28C164.62 171.28 162.82 171.05 161.36 170.47C159.983 169.959 158.796 169.04 157.956 167.835C157.116 166.631 156.664 165.198 156.66 163.73V129.39C156.66 127.45 157.49 122.79 165.16 121.5C168.416 121.009 171.707 120.785 175 120.83C178.613 120.83 180.947 120.83 182 120.83C183.18 120.83 184.54 120.92 186.06 121.03C187.632 121.121 189.191 121.376 190.71 121.79C191.71 122.09 192.78 122.47 193.94 122.91C195.713 123.563 197.309 124.621 198.6 126C199.462 126.958 200.235 127.992 200.91 129.09C202.601 132.041 203.417 135.413 203.26 138.81C203.337 142.179 202.653 145.522 201.26 148.59C200.803 149.516 200.275 150.406 199.68 151.25C203.41 157.56 204.24 160.4 204.24 162.65C204.23 171.28 192.65 171.28 187.71 171.28Z" fill="#4070D9"/>
<path d="M205.33 171.28C203.354 171.388 201.377 171.106 199.51 170.45C198.152 169.927 196.983 169.005 196.159 167.806C195.334 166.606 194.892 165.186 194.89 163.73V129.93C194.867 128.37 195.301 126.838 196.138 125.521C196.974 124.205 198.178 123.161 199.6 122.52C201.84 121.621 204.25 121.225 206.66 121.36H228.13C229.8 121.36 235.25 122.06 235.25 131.08C235.308 133.461 235.086 135.841 234.59 138.17C234.326 139.337 233.863 140.45 233.22 141.46C233.44 142.495 233.547 143.552 233.54 144.61C233.563 146.312 233.432 148.012 233.15 149.69C234.58 151.06 235.73 153.48 235.73 157.69C235.79 160.081 235.568 162.471 235.07 164.81C233.57 170.81 229.25 171.28 227.97 171.28H205.33Z" fill="#4070D9"/>
<path d="M238.38 171.28C235.29 171.28 233.52 171.04 232.08 170.45C230.723 169.927 229.556 169.005 228.733 167.805C227.91 166.605 227.47 165.185 227.47 163.73V129.87C227.453 128.262 227.921 126.687 228.813 125.349C229.705 124.011 230.979 122.973 232.47 122.37C234.21 121.64 236.55 121.31 240.05 121.31H259.9C262.04 121.31 267.02 122.31 267.02 131.31C267.083 133.841 266.858 136.37 266.35 138.85C266.072 140.08 265.592 141.256 264.93 142.33C265.183 143.698 265.294 145.089 265.26 146.48C265.262 148.517 265.028 150.547 264.56 152.53C263.03 158.85 258.56 159.34 257.23 159.34H257L254.35 159.25V163.71C254.35 166.53 252.83 170.06 245.55 170.85C243.169 171.121 240.776 171.265 238.38 171.28Z" fill="#4070D9"/>
<path d="M282.08 171.7C275.08 171.7 269.44 169.94 265.35 166.45C260.97 162.73 258.76 157.32 258.76 150.38V130.78C258.76 128.24 259.97 124.78 265.76 122.72C268.66 121.748 271.702 121.271 274.76 121.31C276.13 121.31 279.99 121.31 282.76 123.88C283.577 123.418 284.434 123.03 285.32 122.72C288.219 121.747 291.262 121.27 294.32 121.31C295.9 121.31 300.71 121.31 303.41 124.97L303.5 125.09L303.58 125.22C304.623 126.682 305.198 128.425 305.23 130.22V150.41C305.23 157.33 303.05 162.73 298.75 166.41C294.73 169.93 289.11 171.7 282.08 171.7Z" fill="#4070D9"/>
<path d="M308 171.28C306.17 171.364 304.339 171.165 302.57 170.69C301.116 170.27 299.836 169.391 298.924 168.183C298.012 166.975 297.516 165.504 297.51 163.99V130.78C297.51 127.23 299.87 124.56 304.51 122.78C307.397 121.747 310.444 121.232 313.51 121.26C317.78 121.26 320.91 122.56 322.81 125.13L322.92 125.28C323.854 126.592 324.36 128.16 324.37 129.77V147.09C325.86 147.03 327.13 147 328.19 147C329.86 147 335.31 147.69 335.31 156.55C335.339 158.969 335.144 161.386 334.73 163.77C333.52 170.26 329.73 171.23 327.55 171.23L308 171.28Z" fill="#4070D9"/>
<path d="M22.18 165.28H10.49C9.2839 165.351 8.07437 165.222 6.91 164.9C6.65255 164.829 6.42491 164.677 6.26094 164.466C6.09698 164.255 6.00546 163.997 6 163.73V129.39C6 127.683 11.1433 126.83 21.43 126.83C27.3433 126.83 31.42 127.4 33.66 128.54C35.6285 129.41 37.1838 131.009 38 133C38.3722 134.211 38.551 135.473 38.53 136.74C38.53 139.52 38.06 141.603 37.12 142.99C36.7958 143.571 36.3562 144.079 35.8282 144.483C35.3002 144.887 34.695 145.179 34.05 145.34C35.6721 145.667 37.1372 146.53 38.21 147.79C39.31 149.08 39.87 151.25 39.87 154.31C39.87 157.87 38.7833 160.503 36.61 162.21C34.7167 163.71 31.8333 164.653 27.96 165.04C26.36 165.2 24.42 165.28 22.18 165.28ZM22.23 142C24.05 142 24.96 140.8 24.96 138.37C25.0366 137.416 24.7785 136.465 24.23 135.68C24.0463 135.418 23.8045 135.202 23.5234 135.05C23.2423 134.897 22.9297 134.812 22.61 134.8H20.9V142H22.23ZM20.9 157.32H22.23C24.05 157.32 24.96 156.11 24.96 153.69C25.0356 152.733 24.7777 151.779 24.23 150.99C24.0463 150.728 23.8045 150.512 23.5234 150.36C23.2423 150.207 22.9297 150.122 22.61 150.11H20.9V157.32Z" fill="#C0EAFD"/>
<path d="M70.72 165.28H48.08C46.8904 165.349 45.6977 165.221 44.55 164.9C44.2934 164.828 44.0666 164.675 43.9029 164.464C43.7392 164.254 43.647 163.997 43.64 163.73V129.93C43.6103 129.506 43.7164 129.084 43.9429 128.724C44.1695 128.364 44.5047 128.086 44.9 127.93C46.3513 127.444 47.8827 127.244 49.41 127.34H70.88C71.62 127.34 72 128.58 72 131.06C72.0534 132.959 71.8924 134.857 71.52 136.72C71.2 138.02 70.77 138.66 70.24 138.66C67.92 138.66 64.02 138.43 58.54 137.97V141.55C63.81 141.33 67.25 141.23 68.85 141.23C69.81 141.23 70.29 142.35 70.29 144.59C70.3513 146.308 70.1627 148.026 69.73 149.69C69.35 150.85 68.85 151.43 68.21 151.43L58.54 151.21V154.63C64.74 154.17 69.0133 153.94 71.36 153.94C72.1 153.94 72.48 155.18 72.48 157.67C72.5356 159.569 72.3745 161.468 72 163.33C71.68 164.64 71.25 165.28 70.72 165.28Z" fill="#C0EAFD"/>
<path d="M115 164.88C113.568 165.212 112.114 165.442 110.65 165.57C109.17 165.69 107.73 165.76 106.32 165.76C104.91 165.76 103.83 165.76 103.07 165.65C102.06 165.535 101.058 165.358 100.07 165.12C98.8895 164.856 97.7423 164.46 96.65 163.94C95.4726 163.345 94.3713 162.609 93.37 161.75C92.209 160.787 91.2243 159.63 90.46 158.33C88.64 155.27 87.7333 151.32 87.74 146.48C87.6827 143.542 88.199 140.621 89.26 137.88C90.0575 135.717 91.3128 133.752 92.94 132.12C94.3883 130.759 96.0591 129.656 97.88 128.86C100.703 127.558 103.772 126.876 106.88 126.86C111.23 126.86 114.34 127.22 116.23 127.93C117.091 128.257 117.872 128.765 118.52 129.42C118.874 129.819 119.145 130.284 119.317 130.789C119.489 131.294 119.558 131.828 119.52 132.36C119.452 134.018 119.135 135.656 118.58 137.22C117.96 139.22 117.06 140.16 115.89 140.16C114.539 139.961 113.203 139.674 111.89 139.3C110.372 138.861 108.815 138.577 107.24 138.45C106.573 138.484 105.928 138.695 105.369 139.06C104.81 139.425 104.358 139.933 104.06 140.53C103.089 142.349 102.639 144.401 102.76 146.46C102.654 148.522 103.045 150.58 103.9 152.46C104.146 153.063 104.559 153.584 105.09 153.961C105.622 154.338 106.249 154.557 106.9 154.59C108.55 154.432 110.173 154.066 111.73 153.5C113.061 153.022 114.429 152.654 115.82 152.4C116.92 152.4 117.82 153.4 118.41 155.45C118.95 157.035 119.263 158.688 119.34 160.36C119.374 160.913 119.289 161.467 119.091 161.985C118.893 162.503 118.585 162.971 118.19 163.36C117.274 164.131 116.176 164.654 115 164.88Z" fill="#C0EAFD"/>
<path d="M136.37 164.69C134.586 165.178 132.736 165.377 130.89 165.28C128.671 165.328 126.456 165.085 124.3 164.56C122.54 164.07 121.65 163.46 121.65 162.71C121.65 161.96 123.24 156.4 126.41 146.35C129.58 136.3 131.41 130.5 131.85 128.97C132.03 128.5 133.46 128.12 136.15 127.82C139.023 127.507 141.91 127.353 144.8 127.36C147.88 127.36 149.58 127.897 149.9 128.97C156.633 151.323 160 162.667 160 163C159.981 163.215 159.914 163.423 159.803 163.608C159.692 163.794 159.541 163.952 159.36 164.07C158.36 164.85 156.36 165.25 153.44 165.25C147.127 165.25 143.903 164.5 143.77 163L143.4 159.53H138.27L138 162.53C137.988 163.015 137.825 163.485 137.533 163.872C137.24 164.26 136.834 164.546 136.37 164.69ZM142.27 149.42L141.46 139.81H140.29L139.38 149.42H142.27Z" fill="#C0EAFD"/>
<path d="M177.61 163.73C177.61 164.19 176.53 164.56 174.36 164.85C172.191 165.133 170.007 165.277 167.82 165.28C166.402 165.364 164.98 165.236 163.6 164.9C163.337 164.835 163.103 164.685 162.933 164.473C162.763 164.262 162.667 164.001 162.66 163.73V129.39C162.66 128.47 163.83 127.81 166.16 127.39C169.086 126.956 172.042 126.759 175 126.8C178.56 126.8 180.863 126.8 181.91 126.8C182.96 126.8 184.2 126.88 185.62 126.98C186.766 127.043 187.902 127.224 189.01 127.52C189.85 127.77 190.78 128.09 191.79 128.52C192.69 128.835 193.505 129.356 194.17 130.04C194.789 130.726 195.342 131.469 195.82 132.26C196.894 134.266 197.392 136.529 197.26 138.8C197.336 141.259 196.854 143.704 195.85 145.95C195.03 147.743 193.724 149.271 192.08 150.36C196.18 156.8 198.23 160.893 198.23 162.64C198.23 164.387 194.723 165.26 187.71 165.26C186.298 165.306 184.885 165.216 183.49 164.99C183.157 164.945 182.843 164.812 182.579 164.604C182.315 164.397 182.112 164.123 181.99 163.81L178.52 152.81L177.61 152.76V163.73ZM177.61 144.56H179C181.067 144.56 182.1 142.957 182.1 139.75C182.208 138.534 181.917 137.316 181.27 136.28C181.053 135.979 180.77 135.732 180.442 135.559C180.114 135.385 179.751 135.29 179.38 135.28H177.61V144.56Z" fill="#C0EAFD"/>
<path d="M228 165.28H205.33C204.14 165.349 202.948 165.221 201.8 164.9C201.543 164.828 201.317 164.675 201.153 164.464C200.989 164.254 200.897 163.997 200.89 163.73V129.93C200.86 129.506 200.966 129.084 201.193 128.724C201.419 128.364 201.755 128.086 202.15 127.93C203.601 127.444 205.133 127.244 206.66 127.34H228.13C228.87 127.34 229.25 128.58 229.25 131.06C229.303 132.959 229.142 134.857 228.77 136.72C228.45 138.02 228.02 138.66 227.49 138.66C225.17 138.66 221.27 138.43 215.79 137.97V141.55C221.06 141.33 224.5 141.23 226.1 141.23C227.06 141.23 227.54 142.35 227.54 144.59C227.601 146.308 227.413 148.026 226.98 149.69C226.6 150.85 226.1 151.43 225.46 151.43L215.79 151.21V154.63C221.99 154.17 226.263 153.94 228.61 153.94C229.35 153.94 229.73 155.18 229.73 157.67C229.786 159.569 229.624 161.468 229.25 163.33C228.93 164.64 228.5 165.28 228 165.28Z" fill="#C0EAFD"/>
<path d="M244.92 164.9C242.748 165.144 240.565 165.271 238.38 165.28C237.035 165.36 235.686 165.232 234.38 164.9C234.124 164.827 233.899 164.674 233.737 164.463C233.575 164.253 233.485 163.996 233.48 163.73V129.87C233.459 129.431 233.582 128.998 233.831 128.636C234.081 128.275 234.442 128.006 234.86 127.87C236.56 127.376 238.332 127.176 240.1 127.28H259.9C260.64 127.28 261.02 128.62 261.02 131.28C261.078 133.339 260.907 135.399 260.51 137.42C260.17 138.83 259.74 139.53 259.2 139.53L248.36 139V142.63C253.1 142.423 256.27 142.317 257.87 142.31C258.122 142.304 258.368 142.385 258.567 142.54C258.766 142.695 258.905 142.914 258.96 143.16C259.215 144.237 259.316 145.345 259.26 146.45C259.267 148.013 259.086 149.571 258.72 151.09C258.37 152.57 257.87 153.31 257.23 153.31L248.36 152.99V163.67C248.36 164.26 247.22 164.65 244.92 164.9Z" fill="#C0EAFD"/>
<path d="M294.84 161.89C291.913 164.43 287.66 165.7 282.08 165.7C276.5 165.7 272.22 164.43 269.24 161.89C266.247 159.343 264.753 155.507 264.76 150.38V130.78C264.76 129.89 265.76 129.09 267.76 128.38C270.016 127.631 272.383 127.269 274.76 127.31C276.9 127.31 278.29 127.72 278.93 128.54C279.322 129.007 279.563 129.583 279.62 130.19V146.11C279.523 148.785 279.677 151.464 280.08 154.11C280.38 155.41 281.03 156.06 282.03 156.06C283.03 156.06 283.66 155.43 283.92 154.16C284.274 151.479 284.408 148.773 284.32 146.07V130.78C284.32 129.89 285.32 129.09 287.32 128.38C289.575 127.627 291.943 127.266 294.32 127.31C296.56 127.31 297.98 127.72 298.59 128.54C298.958 129.017 299.18 129.59 299.23 130.19V150.38C299.243 155.5 297.78 159.337 294.84 161.89Z" fill="#C0EAFD"/>
<path d="M308 165.28C306.799 165.338 305.595 165.237 304.42 164.98C303.81 164.79 303.51 164.46 303.51 163.98V130.78C303.51 130 304.51 129.23 306.61 128.46C308.836 127.664 311.186 127.274 313.55 127.31C315.83 127.31 317.32 127.79 318.04 128.75C318.264 129.064 318.392 129.435 318.41 129.82V153.48C322.75 153.19 326.03 153.05 328.23 153.05C328.98 153.05 329.35 154.23 329.35 156.6C329.376 158.647 329.216 160.692 328.87 162.71C328.55 164.42 328.13 165.28 327.59 165.28H308Z" fill="#C0EAFD"/>
</g>
<defs>
<clipPath id="clip0_0_1370">
<rect width="335.36" height="185.79" fill="white"/>
</clipPath>
</defs>
</svg>
