<svg width="262" height="199" viewBox="0 0 262 199" fill="none" xmlns="http://www.w3.org/2000/svg">
<g clip-path="url(#clip0_0_1405)">
<path d="M261.78 130.89H214.9C214.9 119.859 212.727 108.936 208.506 98.7446C204.284 88.5532 198.097 79.2932 190.297 71.493C182.497 63.6929 173.237 57.5055 163.045 53.2841C152.854 49.0627 141.931 46.89 130.9 46.89C119.869 46.89 108.946 49.0627 98.7546 53.2841C88.5632 57.5055 79.3031 63.6929 71.503 71.493C63.7029 79.2932 57.5155 88.5532 53.2941 98.7446C49.0727 108.936 46.9 119.859 46.9 130.89H0C0 96.1758 13.7902 62.8834 38.3368 38.3368C62.8834 13.7902 96.1758 0 130.89 0C165.604 0 198.897 13.7902 223.443 38.3368C247.99 62.8834 261.78 96.1758 261.78 130.89Z" fill="#4F8C64"/>
<path d="M20 108.75L20.49 106.44L28.26 108.09C28.4303 108.136 28.6097 108.136 28.78 108.09C28.9037 108.056 29.0106 107.978 29.08 107.87C29.1587 107.748 29.2131 107.612 29.24 107.47C29.24 107.36 29.24 107.25 29.24 107.14V106.88H31.04C31.04 107.01 31.04 107.18 31.04 107.4C31.0389 107.662 31.0121 107.923 30.96 108.18C30.8918 108.687 30.7107 109.172 30.43 109.6C30.1906 109.967 29.8402 110.247 29.43 110.4C28.9702 110.563 28.4719 110.584 28 110.46L20 108.75ZM22.82 105.29L24.55 105.66L23.49 110.66L21.75 110.29L22.82 105.29Z" fill="#CEEFE3"/>
<path d="M27.43 101.92L32.16 103.32L31.49 105.58L20.59 102.36L21.24 100.16L25.41 101.39V101.3C24.9965 100.993 24.6917 100.562 24.54 100.07C24.3708 99.5262 24.3708 98.9438 24.54 98.4C24.6993 97.8614 25.0037 97.3771 25.42 97C25.7938 96.6461 26.2632 96.4097 26.77 96.32C27.3561 96.226 27.9563 96.274 28.52 96.46L33.72 98L33.06 100.26L28.26 98.85C28.0557 98.7645 27.8365 98.7204 27.615 98.7204C27.3935 98.7204 27.1743 98.7645 26.97 98.85C26.7854 98.9456 26.6237 99.08 26.4959 99.2439C26.3682 99.4079 26.2775 99.5976 26.23 99.8C26.1398 100.085 26.1226 100.387 26.18 100.68C26.2483 100.953 26.3901 101.202 26.59 101.4C26.8221 101.641 27.1109 101.82 27.43 101.92Z" fill="#CEEFE3"/>
<path d="M35.86 92.94C35.5862 93.6791 35.1244 94.334 34.52 94.84C33.9497 95.3015 33.2517 95.5772 32.52 95.63C31.721 95.6706 30.9226 95.5389 30.179 95.2439C29.4353 94.9488 28.7638 94.4973 28.21 93.92C27.7511 93.3719 27.4534 92.7073 27.35 92C27.2455 91.2399 27.3492 90.4658 27.65 89.76C27.8408 89.2595 28.1222 88.7985 28.48 88.4C28.8164 88.0173 29.2329 87.7135 29.7 87.51C30.1968 87.3029 30.732 87.2041 31.27 87.22C31.9169 87.2453 32.5538 87.3876 33.15 87.64L33.75 87.88L31.09 94.57L29.73 94L31.57 89.39C31.2803 89.266 30.9628 89.2211 30.65 89.26C30.3538 89.2965 30.0735 89.4142 29.84 89.6C29.5987 89.8037 29.413 90.0651 29.3 90.36C29.1678 90.6757 29.1262 91.022 29.18 91.36C29.2252 91.6713 29.3529 91.9648 29.55 92.21C29.7578 92.4559 30.022 92.648 30.32 92.77L31.61 93.28C31.9561 93.4307 32.3334 93.4959 32.71 93.47C33.043 93.446 33.3607 93.3204 33.62 93.11C33.8966 92.883 34.1073 92.586 34.23 92.25C34.323 92.0235 34.3803 91.784 34.4 91.54C34.4101 91.3179 34.3726 91.0963 34.29 90.89C34.2078 90.6879 34.0814 90.5068 33.92 90.36L34.86 88.36C35.2855 88.6481 35.6298 89.0406 35.86 89.5C36.0963 89.9893 36.2161 90.5266 36.21 91.07C36.2187 91.7104 36.0998 92.3461 35.86 92.94Z" fill="#CEEFE3"/>
<path d="M37.76 88L30.1 84.29L31.1 82.23L32.43 82.88V82.81C32.0584 82.4894 31.7991 82.0585 31.69 81.58C31.6082 81.1311 31.6749 80.6677 31.88 80.26C31.9357 80.1458 31.9992 80.0356 32.07 79.93C32.1304 79.8236 32.2007 79.7232 32.28 79.63L34.17 80.55C34.0669 80.6657 33.9733 80.7894 33.89 80.92C33.7895 81.0704 33.6993 81.2274 33.62 81.39C33.4658 81.6748 33.3931 81.9966 33.41 82.32C33.4206 82.6242 33.5177 82.9191 33.69 83.17C33.8682 83.4391 34.1174 83.6537 34.41 83.79L38.75 85.91L37.76 88Z" fill="#CEEFE3"/>
<path d="M42.39 79.53C42.017 80.2201 41.4685 80.7996 40.8 81.21C40.1968 81.5691 39.5013 81.743 38.8 81.71C38.0045 81.6337 37.235 81.3859 36.5445 80.9837C35.8539 80.5814 35.2588 80.0343 34.8 79.38C34.4045 78.7872 34.1892 78.0925 34.18 77.38C34.18 76.6175 34.3912 75.8699 34.79 75.22C35.0525 74.7572 35.3905 74.3415 35.79 73.99C36.1832 73.6662 36.6396 73.4278 37.13 73.29C37.6534 73.159 38.1983 73.1385 38.73 73.23C39.3653 73.3546 39.9742 73.588 40.53 73.92L41.09 74.25L37.48 80.47L36.21 79.74L38.7 75.44C38.4306 75.2769 38.1246 75.184 37.81 75.17C37.5138 75.1653 37.2225 75.2451 36.97 75.4C36.6859 75.5625 36.4478 75.7947 36.2781 76.0746C36.1085 76.3545 36.0127 76.6729 36 77C35.9965 77.3131 36.0796 77.6211 36.24 77.89C36.403 78.1698 36.6377 78.4011 36.92 78.56L38.12 79.26C38.4433 79.4596 38.8108 79.5764 39.19 79.6C39.5216 79.624 39.8527 79.5473 40.14 79.38C40.4451 79.1942 40.6967 78.9323 40.87 78.62C40.9937 78.4092 41.0815 78.1795 41.13 77.94C41.1799 77.7262 41.1799 77.5038 41.13 77.29C41.0771 77.0757 40.9743 76.877 40.83 76.71L42.05 74.89C42.441 75.2304 42.7344 75.6687 42.9 76.16C43.0697 76.6755 43.1142 77.2239 43.03 77.76C42.9306 78.3852 42.7134 78.9858 42.39 79.53Z" fill="#CEEFE3"/>
<path d="M39.88 65.44C39.787 65.5778 39.6675 65.6956 39.5284 65.7866C39.3893 65.8776 39.2335 65.94 39.07 65.97C38.915 66.0026 38.7549 66.0025 38.6 65.9698C38.445 65.9371 38.2986 65.8725 38.17 65.78C38.0381 65.689 37.9277 65.5702 37.8465 65.432C37.7653 65.2938 37.7153 65.1396 37.7 64.98C37.6568 64.6475 37.7426 64.3111 37.94 64.04C38.1321 63.7679 38.4226 63.5814 38.75 63.52C38.9041 63.4828 39.0644 63.4796 39.2199 63.5107C39.3753 63.5418 39.5221 63.6064 39.65 63.7C39.781 63.792 39.8907 63.9111 39.9717 64.0491C40.0528 64.1871 40.1034 64.3408 40.12 64.5C40.1458 64.6648 40.1379 64.8331 40.0966 64.9947C40.0553 65.1563 39.9816 65.3078 39.88 65.44ZM47 72L40.09 67L41.47 65.08L48.39 70.08L47 72Z" fill="#CEEFE3"/>
<path d="M49.15 59.35L47.88 61.11C47.7136 61.0224 47.528 60.9777 47.34 60.98C47.1388 60.9835 46.9407 61.0313 46.76 61.12C46.5441 61.2338 46.3536 61.3903 46.2 61.58C45.9861 61.8269 45.8443 62.1279 45.79 62.45C45.7646 62.5745 45.7734 62.7035 45.8157 62.8233C45.858 62.9431 45.9321 63.0491 46.03 63.13C46.1052 63.193 46.1941 63.2376 46.2896 63.2601C46.3851 63.2827 46.4846 63.2827 46.58 63.26C46.8772 63.1827 47.1516 63.0353 47.38 62.83L48.59 61.83C49.1027 61.3725 49.7271 61.0586 50.4 60.92C50.6754 60.8829 50.9556 60.9056 51.2214 60.9868C51.4872 61.0679 51.7323 61.2054 51.94 61.39C52.3576 61.7196 52.6503 62.1817 52.77 62.7C52.8835 63.2519 52.8525 63.8237 52.68 64.36C52.466 65.0009 52.126 65.5924 51.68 66.1C51.1153 66.8681 50.3254 67.4413 49.42 67.74C49.0476 67.8492 48.6562 67.8781 48.2717 67.8246C47.8873 67.7712 47.5186 67.6367 47.19 67.43L48.57 65.55C48.71 65.6292 48.8648 65.6789 49.0247 65.6961C49.1846 65.7133 49.3464 65.6976 49.5 65.65C49.8459 65.5358 50.1468 65.3153 50.36 65.02C50.5967 64.76 50.753 64.437 50.81 64.09C50.8363 63.964 50.8279 63.8333 50.7856 63.7118C50.7433 63.5902 50.6688 63.4825 50.57 63.4C50.4899 63.3352 50.3958 63.2897 50.2952 63.2672C50.1946 63.2446 50.0902 63.2456 49.99 63.27C49.7037 63.3572 49.4405 63.5076 49.22 63.71L48.06 64.66C47.5489 65.1332 46.9083 65.443 46.22 65.55C45.9321 65.5754 45.642 65.5424 45.3671 65.453C45.0921 65.3637 44.8381 65.2198 44.62 65.03C44.2164 64.7194 43.9279 64.283 43.8 63.79C43.6917 63.2712 43.7228 62.7329 43.89 62.23C44.118 61.6136 44.4569 61.0442 44.89 60.55C45.4112 59.8227 46.1502 59.2799 47 59C47.3627 58.902 47.742 58.8826 48.1128 58.9429C48.4836 59.0033 48.8372 59.1421 49.15 59.35Z" fill="#CEEFE3"/>
<path d="M55.56 54.33L59 57.89L57.29 59.52L51.4 53.36L53 51.81L54 52.89L54.07 52.82C53.8676 52.3467 53.822 51.8211 53.94 51.32C54.0792 50.7665 54.3825 50.2681 54.81 49.89C55.1915 49.5033 55.6726 49.2299 56.2 49.1C56.6978 48.9799 57.2202 49.0112 57.7 49.19C58.2581 49.3993 58.7561 49.7427 59.15 50.19L62.9 54.11L61.19 55.75L57.73 52.13C57.4469 51.7876 57.0416 51.5688 56.6 51.52C56.3939 51.5135 56.1886 51.5502 55.9975 51.6277C55.8063 51.7052 55.6335 51.8218 55.49 51.97C55.2739 52.1694 55.1121 52.4207 55.02 52.7C54.9349 52.9701 54.9349 53.2599 55.02 53.53C55.1345 53.8355 55.3195 54.1096 55.56 54.33Z" fill="#CEEFE3"/>
<path d="M67.28 50.76C66.6879 51.2782 65.965 51.6241 65.19 51.76C64.4747 51.8622 63.7452 51.7545 63.09 51.45C62.3684 51.1133 61.7401 50.6052 61.26 49.97C60.762 49.3496 60.4191 48.6194 60.26 47.84C60.1183 47.1338 60.1807 46.4019 60.44 45.73C60.7378 45.0103 61.2208 44.3824 61.84 43.91C62.4372 43.3995 63.1578 43.0547 63.93 42.91C64.6452 42.8077 65.3748 42.9154 66.03 43.22C66.7555 43.5595 67.3871 44.0709 67.87 44.71C68.3666 45.3274 68.7094 46.0541 68.87 46.83C69.0117 47.5361 68.9493 48.268 68.69 48.94C68.392 49.6623 67.9049 50.2909 67.28 50.76ZM66.15 49.32C66.4327 49.1044 66.6308 48.7965 66.71 48.45C66.7709 48.0833 66.7329 47.7071 66.6 47.36C66.4461 46.9362 66.2231 46.5408 65.94 46.19C65.6607 45.8321 65.3226 45.5244 64.94 45.28C64.6442 45.0755 64.2987 44.9546 63.94 44.93C63.5746 44.9173 63.2177 45.0422 62.94 45.28C62.649 45.4939 62.4462 45.8069 62.37 46.16C62.3051 46.529 62.3396 46.9087 62.47 47.26C62.6279 47.6809 62.8543 48.0729 63.14 48.42C63.4211 48.7762 63.7589 49.0836 64.14 49.33C64.4375 49.531 64.782 49.6516 65.14 49.68C65.5091 49.6857 65.8678 49.5579 66.15 49.32Z" fill="#CEEFE3"/>
<path d="M73.89 39.83L76.45 44.05L74.45 45.27L68.55 35.56L70.55 34.37L72.81 38.08H72.89C72.7956 37.5724 72.8621 37.048 73.08 36.58C73.3298 36.0706 73.7317 35.6513 74.23 35.38C74.687 35.0841 75.2159 34.9182 75.76 34.9C76.2729 34.8929 76.7767 35.0354 77.21 35.31C77.7092 35.6345 78.124 36.0733 78.42 36.59L81.23 41.23L79.23 42.45L76.63 38.18C76.5279 37.9791 76.387 37.8005 76.2153 37.6546C76.0436 37.5087 75.8447 37.3983 75.63 37.33C75.4282 37.2774 75.2174 37.2689 75.0121 37.3051C74.8067 37.3414 74.6116 37.4215 74.44 37.54C74.1864 37.6937 73.9737 37.9064 73.82 38.16C73.6789 38.4054 73.6161 38.688 73.64 38.97C73.6528 39.2726 73.7386 39.5677 73.89 39.83Z" fill="#CEEFE3"/>
<path d="M84.87 39.48C84.4266 39.7092 83.9386 39.8389 83.44 39.86C82.9924 39.8814 82.5482 39.7738 82.16 39.55C81.7244 39.2913 81.3761 38.9082 81.16 38.45C80.9629 38.0848 80.863 37.675 80.87 37.26C80.8803 36.9075 80.9801 36.5634 81.16 36.26C81.3579 35.9406 81.6041 35.6539 81.89 35.41C82.2027 35.1426 82.5372 34.9018 82.89 34.69C83.31 34.43 83.65 34.2 83.89 34.03C84.0887 33.9072 84.2592 33.7436 84.39 33.55C84.4294 33.4798 84.4501 33.4006 84.4501 33.32C84.4501 33.2395 84.4294 33.1603 84.39 33.09C84.3314 32.9495 84.2415 32.8242 84.1271 32.7237C84.0127 32.6231 83.8769 32.5501 83.73 32.51C83.5616 32.4681 83.3866 32.4597 83.215 32.4855C83.0434 32.5112 82.8786 32.5705 82.73 32.66C82.3959 32.7986 82.1178 33.045 81.94 33.36C81.801 33.6202 81.7518 33.919 81.8 34.21L79.8 35.01C79.673 34.5181 79.673 34.002 79.8 33.51C79.9401 33.0102 80.1972 32.5508 80.55 32.17C80.9714 31.7232 81.4736 31.3602 82.03 31.1C82.442 30.9028 82.8747 30.7519 83.32 30.65C83.7401 30.5758 84.1699 30.5758 84.59 30.65C84.9939 30.7082 85.378 30.8626 85.71 31.1C86.0631 31.3644 86.3505 31.7066 86.55 32.1L89.08 37.26L87.08 38.26L86.56 37.2H86.5C86.5 37.4993 86.4388 37.7954 86.32 38.07C86.1894 38.3639 86.0064 38.6316 85.78 38.86C85.514 39.1168 85.2063 39.3264 84.87 39.48ZM84.76 37.72C85.0467 37.584 85.2969 37.3818 85.49 37.13C85.6644 36.8995 85.7748 36.627 85.81 36.34C85.8384 36.058 85.7864 35.7737 85.66 35.52L85.26 34.71C85.1995 34.8009 85.1291 34.8848 85.05 34.96L84.71 35.24C84.58 35.34 84.45 35.44 84.31 35.53L83.95 35.78C83.7421 35.9174 83.5537 36.0822 83.39 36.27C83.2529 36.4199 83.1566 36.6024 83.11 36.8C83.0798 37.0392 83.1371 37.2812 83.2713 37.4815C83.4054 37.6817 83.6073 37.8268 83.84 37.89C84.1568 37.9282 84.4777 37.8689 84.76 37.72Z" fill="#CEEFE3"/>
<path d="M91.71 39.55L87.53 28.61L89.7 27.78L90.21 29.11H90.31C90.331 28.8305 90.3881 28.5549 90.48 28.29C90.5903 27.9779 90.7639 27.6919 90.99 27.45C91.2722 27.1633 91.6135 26.9415 91.99 26.8C92.5526 26.5785 93.1669 26.5229 93.76 26.64C94.4036 26.7702 94.9948 27.0866 95.46 27.55C96.0524 28.1438 96.5006 28.8657 96.77 29.66C97.0935 30.3974 97.2571 31.1949 97.25 32C97.2138 32.6582 96.9919 33.2927 96.61 33.83C96.2536 34.3593 95.7443 34.7674 95.15 35C94.7815 35.1594 94.381 35.2313 93.98 35.21C93.6519 35.1903 93.3316 35.1018 93.04 34.95C92.7877 34.8256 92.5579 34.66 92.36 34.46H92.29L93.92 38.72L91.71 39.55ZM91.21 31.76C91.3608 32.1873 91.5878 32.5837 91.88 32.93C92.1113 33.2086 92.4162 33.4165 92.76 33.53C93.0904 33.6252 93.4434 33.604 93.76 33.47C94.0944 33.3587 94.3781 33.1318 94.56 32.83C94.7293 32.5243 94.8155 32.1795 94.81 31.83C94.7906 31.385 94.6994 30.946 94.54 30.53C94.3864 30.1153 94.1632 29.7297 93.88 29.39C93.6507 29.1094 93.3451 28.901 93 28.79C92.6693 28.698 92.3174 28.7191 92 28.85C91.6681 28.9603 91.3851 29.1832 91.2 29.48C91.0241 29.7835 90.9342 30.1293 90.94 30.48C90.9592 30.9186 91.0504 31.3511 91.21 31.76Z" fill="#CEEFE3"/>
<path d="M100.47 36.27L97.34 25L99.58 24.38L99.97 25.76H100.07C100.118 25.4835 100.202 25.2145 100.32 24.96C100.456 24.6621 100.654 24.3964 100.9 24.18C101.214 23.9128 101.588 23.7242 101.99 23.63C102.574 23.4552 103.196 23.4552 103.78 23.63C104.406 23.8192 104.962 24.1878 105.38 24.69C105.912 25.341 106.291 26.103 106.49 26.92C106.732 27.7094 106.8 28.5418 106.69 29.36C106.596 30.0109 106.319 30.6216 105.89 31.12C105.479 31.5986 104.936 31.9462 104.33 32.12C103.945 32.2361 103.538 32.2668 103.14 32.21C102.817 32.1594 102.507 32.0437 102.23 31.87C101.994 31.7186 101.782 31.5332 101.6 31.32H101.53L102.75 35.71L100.47 36.27ZM100.71 28.47C100.818 28.9066 101.004 29.32 101.26 29.69C101.465 29.9943 101.753 30.2336 102.09 30.38C102.414 30.4913 102.766 30.4913 103.09 30.38C103.432 30.298 103.734 30.0957 103.94 29.81C104.144 29.5142 104.265 29.1688 104.29 28.81C104.315 28.3647 104.264 27.9184 104.14 27.49C104.031 27.0647 103.848 26.6619 103.6 26.3C103.394 25.9997 103.111 25.7611 102.78 25.61C102.451 25.4913 102.093 25.4766 101.755 25.5678C101.417 25.659 101.115 25.8518 100.89 26.12C100.679 26.4127 100.558 26.7599 100.54 27.12C100.509 27.5768 100.567 28.0351 100.71 28.47Z" fill="#CEEFE3"/>
<path d="M108.23 21.09C108.061 21.1339 107.885 21.1424 107.713 21.1149C107.541 21.0873 107.377 21.0244 107.23 20.93C107.092 20.8491 106.973 20.7401 106.88 20.6102C106.787 20.4802 106.722 20.3322 106.69 20.1757C106.658 20.0192 106.66 19.8576 106.694 19.7016C106.728 19.5456 106.795 19.3985 106.89 19.27C107.081 18.9971 107.372 18.8103 107.7 18.75C107.868 18.7035 108.045 18.6937 108.217 18.7213C108.39 18.7489 108.554 18.8133 108.7 18.91C108.839 18.9889 108.959 19.0967 109.052 19.2261C109.145 19.3555 109.209 19.5035 109.24 19.66C109.274 19.8155 109.274 19.9767 109.24 20.1322C109.205 20.2877 109.137 20.4337 109.04 20.56C108.947 20.6981 108.828 20.8162 108.689 20.9073C108.55 20.9983 108.394 21.0605 108.23 21.09ZM109.01 30.75L107.29 22.4L109.6 21.93L111.32 30.28L109.01 30.75Z" fill="#CEEFE3"/>
<path d="M114.68 24.69L115.34 29.57L113 29.89L111.85 21.45L114.08 21.15L114.28 22.64H114.38C114.493 22.1366 114.767 21.6836 115.16 21.35C115.596 20.9837 116.133 20.7573 116.7 20.7C117.236 20.6118 117.785 20.6705 118.29 20.87C118.768 21.0832 119.175 21.4306 119.46 21.87C119.781 22.3637 119.983 22.9251 120.05 23.51L120.79 28.89L118.44 29.21L117.77 24.21C117.735 23.767 117.535 23.3532 117.21 23.05C117.046 22.9223 116.857 22.8312 116.655 22.7829C116.454 22.7346 116.244 22.7302 116.04 22.77C115.749 22.803 115.473 22.9135 115.24 23.09C115.012 23.2517 114.844 23.4835 114.76 23.75C114.659 24.0525 114.631 24.3748 114.68 24.69Z" fill="#CEEFE3"/>
<path d="M126.28 28.68C125.492 28.7392 124.703 28.591 123.99 28.25C123.35 27.9285 122.821 27.4237 122.47 26.8C122.08 26.0915 121.867 25.2988 121.85 24.49C121.798 23.6949 121.938 22.8989 122.26 22.17C122.547 21.5098 123.019 20.947 123.62 20.55C124.269 20.1432 125.015 19.9186 125.78 19.9C126.314 19.87 126.849 19.9343 127.36 20.09C127.845 20.2435 128.292 20.4992 128.67 20.84C129.068 21.2047 129.382 21.6517 129.59 22.15C129.827 22.74 129.966 23.365 130 24V24.65L122.81 24.98L122.74 23.51L127.74 23.29C127.727 22.9721 127.634 22.6626 127.47 22.39C127.316 22.1376 127.094 21.9333 126.83 21.8C126.549 21.6563 126.234 21.5939 125.92 21.62C125.584 21.6592 125.266 21.7907 125 22C124.739 22.1743 124.525 22.4116 124.38 22.69C124.235 22.9776 124.169 23.2986 124.19 23.62L124.25 25.01C124.261 25.3541 124.347 25.6917 124.5 26C124.662 26.2902 124.905 26.5266 125.2 26.68C125.51 26.8319 125.855 26.9008 126.2 26.88C126.446 26.8721 126.689 26.8249 126.92 26.74C127.121 26.6558 127.305 26.5335 127.46 26.38C127.611 26.2209 127.724 26.0294 127.79 25.82H129.98C129.905 26.3326 129.694 26.8159 129.37 27.22C129.03 27.6518 128.591 27.995 128.09 28.22C127.523 28.4918 126.908 28.6482 126.28 28.68Z" fill="#CEEFE3"/>
<path d="M138.84 22.55L136.67 22.6C136.643 22.4135 136.567 22.2374 136.45 22.09C136.326 21.9274 136.165 21.797 135.98 21.71C135.763 21.6 135.523 21.5451 135.28 21.55C134.958 21.519 134.634 21.5852 134.35 21.74C134.234 21.7924 134.135 21.8765 134.064 21.9826C133.993 22.0887 133.954 22.2125 133.95 22.34C133.944 22.4377 133.961 22.5354 134 22.6256C134.038 22.7157 134.096 22.7959 134.17 22.86C134.41 23.0472 134.691 23.1741 134.99 23.23L136.52 23.6C137.198 23.7264 137.828 24.0379 138.34 24.5C138.538 24.695 138.69 24.9317 138.785 25.1929C138.881 25.4541 138.916 25.7332 138.89 26.01C138.879 26.5404 138.689 27.0515 138.35 27.46C137.973 27.8783 137.499 28.1976 136.97 28.39C136.328 28.6105 135.648 28.7022 134.97 28.66C134.02 28.6748 133.09 28.3916 132.31 27.85C131.994 27.6148 131.732 27.3146 131.543 26.9695C131.353 26.6245 131.239 26.2427 131.21 25.85H133.54C133.563 26.0085 133.617 26.1608 133.7 26.2981C133.782 26.4354 133.891 26.555 134.02 26.65C134.317 26.8475 134.664 26.9551 135.02 26.96C135.366 26.9894 135.712 26.9201 136.02 26.76C136.135 26.702 136.233 26.6155 136.305 26.5087C136.377 26.4018 136.42 26.2783 136.43 26.15C136.432 26.046 136.409 25.943 136.364 25.8493C136.319 25.7556 136.252 25.6736 136.17 25.61C135.934 25.4337 135.66 25.314 135.37 25.26L134 24.91C133.314 24.784 132.68 24.4568 132.18 23.97C131.986 23.756 131.838 23.5045 131.745 23.231C131.652 22.9575 131.616 22.6679 131.64 22.38C131.648 21.871 131.824 21.3788 132.14 20.98C132.48 20.5776 132.928 20.2795 133.43 20.12C134.048 19.9124 134.7 19.8274 135.35 19.87C136.249 19.854 137.129 20.1275 137.86 20.65C138.147 20.8808 138.382 21.1691 138.551 21.4964C138.72 21.8236 138.818 22.1825 138.84 22.55Z" fill="#CEEFE3"/>
<path d="M147.86 23.58L145.7 23.45C145.684 23.2613 145.622 23.0793 145.52 22.92C145.413 22.7497 145.265 22.6088 145.09 22.51C144.879 22.3845 144.644 22.306 144.4 22.28C144.082 22.2348 143.757 22.2763 143.46 22.4C143.333 22.4444 143.222 22.5248 143.141 22.6314C143.059 22.738 143.01 22.8661 143 23C142.986 23.0993 142.994 23.2007 143.025 23.2961C143.057 23.3916 143.11 23.4785 143.18 23.55C143.406 23.7535 143.677 23.9009 143.97 23.98L145.46 24.48C146.118 24.655 146.718 24.9998 147.2 25.48C147.379 25.692 147.509 25.9407 147.582 26.2084C147.654 26.4762 147.667 26.7566 147.62 27.03C147.566 27.5582 147.333 28.0522 146.96 28.43C146.557 28.8241 146.057 29.1037 145.51 29.24C144.858 29.4112 144.177 29.4486 143.51 29.35C142.563 29.2966 141.657 28.9468 140.92 28.35C140.626 28.0958 140.391 27.7808 140.23 27.427C140.07 27.0731 139.988 26.6886 139.99 26.3L142.31 26.46C142.319 26.6202 142.36 26.777 142.431 26.9212C142.501 27.0654 142.599 27.1942 142.72 27.3C143.007 27.526 143.355 27.6617 143.72 27.69C144.057 27.7424 144.402 27.7044 144.72 27.58C144.841 27.5331 144.948 27.4546 145.029 27.3526C145.11 27.2507 145.162 27.1289 145.18 27C145.19 26.8992 145.178 26.7973 145.143 26.702C145.109 26.6067 145.053 26.5206 144.98 26.45C144.755 26.2535 144.488 26.1099 144.2 26.03L142.77 25.56C142.097 25.3733 141.492 24.9945 141.03 24.47C140.857 24.239 140.732 23.9759 140.662 23.6961C140.591 23.4163 140.577 23.1253 140.62 22.84C140.671 22.3336 140.889 21.8586 141.24 21.49C141.613 21.1144 142.085 20.8511 142.6 20.73C143.233 20.5851 143.887 20.558 144.53 20.65C145.429 20.7155 146.284 21.0658 146.97 21.65C147.243 21.8932 147.463 22.1902 147.616 22.5222C147.769 22.8543 147.852 23.2144 147.86 23.58Z" fill="#CEEFE3"/>
<path d="M153.62 30.86V22.03L155.92 22.65L155.72 28.52H155.79L158.6 23.35L160.87 23.96L160.75 29.82H160.82L163.54 24.66L165.85 25.28L161.41 32.91L159 32.3V26.74H158.9L156.1 31.54L153.62 30.86Z" fill="#CEEFE3"/>
<path d="M164.53 34.06L167.42 26.06L169.65 26.86L166.76 34.86L164.53 34.06ZM168.91 25.41C168.595 25.3014 168.334 25.0758 168.18 24.78C168.107 24.6393 168.063 24.4848 168.053 24.3264C168.043 24.1679 168.065 24.0091 168.12 23.86C168.171 23.7082 168.255 23.5694 168.365 23.4536C168.476 23.3378 168.611 23.2478 168.76 23.19C169.067 23.0596 169.411 23.05 169.725 23.1631C170.038 23.2763 170.297 23.5038 170.45 23.8C170.528 23.9392 170.574 24.0935 170.586 24.2523C170.598 24.4112 170.576 24.5708 170.52 24.72C170.469 24.8707 170.385 25.0081 170.275 25.1223C170.164 25.2364 170.029 25.3245 169.88 25.38C169.729 25.4494 169.565 25.4879 169.398 25.493C169.231 25.4982 169.066 25.4699 168.91 25.41Z" fill="#CEEFE3"/>
<path d="M173 26L175.18 26.91L172.12 34.24C172.042 34.3982 172.008 34.5742 172.02 34.75C172.022 34.8145 172.038 34.8779 172.065 34.9363C172.093 34.9947 172.132 35.047 172.18 35.09C172.283 35.1903 172.406 35.2686 172.54 35.32L172.85 35.42L173.11 35.47L172.77 37.24L172.26 37.17C172.004 37.1197 171.753 37.0461 171.51 36.95C171.024 36.7843 170.581 36.5147 170.21 36.16C169.895 35.857 169.684 35.461 169.61 35.03C169.537 34.5496 169.61 34.0583 169.82 33.62L173 26ZM175.87 29.41L175.2 31L170.46 29L171.15 27.37L175.87 29.41Z" fill="#CEEFE3"/>
<path d="M178.35 34.51L176.11 38.89L174 37.82L179.17 27.7L181.17 28.75L179.17 32.62H179.26C179.638 32.2689 180.118 32.0481 180.63 31.99C181.196 31.9434 181.763 32.0652 182.26 32.34C182.741 32.5615 183.155 32.9066 183.46 33.34C183.741 33.7745 183.887 34.2825 183.88 34.8C183.866 35.3923 183.708 35.9724 183.42 36.49L181 41.41L178.9 40.33L181.18 35.88C181.409 35.4988 181.481 35.0432 181.38 34.61C181.32 34.4096 181.218 34.2245 181.08 34.0674C180.942 33.9104 180.771 33.785 180.58 33.7C180.318 33.5642 180.025 33.4955 179.73 33.5C179.446 33.5118 179.172 33.6056 178.94 33.77C178.687 33.9659 178.485 34.2197 178.35 34.51Z" fill="#CEEFE3"/>
<path d="M185.6 44.42C184.926 44.0214 184.373 43.4477 184 42.76C183.663 42.1216 183.524 41.3976 183.6 40.68C183.681 39.8857 183.956 39.1234 184.4 38.46C184.811 37.7755 185.38 37.1994 186.06 36.78C186.683 36.4127 187.398 36.2322 188.12 36.26C188.899 36.3019 189.653 36.5542 190.3 36.99C190.967 37.393 191.516 37.9658 191.89 38.65C192.217 39.2916 192.356 40.0128 192.29 40.73C192.201 41.5241 191.923 42.2853 191.48 42.95C191.07 43.6331 190.501 44.2062 189.82 44.62C189.202 44.9899 188.49 45.1739 187.77 45.15C186.995 45.1043 186.245 44.8523 185.6 44.42ZM186.6 42.88C186.892 43.0812 187.248 43.1668 187.6 43.12C187.967 43.0617 188.313 42.9063 188.6 42.67C188.946 42.3875 189.244 42.0496 189.48 41.67C189.732 41.2957 189.915 40.8791 190.02 40.44C190.115 40.0829 190.115 39.707 190.02 39.35C189.91 39.0094 189.679 38.7212 189.37 38.54C189.079 38.3352 188.723 38.2461 188.37 38.29C188.004 38.3519 187.659 38.5068 187.37 38.74C187.028 39.0268 186.731 39.364 186.49 39.74C186.227 40.1257 186.028 40.5511 185.9 41C185.804 41.3604 185.804 41.7396 185.9 42.1C186.031 42.4331 186.275 42.7093 186.59 42.88H186.6Z" fill="#CEEFE3"/>
<path d="M196.84 47.75L199.84 43.88L201.71 45.32L196.51 52.07L194.71 50.68L195.71 49.46L195.64 49.4C195.192 49.6805 194.667 49.8102 194.14 49.77C193.568 49.7255 193.023 49.5055 192.58 49.14C192.138 48.8316 191.792 48.4054 191.58 47.91C191.4 47.4347 191.355 46.9191 191.45 46.42C191.58 45.8423 191.84 45.3019 192.21 44.84L195.52 40.54L197.37 42L194.32 46C194.037 46.3301 193.89 46.7556 193.91 47.19C193.929 47.3887 193.99 47.581 194.09 47.7536C194.19 47.9263 194.327 48.0751 194.49 48.19C194.711 48.3562 194.968 48.4691 195.24 48.52C195.523 48.57 195.814 48.5387 196.08 48.43C196.392 48.279 196.655 48.0434 196.84 47.75Z" fill="#CEEFE3"/>
<path d="M205.23 45.72L207 47.3L201.69 53.21C201.567 53.3316 201.477 53.4833 201.43 53.65C201.38 53.7717 201.38 53.9082 201.43 54.03C201.492 54.1571 201.581 54.2696 201.69 54.36C201.774 54.4345 201.864 54.5015 201.96 54.56L202.18 54.7L201.28 56.25L200.82 56.02C200.593 55.8873 200.378 55.7333 200.18 55.56C199.763 55.2502 199.421 54.8503 199.18 54.39C198.982 54.0017 198.912 53.5606 198.98 53.13C199.073 52.6517 199.302 52.2106 199.64 51.86L205.23 45.72ZM206.82 49.88L205.63 51.21L201.81 47.78L203 46.46L206.82 49.88Z" fill="#CEEFE3"/>
<path d="M206.13 61.55C205.792 61.1837 205.533 60.7513 205.37 60.28C205.24 59.8495 205.24 59.3905 205.37 58.96C205.511 58.4834 205.789 58.0589 206.17 57.74C206.47 57.4573 206.833 57.2514 207.23 57.14C207.574 57.0465 207.936 57.0465 208.28 57.14C208.636 57.2375 208.974 57.3929 209.28 57.6C209.631 57.8248 209.966 58.0755 210.28 58.35C210.65 58.69 210.95 58.95 211.19 59.15C211.365 59.3049 211.569 59.4239 211.79 59.5C211.868 59.5198 211.95 59.5182 212.028 59.4953C212.105 59.4724 212.175 59.4291 212.23 59.37C212.351 59.2768 212.449 59.1572 212.517 59.0203C212.584 58.8833 212.62 58.7327 212.62 58.58C212.594 58.2439 212.449 57.9281 212.21 57.69C211.98 57.4134 211.669 57.2173 211.32 57.13C211.03 57.0665 210.727 57.1017 210.46 57.23L209.13 55.48C209.568 55.2238 210.063 55.0828 210.57 55.07C211.088 55.0603 211.6 55.1806 212.06 55.42C212.607 55.7029 213.095 56.0862 213.5 56.55C213.804 56.8903 214.066 57.2664 214.28 57.67C214.482 58.0475 214.617 58.4568 214.68 58.88C214.732 59.2814 214.687 59.6893 214.55 60.07C214.386 60.4961 214.118 60.8743 213.77 61.17L209.47 65L208 63.34L208.88 62.55C208.59 62.6297 208.288 62.6501 207.99 62.61C207.67 62.5711 207.361 62.4692 207.08 62.31C206.721 62.1151 206.399 61.8578 206.13 61.55ZM207.8 61C208.006 61.2427 208.272 61.4285 208.57 61.54C208.836 61.6488 209.127 61.68 209.41 61.63C209.69 61.5813 209.951 61.4529 210.16 61.26L210.83 60.66C210.724 60.6262 210.624 60.5792 210.53 60.52C210.401 60.4447 210.278 60.3612 210.16 60.27L209.78 59.97L209.44 59.69C209.249 59.5258 209.037 59.3879 208.81 59.28C208.626 59.1933 208.423 59.1521 208.22 59.16C208.022 59.1885 207.838 59.2756 207.69 59.41C207.582 59.501 207.497 59.6166 207.443 59.7471C207.389 59.8777 207.368 60.0193 207.38 60.16C207.428 60.4771 207.575 60.771 207.8 61Z" fill="#CEEFE3"/>
<path d="M212.69 69.43C212.199 68.8146 211.881 68.0792 211.77 67.3C211.687 66.5821 211.815 65.8556 212.14 65.21C212.512 64.5113 213.033 63.9024 213.665 63.4256C214.297 62.9489 215.026 62.616 215.8 62.45C216.51 62.3158 217.243 62.3923 217.91 62.67C218.628 62.9766 219.247 63.4748 219.7 64.11C220.117 64.6374 220.408 65.253 220.55 65.91C220.673 66.4918 220.639 67.096 220.45 67.66C220.25 68.2257 219.905 68.7292 219.45 69.12L218.1 67.34C218.383 67.0765 218.567 66.7232 218.62 66.34C218.641 66.1477 218.624 65.9531 218.569 65.7676C218.514 65.5822 218.423 65.4095 218.3 65.26C218.099 64.9849 217.815 64.7815 217.49 64.68C217.14 64.5828 216.77 64.5828 216.42 64.68C215.527 64.9828 214.756 65.5648 214.22 66.34C214.023 66.6373 213.912 66.9835 213.9 67.34C213.909 67.6848 214.028 68.0176 214.24 68.29C214.391 68.4955 214.59 68.6604 214.82 68.77C215.04 68.8776 215.285 68.9259 215.53 68.91C215.803 68.8828 216.069 68.8012 216.31 68.67L217.65 70.45C217.153 70.7978 216.574 71.0082 215.97 71.06C215.38 71.1066 214.788 70.9889 214.26 70.72C213.642 70.4196 213.104 69.9776 212.69 69.43Z" fill="#CEEFE3"/>
<path d="M225 68.23L226.28 70.23L219.61 74.55C219.461 74.6407 219.335 74.7637 219.24 74.91C219.182 75.024 219.161 75.1534 219.18 75.28C219.211 75.4197 219.269 75.5522 219.35 75.67C219.411 75.7665 219.481 75.8569 219.56 75.94L219.73 76.13L218.46 77.39L218.08 77.05C217.895 76.8628 217.727 76.6586 217.58 76.44C217.281 76.0094 217.083 75.5173 217 75C216.911 74.5701 216.956 74.1232 217.13 73.72C217.361 73.2984 217.708 72.9515 218.13 72.72L225 68.23ZM225.44 72.67L223.95 73.67L221.16 69.37L222.65 68.37L225.44 72.67Z" fill="#CEEFE3"/>
<path d="M219 78.52L226.37 74.25L227.56 76.25L220.19 80.53L219 78.52ZM227.92 74.72C227.826 74.5735 227.763 74.4085 227.737 74.2361C227.712 74.0637 227.723 73.8878 227.77 73.72C227.803 73.5643 227.868 73.4173 227.962 73.2884C228.055 73.1594 228.174 73.0515 228.312 72.9714C228.449 72.8913 228.602 72.8409 228.76 72.8235C228.918 72.806 229.078 72.8219 229.23 72.87C229.554 72.9652 229.827 73.1844 229.99 73.48C230.08 73.6286 230.139 73.7935 230.165 73.9651C230.19 74.1366 230.182 74.3116 230.14 74.48C230.106 74.6353 230.041 74.7821 229.948 74.9111C229.855 75.0401 229.737 75.1487 229.6 75.23C229.462 75.3101 229.309 75.3603 229.151 75.3775C228.992 75.3948 228.832 75.3786 228.68 75.33C228.519 75.2844 228.369 75.2069 228.238 75.1021C228.108 74.9973 227.999 74.8674 227.92 74.72Z" fill="#CEEFE3"/>
<path d="M222.63 85.56C222.268 84.8675 222.099 84.0904 222.14 83.31C222.182 82.5845 222.44 81.8881 222.88 81.31C223.382 80.6964 224.011 80.1996 224.724 79.8541C225.438 79.5087 226.218 79.323 227.01 79.31C227.723 79.3181 228.418 79.5335 229.01 79.93C229.647 80.38 230.164 80.9808 230.513 81.6787C230.862 82.3766 231.032 83.15 231.01 83.93C230.97 84.6543 230.716 85.3504 230.28 85.93C229.792 86.5681 229.157 87.0792 228.43 87.42C227.723 87.7895 226.937 87.9817 226.14 87.98C225.428 87.9702 224.733 87.7549 224.14 87.36C223.48 86.911 222.957 86.288 222.63 85.56ZM224.28 84.76C224.429 85.0859 224.692 85.3457 225.02 85.49C225.362 85.6289 225.736 85.6704 226.1 85.61C226.546 85.551 226.979 85.4157 227.38 85.21C227.787 85.0171 228.159 84.7568 228.48 84.44C228.754 84.1638 228.948 83.8181 229.04 83.44C229.117 83.1018 229.071 82.7473 228.91 82.44C228.755 82.1128 228.489 81.8508 228.16 81.7C227.816 81.5559 227.438 81.5108 227.07 81.57C226.623 81.6335 226.19 81.7721 225.79 81.98C225.38 82.1692 225.008 82.4299 224.69 82.75C224.423 83.0064 224.233 83.3318 224.14 83.69C224.053 84.0517 224.103 84.4328 224.28 84.76Z" fill="#CEEFE3"/>
<path d="M230.6 90.88L226 92.65L225.15 90.44L233.15 87.38L233.96 89.49L232.56 90.03V90.12C233.077 90.1142 233.582 90.2756 234 90.58C234.459 90.9219 234.807 91.3915 235 91.93C235.206 92.433 235.272 92.9826 235.19 93.52C235.108 94.0252 234.878 94.4948 234.53 94.87C234.127 95.3161 233.623 95.659 233.06 95.87L228 97.87L227.15 95.66L231.82 93.86C232.247 93.7315 232.606 93.4406 232.82 93.05C232.907 92.8619 232.952 92.6572 232.952 92.45C232.952 92.2428 232.907 92.0381 232.82 91.85C232.715 91.5779 232.547 91.3345 232.33 91.14C232.111 90.9666 231.848 90.8591 231.57 90.83C231.247 90.7706 230.915 90.7878 230.6 90.88Z" fill="#CEEFE3"/>
<path d="M232.14 102.54C231.973 101.969 231.929 101.369 232.01 100.78C232.12 99.9141 232.483 99.1001 233.055 98.4401C233.626 97.78 234.379 97.3034 235.22 97.07C235.781 96.9117 236.368 96.8665 236.946 96.9369C237.525 97.0073 238.083 97.1919 238.59 97.48C239.1 97.7632 239.548 98.1452 239.909 98.6036C240.269 99.0621 240.535 99.5877 240.69 100.15C240.852 100.718 240.896 101.314 240.82 101.9C240.744 102.469 240.56 103.019 240.28 103.52C240.003 104.022 239.629 104.464 239.18 104.82C238.715 105.188 238.18 105.46 237.609 105.62C237.037 105.78 236.439 105.824 235.85 105.75C235.279 105.683 234.727 105.499 234.23 105.21C233.731 104.928 233.29 104.555 232.93 104.11C232.564 103.645 232.295 103.111 232.14 102.54ZM233.27 102.22C233.417 102.782 233.714 103.294 234.13 103.7C234.543 104.085 235.045 104.363 235.59 104.51C236.15 104.652 236.738 104.645 237.294 104.489C237.85 104.332 238.356 104.033 238.76 103.62C239.15 103.213 239.432 102.714 239.58 102.17C239.735 101.61 239.735 101.019 239.58 100.46C239.431 99.9049 239.13 99.4027 238.71 99.01C238.303 98.617 237.805 98.3317 237.26 98.18C236.7 98.0378 236.112 98.0452 235.556 98.2014C235 98.3576 234.494 98.6571 234.09 99.07C233.696 99.4747 233.414 99.9741 233.27 100.52C233.11 101.075 233.11 101.665 233.27 102.22ZM234.06 100.34L238 99.24L238.54 101.17C238.594 101.407 238.594 101.653 238.54 101.89C238.495 102.124 238.388 102.341 238.23 102.52C238.049 102.704 237.821 102.836 237.57 102.9C237.322 102.975 237.058 102.975 236.81 102.9C236.583 102.823 236.38 102.689 236.22 102.51C236.055 102.315 235.936 102.086 235.87 101.84L235.5 100.52L236.24 100.31L236.55 101.42C236.588 101.561 236.677 101.682 236.8 101.76C236.875 101.796 236.957 101.814 237.04 101.814C237.123 101.814 237.205 101.796 237.28 101.76C237.359 101.744 237.433 101.711 237.497 101.663C237.561 101.614 237.614 101.552 237.65 101.48C237.695 101.344 237.695 101.196 237.65 101.06L237.47 100.41L234.28 101.3L234.06 100.34ZM236.58 102.34L235.01 103.74L234.7 102.62L236.29 101.27L236.58 102.34Z" fill="#CEEFE3"/>
<path d="M130.89 82.41L141.21 95.41L156.12 88.22L159.8 104.36H176.35L172.67 120.5L187.58 127.69L177.26 140.69L187.58 153.63L172.67 160.82L176.35 176.96H159.8L156.12 193L141.21 185.82L130.89 198.76L120.57 185.82L105.66 193L102 176.86H85.43L89.11 160.72L74.21 153.53L84.52 140.59L74.21 127.59L89.11 120.4L85.43 104.26H102L105.68 88.12L120.59 95.31L130.89 82.41Z" fill="#FF4530"/>
<path d="M119.51 127.66C118.951 127.667 118.402 127.51 117.93 127.21C117.434 126.882 117.045 126.416 116.81 125.87C116.256 124.469 116.256 122.911 116.81 121.51C117.072 120.968 117.485 120.513 118 120.2C118.465 119.91 119.002 119.758 119.55 119.76C119.922 119.751 120.291 119.826 120.63 119.98C120.898 120.109 121.137 120.293 121.33 120.52C121.494 120.711 121.632 120.923 121.74 121.15H121.8V117.31H123.93V127.53H121.83V126.31H121.74C121.628 126.54 121.483 126.752 121.31 126.94C121.117 127.159 120.878 127.333 120.61 127.45C120.265 127.606 119.888 127.678 119.51 127.66ZM120.18 125.97C120.495 125.98 120.804 125.878 121.05 125.68C121.307 125.477 121.499 125.202 121.6 124.89C121.739 124.509 121.806 124.106 121.8 123.7C121.805 123.295 121.741 122.893 121.61 122.51C121.505 122.203 121.314 121.932 121.06 121.73C120.805 121.545 120.495 121.45 120.18 121.46C119.863 121.448 119.552 121.547 119.3 121.74C119.048 121.946 118.86 122.22 118.76 122.53C118.626 122.905 118.561 123.302 118.57 123.7C118.561 124.102 118.626 124.501 118.76 124.88C118.86 125.193 119.047 125.47 119.3 125.68C119.547 125.887 119.858 126 120.18 126V125.97Z" fill="#FFD3C8"/>
<path d="M129.08 127.68C128.382 127.697 127.691 127.528 127.08 127.19C126.521 126.862 126.07 126.379 125.78 125.8C125.477 125.15 125.32 124.442 125.32 123.725C125.32 123.008 125.477 122.3 125.78 121.65C126.067 121.069 126.52 120.586 127.08 120.26C127.69 119.919 128.381 119.746 129.08 119.76C129.78 119.744 130.47 119.917 131.08 120.26C131.643 120.585 132.099 121.068 132.39 121.65C132.693 122.3 132.85 123.008 132.85 123.725C132.85 124.442 132.693 125.15 132.39 125.8C132.096 126.38 131.641 126.862 131.08 127.19C130.469 127.53 129.779 127.699 129.08 127.68ZM129.08 126.04C129.405 126.053 129.723 125.942 129.97 125.73C130.217 125.509 130.4 125.226 130.5 124.91C130.754 124.134 130.754 123.297 130.5 122.52C130.4 122.201 130.217 121.915 129.97 121.69C129.72 121.485 129.403 121.378 129.08 121.39C128.757 121.38 128.441 121.487 128.19 121.69C127.934 121.911 127.744 122.198 127.64 122.52C127.4 123.299 127.4 124.131 127.64 124.91C127.743 125.229 127.934 125.513 128.19 125.73C128.446 125.928 128.767 126.024 129.09 126L129.08 126.04Z" fill="#FFD3C8"/>
<path d="M138.58 118.87C138.431 118.875 138.283 118.85 138.144 118.797C138.005 118.743 137.878 118.663 137.77 118.56C137.66 118.466 137.572 118.35 137.512 118.218C137.451 118.087 137.42 117.944 137.42 117.8C137.42 117.656 137.451 117.513 137.512 117.382C137.572 117.25 137.66 117.134 137.77 117.04C137.989 116.833 138.279 116.718 138.58 116.72C138.882 116.716 139.172 116.831 139.39 117.04C139.498 117.135 139.584 117.252 139.643 117.383C139.702 117.514 139.731 117.656 139.73 117.8C139.731 117.944 139.702 118.086 139.643 118.217C139.584 118.348 139.498 118.465 139.39 118.56C139.171 118.766 138.88 118.877 138.58 118.87ZM137.51 127.53V119.86H139.64V127.53H137.51Z" fill="#FFD3C8"/>
<path d="M145.42 119.86V121.46H140.8V119.86H145.42ZM141.84 118H144V125.16C143.991 125.315 144.022 125.47 144.09 125.61C144.144 125.713 144.232 125.795 144.34 125.84C144.462 125.885 144.59 125.909 144.72 125.91C144.82 125.92 144.92 125.92 145.02 125.91H145.25L145.59 127.49L145.14 127.61C144.906 127.656 144.668 127.683 144.43 127.69C143.973 127.719 143.516 127.647 143.09 127.48C142.719 127.345 142.403 127.092 142.19 126.76C141.966 126.382 141.855 125.949 141.87 125.51L141.84 118Z" fill="#FFD3C8"/>
<path d="M128 144.56C127.301 144.579 126.611 144.41 126 144.07C125.441 143.74 124.987 143.258 124.69 142.68C124.387 142.03 124.23 141.322 124.23 140.605C124.23 139.888 124.387 139.18 124.69 138.53C124.981 137.948 125.437 137.465 126 137.14C126.61 136.796 127.3 136.624 128 136.64C128.699 136.626 129.39 136.799 130 137.14C130.56 137.466 131.013 137.949 131.3 138.53C131.603 139.18 131.76 139.888 131.76 140.605C131.76 141.322 131.603 142.03 131.3 142.68C131.007 143.257 130.556 143.739 130 144.07C129.389 144.408 128.698 144.577 128 144.56ZM128 142.91C128.32 142.922 128.634 142.815 128.88 142.61C129.131 142.391 129.318 142.107 129.42 141.79C129.66 141.011 129.66 140.179 129.42 139.4C129.32 139.079 129.133 138.791 128.88 138.57C128.635 138.362 128.321 138.252 128 138.26C127.672 138.252 127.353 138.362 127.1 138.57C126.847 138.791 126.66 139.079 126.56 139.4C126.306 140.176 126.306 141.013 126.56 141.79C126.662 142.107 126.849 142.391 127.1 142.61C127.354 142.815 127.674 142.921 128 142.91Z" fill="#FFD3C8"/>
<path d="M133.18 144.41V136.74H135.24V138.08H135.32C135.423 137.655 135.661 137.276 136 137C136.328 136.752 136.729 136.622 137.14 136.63H137.48C137.592 136.638 137.703 136.658 137.81 136.69V138.57C137.672 138.536 137.531 138.509 137.39 138.49H136.91C136.618 138.488 136.33 138.556 136.07 138.69C135.831 138.823 135.631 139.016 135.49 139.25C135.347 139.503 135.275 139.79 135.28 140.08V144.42L133.18 144.41Z" fill="#FFD3C8"/>
<path d="M110.39 151.06L108.69 161.29H106.56L108.26 151.06H110.39Z" fill="#FFD3C8"/>
<path d="M113.87 161.44C113.171 161.475 112.477 161.308 111.87 160.96C111.36 160.645 110.978 160.159 110.79 159.59C110.573 158.911 110.535 158.188 110.68 157.49C110.793 156.745 111.069 156.035 111.49 155.41C111.877 154.83 112.398 154.353 113.01 154.02C113.624 153.688 114.312 153.516 115.01 153.52C115.481 153.514 115.949 153.595 116.39 153.76C116.779 153.916 117.123 154.167 117.39 154.49C117.676 154.843 117.869 155.263 117.95 155.71C118.056 156.272 118.056 156.848 117.95 157.41L117.85 158H111.37L111.58 156.68H116.06C116.113 156.41 116.093 156.13 116 155.87C115.918 155.638 115.759 155.44 115.55 155.31C115.316 155.167 115.044 155.097 114.77 155.11C114.463 155.107 114.16 155.183 113.89 155.33C113.623 155.484 113.392 155.692 113.21 155.94C113.026 156.173 112.903 156.448 112.85 156.74L112.62 158.05C112.535 158.378 112.535 158.722 112.62 159.05C112.704 159.303 112.879 159.517 113.11 159.65C113.39 159.796 113.704 159.865 114.02 159.85C114.244 159.853 114.467 159.819 114.68 159.75C114.883 159.69 115.074 159.592 115.24 159.46C115.402 159.319 115.538 159.149 115.64 158.96L117.58 159.09C117.406 159.561 117.126 159.986 116.76 160.33C116.38 160.69 115.931 160.969 115.44 161.15C114.936 161.332 114.406 161.429 113.87 161.44Z" fill="#FFD3C8"/>
<path d="M121 161.43C120.567 161.441 120.136 161.356 119.74 161.18C119.396 161.025 119.12 160.752 118.96 160.41C118.785 160.014 118.743 159.572 118.84 159.15C118.893 158.767 119.033 158.4 119.25 158.08C119.45 157.794 119.709 157.556 120.01 157.38C120.32 157.192 120.657 157.053 121.01 156.97C121.378 156.879 121.752 156.818 122.13 156.79L123.23 156.65C123.447 156.628 123.658 156.563 123.85 156.46C123.918 156.425 123.976 156.374 124.02 156.311C124.063 156.248 124.091 156.176 124.1 156.1C124.133 155.972 124.135 155.838 124.106 155.709C124.076 155.58 124.016 155.461 123.93 155.36C123.826 155.264 123.702 155.191 123.568 155.146C123.433 155.101 123.291 155.086 123.15 155.1C122.8 155.086 122.453 155.173 122.15 155.35C121.903 155.502 121.707 155.725 121.59 155.99L119.65 155.83C119.813 155.37 120.084 154.955 120.44 154.62C120.799 154.265 121.233 153.995 121.71 153.83C122.63 153.509 123.624 153.464 124.57 153.7C124.93 153.786 125.27 153.942 125.57 154.16C125.837 154.371 126.041 154.651 126.16 154.97C126.282 155.351 126.306 155.757 126.23 156.15L125.36 161.32H123.36L123.54 160.26H123.48C123.312 160.498 123.11 160.71 122.88 160.89C122.632 161.075 122.355 161.217 122.06 161.31C121.716 161.408 121.358 161.448 121 161.43ZM121.86 159.97C122.154 159.97 122.444 159.905 122.71 159.78C122.964 159.665 123.187 159.49 123.36 159.27C123.529 159.062 123.643 158.814 123.69 158.55L123.82 157.73C123.731 157.787 123.633 157.828 123.53 157.85L123.13 157.94L122.69 158.02L122.3 158.08C122.064 158.111 121.833 158.168 121.61 158.25C121.421 158.317 121.253 158.43 121.12 158.58C120.988 158.716 120.903 158.892 120.88 159.08C120.852 159.199 120.856 159.323 120.893 159.439C120.93 159.556 120.998 159.66 121.09 159.74C121.3 159.909 121.561 160 121.83 160L121.86 159.97Z" fill="#FFD3C8"/>
<path d="M135.12 153.62L131.12 161.29H128.72L127.32 153.62H129.48L130.17 159.11H130.25L132.75 153.62H135.12Z" fill="#FFD3C8"/>
<path d="M138.15 161.44C137.451 161.474 136.757 161.307 136.15 160.96C135.642 160.642 135.261 160.158 135.07 159.59C134.858 158.91 134.82 158.188 134.96 157.49C135.082 156.748 135.358 156.039 135.77 155.41C136.158 154.828 136.683 154.35 137.3 154.02C137.913 153.686 138.602 153.514 139.3 153.52C139.771 153.513 140.239 153.594 140.68 153.76C141.067 153.92 141.41 154.17 141.68 154.49C141.966 154.843 142.159 155.263 142.24 155.71C142.345 156.272 142.345 156.848 142.24 157.41L142.15 158H135.67L135.88 156.68H140.35C140.414 156.41 140.393 156.127 140.29 155.87C140.208 155.638 140.049 155.44 139.84 155.31C139.609 155.168 139.341 155.098 139.07 155.11C138.763 155.106 138.459 155.181 138.19 155.33C137.922 155.486 137.688 155.694 137.5 155.94C137.323 156.176 137.203 156.45 137.15 156.74L136.91 158.05C136.842 158.382 136.859 158.726 136.96 159.05C136.998 159.178 137.06 159.296 137.145 159.399C137.229 159.502 137.333 159.588 137.45 159.65C137.726 159.797 138.037 159.866 138.35 159.85C138.577 159.853 138.804 159.82 139.02 159.75C139.22 159.69 139.407 159.591 139.57 159.46C139.735 159.321 139.871 159.151 139.97 158.96L141.97 159.09C141.793 159.559 141.512 159.983 141.15 160.33C140.768 160.687 140.319 160.966 139.83 161.15C139.291 161.342 138.722 161.44 138.15 161.44Z" fill="#FFD3C8"/>
<path d="M146.35 161.29L147.63 153.62H149.76L148.48 161.29H146.35ZM148.91 152.62C148.765 152.627 148.619 152.602 148.485 152.546C148.35 152.491 148.229 152.407 148.13 152.3C148.034 152.202 147.962 152.084 147.918 151.954C147.875 151.824 147.862 151.686 147.88 151.55C147.921 151.248 148.075 150.973 148.31 150.78C148.546 150.576 148.848 150.465 149.16 150.47C149.303 150.464 149.446 150.488 149.579 150.541C149.712 150.595 149.831 150.676 149.93 150.78C150.027 150.879 150.1 150.999 150.143 151.131C150.186 151.263 150.199 151.403 150.18 151.54C150.165 151.688 150.12 151.832 150.047 151.963C149.975 152.093 149.877 152.208 149.76 152.3C149.524 152.505 149.223 152.619 148.91 152.62Z" fill="#FFD3C8"/>
<path d="M155.54 153.62L155.27 155.22H150.65L150.92 153.62H155.54ZM152.26 151.78H154.39L153.2 158.93C153.164 159.081 153.164 159.239 153.2 159.39C153.218 159.44 153.246 159.487 153.282 159.526C153.318 159.566 153.361 159.598 153.41 159.62C153.529 159.662 153.654 159.682 153.78 159.68H154.08H154.32L154.4 161.27L153.92 161.39C153.686 161.432 153.448 161.455 153.21 161.46C152.761 161.49 152.31 161.421 151.89 161.26C151.55 161.123 151.275 160.862 151.12 160.53C150.954 160.135 150.919 159.697 151.02 159.28L152.26 151.78Z" fill="#FFD3C8"/>
</g>
<defs>
<clipPath id="clip0_0_1405">
<rect width="261.78" height="198.76" fill="white"/>
</clipPath>
</defs>
</svg>
