<svg width="194" height="199" viewBox="0 0 194 199" fill="none" xmlns="http://www.w3.org/2000/svg">
<g clip-path="url(#clip0_0_68)">
<path d="M96.53 0L114.1 22.05L139.48 9.81L145.76 37.3H173.94L167.66 64.79L193.06 77L175.49 99L193.06 121L167.66 133.24L173.94 160.72H145.76L139.48 188.21L114.1 176.09L96.53 198.09L79 176.09L53.57 188.32L47.3 160.83H19.12L25.39 133.35L0 121.11L17.57 99.11L0 77L25.39 64.79L19.12 37.3H47.3L53.57 9.81L79 22.05L96.53 0Z" fill="#202067"/>
<path d="M75.8 66.59H78.8V75.86C78.8327 76.8097 78.5844 77.748 78.0864 78.5574C77.5883 79.3667 76.8626 80.0111 76 80.41C75.0227 80.8385 73.9671 81.0597 72.9 81.0597C71.8329 81.0597 70.7773 80.8385 69.8 80.41C68.9383 80.0101 68.2133 79.3654 67.7154 78.5563C67.2174 77.7472 66.9687 76.8095 67 75.86V66.59H70V75.59C69.9894 76.0967 70.1137 76.5971 70.36 77.04C70.5937 77.4599 70.94 77.8063 71.36 78.04C71.8335 78.2767 72.3556 78.4 72.885 78.4C73.4144 78.4 73.9365 78.2767 74.41 78.04C74.8306 77.8071 75.1772 77.4606 75.41 77.04C75.6564 76.5971 75.7806 76.0967 75.77 75.59L75.8 66.59Z" fill="#F0372E"/>
<path d="M93.23 66.59V80.86H90.63L84.42 71.86H84.31V80.86H81.31V66.59H84L90.15 75.59H90.28V66.59H93.23Z" fill="#F0372E"/>
<path d="M98.74 66.59V80.86H95.74V66.59H98.74Z" fill="#F0372E"/>
<path d="M100.68 69.08V66.59H112.4V69.08H108V80.86H105V69.08H100.68Z" fill="#F0372E"/>
<path d="M113.5 66.59H116.88L120.13 72.74H120.27L123.52 66.59H126.9L121.7 75.82V80.82H118.7V75.82L113.5 66.59Z" fill="#F0372E"/>
<path d="M90.82 90.14V104.4H87.82V90.14H90.82Z" fill="#F0372E"/>
<path d="M105.24 90.14V104.4H102.64L96.43 95.4H96.33V104.4H93.33V90.14H96L102.16 99.14H102.28V90.14H105.24Z" fill="#F0372E"/>
<path d="M50.32 128H45.26V113.68H50.36C51.6488 113.644 52.9256 113.936 54.07 114.53C55.0949 115.097 55.9271 115.957 56.46 117C57.0133 118.199 57.2999 119.504 57.2999 120.825C57.2999 122.146 57.0133 123.451 56.46 124.65C55.9264 125.693 55.0898 126.551 54.06 127.11C52.9085 127.718 51.6218 128.024 50.32 128ZM48.32 125.41H50.23C51.0099 125.434 51.7844 125.273 52.49 124.94C53.1048 124.613 53.591 124.088 53.87 123.45C54.4833 121.774 54.4833 119.936 53.87 118.26C53.5934 117.625 53.1058 117.106 52.49 116.79C51.79 116.45 51.0178 116.285 50.24 116.31H48.28L48.32 125.41Z" fill="#F0372E"/>
<path d="M62.55 113.68V128H59.55V113.68H62.55Z" fill="#F0372E"/>
<path d="M67.61 113.68L71.06 124.52H71.19L74.65 113.68H78L73.07 128H69.19L64.26 113.73L67.61 113.68Z" fill="#F0372E"/>
<path d="M79.71 128V113.68H89.32V116.17H82.72V119.57H88.83V122.05H82.72V125.46H89.35V128H79.71Z" fill="#F0372E"/>
<path d="M91.72 128V113.68H97.35C98.3049 113.654 99.253 113.849 100.12 114.25C100.85 114.611 101.458 115.178 101.87 115.88C102.283 116.633 102.49 117.481 102.47 118.34C102.493 119.195 102.278 120.04 101.85 120.78C101.432 121.47 100.815 122.017 100.08 122.35C99.1971 122.732 98.2415 122.916 97.28 122.89H93.51V120.47H96.79C97.2778 120.486 97.7639 120.404 98.22 120.23C98.5764 120.093 98.8784 119.844 99.08 119.52C99.2786 119.159 99.3754 118.751 99.36 118.34C99.3741 117.922 99.2775 117.508 99.08 117.14C98.8779 116.809 98.5771 116.55 98.22 116.4C97.7626 116.217 97.2721 116.132 96.78 116.15H94.78V128H91.72ZM99.43 121.5L103 128H99.65L96.18 121.5H99.43Z" fill="#F0372E"/>
<path d="M112.34 117.78C112.321 117.523 112.248 117.272 112.123 117.046C111.999 116.82 111.827 116.624 111.62 116.47C111.111 116.136 110.508 115.974 109.9 116.01C109.474 115.996 109.05 116.064 108.65 116.21C108.347 116.328 108.081 116.525 107.88 116.78C107.702 117.016 107.607 117.304 107.61 117.6C107.592 117.835 107.648 118.069 107.77 118.27C107.896 118.467 108.063 118.634 108.26 118.76C108.488 118.91 108.733 119.03 108.99 119.12C109.277 119.224 109.571 119.307 109.87 119.37L111.15 119.68C111.738 119.806 112.311 119.994 112.86 120.24C113.352 120.451 113.807 120.737 114.21 121.09C114.587 121.424 114.89 121.832 115.1 122.29C115.366 122.91 115.474 123.586 115.415 124.258C115.355 124.93 115.13 125.576 114.76 126.14C114.286 126.805 113.63 127.32 112.87 127.62C111.916 127.997 110.895 128.177 109.87 128.15C108.845 128.17 107.826 127.99 106.87 127.62C106.062 127.307 105.366 126.76 104.87 126.05C104.369 125.284 104.108 124.385 104.12 123.47H107.04C107.055 123.899 107.198 124.313 107.45 124.66C107.709 124.99 108.055 125.239 108.45 125.38C108.894 125.546 109.366 125.628 109.84 125.62C110.296 125.631 110.751 125.556 111.18 125.4C111.522 125.274 111.826 125.06 112.06 124.78C112.267 124.518 112.376 124.193 112.37 123.86C112.38 123.568 112.28 123.282 112.09 123.06C111.864 122.812 111.583 122.62 111.27 122.5C110.841 122.328 110.4 122.187 109.95 122.08L108.39 121.69C107.342 121.473 106.364 121.003 105.54 120.32C105.198 120 104.931 119.608 104.758 119.172C104.585 118.736 104.511 118.268 104.54 117.8C104.515 116.991 104.757 116.197 105.23 115.54C105.725 114.871 106.392 114.349 107.16 114.03C108.038 113.653 108.985 113.466 109.94 113.48C110.895 113.462 111.844 113.649 112.72 114.03C113.466 114.35 114.107 114.874 114.57 115.54C115.015 116.202 115.252 116.982 115.25 117.78H112.34Z" fill="#F0372E"/>
<path d="M120.46 113.68V128H117.46V113.68H120.46Z" fill="#F0372E"/>
<path d="M122.41 116.17V113.68H134.12V116.17H129.76V128H126.76V116.17H122.41Z" fill="#F0372E"/>
<path d="M135.23 113.68H138.61L141.86 119.82H142L145.25 113.68H148.63L143.43 122.9V127.9H140.43V122.9L135.23 113.68Z" fill="#F0372E"/>
</g>
<defs>
<clipPath id="clip0_0_68">
<rect width="193.06" height="198.14" fill="white"/>
</clipPath>
</defs>
</svg>
