<svg width="199" height="199" viewBox="0 0 199 199" fill="none" xmlns="http://www.w3.org/2000/svg">
<g clip-path="url(#clip0_0_1456)">
<path d="M99.15 0C125.446 0 150.665 10.4461 169.26 29.0404C187.854 47.6346 198.3 72.8538 198.3 99.15V198.3H0V99.15C0 72.8538 10.4461 47.6346 29.0404 29.0404C47.6346 10.4461 72.8538 0 99.15 0Z" fill="#CEEFE3"/>
<path d="M28.2 73.22L26.43 72.29L30.43 64.68L32.19 65.61L30.76 68.34L38 72.15L36.88 74.3L29.64 70.48L28.2 73.22Z" fill="#7B65C8"/>
<path d="M39.9 68.66L31.63 62.72L33.07 60.72L36.39 63.1L38.73 59.84L35.41 57.46L36.84 55.46L45.11 61.39L43.68 63.39L40.35 61L38 64.27L41.32 66.66L39.9 68.66Z" fill="#7B65C8"/>
<path d="M45.94 60.49L38.52 53.49L43.38 48.32L44.84 49.68L41.66 53.1L43.18 54.52L46.11 51.41L47.57 52.78L44.64 55.9L46.17 57.33L49.34 54L50.8 55.37L45.94 60.49Z" fill="#7B65C8"/>
<path d="M53.89 52.5L47.7 44.42L51 41.86C51.545 41.4208 52.1914 41.1251 52.88 41C53.4779 40.8976 54.0927 40.9705 54.65 41.21C55.2413 41.4617 55.7529 41.8696 56.13 42.39C56.5353 42.8949 56.7977 43.4992 56.89 44.14C56.9596 44.7433 56.8555 45.3538 56.59 45.9C56.2729 46.5213 55.8138 47.0592 55.25 47.47L53.18 49.05L52 47.52L53.7 46.22C53.958 46.0295 54.1699 45.7834 54.32 45.5C54.4374 45.2579 54.4792 44.9861 54.44 44.72C54.3882 44.4396 54.2705 44.1755 54.0967 43.9495C53.9228 43.7235 53.6977 43.542 53.44 43.42C53.1932 43.3185 52.9223 43.2907 52.66 43.34C52.3469 43.4176 52.0537 43.5607 51.8 43.76L50.8 44.5L55.8 51.01L53.89 52.5Z" fill="#7B65C8"/>
<path d="M66.75 38C67.2628 38.847 67.5519 39.8105 67.59 40.8C67.6052 41.6454 67.3798 42.4778 66.94 43.2C66.4887 43.9528 65.8472 44.5736 65.08 45C64.3374 45.4383 63.4923 45.6728 62.63 45.68C61.7842 45.6899 60.9538 45.4537 60.24 45C59.3954 44.4679 58.7056 43.723 58.24 42.84C57.733 41.9781 57.4574 40.9998 57.44 40C57.4248 39.1545 57.6502 38.3222 58.09 37.6C58.5543 36.8751 59.1889 36.2747 59.9383 35.8512C60.6878 35.4277 61.5295 35.1938 62.39 35.17C63.2384 35.1638 64.071 35.3997 64.79 35.85C65.6131 36.3912 66.2871 37.1305 66.75 38ZM64.56 39.23C64.2886 38.7272 63.9257 38.2796 63.49 37.91C63.1487 37.6197 62.7262 37.4416 62.28 37.4C61.832 37.3733 61.3862 37.4813 61 37.71C60.5898 37.9176 60.2591 38.254 60.0586 38.6677C59.8581 39.0814 59.7989 39.5494 59.89 40C59.9758 40.5664 60.173 41.1102 60.47 41.6C60.7387 42.1074 61.1019 42.5588 61.54 42.93C61.887 43.2158 62.3122 43.3901 62.76 43.43C63.1997 43.4455 63.6333 43.3231 64 43.08C64.4019 42.8812 64.7285 42.5572 64.9305 42.1569C65.1325 41.7565 65.199 41.3014 65.12 40.86C65.036 40.2929 64.846 39.7468 64.56 39.25V39.23Z" fill="#7B65C8"/>
<path d="M72 41.27L65.81 32.66L68.37 31.76L72 37.53H72.08L71.5 30.65L73.59 29.91L77.48 35.63H77.56L76.78 28.81L79.34 27.91L80 38.44L77.76 39.23L73.94 34H73.87L74.2 40.43L72 41.27Z" fill="#7B65C8"/>
<path d="M83.47 37.58L81.69 27.58L88.69 26.35L89.04 28.35L84.47 29.16L84.84 31.22L89 30.4L89.35 32.4L85.14 33.14L85.5 35.2L90.07 34.39L90.42 36.39L83.47 37.58Z" fill="#7B65C8"/>
<path d="M91.71 36.18L91.19 26L95.39 25.79C96.0717 25.7354 96.7568 25.8416 97.39 26.1C97.9391 26.3252 98.4065 26.7124 98.73 27.21C99.0752 27.7438 99.2624 28.3644 99.27 29C99.3269 29.6298 99.1983 30.2624 98.9 30.82C98.6112 31.3299 98.1756 31.741 97.65 32C97.0269 32.3067 96.3443 32.4739 95.65 32.49L93 32.63L92.9 30.69L95.1 30.58C95.419 30.5736 95.7341 30.5092 96.03 30.39C96.2547 30.2887 96.4431 30.1213 96.57 29.91C96.6951 29.67 96.7505 29.3998 96.73 29.13C96.7221 28.8531 96.6391 28.5835 96.49 28.35C96.3458 28.1459 96.1385 27.9948 95.9 27.92C95.5967 27.8228 95.2775 27.7855 94.96 27.81L93.75 27.87L94.17 36.06L91.71 36.18ZM97.2 31.24L100 35.76L97.32 35.9L94.6 31.38L97.2 31.24Z" fill="#7B65C8"/>
<path d="M113.77 32.08C113.673 33.063 113.329 34.0056 112.77 34.82C112.263 35.5107 111.569 36.0417 110.77 36.35C109.964 36.6565 109.093 36.7529 108.24 36.63C107.383 36.5297 106.567 36.2093 105.87 35.7C105.191 35.191 104.673 34.4964 104.38 33.7C104.04 32.7731 103.947 31.7737 104.11 30.8C104.202 29.8159 104.547 28.8722 105.11 28.06C105.611 27.3636 106.307 26.8311 107.11 26.53C107.916 26.2341 108.782 26.1377 109.634 26.2492C110.485 26.3606 111.297 26.6766 112 27.17C112.685 27.6779 113.209 28.3722 113.51 29.17C113.835 30.1038 113.924 31.1034 113.77 32.08ZM111.27 31.75C111.364 31.1851 111.344 30.6069 111.21 30.05C111.11 29.6122 110.88 29.2149 110.55 28.91C110.211 28.6221 109.792 28.4442 109.35 28.4C108.908 28.3231 108.454 28.386 108.05 28.58C107.651 28.7899 107.324 29.1136 107.11 29.51C106.843 30.0165 106.676 30.5701 106.62 31.14C106.526 31.705 106.547 32.283 106.68 32.84C106.776 33.2795 107.007 33.678 107.34 33.98C107.681 34.2642 108.099 34.4416 108.54 34.49C108.983 34.5587 109.436 34.4924 109.84 34.3C110.24 34.0996 110.565 33.7775 110.77 33.38C111.041 32.8744 111.211 32.3207 111.27 31.75Z" fill="#7B65C8"/>
<path d="M114.17 37.44L116.83 27.62L123.54 29.43L123 31.36L118.67 30.19L118.12 32.19L122.03 33.25L121.5 35.19L117.6 34.13L116.52 38.13L114.17 37.44Z" fill="#7B65C8"/>
<path d="M124.52 40.52L128.84 31.3L131.06 32.3L129.33 36L132.97 37.7L134.7 34L136.92 35L132.61 44.23L130.39 43.18L132.12 39.48L128.48 37.78L126.75 41.48L124.52 40.52Z" fill="#7B65C8"/>
<path d="M135.49 46.09L133.28 44.63L141.77 38L144.5 39.81L141.74 50.19L139.54 48.73L141.75 41.06H141.68L135.49 46.09ZM137.41 42.56L142.02 45.56L141.02 47.12L136.41 44.06L137.41 42.56Z" fill="#7B65C8"/>
<path d="M155.57 48.93L148.78 56.52L147.22 55.13L148.12 48.05H148.07L144.15 52.43L142.32 50.79L149.11 43.2L150.68 44.61L149.76 51.61L149.82 51.67L153.73 47.3L155.57 48.93Z" fill="#7B65C8"/>
<path d="M152.06 60.28L149.63 57.4L157.41 50.83L159.84 53.71C160.461 54.4025 160.895 55.2425 161.1 56.15C161.273 56.9736 161.196 57.8302 160.88 58.61C160.485 59.4662 159.907 60.2253 159.186 60.8335C158.466 61.4418 157.62 61.8844 156.71 62.13C155.888 62.3106 155.032 62.2409 154.25 61.93C153.391 61.576 152.637 61.008 152.06 60.28ZM152.82 57.93L153.6 58.85C153.91 59.2424 154.307 59.5573 154.76 59.77C155.171 59.9473 155.631 59.9756 156.06 59.85C156.631 59.6618 157.156 59.3551 157.6 58.95C158.076 58.5822 158.465 58.1146 158.74 57.58C158.938 57.1766 158.988 56.7163 158.88 56.28C158.741 55.7927 158.492 55.3442 158.15 54.97L157.4 54.07L152.82 57.93Z" fill="#7B65C8"/>
<path d="M164.89 65.86C165.026 65.764 165.139 65.6404 165.224 65.4973C165.308 65.3543 165.361 65.1951 165.38 65.03C165.393 64.6356 165.273 64.2482 165.04 63.93C164.9 63.6976 164.721 63.4912 164.51 63.32C164.35 63.1978 164.16 63.1217 163.96 63.1C163.784 63.0898 163.609 63.1352 163.46 63.23C163.338 63.297 163.237 63.3976 163.17 63.52C163.104 63.6502 163.07 63.7941 163.07 63.94C163.072 64.115 163.092 64.2892 163.13 64.46C163.179 64.6741 163.243 64.8845 163.32 65.09L163.62 65.93C163.79 66.3679 163.908 66.8244 163.97 67.29C164.031 67.6776 164.031 68.0724 163.97 68.46C163.903 68.8179 163.764 69.1583 163.56 69.46C163.339 69.7647 163.061 70.0229 162.74 70.22C162.253 70.5542 161.671 70.7225 161.08 70.7C160.488 70.67 159.92 70.4607 159.45 70.1C158.852 69.6578 158.349 69.1002 157.97 68.46C157.548 67.8286 157.249 67.1228 157.09 66.38C156.963 65.7518 157.03 65.1 157.28 64.51C157.576 63.8875 158.044 63.3633 158.63 63L159.89 65C159.648 65.1638 159.457 65.3926 159.34 65.66C159.241 65.9181 159.217 66.1988 159.27 66.47C159.331 66.792 159.457 67.0982 159.64 67.37C159.784 67.6199 159.978 67.8377 160.21 68.01C160.385 68.146 160.591 68.2355 160.81 68.27C161.009 68.2844 161.207 68.2392 161.38 68.14C161.53 68.0391 161.643 67.8915 161.7 67.72C161.751 67.5097 161.751 67.2903 161.7 67.08C161.642 66.7638 161.558 66.4528 161.45 66.15L161.09 65.15C160.799 64.4277 160.699 63.6423 160.8 62.87C160.854 62.5128 160.99 62.1731 161.199 61.8779C161.407 61.5828 161.681 61.3404 162 61.17C162.493 60.8421 163.078 60.6809 163.67 60.71C164.279 60.7595 164.865 60.9663 165.37 61.31C165.947 61.719 166.437 62.2392 166.81 62.84C167.21 63.4413 167.47 64.1248 167.57 64.84C167.665 65.4282 167.592 66.0313 167.36 66.58C167.112 67.1217 166.713 67.5801 166.21 67.9L164.89 65.86Z" fill="#7B65C8"/>
<path d="M161.1 74C161.019 73.8475 160.971 73.6802 160.957 73.5083C160.943 73.3363 160.965 73.1634 161.02 73C161.071 72.837 161.155 72.6862 161.267 72.5572C161.379 72.4281 161.516 72.3235 161.67 72.25C161.821 72.166 161.989 72.1153 162.161 72.1015C162.334 72.0877 162.507 72.1111 162.67 72.17C162.832 72.2225 162.982 72.3071 163.111 72.4187C163.24 72.5304 163.345 72.6669 163.42 72.82C163.572 73.1232 163.6 73.4737 163.497 73.7969C163.394 74.1201 163.169 74.3904 162.87 74.55C162.667 74.657 162.438 74.7022 162.21 74.68C161.988 74.6607 161.773 74.5924 161.58 74.48C161.381 74.3642 161.216 74.1988 161.1 74Z" fill="#7B65C8"/>
<path d="M113.84 74.79C110.345 75.7948 107.163 77.6721 104.593 80.2454C102.023 82.8187 100.15 86.0034 99.15 89.5C98.1492 86.0039 96.2759 82.8196 93.7062 80.2464C91.1365 77.6732 87.9548 75.7956 84.46 74.79C87.9532 73.794 91.1349 71.9244 93.7051 69.3577C96.2754 66.791 98.1493 63.6118 99.15 60.12C100.149 63.6126 102.022 66.7928 104.593 69.3597C107.163 71.9267 110.346 73.7957 113.84 74.79Z" fill="#7B65C8"/>
<path d="M86.87 160.05L86.97 160.11H68.78L74.69 147.11L74.43 146.36C74.2 146.24 50.72 133.96 47.43 128.53C44.43 123.62 36.03 107.83 34.03 104.09C36.03 104.3 41.93 106.42 49.96 122.48L50.36 122.79C50.6 122.79 73.69 127.63 82.47 146.14L83.47 145.64C75 127.7 53.59 122.31 50.9 121.7C46 112 41.86 107.25 38.78 105L31.19 89C33.65 89.56 40.41 92.59 45.29 108.74L57.64 122.8L58.5 122.04L46.35 108.23C45.0409 103.494 43.0177 98.9859 40.35 94.86L36.17 84.86C45.94 89.72 49 104.45 49 104.6L49.15 104.89L62.03 117.89L62.85 117.09L50.07 104.21C49.79 102.87 47.94 94.9 42.93 88.9L41.93 84.44C43.93 85.02 49.85 88.14 55.44 104.68L55.66 104.96L80.44 122L81.25 121.21L70.66 105C69.752 102.099 69.7311 98.9929 70.6 96.08C72.65 99.32 79.13 109.44 81.48 111.93C81.99 112.47 82.78 113.14 83.69 113.93C87.9 117.51 94.94 123.5 95.32 133.14C95.8 144.93 87 159.9 86.87 160.05Z" fill="#7B65C8"/>
<path d="M164.25 104.06C162.25 107.8 153.79 123.59 150.85 128.5C147.59 133.93 124.11 146.21 123.85 146.33L123.59 147.08L129.5 160.08H111.33L111.43 160.02C111.34 159.87 102.51 144.9 102.98 133.14C103.36 123.5 110.41 117.51 114.61 113.93C115.52 113.15 116.31 112.48 116.82 111.93C119.17 109.44 125.65 99.32 127.7 96.08C128.574 98.9921 128.554 102.1 127.64 105L117.05 121.2L117.86 121.99L142.65 105L142.87 104.72C148.46 88.18 154.35 85.06 156.38 84.48L155.38 88.94C150.38 94.94 148.53 102.94 148.24 104.25L135.49 117.17L136.3 117.97L149.18 104.97L149.33 104.68C149.33 104.53 152.33 89.8 162.18 84.91L157.99 94.91C155.326 99.0381 153.303 103.546 151.99 108.28L139.8 122L140.66 122.76L153 108.68C157.89 92.53 164.64 89.5 167.1 88.94L159.51 104.94C156.43 107.23 152.27 111.94 147.4 121.68C144.7 122.29 123.25 127.68 114.75 145.59L115.75 146.09C124.53 127.58 147.63 122.79 147.86 122.74L148.26 122.43C156.34 106.39 162.23 104.27 164.25 104.06Z" fill="#7B65C8"/>
<path d="M56.47 180.71V178.13H57.14V182.5H56.47V181.76C56.3651 181.988 56.1989 182.182 55.99 182.32C55.753 182.484 55.468 182.565 55.18 182.55C54.925 182.556 54.6731 182.494 54.45 182.37C54.2329 182.244 54.0587 182.056 53.95 181.83C53.8203 181.538 53.7587 181.22 53.77 180.9V178.13H54.44V180.86C54.4327 180.998 54.4528 181.137 54.4991 181.267C54.5454 181.397 54.6171 181.517 54.71 181.62C54.796 181.713 54.9015 181.787 55.0189 181.835C55.1364 181.884 55.2631 181.906 55.39 181.9C55.5794 181.901 55.7659 181.853 55.932 181.762C56.0982 181.672 56.2385 181.54 56.34 181.38C56.4501 181.175 56.4954 180.941 56.47 180.71Z" fill="#7B65C8"/>
<path d="M61.45 179.11L60.85 179.28C60.8105 179.176 60.7567 179.079 60.69 178.99C60.611 178.887 60.508 178.804 60.39 178.75C60.2395 178.681 60.0755 178.647 59.91 178.65C59.6726 178.644 59.4391 178.711 59.24 178.84C59.1609 178.888 59.0954 178.955 59.0499 179.036C59.0043 179.117 58.9803 179.207 58.98 179.3C58.9768 179.376 58.9915 179.452 59.0227 179.521C59.054 179.591 59.101 179.652 59.16 179.7C59.334 179.814 59.5271 179.895 59.73 179.94L60.38 180.1C60.7042 180.16 61.0054 180.309 61.25 180.53C61.3458 180.629 61.4201 180.747 61.4683 180.876C61.5165 181.005 61.5375 181.142 61.53 181.28C61.5329 181.52 61.4594 181.755 61.32 181.95C61.1658 182.158 60.9586 182.32 60.72 182.42C60.4382 182.538 60.1352 182.595 59.83 182.59C59.443 182.602 59.0608 182.501 58.73 182.3C58.5843 182.203 58.4596 182.078 58.3633 181.932C58.2671 181.786 58.2013 181.622 58.17 181.45L58.81 181.29C58.8532 181.503 58.9745 181.692 59.15 181.82C59.3489 181.949 59.5833 182.012 59.82 182C60.0815 182.012 60.3404 181.943 60.56 181.8C60.6439 181.748 60.7135 181.676 60.7624 181.591C60.8113 181.505 60.838 181.409 60.84 181.31C60.8425 181.239 60.8295 181.168 60.8019 181.102C60.7743 181.037 60.7327 180.978 60.68 180.93C60.5409 180.81 60.3714 180.73 60.19 180.7L59.47 180.53C59.1403 180.472 58.8346 180.319 58.59 180.09C58.4942 179.991 58.4198 179.873 58.3717 179.744C58.3235 179.615 58.3025 179.478 58.31 179.34C58.3056 179.103 58.3794 178.871 58.52 178.68C58.6687 178.486 58.8651 178.335 59.09 178.24C59.3477 178.124 59.6275 178.066 59.91 178.07C60.2659 178.056 60.6167 178.158 60.91 178.36C61.1654 178.546 61.3547 178.809 61.45 179.11Z" fill="#7B65C8"/>
<path d="M64.38 182.59C63.9978 182.599 63.6207 182.502 63.29 182.31C62.9826 182.123 62.7386 181.848 62.59 181.52C62.4151 181.155 62.3294 180.754 62.34 180.35C62.3307 179.939 62.4162 179.532 62.59 179.16C62.7414 178.838 62.9761 178.561 63.27 178.36C63.5696 178.172 63.9161 178.071 64.27 178.07C64.4985 178.071 64.7252 178.112 64.94 178.19C65.1672 178.269 65.3751 178.395 65.55 178.56C65.7415 178.748 65.8885 178.977 65.98 179.23C66.0932 179.551 66.1474 179.89 66.14 180.23V180.51H62.82V180H65.5C65.5028 179.771 65.4514 179.545 65.35 179.34C65.2634 179.151 65.1201 178.994 64.94 178.89C64.752 178.771 64.5324 178.712 64.31 178.72C64.0659 178.711 63.825 178.777 63.62 178.91C63.4267 179.041 63.2714 179.22 63.17 179.43C63.0621 179.637 63.0071 179.867 63.01 180.1V180.49C63.003 180.779 63.0611 181.066 63.18 181.33C63.2879 181.545 63.4543 181.725 63.66 181.85C64.0292 182.035 64.4552 182.07 64.85 181.95C64.9923 181.903 65.1222 181.824 65.23 181.72C65.3349 181.611 65.4165 181.482 65.47 181.34L66.11 181.52C66.049 181.74 65.9318 181.94 65.77 182.1C65.6029 182.275 65.3975 182.408 65.17 182.49C64.915 182.572 64.6472 182.605 64.38 182.59Z" fill="#7B65C8"/>
<path d="M69.89 184.13C69.787 184.141 69.683 184.141 69.58 184.13C69.5206 184.142 69.4593 184.142 69.4 184.13L69.57 183.54C69.7125 183.562 69.8575 183.562 70 183.54C70.128 183.529 70.2465 183.468 70.33 183.37C70.4527 183.231 70.5447 183.067 70.6 182.89L70.73 182.55L69.11 178.16H69.84L71.05 181.64L72.26 178.16H73L71.15 183.16C71.0798 183.363 70.9749 183.553 70.84 183.72C70.7277 183.865 70.5795 183.979 70.41 184.05C70.2448 184.115 70.0671 184.142 69.89 184.13Z" fill="#7B65C8"/>
<path d="M75.52 182.59C75.1673 182.59 74.8215 182.493 74.52 182.31C74.2201 182.114 73.9784 181.841 73.82 181.52C73.6591 181.146 73.576 180.742 73.576 180.335C73.576 179.928 73.6591 179.524 73.82 179.15C73.9749 178.823 74.2202 178.548 74.5268 178.357C74.8335 178.165 75.1886 178.066 75.55 178.07C75.9039 178.071 76.2504 178.172 76.55 178.36C76.8518 178.551 77.0915 178.825 77.24 179.15C77.4051 179.523 77.4903 179.927 77.4903 180.335C77.4903 180.743 77.4051 181.147 77.24 181.52C77.0899 181.85 76.8453 182.127 76.5374 182.318C76.2294 182.508 75.8719 182.603 75.51 182.59H75.52ZM75.52 181.98C75.7863 181.995 76.049 181.913 76.26 181.75C76.4571 181.595 76.6062 181.387 76.69 181.15C76.8769 180.623 76.8769 180.047 76.69 179.52C76.6041 179.282 76.4555 179.071 76.26 178.91C76.049 178.747 75.7863 178.665 75.52 178.68C75.2539 178.667 74.9919 178.749 74.78 178.91C74.5876 179.074 74.4397 179.284 74.35 179.52C74.1767 180.05 74.1767 180.62 74.35 181.15C74.4375 181.385 74.5859 181.592 74.78 181.75C74.9891 181.919 75.2515 182.007 75.52 182V181.98Z" fill="#7B65C8"/>
<path d="M81.27 180.71V178.13H81.94V182.5H81.27V181.76C81.1617 181.985 80.9962 182.179 80.79 182.32C80.5487 182.483 80.261 182.564 79.97 182.55C79.7153 182.553 79.464 182.491 79.24 182.37C79.0252 182.241 78.8517 182.054 78.74 181.83C78.6103 181.538 78.5488 181.22 78.56 180.9V178.13H79.23V180.86C79.2227 180.998 79.2428 181.137 79.2891 181.267C79.3355 181.397 79.4071 181.517 79.5 181.62C79.5884 181.713 79.6957 181.786 79.8147 181.835C79.9337 181.883 80.0617 181.905 80.19 181.9C80.3666 181.896 80.5403 181.855 80.7 181.78C80.8782 181.686 81.0296 181.548 81.14 181.38C81.2457 181.173 81.2908 180.941 81.27 180.71Z" fill="#7B65C8"/>
<path d="M83.17 182.5V178.13H83.82V178.79C83.8987 178.572 84.0507 178.388 84.25 178.27C84.4603 178.13 84.7076 178.057 84.96 178.06H85.31V178.75H85.16H84.9C84.7058 178.749 84.514 178.794 84.34 178.88C84.1769 178.964 84.0403 179.092 83.945 179.249C83.8498 179.406 83.7996 179.586 83.8 179.77V182.54L83.17 182.5Z" fill="#7B65C8"/>
<path d="M89.07 179.87V182.5H88.4V176.68H89.07V178.81H89.12C89.2257 178.591 89.3879 178.405 89.59 178.27C89.8388 178.127 90.1232 178.057 90.41 178.07C90.681 178.063 90.9493 178.125 91.19 178.25C91.4177 178.373 91.6 178.566 91.71 178.8C91.8482 179.086 91.9134 179.402 91.9 179.72V182.5H91.23V179.77C91.2503 179.494 91.1684 179.22 91 179C90.9022 178.905 90.7861 178.832 90.6589 178.784C90.5317 178.736 90.3959 178.714 90.26 178.72C90.0544 178.713 89.8506 178.761 89.67 178.86C89.4947 178.947 89.3512 179.087 89.26 179.26C89.1481 179.445 89.0829 179.654 89.07 179.87Z" fill="#7B65C8"/>
<path d="M94.41 182.6C94.1509 182.606 93.894 182.551 93.66 182.44C93.4327 182.34 93.2406 182.174 93.1087 181.964C92.9767 181.753 92.911 181.508 92.92 181.26C92.9096 181.046 92.9618 180.834 93.07 180.65C93.166 180.495 93.3004 180.368 93.46 180.28C93.6325 180.187 93.8178 180.119 94.01 180.08C94.21 180.03 94.41 180 94.61 179.97L95.26 179.89C95.3858 179.892 95.5099 179.861 95.62 179.8C95.6599 179.777 95.6925 179.743 95.7137 179.703C95.735 179.662 95.7441 179.616 95.74 179.57C95.7468 179.452 95.73 179.333 95.6905 179.222C95.651 179.11 95.5896 179.008 95.51 178.92C95.4173 178.836 95.3081 178.772 95.1893 178.732C95.0705 178.693 94.9447 178.678 94.82 178.69C94.5506 178.676 94.284 178.75 94.06 178.9C93.9035 179.018 93.774 179.168 93.68 179.34L93.05 179.12C93.1426 178.877 93.2978 178.663 93.5 178.5C93.6854 178.351 93.9 178.242 94.13 178.18C94.3484 178.121 94.5737 178.09 94.8 178.09C94.961 178.094 95.1215 178.111 95.28 178.14C95.4665 178.182 95.6454 178.253 95.81 178.35C95.9917 178.462 96.1402 178.621 96.24 178.81C96.363 179.069 96.4214 179.354 96.41 179.64V182.52H95.74V181.92C95.6849 182.035 95.6105 182.14 95.52 182.23C95.3972 182.349 95.2507 182.441 95.09 182.5C94.8739 182.585 94.6413 182.619 94.41 182.6ZM94.51 182C94.7434 182.005 94.9743 181.95 95.18 181.84C95.3516 181.744 95.4961 181.607 95.6 181.44C95.689 181.281 95.7371 181.102 95.74 180.92V180.3C95.6896 180.352 95.6221 180.384 95.55 180.39C95.4425 180.426 95.3321 180.453 95.22 180.47L94.86 180.52H94.58C94.4132 180.539 94.2489 180.576 94.09 180.63C93.952 180.674 93.8279 180.753 93.73 180.86C93.6337 180.97 93.5835 181.114 93.59 181.26C93.5849 181.363 93.6061 181.466 93.6516 181.559C93.6971 181.651 93.7653 181.731 93.85 181.79C94.0423 181.928 94.2733 182.001 94.51 182Z" fill="#7B65C8"/>
<path d="M98.31 179.87V182.5H97.64V178.13H98.28V178.81H98.34C98.4398 178.59 98.6036 178.405 98.81 178.28C99.0494 178.131 99.3283 178.058 99.61 178.07C99.8819 178.066 100.15 178.132 100.39 178.26C100.613 178.385 100.794 178.573 100.91 178.8C101.04 179.089 101.101 179.404 101.09 179.72V182.5H100.42V179.77C100.438 179.478 100.341 179.191 100.15 178.97C100.058 178.87 99.9442 178.792 99.8179 178.742C99.6916 178.692 99.5556 178.671 99.42 178.68C99.2208 178.674 99.0238 178.723 98.85 178.82C98.681 178.912 98.5421 179.051 98.45 179.22C98.3491 179.421 98.3009 179.645 98.31 179.87Z" fill="#7B65C8"/>
<path d="M104 182.59C103.646 182.6 103.297 182.502 103 182.31C102.715 182.111 102.49 181.838 102.35 181.52C102.18 181.143 102.098 180.733 102.11 180.32C102.101 179.911 102.183 179.504 102.35 179.13C102.491 178.812 102.72 178.542 103.01 178.35C103.307 178.158 103.656 178.06 104.01 178.07C104.243 178.058 104.475 178.11 104.68 178.22C104.826 178.297 104.956 178.402 105.06 178.53L105.27 178.82H105.33V176.68H106V182.5H105.35V181.82H105.27L105.06 182.12C104.953 182.255 104.82 182.367 104.67 182.45C104.461 182.551 104.231 182.599 104 182.59ZM104.09 181.98C104.334 181.987 104.573 181.913 104.77 181.77C104.96 181.614 105.105 181.411 105.19 181.18C105.295 180.902 105.346 180.607 105.34 180.31C105.346 180.02 105.295 179.731 105.19 179.46C105.112 179.228 104.966 179.026 104.77 178.88C104.563 178.746 104.322 178.675 104.075 178.675C103.828 178.675 103.587 178.746 103.38 178.88C103.188 179.036 103.04 179.24 102.95 179.47C102.856 179.737 102.808 180.017 102.81 180.3C102.806 180.59 102.857 180.879 102.96 181.15C103.044 181.384 103.189 181.591 103.38 181.75C103.572 181.907 103.812 181.995 104.06 182L104.09 181.98Z" fill="#7B65C8"/>
<path d="M110.37 179.11L109.77 179.28C109.731 179.176 109.677 179.079 109.61 178.99C109.529 178.889 109.426 178.807 109.31 178.75C109.159 178.682 108.995 178.648 108.83 178.65C108.593 178.644 108.359 178.711 108.16 178.84C108.081 178.888 108.015 178.955 107.97 179.036C107.924 179.117 107.9 179.207 107.9 179.3C107.897 179.376 107.911 179.452 107.943 179.521C107.974 179.591 108.021 179.652 108.08 179.7C108.254 179.814 108.447 179.895 108.65 179.94L109.3 180.1C109.624 180.16 109.925 180.309 110.17 180.53C110.266 180.629 110.34 180.747 110.388 180.876C110.436 181.005 110.457 181.142 110.45 181.28C110.453 181.52 110.379 181.755 110.24 181.95C110.086 182.158 109.879 182.32 109.64 182.42C109.358 182.538 109.055 182.595 108.75 182.59C108.36 182.604 107.974 182.503 107.64 182.3C107.497 182.202 107.375 182.076 107.28 181.93C107.186 181.784 107.121 181.621 107.09 181.45L107.73 181.29C107.773 181.503 107.894 181.692 108.07 181.82C108.269 181.949 108.503 182.012 108.74 182C109.001 182.012 109.26 181.943 109.48 181.8C109.564 181.748 109.633 181.676 109.682 181.591C109.731 181.505 109.758 181.409 109.76 181.31C109.763 181.239 109.75 181.168 109.722 181.102C109.694 181.037 109.653 180.978 109.6 180.93C109.461 180.81 109.291 180.73 109.11 180.7L108.39 180.53C108.06 180.472 107.755 180.319 107.51 180.09C107.414 179.991 107.34 179.873 107.292 179.744C107.243 179.615 107.222 179.478 107.23 179.34C107.226 179.103 107.299 178.871 107.44 178.68C107.589 178.486 107.785 178.335 108.01 178.24C108.268 178.124 108.548 178.066 108.83 178.07C109.186 178.056 109.537 178.158 109.83 178.36C110.085 178.546 110.275 178.809 110.37 179.11Z" fill="#7B65C8"/>
<path d="M115.66 178.13V178.7H113.31V178.13H115.66ZM114 182.5V177.5C113.993 177.276 114.056 177.056 114.18 176.87C114.296 176.71 114.451 176.583 114.63 176.5C114.819 176.417 115.023 176.373 115.23 176.37C115.363 176.357 115.497 176.357 115.63 176.37L115.86 176.45L115.67 177.03H115.53C115.454 177.018 115.376 177.018 115.3 177.03C115.213 177.023 115.124 177.034 115.042 177.063C114.959 177.093 114.883 177.139 114.82 177.2C114.71 177.338 114.656 177.514 114.67 177.69V182.5H114Z" fill="#7B65C8"/>
<path d="M118.19 182.59C117.837 182.59 117.491 182.493 117.19 182.31C116.89 182.114 116.648 181.841 116.49 181.52C116.329 181.146 116.246 180.742 116.246 180.335C116.246 179.928 116.329 179.524 116.49 179.15C116.645 178.823 116.89 178.548 117.197 178.357C117.503 178.165 117.859 178.066 118.22 178.07C118.574 178.071 118.92 178.172 119.22 178.36C119.524 178.548 119.765 178.823 119.91 179.15C120.075 179.523 120.16 179.927 120.16 180.335C120.16 180.743 120.075 181.147 119.91 181.52C119.759 181.843 119.52 182.117 119.22 182.31C118.908 182.495 118.552 182.592 118.19 182.59ZM118.19 181.98C118.456 181.995 118.719 181.913 118.93 181.75C119.13 181.597 119.28 181.388 119.36 181.15C119.547 180.623 119.547 180.047 119.36 179.52C119.277 179.28 119.128 179.069 118.93 178.91C118.719 178.747 118.456 178.665 118.19 178.68C117.924 178.667 117.662 178.749 117.45 178.91C117.258 179.072 117.113 179.283 117.03 179.52C116.843 180.047 116.843 180.623 117.03 181.15C117.11 181.386 117.256 181.594 117.45 181.75C117.659 181.919 117.921 182.007 118.19 182V181.98Z" fill="#7B65C8"/>
<path d="M121.19 182.5V178.13H121.84V178.79C121.919 178.572 122.071 178.388 122.27 178.27C122.477 178.131 122.721 178.057 122.97 178.06H123.33V178.75H123.17H122.92C122.722 178.748 122.527 178.793 122.35 178.88C122.187 178.964 122.05 179.092 121.955 179.249C121.86 179.406 121.81 179.586 121.81 179.77V182.54L121.19 182.5Z" fill="#7B65C8"/>
<path d="M128.18 184.22C127.899 184.226 127.618 184.186 127.35 184.1C127.135 184.033 126.937 183.921 126.77 183.77C126.623 183.653 126.498 183.511 126.4 183.35L126.93 182.97L127.16 183.25C127.271 183.36 127.399 183.452 127.54 183.52C127.744 183.598 127.962 183.636 128.18 183.63C128.489 183.644 128.795 183.556 129.05 183.38C129.17 183.284 129.265 183.16 129.326 183.019C129.387 182.877 129.412 182.723 129.4 182.57V181.69H129.34C129.276 181.791 129.206 181.888 129.13 181.98C129.026 182.108 128.897 182.214 128.75 182.29C128.538 182.391 128.305 182.439 128.07 182.43C127.737 182.431 127.409 182.345 127.12 182.18C126.834 182.005 126.605 181.752 126.46 181.45C126.29 181.088 126.208 180.69 126.22 180.29C126.207 179.888 126.286 179.488 126.45 179.12C126.594 178.807 126.823 178.54 127.11 178.35C127.407 178.158 127.756 178.06 128.11 178.07C128.346 178.059 128.58 178.111 128.79 178.22C128.936 178.297 129.066 178.402 129.17 178.53L129.38 178.82H129.45V178.13H130.1V182.62C130.113 182.946 130.022 183.269 129.84 183.54C129.669 183.777 129.433 183.957 129.16 184.06C128.847 184.176 128.514 184.23 128.18 184.22ZM128.18 181.82C128.419 181.829 128.656 181.766 128.86 181.64C129.054 181.513 129.201 181.327 129.28 181.11C129.386 180.846 129.437 180.564 129.43 180.28C129.433 179.997 129.386 179.716 129.29 179.45C129.202 179.226 129.058 179.03 128.87 178.88C128.666 178.744 128.425 178.674 128.18 178.68C127.927 178.671 127.678 178.745 127.47 178.89C127.278 179.04 127.133 179.241 127.05 179.47C126.951 179.728 126.903 180.003 126.91 180.28C126.901 180.553 126.949 180.826 127.05 181.08C127.138 181.3 127.287 181.491 127.48 181.63C127.682 181.761 127.919 181.828 128.16 181.82H128.18Z" fill="#7B65C8"/>
<path d="M133.07 182.59C132.718 182.586 132.373 182.49 132.07 182.31C131.774 182.113 131.536 181.84 131.38 181.52C131.215 181.147 131.13 180.743 131.13 180.335C131.13 179.927 131.215 179.523 131.38 179.15C131.532 178.827 131.771 178.554 132.07 178.36C132.37 178.172 132.716 178.071 133.07 178.07C133.431 178.066 133.787 178.165 134.093 178.357C134.4 178.548 134.645 178.823 134.8 179.15C134.965 179.523 135.05 179.927 135.05 180.335C135.05 180.743 134.965 181.147 134.8 181.52C134.642 181.841 134.4 182.114 134.1 182.31C133.79 182.498 133.433 182.595 133.07 182.59ZM133.07 181.98C133.336 181.993 133.598 181.912 133.81 181.75C134.004 181.592 134.153 181.385 134.24 181.15C134.427 180.623 134.427 180.047 134.24 179.52C134.15 179.284 134.002 179.074 133.81 178.91C133.598 178.749 133.336 178.667 133.07 178.68C132.804 178.665 132.541 178.747 132.33 178.91C132.134 179.071 131.986 179.282 131.9 179.52C131.713 180.047 131.713 180.623 131.9 181.15C131.984 181.387 132.133 181.595 132.33 181.75C132.538 181.92 132.801 182.009 133.07 182V181.98Z" fill="#7B65C8"/>
<path d="M137.84 182.59C137.487 182.59 137.141 182.493 136.84 182.31C136.54 182.114 136.298 181.841 136.14 181.52C135.975 181.147 135.89 180.743 135.89 180.335C135.89 179.927 135.975 179.523 136.14 179.15C136.295 178.823 136.54 178.548 136.847 178.357C137.153 178.165 137.509 178.066 137.87 178.07C138.232 178.062 138.589 178.16 138.896 178.352C139.204 178.544 139.448 178.821 139.6 179.15C139.765 179.523 139.85 179.927 139.85 180.335C139.85 180.743 139.765 181.147 139.6 181.52C139.444 181.84 139.206 182.113 138.91 182.31C138.587 182.502 138.216 182.599 137.84 182.59ZM137.84 181.98C138.106 181.995 138.369 181.913 138.58 181.75C138.777 181.595 138.926 181.387 139.01 181.15C139.197 180.623 139.197 180.047 139.01 179.52C138.924 179.282 138.775 179.071 138.58 178.91C138.369 178.747 138.106 178.665 137.84 178.68C137.574 178.667 137.312 178.749 137.1 178.91C136.908 179.074 136.76 179.284 136.67 179.52C136.483 180.047 136.483 180.623 136.67 181.15C136.757 181.385 136.906 181.592 137.1 181.75C137.309 181.919 137.571 182.007 137.84 182V181.98Z" fill="#7B65C8"/>
<path d="M142.49 182.59C142.136 182.6 141.787 182.502 141.49 182.31C141.209 182.107 140.985 181.835 140.84 181.52C140.674 181.143 140.595 180.732 140.61 180.32C140.598 179.911 140.677 179.505 140.84 179.13C140.981 178.812 141.21 178.542 141.5 178.35C141.797 178.158 142.146 178.06 142.5 178.07C142.7 178.061 142.899 178.098 143.083 178.178C143.267 178.258 143.43 178.378 143.56 178.53L143.76 178.82H143.82V176.68H144.49V182.5H143.84V181.82H143.76L143.55 182.12C143.443 182.255 143.31 182.367 143.16 182.45C142.951 182.551 142.721 182.599 142.49 182.59ZM142.58 181.98C142.824 181.989 143.064 181.915 143.26 181.77C143.456 181.62 143.602 181.414 143.68 181.18C143.785 180.902 143.836 180.607 143.83 180.31C143.834 180.021 143.787 179.733 143.69 179.46C143.605 179.232 143.46 179.032 143.27 178.88C143.066 178.744 142.825 178.674 142.58 178.68C142.327 178.671 142.078 178.745 141.87 178.89C141.678 179.044 141.533 179.248 141.45 179.48C141.351 179.745 141.304 180.027 141.31 180.31C141.303 180.6 141.35 180.888 141.45 181.16C141.538 181.395 141.686 181.602 141.88 181.76C142.077 181.921 142.326 182.006 142.58 182V181.98Z" fill="#7B65C8"/>
<path d="M168.83 173.35C167.446 173.35 166.092 173.761 164.941 174.53C163.79 175.299 162.893 176.392 162.363 177.671C161.833 178.95 161.694 180.358 161.965 181.716C162.235 183.073 162.901 184.321 163.88 185.3C164.859 186.279 166.107 186.945 167.464 187.215C168.822 187.486 170.23 187.347 171.509 186.817C172.788 186.287 173.881 185.39 174.65 184.239C175.419 183.088 175.83 181.734 175.83 180.35C175.83 178.493 175.093 176.713 173.78 175.4C172.467 174.087 170.687 173.35 168.83 173.35ZM164.83 178.98C164.83 178.36 165.18 177.85 165.62 177.85C166.06 177.85 166.4 178.36 166.4 178.98C166.4 179.6 166.05 180.11 165.62 180.11C165.19 180.11 164.87 179.61 164.87 179L164.83 178.98ZM172.28 181.85C171.959 182.504 171.46 183.055 170.842 183.44C170.223 183.825 169.509 184.03 168.78 184.03C168.051 184.03 167.337 183.825 166.718 183.44C166.1 183.055 165.602 182.504 165.28 181.85C165.249 181.786 165.244 181.713 165.266 181.645C165.289 181.578 165.337 181.522 165.4 181.49C165.432 181.473 165.467 181.462 165.503 181.459C165.54 181.456 165.576 181.46 165.611 181.471C165.645 181.482 165.677 181.501 165.704 181.524C165.732 181.548 165.754 181.577 165.77 181.61C166.045 182.171 166.472 182.645 167.002 182.975C167.532 183.306 168.145 183.482 168.77 183.482C169.395 183.482 170.008 183.306 170.538 182.975C171.068 182.645 171.495 182.171 171.77 181.61C171.807 181.554 171.864 181.513 171.929 181.495C171.994 181.477 172.064 181.483 172.124 181.512C172.185 181.542 172.234 181.592 172.26 181.654C172.287 181.716 172.291 181.786 172.27 181.85H172.28ZM171.96 180.11C171.53 180.11 171.18 179.61 171.18 178.98C171.18 178.35 171.53 177.85 171.96 177.85C172.39 177.85 172.75 178.36 172.75 178.98C172.75 179.6 172.44 180.11 172 180.11H171.96Z" fill="#7B65C8"/>
<path d="M29.47 173.35C28.0855 173.35 26.7321 173.761 25.581 174.53C24.4298 175.299 23.5326 176.392 23.0028 177.671C22.473 178.95 22.3344 180.358 22.6045 181.716C22.8746 183.073 23.5413 184.321 24.5202 185.3C25.4992 186.279 26.7465 186.945 28.1043 187.215C29.4622 187.486 30.8697 187.347 32.1488 186.817C33.4278 186.287 34.5211 185.39 35.2903 184.239C36.0594 183.088 36.47 181.734 36.47 180.35C36.47 178.493 35.7325 176.713 34.4197 175.4C33.107 174.087 31.3265 173.35 29.47 173.35ZM25.47 178.98C25.47 178.36 25.82 177.85 26.25 177.85C26.68 177.85 27.04 178.36 27.04 178.98C27.04 179.6 26.69 180.11 26.25 180.11C25.81 180.11 25.51 179.61 25.51 179L25.47 178.98ZM33 181.85C32.6812 182.507 32.1839 183.061 31.5649 183.449C30.946 183.837 30.2303 184.042 29.5 184.042C28.7696 184.042 28.054 183.837 27.435 183.449C26.816 183.061 26.3187 182.507 26 181.85C25.983 181.819 25.9727 181.784 25.9696 181.749C25.9665 181.713 25.9707 181.678 25.982 181.644C25.9932 181.61 26.0113 181.579 26.035 181.553C26.0587 181.526 26.0877 181.505 26.12 181.49C26.152 181.473 26.1872 181.462 26.2233 181.459C26.2595 181.456 26.2959 181.46 26.3305 181.471C26.365 181.482 26.397 181.501 26.4244 181.524C26.4518 181.548 26.4741 181.577 26.49 181.61C26.7648 182.171 27.1916 182.645 27.7219 182.975C28.2523 183.306 28.8649 183.482 29.49 183.482C30.1151 183.482 30.7276 183.306 31.258 182.975C31.7883 182.645 32.2152 182.171 32.49 181.61C32.5059 181.577 32.5282 181.548 32.5556 181.524C32.583 181.501 32.6149 181.482 32.6495 181.471C32.684 181.46 32.7204 181.456 32.7566 181.459C32.7928 181.462 32.8279 181.473 32.86 181.49C32.8931 181.504 32.923 181.525 32.9481 181.551C32.9731 181.576 32.9927 181.607 33.0058 181.64C33.0188 181.674 33.025 181.71 33.024 181.746C33.023 181.782 33.0148 181.817 33 181.85ZM32.69 180.11C32.25 180.11 31.9 179.61 31.9 178.98C31.9 178.35 32.25 177.85 32.69 177.85C33.13 177.85 33.48 178.36 33.48 178.98C33.48 179.6 33.07 180.11 32.64 180.11H32.69Z" fill="#7B65C8"/>
</g>
<defs>
<clipPath id="clip0_0_1456">
<rect width="198.3" height="198.3" fill="white"/>
</clipPath>
</defs>
</svg>
