<svg width="198" height="291" viewBox="0 0 198 291" fill="none" xmlns="http://www.w3.org/2000/svg">
<g clip-path="url(#clip0_0_1501)">
<path d="M197.86 98.93C197.86 44.2925 153.568 0 98.93 0C44.2925 0 0 44.2925 0 98.93V191.88C0 246.518 44.2925 290.81 98.93 290.81C153.568 290.81 197.86 246.518 197.86 191.88V98.93Z" fill="#F3C3B4"/>
<path d="M17.08 170.56H40.93V176.32H31.36V185.72H40.93V191.47H17.08V185.72H26.67V176.32H17.08V170.56Z" fill="#202067"/>
<path d="M33.5199 217.71C31.2833 218.317 28.9285 218.341 26.6799 217.78C24.76 217.28 23.0243 216.239 21.6799 214.78C20.3353 213.275 19.3988 211.45 18.9599 209.48C18.4562 207.509 18.4769 205.441 19.0199 203.48C19.5632 201.575 20.6386 199.865 22.1199 198.55C23.8773 197.049 25.9861 196.016 28.2499 195.55C30.4866 194.943 32.8414 194.919 35.0899 195.48C37.0119 195.975 38.7489 197.017 40.0899 198.48C41.4097 200.001 42.3426 201.818 42.8092 203.776C43.2758 205.735 43.2624 207.778 42.7699 209.73C42.2286 211.641 41.1532 213.359 39.6699 214.68C37.9121 216.198 35.7949 217.241 33.5199 217.71ZM32.1599 212C33.4743 211.723 34.7235 211.197 35.8399 210.45C36.7092 209.861 37.3815 209.025 37.7699 208.05C38.1231 207.067 38.165 205.998 37.8899 204.99C37.702 203.95 37.1827 202.998 36.4096 202.277C35.6364 201.556 34.6508 201.105 33.5999 200.99C32.2618 200.819 30.903 200.91 29.5999 201.26C28.2856 201.537 27.0364 202.063 25.9199 202.81C25.0387 203.383 24.3642 204.223 23.9953 205.208C23.6264 206.192 23.5825 207.269 23.8699 208.28C24.0675 209.311 24.591 210.252 25.3634 210.963C26.1357 211.674 27.1161 212.118 28.1599 212.23C29.4955 212.414 30.8543 212.336 32.1599 212Z" fill="#202067"/>
<path d="M25.73 227.83L45.87 215.05L49 219.92L32.77 230.19L38.08 238.57L34.13 241.08L25.73 227.83Z" fill="#202067"/>
<path d="M45.7101 252.62L38.9301 247L54.1601 228.64L60.9301 234.27C62.6445 235.616 63.9955 237.369 64.8601 239.37C65.6019 241.196 65.7795 243.202 65.3701 245.13C64.8706 247.293 63.8395 249.297 62.3701 250.96C60.9933 252.698 59.2112 254.071 57.1801 254.96C55.3635 255.721 53.3594 255.917 51.4301 255.52C49.3111 255.046 47.3446 254.049 45.7101 252.62ZM46.5001 246.89L48.6801 248.7C49.5447 249.464 50.5699 250.025 51.6801 250.34C52.6926 250.57 53.7536 250.439 54.6801 249.97C55.9749 249.326 57.1093 248.4 58.0001 247.26C58.9192 246.211 59.6014 244.976 60.0001 243.64C60.2843 242.625 60.2029 241.542 59.7701 240.58C59.2468 239.513 58.4876 238.58 57.5501 237.85L55.4301 236.1L46.5001 246.89Z" fill="#202067"/>
<path d="M75.15 245L82.15 246.31L85.42 262L85.69 262.06L94.35 248.65L101.35 249.96L97 273.37L91.48 272.37L94.17 257.97H93.97L85.68 271.17L82.16 270.51L79.16 255.13H78.96L76.26 269.61L70.74 268.61L75.15 245Z" fill="#202067"/>
<path d="M100.32 249.6L106.61 248.19L113.71 256.83L113.91 256.78L116.65 245.94L122.94 244.53L117.94 261.94L119.68 269.71L114.05 271L112.31 263.23L100.32 249.6Z" fill="#202067"/>
<path d="M142.84 260.29L127.67 241.89L132.12 238.22L138.21 245.61L145.46 239.61L139.37 232.22L143.81 228.56L159 247L154.56 250.66L148.47 243.26L141.21 249.26L147.31 256.66L142.84 260.29Z" fill="#202067"/>
<path d="M167.4 235.62L164.35 241L147.56 222.24L151.34 215.56L176.06 220.31L173 225.71L154.71 221.8L154.62 221.96L167.4 235.62ZM158.83 231.71L165.21 220.44L169 222.6L162.62 233.87L158.83 231.71Z" fill="#202067"/>
<path d="M157.78 189L181.38 192.51L180.66 197.34L165.66 204.71V204.86L179.27 206.86L178.43 212.57L154.83 209.06L155.56 204.16L170.56 196.89V196.69L156.97 194.69L157.78 189Z" fill="#202067"/>
<path d="M180.77 177.89V186.7H156.92V177.9C156.864 175.717 157.355 173.554 158.35 171.61C159.283 169.877 160.71 168.46 162.45 167.54C164.45 166.597 166.634 166.108 168.845 166.108C171.056 166.108 173.24 166.597 175.24 167.54C176.989 168.451 178.422 169.87 179.35 171.61C180.342 173.551 180.831 175.711 180.77 177.89ZM175.86 180.94V178.11C175.893 176.94 175.661 175.777 175.18 174.71C174.719 173.776 173.949 173.03 173 172.6C171.695 172.077 170.295 171.835 168.89 171.89C167.484 171.831 166.082 172.077 164.78 172.61C163.815 173.036 163.031 173.791 162.57 174.74C162.082 175.823 161.849 177.003 161.89 178.19V180.94H175.86Z" fill="#202067"/>
<path d="M41.62 129.33H17.77V123.56H27.35V114.16H17.77V108.41H41.62V114.16H32V123.56H41.58L41.62 129.33Z" fill="#202067"/>
<path d="M30.88 81.81C33.1974 81.925 35.4462 82.6344 37.41 83.87C39.0736 84.9493 40.3925 86.4833 41.21 88.29C42.0162 90.1388 42.3396 92.162 42.15 94.17C42.0099 96.1862 41.352 98.1323 40.24 99.82C39.1284 101.465 37.5709 102.759 35.75 103.55C33.6209 104.449 31.2984 104.793 29 104.55C26.6844 104.425 24.4379 103.717 22.47 102.49C20.7926 101.396 19.4718 99.8351 18.67 98C17.8518 96.1512 17.5278 94.1216 17.73 92.11C17.8711 90.1001 18.5215 88.1591 19.62 86.47C20.7255 84.8172 22.2846 83.5185 24.11 82.73C26.2518 81.8531 28.5818 81.5365 30.88 81.81ZM30.39 87.68C29.0479 87.5272 27.6889 87.6393 26.39 88.01C25.3775 88.2972 24.475 88.8826 23.8 89.69C23.2925 90.2983 22.9315 91.0152 22.7451 91.7852C22.5586 92.5552 22.5516 93.3577 22.7246 94.1309C22.8976 94.904 23.2459 95.6271 23.7428 96.2442C24.2396 96.8613 24.8716 97.356 25.59 97.69C26.7996 98.2706 28.1106 98.6103 29.45 98.69C30.7922 98.8318 32.1492 98.7199 33.45 98.36C34.1878 98.1162 34.8638 97.715 35.4312 97.184C35.9985 96.653 36.4436 96.005 36.7356 95.2849C37.0276 94.5649 37.1596 93.7899 37.1224 93.0137C37.0852 92.2376 36.8796 91.4788 36.52 90.79C35.9887 89.885 35.1979 89.1604 34.25 88.71C33.0408 88.1237 31.7306 87.7741 30.39 87.68Z" fill="#202067"/>
<path d="M43.82 81.47L22.23 71.34L24.68 66.12L42 74.26L46.22 65.26L50.46 67.26L43.82 81.47Z" fill="#202067"/>
<path d="M57.1199 59.76L50.9399 66.05L33.9399 49.33L40.1099 43.05C41.6014 41.4553 43.468 40.259 45.5399 39.57C47.4195 38.9897 49.4304 38.9897 51.3099 39.57C53.411 40.2393 55.3141 41.4176 56.8499 43C58.4817 44.5095 59.7091 46.4039 60.4199 48.51C61.0309 50.3842 61.0588 52.3996 60.4999 54.29C59.846 56.3662 58.6842 58.2463 57.1199 59.76ZM51.4699 58.49L53.4699 56.49C54.3103 55.678 54.9563 54.6866 55.3599 53.59C55.6882 52.5894 55.6492 51.5045 55.2499 50.53C54.6871 49.2364 53.8553 48.0773 52.8099 47.13C51.852 46.1031 50.6814 45.2977 49.3799 44.77C48.3882 44.4101 47.3016 44.4101 46.3099 44.77C45.2039 45.2077 44.2121 45.8917 43.4099 46.77L41.4799 48.77L51.4699 58.49Z" fill="#202067"/>
<path d="M65.84 23.63L72.76 21.85L82.29 34.65L82.56 34.58L84.76 18.77L91.67 17L97.6 40.1L92.17 41.5L88.52 27.3L88.33 27.35L86.39 42.82L82.91 43.71L73.74 31L73.55 31.05L77.21 45.32L71.77 46.71L65.84 23.63Z" fill="#202067"/>
<path d="M102.34 17L108.67 18.17L111.81 28.9H112.02L118.79 20.01L125.13 21.18L113.66 35.18L112.21 43.01L106.57 42.01L108 34.23L102.34 17Z" fill="#202067"/>
<path d="M127.06 47.94L142.17 29.48L146.63 33.13L140.57 40.54L147.84 46.54L153.9 39.13L158.36 42.77L143.25 61.18L138.8 57.54L144.87 50.12L137.59 44.17L131.53 51.59L127.06 47.94Z" fill="#202067"/>
<path d="M146.81 67L143.88 61.54L168.71 57.38L172.33 64.15L155.1 82.46L152.17 77L165.26 63.64L165.17 63.47L146.81 67ZM154.69 61.84L160.8 73.26L156.94 75.33L150.83 63.91L154.69 61.84Z" fill="#202067"/>
<path d="M180.68 101.05L157 103.38L156.52 98.51L169.29 87.72V87.57L155.59 88.92L155 83.18L178.74 80.85L179.22 85.79L166.42 96.47V96.67L180.1 95.32L180.68 101.05Z" fill="#202067"/>
<path d="M156.23 115.31V106.49H180.08V115.3C180.141 117.479 179.653 119.639 178.66 121.58C177.73 123.315 176.302 124.733 174.56 125.65C172.582 126.65 170.386 127.142 168.17 127.08C165.949 127.142 163.747 126.654 161.76 125.66C160.016 124.746 158.587 123.327 157.66 121.59C156.668 119.648 156.176 117.49 156.23 115.31ZM161.15 112.31V115.14C161.113 116.307 161.346 117.467 161.83 118.53C162.296 119.474 163.083 120.222 164.05 120.64C165.356 121.172 166.761 121.417 168.17 121.36C169.573 121.418 170.971 121.172 172.27 120.64C173.233 120.206 174.016 119.454 174.49 118.51C174.97 117.425 175.202 116.246 175.17 115.06V112.31H161.15Z" fill="#202067"/>
<path d="M129.94 122.13C129.94 122.13 129.19 106.33 125.94 103.24C122.69 100.15 101.68 86.64 99.72 81C97.76 75.36 97.42 71.47 97.86 67.59C97.86 67.59 81.53 61.87 73.86 73.51C73.86 73.51 75.97 93.01 75.86 95.12C75.75 97.23 73.15 104.9 76.7 112.53C80.25 120.16 86.36 126.3 84 137C84 137 91.71 134.86 90.56 125C89.41 115.14 86.29 112.26 88.16 110.3C90.03 108.34 108.96 128.24 108.96 128.24C108.96 128.24 111.09 136.89 112.26 139.24C112.031 141.375 112.366 143.532 113.233 145.496C114.1 147.46 115.468 149.161 117.2 150.43C117.2 150.43 120.27 139.43 114.74 123.73L104.38 110C104.38 110 104.21 109.33 105.08 109.41C105.08 109.41 114.18 120.77 115.36 123.11C116.54 125.45 118.42 136.3 118.42 136.3C118.42 136.3 124.42 125.02 119.87 118.39C116.826 114.032 113.53 109.855 110 105.88C110 105.88 109.87 104.88 110.79 105.32C110.79 105.32 120 114.58 122.66 123.09C122.66 123.09 126.28 116.2 123.55 112.09C120.82 107.98 114.49 101.52 114.49 101.52C114.49 101.52 114.28 100.59 115.19 100.97C115.19 100.97 122.57 108.35 123.81 111.2C124.674 112.784 125.105 114.567 125.06 116.37C125.23 118.92 127.63 122.61 129.94 122.13Z" fill="#202067"/>
<path d="M72.27 154.89C72.27 154.89 66.5 169.61 68.27 173.78C70.04 177.95 83.59 198.78 83.06 204.78C82.53 210.78 81.28 214.42 79.29 217.78C79.29 217.78 91.87 229.67 103.59 222.16C103.59 222.16 109.59 203.49 110.59 201.62C111.59 199.75 117.05 193.79 116.92 185.38C116.79 176.97 113.78 168.84 120.32 160.02C120.32 160.02 112.41 158.82 109.45 168.27C106.49 177.72 108.14 181.64 105.64 182.67C103.14 183.7 94 157.83 94 157.83C94 157.83 95.59 149.06 95.48 146.45C96.5625 144.594 97.1378 142.486 97.1484 140.338C97.1589 138.19 96.6042 136.076 95.54 134.21C95.54 134.21 88.2 143 86.84 159.59L90.65 176.38C90.65 176.38 90.54 177.06 89.77 176.64C89.77 176.64 86.1 162.55 85.98 159.93C85.86 157.31 88.57 146.64 88.57 146.64C88.57 146.64 78.45 154.47 79.93 162.4C80.948 167.632 82.2669 172.8 83.88 177.88C83.88 177.88 83.59 178.88 82.93 178.07C82.93 178.07 78.3 165.85 79.35 157C79.35 157 73.24 161.81 74.03 166.7C74.82 171.59 78.03 180.05 78.03 180.05C78.03 180.05 77.85 180.99 77.17 180.27C77.17 180.27 73.45 170.52 73.48 167.42C73.3446 165.616 73.6896 163.808 74.48 162.18C75.26 159.73 74.57 155.39 72.27 154.89Z" fill="#202067"/>
<path d="M171.14 159.2L170.85 159.01C170.45 158.74 161 152.24 161 146.67C160.999 145.477 161.386 144.317 162.104 143.365C162.822 142.412 163.831 141.72 164.978 141.393C166.125 141.067 167.347 141.123 168.459 141.553C169.571 141.984 170.512 142.766 171.14 143.78C171.765 142.763 172.705 141.979 173.818 141.546C174.93 141.114 176.153 141.057 177.301 141.384C178.448 141.712 179.457 142.405 180.174 143.36C180.891 144.314 181.276 145.477 181.27 146.67C181.27 152.2 171.82 158.74 171.42 159.01L171.14 159.2ZM166.49 142.2C165.299 142.2 164.157 142.673 163.315 143.515C162.473 144.357 162 145.499 162 146.69C162 151.24 169.56 156.88 171.13 158.01C172.7 156.88 180.24 151.19 180.27 146.68C180.271 145.631 179.904 144.615 179.233 143.809C178.562 143.003 177.63 142.458 176.598 142.269C175.567 142.08 174.501 142.259 173.588 142.774C172.675 143.29 171.971 144.109 171.6 145.09L171.14 146.3L170.67 145.09C170.346 144.241 169.775 143.509 169.029 142.99C168.283 142.471 167.398 142.189 166.49 142.18V142.2Z" fill="#202067"/>
<path d="M28 159.2L27.71 159.01C27.31 158.74 17.86 152.24 17.86 146.67C17.8508 145.474 18.2342 144.307 18.9513 143.349C19.6685 142.392 20.6799 141.695 21.8306 141.367C22.9812 141.039 24.2077 141.098 25.322 141.534C26.4364 141.969 27.3771 142.758 28 143.78C28.6275 142.766 29.5688 141.984 30.6809 141.553C31.7929 141.123 33.0152 141.067 34.1621 141.393C35.309 141.72 36.3179 142.412 37.0359 143.365C37.7538 144.317 38.1414 145.477 38.14 146.67C38.14 152.2 28.69 158.74 28.29 159.01L28 159.2ZM23.35 142.2C22.1592 142.2 21.0172 142.673 20.1751 143.515C19.3331 144.357 18.86 145.499 18.86 146.69C18.86 151.24 26.42 156.88 27.99 158.01C29.56 156.88 37.1 151.19 37.13 146.68C37.131 145.631 36.7641 144.615 36.0931 143.809C35.4222 143.003 34.4897 142.458 33.4581 142.269C32.4266 142.08 31.3614 142.259 30.4481 142.774C29.5348 143.29 28.8312 144.109 28.46 145.09L28 146.28L27.54 145.07C27.2139 144.226 26.6422 143.5 25.8988 142.985C25.1553 142.47 24.2745 142.189 23.37 142.18L23.35 142.2Z" fill="#202067"/>
</g>
<defs>
<clipPath id="clip0_0_1501">
<rect width="197.86" height="290.81" fill="white"/>
</clipPath>
</defs>
</svg>
