<svg width="252" height="175" viewBox="0 0 252 175" fill="none" xmlns="http://www.w3.org/2000/svg">
<g clip-path="url(#clip0_0_1530)">
<path d="M137.63 42C129.873 41.09 122.037 41.09 114.28 42L9.18 56.94C7.69046 57.1231 6.25763 57.624 4.97842 58.4088C3.69921 59.1935 2.60347 60.2439 1.76533 61.4888C0.92718 62.7337 0.366181 64.1441 0.120278 65.6245C-0.125624 67.105 -0.0506936 68.621 0.340001 70.07L19 145.85C20.55 152.16 27.05 158.23 33.43 159.35L114.34 173.54C122.039 174.66 129.861 174.66 137.56 173.54L218.48 159.35C224.86 158.23 231.36 152.16 232.91 145.85L251.57 70.07C251.959 68.6203 252.032 67.104 251.785 65.6236C251.538 64.1431 250.976 62.733 250.137 61.4883C249.298 60.2437 248.202 59.1936 246.922 58.409C245.643 57.6243 244.21 57.1234 242.72 56.94L137.63 42Z" fill="#FF4530"/>
<path d="M125.95 82.64C148.77 82.64 167.27 64.1404 167.27 41.32C167.27 18.4996 148.77 0 125.95 0C103.13 0 84.63 18.4996 84.63 41.32C84.63 64.1404 103.13 82.64 125.95 82.64Z" fill="#FF4530"/>
<path d="M125.95 76.25C145.241 76.25 160.88 60.6113 160.88 41.32C160.88 22.0287 145.241 6.39001 125.95 6.39001C106.659 6.39001 91.02 22.0287 91.02 41.32C91.02 60.6113 106.659 76.25 125.95 76.25Z" fill="#FFD3C8"/>
<path d="M131.29 41.32L141.53 31.08C141.908 30.7357 142.212 30.3184 142.424 29.8532C142.635 29.3881 142.751 28.8848 142.763 28.3738C142.774 27.8628 142.683 27.3547 142.492 26.8803C142.302 26.4058 142.018 25.9749 141.657 25.6135C141.295 25.252 140.864 24.9677 140.39 24.7775C139.915 24.5874 139.407 24.4955 138.896 24.5073C138.385 24.5192 137.882 24.6345 137.417 24.8464C136.952 25.0582 136.534 25.3623 136.19 25.74L126 36L115.71 25.74C115.366 25.3623 114.948 25.0582 114.483 24.8464C114.018 24.6345 113.515 24.5192 113.004 24.5073C112.493 24.4955 111.985 24.5874 111.51 24.7775C111.036 24.9677 110.605 25.252 110.243 25.6135C109.882 25.9749 109.598 26.4058 109.408 26.8803C109.217 27.3547 109.125 27.8628 109.137 28.3738C109.149 28.8848 109.264 29.3881 109.476 29.8532C109.688 30.3184 109.992 30.7357 110.37 31.08L120.62 41.32L110.37 51.56C109.715 52.2786 109.362 53.2218 109.385 54.1938C109.407 55.1658 109.803 56.0917 110.491 56.7792C111.178 57.4667 112.104 57.8628 113.076 57.8853C114.048 57.9078 114.991 57.5549 115.71 56.9L126 46.66L136.19 56.9C136.534 57.2778 136.952 57.5818 137.417 57.7937C137.882 58.0055 138.385 58.1209 138.896 58.1327C139.407 58.1445 139.915 58.0526 140.39 57.8625C140.864 57.6724 141.295 57.388 141.657 57.0266C142.018 56.6651 142.302 56.2342 142.492 55.7597C142.683 55.2853 142.774 54.7772 142.763 54.2662C142.751 53.7552 142.635 53.2519 142.424 52.7868C142.212 52.3217 141.908 51.9043 141.53 51.56L131.29 41.32Z" fill="#FF4530"/>
<path d="M62.7 110.41H51.79V82.31H62.59C65.2138 82.2439 67.8135 82.8243 70.16 84C72.2491 85.0812 73.9663 86.7635 75.09 88.83C76.2347 91.1787 76.8297 93.7572 76.8297 96.37C76.8297 98.9828 76.2347 101.561 75.09 103.91C73.9777 105.975 72.2705 107.657 70.19 108.74C67.869 109.905 65.2961 110.479 62.7 110.41ZM59.49 103.94H62.43C63.6615 103.972 64.8855 103.74 66.02 103.26C67.0362 102.792 67.8443 101.966 68.29 100.94C68.8768 99.4873 69.1428 97.925 69.07 96.36C69.1441 94.794 68.8745 93.2307 68.28 91.78C67.8234 90.7579 67.014 89.9344 66 89.46C64.8098 88.9798 63.5329 88.7516 62.25 88.79H59.49V103.94Z" fill="#FFD3C8"/>
<path d="M107.84 96.36C107.933 99.1126 107.298 101.841 106 104.27C104.844 106.346 103.106 108.039 101 109.14C98.8299 110.238 96.432 110.809 94 110.809C91.5681 110.809 89.1702 110.238 87 109.14C84.8994 108.027 83.1636 106.333 82 104.26C80.7135 101.834 80.0827 99.1145 80.17 96.37C80.0802 93.6189 80.711 90.8921 82 88.46C83.161 86.3876 84.8978 84.696 87 83.59C89.173 82.5016 91.5698 81.9349 94 81.9349C96.4303 81.9349 98.8271 82.5016 101 83.59C103.104 84.6941 104.841 86.3862 106 88.46C107.295 90.8865 107.93 93.6109 107.84 96.36ZM99.92 96.36C99.9596 94.911 99.7325 93.467 99.25 92.1C98.8693 91.0388 98.171 90.1205 97.25 89.47C96.2792 88.8813 95.1655 88.57 94.03 88.57C92.8946 88.57 91.7809 88.8813 90.81 89.47C89.8891 90.1205 89.1908 91.0388 88.81 92.1C87.9168 94.8698 87.9168 97.8502 88.81 100.62C89.1923 101.693 89.8973 102.622 90.8283 103.279C91.7593 103.935 92.8707 104.288 94.01 104.288C95.1494 104.288 96.2607 103.935 97.1918 103.279C98.1228 102.622 98.8278 101.693 99.21 100.62C99.7079 99.2561 99.9486 97.8117 99.92 96.36Z" fill="#FFD3C8"/>
<path d="M143.68 82.31V110.41H137.25L127 95.65H126.84V110.41H119.14V82.31H125.68L135.76 97H136V82.31H143.68Z" fill="#FFD3C8"/>
<path d="M174.8 96.36C174.893 99.1126 174.258 101.841 172.96 104.27C171.804 106.346 170.066 108.039 167.96 109.14C165.79 110.238 163.392 110.809 160.96 110.809C158.528 110.809 156.13 110.238 153.96 109.14C151.859 108.027 150.124 106.333 148.96 104.26C147.674 101.834 147.043 99.1145 147.13 96.37C147.04 93.6189 147.671 90.8921 148.96 88.46C150.121 86.3876 151.858 84.696 153.96 83.59C156.133 82.5016 158.53 81.9349 160.96 81.9349C163.39 81.9349 165.787 82.5016 167.96 83.59C170.064 84.6941 171.801 86.3862 172.96 88.46C174.255 90.8865 174.89 93.6109 174.8 96.36ZM166.88 96.36C166.92 94.911 166.692 93.467 166.21 92.1C165.851 91.022 165.148 90.0922 164.208 89.4541C163.268 88.8161 162.144 88.5054 161.01 88.57C159.87 88.5319 158.745 88.8462 157.79 89.47C156.869 90.1205 156.171 91.0388 155.79 92.1C154.897 94.8698 154.897 97.8502 155.79 100.62C156.172 101.693 156.877 102.622 157.808 103.279C158.739 103.935 159.851 104.288 160.99 104.288C162.129 104.288 163.241 103.935 164.172 103.279C165.103 102.622 165.808 101.693 166.19 100.62C166.681 99.2548 166.915 97.8104 166.88 96.36Z" fill="#FFD3C8"/>
<path d="M176.24 88.46V82.31H200.89V88.46H192.36V110.46H184.77V88.46H176.24Z" fill="#FFD3C8"/>
<path d="M59.17 146H49.37L53.53 121.14H62.94C65.1963 121.058 67.4325 121.59 69.41 122.68C71.1127 123.672 72.4146 125.229 73.09 127.08C73.8408 129.277 73.9892 131.636 73.52 133.91C73.1777 136.254 72.2944 138.486 70.94 140.43C69.6722 142.205 67.9717 143.627 66 144.56C63.859 145.543 61.5255 146.035 59.17 146ZM57.17 140.27H59.65C60.79 140.289 61.9212 140.067 62.97 139.62C63.9904 139.156 64.8451 138.392 65.42 137.43C66.177 136.142 66.6635 134.713 66.85 133.23C67.1432 131.943 67.1432 130.607 66.85 129.32C66.727 128.898 66.5128 128.508 66.2225 128.178C65.9321 127.848 65.5728 127.586 65.17 127.41C64.1508 127.015 63.0622 126.832 61.97 126.87H59.39L57.17 140.27Z" fill="#FFD3C8"/>
<path d="M85.63 121.13L81.46 146H74.65L78.81 121.14L85.63 121.13Z" fill="#FFD3C8"/>
<path d="M101.06 128.9C101.115 128.561 101.09 128.214 100.987 127.886C100.885 127.558 100.708 127.258 100.47 127.01C99.8056 126.484 98.9631 126.237 98.12 126.32C97.5242 126.305 96.9299 126.386 96.36 126.56C95.9482 126.693 95.5744 126.923 95.27 127.23C95.013 127.507 94.8458 127.856 94.79 128.23C94.7093 128.487 94.7093 128.763 94.79 129.02C94.8869 129.282 95.0613 129.509 95.29 129.67C95.5955 129.892 95.9326 130.067 96.29 130.19C96.7727 130.365 97.2673 130.505 97.77 130.61L99.77 131.04C100.939 131.275 102.072 131.661 103.14 132.19C103.967 132.593 104.699 133.165 105.29 133.87C105.794 134.502 106.137 135.246 106.29 136.04C106.46 136.908 106.46 137.802 106.29 138.67C106.062 140.209 105.395 141.65 104.37 142.82C103.297 143.995 101.945 144.882 100.44 145.4C98.6362 146.022 96.7376 146.323 94.83 146.29C92.938 146.334 91.0568 145.994 89.3 145.29C87.8732 144.726 86.7027 143.659 86.01 142.29C85.3054 140.686 85.1337 138.899 85.52 137.19H92C91.8851 137.84 91.9687 138.509 92.24 139.11C92.5105 139.635 92.9563 140.049 93.5 140.28C94.1857 140.569 94.9262 140.706 95.67 140.68C96.3097 140.692 96.9473 140.604 97.56 140.42C98.0224 140.273 98.4438 140.02 98.79 139.68C99.0843 139.387 99.28 139.009 99.35 138.6C99.3846 138.428 99.3848 138.252 99.3504 138.08C99.3161 137.908 99.248 137.745 99.15 137.6C98.8691 137.247 98.5 136.974 98.08 136.81C97.4004 136.525 96.6933 136.311 95.97 136.17L93.56 135.63C91.7538 135.317 90.0786 134.482 88.74 133.23C88.1842 132.619 87.7883 131.881 87.5876 131.08C87.387 130.279 87.3878 129.441 87.59 128.64C87.8435 127.09 88.5378 125.646 89.59 124.48C90.6944 123.266 92.0629 122.322 93.59 121.72C95.3217 121.038 97.1691 120.699 99.03 120.72C100.781 120.662 102.521 121.004 104.12 121.72C105.411 122.297 106.469 123.294 107.12 124.55C107.734 125.888 107.905 127.388 107.61 128.83L101.06 128.9Z" fill="#FFD3C8"/>
<path d="M110.22 126.56L111.15 121.13H133L132.07 126.56H124.52L121.25 146H114.54L117.77 126.57L110.22 126.56Z" fill="#FFD3C8"/>
<path d="M150.35 121.13H157.16L154.49 137.05C154.223 138.853 153.473 140.549 152.32 141.96C151.153 143.361 149.664 144.459 147.98 145.16C146.121 145.922 144.129 146.303 142.12 146.28C140.228 146.333 138.35 145.95 136.63 145.16C135.22 144.486 134.076 143.36 133.38 141.96C132.69 140.42 132.501 138.703 132.84 137.05L135.51 121.13H142.32L139.74 136.47C139.61 137.158 139.676 137.868 139.93 138.52C140.167 139.107 140.583 139.604 141.12 139.94C141.724 140.298 142.418 140.475 143.12 140.45C143.877 140.457 144.625 140.282 145.3 139.94C145.953 139.597 146.52 139.112 146.96 138.52C147.403 137.915 147.691 137.212 147.8 136.47L150.35 121.13Z" fill="#FFD3C8"/>
<path d="M156.23 146L160.4 121.14H171.23C172.858 121.087 174.474 121.43 175.94 122.14C177.17 122.763 178.148 123.791 178.71 125.05C179.29 126.49 179.433 128.069 179.12 129.59C178.895 131.204 178.242 132.729 177.23 134.005C176.217 135.282 174.881 136.264 173.36 136.85C171.715 137.498 169.958 137.818 168.19 137.79H161.72L162.6 132.55H167.7C168.415 132.562 169.127 132.461 169.81 132.25C170.384 132.06 170.893 131.714 171.28 131.25C171.68 130.76 171.933 130.167 172.01 129.54C172.143 128.954 172.083 128.34 171.84 127.79C171.599 127.325 171.192 126.968 170.7 126.79C170.061 126.553 169.381 126.444 168.7 126.47H166.3L163 146H156.23ZM172.84 134.59L177.2 146H169.81L165.59 134.59H172.84Z" fill="#FFD3C8"/>
<path d="M179.61 146L183.77 121.14H194.65C196.251 121.085 197.848 121.343 199.35 121.9C200.438 122.274 201.347 123.039 201.902 124.046C202.456 125.053 202.616 126.231 202.35 127.35C202.211 128.242 201.869 129.091 201.35 129.83C200.815 130.589 200.135 131.234 199.35 131.73C198.521 132.25 197.602 132.609 196.64 132.79L196.59 133.03C197.584 133.042 198.557 133.318 199.41 133.83C200.2 134.313 200.816 135.034 201.17 135.89C201.56 136.865 201.654 137.932 201.44 138.96C201.219 140.3 200.639 141.555 199.76 142.59C198.821 143.685 197.635 144.542 196.3 145.09C194.761 145.715 193.111 146.024 191.45 146H179.61ZM187.35 140.61H190.53C191.464 140.659 192.393 140.433 193.2 139.96C193.52 139.753 193.79 139.476 193.989 139.151C194.188 138.825 194.311 138.459 194.35 138.08C194.457 137.584 194.408 137.067 194.21 136.6C193.994 136.186 193.64 135.861 193.21 135.68C192.652 135.451 192.053 135.342 191.45 135.36H188.17L187.35 140.61ZM188.92 131.19H191.71C192.262 131.193 192.811 131.098 193.33 130.91C193.791 130.738 194.205 130.461 194.54 130.1C194.861 129.737 195.07 129.289 195.14 128.81C195.222 128.492 195.213 128.158 195.114 127.845C195.015 127.532 194.83 127.253 194.58 127.04C194.008 126.603 193.298 126.387 192.58 126.43H189.7L188.92 131.19Z" fill="#FFD3C8"/>
</g>
<defs>
<clipPath id="clip0_0_1530">
<rect width="251.9" height="174.38" fill="white"/>
</clipPath>
</defs>
</svg>
