<svg width="178" height="178" viewBox="0 0 178 178" fill="none" xmlns="http://www.w3.org/2000/svg">
<g clip-path="url(#clip0_0_1550)">
<path d="M88.84 177.68C137.905 177.68 177.68 137.905 177.68 88.84C177.68 39.775 137.905 0 88.84 0C39.775 0 0 39.775 0 88.84C0 137.905 39.775 177.68 88.84 177.68Z" fill="#4FBE94"/>
<path d="M76.32 83.5L67.1 76.14L77.78 62.78C77.9699 62.5409 78.2088 62.3453 78.4806 62.2062C78.7525 62.0671 79.0509 61.9878 79.3559 61.9736C79.6609 61.9594 79.9654 62.0106 80.249 62.1238C80.5326 62.237 80.7886 62.4096 81 62.63L84.39 67C85.093 67.9014 85.4749 69.0118 85.4749 70.155C85.4749 71.2982 85.093 72.4086 84.39 73.31L76.32 83.5Z" fill="#FBFAF7"/>
<path d="M82.06 61.31L93.22 76L89.93 79.64L103.93 81.64L107.57 68.13L104.28 69.9L98 61.31C92.777 59.9243 87.283 59.9243 82.06 61.31Z" fill="#FBFAF7"/>
<path d="M101.53 87.21L110.72 79.82L121.44 93.14C121.631 93.3794 121.769 93.6566 121.845 93.9534C121.921 94.2502 121.933 94.5597 121.88 94.8613C121.827 95.163 121.71 95.45 121.538 95.7032C121.365 95.9564 121.141 96.1701 120.88 96.33L115.16 99C114.337 99.3882 113.407 99.4898 112.519 99.2887C111.631 99.0875 110.836 98.5952 110.26 97.89L101.53 87.21Z" fill="#FBFAF7"/>
<path d="M117.74 100.53L99.31 101.17L98.23 96.38L88.53 106.65L97.47 117.42L97.92 113.72L108.52 113.58C112.676 110.106 115.854 105.608 117.74 100.53Z" fill="#FBFAF7"/>
<path d="M85.9 102V113.79H68.81C68.5037 113.791 68.2006 113.727 67.9213 113.601C67.642 113.475 67.3929 113.291 67.191 113.061C66.9891 112.83 66.8389 112.559 66.7508 112.266C66.6626 111.972 66.6385 111.664 66.68 111.36L68.15 105.21C68.3623 104.326 68.8647 103.538 69.577 102.972C70.2893 102.407 71.1705 102.096 72.08 102.09L85.9 102Z" fill="#FBFAF7"/>
<path d="M63.8 110.76L70.89 93.76L75.69 94.76L70.39 81.67L56.88 85.3L60.06 87.3L55.77 97C57.2078 102.206 59.9751 106.947 63.8 110.76Z" fill="#FBFAF7"/>
<path d="M39.6 91.63L12.68 87.22L14.58 75.59C14.8549 73.7736 15.5388 72.0435 16.58 70.53C17.496 69.1841 18.7906 68.14 20.3 67.53C21.9317 66.9073 23.7047 66.7514 25.42 67.08C27.1155 67.3297 28.7044 68.0582 30 69.18C31.1902 70.2709 32.029 71.6911 32.41 73.26C32.8333 75.0815 32.8776 76.9707 32.54 78.81L31.4 85.81L25.72 84.88L26.62 79.41C26.7437 78.6617 26.7437 77.8983 26.62 77.15C26.5225 76.5514 26.2391 75.9986 25.81 75.57C25.3148 75.1317 24.697 74.8559 24.04 74.78C23.3707 74.6321 22.6721 74.695 22.04 74.96C21.4879 75.2265 21.0307 75.6558 20.73 76.19C20.3701 76.8599 20.1299 77.5875 20.02 78.34L19.6 80.91L40.8 84.32L39.6 91.63ZM29.83 73.83L43.29 69.12L42 77.06L28.55 81.61L29.83 73.83Z" fill="#FBFAF7"/>
<path d="M43.64 69.53L21.24 54L32.46 37.81L37.36 41.22L30.36 51.28L34.22 54L40.64 44.76L45.54 48.17L39.12 57.4L43 60L50 50L54.9 53.41L43.64 69.53Z" fill="#FBFAF7"/>
<path d="M69.74 25.19L63.1 28.7C62.7859 28.2069 62.3942 27.7679 61.94 27.4C61.5128 27.0663 61.0232 26.8215 60.5 26.68C59.9583 26.5374 59.3928 26.5101 58.84 26.6C58.1986 26.6989 57.5794 26.9087 57.01 27.22C56.0038 27.7091 55.1779 28.5036 54.65 29.49C54.1658 30.4859 53.9883 31.6031 54.14 32.7C54.3363 34.0701 54.7838 35.3923 55.46 36.6C56.0839 37.8838 56.9458 39.0376 58 40C58.8065 40.7376 59.8245 41.2028 60.91 41.33C61.9865 41.4072 63.0618 41.1636 64 40.63C64.5509 40.3425 65.0564 39.9752 65.5 39.54C65.8821 39.1582 66.1876 38.7067 66.4 38.21C66.6002 37.7315 66.7055 37.2187 66.71 36.7C66.7076 36.1408 66.6095 35.5861 66.42 35.06L73.09 31.6C73.5647 32.7332 73.8323 33.9423 73.88 35.17C73.9331 36.526 73.7434 37.8807 73.32 39.17C72.8405 40.6131 72.0829 41.9482 71.09 43.1C69.7063 44.6359 68.0226 45.8719 66.1428 46.7319C64.2629 47.5919 62.2268 48.0575 60.16 48.1C57.8864 48.0726 55.6712 47.377 53.79 46.1C51.6048 44.5663 49.8462 42.5014 48.68 40.1C47.3634 37.7802 46.6741 35.1573 46.68 32.49C46.712 30.2079 47.4069 27.9843 48.68 26.09C49.9888 24.1751 51.7557 22.6178 53.82 21.56C55.2343 20.8034 56.7601 20.2768 58.34 20C59.7735 19.7245 61.2464 19.7245 62.68 20C64.0774 20.2961 65.3985 20.8783 66.56 21.71C67.836 22.6524 68.9161 23.8344 69.74 25.19Z" fill="#FBFAF7"/>
<path d="M78.3 12.92L86.55 13.26L91.42 24.56H91.63L97.41 13.7L105.67 14.04L94.89 32.33L94.53 40.9L87.18 40.6L87.54 32L78.3 12.92Z" fill="#FBFAF7"/>
<path d="M133.05 39.25L126.59 35.42C126.847 34.8946 127.016 34.3304 127.09 33.75C127.149 33.2127 127.102 32.6689 126.95 32.15C126.789 31.6126 126.516 31.1152 126.15 30.69C125.732 30.1968 125.231 29.7805 124.67 29.46C123.724 28.8553 122.611 28.5648 121.49 28.63C120.388 28.738 119.343 29.1733 118.49 29.88C117.425 30.7453 116.533 31.8039 115.86 33C115.091 34.2223 114.562 35.5798 114.3 37C114.105 38.0718 114.241 39.1775 114.69 40.17C115.186 41.1369 115.959 41.9341 116.91 42.46C117.443 42.787 118.023 43.0299 118.63 43.18C119.154 43.3024 119.697 43.3261 120.23 43.25C120.743 43.1668 121.235 42.9869 121.68 42.72C122.155 42.4294 122.575 42.0569 122.92 41.62L129.36 45.5C128.643 46.4868 127.752 47.334 126.73 48C125.596 48.7723 124.333 49.3346 123 49.66C121.521 50.0029 119.989 50.0539 118.49 49.81C116.452 49.4363 114.513 48.6478 112.793 47.4935C111.073 46.3393 109.608 44.8438 108.49 43.1C107.319 41.1515 106.749 38.901 106.85 36.63C107.01 33.9751 107.843 31.4045 109.27 29.16C110.557 26.817 112.427 24.8466 114.7 23.44C116.66 22.2775 118.913 21.7046 121.19 21.79C123.507 21.8949 125.76 22.5828 127.74 23.79C129.133 24.5887 130.391 25.601 131.47 26.79C132.443 27.8731 133.2 29.1324 133.7 30.5C134.185 31.8476 134.382 33.2816 134.28 34.71C134.168 36.2887 133.75 37.8305 133.05 39.25Z" fill="#FBFAF7"/>
<path d="M124.32 55.11L147.19 40.22L151.19 46.43L133.37 58.06L139.37 67.3L134.37 70.56L124.32 55.11Z" fill="#FBFAF7"/>
<path d="M134.69 71.1L161.6 66.61L164.84 86L159 87L157 74.91L152.37 75.68L154.22 86.78L148.33 87.78L146.48 76.69L141.86 77.46L143.86 89.46L137.98 90.46L134.69 71.1Z" fill="#FBFAF7"/>
<path d="M20.67 102.46L24.35 101.68L24.46 102.23L23.9 102.35C24.1012 102.371 24.287 102.467 24.42 102.62C24.5712 102.77 24.6754 102.961 24.72 103.17V103.33C24.7228 103.377 24.7228 103.423 24.72 103.47L24.14 103.59C24.1454 103.547 24.1454 103.503 24.14 103.46C24.1491 103.387 24.1491 103.313 24.14 103.24C24.1089 103.075 24.0367 102.92 23.93 102.79C23.8334 102.664 23.7009 102.57 23.55 102.52C23.396 102.479 23.234 102.479 23.08 102.52L20.76 103.01L20.67 102.46Z" fill="#FBFAF7"/>
<path d="M21.53 106.53C21.4321 106.204 21.4321 105.856 21.53 105.53C21.6163 105.232 21.7906 104.967 22.03 104.77C22.2976 104.549 22.6123 104.391 22.95 104.31C23.2799 104.242 23.6201 104.242 23.95 104.31C24.2552 104.365 24.5391 104.503 24.77 104.71C25.0004 104.926 25.1636 105.204 25.24 105.51C25.2651 105.703 25.2651 105.897 25.24 106.09C25.2186 106.296 25.1575 106.497 25.06 106.68C24.9491 106.884 24.7914 107.059 24.6 107.19C24.3484 107.359 24.0666 107.478 23.77 107.54L23.54 107.61L22.81 104.8L23.29 104.68L24 106.9C24.1917 106.856 24.3701 106.767 24.52 106.64C24.6558 106.519 24.756 106.364 24.81 106.19C24.8633 106.007 24.8633 105.813 24.81 105.63C24.7668 105.422 24.6582 105.232 24.5 105.09C24.349 104.959 24.1663 104.869 23.97 104.83C23.7759 104.785 23.5741 104.785 23.38 104.83L23.05 104.91C22.8086 104.971 22.5834 105.083 22.39 105.24C22.2335 105.373 22.1217 105.551 22.07 105.75C22.0097 105.956 22.0097 106.174 22.07 106.38C22.1063 106.518 22.1636 106.649 22.24 106.77C22.3128 106.873 22.4044 106.961 22.51 107.03C22.6238 107.093 22.7501 107.131 22.88 107.14V107.72C22.6831 107.713 22.4908 107.658 22.32 107.56C22.1427 107.457 21.9893 107.317 21.87 107.15C21.7166 106.968 21.601 106.757 21.53 106.53Z" fill="#FBFAF7"/>
<path d="M22.7 110.53C22.601 110.204 22.601 109.856 22.7 109.53C22.7835 109.235 22.9461 108.969 23.17 108.76C23.4249 108.528 23.7292 108.357 24.06 108.26C24.3808 108.148 24.7219 108.107 25.06 108.14C25.3679 108.18 25.6587 108.305 25.9 108.5C26.1404 108.698 26.3176 108.962 26.41 109.26C26.4895 109.495 26.5168 109.744 26.49 109.99C26.4621 110.212 26.3834 110.424 26.26 110.61C26.1321 110.797 25.9558 110.946 25.75 111.04L25.57 110.49C25.7288 110.391 25.8515 110.244 25.92 110.07C26.0003 109.864 26.0003 109.636 25.92 109.43C25.8583 109.231 25.7359 109.056 25.57 108.93C25.398 108.801 25.194 108.721 24.98 108.7C24.4616 108.675 23.9522 108.842 23.55 109.17C23.3825 109.305 23.2576 109.486 23.19 109.69C23.1221 109.895 23.1221 110.115 23.19 110.32C23.2283 110.454 23.2967 110.577 23.39 110.68C23.4748 110.779 23.5808 110.858 23.7 110.91C23.8234 110.961 23.9571 110.981 24.09 110.97L24.27 111.52C24.0602 111.575 23.8398 111.575 23.63 111.52C23.4151 111.456 23.2216 111.335 23.07 111.17C22.9007 110.987 22.7743 110.768 22.7 110.53Z" fill="#FBFAF7"/>
<path d="M22.41 113.72C22.3758 113.639 22.349 113.556 22.33 113.47C22.3264 113.417 22.3264 113.363 22.33 113.31H22.86C22.8704 113.435 22.9043 113.557 22.96 113.67C22.9823 113.719 23.0142 113.762 23.0537 113.798C23.0932 113.834 23.1396 113.862 23.19 113.88C23.3404 113.935 23.5002 113.958 23.66 113.95H24L27 111.28L27.23 111.86L24.82 113.92L27.99 113.79L28.21 114.37L23.62 114.46C23.4375 114.465 23.2553 114.441 23.08 114.39C22.9313 114.339 22.795 114.257 22.68 114.15C22.5591 114.029 22.4668 113.882 22.41 113.72Z" fill="#FBFAF7"/>
<path d="M25.59 117.89C25.4541 117.597 25.4022 117.271 25.44 116.95C25.487 116.649 25.6189 116.368 25.82 116.14C26.047 115.877 26.3308 115.668 26.65 115.53C26.9622 115.38 27.3037 115.302 27.65 115.3C27.962 115.302 28.2671 115.392 28.53 115.56C28.7914 115.73 28.9967 115.974 29.12 116.26C29.2268 116.482 29.2848 116.724 29.29 116.97C29.2831 117.196 29.2286 117.417 29.13 117.62C29.0201 117.817 28.8618 117.982 28.67 118.1L28.43 117.58C28.574 117.46 28.6786 117.3 28.73 117.12C28.7808 116.907 28.7523 116.683 28.65 116.49C28.5695 116.295 28.4295 116.131 28.25 116.02C28.0649 115.913 27.8534 115.861 27.64 115.87C27.3832 115.876 27.1308 115.937 26.9 116.05C26.6635 116.155 26.4496 116.304 26.27 116.49C26.1217 116.645 26.021 116.839 25.98 117.05C25.9397 117.26 25.9677 117.477 26.06 117.67C26.1208 117.798 26.2057 117.914 26.31 118.01C26.404 118.098 26.5169 118.163 26.64 118.2C26.7687 118.226 26.9012 118.226 27.03 118.2L27.28 118.72C27.0662 118.77 26.8438 118.77 26.63 118.72C26.414 118.674 26.2118 118.579 26.04 118.44C25.8539 118.289 25.7008 118.102 25.59 117.89Z" fill="#FBFAF7"/>
<path d="M31.46 118.3L27 120.58L26.74 120.06L31.2 117.79L31.46 118.3Z" fill="#FBFAF7"/>
<path d="M28.23 123C28.0605 122.716 27.9739 122.391 27.98 122.06C27.9924 121.755 28.0931 121.459 28.27 121.21C28.471 120.921 28.7385 120.684 29.05 120.52C29.3567 120.345 29.698 120.239 30.05 120.21C30.3576 120.186 30.6658 120.248 30.94 120.39C31.2196 120.536 31.4494 120.763 31.6 121.04C31.6933 121.213 31.7606 121.398 31.8 121.59C31.8399 121.791 31.8399 121.999 31.8 122.2C31.7358 122.423 31.6269 122.63 31.48 122.81C31.2796 123.039 31.039 123.228 30.77 123.37L30.56 123.49L29.11 121L29.54 120.75L30.67 122.75C30.847 122.659 30.9982 122.525 31.11 122.36C31.2104 122.212 31.2691 122.039 31.28 121.86C31.2811 121.666 31.2293 121.476 31.13 121.31C31.0321 121.124 30.8782 120.974 30.69 120.88C30.5137 120.791 30.3172 120.75 30.12 120.76C29.9194 120.772 29.7243 120.83 29.55 120.93L29.26 121.09C29.0383 121.204 28.8464 121.368 28.7 121.57C28.5864 121.743 28.5209 121.943 28.51 122.15C28.5133 122.365 28.5719 122.575 28.68 122.76C28.7477 122.884 28.8356 122.995 28.94 123.09C29.0334 123.176 29.1468 123.238 29.27 123.27C29.3942 123.305 29.5257 123.305 29.65 123.27L29.79 123.84C29.5993 123.885 29.4007 123.885 29.21 123.84C29.0116 123.787 28.8273 123.692 28.67 123.56C28.4881 123.404 28.3386 123.214 28.23 123Z" fill="#FBFAF7"/>
<path d="M30.65 125.6L30.4 125.7C30.2159 125.785 30.0253 125.855 29.83 125.91C29.62 125.98 29.42 126.03 29.23 126.08L28.77 126.19L28.54 125.82L28.93 125.67L29.47 125.45C29.67 125.37 29.87 125.28 30.07 125.18L30.32 125.06L30.65 125.6Z" fill="#FBFAF7"/>
<path d="M32.36 129.38L34.68 126.2L35.04 126.69L33.23 129.07L36 128L36.37 128.5L34.56 130.85L37.34 129.78L37.7 130.27L34.01 131.61L33.67 131.15L35.49 128.76L32.69 129.83L32.36 129.38Z" fill="#FBFAF7"/>
<path d="M36.05 134.19C35.9036 134.021 35.7945 133.824 35.73 133.61C35.6686 133.415 35.6686 133.205 35.73 133.01C35.7866 132.795 35.9133 132.605 36.09 132.47C36.2217 132.341 36.3888 132.254 36.57 132.22C36.7251 132.197 36.8836 132.214 37.03 132.27C37.1847 132.334 37.3322 132.415 37.47 132.51L37.88 132.85L38.29 133.22C38.3689 133.298 38.4601 133.362 38.56 133.41C38.5972 133.419 38.6362 133.418 38.673 133.408C38.7098 133.397 38.7433 133.377 38.77 133.35C38.854 133.29 38.9242 133.212 38.976 133.122C39.0277 133.033 39.0597 132.933 39.07 132.83C39.073 132.722 39.0532 132.614 39.0118 132.514C38.9705 132.414 38.9085 132.324 38.83 132.25C38.6916 132.066 38.4937 131.935 38.27 131.88C38.1024 131.84 37.9277 131.84 37.76 131.88L37.55 131.34C37.7617 131.265 37.9895 131.248 38.21 131.29C38.4113 131.325 38.6025 131.403 38.77 131.52C38.9309 131.625 39.0757 131.753 39.2 131.9C39.2893 132.006 39.3696 132.12 39.44 132.24C39.5275 132.384 39.5853 132.544 39.61 132.71C39.6384 132.889 39.6176 133.072 39.55 133.24C39.4562 133.468 39.3046 133.668 39.11 133.82L37.24 135.45L36.86 135.01L37.24 134.68C37.1311 134.702 37.0189 134.702 36.91 134.68C36.7639 134.666 36.6217 134.625 36.49 134.56C36.3193 134.468 36.1695 134.342 36.05 134.19ZM36.5 133.92C36.6276 134.076 36.7928 134.196 36.98 134.27C37.144 134.312 37.316 134.312 37.48 134.27C37.635 134.241 37.7797 134.172 37.9 134.07L38.3 133.72C38.2377 133.714 38.1786 133.689 38.13 133.65C38.0481 133.601 37.9711 133.544 37.9 133.48L37.66 133.27L37.48 133.11C37.3726 133.011 37.2554 132.924 37.13 132.85C37.0241 132.785 36.9039 132.748 36.78 132.74C36.654 132.746 36.5339 132.796 36.44 132.88C36.3693 132.934 36.3144 133.007 36.281 133.089C36.2476 133.172 36.2369 133.262 36.25 133.35C36.2706 133.562 36.3582 133.761 36.5 133.92Z" fill="#FBFAF7"/>
<path d="M42 136.21L41.53 135.94C41.5743 135.853 41.6014 135.758 41.61 135.66C41.639 135.555 41.639 135.445 41.61 135.34C41.563 135.203 41.4842 135.08 41.38 134.98C41.2442 134.831 41.0664 134.726 40.87 134.68C40.791 134.66 40.7082 134.661 40.6295 134.682C40.5508 134.703 40.4787 134.743 40.42 134.8C40.3708 134.843 40.3331 134.897 40.3104 134.958C40.2877 135.02 40.2807 135.085 40.29 135.15C40.3157 135.326 40.3807 135.493 40.48 135.64L40.77 136.14C40.9257 136.378 41.0123 136.655 41.02 136.94C41.0179 137.058 40.991 137.174 40.941 137.281C40.8911 137.388 40.8192 137.483 40.73 137.56C40.5851 137.708 40.395 137.803 40.19 137.83C39.9692 137.858 39.7449 137.827 39.54 137.74C39.2991 137.634 39.0817 137.481 38.9 137.29C38.6594 137.06 38.4924 136.765 38.42 136.44C38.3922 136.293 38.3946 136.142 38.4273 135.995C38.46 135.849 38.5222 135.711 38.61 135.59L39.09 135.89C38.9833 136.045 38.9403 136.234 38.97 136.42C39.028 136.624 39.1377 136.809 39.2884 136.958C39.439 137.107 39.6256 137.214 39.83 137.27C39.9113 137.293 39.997 137.295 40.0792 137.275C40.1614 137.256 40.2373 137.217 40.3 137.16C40.3885 137.073 40.4388 136.954 40.44 136.83C40.4314 136.672 40.3795 136.52 40.29 136.39L39.95 135.84C39.7921 135.599 39.7054 135.318 39.7 135.03C39.7056 134.91 39.735 134.793 39.7865 134.685C39.838 134.577 39.9106 134.48 40 134.4C40.1465 134.262 40.3312 134.171 40.53 134.14C40.741 134.112 40.9557 134.143 41.15 134.23C41.3735 134.323 41.5746 134.463 41.74 134.64C41.9708 134.85 42.1226 135.132 42.17 135.44C42.1938 135.708 42.1344 135.977 42 136.21Z" fill="#FBFAF7"/>
<path d="M44.08 135.76L44.5 136.16L42.05 138.77C41.9557 138.853 41.8864 138.96 41.85 139.08C41.8246 139.161 41.8246 139.249 41.85 139.33C41.8912 139.4 41.9417 139.464 42 139.52L42.12 139.62L42.21 139.68L41.94 140.13C41.8862 140.111 41.8357 140.084 41.79 140.05C41.7109 140.01 41.6397 139.956 41.58 139.89C41.4558 139.777 41.3599 139.637 41.3 139.48C41.2302 139.327 41.2092 139.156 41.24 138.99C41.2689 138.796 41.3602 138.617 41.5 138.48L44.08 135.76ZM44.47 137.36L44.13 137.72L42.71 136.39L43.05 136.03L44.47 137.36Z" fill="#FBFAF7"/>
<path d="M43.78 141.86C43.5227 141.655 43.3286 141.381 43.22 141.07C43.1347 140.773 43.1347 140.457 43.22 140.16C43.3152 139.826 43.4863 139.518 43.72 139.26C43.9388 138.985 44.2198 138.765 44.54 138.62C44.8214 138.491 45.1328 138.443 45.44 138.48C45.7495 138.524 46.0386 138.66 46.27 138.87C46.4248 138.994 46.5539 139.147 46.65 139.32C46.76 139.509 46.8261 139.721 46.8434 139.939C46.8607 140.157 46.8288 140.376 46.75 140.58C46.643 140.864 46.4835 141.125 46.28 141.35L46.12 141.53L43.92 139.65L44.24 139.27L46 140.77C46.1319 140.626 46.2248 140.45 46.27 140.26C46.3195 140.083 46.3195 139.897 46.27 139.72C46.2061 139.541 46.0956 139.382 45.95 139.26C45.7883 139.121 45.5907 139.031 45.38 139C45.1821 138.98 44.9824 139.011 44.8 139.09C44.6155 139.173 44.4516 139.296 44.32 139.45L44.11 139.7C43.944 139.884 43.821 140.103 43.75 140.34C43.6946 140.54 43.6946 140.75 43.75 140.95C43.8289 141.151 43.956 141.33 44.12 141.47C44.2258 141.562 44.3479 141.633 44.48 141.68C44.5966 141.73 44.7236 141.75 44.85 141.74C44.9808 141.736 45.1084 141.698 45.22 141.63L45.54 142.11C45.3748 142.217 45.186 142.282 44.99 142.3C44.7865 142.318 44.5817 142.29 44.39 142.22C44.1657 142.14 43.9587 142.018 43.78 141.86Z" fill="#FBFAF7"/>
<path d="M47.42 144.66L49.65 141.66L50.12 142L47.89 145L47.42 144.66ZM50.26 141.31C50.2156 141.279 50.1784 141.239 50.1508 141.192C50.1232 141.146 50.1059 141.094 50.1 141.04C50.0895 140.99 50.0894 140.939 50.0997 140.889C50.11 140.839 50.1306 140.792 50.16 140.75C50.1895 140.707 50.2281 140.672 50.2731 140.646C50.3181 140.62 50.3682 140.604 50.42 140.6C50.4744 140.591 50.53 140.594 50.5833 140.608C50.6367 140.621 50.6866 140.646 50.73 140.68C50.7732 140.71 50.8097 140.748 50.8372 140.793C50.8648 140.838 50.8827 140.888 50.89 140.94C50.9012 140.992 50.9008 141.046 50.8887 141.098C50.8766 141.15 50.8531 141.198 50.82 141.24C50.7549 141.323 50.6594 141.377 50.5544 141.391C50.4495 141.404 50.3436 141.375 50.26 141.31Z" fill="#FBFAF7"/>
<path d="M50.58 144.15L49.31 146L48.83 145.67L50.93 142.56L51.4 142.87L51.07 143.36C51.2478 143.252 51.4522 143.197 51.66 143.2C51.9024 143.219 52.1347 143.305 52.33 143.45C52.5283 143.572 52.6906 143.745 52.8 143.95C52.9034 144.146 52.9419 144.37 52.91 144.59C52.8655 144.86 52.7594 145.117 52.6 145.34L51.26 147.34L50.78 147.01L52.1 145.07C52.2512 144.866 52.3191 144.612 52.29 144.36C52.2708 144.245 52.2269 144.135 52.1613 144.038C52.0957 143.942 52.01 143.86 51.91 143.8C51.7674 143.703 51.602 143.644 51.43 143.63C51.2636 143.615 51.0965 143.65 50.95 143.73C50.7942 143.838 50.6672 143.982 50.58 144.15Z" fill="#FBFAF7"/>
<path d="M55 144.15L55.49 144.45L53.64 147.51C53.5653 147.612 53.5203 147.734 53.51 147.86C53.5067 147.947 53.5352 148.032 53.59 148.1C53.6428 148.161 53.7033 148.215 53.77 148.26L53.91 148.33H54.01L53.84 148.84L53.67 148.79C53.5861 148.758 53.5057 148.718 53.43 148.67C53.2904 148.587 53.1709 148.474 53.08 148.34C52.9829 148.197 52.9243 148.032 52.91 147.86C52.9075 147.669 52.9596 147.482 53.06 147.32L55 144.15ZM55.71 145.63L55.46 146.05L53.79 145.05L54.05 144.63L55.71 145.63Z" fill="#FBFAF7"/>
<path d="M55.88 150.14C55.5984 149.997 55.3653 149.775 55.21 149.5C55.0657 149.23 54.9966 148.926 55.01 148.62C55.0418 148.267 55.1472 147.924 55.3194 147.614C55.4916 147.304 55.7269 147.034 56.01 146.82C56.2579 146.638 56.5528 146.53 56.86 146.51C57.1738 146.493 57.4859 146.566 57.76 146.72C58.0388 146.862 58.2713 147.08 58.43 147.35C58.578 147.622 58.6472 147.931 58.63 148.24C58.6113 148.593 58.5084 148.935 58.33 149.24C58.17 149.554 57.9409 149.827 57.66 150.04C57.4101 150.219 57.1162 150.326 56.81 150.35C56.4861 150.372 56.1628 150.299 55.88 150.14ZM56.13 149.68C56.3233 149.802 56.5547 149.848 56.78 149.81C56.9945 149.769 57.1944 149.672 57.36 149.53C57.5327 149.368 57.6779 149.179 57.79 148.97C57.907 148.759 57.985 148.529 58.02 148.29C58.0529 148.074 58.0288 147.854 57.95 147.65C57.8515 147.444 57.6857 147.279 57.48 147.18C57.2863 147.059 57.0553 147.013 56.83 147.05C56.6127 147.089 56.4112 147.189 56.25 147.34C56.0719 147.5 55.923 147.689 55.81 147.9C55.6953 148.108 55.6206 148.335 55.59 148.57C55.5519 148.786 55.5762 149.008 55.66 149.21C55.7585 149.416 55.9243 149.582 56.13 149.68Z" fill="#FBFAF7"/>
<path d="M60.28 152.25L62.28 147.63L62.81 147.86L62.09 149.56L62.36 149.4C62.4848 149.326 62.6252 149.281 62.77 149.27C62.9702 149.263 63.1691 149.304 63.35 149.39C63.6221 149.525 63.8482 149.737 64 150C64.1614 150.251 64.2481 150.542 64.25 150.84C64.2511 151.184 64.1795 151.525 64.04 151.84C63.907 152.168 63.7059 152.465 63.45 152.71C63.2298 152.917 62.9563 153.059 62.66 153.12C62.372 153.167 62.0765 153.129 61.81 153.01C61.619 152.943 61.4496 152.826 61.32 152.67C61.2286 152.558 61.1606 152.429 61.12 152.29L61.05 151.98H60.99L60.77 152.51L60.28 152.25ZM61.54 150.74C61.4367 150.974 61.3757 151.225 61.36 151.48C61.3478 151.693 61.3963 151.904 61.5 152.09C61.6077 152.27 61.7735 152.407 61.97 152.48C62.1653 152.577 62.3899 152.599 62.6 152.54C62.8082 152.485 62.9959 152.37 63.14 152.21C63.3061 152.026 63.4412 151.817 63.54 151.59C63.6366 151.365 63.6941 151.125 63.71 150.88C63.7223 150.667 63.6737 150.456 63.57 150.27C63.4559 150.083 63.2838 149.939 63.08 149.86C62.8891 149.773 62.6757 149.749 62.47 149.79C62.2655 149.842 62.0809 149.953 61.94 150.11C61.7684 150.293 61.6327 150.507 61.54 150.74Z" fill="#FBFAF7"/>
<path d="M65.81 154.52C65.496 154.427 65.215 154.247 65 154C64.8058 153.763 64.6842 153.475 64.65 153.17C64.6253 152.82 64.673 152.47 64.79 152.139C64.907 151.809 65.0908 151.506 65.33 151.25C65.545 151.028 65.8191 150.872 66.12 150.8C66.4252 150.721 66.7477 150.742 67.04 150.86C67.2239 150.925 67.3961 151.02 67.55 151.14C67.7137 151.269 67.8469 151.433 67.94 151.62C68.0434 151.825 68.0982 152.051 68.1 152.28C68.0995 152.584 68.0453 152.885 67.94 153.17L67.86 153.4L65.12 152.4L65.29 151.92L67.47 152.69C67.5367 152.504 67.5606 152.306 67.54 152.11C67.5101 151.932 67.4381 151.764 67.33 151.62C67.209 151.475 67.0495 151.368 66.87 151.31C66.6686 151.244 66.4515 151.244 66.25 151.31C66.0565 151.358 65.88 151.458 65.74 151.6C65.5918 151.736 65.4815 151.908 65.42 152.1L65.31 152.42C65.2161 152.651 65.1817 152.902 65.21 153.15C65.2263 153.355 65.3108 153.549 65.45 153.7C65.5993 153.853 65.7908 153.957 66 154C66.1346 154.05 66.2765 154.077 66.42 154.08C66.5484 154.079 66.675 154.05 66.7909 153.995C66.9067 153.94 67.0088 153.859 67.09 153.76L67.56 154.09C67.4432 154.248 67.2929 154.377 67.12 154.47C66.9306 154.554 66.727 154.601 66.52 154.61C66.2796 154.63 66.0378 154.599 65.81 154.52Z" fill="#FBFAF7"/>
<path d="M69.51 153.27L68.89 155.45L68.33 155.29L69.33 151.67L69.87 151.83L69.71 152.39H69.76C69.8942 152.233 70.0715 152.118 70.27 152.06C70.5016 151.991 70.7484 151.991 70.98 152.06C71.2077 152.115 71.4155 152.233 71.58 152.4C71.7401 152.552 71.8456 152.752 71.88 152.97C71.9274 153.241 71.9068 153.519 71.82 153.78L71.17 156.07L70.61 155.92L71.25 153.66C71.342 153.425 71.342 153.165 71.25 152.93C71.1955 152.826 71.1189 152.736 71.0256 152.665C70.9323 152.594 70.8246 152.545 70.71 152.52C70.5429 152.476 70.3672 152.476 70.2 152.52C70.0373 152.551 69.8897 152.636 69.78 152.76C69.6478 152.904 69.5548 153.08 69.51 153.27Z" fill="#FBFAF7"/>
<path d="M73.91 156.82C73.5872 156.759 73.2888 156.606 73.05 156.38C72.8268 156.166 72.6705 155.891 72.6 155.59C72.5295 155.26 72.5295 154.92 72.6 154.59C72.6732 154.246 72.8199 153.922 73.03 153.64C73.2159 153.391 73.4692 153.2 73.76 153.09C74.0559 152.987 74.3747 152.97 74.68 153.04C74.8707 153.084 75.0531 153.158 75.22 153.26C75.3944 153.368 75.5442 153.511 75.66 153.68C75.7932 153.874 75.8788 154.097 75.91 154.33C75.9422 154.628 75.9219 154.929 75.85 155.22V155.46L73 154.81L73.11 154.32L75.36 154.82C75.41 154.63 75.41 154.43 75.36 154.24C75.3225 154.064 75.2317 153.903 75.1 153.78C74.9617 153.647 74.7882 153.557 74.6 153.52C74.3986 153.454 74.1815 153.454 73.98 153.52C73.7953 153.588 73.6327 153.706 73.51 153.86C73.3843 154.018 73.2954 154.203 73.25 154.4L73.18 154.73C73.1203 154.973 73.1203 155.227 73.18 155.47C73.2244 155.67 73.3291 155.851 73.48 155.99C73.7597 156.221 74.1189 156.332 74.48 156.3C74.6031 156.282 74.7218 156.241 74.83 156.18C74.9424 156.108 75.0379 156.012 75.11 155.9L75.62 156.17C75.525 156.345 75.3874 156.493 75.22 156.6C75.0477 156.711 74.8531 156.783 74.65 156.81C74.4065 156.863 74.1549 156.866 73.91 156.82Z" fill="#FBFAF7"/>
<path d="M78.75 153.83L78.67 154.31L76.67 153.97L76.75 153.49L78.75 153.83ZM76.75 157.3L77.46 153.08C77.4894 152.891 77.5727 152.713 77.7 152.57C77.8204 152.447 77.9728 152.361 78.14 152.32C78.3149 152.285 78.4951 152.285 78.67 152.32C78.7837 152.334 78.8948 152.364 79 152.41L79.19 152.51L78.94 152.97H78.83C78.7687 152.935 78.7003 152.915 78.63 152.91C78.5574 152.891 78.4816 152.888 78.4076 152.9C78.3336 152.912 78.2629 152.939 78.2 152.98C78.0903 153.086 78.0228 153.228 78.01 153.38L77.32 157.46L76.75 157.3Z" fill="#FBFAF7"/>
<path d="M79 157.66L79.51 153.93L80.08 154.01L79.57 157.74L79 157.66ZM79.88 153.35C79.8268 153.346 79.7752 153.33 79.7286 153.305C79.682 153.279 79.6415 153.243 79.61 153.2C79.5753 153.161 79.5501 153.115 79.5362 153.064C79.5223 153.014 79.5202 152.961 79.53 152.91C79.5366 152.858 79.5543 152.808 79.5819 152.763C79.6095 152.718 79.6464 152.679 79.69 152.65C79.7329 152.619 79.7815 152.597 79.833 152.585C79.8845 152.573 79.9378 152.571 79.99 152.58C80.0432 152.584 80.0948 152.6 80.1414 152.625C80.188 152.651 80.2285 152.687 80.26 152.73C80.2941 152.769 80.3189 152.816 80.3327 152.866C80.3466 152.916 80.3491 152.969 80.34 153.02C80.3366 153.072 80.3212 153.122 80.2952 153.167C80.2692 153.213 80.2332 153.251 80.19 153.28C80.1095 153.339 80.0089 153.364 79.91 153.35H79.88Z" fill="#FBFAF7"/>
<path d="M82.27 158.12C81.9491 158.098 81.6425 157.979 81.39 157.78C81.1465 157.591 80.9654 157.333 80.87 157.04C80.7637 156.711 80.7266 156.363 80.7611 156.019C80.7955 155.675 80.9006 155.342 81.07 155.04C81.2233 154.773 81.4485 154.555 81.72 154.41C82.0014 154.269 82.3176 154.214 82.63 154.25C82.875 154.273 83.1129 154.344 83.33 154.46C83.5244 154.573 83.6889 154.731 83.81 154.92C83.9297 155.112 83.9954 155.333 84 155.56L83.43 155.51C83.3986 155.325 83.3113 155.154 83.18 155.02C83.0207 154.867 82.8107 154.778 82.59 154.77C82.3824 154.746 82.1725 154.788 81.99 154.89C81.8033 154.995 81.6506 155.151 81.55 155.34C81.4285 155.562 81.3568 155.808 81.34 156.06C81.3071 156.318 81.3275 156.58 81.4 156.83C81.462 157.038 81.5796 157.224 81.74 157.37C81.9038 157.507 82.1071 157.587 82.32 157.6C82.4584 157.63 82.6016 157.63 82.74 157.6C82.862 157.56 82.9744 157.496 83.07 157.41C83.1626 157.316 83.2342 157.204 83.28 157.08L83.86 157.13C83.805 157.34 83.7023 157.535 83.56 157.7C83.4008 157.844 83.2084 157.947 83 158C82.7709 158.102 82.5196 158.143 82.27 158.12Z" fill="#FBFAF7"/>
<path d="M84.73 158.23L84.93 154.47H85.51L85.31 158.22L84.73 158.23ZM85.26 153.87C85.206 153.868 85.1532 153.854 85.1049 153.83C85.0566 153.806 85.014 153.772 84.98 153.73C84.9414 153.695 84.9114 153.651 84.8923 153.603C84.8733 153.554 84.8656 153.502 84.87 153.45C84.8735 153.398 84.8877 153.347 84.9118 153.3C84.9359 153.254 84.9693 153.213 85.01 153.18C85.0911 153.112 85.1943 153.077 85.3 153.08C85.409 153.088 85.5118 153.134 85.59 153.21C85.6249 153.249 85.6517 153.295 85.6689 153.345C85.686 153.395 85.6932 153.447 85.69 153.5C85.6872 153.551 85.6743 153.602 85.6519 153.648C85.6296 153.694 85.5984 153.736 85.56 153.77C85.4745 153.837 85.3685 153.872 85.26 153.87Z" fill="#FBFAF7"/>
<path d="M87.58 158.42C87.3558 158.421 87.134 158.373 86.93 158.28C86.7477 158.188 86.5926 158.05 86.48 157.88C86.3644 157.691 86.3087 157.471 86.32 157.25C86.3089 157.067 86.3543 156.886 86.45 156.73C86.536 156.594 86.6568 156.483 86.8 156.41C86.95 156.339 87.1077 156.285 87.27 156.25C87.4417 156.214 87.6153 156.187 87.79 156.17L88.35 156.11C88.4582 156.108 88.5644 156.081 88.66 156.03C88.6958 156.014 88.7255 155.987 88.7452 155.952C88.7649 155.918 88.7736 155.879 88.77 155.84C88.7831 155.633 88.715 155.428 88.58 155.27C88.4286 155.109 88.2209 155.012 88 155C87.7708 154.987 87.5434 155.046 87.35 155.17C87.2075 155.271 87.091 155.405 87.01 155.56L86.46 155.35C86.5514 155.143 86.6922 154.961 86.87 154.82C87.0307 154.698 87.2144 154.609 87.41 154.56C87.5996 154.512 87.7945 154.489 87.99 154.49C88.1275 154.499 88.2644 154.515 88.4 154.54C88.562 154.58 88.7171 154.644 88.86 154.73C89.0116 154.831 89.1353 154.969 89.22 155.13C89.3221 155.356 89.3668 155.603 89.35 155.85V158.32H88.78V157.82C88.7234 157.911 88.6563 157.995 88.58 158.07C88.4719 158.171 88.3466 158.253 88.21 158.31C88.0115 158.395 87.7957 158.433 87.58 158.42ZM87.68 157.91C87.8813 157.917 88.0809 157.872 88.26 157.78C88.4045 157.704 88.526 157.59 88.6121 157.451C88.6982 157.313 88.7458 157.153 88.75 156.99V156.47C88.7037 156.507 88.6485 156.531 88.59 156.54C88.4949 156.567 88.398 156.587 88.3 156.6H87.99H87.75C87.6041 156.61 87.4598 156.637 87.32 156.68C87.2025 156.717 87.0959 156.782 87.01 156.87C86.9619 156.929 86.9261 156.997 86.9045 157.069C86.883 157.142 86.8762 157.218 86.8846 157.294C86.893 157.369 86.9164 157.442 86.9534 157.509C86.9904 157.575 87.0402 157.633 87.1 157.68C87.2668 157.812 87.4684 157.891 87.68 157.91Z" fill="#FBFAF7"/>
<path d="M90.93 153.3L91.07 158.3H90.49L90.35 153.3H90.93Z" fill="#FBFAF7"/>
<path d="M94.63 155.85L94.85 158.1L94.28 158.15L93.91 154.41H94.46L94.52 154.99C94.5877 154.794 94.7089 154.621 94.87 154.49C95.0685 154.345 95.3048 154.262 95.55 154.25C95.7807 154.217 96.0159 154.248 96.23 154.34C96.4353 154.422 96.6076 154.57 96.72 154.76C96.8525 154.997 96.931 155.26 96.95 155.53L97.19 157.91L96.61 157.97L96.38 155.63C96.3713 155.378 96.2677 155.139 96.09 154.96C95.9995 154.884 95.8936 154.829 95.7797 154.798C95.6658 154.767 95.5465 154.761 95.43 154.78C95.258 154.794 95.0927 154.853 94.95 154.95C94.8165 155.046 94.7125 155.178 94.65 155.33C94.6037 155.5 94.5969 155.677 94.63 155.85Z" fill="#FBFAF7"/>
<path d="M100 157.53C99.6653 157.602 99.3165 157.571 99 157.44C98.7171 157.321 98.4742 157.123 98.3 156.87C98.0954 156.573 97.9683 156.229 97.93 155.87C97.858 155.541 97.858 155.199 97.93 154.87C98.0166 154.571 98.1825 154.302 98.41 154.09C98.648 153.884 98.939 153.749 99.25 153.7C99.4456 153.671 99.6444 153.671 99.84 153.7C100.042 153.734 100.233 153.812 100.4 153.93C100.59 154.063 100.747 154.237 100.86 154.44C101.008 154.706 101.103 154.998 101.14 155.3V155.54L98.28 155.99L98.2 155.5L100.48 155.14C100.456 154.945 100.384 154.76 100.27 154.6C100.167 154.447 100.021 154.329 99.85 154.26C99.672 154.19 99.4776 154.173 99.29 154.21C99.0806 154.235 98.8846 154.326 98.73 154.47C98.5828 154.605 98.4756 154.778 98.42 154.97C98.3752 155.164 98.3752 155.366 98.42 155.56V155.89C98.4539 156.137 98.5427 156.372 98.68 156.58C98.8008 156.75 98.9673 156.881 99.16 156.96C99.3618 157.033 99.5793 157.05 99.79 157.01C99.9297 156.99 100.065 156.946 100.19 156.88C100.301 156.823 100.396 156.74 100.47 156.64C100.551 156.534 100.606 156.411 100.63 156.28L101.2 156.35C101.169 156.543 101.097 156.727 100.99 156.89C100.866 157.057 100.71 157.196 100.53 157.3C100.366 157.403 100.187 157.481 100 157.53Z" fill="#FBFAF7"/>
<path d="M103.47 156.82L101.47 153.42L102.06 153.28L103.51 155.9L103.63 152.9L104.23 152.76L105.66 155.37L105.79 152.37L106.38 152.23L106.13 156.15L105.57 156.28L104.11 153.66H104.05L103.92 156.66L103.47 156.82Z" fill="#FBFAF7"/>
<path d="M109.1 150.75C109.05 150.772 108.995 150.783 108.94 150.783C108.885 150.783 108.83 150.772 108.78 150.75C108.733 150.73 108.691 150.7 108.656 150.662C108.622 150.624 108.596 150.579 108.58 150.53C108.541 150.434 108.541 150.326 108.58 150.23C108.631 150.135 108.717 150.063 108.82 150.03C108.869 150.008 108.921 149.996 108.975 149.996C109.028 149.996 109.081 150.008 109.13 150.03C109.177 150.05 109.219 150.08 109.254 150.118C109.288 150.156 109.314 150.201 109.33 150.25C109.352 150.297 109.364 150.348 109.364 150.4C109.364 150.452 109.352 150.503 109.33 150.55C109.281 150.643 109.199 150.714 109.1 150.75ZM110.18 155.01L109 151.44L109.55 151.26L110.72 154.83L110.18 155.01Z" fill="#FBFAF7"/>
<path d="M112.07 150.38L112.23 150.84L110.4 151.5L110.24 151.04L112.07 150.38ZM110.46 150L111.01 149.8L112.23 153.17C112.265 153.291 112.33 153.402 112.42 153.49C112.483 153.547 112.565 153.579 112.65 153.58C112.73 153.59 112.81 153.59 112.89 153.58L113.03 153.51L113.12 153.46L113.4 153.91L113.27 154.01L113.02 154.12C112.857 154.184 112.681 154.208 112.506 154.189C112.332 154.169 112.165 154.108 112.02 154.01C111.867 153.895 111.754 153.734 111.7 153.55L110.46 150Z" fill="#FBFAF7"/>
<path d="M115.78 153C115.468 153.144 115.12 153.193 114.78 153.14C114.476 153.089 114.192 152.954 113.96 152.75C113.7 152.516 113.498 152.225 113.37 151.9C113.237 151.584 113.172 151.243 113.18 150.9C113.187 150.589 113.285 150.287 113.46 150.03C113.639 149.773 113.889 149.575 114.18 149.46C114.362 149.386 114.554 149.342 114.75 149.33C114.958 149.311 115.167 149.342 115.36 149.42C115.578 149.503 115.774 149.636 115.93 149.81C116.128 150.035 116.287 150.292 116.4 150.57L116.49 150.8L113.82 151.92L113.62 151.45L115.76 150.56C115.681 150.381 115.565 150.221 115.42 150.09C115.284 149.971 115.118 149.892 114.94 149.86C114.75 149.832 114.555 149.86 114.38 149.94C114.183 150.016 114.015 150.153 113.9 150.33C113.788 150.493 113.723 150.683 113.71 150.88C113.698 151.082 113.733 151.283 113.81 151.47L113.94 151.78C114.032 152.013 114.176 152.221 114.36 152.39C114.515 152.525 114.706 152.612 114.91 152.64C115.122 152.665 115.337 152.63 115.53 152.54C115.661 152.49 115.783 152.42 115.89 152.33C115.986 152.245 116.061 152.139 116.11 152.02C116.161 151.9 116.182 151.77 116.17 151.64L116.75 151.57C116.769 151.764 116.742 151.959 116.67 152.14C116.595 152.335 116.475 152.51 116.32 152.65C116.162 152.797 115.979 152.916 115.78 153Z" fill="#FBFAF7"/>
<path d="M118.19 151.91L116.49 148.57L116.98 148.31L117.25 148.84C117.227 148.634 117.273 148.427 117.38 148.25C117.492 148.061 117.66 147.911 117.86 147.82C118.052 147.714 118.271 147.666 118.49 147.68C118.696 147.71 118.89 147.797 119.05 147.93C119.049 147.713 119.112 147.501 119.23 147.32C119.363 147.117 119.55 146.954 119.77 146.85C119.903 146.777 120.05 146.732 120.201 146.716C120.352 146.701 120.505 146.716 120.65 146.76C120.977 146.896 121.239 147.155 121.38 147.48L122.52 149.72L122 149.98L120.86 147.74C120.82 147.638 120.757 147.547 120.675 147.474C120.593 147.401 120.496 147.348 120.39 147.32C120.2 147.281 120.002 147.309 119.83 147.4C119.726 147.446 119.633 147.513 119.557 147.598C119.481 147.682 119.424 147.782 119.39 147.89C119.333 148.106 119.361 148.335 119.47 148.53L120.58 150.71L120.06 150.98L118.89 148.68C118.85 148.594 118.791 148.517 118.719 148.455C118.646 148.393 118.562 148.347 118.47 148.32C118.376 148.291 118.277 148.281 118.179 148.292C118.081 148.302 117.986 148.332 117.9 148.38C117.765 148.45 117.653 148.557 117.575 148.688C117.497 148.818 117.458 148.968 117.46 149.12C117.454 149.29 117.492 149.459 117.57 149.61L118.64 151.7L118.19 151.91Z" fill="#FBFAF7"/>
<path d="M124.45 145.14L124.08 145.53C124.005 145.47 123.921 145.422 123.83 145.39C123.725 145.364 123.615 145.364 123.51 145.39C123.366 145.398 123.228 145.447 123.11 145.53C122.933 145.628 122.79 145.778 122.7 145.96C122.663 146.031 122.644 146.11 122.644 146.19C122.644 146.27 122.663 146.349 122.7 146.42C122.73 146.478 122.774 146.528 122.828 146.565C122.882 146.601 122.945 146.624 123.01 146.63C123.19 146.646 123.371 146.622 123.54 146.56L124.09 146.39C124.354 146.287 124.642 146.262 124.92 146.32C125.036 146.347 125.145 146.398 125.24 146.471C125.335 146.543 125.413 146.635 125.47 146.74C125.581 146.916 125.63 147.123 125.61 147.33C125.584 147.549 125.505 147.758 125.38 147.94C125.226 148.153 125.028 148.33 124.8 148.46C124.506 148.659 124.155 148.757 123.8 148.74C123.652 148.734 123.507 148.697 123.373 148.634C123.239 148.57 123.119 148.481 123.02 148.37L123.41 147.96C123.538 148.098 123.713 148.183 123.9 148.2C124.103 148.207 124.303 148.147 124.47 148.03C124.674 147.927 124.836 147.758 124.93 147.55C124.972 147.477 124.994 147.394 124.994 147.31C124.994 147.226 124.972 147.143 124.93 147.07C124.901 147.017 124.861 146.971 124.812 146.935C124.764 146.899 124.709 146.873 124.65 146.86C124.492 146.839 124.33 146.856 124.18 146.91L123.57 147.11C123.302 147.213 123.011 147.237 122.73 147.18C122.501 147.107 122.306 146.955 122.18 146.75C122.074 146.576 122.028 146.372 122.05 146.17C122.068 145.96 122.144 145.759 122.27 145.59C122.412 145.392 122.592 145.226 122.8 145.1C123.059 144.925 123.368 144.841 123.68 144.86C123.961 144.864 124.232 144.963 124.45 145.14Z" fill="#FBFAF7"/>
<path d="M129.87 145.05C129.617 145.24 129.315 145.354 129 145.38C128.695 145.4 128.39 145.334 128.12 145.19C127.818 145.011 127.556 144.773 127.349 144.489C127.143 144.205 126.997 143.882 126.92 143.54C126.86 143.239 126.888 142.926 127 142.64C127.118 142.351 127.315 142.101 127.57 141.92C127.814 141.724 128.111 141.605 128.423 141.58C128.736 141.556 129.048 141.625 129.32 141.78C129.63 141.951 129.897 142.19 130.1 142.48C130.319 142.775 130.467 143.118 130.53 143.48C130.582 143.783 130.551 144.094 130.44 144.38C130.315 144.651 130.117 144.883 129.87 145.05ZM129.56 144.63C129.75 144.504 129.891 144.317 129.96 144.1C130.015 143.89 130.015 143.67 129.96 143.46C129.893 143.229 129.784 143.012 129.64 142.82C129.498 142.63 129.326 142.464 129.13 142.33C128.95 142.205 128.739 142.132 128.52 142.12C128.292 142.116 128.07 142.19 127.89 142.33C127.702 142.462 127.562 142.652 127.49 142.87C127.43 143.079 127.43 143.301 127.49 143.51C127.554 143.74 127.659 143.957 127.8 144.15C127.941 144.343 128.114 144.512 128.31 144.65C128.493 144.767 128.703 144.835 128.92 144.85C129.152 144.853 129.379 144.776 129.56 144.63Z" fill="#FBFAF7"/>
<path d="M132 143.35L129.64 140.43L130.07 140.07L130.43 140.52C130.365 140.332 130.365 140.128 130.43 139.94C130.498 139.736 130.623 139.555 130.79 139.42L130.92 139.32L131.04 139.23L131.41 139.69L131.29 139.76L131.11 139.88C130.976 139.986 130.87 140.124 130.8 140.28C130.742 140.423 130.718 140.577 130.73 140.73C130.754 140.892 130.824 141.045 130.93 141.17L132.42 143.01L132 143.35Z" fill="#FBFAF7"/>
<path d="M135.67 140.26L133 137.58L133.4 137.19L133.81 137.61C133.722 137.423 133.7 137.211 133.75 137.01C133.807 136.797 133.921 136.603 134.08 136.45C134.231 136.293 134.427 136.185 134.64 136.14C134.845 136.101 135.057 136.122 135.25 136.2C135.185 135.992 135.185 135.768 135.25 135.56C135.317 135.325 135.449 135.114 135.63 134.95C135.735 134.841 135.861 134.754 136 134.694C136.139 134.634 136.289 134.602 136.44 134.6C136.616 134.614 136.788 134.664 136.945 134.746C137.101 134.829 137.239 134.942 137.35 135.08L139.11 136.87L138.69 137.28L136.94 135.48C136.87 135.394 136.782 135.325 136.681 135.278C136.581 135.231 136.471 135.208 136.36 135.21C136.167 135.235 135.988 135.323 135.85 135.46C135.765 135.535 135.696 135.627 135.65 135.731C135.603 135.834 135.579 135.946 135.58 136.06C135.581 136.169 135.605 136.277 135.65 136.377C135.695 136.477 135.759 136.566 135.84 136.64L137.55 138.39L137.13 138.8L135.33 136.96C135.266 136.889 135.187 136.833 135.099 136.795C135.011 136.757 134.916 136.738 134.82 136.74C134.623 136.745 134.436 136.828 134.3 136.97C134.196 137.075 134.123 137.206 134.09 137.35C134.05 137.501 134.05 137.659 134.09 137.81C134.142 137.972 134.231 138.119 134.35 138.24L135.99 139.92L135.67 140.26Z" fill="#FBFAF7"/>
<path d="M141.16 134.72C140.95 134.972 140.672 135.16 140.36 135.26C140.067 135.35 139.753 135.35 139.46 135.26C139.127 135.157 138.82 134.983 138.56 134.75C138.29 134.525 138.074 134.241 137.93 133.92C137.802 133.638 137.76 133.325 137.81 133.02C137.853 132.708 137.993 132.418 138.21 132.19C138.339 132.043 138.491 131.918 138.66 131.82C138.839 131.711 139.041 131.646 139.25 131.63C139.481 131.616 139.713 131.65 139.93 131.73C140.207 131.843 140.461 132.006 140.68 132.21L140.87 132.38L139 134.56L138.63 134.23L140.16 132.5C140.016 132.366 139.841 132.269 139.65 132.22C139.474 132.165 139.286 132.165 139.11 132.22C138.928 132.274 138.768 132.382 138.65 132.53C138.503 132.683 138.408 132.879 138.38 133.09C138.352 133.287 138.379 133.488 138.46 133.67C138.533 133.86 138.654 134.029 138.81 134.16L139.06 134.38C139.242 134.544 139.457 134.667 139.69 134.74C139.889 134.8 140.101 134.8 140.3 134.74C140.502 134.667 140.681 134.543 140.82 134.38C140.898 134.263 140.959 134.135 141 134C141.05 133.883 141.07 133.756 141.06 133.63C141.05 133.5 141.012 133.374 140.95 133.26L141.44 132.95C141.54 133.118 141.601 133.306 141.62 133.5C141.629 133.704 141.599 133.908 141.53 134.1C141.447 134.328 141.321 134.539 141.16 134.72Z" fill="#FBFAF7"/>
<path d="M142.78 132.69L139.84 130.35L140.19 129.91L140.63 130.27C140.529 130.095 140.486 129.891 140.51 129.69C140.532 129.477 140.615 129.276 140.75 129.11L140.86 128.99L140.95 128.88L141.41 129.24L141.31 129.33L141.16 129.5C141.05 129.628 140.978 129.784 140.95 129.95C140.91 130.101 140.91 130.259 140.95 130.41C141.009 130.559 141.105 130.69 141.23 130.79L143.09 132.27L142.78 132.69Z" fill="#FBFAF7"/>
<path d="M145.33 129.48C145.151 129.749 144.893 129.956 144.59 130.07C144.304 130.182 143.992 130.21 143.69 130.15C143.354 130.078 143.036 129.935 142.76 129.73C142.474 129.53 142.237 129.267 142.07 128.96C141.914 128.694 141.841 128.388 141.86 128.08C141.877 127.765 141.989 127.461 142.18 127.21C142.321 127.012 142.501 126.845 142.71 126.72C142.907 126.613 143.126 126.552 143.35 126.54C143.577 126.535 143.801 126.59 144 126.7L143.66 127.16C143.483 127.111 143.297 127.111 143.12 127.16C142.906 127.218 142.721 127.354 142.6 127.54C142.474 127.708 142.404 127.91 142.4 128.12C142.394 128.336 142.453 128.548 142.57 128.73C142.701 128.946 142.875 129.133 143.08 129.28C143.289 129.436 143.527 129.548 143.78 129.61C143.99 129.666 144.21 129.666 144.42 129.61C144.618 129.535 144.788 129.403 144.91 129.23C144.996 129.118 145.058 128.988 145.09 128.85C145.12 128.725 145.12 128.595 145.09 128.47C145.059 128.341 144.997 128.221 144.91 128.12L145.25 127.65C145.409 127.802 145.527 127.992 145.594 128.201C145.66 128.411 145.673 128.634 145.63 128.85C145.576 129.079 145.474 129.294 145.33 129.48Z" fill="#FBFAF7"/>
<path d="M145.12 125.68L147.03 126.89L146.72 127.38L142.49 124.69L142.8 124.2L144.35 125.2C144.229 125.027 144.166 124.821 144.17 124.61C144.183 124.363 144.263 124.125 144.4 123.92C144.524 123.724 144.692 123.56 144.89 123.44C145.084 123.33 145.308 123.285 145.53 123.31C145.802 123.346 146.063 123.445 146.29 123.6L148.29 124.88L147.98 125.37L145.98 124.11C145.775 123.962 145.521 123.898 145.27 123.93C145.156 123.958 145.048 124.009 144.953 124.079C144.859 124.15 144.78 124.238 144.72 124.34C144.621 124.486 144.563 124.655 144.55 124.83C144.537 125.001 144.575 125.171 144.66 125.32C144.778 125.479 144.937 125.603 145.12 125.68Z" fill="#FBFAF7"/>
<path d="M149.58 122.84C149.473 123.035 149.326 123.205 149.15 123.34C148.982 123.459 148.785 123.532 148.58 123.55C148.359 123.568 148.139 123.515 147.95 123.4C147.785 123.316 147.647 123.188 147.55 123.03C147.479 122.891 147.441 122.737 147.44 122.58C147.443 122.41 147.47 122.242 147.52 122.08C147.52 121.92 147.63 121.75 147.69 121.59L147.9 121.07C147.953 120.972 147.98 120.862 147.98 120.75C147.978 120.712 147.966 120.675 147.945 120.643C147.924 120.612 147.894 120.586 147.86 120.57C147.775 120.515 147.68 120.477 147.58 120.46C147.481 120.443 147.378 120.446 147.28 120.47C147.176 120.506 147.081 120.562 147 120.636C146.92 120.71 146.855 120.8 146.81 120.9C146.687 121.093 146.634 121.323 146.66 121.55C146.674 121.722 146.733 121.887 146.83 122.03L146.4 122.41C146.255 122.239 146.158 122.031 146.12 121.81C146.08 121.612 146.08 121.408 146.12 121.21C146.171 121.018 146.245 120.834 146.34 120.66C146.411 120.541 146.491 120.427 146.58 120.32C146.696 120.185 146.839 120.076 147 120C147.161 119.908 147.345 119.863 147.53 119.87C147.778 119.883 148.019 119.959 148.23 120.09L150.39 121.29L150.11 121.79L149.67 121.55C149.732 121.642 149.78 121.743 149.81 121.85C149.831 121.993 149.831 122.137 149.81 122.28C149.775 122.481 149.697 122.672 149.58 122.84ZM149.17 122.51C149.275 122.339 149.331 122.141 149.33 121.94C149.33 121.777 149.288 121.616 149.207 121.474C149.127 121.332 149.01 121.213 148.87 121.13L148.41 120.88C148.424 120.936 148.424 120.994 148.41 121.05C148.41 121.14 148.36 121.23 148.33 121.33L148.21 121.63C148.187 121.706 148.157 121.78 148.12 121.85C148.071 121.987 148.031 122.128 148 122.27C147.97 122.388 147.97 122.512 148 122.63C148.021 122.691 148.054 122.747 148.097 122.795C148.139 122.844 148.192 122.883 148.25 122.91C148.327 122.952 148.413 122.974 148.5 122.974C148.587 122.974 148.673 122.952 148.75 122.91C148.926 122.821 149.073 122.682 149.17 122.51Z" fill="#FBFAF7"/>
<path d="M149.12 118.7L151.12 119.7L150.87 120.22L147.48 118.59L147.72 118.09L148.25 118.34C148.114 118.183 148.03 117.987 148.01 117.78C147.987 117.538 148.036 117.295 148.15 117.08C148.245 116.866 148.393 116.681 148.58 116.54C148.761 116.412 148.978 116.342 149.2 116.34C149.472 116.347 149.738 116.415 149.98 116.54L152.13 117.54L151.88 118.07L149.77 117.07C149.547 116.948 149.286 116.916 149.04 116.98C148.93 117.018 148.83 117.078 148.746 117.157C148.661 117.237 148.595 117.333 148.55 117.44C148.471 117.594 148.433 117.767 148.44 117.94C148.452 118.106 148.511 118.266 148.61 118.4C148.749 118.545 148.926 118.649 149.12 118.7Z" fill="#FBFAF7"/>
<path d="M153.31 115.08C153.204 115.354 153.019 115.59 152.78 115.76C152.531 115.925 152.239 116.015 151.94 116.02C151.596 116.027 151.255 115.959 150.94 115.82C150.606 115.702 150.304 115.507 150.06 115.25C149.851 115.035 149.709 114.764 149.65 114.47C149.591 114.181 149.622 113.881 149.74 113.61C149.804 113.42 149.918 113.251 150.07 113.12C150.18 113.025 150.31 112.956 150.45 112.92C150.547 112.887 150.648 112.863 150.75 112.85L149.03 112.16L149.25 111.62L153.89 113.5L153.69 114.02L153.15 113.8V113.86L153.33 114.13C153.399 114.257 153.443 114.396 153.46 114.54C153.452 114.729 153.401 114.914 153.31 115.08ZM152.86 114.81C152.929 114.612 152.929 114.398 152.86 114.2C152.805 113.995 152.69 113.81 152.53 113.67C152.339 113.499 152.119 113.364 151.88 113.27C151.649 113.172 151.401 113.118 151.15 113.11C150.943 113.097 150.736 113.15 150.56 113.26C150.383 113.375 150.246 113.543 150.17 113.74C150.08 113.941 150.059 114.166 150.11 114.38C150.174 114.581 150.291 114.761 150.45 114.9C150.626 115.068 150.833 115.201 151.06 115.29C151.292 115.385 151.539 115.436 151.79 115.44C152.003 115.453 152.215 115.405 152.4 115.3C152.605 115.195 152.768 115.022 152.86 114.81Z" fill="#FBFAF7"/>
<path d="M150.27 110.53C150.231 110.63 150.156 110.712 150.06 110.76C150.013 110.782 149.962 110.794 149.91 110.794C149.858 110.794 149.807 110.782 149.76 110.76C149.711 110.744 149.666 110.718 149.628 110.684C149.59 110.649 149.56 110.607 149.54 110.56C149.518 110.51 149.507 110.455 149.507 110.4C149.507 110.345 149.518 110.29 149.54 110.24C149.575 110.14 149.646 110.058 149.74 110.01C149.787 109.988 149.838 109.976 149.89 109.976C149.942 109.976 149.993 109.988 150.04 110.01C150.09 110.023 150.136 110.048 150.175 110.083C150.213 110.118 150.242 110.161 150.26 110.21C150.303 110.312 150.307 110.426 150.27 110.53ZM154.27 112.26L150.76 111L150.95 110.46L154.5 111.71L154.27 112.26Z" fill="#FBFAF7"/>
<path d="M152.88 107.19V107.73C152.784 107.74 152.689 107.763 152.6 107.8C152.495 107.834 152.401 107.896 152.33 107.98C152.234 108.085 152.165 108.212 152.13 108.35C152.069 108.545 152.069 108.755 152.13 108.95C152.15 109.027 152.188 109.097 152.243 109.155C152.297 109.212 152.365 109.256 152.44 109.28C152.499 109.31 152.564 109.325 152.63 109.325C152.696 109.325 152.761 109.31 152.82 109.28C152.959 109.171 153.075 109.035 153.16 108.88L153.45 108.38C153.584 108.13 153.785 107.922 154.03 107.78C154.139 107.732 154.256 107.708 154.375 107.708C154.494 107.708 154.611 107.732 154.72 107.78C154.921 107.838 155.097 107.961 155.22 108.13C155.348 108.31 155.427 108.52 155.45 108.74C155.477 109.003 155.447 109.27 155.36 109.52C155.276 109.843 155.094 110.133 154.84 110.35C154.725 110.444 154.592 110.514 154.45 110.555C154.307 110.596 154.157 110.608 154.01 110.59V110.03C154.196 110.046 154.381 109.993 154.53 109.88C154.687 109.749 154.796 109.569 154.84 109.37C154.909 109.155 154.909 108.925 154.84 108.71C154.82 108.628 154.779 108.553 154.721 108.492C154.663 108.43 154.59 108.385 154.51 108.36C154.455 108.335 154.395 108.323 154.335 108.323C154.275 108.323 154.215 108.335 154.16 108.36C154.025 108.447 153.914 108.567 153.84 108.71L153.52 109.26C153.389 109.518 153.183 109.73 152.93 109.87C152.821 109.918 152.704 109.942 152.585 109.942C152.466 109.942 152.349 109.918 152.24 109.87C152.045 109.816 151.876 109.696 151.76 109.53C151.633 109.362 151.556 109.16 151.54 108.95C151.51 108.708 151.534 108.462 151.61 108.23C151.683 107.929 151.856 107.661 152.1 107.47C152.323 107.295 152.597 107.197 152.88 107.19Z" fill="#FBFAF7"/>
<path d="M156.43 105.46C156.357 105.78 156.198 106.074 155.97 106.31C155.751 106.526 155.472 106.673 155.17 106.73C154.841 106.805 154.499 106.805 154.17 106.73C153.826 106.656 153.503 106.502 153.23 106.28C152.99 106.085 152.807 105.83 152.7 105.54C152.609 105.24 152.609 104.92 152.7 104.62C152.749 104.428 152.83 104.245 152.94 104.08C153.049 103.906 153.196 103.759 153.37 103.65C153.565 103.522 153.788 103.443 154.02 103.42C154.319 103.39 154.621 103.418 154.91 103.5L155.15 103.56L154.46 106.37L153.97 106.25L154.53 104.01C154.336 103.965 154.134 103.965 153.94 104.01C153.765 104.05 153.605 104.14 153.48 104.27C153.345 104.404 153.252 104.574 153.21 104.76C153.144 104.961 153.144 105.179 153.21 105.38C153.277 105.566 153.391 105.731 153.54 105.86C153.698 105.989 153.882 106.081 154.08 106.13L154.4 106.21C154.643 106.269 154.897 106.269 155.14 106.21C155.344 106.168 155.529 106.063 155.67 105.91C155.818 105.753 155.922 105.56 155.97 105.35C155.99 105.214 155.99 105.076 155.97 104.94C155.962 104.811 155.923 104.686 155.857 104.574C155.791 104.463 155.699 104.369 155.59 104.3L155.88 103.8C156.047 103.899 156.187 104.036 156.29 104.2C156.393 104.379 156.461 104.576 156.49 104.78C156.511 105.008 156.491 105.239 156.43 105.46Z" fill="#FBFAF7"/>
<path d="M157 102.54C156.989 102.597 156.967 102.652 156.934 102.7C156.902 102.748 156.859 102.789 156.81 102.82C156.763 102.853 156.709 102.877 156.652 102.889C156.595 102.901 156.537 102.901 156.48 102.89C156.366 102.865 156.266 102.797 156.2 102.7C156.167 102.653 156.143 102.599 156.131 102.542C156.119 102.485 156.119 102.427 156.13 102.37C156.155 102.256 156.223 102.156 156.32 102.09C156.367 102.057 156.421 102.033 156.478 102.021C156.535 102.009 156.593 102.009 156.65 102.02C156.727 102.037 156.799 102.071 156.86 102.12C156.913 102.174 156.954 102.239 156.98 102.31C157.007 102.384 157.014 102.463 157 102.54Z" fill="#FBFAF7"/>
<path d="M75.72 135.54C75.4012 135.553 75.0863 135.466 74.82 135.29C74.5851 135.129 74.4122 134.893 74.33 134.62C74.2499 134.291 74.2499 133.949 74.33 133.62C74.3845 133.264 74.514 132.923 74.71 132.62C74.8823 132.335 75.1229 132.098 75.41 131.93C75.6911 131.763 76.0129 131.676 76.34 131.68C76.5346 131.677 76.7279 131.711 76.91 131.78C77.0901 131.842 77.2517 131.949 77.38 132.09C77.5188 132.257 77.6118 132.457 77.65 132.67C77.7055 132.964 77.7055 133.266 77.65 133.56V133.8H74.75L74.83 133.3H77.14C77.1813 133.116 77.1813 132.924 77.14 132.74C77.0886 132.579 76.9869 132.439 76.85 132.34C76.6898 132.245 76.5063 132.196 76.32 132.2C76.1084 132.202 75.9013 132.261 75.72 132.37C75.536 132.484 75.3762 132.634 75.25 132.81C75.1293 132.969 75.0471 133.154 75.01 133.35L74.94 133.78C74.8817 134.027 74.8817 134.283 74.94 134.53C74.9981 134.702 75.1197 134.845 75.28 134.93C75.4681 135.016 75.6734 135.057 75.88 135.05C76.0264 135.054 76.1722 135.03 76.31 134.98C76.4374 134.939 76.5561 134.874 76.66 134.79C76.7678 134.698 76.8562 134.586 76.92 134.46L77.45 134.62C77.3586 134.808 77.2292 134.975 77.07 135.11C76.9053 135.261 76.7113 135.377 76.5 135.45C76.2485 135.531 75.9834 135.562 75.72 135.54Z" fill="#FBFAF7"/>
<path d="M81.32 132.54L80.78 132.69C80.7572 132.6 80.7236 132.512 80.68 132.43C80.6229 132.344 80.5434 132.275 80.45 132.23C80.325 132.172 80.1878 132.144 80.05 132.15C79.8387 132.143 79.63 132.199 79.45 132.31C79.3748 132.351 79.3096 132.408 79.2594 132.477C79.2092 132.546 79.1753 132.626 79.16 132.71C79.1469 132.771 79.1492 132.833 79.1667 132.893C79.1841 132.952 79.2162 133.006 79.26 133.05C79.3934 133.151 79.5468 133.223 79.71 133.26L80.25 133.39C80.5119 133.441 80.7524 133.57 80.94 133.76C81.0092 133.852 81.0576 133.957 81.0817 134.07C81.1059 134.182 81.1053 134.298 81.08 134.41C81.0428 134.626 80.9458 134.827 80.8 134.99C80.6384 135.164 80.4404 135.301 80.22 135.39C79.9696 135.493 79.7008 135.544 79.43 135.54C79.103 135.557 78.7795 135.466 78.51 135.28C78.3988 135.196 78.3085 135.087 78.2461 134.962C78.1837 134.837 78.1508 134.7 78.15 134.56L78.73 134.42C78.7328 134.506 78.7538 134.591 78.7917 134.669C78.8296 134.746 78.8836 134.815 78.95 134.87C79.1051 134.986 79.2967 135.043 79.49 135.03C79.7295 135.039 79.9662 134.976 80.17 134.85C80.2483 134.81 80.3162 134.751 80.3682 134.68C80.4203 134.609 80.4551 134.527 80.47 134.44C80.4846 134.383 80.4858 134.324 80.4736 134.267C80.4615 134.21 80.4363 134.156 80.4 134.11C80.2913 134.003 80.1512 133.933 80 133.91L79.41 133.76C79.14 133.717 78.8928 133.583 78.71 133.38C78.6411 133.29 78.5928 133.186 78.5686 133.076C78.5444 132.965 78.5449 132.85 78.57 132.74C78.6075 132.527 78.7046 132.33 78.85 132.17C79.0053 132.002 79.1968 131.872 79.41 131.79C79.6421 131.697 79.8899 131.649 80.14 131.65C80.4395 131.629 80.7368 131.714 80.98 131.89C81.1657 132.06 81.286 132.29 81.32 132.54Z" fill="#FBFAF7"/>
<path d="M84 131.7L83.92 132.19H82L82.08 131.7H84ZM82.76 130.8H83.34L82.74 134.38C82.7073 134.501 82.7073 134.629 82.74 134.75C82.7541 134.786 82.7756 134.819 82.8031 134.847C82.8307 134.874 82.8637 134.896 82.9 134.91C82.9763 134.92 83.0537 134.92 83.13 134.91H83.29H83.39V135.43H83.21C82.9648 135.489 82.7065 135.461 82.48 135.35C82.3362 135.285 82.2195 135.172 82.15 135.03C82.0668 134.863 82.0455 134.671 82.09 134.49L82.76 130.8Z" fill="#FBFAF7"/>
<path d="M84.77 135.5C84.6535 135.499 84.542 135.453 84.46 135.37C84.3791 135.287 84.3327 135.176 84.33 135.06C84.3272 135.002 84.3374 134.944 84.3599 134.89C84.3824 134.837 84.4166 134.789 84.46 134.75C84.5447 134.673 84.6553 134.63 84.77 134.63C84.8847 134.63 84.9952 134.673 85.08 134.75C85.1218 134.79 85.155 134.838 85.1774 134.891C85.1997 134.945 85.2108 135.002 85.21 135.06C85.2101 135.137 85.1894 135.213 85.15 135.28C85.1127 135.347 85.0573 135.403 84.99 135.44C84.9234 135.479 84.8474 135.5 84.77 135.5Z" fill="#FBFAF7"/>
<path d="M86.17 135.46L86.25 135.02L88.25 133.21L88.82 132.65C88.9506 132.515 89.0678 132.368 89.17 132.21C89.2581 132.078 89.3161 131.927 89.34 131.77C89.3759 131.615 89.3583 131.453 89.29 131.31C89.236 131.174 89.1324 131.063 89 131C88.8538 130.929 88.6924 130.895 88.53 130.9C88.3483 130.897 88.1679 130.931 88 131C87.8424 131.077 87.7079 131.194 87.61 131.34C87.5041 131.486 87.4324 131.653 87.4 131.83H86.83C86.8706 131.549 86.9844 131.283 87.16 131.06C87.3359 130.837 87.5611 130.658 87.8178 130.536C88.0746 130.415 88.356 130.355 88.64 130.36C88.8984 130.352 89.1543 130.414 89.38 130.54C89.5794 130.655 89.737 130.83 89.83 131.04C89.9191 131.266 89.9433 131.511 89.9 131.75C89.8637 131.938 89.7997 132.12 89.71 132.29C89.5822 132.5 89.4312 132.694 89.26 132.87C89.0082 133.148 88.7412 133.412 88.46 133.66L87.14 134.86H89.47L89.38 135.4L86.17 135.46Z" fill="#FBFAF7"/>
<path d="M92 135.53C91.6746 135.545 91.3559 135.434 91.11 135.22C90.8712 134.987 90.7165 134.681 90.67 134.35C90.5905 133.887 90.5905 133.413 90.67 132.95C90.7393 132.466 90.8879 131.996 91.11 131.56C91.2817 131.211 91.5357 130.909 91.85 130.68C92.1436 130.478 92.4935 130.373 92.85 130.38C93.1707 130.365 93.4852 130.472 93.73 130.68C93.9734 130.917 94.1346 131.225 94.19 131.56C94.2746 132.019 94.2746 132.491 94.19 132.95C94.119 133.434 93.9705 133.903 93.75 134.34C93.5807 134.691 93.3263 134.993 93.01 135.22C92.7151 135.429 92.3612 135.537 92 135.53ZM92.09 134.99C92.2878 134.993 92.483 134.945 92.6577 134.853C92.8324 134.76 92.9811 134.625 93.09 134.46C93.3851 134.005 93.5731 133.488 93.64 132.95C93.6982 132.582 93.6982 132.208 93.64 131.84C93.6209 131.586 93.523 131.345 93.36 131.15C93.2864 131.07 93.1965 131.008 93.0963 130.966C92.9962 130.925 92.8883 130.906 92.78 130.91C92.5914 130.912 92.4063 130.962 92.242 131.054C92.0777 131.147 91.9394 131.28 91.84 131.44C91.5449 131.895 91.3569 132.412 91.29 132.95C91.2376 133.318 91.2376 133.692 91.29 134.06C91.3135 134.313 91.4109 134.553 91.57 134.75C91.6933 134.89 91.8645 134.979 92.05 135L92.09 134.99Z" fill="#FBFAF7"/>
<path d="M96.27 135.53C95.9442 135.547 95.6248 135.436 95.38 135.22C95.1412 134.987 94.9864 134.681 94.94 134.35C94.8555 133.887 94.8555 133.413 94.94 132.95C95.0109 132.467 95.156 131.998 95.37 131.56C95.5449 131.213 95.7983 130.912 96.11 130.68C96.405 130.481 96.7539 130.376 97.11 130.38C97.4337 130.366 97.7511 130.473 98 130.68C98.2433 130.917 98.4045 131.225 98.46 131.56C98.5395 132.02 98.5395 132.49 98.46 132.95C98.3843 133.433 98.236 133.902 98.02 134.34C97.8507 134.691 97.5963 134.993 97.28 135.22C96.9851 135.429 96.6311 135.537 96.27 135.53ZM96.36 134.99C96.5481 134.985 96.7321 134.935 96.896 134.842C97.0599 134.75 97.1986 134.619 97.3 134.46C97.6028 134.008 97.7947 133.49 97.86 132.95C97.913 132.582 97.913 132.208 97.86 131.84C97.8365 131.587 97.7391 131.347 97.58 131.15C97.5049 131.07 97.4132 131.007 97.3113 130.965C97.2095 130.924 97.0998 130.905 96.99 130.91C96.803 130.914 96.62 130.964 96.4576 131.057C96.2951 131.149 96.1584 131.281 96.06 131.44C95.7607 131.893 95.5723 132.41 95.51 132.95C95.4576 133.318 95.4576 133.692 95.51 134.06C95.5291 134.314 95.627 134.555 95.79 134.75C95.8611 134.831 95.949 134.895 96.0474 134.938C96.1459 134.981 96.2525 135.002 96.36 135V134.99Z" fill="#FBFAF7"/>
<path d="M100.67 135.53C100.378 135.536 100.087 135.478 99.82 135.36C99.5967 135.266 99.408 135.105 99.28 134.9C99.1622 134.687 99.1199 134.44 99.16 134.2H99.77C99.7468 134.343 99.774 134.491 99.8469 134.616C99.9198 134.742 100.034 134.839 100.17 134.89C100.33 134.962 100.505 134.997 100.68 134.99C100.882 134.989 101.082 134.952 101.27 134.88C101.447 134.807 101.607 134.698 101.74 134.56C101.862 134.418 101.942 134.245 101.97 134.06C101.992 133.901 101.972 133.738 101.91 133.59C101.833 133.45 101.714 133.338 101.57 133.27C101.373 133.191 101.162 133.153 100.95 133.16H100.54L100.63 132.62H101C101.189 132.62 101.376 132.583 101.55 132.51C101.709 132.435 101.849 132.326 101.96 132.19C102.071 132.051 102.144 131.886 102.17 131.71C102.211 131.573 102.211 131.427 102.17 131.29C102.124 131.169 102.035 131.07 101.92 131.01C101.778 130.937 101.619 130.903 101.46 130.91C101.283 130.91 101.107 130.94 100.94 131C100.778 131.056 100.631 131.148 100.51 131.27C100.393 131.386 100.316 131.537 100.29 131.7H99.7C99.7334 131.443 99.8372 131.201 100 131C100.176 130.8 100.394 130.643 100.64 130.54C100.894 130.424 101.171 130.366 101.45 130.37C101.723 130.359 101.993 130.425 102.23 130.56C102.425 130.682 102.578 130.86 102.67 131.07C102.759 131.285 102.783 131.521 102.74 131.75C102.702 132.013 102.583 132.258 102.4 132.45C102.217 132.641 101.985 132.779 101.73 132.85C101.866 132.868 101.997 132.916 102.113 132.991C102.229 133.065 102.327 133.164 102.4 133.28C102.546 133.527 102.595 133.819 102.54 134.1C102.497 134.368 102.383 134.62 102.21 134.83C102.027 135.042 101.798 135.21 101.54 135.32C101.266 135.446 100.971 135.517 100.67 135.53Z" fill="#FBFAF7"/>
</g>
<defs>
<clipPath id="clip0_0_1550">
<rect width="177.69" height="177.69" fill="white"/>
</clipPath>
</defs>
</svg>
