<svg width="147" height="192" viewBox="0 0 147 192" fill="none" xmlns="http://www.w3.org/2000/svg">
<g clip-path="url(#clip0_0_4944)">
<path d="M146.63 0H0V191.47H146.63V0Z" fill="#C0EAFD"/>
<path d="M40.36 95.78C40.1352 91.3071 40.8232 86.8352 42.3821 82.6366C43.941 78.4381 46.3383 74.6009 49.4278 71.3586C52.5173 68.1163 56.2345 65.5368 60.3529 63.7772C64.4714 62.0176 68.9049 61.1147 73.3835 61.1235C77.8621 61.1323 82.292 62.0527 86.4034 63.8285C90.5149 65.6044 94.2219 68.1985 97.2986 71.453C100.375 74.7075 102.757 78.5541 104.3 82.7588C105.842 86.9634 106.512 91.438 106.27 95.91C106.27 113.82 91.4 128.76 73.63 128.74C69.2738 128.788 64.9515 127.97 60.9137 126.334C56.8759 124.699 53.2031 122.278 50.1082 119.212C47.0134 116.145 44.558 112.495 42.8846 108.473C41.2113 104.451 40.3531 100.136 40.36 95.78ZM87.59 94.26C87.5263 90.1428 86.9929 86.0462 86 82.05C85.9354 81.8951 85.8328 81.7589 85.7017 81.6541C85.5707 81.5492 85.4153 81.479 85.25 81.45C81.79 81.45 78.32 81.45 74.78 81.45V94.26H87.59ZM55.93 94.26L57.53 81.38C55.25 81.38 52.94 81.38 50.63 81.38C46.46 81.38 46.41 81.38 45.02 85.3C43.9054 88.1695 43.3357 91.2216 43.34 94.3L55.93 94.26ZM90.66 94.26H103.31C103.222 90.9533 102.545 87.6888 101.31 84.62C100 81.37 100 81.38 96.61 81.4H89.08C89.62 85.83 90.14 90 90.66 94.23V94.26ZM71.81 81.41C68.25 81.41 64.81 81.41 61.42 81.41C61.1 81.41 60.61 81.99 60.51 82.41C60.1123 83.8268 59.8182 85.2706 59.63 86.73C59.33 89.21 59.15 91.73 58.92 94.23H71.81V81.41ZM74.81 110.09C78.37 110.09 81.73 110.09 85.09 110.09C85.42 110.09 85.98 109.75 86.02 109.5C86.7 105.5 87.31 101.5 87.95 97.33H74.79L74.81 110.09ZM57.54 110.09L55.94 97.27H43.3C43.4341 101.512 44.5246 105.669 46.49 109.43C46.5697 109.582 46.6817 109.714 46.8183 109.818C46.9548 109.922 47.1124 109.994 47.28 110.03C50.69 110.08 54.09 110.06 57.52 110.06L57.54 110.09ZM90.68 97.23C90.13 101.56 89.61 105.72 89.06 110.08C92.42 110.08 95.83 110.08 99.24 110.08C99.3892 110.069 99.5341 110.025 99.6639 109.95C99.7937 109.876 99.9051 109.773 99.99 109.65C102.028 105.824 103.164 101.582 103.31 97.25L90.68 97.23ZM58.68 97.34C59.28 101.34 59.83 105.09 60.47 108.86C60.54 109.3 61.07 110.01 61.4 110.02C64.85 110.1 68.3 110.02 71.75 110.02V97.16H59.85C59.4603 97.1989 59.0731 97.2589 58.69 97.34H58.68ZM74.76 78.34H84.76C83.4 72.53 78.24 65.74 74.76 65.93V78.34ZM61.55 78.34H71.77V65.62C65.87 68 63.74 73 61.56 78.41L61.55 78.34ZM74.8 125.58C78.5 125.41 83.42 118.99 84.8 113.09H74.8V125.58ZM71.8 125.58C71.8 121.58 71.8 117.69 71.8 113.74C71.7815 113.514 71.7447 113.29 71.69 113.07H61.81C62.84 118.71 67.81 124.91 71.84 125.59L71.8 125.58ZM82.1 67C84.6055 70.1965 86.5159 73.8174 87.74 77.69C87.85 78.01 88.27 78.44 88.56 78.44C91.56 78.5 94.63 78.44 97.97 78.44C94.154 72.9141 88.5488 68.8736 82.1 67ZM48.59 78.51C51.93 78.51 54.87 78.51 57.8 78.51C58.0105 78.4816 58.2111 78.4033 58.385 78.2815C58.559 78.1597 58.7013 77.998 58.8 77.81C60.0938 73.7857 62.1551 70.0501 64.87 66.81C58.2817 68.7677 52.5461 72.8897 48.59 78.51ZM64.44 124.41C62.0276 121.269 60.1491 117.752 58.88 114C58.7537 113.754 58.571 113.542 58.3467 113.38C58.1225 113.218 57.8632 113.112 57.59 113.07C55.12 112.98 52.65 113.07 50.18 113.07C49.75 113.07 49.33 113.14 48.71 113.2C52.5281 118.615 58.0758 122.568 64.44 124.41ZM98 113C95 113 92.29 113.06 89.62 113C89.1414 112.929 88.6534 113.039 88.252 113.309C87.8505 113.579 87.5645 113.99 87.45 114.46C86.29 117.15 84.9 119.75 83.58 122.37C83.3598 122.725 83.1088 123.059 82.83 123.37C82.59 123.7 82.36 124.05 81.93 124.69C88.4315 122.677 94.0826 118.566 98 113Z" fill="#202067"/>
<path d="M14.65 34.73L9.80001 18.08L8.89001 15.08V13.26H15.89L19.08 28H19.69L22 13.26H31.19L32.95 24.45L33.39 28H34L37.15 13.26H44.07V15.08L43.16 18.08L38.34 34.73H29.34L26.78 19.81H26.15L25.63 23.17L23.75 34.73H14.65Z" fill="#202067"/>
<path d="M56.65 35C55.3492 34.9972 54.0534 34.8395 52.79 34.53C51.5113 34.2245 50.3117 33.652 49.27 32.85C48.1449 31.9617 47.264 30.8021 46.71 29.48C45.9915 27.731 45.6507 25.8499 45.71 23.96C45.6528 22.0702 45.9935 20.1896 46.71 18.44C47.267 17.1224 48.1475 15.9667 49.27 15.08C50.3135 14.2788 51.5122 13.7032 52.79 13.39C54.0567 13.1074 55.3524 12.9765 56.65 13C57.9552 13.004 59.255 13.1685 60.52 13.49C61.7796 13.799 62.9635 14.3603 64 15.14C65.1343 16.0246 66.0283 17.18 66.6 18.5C67.3149 20.2395 67.6556 22.1101 67.6 23.99C67.6577 25.87 67.3169 27.741 66.6 29.48C66.0313 30.8045 65.1369 31.9638 64 32.85C62.9535 33.6485 61.7561 34.2268 60.48 34.55C59.2263 34.8548 57.9402 35.0059 56.65 35ZM56.65 28.94C57.2088 28.9852 57.7704 28.9004 58.2909 28.6922C58.8114 28.484 59.2766 28.1581 59.65 27.74C60.4085 26.6327 60.7617 25.2975 60.65 23.96C60.7579 22.6291 60.4048 21.3015 59.65 20.2C59.279 19.7782 58.8145 19.4492 58.2936 19.2391C57.7726 19.029 57.2098 18.9437 56.65 18.99C54.0233 18.99 52.71 20.6567 52.71 23.99C52.6078 25.3204 52.9604 26.6461 53.71 27.75C54.0693 28.1724 54.5221 28.5052 55.0324 28.7222C55.5427 28.9392 56.0965 29.0343 56.65 29V28.94Z" fill="#202067"/>
<path d="M71.66 34.73V18.14L71.06 15.08L71.66 13.26H82.58C84.0267 13.2216 85.4651 13.4909 86.8 14.05C87.9602 14.5637 88.912 15.4556 89.5 16.58C90.1821 18.0107 90.5048 19.5863 90.44 21.17C90.493 22.6658 90.1915 24.153 89.56 25.51C88.9939 26.614 88.0996 27.5154 87 28.09L87.51 28.51L89.61 31.36L91.33 32.91V34.73H83.33L79.99 29.18H78.39V29.85L78.69 32.85L78.39 34.7L71.66 34.73ZM78.34 23.51H80.09C80.7045 23.5148 81.3189 23.4848 81.93 23.42C82.387 23.3861 82.8149 23.1828 83.13 22.85C83.4503 22.4075 83.5995 21.864 83.55 21.32C83.6027 20.7494 83.4425 20.1795 83.1 19.72C82.7641 19.3789 82.3171 19.1695 81.84 19.13C81.23 19.0479 80.6155 19.0045 80 19H78L78.34 23.51Z" fill="#202067"/>
<path d="M94.68 34.73L94.07 32.91L94.68 29.91V13.26H101.35V24.81L101.05 28.97H101.66L107.08 28.66L109.24 28.36L111.91 32.79L110.42 34.73H94.68Z" fill="#202067"/>
<path d="M115 34.73V18.14L114.39 15.14L115 13.29H125.28C126.68 13.2837 128.078 13.4211 129.45 13.7C130.724 13.9495 131.933 14.4602 133 15.2C134.117 16.0229 134.991 17.1319 135.53 18.41C136.218 20.1348 136.538 21.9843 136.47 23.84C136.533 25.7093 136.21 27.5715 135.52 29.31C134.982 30.6191 134.114 31.7664 133 32.64C131.922 33.4274 130.693 33.9824 129.39 34.27C128.039 34.5804 126.656 34.7347 125.27 34.73H115ZM121.7 29H124C125.015 29.0196 126.026 28.8848 127 28.6C127.794 28.3603 128.464 27.8227 128.87 27.1C129.352 26.0943 129.572 24.9834 129.51 23.87C129.585 22.7728 129.356 21.6762 128.85 20.7C128.646 20.3629 128.378 20.0694 128.06 19.836C127.743 19.6027 127.383 19.4341 127 19.34C126.017 19.1089 125.009 19.0014 124 19.02H121.7V29Z" fill="#202067"/>
<path d="M132 160.65L136.85 177.29L137.76 180.29V182.11H130.76L127.6 167.37H127L124.72 182.11H115.53L113.77 170.92L113.29 167.37H112.68L109.53 182.11H102.62V180.3L103.52 177.3L108.35 160.66H117.35L119.87 175.57H120.51L121.02 172.21L122.9 160.66L132 160.65Z" fill="#202067"/>
<path d="M90 160.34C91.304 160.343 92.6031 160.501 93.87 160.81C95.1418 161.126 96.3361 161.698 97.38 162.49C98.5059 163.38 99.3897 164.539 99.95 165.86C101.234 169.414 101.234 173.306 99.95 176.86C99.3897 178.181 98.5059 179.34 97.38 180.23C96.3403 181.061 95.1376 181.664 93.85 182C92.5831 182.309 91.284 182.467 89.98 182.47C88.6745 182.47 87.3743 182.305 86.11 181.98C84.8375 181.66 83.6434 181.085 82.6 180.29C81.4564 179.39 80.5615 178.213 80 176.87C78.7 173.319 78.7 169.421 80 165.87C80.5603 164.549 81.4441 163.39 82.57 162.5C83.6134 161.705 84.8075 161.13 86.08 160.81C87.3614 160.487 88.6787 160.329 90 160.34ZM90 166.41C89.4424 166.367 88.8824 166.452 88.3626 166.659C87.8427 166.865 87.3767 167.187 87 167.6C86.345 168.749 86.0005 170.048 86.0005 171.37C86.0005 172.692 86.345 173.991 87 175.14C87.3724 175.56 87.8372 175.888 88.3577 176.098C88.8783 176.308 89.4404 176.394 90 176.35C92.63 176.35 93.94 174.7 93.94 171.35C94.0335 170.02 93.6817 168.697 92.94 167.59C92.5733 167.181 92.1174 166.862 91.6076 166.657C91.0978 166.452 90.5477 166.368 90 166.41Z" fill="#202067"/>
<path d="M75 160.65V177.23L75.61 180.3L75 182.12H64.05C62.6068 182.155 61.1725 181.885 59.84 181.33C58.6802 180.816 57.7286 179.924 57.14 178.8C56.4543 177.367 56.1315 175.787 56.2 174.2C56.1431 172.704 56.4449 171.216 57.08 169.86C57.6406 168.748 58.5456 167.846 59.66 167.29L59.14 166.86L57.05 164L55.32 162.45V160.64H63.32L66.66 166.18H68.3V165.52L67.99 162.52L68.3 160.68L75 160.65ZM68.3 171.87H66.54C65.9255 171.865 65.3111 171.895 64.7 171.96C64.2466 171.989 63.8212 172.189 63.51 172.52C63.181 172.959 63.0277 173.504 63.08 174.05C63.0246 174.626 63.1889 175.201 63.54 175.66C63.8759 176.001 64.3229 176.21 64.8 176.25C65.4172 176.323 66.0385 176.357 66.66 176.35H68.6L68.3 171.87Z" fill="#202067"/>
<path d="M52 160.65L52.61 162.46L52 165.46V182.08H45.28V170.56L45.58 166.41H45L39.57 166.71L37.42 167.01L34.75 162.59L36.23 160.65H52Z" fill="#202067"/>
<path d="M31.66 160.65V177.23L32.27 180.23L31.66 182.08H21.38C19.9799 182.081 18.583 181.944 17.21 181.67C15.9158 181.409 14.6878 180.888 13.6 180.14C12.494 179.335 11.6211 178.252 11.07 177C9.80349 173.477 9.80349 169.623 11.07 166.1C11.613 164.785 12.4967 163.639 13.63 162.78C14.7046 161.986 15.9347 161.427 17.24 161.14C18.5924 160.838 19.9742 160.687 21.36 160.69L31.66 160.65ZM24.93 166.41H22.63C21.6161 166.388 20.6046 166.52 19.63 166.8C18.8363 167.04 18.1662 167.577 17.76 168.3C17.2835 169.307 17.0669 170.418 17.13 171.53C17.0548 172.626 17.2795 173.722 17.78 174.7C18.2112 175.355 18.8767 175.82 19.64 176C20.6233 176.227 21.631 176.331 22.64 176.31H24.94L24.93 166.41Z" fill="#202067"/>
<path d="M38.48 71L38.37 71.35H38.17C38.0933 71.361 38.019 71.3846 37.95 71.42C37.869 71.4706 37.8007 71.539 37.75 71.62C37.6669 71.7332 37.6214 71.8696 37.62 72.01C37.6141 72.0652 37.6242 72.1209 37.649 72.1705C37.6738 72.2201 37.7123 72.2616 37.76 72.29C37.7988 72.3094 37.8416 72.3194 37.885 72.3194C37.9284 72.3194 37.9712 72.3094 38.01 72.29C38.1242 72.2419 38.2292 72.1743 38.32 72.09L38.61 71.83C38.7445 71.6862 38.9184 71.5853 39.11 71.54C39.1901 71.5262 39.2722 71.5288 39.3513 71.5477C39.4304 71.5667 39.5048 71.6014 39.57 71.65C39.6903 71.7287 39.7816 71.8446 39.83 71.98C39.8714 72.1271 39.8714 72.2828 39.83 72.43C39.7934 72.6074 39.7183 72.7747 39.61 72.92C39.4933 73.1152 39.3185 73.2691 39.11 73.36C39.0155 73.4019 38.9133 73.4235 38.81 73.4235C38.7067 73.4235 38.6045 73.4019 38.51 73.36L38.64 73C38.6971 73.0236 38.7582 73.0358 38.82 73.0358C38.8818 73.0358 38.9429 73.0236 39 73C39.1291 72.9498 39.2381 72.8584 39.31 72.74C39.4079 72.6181 39.4609 72.4663 39.46 72.31C39.4642 72.2522 39.4535 72.1943 39.429 72.1418C39.4045 72.0893 39.367 72.0439 39.32 72.01C39.2858 71.9852 39.2467 71.968 39.2053 71.9593C39.164 71.9507 39.1213 71.9509 39.08 71.96C38.9744 71.9881 38.8779 72.0433 38.8 72.12L38.48 72.42C38.3428 72.5655 38.1652 72.6665 37.97 72.71C37.8071 72.7285 37.6431 72.6857 37.51 72.59C37.3926 72.515 37.3043 72.4021 37.26 72.27C37.2194 72.1329 37.2194 71.987 37.26 71.85C37.2911 71.6852 37.3557 71.5286 37.45 71.39C37.5632 71.2088 37.7314 71.0686 37.93 70.99C38.1099 70.9358 38.3022 70.9393 38.48 71Z" fill="#202067"/>
<path d="M41.07 71C40.9754 71.1206 40.8561 71.2195 40.72 71.29C40.5951 71.3595 40.4525 71.3908 40.31 71.38C40.16 71.3631 40.0179 71.3042 39.9 71.21C39.8006 71.1337 39.7216 71.0341 39.67 70.92C39.6453 70.8147 39.6453 70.7052 39.67 70.6C39.693 70.4859 39.7299 70.3751 39.78 70.27C39.8306 70.1602 39.8874 70.0534 39.95 69.95C40.0105 69.8364 40.0773 69.7262 40.15 69.62C40.1932 69.5612 40.2207 69.4924 40.23 69.42C40.2346 69.3933 40.2313 69.366 40.2207 69.3411C40.21 69.3163 40.1924 69.295 40.17 69.28C40.0612 69.1888 39.9218 69.1423 39.78 69.15C39.6335 69.1806 39.5045 69.2665 39.42 69.39C39.3188 69.5115 39.2593 69.6622 39.25 69.82C39.2448 69.9374 39.2689 70.0542 39.32 70.16L38.98 70.37C38.9037 70.2394 38.8624 70.0913 38.86 69.94C38.8556 69.799 38.8829 69.6589 38.94 69.53C38.9885 69.4069 39.056 69.2922 39.14 69.19C39.1961 69.1106 39.2635 69.0399 39.34 68.98C39.4219 68.9063 39.5168 68.8486 39.62 68.81C39.7441 68.7739 39.8759 68.7739 40 68.81C40.1603 68.8521 40.3101 68.9271 40.44 69.03L41.79 70.03L41.54 70.34L41.27 70.13C41.303 70.1991 41.3233 70.2736 41.33 70.35C41.3541 70.4485 41.3541 70.5514 41.33 70.65C41.2669 70.7824 41.1786 70.9013 41.07 71ZM40.82 70.73C40.9116 70.6247 40.9737 70.4971 41 70.36C41.0281 70.2416 41.0281 70.1183 41 70C40.9567 69.9032 40.8917 69.8176 40.81 69.75L40.52 69.53C40.52 69.53 40.52 69.59 40.52 69.65L40.43 69.82L40.32 70.01L40.24 70.16C40.1848 70.2402 40.1411 70.3277 40.11 70.42C40.0915 70.5023 40.0915 70.5877 40.11 70.67C40.1315 70.7566 40.1806 70.8338 40.25 70.89C40.2966 70.9285 40.3525 70.9543 40.4121 70.9648C40.4717 70.9753 40.533 70.9702 40.59 70.95C40.6907 70.8925 40.7711 70.8051 40.82 70.7V70.73Z" fill="#202067"/>
<path d="M41.64 66.19L42.94 68.61L42.67 68.91L40.11 67.91L40.4 67.59L42.4 68.42L41.34 66.52L41.64 66.19Z" fill="#202067"/>
<path d="M42 65.23C41.9748 65.2582 41.944 65.2807 41.9096 65.2962C41.8751 65.3117 41.8378 65.3198 41.8 65.32C41.7652 65.3222 41.7303 65.3172 41.6976 65.3051C41.6649 65.293 41.635 65.2743 41.61 65.25C41.5832 65.2243 41.5621 65.1932 41.5483 65.1587C41.5345 65.1242 41.5283 65.0871 41.53 65.05C41.5305 64.9786 41.5593 64.9103 41.61 64.86C41.6343 64.8308 41.665 64.8075 41.6996 64.7919C41.7343 64.7763 41.772 64.7688 41.81 64.77C41.8448 64.7684 41.8795 64.7737 41.9121 64.7857C41.9447 64.7978 41.9746 64.8162 42 64.84C42.0508 64.8903 42.0795 64.9586 42.08 65.03C42.0805 65.067 42.0737 65.1037 42.06 65.138C42.0463 65.1723 42.0259 65.2036 42 65.23ZM44 67.47L42.15 65.68L42.43 65.39L44.28 67.19L44 67.47Z" fill="#202067"/>
<path d="M44 65.23L45.06 66.37L44.77 66.64L43.01 64.75L43.29 64.49L43.57 64.79C43.5297 64.6563 43.5297 64.5137 43.57 64.38C43.6102 64.2161 43.7012 64.0691 43.83 63.96C43.9439 63.8484 44.0854 63.769 44.24 63.73C44.3825 63.6805 44.5375 63.6805 44.68 63.73C44.8552 63.7959 45.0103 63.9061 45.13 64.05L46.25 65.25L45.96 65.52L44.86 64.34C44.807 64.272 44.7406 64.2156 44.6649 64.1744C44.5892 64.1331 44.5059 64.1078 44.42 64.1C44.3406 64.0979 44.2616 64.1119 44.1877 64.1411C44.1138 64.1703 44.0465 64.2142 43.99 64.27C43.9055 64.351 43.8405 64.4501 43.8 64.56C43.7698 64.6713 43.7698 64.7887 43.8 64.9C43.8376 65.0252 43.9064 65.1388 44 65.23Z" fill="#202067"/>
<path d="M48.34 64.88C48.2103 64.9849 48.0653 65.0692 47.91 65.13C47.785 65.1757 47.6531 65.1994 47.52 65.2C47.4076 65.1964 47.2964 65.1762 47.19 65.14L47.3 64.77H47.51C47.599 64.7892 47.691 64.7892 47.78 64.77C47.9045 64.7341 48.0203 64.6728 48.12 64.59C48.268 64.4783 48.3738 64.3196 48.42 64.14C48.4388 64.0531 48.4359 63.9629 48.4114 63.8775C48.387 63.792 48.3419 63.7139 48.28 63.65L48 63.26C48 63.32 48 63.39 48 63.48C47.9972 63.5762 47.9769 63.6711 47.94 63.76C47.8787 63.885 47.7898 63.9944 47.68 64.08C47.5298 64.2072 47.3455 64.2872 47.15 64.31C46.952 64.3387 46.75 64.3074 46.57 64.22C46.348 64.1296 46.1521 63.9853 46 63.8C45.8463 63.6198 45.7336 63.4082 45.67 63.18C45.6149 62.9838 45.6149 62.7762 45.67 62.58C45.7356 62.3883 45.8533 62.2186 46.01 62.09C46.1174 61.9996 46.2439 61.9346 46.38 61.9C46.476 61.8845 46.574 61.8845 46.67 61.9L46.88 61.95L46.62 61.63L46.92 61.39L48.59 63.45C48.7185 63.5945 48.7958 63.7772 48.81 63.97C48.8193 64.1416 48.7775 64.3121 48.69 64.46C48.5978 64.6187 48.4795 64.7607 48.34 64.88ZM47.43 63.78C47.5471 63.7002 47.6349 63.5843 47.68 63.45C47.7201 63.3197 47.7201 63.1803 47.68 63.05C47.5636 62.7322 47.3457 62.4616 47.06 62.28C46.9388 62.2095 46.8001 62.1748 46.66 62.18C46.5125 62.1871 46.3717 62.2434 46.26 62.34C46.1387 62.4267 46.0533 62.5547 46.02 62.7C45.9802 62.8406 45.9802 62.9894 46.02 63.13C46.0771 63.2799 46.1545 63.4212 46.25 63.55C46.3529 63.6755 46.4784 63.7807 46.62 63.86C46.7407 63.9316 46.8798 63.9664 47.02 63.96C47.1735 63.9496 47.3185 63.886 47.43 63.78Z" fill="#202067"/>
<path d="M48.71 59.35L49.04 59.13L50.41 61.13C50.4538 61.2043 50.5157 61.2662 50.59 61.31C50.6423 61.3245 50.6976 61.3245 50.75 61.31L50.91 61.24L50.99 61.17L51.25 61.42L51.18 61.51L51.04 61.62C50.9422 61.6805 50.8335 61.7213 50.72 61.74C50.6086 61.7697 50.4914 61.7697 50.38 61.74C50.2576 61.6832 50.1537 61.5931 50.08 61.48L48.71 59.35ZM49.84 59.35L50.03 59.63L48.92 60.37L48.73 60.09L49.84 59.35Z" fill="#202067"/>
<path d="M51.42 59.56L52.21 60.9L51.86 61.1L50.13 58.1L50.47 57.9L51.11 59C51.0959 58.8552 51.1237 58.7095 51.19 58.58C51.2736 58.4334 51.3989 58.3151 51.55 58.24C51.6867 58.1581 51.841 58.1101 52 58.1C52.1515 58.101 52.2999 58.1424 52.43 58.22C52.5826 58.3312 52.7089 58.4746 52.8 58.64L53.63 60.06L53.29 60.26L52.47 58.87C52.3914 58.7123 52.2554 58.5906 52.09 58.53C52.0119 58.5119 51.9309 58.5097 51.8519 58.5234C51.7729 58.5372 51.6974 58.5666 51.63 58.61C51.525 58.6719 51.4359 58.7575 51.37 58.86C51.3101 58.9596 51.279 59.0738 51.28 59.19C51.295 59.3231 51.3431 59.4503 51.42 59.56Z" fill="#202067"/>
<path d="M55.3 59.27C55.1 59.374 54.8746 59.4191 54.65 59.4C54.4406 59.3851 54.2411 59.3046 54.08 59.17C53.8953 59.0185 53.7447 58.8297 53.6379 58.6161C53.531 58.4024 53.4704 58.1686 53.46 57.93C53.4513 57.7166 53.5034 57.5051 53.61 57.32C53.7173 57.133 53.8822 56.9857 54.08 56.9C54.2027 56.8392 54.3344 56.7987 54.47 56.78C54.6052 56.7517 54.7448 56.7517 54.88 56.78C55.0322 56.8346 55.1717 56.9197 55.29 57.03C55.4419 57.1713 55.5642 57.3412 55.65 57.53L55.72 57.68L53.94 58.56L53.79 58.26L55.21 57.55C55.1483 57.4309 55.0633 57.3255 54.96 57.24C54.8573 57.1644 54.7356 57.1188 54.6085 57.1082C54.4814 57.0976 54.3538 57.1225 54.24 57.18C54.1072 57.2432 53.9959 57.344 53.92 57.47C53.8566 57.5904 53.8224 57.724 53.82 57.86C53.8187 57.9997 53.8531 58.1374 53.92 58.26L54.02 58.46C54.0905 58.6158 54.1967 58.7528 54.33 58.86C54.4426 58.9469 54.5782 58.9991 54.72 59.01C54.8656 59.0188 55.0108 58.9877 55.14 58.92C55.2306 58.88 55.3122 58.8222 55.38 58.75C55.4417 58.6892 55.4865 58.6134 55.51 58.53C55.53 58.4445 55.53 58.3555 55.51 58.27L55.9 58.2C55.9399 58.3269 55.9399 58.4631 55.9 58.59C55.8561 58.7234 55.7845 58.8461 55.69 58.95C55.5818 59.0807 55.4494 59.1894 55.3 59.27Z" fill="#202067"/>
<path d="M58.66 57.72L57.05 55.56L57.45 55.42L58.64 57.09L58.49 55.09L58.89 54.95L60.07 56.62L59.93 54.62L60.33 54.48L60.46 57.17L60.09 57.3L58.89 55.63L59 57.59L58.66 57.72Z" fill="#202067"/>
<path d="M62.73 56.46C62.5209 56.52 62.2991 56.52 62.09 56.46C61.8912 56.3973 61.7144 56.2794 61.58 56.12C61.4216 55.9353 61.3086 55.7162 61.25 55.48C61.1963 55.243 61.1963 54.997 61.25 54.76C61.2873 54.5532 61.3847 54.3619 61.53 54.21C61.6736 54.0513 61.8618 53.9397 62.07 53.89C62.2791 53.83 62.5009 53.83 62.71 53.89C62.9114 53.9472 63.0898 54.0661 63.22 54.23C63.3784 54.4147 63.4914 54.6339 63.55 54.87C63.6037 55.107 63.6037 55.353 63.55 55.59C63.5105 55.7961 63.4134 55.9868 63.27 56.14C63.1238 56.2955 62.9366 56.4065 62.73 56.46ZM62.63 56.12C62.784 56.0819 62.9211 55.994 63.02 55.87C63.1107 55.7518 63.163 55.6088 63.17 55.46C63.1998 55.3014 63.1998 55.1386 63.17 54.98C63.1246 54.8197 63.0537 54.6678 62.96 54.53C62.8763 54.4056 62.7582 54.3082 62.62 54.25C62.4753 54.1937 62.3147 54.1937 62.17 54.25C62.016 54.2881 61.8789 54.376 61.78 54.5C61.6876 54.6172 61.635 54.7609 61.63 54.91C61.6056 55.0724 61.6056 55.2376 61.63 55.4C61.6775 55.5564 61.7483 55.7047 61.84 55.84C61.9237 55.9645 62.0418 56.0618 62.18 56.12C62.3257 56.1711 62.4843 56.1711 62.63 56.12Z" fill="#202067"/>
<path d="M64.48 56L64 53.45L64.37 53.37L64.45 53.75C64.4704 53.6169 64.5336 53.494 64.63 53.4C64.7379 53.297 64.8734 53.2275 65.02 53.2H65.12H65.22L65.3 53.6H65.2H65.05C64.9358 53.6174 64.8285 53.6658 64.74 53.74C64.654 53.8054 64.5909 53.8965 64.56 54C64.5249 54.1038 64.5249 54.2162 64.56 54.32L64.89 55.92L64.48 56Z" fill="#202067"/>
<path d="M66.09 52.16L66.66 55.55L66.27 55.62L65.7 52.23L66.09 52.16Z" fill="#202067"/>
<path d="M68.42 55.36C68.221 55.3856 68.0189 55.3507 67.84 55.26C67.6596 55.1648 67.5077 55.0233 67.4 54.85C67.2752 54.6397 67.2 54.4037 67.18 54.16C67.1476 53.9185 67.168 53.6728 67.24 53.44C67.2963 53.2435 67.4115 53.069 67.57 52.94C67.7257 52.8092 67.9176 52.729 68.12 52.71C68.2506 52.6717 68.3894 52.6717 68.52 52.71C68.616 52.7403 68.7023 52.7955 68.77 52.87L68.91 53.02L68.8 51.8H69.19L69.59 55.22H69.21V54.83C69.21 54.83 69.15 54.95 69.1 55.03C69.0472 55.112 68.9794 55.1833 68.9 55.24C68.7562 55.3285 68.5885 55.3704 68.42 55.36ZM68.42 55C68.5645 54.9852 68.7008 54.9257 68.81 54.83C68.9146 54.7258 68.9874 54.594 69.02 54.45C69.0562 54.2785 69.0562 54.1014 69.02 53.93C69.0035 53.7595 68.956 53.5935 68.88 53.44C68.817 53.3128 68.7201 53.2055 68.6 53.13C68.4718 53.0602 68.3239 53.0355 68.18 53.06C68.032 53.0728 67.8919 53.1323 67.78 53.23C67.6775 53.3358 67.605 53.4669 67.57 53.61C67.5393 53.7752 67.5393 53.9447 67.57 54.11C67.5879 54.277 67.6353 54.4395 67.71 54.59C67.7796 54.7242 67.883 54.8379 68.01 54.92C68.137 54.9933 68.285 55.0214 68.43 55H68.42Z" fill="#202067"/>
<path d="M71.79 55V52.42H72.17V52.83C72.2222 52.6965 72.3172 52.584 72.44 52.51C72.5707 52.435 72.7193 52.397 72.87 52.4C73.0197 52.4016 73.1656 52.4468 73.29 52.53C73.4068 52.6082 73.4974 52.7197 73.55 52.85C73.6175 52.7195 73.7218 52.6117 73.85 52.54C73.9952 52.4556 74.1626 52.4173 74.33 52.43C74.4333 52.4272 74.5362 52.4453 74.6324 52.483C74.7286 52.5208 74.8162 52.5776 74.89 52.65C74.971 52.7421 75.0315 52.8504 75.0677 52.9676C75.1039 53.0847 75.1149 53.2083 75.1 53.33V55.05H74.71V53.32C74.7213 53.2455 74.7144 53.1693 74.6901 53.0979C74.6657 53.0266 74.6245 52.9621 74.57 52.91C74.464 52.8278 74.3342 52.7822 74.2 52.78C74.1226 52.775 74.045 52.7866 73.9726 52.8142C73.9001 52.8418 73.8344 52.8847 73.78 52.94C73.7255 52.9929 73.683 53.0569 73.6554 53.1276C73.6278 53.1984 73.6158 53.2742 73.62 53.35V55.03H73.22V53.26C73.2215 53.1952 73.2099 53.1308 73.1858 53.0707C73.1617 53.0105 73.1258 52.9559 73.08 52.91C73.0326 52.8635 72.9763 52.8271 72.9144 52.803C72.8525 52.779 72.7864 52.7677 72.72 52.77C72.6184 52.7619 72.5168 52.7865 72.43 52.84C72.3357 52.9001 72.258 52.9828 72.2038 53.0806C72.1497 53.1784 72.1209 53.2882 72.12 53.4V55.01L71.79 55Z" fill="#202067"/>
<path d="M77 55.23C76.773 55.22 76.5539 55.1435 76.37 55.01C76.1967 54.8869 76.067 54.7118 76 54.51C75.9173 54.2865 75.8865 54.0471 75.91 53.81C75.9343 53.5685 76.0057 53.3341 76.12 53.12C76.2255 52.9363 76.3817 52.787 76.57 52.69C76.7599 52.5885 76.976 52.5467 77.19 52.57C77.3241 52.5844 77.4555 52.618 77.58 52.67C77.7098 52.7282 77.8257 52.8134 77.92 52.92C78.0208 53.0438 78.0956 53.1867 78.14 53.34C78.1772 53.5416 78.1772 53.7484 78.14 53.95V54.12L76.14 53.95V53.6L77.72 53.74C77.7393 53.6079 77.722 53.473 77.67 53.35C77.6263 53.2341 77.5499 53.1333 77.45 53.06C77.3464 52.9804 77.2206 52.9349 77.09 52.93C76.945 52.9085 76.797 52.9367 76.67 53.01C76.5483 53.0734 76.4476 53.1706 76.38 53.29C76.3101 53.4096 76.2659 53.5424 76.25 53.68V53.9C76.2364 54.069 76.2568 54.239 76.31 54.4C76.3642 54.5348 76.4541 54.6524 76.57 54.74C76.6927 54.8205 76.8337 54.8687 76.98 54.88C77.0727 54.8957 77.1673 54.8957 77.26 54.88C77.3466 54.8629 77.4264 54.8212 77.49 54.76C77.5615 54.706 77.6169 54.6333 77.65 54.55L78.03 54.69C77.977 54.8173 77.8948 54.9303 77.79 55.02C77.6813 55.1086 77.5553 55.1733 77.42 55.21C77.2823 55.2413 77.1401 55.2481 77 55.23Z" fill="#202067"/>
<path d="M79.46 55.53C79.3053 55.5147 79.1571 55.4596 79.03 55.37C78.9125 55.2942 78.8189 55.1868 78.76 55.06C78.6975 54.9222 78.68 54.7683 78.71 54.62C78.7238 54.4927 78.7722 54.3717 78.85 54.27C78.9231 54.1878 79.016 54.1258 79.12 54.09C79.2276 54.0586 79.3382 54.0385 79.45 54.03H80.2C80.2723 54.0474 80.3477 54.0474 80.42 54.03C80.4456 54.0217 80.468 54.0058 80.4841 53.9843C80.5002 53.9628 80.5092 53.9368 80.51 53.91C80.5264 53.8421 80.5286 53.7715 80.5165 53.7027C80.5045 53.6339 80.4785 53.5683 80.44 53.51C80.3937 53.4524 80.3361 53.405 80.2707 53.3706C80.2054 53.3362 80.1337 53.3156 80.06 53.31C79.9105 53.2618 79.7496 53.2618 79.6 53.31C79.4935 53.3649 79.4012 53.4436 79.33 53.54L79 53.37C79.0746 53.2354 79.1854 53.1245 79.32 53.05C79.4444 52.9829 79.5799 52.9388 79.72 52.92C79.8529 52.9049 79.9871 52.9049 80.12 52.92C80.2147 52.9374 80.3083 52.9608 80.4 52.99C80.5041 53.033 80.6017 53.0902 80.69 53.16C80.7844 53.2426 80.8537 53.35 80.89 53.47C80.9324 53.634 80.9324 53.806 80.89 53.97L80.62 55.65L80.23 55.59L80.29 55.24L80.13 55.4C80.0434 55.4541 79.9489 55.4945 79.85 55.52C79.7228 55.5551 79.5889 55.5585 79.46 55.53ZM79.57 55.19C79.6942 55.2176 79.8235 55.2117 79.9447 55.1731C80.0659 55.1344 80.1747 55.0644 80.26 54.97C80.3275 54.8823 80.3721 54.7792 80.39 54.67V54.32C80.3538 54.3285 80.3162 54.3285 80.28 54.32H79.69C79.5939 54.3048 79.4961 54.3048 79.4 54.32C79.3162 54.3269 79.2362 54.3582 79.17 54.41C79.1346 54.4374 79.1055 54.4721 79.0848 54.5118C79.0641 54.5515 79.0522 54.5953 79.05 54.64C79.0377 54.699 79.0405 54.7601 79.0579 54.8178C79.0754 54.8754 79.1071 54.9278 79.15 54.97C79.2602 55.09 79.4087 55.1678 79.57 55.19Z" fill="#202067"/>
<path d="M82.13 54.38L81.78 55.89L81.39 55.8L82 53.29L82.37 53.37L82.28 53.77C82.3708 53.6597 82.4877 53.5738 82.62 53.52C82.7801 53.4742 82.9499 53.4742 83.11 53.52C83.2682 53.5542 83.4158 53.6262 83.54 53.73C83.6506 53.8311 83.7274 53.9638 83.76 54.11C83.805 54.294 83.805 54.486 83.76 54.67L83.39 56.26L83 56.17L83.36 54.6C83.418 54.4384 83.418 54.2616 83.36 54.1C83.3182 54.0306 83.2615 53.9713 83.1941 53.9264C83.1267 53.8814 83.0502 53.8519 82.97 53.84C82.8587 53.8098 82.7413 53.8098 82.63 53.84C82.5177 53.8701 82.4168 53.9327 82.34 54.02C82.2374 54.1178 82.1646 54.2426 82.13 54.38Z" fill="#202067"/>
<path d="M86.43 55.05H86.06C86.0694 54.9837 86.0694 54.9163 86.06 54.85C86.0268 54.7833 85.9829 54.7225 85.93 54.67C85.8558 54.6053 85.7663 54.5606 85.67 54.54C85.537 54.495 85.393 54.495 85.26 54.54C85.2066 54.5551 85.1577 54.5831 85.1177 54.6214C85.0776 54.6598 85.0475 54.7074 85.03 54.76C84.989 54.833 84.9782 54.9192 85 55C85.0785 55.0931 85.1734 55.171 85.28 55.23L85.62 55.43C85.795 55.5162 85.941 55.6518 86.04 55.82C86.0725 55.8959 86.0892 55.9775 86.0892 56.06C86.0892 56.1425 86.0725 56.2242 86.04 56.3C86.0008 56.4346 85.9203 56.5535 85.81 56.64C85.6866 56.7296 85.5417 56.7848 85.39 56.8C85.212 56.8381 85.028 56.8381 84.85 56.8C84.6297 56.7418 84.4315 56.6201 84.28 56.45C84.2135 56.3718 84.1633 56.2811 84.1324 56.1832C84.1015 56.0853 84.0905 55.9822 84.1 55.88H84.49C84.4814 56.0094 84.5205 56.1375 84.6 56.24C84.6891 56.3481 84.8127 56.4223 84.95 56.45C85.095 56.5045 85.2549 56.5045 85.4 56.45C85.456 56.4382 85.5078 56.4115 85.5501 56.3728C85.5923 56.3341 85.6233 56.2848 85.64 56.23C85.6601 56.1932 85.6707 56.1519 85.6707 56.11C85.6707 56.0681 85.6601 56.0268 85.64 55.99C85.5841 55.8976 85.5048 55.8217 85.41 55.77L85.02 55.55C84.8435 55.4611 84.6974 55.3219 84.6 55.15C84.5394 54.9992 84.5394 54.8308 84.6 54.68C84.6364 54.5468 84.7176 54.4303 84.83 54.35C84.9451 54.2592 85.084 54.2036 85.23 54.19C85.395 54.1732 85.5618 54.1902 85.72 54.24C85.9273 54.2906 86.1131 54.4063 86.25 54.57C86.3543 54.7097 86.4167 54.8762 86.43 55.05Z" fill="#202067"/>
<path d="M90.29 56.51H89.92C89.9249 56.4434 89.9249 56.3766 89.92 56.31C89.8974 56.2365 89.86 56.1684 89.81 56.11C89.737 56.0421 89.6523 55.9879 89.56 55.95C89.4293 55.9122 89.2907 55.9122 89.16 55.95C89.1048 55.9594 89.0529 55.9827 89.0091 56.0177C88.9654 56.0526 88.9313 56.0982 88.91 56.15C88.8905 56.1906 88.8804 56.235 88.8804 56.28C88.8804 56.325 88.8905 56.3694 88.91 56.41C88.9799 56.512 89.068 56.6002 89.17 56.67L89.49 56.9C89.6538 57.0057 89.7853 57.1545 89.87 57.33C89.9022 57.4042 89.9188 57.4842 89.9188 57.565C89.9188 57.6459 89.9022 57.7258 89.87 57.8C89.8142 57.9314 89.7201 58.0429 89.6 58.12C89.4722 58.2027 89.3222 58.2446 89.17 58.24C88.9915 58.2439 88.8143 58.2098 88.65 58.14C88.4316 58.063 88.2428 57.9196 88.11 57.73C88.0506 57.6471 88.0092 57.5526 87.9885 57.4527C87.9679 57.3528 87.9684 57.2497 87.99 57.15H88.37C88.3515 57.2777 88.3762 57.4079 88.44 57.52C88.5241 57.6306 88.6389 57.714 88.77 57.76C88.91 57.8267 89.0674 57.8476 89.22 57.82C89.2767 57.8113 89.3303 57.7884 89.3757 57.7534C89.4212 57.7185 89.457 57.6726 89.48 57.62C89.4994 57.5812 89.5094 57.5384 89.5094 57.495C89.5094 57.4516 89.4994 57.4088 89.48 57.37C89.4291 57.2746 89.353 57.1951 89.26 57.14L88.9 56.88C88.7355 56.7708 88.6041 56.6186 88.52 56.44C88.4686 56.2977 88.4685 56.142 88.5196 55.9996C88.5707 55.8572 88.6699 55.7371 88.8 55.66C88.9244 55.5862 89.0654 55.5449 89.21 55.54C89.3751 55.5405 89.5384 55.5745 89.69 55.64C89.8931 55.7097 90.0685 55.8429 90.19 56.02C90.267 56.1713 90.3015 56.3406 90.29 56.51Z" fill="#202067"/>
<path d="M90.84 59C90.6984 58.9384 90.5746 58.8421 90.48 58.72C90.3856 58.6139 90.3262 58.4811 90.31 58.34C90.2933 58.1919 90.3212 58.0422 90.39 57.91C90.4396 57.7918 90.5231 57.6909 90.63 57.62C90.7186 57.5605 90.8232 57.5291 90.93 57.53C91.0425 57.5106 91.1575 57.5106 91.27 57.53L91.62 57.63L91.99 57.75C92.0593 57.7643 92.1307 57.7643 92.2 57.75C92.2265 57.7479 92.2518 57.7384 92.2731 57.7224C92.2943 57.7065 92.3106 57.6848 92.32 57.66C92.3718 57.5282 92.3718 57.3818 92.32 57.25C92.26 57.1132 92.1486 57.0055 92.01 56.95C91.8707 56.8702 91.7091 56.8386 91.55 56.86C91.4349 56.8843 91.326 56.9319 91.23 57L91 56.82C91.1185 56.719 91.2589 56.6471 91.41 56.61C91.5455 56.585 91.6845 56.585 91.82 56.61C91.9518 56.6367 92.0795 56.6804 92.2 56.74C92.2859 56.7798 92.3665 56.8302 92.44 56.89C92.5334 56.952 92.612 57.034 92.67 57.13C92.7388 57.2377 92.7769 57.3622 92.78 57.49C92.7836 57.6578 92.7421 57.8236 92.66 57.97L91.92 59.5L91.56 59.33L91.71 59.02C91.6487 59.0631 91.5813 59.0968 91.51 59.12C91.4106 59.1351 91.3094 59.1351 91.21 59.12C91.08 59.1046 90.9543 59.0638 90.84 59ZM91.05 58.71C91.1693 58.7753 91.3042 58.8064 91.44 58.8C91.5577 58.7926 91.6714 58.7547 91.77 58.69C91.86 58.63 91.9325 58.5472 91.98 58.45L92.14 58.12C92.0982 58.1362 92.0518 58.1362 92.01 58.12H91.82L91.61 58H91.46C91.3655 57.9684 91.2685 57.945 91.17 57.93C91.088 57.9093 91.002 57.9093 90.92 57.93C90.8793 57.9461 90.8423 57.9704 90.8113 58.0013C90.7804 58.0323 90.7561 58.0693 90.74 58.11C90.7102 58.1617 90.6944 58.2203 90.6944 58.28C90.6944 58.3397 90.7102 58.3983 90.74 58.45C90.8103 58.5768 90.9188 58.6783 91.05 58.74V58.71Z" fill="#202067"/>
<path d="M95.62 58.6L93.52 60.37L93.17 60.17L93.61 57.46L93.98 57.67L93.59 59.81L95.23 58.38L95.62 58.6Z" fill="#202067"/>
<path d="M94.84 61.16L96.21 59L96.55 59.21L95.17 61.39L94.84 61.16ZM96.61 58.72C96.551 58.6795 96.5084 58.6192 96.49 58.55C96.4754 58.5169 96.4679 58.4812 96.4679 58.445C96.4679 58.4088 96.4754 58.3731 96.49 58.34C96.5081 58.3099 96.5328 58.2843 96.5622 58.2653C96.5917 58.2462 96.6252 58.2341 96.66 58.23C96.6932 58.216 96.7289 58.2087 96.765 58.2087C96.8011 58.2087 96.8368 58.216 96.87 58.23C96.9332 58.2675 96.9791 58.3284 96.9978 58.3995C97.0166 58.4706 97.0066 58.5462 96.97 58.61C96.9498 58.6403 96.9233 58.6659 96.8922 58.6849C96.8611 58.7039 96.8262 58.7159 96.79 58.72C96.7318 58.7406 96.6682 58.7406 96.61 58.72Z" fill="#202067"/>
<path d="M97.07 60.76L96.18 62L95.85 61.77L97.34 59.66L97.65 59.88L97.42 60.21C97.5445 60.1386 97.6866 60.104 97.83 60.11C97.9971 60.1184 98.1576 60.1777 98.29 60.28C98.422 60.3707 98.5314 60.4905 98.61 60.63C98.6701 60.7684 98.6909 60.9206 98.67 61.07C98.6365 61.2546 98.5613 61.429 98.45 61.58L97.45 62.92L97.13 62.69L98.06 61.38C98.1625 61.2419 98.2122 61.0716 98.2 60.9C98.1888 60.8196 98.1595 60.7428 98.1145 60.6753C98.0695 60.6078 98.0099 60.5513 97.94 60.51C97.8487 60.4357 97.7373 60.3904 97.62 60.38C97.5067 60.3708 97.3929 60.3915 97.29 60.44C97.1921 60.5275 97.1167 60.6373 97.07 60.76Z" fill="#202067"/>
<path d="M98.31 64.89C98.176 64.7874 98.0609 64.6622 97.97 64.52C97.9035 64.4087 97.8562 64.287 97.83 64.16C97.8053 64.048 97.8053 63.932 97.83 63.82H98.21C98.2055 63.8899 98.2055 63.9601 98.21 64.03C98.2118 64.1242 98.2358 64.2168 98.28 64.3C98.3439 64.4119 98.4288 64.5103 98.53 64.59C98.6677 64.709 98.8389 64.7824 99.02 64.8C99.1097 64.797 99.1977 64.7738 99.2773 64.7323C99.3569 64.6908 99.4262 64.6319 99.48 64.56L99.81 64.15L99.6 64.21C99.5043 64.2297 99.4057 64.2297 99.31 64.21C99.1755 64.1792 99.0513 64.1137 98.95 64.02C98.7906 63.9045 98.6688 63.7444 98.6 63.56C98.55 63.3699 98.55 63.1701 98.6 62.98C98.6574 62.7484 98.7668 62.533 98.92 62.35C99.0708 62.1642 99.258 62.011 99.47 61.9C99.6518 61.8072 99.8577 61.7723 100.06 61.8C100.259 61.8209 100.447 61.901 100.6 62.03C100.713 62.1128 100.802 62.2229 100.86 62.35C100.898 62.442 100.918 62.5404 100.92 62.64C100.92 62.73 100.92 62.8 100.92 62.85L101.18 62.53L101.47 62.77L99.8 64.83C99.6867 64.985 99.5248 65.0977 99.34 65.15C99.1771 65.2001 99.0029 65.2001 98.84 65.15C98.6484 65.0979 98.4685 65.0096 98.31 64.89ZM99.19 63.78C99.2972 63.8728 99.4294 63.932 99.57 63.95C99.7092 63.9588 99.848 63.9276 99.97 63.86C100.114 63.7799 100.24 63.6709 100.34 63.54C100.449 63.4096 100.534 63.2605 100.59 63.1C100.63 62.9662 100.63 62.8238 100.59 62.69C100.554 62.5512 100.473 62.4281 100.36 62.34C100.245 62.2404 100.101 62.1807 99.95 62.17C99.8057 62.1675 99.6637 62.2056 99.54 62.28C99.4004 62.3663 99.2755 62.4743 99.17 62.6C99.0904 62.7224 99.0329 62.8578 99 63C98.9653 63.1345 98.9653 63.2755 99 63.41C99.0244 63.5497 99.0906 63.6788 99.19 63.78Z" fill="#202067"/>
<path d="M100.91 67.11C100.864 67.0684 100.824 67.0214 100.79 66.97C100.767 66.94 100.75 66.9061 100.74 66.87L101.06 66.7C101.103 66.7745 101.157 66.842 101.22 66.9C101.281 66.9437 101.355 66.968 101.43 66.97C101.538 66.9617 101.644 66.931 101.74 66.88L101.94 66.79L103.09 64.28L103.4 64.58L102.4 66.58L104.4 65.58L104.71 65.88L101.84 67.2C101.727 67.2557 101.605 67.2896 101.48 67.3C101.375 67.3251 101.265 67.3251 101.16 67.3C101.066 67.2527 100.981 67.1883 100.91 67.11Z" fill="#202067"/>
<path d="M103.88 68.91C103.738 68.7535 103.644 68.5589 103.61 68.35C103.57 68.1401 103.598 67.9228 103.69 67.73C103.784 67.5103 103.928 67.3153 104.11 67.16C104.288 66.9932 104.504 66.873 104.74 66.81C104.942 66.75 105.158 66.75 105.36 66.81C105.57 66.866 105.756 66.9888 105.89 67.16C106.036 67.3151 106.133 67.5098 106.168 67.7198C106.204 67.9297 106.177 68.1455 106.09 68.34C105.99 68.5615 105.843 68.759 105.66 68.9193C105.478 69.0797 105.263 69.1993 105.03 69.27C104.826 69.32 104.614 69.32 104.41 69.27C104.203 69.2026 104.019 69.0778 103.88 68.91ZM104.15 68.68C104.252 68.7987 104.388 68.8826 104.54 68.92C104.684 68.9591 104.836 68.9591 104.98 68.92C105.131 68.8637 105.271 68.7788 105.39 68.67C105.515 68.563 105.62 68.4343 105.7 68.29C105.775 68.1591 105.813 68.0106 105.81 67.86C105.798 67.7019 105.731 67.5531 105.62 67.44C105.52 67.3191 105.383 67.2347 105.23 67.2C105.086 67.1614 104.934 67.1614 104.79 67.2C104.637 67.2576 104.497 67.3461 104.38 67.46C104.252 67.5648 104.147 67.694 104.07 67.84C103.995 67.9667 103.96 68.1131 103.97 68.26C103.978 68.417 104.042 68.5659 104.15 68.68Z" fill="#202067"/>
<path d="M106.92 70.9L108.13 69.98L108.37 70.29L106.32 71.86L106.08 71.54L106.43 71.28C106.286 71.3196 106.134 71.3196 105.99 71.28C105.826 71.2287 105.685 71.1228 105.59 70.98C105.499 70.8641 105.44 70.7261 105.42 70.58C105.398 70.4329 105.423 70.2827 105.49 70.15C105.578 69.9826 105.705 69.8386 105.86 69.73L107.16 68.73L107.4 69.04L106.12 70.04C105.985 70.1348 105.892 70.2782 105.86 70.44C105.848 70.5138 105.852 70.5893 105.871 70.6616C105.89 70.7338 105.924 70.8014 105.97 70.86C106.036 70.9437 106.122 71.0092 106.22 71.05C106.323 71.1094 106.442 71.134 106.56 71.12C106.699 71.0837 106.824 71.0072 106.92 70.9Z" fill="#202067"/>
<path d="M38.85 118.33L38.58 118.08C38.6196 118.029 38.65 117.971 38.67 117.91C38.6909 117.835 38.6909 117.755 38.67 117.68C38.656 117.584 38.6219 117.492 38.57 117.41C38.4962 117.295 38.3925 117.201 38.27 117.14C38.221 117.113 38.166 117.099 38.11 117.099C38.054 117.099 37.999 117.113 37.95 117.14C37.9118 117.162 37.8793 117.192 37.855 117.228C37.8307 117.265 37.8153 117.306 37.81 117.35C37.7887 117.472 37.7887 117.598 37.81 117.72L37.94 118.09C37.992 118.276 37.992 118.474 37.94 118.66C37.922 118.739 37.8878 118.814 37.8397 118.879C37.7915 118.945 37.7303 118.999 37.66 119.04C37.538 119.117 37.3939 119.152 37.25 119.14C37.1596 119.107 37.0752 119.06 37 119C36.8556 118.891 36.7334 118.755 36.64 118.6C36.5077 118.413 36.4378 118.189 36.44 117.96C36.4408 117.857 36.4635 117.756 36.5066 117.663C36.5497 117.57 36.6122 117.487 36.69 117.42L36.97 117.69C36.8784 117.777 36.8215 117.894 36.81 118.02C36.8127 118.159 36.8542 118.294 36.93 118.41C37.0085 118.548 37.127 118.66 37.27 118.73C37.319 118.757 37.374 118.771 37.43 118.771C37.486 118.771 37.541 118.757 37.59 118.73C37.6288 118.711 37.6625 118.682 37.6886 118.648C37.7146 118.613 37.7322 118.573 37.74 118.53C37.7622 118.428 37.7622 118.322 37.74 118.22L37.6 117.8C37.5228 117.617 37.5019 117.415 37.54 117.22C37.5875 117.062 37.6905 116.927 37.83 116.84C37.9476 116.77 38.0831 116.735 38.22 116.74C38.3677 116.752 38.5094 116.804 38.63 116.89C38.7652 116.987 38.8806 117.109 38.97 117.25C39.0892 117.427 39.1487 117.637 39.14 117.85C39.0997 118.038 38.9976 118.207 38.85 118.33Z" fill="#202067"/>
<path d="M38.07 120.82C37.9748 120.697 37.9098 120.553 37.88 120.4C37.8448 120.266 37.8448 120.124 37.88 119.99C37.9366 119.848 38.034 119.726 38.16 119.64C38.26 119.566 38.3768 119.518 38.5 119.5C38.6075 119.498 38.7138 119.522 38.81 119.57C38.917 119.616 39.0151 119.68 39.1 119.76C39.1915 119.838 39.2783 119.922 39.36 120.01L39.62 120.29C39.6626 120.354 39.7212 120.406 39.79 120.44C39.8128 120.453 39.8387 120.46 39.865 120.46C39.8913 120.46 39.9172 120.453 39.94 120.44C40.0029 120.403 40.0566 120.352 40.097 120.292C40.1373 120.231 40.1633 120.162 40.173 120.089C40.1826 120.017 40.1756 119.944 40.1526 119.874C40.1296 119.805 40.0911 119.742 40.04 119.69C39.9683 119.573 39.8634 119.48 39.7388 119.423C39.6141 119.366 39.4753 119.348 39.34 119.37L39.23 118.99C39.3773 118.95 39.5327 118.95 39.68 118.99C39.8153 119.027 39.9414 119.091 40.05 119.18C40.1503 119.267 40.2408 119.364 40.32 119.47C40.3767 119.547 40.4238 119.631 40.46 119.72C40.5108 119.823 40.5414 119.935 40.55 120.05C40.5612 120.174 40.5369 120.299 40.48 120.41C40.3983 120.559 40.2816 120.686 40.14 120.78L38.76 121.78L38.53 121.46L38.81 121.26H38.58C38.4843 121.239 38.393 121.202 38.31 121.15C38.2082 121.058 38.1265 120.945 38.07 120.82ZM38.39 120.66C38.4673 120.776 38.5744 120.869 38.7 120.93C38.7931 120.977 38.8959 121.001 39 121C39.105 120.991 39.2054 120.953 39.29 120.89L39.59 120.67C39.5538 120.678 39.5162 120.678 39.48 120.67C39.4253 120.629 39.3751 120.582 39.33 120.53L39.18 120.38L39.07 120.25C39.0017 120.181 38.9282 120.118 38.85 120.06C38.7802 120.006 38.6974 119.972 38.61 119.96C38.5667 119.957 38.5232 119.962 38.482 119.976C38.4409 119.99 38.4028 120.012 38.37 120.04C38.32 120.072 38.2791 120.117 38.2511 120.169C38.2231 120.222 38.209 120.281 38.21 120.34C38.2385 120.462 38.3009 120.573 38.39 120.66Z" fill="#202067"/>
<path d="M42.71 122.46L40.11 123.37L39.86 123.06L41.24 120.68L41.51 121.01L40.38 122.87L42.38 122.11L42.71 122.46Z" fill="#202067"/>
<path d="M41.23 124.66L43.14 122.92L43.4 123.22L41.5 125L41.23 124.66ZM43.59 122.78C43.5641 122.754 43.5437 122.722 43.53 122.688C43.5163 122.654 43.5095 122.617 43.51 122.58C43.5142 122.507 43.5465 122.439 43.6 122.39C43.6262 122.365 43.658 122.346 43.6928 122.336C43.7276 122.326 43.7643 122.324 43.8 122.33C43.8363 122.33 43.8721 122.339 43.9049 122.354C43.9377 122.37 43.9668 122.392 43.99 122.42C44.0377 122.475 44.0627 122.547 44.06 122.62C44.0603 122.655 44.0534 122.691 44.0396 122.723C44.0259 122.756 44.0056 122.785 43.98 122.81C43.9246 122.858 43.8531 122.883 43.78 122.88C43.7065 122.871 43.6388 122.836 43.59 122.78Z" fill="#202067"/>
<path d="M43.54 124.85L42.44 125.95L42.16 125.68L44 123.85L44.27 124.12L43.99 124.4C44.1264 124.355 44.2736 124.355 44.41 124.4C44.572 124.445 44.7177 124.535 44.83 124.66C44.9482 124.764 45.0349 124.899 45.08 125.05C45.1248 125.197 45.1248 125.353 45.08 125.5C45.0165 125.677 44.91 125.835 44.77 125.96L43.62 127.12L43.34 126.84L44.47 125.7C44.536 125.644 44.5903 125.575 44.6298 125.498C44.6692 125.421 44.6931 125.336 44.7 125.25C44.6987 125.171 44.6812 125.093 44.6485 125.02C44.6158 124.948 44.5687 124.883 44.51 124.83C44.4277 124.744 44.3242 124.682 44.21 124.65C44.102 124.62 43.988 124.62 43.88 124.65C43.7524 124.689 43.6359 124.757 43.54 124.85Z" fill="#202067"/>
<path d="M44.47 129.25C44.3439 129.145 44.2359 129.02 44.15 128.88C44.0792 128.767 44.0316 128.641 44.01 128.51C43.9906 128.397 43.9906 128.282 44.01 128.17H44.4C44.3945 128.24 44.3945 128.31 44.4 128.38C44.4067 128.474 44.4304 128.565 44.47 128.65C44.5241 128.768 44.6065 128.871 44.71 128.95C44.8461 129.073 45.0176 129.15 45.2 129.17C45.2898 129.173 45.3788 129.153 45.4592 129.113C45.5395 129.073 45.6085 129.014 45.66 128.94L46.01 128.55L45.8 128.61C45.6837 128.624 45.5657 128.611 45.4549 128.573C45.3441 128.535 45.2433 128.472 45.16 128.39C45.0064 128.269 44.8917 128.106 44.83 127.92C44.7727 127.731 44.7727 127.529 44.83 127.34C44.8916 127.109 45.0082 126.896 45.17 126.72C45.3208 126.539 45.5083 126.393 45.72 126.29C45.907 126.202 46.1155 126.171 46.32 126.2C46.5212 126.227 46.7096 126.314 46.86 126.45C46.9644 126.538 47.0494 126.647 47.11 126.77C47.1436 126.863 47.1605 126.961 47.16 127.06C47.16 127.15 47.16 127.22 47.16 127.28L47.43 126.97L47.72 127.22L45.99 129.22C45.8705 129.371 45.7058 129.48 45.52 129.53C45.3537 129.58 45.1764 129.58 45.01 129.53C44.8125 129.475 44.6285 129.38 44.47 129.25ZM45.39 128.17C45.4942 128.263 45.6223 128.326 45.76 128.35C45.8985 128.368 46.039 128.34 46.16 128.27C46.307 128.194 46.4365 128.089 46.54 127.96C46.6538 127.835 46.7421 127.689 46.8 127.53C46.8392 127.396 46.8392 127.254 46.8 127.12C46.7668 126.977 46.6856 126.85 46.57 126.76C46.4598 126.658 46.3194 126.595 46.17 126.58C46.0266 126.574 45.8845 126.609 45.76 126.68C45.6135 126.756 45.4842 126.862 45.38 126.99C45.2726 127.109 45.1909 127.248 45.14 127.4C45.1003 127.534 45.1003 127.676 45.14 127.81C45.1813 127.954 45.2692 128.081 45.39 128.17Z" fill="#202067"/>
<path d="M50 128.24L50.32 128.47L48.9 130.47C48.8469 130.536 48.8124 130.616 48.8 130.7C48.7877 130.725 48.7813 130.752 48.7813 130.78C48.7813 130.808 48.7877 130.835 48.8 130.86C48.8471 130.93 48.9183 130.98 49 131L49.09 131.06H49.15L49.01 131.39C48.9736 131.395 48.9365 131.395 48.9 131.39L48.74 131.3C48.6491 131.234 48.574 131.149 48.52 131.05C48.4602 130.95 48.429 130.836 48.43 130.72C48.4333 130.591 48.4751 130.465 48.55 130.36L50 128.24ZM50.41 129.24L50.22 129.51L49.13 128.74L49.32 128.47L50.41 129.24Z" fill="#202067"/>
<path d="M50.83 130.8L50 132.12L49.66 131.91L51.49 129L51.83 129.21L51.16 130.28C51.2771 130.197 51.4166 130.152 51.56 130.15C51.7288 130.157 51.8919 130.213 52.03 130.31C52.1681 130.391 52.2847 130.504 52.37 130.64C52.4461 130.773 52.4777 130.927 52.46 131.08C52.437 131.266 52.372 131.443 52.27 131.6L51.43 133L51.09 132.79L51.95 131.42C52.0454 131.279 52.0846 131.108 52.06 130.94C52.0445 130.86 52.0113 130.784 51.9628 130.718C51.9144 130.653 51.852 130.599 51.78 130.56C51.6792 130.492 51.5614 130.454 51.44 130.45C51.3253 130.437 51.2097 130.462 51.11 130.52C50.9933 130.587 50.8966 130.683 50.83 130.8Z" fill="#202067"/>
<path d="M53.28 134.07C53.0751 133.973 52.9018 133.821 52.78 133.63C52.6789 133.443 52.6272 133.233 52.63 133.02C52.6508 132.782 52.719 132.551 52.8306 132.339C52.9422 132.128 53.095 131.941 53.28 131.79C53.4481 131.657 53.6515 131.577 53.8649 131.559C54.0783 131.541 54.2923 131.587 54.48 131.69C54.599 131.756 54.707 131.841 54.8 131.94C54.8981 132.043 54.9731 132.166 55.02 132.3C55.0573 132.454 55.0573 132.616 55.02 132.77C54.9882 132.974 54.9205 133.17 54.82 133.35L54.74 133.5L53 132.57L53.16 132.27L54.57 133.01C54.6311 132.889 54.6652 132.756 54.67 132.62C54.6698 132.498 54.6388 132.377 54.58 132.27C54.5112 132.157 54.4103 132.066 54.29 132.01C54.1643 131.943 54.0224 131.911 53.88 131.92C53.7434 131.94 53.6133 131.991 53.5 132.07C53.3879 132.149 53.2983 132.256 53.24 132.38L53.13 132.58C53.0434 132.726 52.9953 132.891 52.99 133.06C52.9833 133.205 53.0218 133.348 53.1 133.47C53.1788 133.594 53.2893 133.694 53.42 133.76C53.5031 133.808 53.5949 133.838 53.69 133.85C53.7755 133.87 53.8645 133.87 53.95 133.85C54.0355 133.825 54.1141 133.78 54.18 133.72L54.47 133.99C54.376 134.087 54.2591 134.159 54.13 134.2C53.9916 134.23 53.8484 134.23 53.71 134.2C53.5603 134.181 53.4149 134.137 53.28 134.07Z" fill="#202067"/>
<path d="M57 135.77L57.18 133.08L57.57 133.23L57.39 135.23L58.61 133.58L59.01 133.73L58.81 135.73L60.03 134.09L60.42 134.24L58.77 136.37L58.4 136.23L58.58 134.23L57.35 135.88L57 135.77Z" fill="#202067"/>
<path d="M61.32 137.3C61.1137 137.245 60.9276 137.132 60.7839 136.974C60.6403 136.816 60.5452 136.621 60.51 136.41C60.4728 136.173 60.4899 135.93 60.56 135.7C60.626 135.465 60.742 135.246 60.9 135.06C61.0404 134.905 61.2201 134.791 61.42 134.73C61.574 134.682 61.7364 134.668 61.8963 134.689C62.0562 134.709 62.2098 134.764 62.3465 134.85C62.4832 134.935 62.5999 135.049 62.6885 135.184C62.7771 135.318 62.8356 135.471 62.86 135.63C62.9133 135.867 62.9133 136.113 62.86 136.35C62.796 136.583 62.6798 136.799 62.52 136.98C62.3813 137.137 62.201 137.251 62 137.31C61.7777 137.377 61.5403 137.373 61.32 137.3ZM61.42 136.96C61.5658 137.01 61.7242 137.01 61.87 136.96C62.0094 136.899 62.1301 136.803 62.22 136.68C62.3156 136.547 62.3867 136.398 62.43 136.24C62.4596 136.081 62.4596 135.919 62.43 135.76C62.4217 135.61 62.3734 135.465 62.29 135.34C62.1908 135.22 62.0573 135.132 61.9073 135.089C61.7573 135.046 61.5979 135.05 61.45 135.1C61.3135 135.161 61.1961 135.258 61.11 135.38C61.0093 135.511 60.9347 135.661 60.89 135.82C60.8654 135.979 60.8654 136.141 60.89 136.3C60.8983 136.45 60.9466 136.595 61.03 136.72C61.1273 136.852 61.2638 136.95 61.42 137V136.96Z" fill="#202067"/>
<path d="M63.32 137.77L63.89 135.26L64.26 135.34L64.17 135.72C64.2431 135.601 64.3567 135.512 64.49 135.47C64.6305 135.43 64.7795 135.43 64.92 135.47H65.03H65.12L65.03 135.86H64.95H64.8C64.6887 135.83 64.5713 135.83 64.46 135.86C64.3576 135.889 64.2645 135.944 64.19 136.02C64.1096 136.098 64.0569 136.2 64.04 136.31L63.68 137.9L63.32 137.77Z" fill="#202067"/>
<path d="M66.26 134.87L65.64 138.25L65.25 138.18L65.87 134.8L66.26 134.87Z" fill="#202067"/>
<path d="M67.55 138.6C67.3497 138.584 67.1601 138.504 67.01 138.37C66.8555 138.233 66.7414 138.057 66.68 137.86C66.6165 137.626 66.5995 137.381 66.63 137.14C66.6608 136.9 66.7389 136.669 66.86 136.46C66.9684 136.284 67.1244 136.142 67.31 136.05C67.4929 135.961 67.6988 135.929 67.9 135.96C68.0372 135.97 68.1688 136.019 68.28 136.1C68.3614 136.154 68.4297 136.226 68.48 136.31C68.5189 136.37 68.5524 136.434 68.58 136.5L68.75 135.24L69.14 135.3L68.7 138.7H68.32L68.37 138.3H68.32L68.18 138.46C68.1034 138.526 68.0152 138.577 67.92 138.61C67.7983 138.643 67.6698 138.639 67.55 138.6ZM67.65 138.26C67.7906 138.284 67.9352 138.259 68.06 138.19C68.1862 138.116 68.2899 138.009 68.36 137.88C68.435 137.722 68.4856 137.553 68.51 137.38C68.5407 137.208 68.5407 137.032 68.51 136.86C68.4742 136.722 68.4056 136.595 68.31 136.49C68.2008 136.394 68.0645 136.335 67.92 136.32C67.7717 136.293 67.6185 136.321 67.49 136.4C67.3638 136.474 67.2601 136.581 67.19 136.71C67.1152 136.857 67.0678 137.016 67.05 137.18C67.0194 137.349 67.0194 137.521 67.05 137.69C67.0793 137.833 67.1486 137.965 67.25 138.07C67.3548 138.181 67.4976 138.249 67.65 138.26Z" fill="#202067"/>
<path d="M71.34 138.9V136.33H71.72V136.74C71.7654 136.606 71.8577 136.492 71.98 136.42C72.1125 136.341 72.2657 136.302 72.42 136.31C72.5692 136.304 72.7164 136.346 72.84 136.43C72.9552 136.514 73.0451 136.628 73.1 136.76C73.1643 136.627 73.2694 136.519 73.4 136.45C73.5456 136.366 73.7119 136.324 73.88 136.33C73.9839 136.33 74.0868 136.35 74.1829 136.389C74.279 136.429 74.3664 136.487 74.44 136.56C74.5939 136.748 74.6692 136.988 74.65 137.23V138.96H74.25V137.24C74.2576 137.165 74.2481 137.089 74.2221 137.018C74.1961 136.947 74.1544 136.883 74.1 136.83C74.0009 136.742 73.8722 136.696 73.74 136.7C73.661 136.693 73.5815 136.704 73.5072 136.732C73.4328 136.76 73.3655 136.803 73.31 136.86C73.2588 136.915 73.2192 136.979 73.1934 137.05C73.1676 137.12 73.1563 137.195 73.16 137.27V138.95H72.76V137.18C72.7653 137.116 72.7564 137.051 72.734 136.991C72.7115 136.93 72.676 136.875 72.63 136.83C72.5304 136.735 72.398 136.681 72.26 136.68C72.1581 136.682 72.0583 136.709 71.97 136.76C71.8797 136.818 71.8044 136.897 71.75 136.99C71.6954 137.091 71.6679 137.205 71.67 137.32V138.93L71.34 138.9Z" fill="#202067"/>
<path d="M77 138.84C76.773 138.864 76.5439 138.822 76.34 138.72C76.154 138.624 75.9982 138.479 75.89 138.3C75.7731 138.088 75.7048 137.852 75.69 137.61C75.6672 137.373 75.6979 137.134 75.78 136.91C75.8525 136.708 75.9808 136.531 76.15 136.4C76.3198 136.269 76.5256 136.192 76.74 136.18C76.8722 136.155 77.0078 136.155 77.14 136.18C77.278 136.212 77.4075 136.274 77.52 136.36C77.6398 136.467 77.7382 136.596 77.81 136.74C77.8892 136.931 77.9364 137.134 77.95 137.34V137.5L75.95 137.67V137.32L77.53 137.2C77.5221 137.064 77.4846 136.93 77.42 136.81C77.3504 136.707 77.258 136.622 77.15 136.56C77.0232 136.507 76.8848 136.487 76.7482 136.503C76.6116 136.519 76.4813 136.569 76.37 136.65C76.2606 136.731 76.1772 136.842 76.13 136.97C76.0794 137.1 76.0589 137.241 76.07 137.38V137.6C76.0787 137.772 76.1266 137.939 76.21 138.09C76.2824 138.213 76.3906 138.31 76.52 138.37C76.6551 138.429 76.803 138.454 76.95 138.44C77.0467 138.433 77.1415 138.41 77.23 138.37C77.31 138.341 77.3796 138.289 77.43 138.22C77.4904 138.154 77.5349 138.076 77.56 137.99L77.95 138.06C77.9208 138.193 77.859 138.317 77.77 138.42C77.6796 138.529 77.5672 138.618 77.44 138.68C77.3023 138.755 77.1539 138.809 77 138.84Z" fill="#202067"/>
<path d="M79.66 138.53C79.5088 138.566 79.3513 138.566 79.2 138.53C79.0668 138.487 78.9465 138.411 78.85 138.31C78.7467 138.197 78.6835 138.053 78.67 137.9C78.633 137.779 78.633 137.651 78.67 137.53C78.7128 137.43 78.7819 137.344 78.87 137.28C78.9609 137.211 79.0622 137.157 79.17 137.12C79.28 137.071 79.3937 137.031 79.51 137L79.88 136.9C79.9543 136.881 80.0252 136.851 80.09 136.81C80.1023 136.789 80.1088 136.765 80.1088 136.74C80.1088 136.715 80.1023 136.691 80.09 136.67C80.0836 136.6 80.0636 136.533 80.0309 136.471C79.9983 136.409 79.9538 136.355 79.9 136.31C79.7747 136.232 79.6238 136.207 79.48 136.24C79.3431 136.253 79.2129 136.306 79.1048 136.391C78.9967 136.476 78.9152 136.59 78.87 136.72L78.48 136.65C78.5128 136.497 78.5852 136.356 78.69 136.24C78.7862 136.141 78.902 136.062 79.03 136.01C79.1497 135.951 79.2779 135.91 79.41 135.89H79.7C79.8132 135.894 79.9248 135.918 80.03 135.96C80.1462 136.013 80.2463 136.096 80.32 136.2C80.414 136.337 80.4724 136.495 80.49 136.66L80.75 138.34L80.35 138.4V138.06C80.3269 138.131 80.2931 138.199 80.25 138.26C80.185 138.339 80.1073 138.407 80.02 138.46C79.9061 138.508 79.7835 138.532 79.66 138.53ZM79.66 138.17C79.7864 138.144 79.9037 138.086 80 138C80.0925 137.93 80.165 137.837 80.21 137.73C80.2395 137.625 80.2395 137.515 80.21 137.41V137.05C80.182 137.08 80.1479 137.104 80.11 137.12C80.0497 137.151 79.9859 137.174 79.92 137.19L79.72 137.25H79.55C79.457 137.279 79.3667 137.316 79.28 137.36C79.2045 137.397 79.1392 137.452 79.09 137.52C79.0592 137.601 79.0592 137.69 79.09 137.77C79.0966 137.831 79.1184 137.89 79.1533 137.94C79.1882 137.991 79.2352 138.032 79.29 138.06C79.4014 138.129 79.5291 138.167 79.66 138.17Z" fill="#202067"/>
<path d="M81.86 136.51L82.2 138L81.81 138.09L81.25 135.57L81.62 135.49L81.71 135.88C81.7378 135.739 81.8075 135.61 81.91 135.51C82.0299 135.392 82.1839 135.315 82.35 135.29C82.5041 135.25 82.6659 135.25 82.82 135.29C82.9673 135.331 83.0973 135.419 83.19 135.54C83.3042 135.686 83.3799 135.857 83.41 136.04L83.77 137.64L83.39 137.73L83.03 136.16C83.004 135.99 82.9146 135.837 82.78 135.73C82.7131 135.685 82.6372 135.656 82.5578 135.644C82.4783 135.632 82.3971 135.637 82.32 135.66C82.202 135.681 82.0916 135.733 82 135.81C81.9173 135.889 81.8584 135.989 81.83 136.1C81.8063 136.237 81.8166 136.378 81.86 136.51Z" fill="#202067"/>
<path d="M86 135L85.69 135.2C85.6511 135.146 85.6039 135.099 85.55 135.06C85.4871 135.017 85.4152 134.99 85.34 134.98C85.2454 134.952 85.1446 134.952 85.05 134.98C84.9166 135.011 84.797 135.084 84.71 135.19C84.6714 135.231 84.6439 135.28 84.6299 135.335C84.6159 135.389 84.6159 135.446 84.63 135.5C84.642 135.543 84.6635 135.582 84.693 135.615C84.7225 135.648 84.7591 135.673 84.8 135.69C84.9216 135.719 85.0483 135.719 85.17 135.69H85.56C85.7546 135.667 85.9518 135.698 86.13 135.78C86.2701 135.867 86.3733 136.002 86.42 136.16C86.46 136.297 86.46 136.443 86.42 136.58C86.3614 136.718 86.2725 136.841 86.16 136.94C86.0182 137.054 85.855 137.139 85.68 137.19C85.4579 137.254 85.2221 137.254 85 137.19C84.9023 137.159 84.812 137.109 84.7346 137.042C84.6572 136.975 84.5944 136.892 84.55 136.8L84.88 136.61C84.9461 136.721 85.0485 136.806 85.17 136.85C85.3005 136.889 85.4395 136.889 85.57 136.85C85.7208 136.816 85.8572 136.736 85.96 136.62C85.9972 136.576 86.0237 136.525 86.0376 136.469C86.0515 136.414 86.0523 136.356 86.04 136.3C86.0279 136.259 86.0074 136.221 85.9798 136.188C85.9523 136.156 85.9183 136.129 85.88 136.11C85.7787 136.081 85.6713 136.081 85.57 136.11H85.13C84.9343 136.134 84.736 136.099 84.56 136.01C84.4172 135.926 84.313 135.79 84.27 135.63C84.225 135.5 84.225 135.36 84.27 135.23C84.3215 135.094 84.4077 134.973 84.52 134.88C84.6482 134.772 84.7983 134.694 84.96 134.65C85.1607 134.58 85.3793 134.58 85.58 134.65C85.7529 134.72 85.8997 134.843 86 135Z" fill="#202067"/>
<path d="M89.8 133.51L89.51 133.74C89.4677 133.687 89.4126 133.646 89.35 133.62C89.2864 133.581 89.2145 133.557 89.14 133.55C89.0406 133.553 88.9426 133.574 88.85 133.61C88.7204 133.659 88.6087 133.746 88.53 133.86C88.5037 133.907 88.4899 133.961 88.4899 134.015C88.4899 134.069 88.5037 134.123 88.53 134.17C88.5446 134.213 88.5696 134.252 88.6027 134.284C88.6358 134.315 88.6761 134.338 88.72 134.35C88.8387 134.375 88.9613 134.375 89.08 134.35H89.47C89.6591 134.293 89.8609 134.293 90.05 134.35C90.1234 134.382 90.1895 134.429 90.2444 134.488C90.2994 134.546 90.3421 134.615 90.37 134.69C90.4197 134.826 90.4197 134.974 90.37 135.11C90.3369 135.259 90.2603 135.395 90.15 135.5C90.02 135.625 89.8673 135.723 89.7 135.79C89.4907 135.886 89.2573 135.918 89.03 135.88C88.8285 135.835 88.6526 135.713 88.54 135.54L88.85 135.31C88.9273 135.412 89.0363 135.486 89.16 135.52C89.29 135.562 89.43 135.562 89.56 135.52C89.7089 135.466 89.8379 135.369 89.93 135.24C89.9563 135.191 89.97 135.136 89.97 135.08C89.97 135.024 89.9563 134.969 89.93 134.92C89.9161 134.88 89.8937 134.843 89.8644 134.812C89.8351 134.781 89.7995 134.756 89.76 134.74C89.6549 134.714 89.5451 134.714 89.44 134.74L89 134.81C88.8058 134.848 88.6049 134.83 88.42 134.76C88.2731 134.688 88.1588 134.563 88.1 134.41C88.0605 134.28 88.0605 134.14 88.1 134.01C88.1317 133.869 88.2048 133.74 88.31 133.64C88.4275 133.517 88.571 133.421 88.73 133.36C88.9239 133.271 89.1412 133.247 89.35 133.29C89.5162 133.324 89.6711 133.4 89.8 133.51Z" fill="#202067"/>
<path d="M92.12 134.7C91.9837 134.77 91.8331 134.808 91.68 134.81C91.5395 134.819 91.3998 134.784 91.28 134.71C91.1462 134.636 91.0407 134.52 90.98 134.38C90.9225 134.269 90.895 134.145 90.9 134.02C90.9096 133.91 90.9514 133.806 91.02 133.72C91.0857 133.627 91.163 133.543 91.25 133.47L91.55 133.26L91.87 133.05C91.9349 133.01 91.9924 132.959 92.04 132.9C92.0542 132.878 92.0618 132.852 92.0618 132.825C92.0618 132.798 92.0542 132.772 92.04 132.75C92.0159 132.682 91.9765 132.62 91.9248 132.57C91.873 132.52 91.8104 132.482 91.7418 132.46C91.6731 132.437 91.6003 132.431 91.5288 132.442C91.4574 132.452 91.3894 132.479 91.33 132.52C91.1821 132.582 91.0589 132.691 90.98 132.83C90.925 132.932 90.8942 133.045 90.89 133.16H90.5C90.4888 133.006 90.5163 132.851 90.58 132.71C90.6365 132.582 90.7221 132.469 90.83 132.38C90.9295 132.292 91.0405 132.218 91.16 132.16C91.2475 132.12 91.3377 132.087 91.43 132.06C91.5425 132.041 91.6575 132.041 91.77 132.06C91.8936 132.076 92.0109 132.124 92.11 132.2C92.2446 132.302 92.3512 132.436 92.42 132.59L93.17 134.12L92.81 134.29L92.66 133.98C92.667 134.053 92.667 134.127 92.66 134.2C92.6232 134.296 92.5689 134.384 92.5 134.46C92.3972 134.573 92.2659 134.656 92.12 134.7ZM92.02 134.36C92.1437 134.301 92.2503 134.211 92.33 134.1C92.3974 134.006 92.4388 133.895 92.45 133.78C92.4613 133.673 92.4404 133.565 92.39 133.47L92.23 133.14C92.2138 133.181 92.186 133.215 92.15 133.24L92 133.36L91.82 133.48L91.68 133.57C91.597 133.625 91.5199 133.689 91.45 133.76C91.3877 133.818 91.3397 133.89 91.31 133.97C91.2772 134.05 91.2772 134.14 91.31 134.22C91.3305 134.277 91.3668 134.327 91.4146 134.364C91.4624 134.401 91.5197 134.424 91.58 134.43C91.7239 134.454 91.8716 134.429 92 134.36H92.02Z" fill="#202067"/>
<path d="M94.51 130.41L94.97 133.12L94.62 133.32L92.51 131.56L92.88 131.35L94.52 132.78L94.11 130.65L94.51 130.41Z" fill="#202067"/>
<path d="M95 129.59C94.9671 129.605 94.9312 129.613 94.895 129.613C94.8587 129.613 94.8229 129.605 94.79 129.59C94.7555 129.585 94.7226 129.572 94.6934 129.553C94.6641 129.534 94.6391 129.509 94.62 129.48C94.6054 129.447 94.5978 129.411 94.5978 129.375C94.5978 129.339 94.6054 129.303 94.62 129.27C94.6384 129.201 94.681 129.141 94.74 129.1C94.7732 129.086 94.8089 129.079 94.845 129.079C94.8811 129.079 94.9168 129.086 94.95 129.1C94.9848 129.104 95.0183 129.116 95.0477 129.135C95.0772 129.154 95.1019 129.18 95.12 129.21C95.1352 129.243 95.1431 129.279 95.1431 129.315C95.1431 129.351 95.1352 129.387 95.12 129.42C95.1122 129.455 95.0976 129.488 95.077 129.517C95.0564 129.546 95.0302 129.571 95 129.59ZM96.46 132.23L95 130.06L95.34 129.85L96.77 132L96.46 132.23Z" fill="#202067"/>
<path d="M97 130L97.9 131.26L97.58 131.49L96.08 129.39L96.39 129.17L96.62 129.49C96.5803 129.356 96.5803 129.214 96.62 129.08C96.687 128.925 96.7983 128.792 96.94 128.7C97.0672 128.607 97.2145 128.545 97.37 128.52C97.5226 128.5 97.6775 128.532 97.81 128.61C97.9735 128.701 98.1111 128.831 98.21 128.99L99.21 130.32L98.88 130.55L98 129.23C97.9069 129.083 97.7596 128.979 97.59 128.94C97.5116 128.922 97.4302 128.923 97.3521 128.942C97.274 128.961 97.2014 128.998 97.14 129.05C97.0413 129.111 96.9624 129.199 96.9127 129.304C96.863 129.408 96.8447 129.525 96.86 129.64C96.8804 129.769 96.9281 129.891 97 130Z" fill="#202067"/>
<path d="M101.52 129.79C101.394 129.903 101.249 129.991 101.09 130.05C100.97 130.101 100.84 130.125 100.71 130.12C100.598 130.12 100.487 130.103 100.38 130.07L100.48 129.7H100.69C100.778 129.724 100.872 129.724 100.96 129.7C101.088 129.666 101.205 129.601 101.3 129.51C101.446 129.4 101.551 129.246 101.6 129.07C101.618 128.982 101.613 128.892 101.587 128.806C101.561 128.721 101.514 128.643 101.45 128.58L101.12 128.17C101.12 128.23 101.12 128.3 101.12 128.39C101.117 128.486 101.097 128.581 101.06 128.67C101.002 128.797 100.913 128.907 100.8 128.99C100.651 129.115 100.472 129.198 100.28 129.23C100.083 129.262 99.881 129.234 99.7 129.15C99.486 129.051 99.2977 128.904 99.15 128.72C98.9946 128.541 98.8818 128.329 98.82 128.1C98.7649 127.904 98.7649 127.696 98.82 127.5C98.8781 127.307 98.9932 127.136 99.15 127.01C99.2513 126.916 99.3755 126.851 99.51 126.82C99.6085 126.795 99.7115 126.795 99.81 126.82L100.02 126.88L99.75 126.57L100.05 126.32L101.74 128.32C101.875 128.461 101.956 128.645 101.97 128.84C101.988 129.011 101.949 129.183 101.86 129.33C101.777 129.504 101.662 129.66 101.52 129.79ZM100.61 128.71C100.722 128.623 100.806 128.505 100.85 128.37C100.885 128.239 100.885 128.101 100.85 127.97C100.794 127.813 100.709 127.667 100.6 127.54C100.496 127.406 100.367 127.294 100.22 127.21C100.097 127.144 99.9595 127.11 99.82 127.11C99.6752 127.124 99.5385 127.183 99.43 127.28C99.3099 127.372 99.2252 127.503 99.19 127.65C99.1457 127.787 99.1457 127.934 99.19 128.07C99.2446 128.223 99.3259 128.365 99.43 128.49C99.5329 128.616 99.6584 128.721 99.8 128.8C99.922 128.868 100.061 128.899 100.2 128.89C100.353 128.877 100.497 128.814 100.61 128.71Z" fill="#202067"/>
<path d="M104.48 127L104.34 127.12L104.24 127.18L104.06 126.86C104.134 126.817 104.202 126.763 104.26 126.7C104.308 126.641 104.333 126.566 104.33 126.49C104.319 126.378 104.285 126.269 104.23 126.17L104.14 125.98L101.62 124.86L101.92 124.55L103.92 125.47L102.92 123.53L103.22 123.22L104.57 126.07C104.628 126.182 104.665 126.304 104.68 126.43C104.705 126.535 104.705 126.645 104.68 126.75C104.629 126.844 104.561 126.929 104.48 127Z" fill="#202067"/>
<path d="M106.27 123.75C106.134 123.914 105.953 124.035 105.75 124.1C105.548 124.16 105.332 124.16 105.13 124.1C104.897 124.031 104.682 123.911 104.5 123.75C104.314 123.598 104.164 123.407 104.06 123.19C103.972 122.996 103.94 122.781 103.97 122.57C104.005 122.359 104.099 122.161 104.24 122C104.377 121.83 104.562 121.705 104.77 121.64C104.973 121.585 105.187 121.585 105.39 121.64C105.621 121.709 105.835 121.825 106.02 121.98C106.205 122.137 106.354 122.332 106.46 122.55C106.54 122.743 106.568 122.953 106.54 123.16C106.509 123.378 106.415 123.583 106.27 123.75ZM106 123.52C106.109 123.406 106.173 123.257 106.18 123.1C106.188 122.949 106.149 122.799 106.07 122.67C105.993 122.527 105.887 122.401 105.76 122.3C105.637 122.191 105.495 122.106 105.34 122.05C105.197 122.005 105.043 122.005 104.9 122.05C104.745 122.079 104.606 122.165 104.51 122.29C104.404 122.405 104.344 122.554 104.34 122.71C104.332 122.861 104.371 123.011 104.45 123.14C104.53 123.281 104.635 123.406 104.76 123.51C104.883 123.619 105.025 123.704 105.18 123.76C105.323 123.805 105.477 123.805 105.62 123.76C105.77 123.725 105.904 123.64 106 123.52Z" fill="#202067"/>
<path d="M107.66 120.18L106.43 119.27L106.66 118.95L108.74 120.48L108.51 120.8L108.16 120.54C108.229 120.673 108.264 120.821 108.26 120.97C108.254 121.141 108.194 121.305 108.09 121.44C108 121.563 107.879 121.659 107.74 121.72C107.606 121.782 107.455 121.8 107.31 121.77C107.127 121.73 106.956 121.648 106.81 121.53L105.49 120.53L105.72 120.21L107.02 121.21C107.149 121.316 107.314 121.366 107.48 121.35C107.554 121.339 107.625 121.313 107.689 121.273C107.752 121.234 107.807 121.182 107.85 121.12C107.912 121.034 107.953 120.935 107.97 120.83C108 120.719 108 120.601 107.97 120.49C107.902 120.357 107.793 120.248 107.66 120.18Z" fill="#202067"/>
<path d="M138.35 95.73C136.403 95.73 134.536 96.5033 133.16 97.8798C131.783 99.2563 131.01 101.123 131.01 103.07C131.01 101.125 130.238 99.2596 128.864 97.8834C127.489 96.5071 125.625 95.7326 123.68 95.73C125.622 95.7273 127.484 94.9539 128.857 93.5796C130.229 92.2052 131 90.3423 131 88.4C131.001 89.3639 131.192 90.3181 131.563 91.2081C131.933 92.0982 132.474 92.9066 133.157 93.5872C133.839 94.2679 134.649 94.8074 135.54 95.1751C136.431 95.5428 137.386 95.7313 138.35 95.73Z" fill="#202067"/>
<path d="M23 95.73C21.0533 95.73 19.1864 96.5033 17.8098 97.8798C16.4333 99.2563 15.66 101.123 15.66 103.07C15.66 102.106 15.4702 101.152 15.1013 100.261C14.7324 99.3706 14.1918 98.5614 13.5102 97.8798C12.8286 97.1982 12.0194 96.6576 11.1289 96.2887C10.2384 95.9198 9.28391 95.73 8.32001 95.73C10.265 95.73 12.1304 94.958 13.5066 93.5837C14.8829 92.2093 15.6574 90.3449 15.66 88.4C15.66 89.3634 15.8499 90.3174 16.2189 91.2074C16.5879 92.0973 17.1287 92.9058 17.8104 93.5866C18.4922 94.2674 19.3014 94.8071 20.1919 95.1749C21.0823 95.5427 22.0366 95.7313 23 95.73Z" fill="#202067"/>
</g>
<defs>
<clipPath id="clip0_0_4944">
<rect width="146.63" height="191.47" fill="white"/>
</clipPath>
</defs>
</svg>
