<svg width="256" height="134" viewBox="0 0 256 134" fill="none" xmlns="http://www.w3.org/2000/svg">
<g clip-path="url(#clip0_0_5018)">
<path d="M129.21 1.37298e-05C84.9238 -0.151697 41.0335 8.34034 0 25L0 108.78C40.1671 125.087 83.0793 133.573 126.43 133.78C170.716 133.933 214.607 125.441 255.64 108.78V25C215.476 8.68257 172.562 0.196815 129.21 1.37298e-05Z" fill="#CEEFE3"/>
<path d="M48.32 51.2H58.32L59.48 73.7L70.1 51.2H80L60.86 85.56H53L48.32 51.2Z" fill="#4F8C64"/>
<path d="M83.84 51.2H93.27L86 85.56H76.53L83.84 51.2Z" fill="#4F8C64"/>
<path d="M104.89 85.8C102.445 85.7869 100.016 85.4128 97.68 84.69C95.4563 84.0555 93.347 83.0733 91.43 81.78L97.24 73.51C97.4558 73.7236 97.69 73.9177 97.94 74.09C98.6129 74.5843 99.3253 75.0224 100.07 75.4C101.075 75.9138 102.118 76.3484 103.19 76.7C104.36 77.09 105.586 77.2859 106.82 77.28C107.381 77.3116 107.943 77.2264 108.47 77.03C108.772 76.9021 109.02 76.6721 109.17 76.38C109.28 76.1205 109.338 75.8419 109.34 75.56C109.329 75.2635 109.238 74.9755 109.076 74.7271C108.914 74.4786 108.687 74.2791 108.42 74.15C107.678 73.7261 106.89 73.3905 106.07 73.15C105.12 72.84 104.07 72.48 103.07 72.07C101.819 71.5847 100.634 70.9465 99.54 70.17C98.6531 69.5397 97.9297 68.7065 97.43 67.74C96.9438 66.7377 96.7038 65.6338 96.73 64.52C96.6905 62.5297 97.1259 60.5586 98 58.77C98.8327 57.12 100.013 55.6701 101.46 54.52C102.908 53.3631 104.545 52.4664 106.3 51.87C109.527 50.766 113.011 50.658 116.3 51.56C117.631 51.9309 118.929 52.4125 120.18 53C121.367 53.58 122.397 54.13 123.27 54.65L117.56 62.44C117.63 62.44 117.43 62.27 116.98 61.95C116.391 61.5475 115.776 61.1834 115.14 60.86C114.299 60.4317 113.426 60.0674 112.53 59.77C111.595 59.4553 110.616 59.2932 109.63 59.29C109.194 59.2858 108.76 59.3603 108.35 59.51C107.979 59.6288 107.649 59.8508 107.4 60.15C107.162 60.4887 107.043 60.8965 107.06 61.31C107.062 61.5476 107.124 61.7808 107.239 61.9886C107.355 62.1963 107.52 62.3721 107.72 62.5C108.277 62.8835 108.886 63.1833 109.53 63.39C110.31 63.66 111.19 63.99 112.19 64.39C113.605 64.906 114.973 65.5417 116.28 66.29C117.381 66.9187 118.314 67.8037 119 68.87C119.697 70.0632 120.044 71.4288 120 72.81C120.068 74.934 119.604 77.0413 118.65 78.94C117.793 80.5398 116.565 81.9113 115.07 82.94C113.578 83.9427 111.923 84.6802 110.18 85.12C108.452 85.5671 106.675 85.7956 104.89 85.8Z" fill="#4F8C64"/>
<path d="M130.05 51.2H139.48L132.18 85.56H122.74L130.05 51.2Z" fill="#4F8C64"/>
<path d="M181.82 51.2H189.18L197.88 68.67L201.56 51.2H211L203.69 85.56H196.24L187.53 68.67L184 85.56H174.56L181.82 51.2Z" fill="#4F8C64"/>
<path d="M158.46 68.27L164.33 70.58L158.54 68.09L175.38 67.79L158.54 67.56L164.32 65.04L158.46 67.38L170.16 55.26L158.09 67.01L160.4 61.13L157.91 66.92L157.68 50.09L157.38 66.93L154.89 61.13L157.2 67.01L145.13 55.26L156.83 67.38L150.96 65.04L156.75 67.56L139.91 67.79L156.75 68.09L150.95 70.58L156.82 68.27L145.08 80.34L157.2 68.64L154.86 74.5L157.38 68.71L157.68 85.56L157.91 68.72L160.43 74.5L158.09 68.64L170.21 80.34L158.46 68.27Z" fill="#4F8C64"/>
<path d="M78.3 32.27L76.38 33.65L79.93 38.65L79.01 39.3L75.46 34.3L73.53 35.67L72.96 34.87L77.72 31.46L78.3 32.27Z" fill="#4F8C64"/>
<path d="M84.32 27.7L87.77 33.91L86.77 34.46L85.25 31.72L82.12 33.46L83.64 36.2L82.64 36.74L79.2 30.53L80.2 29.99L81.64 32.59L84.77 30.85L83.33 28.25L84.32 27.7Z" fill="#4F8C64"/>
<path d="M93.32 30.37L93.71 31.28L89.25 33.23L86.41 26.72L90.79 24.81L91.19 25.72L87.83 27.18L88.64 29L91.55 27.74L91.92 28.59L89 29.88L89.87 31.88L93.32 30.37Z" fill="#4F8C64"/>
<path d="M97.34 30L95.2 23.2L99.71 21.77L100.01 22.71L96.56 23.8L97.2 25.8L100.08 24.89L100.36 25.78L97.48 26.69L98.41 29.61L97.34 30Z" fill="#4F8C64"/>
<path d="M105.84 27.59C105.364 27.7198 104.864 27.7369 104.38 27.64C103.973 27.5515 103.595 27.3624 103.28 27.09C102.961 26.8093 102.7 26.4698 102.51 26.09C102.3 25.6918 102.142 25.2683 102.04 24.83L101.21 21.33L102.3 21.07L103.13 24.57C103.203 24.8808 103.311 25.1826 103.45 25.47C103.573 25.7376 103.742 25.9813 103.95 26.19C104.144 26.3916 104.39 26.5367 104.66 26.61C104.988 26.6947 105.332 26.6947 105.66 26.61C105.979 26.5432 106.275 26.3951 106.52 26.18C106.723 25.9872 106.874 25.7465 106.96 25.48C107.043 25.1978 107.08 24.904 107.07 24.61C107.067 24.3002 107.03 23.9917 106.96 23.69L106.12 20.18L107.22 19.92L108.06 23.42C108.169 23.8716 108.216 24.3358 108.2 24.8C108.194 25.223 108.106 25.6408 107.94 26.03C107.78 26.4195 107.526 26.7632 107.2 27.03C106.794 27.3163 106.33 27.5077 105.84 27.59Z" fill="#4F8C64"/>
<path d="M114.5 19.67L112.17 20.06L113.17 26.06L112.05 26.25L111.05 20.25L108.71 20.64L108.55 19.64L114.33 18.64L114.5 19.67Z" fill="#4F8C64"/>
<path d="M119.49 25.32C118.998 25.3884 118.497 25.3369 118.03 25.17C117.642 25.0321 117.297 24.794 117.03 24.48C116.755 24.1619 116.542 23.7958 116.4 23.4C116.249 22.9767 116.148 22.537 116.1 22.09L115.75 18.51L116.86 18.4L117.22 21.98C117.248 22.2963 117.311 22.6083 117.41 22.91C117.5 23.1899 117.636 23.4532 117.81 23.69C117.98 23.9124 118.204 24.0879 118.46 24.2C118.759 24.3147 119.082 24.3559 119.4 24.32C119.725 24.2968 120.038 24.19 120.31 24.01C120.538 23.8454 120.721 23.6251 120.84 23.37C120.957 23.1027 121.035 22.8197 121.07 22.53C121.105 22.221 121.105 21.909 121.07 21.6L120.71 18L121.84 17.88L122.19 21.47C122.256 21.9277 122.256 22.3923 122.19 22.85C122.128 23.2668 121.985 23.6675 121.77 24.03C121.553 24.3799 121.255 24.6716 120.9 24.88C120.474 25.1419 119.989 25.2931 119.49 25.32Z" fill="#4F8C64"/>
<path d="M124.13 24.88L123.89 17.79L126.98 17.68C127.282 17.6694 127.583 17.7275 127.86 17.85C128.129 17.9754 128.373 18.1482 128.58 18.36C128.78 18.5705 128.943 18.8141 129.06 19.08C129.18 19.3445 129.248 19.6297 129.26 19.92C129.269 20.226 129.221 20.5311 129.12 20.82C129.019 21.1015 128.863 21.3599 128.66 21.58C128.457 21.787 128.211 21.9474 127.94 22.05L129.7 24.7H128.44L126.81 22.28L125.17 22.34L125.25 24.81L124.13 24.88ZM125.13 21.39L127.13 21.32C127.328 21.3182 127.519 21.2475 127.67 21.12C127.833 20.9906 127.96 20.822 128.04 20.63C128.121 20.416 128.162 20.1888 128.16 19.96C128.156 19.727 128.091 19.4992 127.97 19.3C127.871 19.1108 127.722 18.9519 127.54 18.84C127.374 18.7288 127.179 18.6696 126.98 18.67L125.08 18.74L125.13 21.39Z" fill="#4F8C64"/>
<path d="M135.73 23.84V24.84L130.86 24.72L131.02 17.63L135.8 17.74V18.74L132.14 18.65V20.65L135.31 20.72V21.65L132 21.58V23.75L135.73 23.84Z" fill="#4F8C64"/>
<path d="M139.63 25.11L140.25 18.04L141.36 18.13L140.75 25.21L139.63 25.11Z" fill="#4F8C64"/>
<path d="M147.34 20.52C147.268 20.4199 147.184 20.3292 147.09 20.25C146.959 20.1408 146.819 20.0438 146.67 19.96C146.502 19.8588 146.325 19.7751 146.14 19.71C145.946 19.6282 145.74 19.5776 145.53 19.56C145.173 19.4867 144.802 19.5287 144.47 19.68C144.349 19.7474 144.246 19.8439 144.171 19.9609C144.096 20.0778 144.051 20.2115 144.04 20.35C144.021 20.445 144.023 20.5428 144.043 20.6374C144.064 20.732 144.104 20.8214 144.16 20.9C144.304 21.072 144.485 21.2089 144.69 21.3C144.94 21.42 145.25 21.55 145.63 21.7C146.04 21.8487 146.435 22.0363 146.81 22.26C147.112 22.4325 147.363 22.6807 147.54 22.98C147.697 23.3097 147.746 23.6808 147.68 24.04C147.646 24.358 147.536 24.6632 147.36 24.93C147.203 25.169 146.986 25.3622 146.73 25.49C146.456 25.6223 146.162 25.7068 145.86 25.74C145.528 25.7781 145.192 25.7781 144.86 25.74C144.519 25.6892 144.184 25.6055 143.86 25.49C143.528 25.3747 143.21 25.2238 142.91 25.04C142.618 24.8639 142.35 24.6523 142.11 24.41L142.74 23.52C142.837 23.6425 142.948 23.7533 143.07 23.85C143.236 23.9883 143.413 24.1121 143.6 24.22C143.813 24.3465 144.038 24.4536 144.27 24.54C144.518 24.6358 144.777 24.7029 145.04 24.74C145.376 24.7971 145.722 24.7625 146.04 24.64C146.161 24.5844 146.266 24.4978 146.343 24.389C146.42 24.2802 146.468 24.1529 146.48 24.02C146.499 23.9144 146.495 23.8059 146.467 23.7022C146.439 23.5985 146.389 23.5021 146.32 23.42C146.15 23.2316 145.942 23.0816 145.71 22.98C145.43 22.84 145.09 22.69 144.71 22.54C144.327 22.3883 143.958 22.2008 143.61 21.98C143.344 21.8211 143.126 21.593 142.98 21.32C142.854 21.0272 142.816 20.7041 142.87 20.39C142.91 19.9712 143.082 19.5758 143.36 19.26C143.626 18.9651 143.974 18.7562 144.36 18.66C144.795 18.55 145.246 18.5262 145.69 18.59C145.995 18.6243 146.294 18.6982 146.58 18.81C146.846 18.9137 147.101 19.0444 147.34 19.2C147.566 19.3414 147.777 19.5056 147.97 19.69L147.34 20.52Z" fill="#4F8C64"/>
<path d="M152.89 19.79L154.05 23.65L156.74 20.65L157.94 20.91L154.38 24.8L153.84 27.28L152.75 27L153.29 24.5L151.69 19.5L152.89 19.79Z" fill="#4F8C64"/>
<path d="M159.75 28.84C159.286 28.7137 158.858 28.4808 158.5 28.16C158.167 27.8568 157.898 27.4895 157.71 27.08C157.513 26.6694 157.398 26.2245 157.37 25.77C157.287 24.8479 157.559 23.9289 158.13 23.2C158.41 22.8457 158.748 22.5414 159.13 22.3C159.518 22.062 159.95 21.9055 160.4 21.84C160.862 21.7693 161.333 21.8035 161.78 21.94C162.243 22.0675 162.668 22.3042 163.02 22.63C163.357 22.934 163.626 23.3054 163.81 23.72C163.997 24.1342 164.112 24.5772 164.15 25.03C164.189 25.4782 164.142 25.9299 164.01 26.36C163.881 26.8048 163.671 27.2218 163.39 27.59C163.111 27.9451 162.772 28.2496 162.39 28.49C162.002 28.725 161.57 28.8781 161.12 28.94C160.662 29.0092 160.194 28.975 159.75 28.84ZM158.6 24.75C158.497 25.0727 158.456 25.4121 158.48 25.75C158.487 26.0699 158.555 26.3855 158.68 26.68C158.798 26.9673 158.975 27.2264 159.2 27.44C159.441 27.6605 159.733 27.8185 160.05 27.9C160.372 28.0072 160.717 28.0279 161.05 27.96C161.355 27.9035 161.642 27.7768 161.89 27.59C162.149 27.4045 162.372 27.1742 162.55 26.91C162.908 26.368 163.093 25.7297 163.08 25.08C163.071 24.7625 163 24.4499 162.87 24.16C162.755 23.8744 162.577 23.6182 162.35 23.41C162.117 23.1867 161.831 23.0252 161.52 22.94C161.197 22.838 160.853 22.8174 160.52 22.88C160.215 22.9467 159.926 23.0724 159.67 23.25C159.416 23.4373 159.193 23.6634 159.01 23.92C158.832 24.1745 158.694 24.4543 158.6 24.75Z" fill="#4F8C64"/>
<path d="M166.9 31.28C166.435 31.1141 166.014 30.8439 165.67 30.49C165.388 30.1855 165.188 29.8137 165.09 29.41C164.986 29.0017 164.963 28.5773 165.02 28.16C165.072 27.714 165.183 27.2768 165.35 26.86L166.67 23.51L167.67 23.92L166.35 27.27C166.234 27.5635 166.151 27.8686 166.1 28.18C166.05 28.4712 166.05 28.7688 166.1 29.06C166.146 29.3374 166.267 29.5969 166.45 29.81C166.669 30.0449 166.939 30.2272 167.238 30.3433C167.538 30.4593 167.86 30.506 168.18 30.48C168.457 30.4411 168.719 30.3308 168.94 30.16C169.167 29.9765 169.365 29.7609 169.53 29.52C169.703 29.2596 169.847 28.9813 169.96 28.69L171.28 25.34L172.33 25.75L171.02 29.1C170.854 29.5324 170.628 29.9397 170.35 30.31C170.102 30.6539 169.79 30.9461 169.43 31.17C169.08 31.3802 168.687 31.5069 168.28 31.54C167.807 31.5524 167.336 31.4638 166.9 31.28Z" fill="#4F8C64"/>
<path d="M171.18 33L174.39 26.66L177.14 28.06C177.417 28.1938 177.657 28.3929 177.84 28.64C178.014 28.8743 178.143 29.1388 178.22 29.42C178.293 29.7039 178.316 29.9981 178.29 30.29C178.27 30.5794 178.192 30.8618 178.06 31.12C177.92 31.3929 177.73 31.6372 177.5 31.84C177.282 32.0412 177.023 32.1915 176.74 32.28C176.462 32.3679 176.168 32.3919 175.88 32.35L176.15 35.51L175 35L174.74 32.11L173.27 31.36L172.16 33.56L171.18 33ZM173.74 30.42L175.49 31.3C175.664 31.394 175.865 31.4257 176.06 31.39C176.266 31.3541 176.459 31.2644 176.62 31.13C176.797 30.9836 176.943 30.8035 177.05 30.6C177.157 30.3935 177.209 30.1626 177.2 29.93C177.197 29.718 177.145 29.5095 177.05 29.32C176.954 29.1444 176.808 29.0016 176.63 28.91L174.94 28.05L173.74 30.42Z" fill="#4F8C64"/>
<path d="M183.51 33.76C183.482 33.6363 183.442 33.5157 183.39 33.4C183.315 33.2485 183.232 33.1016 183.14 32.96C183.022 32.8027 182.895 32.6524 182.76 32.51C182.618 32.3588 182.457 32.2276 182.28 32.12C181.991 31.9034 181.641 31.7843 181.28 31.78C181.142 31.7888 181.009 31.8318 180.892 31.9051C180.775 31.9784 180.678 32.0798 180.61 32.2C180.552 32.2782 180.511 32.3672 180.489 32.4617C180.466 32.5563 180.463 32.6543 180.48 32.75C180.539 32.967 180.645 33.1683 180.79 33.34C180.97 33.55 181.19 33.8 181.47 34.1C181.777 34.4095 182.058 34.744 182.31 35.1C182.518 35.3935 182.636 35.7408 182.65 36.1C182.654 36.4577 182.546 36.8076 182.34 37.1C182.174 37.3738 181.944 37.6036 181.67 37.77C181.426 37.92 181.146 37.9996 180.86 38C180.554 38.0059 180.25 37.9585 179.96 37.86C179.639 37.7493 179.333 37.5981 179.05 37.41C178.752 37.2187 178.474 36.9976 178.22 36.75C177.97 36.5036 177.745 36.2322 177.55 35.94C177.364 35.6556 177.213 35.3501 177.1 35.03L178.05 34.49C178.084 34.6429 178.138 34.7908 178.21 34.93C178.41 35.3503 178.677 35.7353 179 36.07C179.182 36.2608 179.387 36.4287 179.61 36.57C179.903 36.7808 180.25 36.9055 180.61 36.93C180.744 36.9314 180.876 36.8969 180.992 36.83C181.108 36.7632 181.204 36.6665 181.27 36.55C181.332 36.4644 181.374 36.3665 181.395 36.263C181.416 36.1595 181.414 36.0528 181.39 35.95C181.311 35.705 181.185 35.4775 181.02 35.28C180.83 35.04 180.58 34.76 180.29 34.46C180.007 34.1505 179.752 33.8157 179.53 33.46C179.358 33.205 179.261 32.9072 179.25 32.6C179.252 32.2805 179.353 31.9694 179.54 31.71C179.754 31.3504 180.076 31.0671 180.46 30.9C180.83 30.7488 181.237 30.7072 181.63 30.78C182.073 30.8614 182.495 31.0315 182.87 31.28C183.13 31.4434 183.368 31.6382 183.58 31.86C183.971 32.2539 184.271 32.7283 184.46 33.25L183.51 33.76Z" fill="#4F8C64"/>
<path d="M116.68 102.19C115.578 102.19 114.501 102.517 113.585 103.129C112.669 103.741 111.956 104.611 111.534 105.628C111.112 106.646 111.002 107.766 111.217 108.847C111.432 109.927 111.962 110.92 112.741 111.699C113.52 112.478 114.513 113.008 115.593 113.223C116.674 113.438 117.794 113.328 118.812 112.906C119.829 112.484 120.699 111.771 121.311 110.855C121.923 109.939 122.25 108.862 122.25 107.76C122.25 106.283 121.663 104.866 120.619 103.821C119.574 102.777 118.157 102.19 116.68 102.19ZM113.52 106.69C113.52 106.19 113.8 105.79 114.14 105.79C114.48 105.79 114.77 106.19 114.77 106.69C114.77 107.19 114.49 107.59 114.14 107.59C113.79 107.59 113.52 107.19 113.52 106.69ZM119.52 108.98C119.264 109.504 118.867 109.945 118.373 110.254C117.879 110.562 117.308 110.726 116.725 110.726C116.142 110.726 115.571 110.562 115.077 110.254C114.583 109.945 114.186 109.504 113.93 108.98C113.906 108.928 113.902 108.869 113.921 108.815C113.94 108.761 113.979 108.716 114.03 108.69C114.083 108.665 114.144 108.662 114.2 108.68C114.256 108.699 114.302 108.738 114.33 108.79C114.55 109.237 114.891 109.614 115.315 109.877C115.738 110.14 116.227 110.28 116.725 110.28C117.223 110.28 117.712 110.14 118.135 109.877C118.559 109.614 118.9 109.237 119.12 108.79C119.145 108.737 119.19 108.696 119.246 108.676C119.301 108.657 119.362 108.66 119.415 108.685C119.468 108.71 119.509 108.755 119.529 108.811C119.548 108.866 119.545 108.927 119.52 108.98ZM119.26 107.59C118.92 107.59 118.64 107.19 118.64 106.69C118.64 106.19 118.92 105.79 119.26 105.79C119.6 105.79 119.89 106.19 119.89 106.69C119.89 107.19 119.56 107.59 119.21 107.59H119.26Z" fill="#4F8C64"/>
<path d="M139 102.19C137.898 102.19 136.821 102.517 135.905 103.129C134.989 103.741 134.276 104.611 133.854 105.628C133.432 106.646 133.322 107.766 133.537 108.847C133.752 109.927 134.282 110.92 135.061 111.699C135.84 112.478 136.833 113.008 137.913 113.223C138.994 113.438 140.114 113.328 141.132 112.906C142.149 112.484 143.019 111.771 143.631 110.855C144.243 109.939 144.57 108.862 144.57 107.76C144.57 106.283 143.983 104.866 142.939 103.821C141.894 102.777 140.477 102.19 139 102.19ZM135.84 106.69C135.84 106.19 136.12 105.79 136.47 105.79C136.82 105.79 137.1 106.19 137.1 106.69C137.1 107.19 136.82 107.59 136.47 107.59C136.12 107.59 135.8 107.19 135.8 106.69H135.84ZM141.79 108.98C141.533 109.501 141.136 109.94 140.643 110.247C140.15 110.553 139.581 110.716 139 110.716C138.419 110.716 137.85 110.553 137.357 110.247C136.864 109.94 136.467 109.501 136.21 108.98C136.197 108.955 136.188 108.927 136.186 108.898C136.184 108.869 136.188 108.84 136.197 108.813C136.206 108.786 136.221 108.761 136.241 108.74C136.26 108.719 136.284 108.702 136.31 108.69C136.362 108.666 136.421 108.662 136.475 108.681C136.529 108.7 136.574 108.739 136.6 108.79C136.822 109.237 137.164 109.613 137.588 109.875C138.012 110.138 138.501 110.277 139 110.277C139.499 110.277 139.988 110.138 140.412 109.875C140.836 109.613 141.178 109.237 141.4 108.79C141.426 108.739 141.471 108.7 141.525 108.681C141.579 108.662 141.638 108.666 141.69 108.69C141.715 108.706 141.736 108.727 141.752 108.751C141.769 108.776 141.78 108.803 141.786 108.832C141.791 108.861 141.791 108.891 141.785 108.92C141.779 108.949 141.767 108.976 141.75 109L141.79 108.98ZM141.54 107.59C141.19 107.59 140.91 107.19 140.91 106.69C140.91 106.19 141.19 105.79 141.54 105.79C141.89 105.79 142.17 106.19 142.17 106.69C142.17 107.19 141.85 107.59 141.5 107.59H141.54Z" fill="#4F8C64"/>
<path d="M127.82 102.19C126.718 102.19 125.641 102.517 124.725 103.129C123.809 103.741 123.096 104.611 122.674 105.628C122.252 106.646 122.142 107.766 122.357 108.847C122.572 109.927 123.102 110.92 123.881 111.699C124.66 112.478 125.653 113.008 126.733 113.223C127.814 113.438 128.934 113.328 129.952 112.906C130.969 112.484 131.839 111.771 132.451 110.855C133.063 109.939 133.39 108.862 133.39 107.76C133.39 106.283 132.803 104.866 131.759 103.821C130.714 102.777 129.297 102.19 127.82 102.19ZM124.66 106.69C124.66 106.19 124.94 105.78 125.29 105.78C125.64 105.78 125.92 106.19 125.92 106.69C125.92 107.19 125.63 107.59 125.29 107.59C124.95 107.59 124.66 107.19 124.66 106.69ZM130.51 110.69C130.484 110.704 130.455 110.712 130.426 110.714C130.396 110.717 130.367 110.713 130.339 110.704C130.311 110.694 130.285 110.679 130.263 110.66C130.241 110.64 130.223 110.617 130.21 110.59C129.99 110.143 129.649 109.766 129.225 109.503C128.802 109.24 128.313 109.1 127.815 109.1C127.317 109.1 126.828 109.24 126.405 109.503C125.981 109.766 125.64 110.143 125.42 110.59C125.407 110.617 125.389 110.64 125.367 110.66C125.345 110.679 125.319 110.694 125.291 110.704C125.263 110.713 125.234 110.717 125.204 110.714C125.175 110.712 125.146 110.704 125.12 110.69C125.069 110.664 125.03 110.619 125.011 110.565C124.992 110.511 124.996 110.452 125.02 110.4C125.278 109.879 125.677 109.441 126.171 109.135C126.664 108.829 127.234 108.666 127.815 108.666C128.396 108.666 128.966 108.829 129.459 109.135C129.953 109.441 130.352 109.879 130.61 110.4C130.634 110.452 130.638 110.511 130.619 110.565C130.6 110.619 130.561 110.664 130.51 110.69ZM130.35 107.59C130.01 107.59 129.73 107.19 129.73 106.69C129.73 106.19 130.01 105.78 130.35 105.78C130.69 105.78 130.98 106.19 130.98 106.69C130.98 107.19 130.71 107.59 130.35 107.59Z" fill="#4F8C64"/>
<path d="M58 111V103.9H59.12V110H63V111H58Z" fill="#4F8C64"/>
<path d="M64 104.89V103.68H65.1V104.89H64ZM64 111V105.77H65.1V111H64Z" fill="#4F8C64"/>
<path d="M74.58 111H73.48V108.1C73.5067 107.731 73.4232 107.362 73.24 107.04C73.1601 106.931 73.0542 106.844 72.932 106.786C72.8097 106.728 72.6749 106.702 72.54 106.71C72.2212 106.713 71.9148 106.834 71.68 107.05C71.4173 107.286 71.2266 107.591 71.13 107.93V111H70V108.1C70.0267 107.731 69.9432 107.362 69.76 107.04C69.6817 106.932 69.5775 106.845 69.457 106.787C69.3365 106.73 69.2034 106.703 69.07 106.71C68.7558 106.712 68.4532 106.829 68.22 107.04C67.9482 107.271 67.7501 107.577 67.65 107.92V111H66.55V105.81H67.55V106.81C67.7418 106.464 68.0211 106.174 68.36 105.97C68.7152 105.775 69.1148 105.675 69.52 105.68C69.8839 105.666 70.2403 105.787 70.52 106.02C70.7666 106.238 70.9294 106.535 70.98 106.86C71.1819 106.501 71.4707 106.198 71.82 105.98C72.1611 105.776 72.5527 105.672 72.95 105.68C73.2167 105.672 73.4813 105.731 73.72 105.85C73.9229 105.951 74.0902 106.112 74.2 106.31C74.319 106.518 74.4034 106.745 74.45 106.98C74.4944 107.248 74.5178 107.519 74.52 107.79L74.58 111Z" fill="#4F8C64"/>
<path d="M76.06 104.89V103.68H77.16V104.89H76.06ZM76.06 110.98V105.75H77.16V111L76.06 110.98Z" fill="#4F8C64"/>
<path d="M81.6 110.73C81.4874 110.789 81.3704 110.839 81.25 110.88C81.096 110.935 80.9391 110.982 80.78 111.02C80.5994 111.06 80.415 111.08 80.23 111.08C80.0141 111.083 79.7998 111.042 79.6 110.96C79.4116 110.883 79.2511 110.751 79.14 110.58C79.0126 110.373 78.9499 110.133 78.96 109.89V106.64H78.27V105.79H79V104.07H80.1V105.79H81.2V106.64H80.06V109.54C80.059 109.616 80.0747 109.691 80.1058 109.76C80.1368 109.829 80.1827 109.89 80.24 109.94C80.3457 110.03 80.4815 110.076 80.62 110.07C80.7701 110.069 80.9189 110.042 81.06 109.99L81.37 109.86L81.6 110.73Z" fill="#4F8C64"/>
<path d="M84.87 111.08C84.4896 111.086 84.112 111.014 83.76 110.87C83.1224 110.589 82.6174 110.073 82.35 109.43C82.2254 109.111 82.161 108.772 82.16 108.43C82.153 107.964 82.2685 107.505 82.4949 107.098C82.7213 106.69 83.0506 106.35 83.45 106.11C83.8824 105.855 84.378 105.726 84.88 105.74C85.2299 105.733 85.5777 105.797 85.9027 105.927C86.2276 106.057 86.5233 106.25 86.7722 106.496C87.0211 106.743 87.2181 107.036 87.3517 107.36C87.4853 107.683 87.5527 108.03 87.55 108.38C87.5552 108.457 87.5552 108.533 87.55 108.61C87.55 108.67 87.55 108.73 87.55 108.78H83.33C83.3399 109.063 83.4301 109.337 83.59 109.57C83.7305 109.796 83.9268 109.982 84.16 110.11C84.3908 110.233 84.6483 110.299 84.91 110.3C85.2043 110.301 85.4938 110.225 85.75 110.08C85.9898 109.956 86.1776 109.75 86.28 109.5L87.22 109.77C87.0991 110.03 86.9254 110.261 86.71 110.45C86.4699 110.661 86.1915 110.824 85.89 110.93C85.5622 111.043 85.2163 111.094 84.87 111.08ZM83.3 108H86.46C86.4427 107.723 86.3568 107.455 86.21 107.22C86.0628 106.999 85.8636 106.817 85.63 106.69C85.3977 106.566 85.1384 106.501 84.875 106.501C84.6116 106.501 84.3522 106.566 84.12 106.69C83.8875 106.815 83.6911 106.997 83.55 107.22C83.3991 107.453 83.3128 107.722 83.3 108Z" fill="#4F8C64"/>
<path d="M88.33 108.39C88.3235 107.923 88.4262 107.461 88.63 107.04C88.8222 106.642 89.111 106.298 89.47 106.04C89.83 105.797 90.256 105.672 90.69 105.68C91.0756 105.676 91.4542 105.784 91.78 105.99C92.0873 106.184 92.3443 106.448 92.53 106.76V103.65H93.63V109.71C93.6183 109.806 93.6433 109.902 93.7 109.98C93.7632 110.037 93.8449 110.069 93.93 110.07V111C93.7702 111.01 93.6098 111.01 93.45 111C93.2576 111.005 93.0697 110.941 92.92 110.82C92.8551 110.768 92.8019 110.703 92.764 110.629C92.7261 110.554 92.7043 110.473 92.7 110.39V110C92.5057 110.326 92.2255 110.592 91.89 110.77C91.5672 110.954 91.2017 111.051 90.83 111.05C90.4852 111.056 90.1435 110.984 89.83 110.84C89.5277 110.706 89.2582 110.508 89.04 110.26C88.8107 110.006 88.6309 109.71 88.51 109.39C88.3916 109.07 88.3307 108.731 88.33 108.39ZM92.53 109.11V107.76C92.4586 107.546 92.3349 107.354 92.17 107.2C92.0152 107.036 91.8323 106.9 91.63 106.8C91.4363 106.702 91.2222 106.65 91.005 106.65C90.7878 106.65 90.5737 106.702 90.38 106.8C90.1955 106.901 90.0297 107.033 89.89 107.19C89.7559 107.358 89.6511 107.547 89.58 107.75C89.508 107.963 89.4708 108.186 89.47 108.41C89.4682 108.639 89.5089 108.866 89.59 109.08C89.6696 109.282 89.7847 109.468 89.93 109.63C90.0818 109.788 90.2614 109.917 90.46 110.01C90.6626 110.095 90.8802 110.139 91.1 110.14C91.2533 110.137 91.4051 110.11 91.55 110.06C91.6997 110.007 91.8411 109.933 91.97 109.84C92.1056 109.752 92.2269 109.644 92.33 109.52C92.4203 109.396 92.488 109.257 92.53 109.11Z" fill="#4F8C64"/>
<path d="M161.86 111V103.9H163V110H166.81V111H161.86Z" fill="#4F8C64"/>
<path d="M167.77 104.89V103.68H168.87V104.89H167.77ZM167.77 110.98V105.75H168.87V111L167.77 110.98Z" fill="#4F8C64"/>
<path d="M178.4 111H177.3V108.1C177.327 107.731 177.243 107.362 177.06 107.04C176.98 106.931 176.874 106.844 176.752 106.786C176.63 106.728 176.495 106.702 176.36 106.71C176.044 106.713 175.741 106.834 175.51 107.05C175.241 107.282 175.046 107.588 174.95 107.93V111H173.85V108.1C173.877 107.731 173.793 107.362 173.61 107.04C173.532 106.932 173.428 106.845 173.307 106.787C173.186 106.73 173.053 106.703 172.92 106.71C172.606 106.714 172.304 106.831 172.07 107.04C171.801 107.274 171.604 107.579 171.5 107.92V111H170.4V105.81H171.4V106.81C171.593 106.461 171.876 106.171 172.22 105.97C172.571 105.774 172.968 105.674 173.37 105.68C173.734 105.665 174.091 105.786 174.37 106.02C174.617 106.238 174.779 106.535 174.83 106.86C175.032 106.501 175.321 106.198 175.67 105.98C176.012 105.778 176.403 105.674 176.8 105.68C177.067 105.672 177.332 105.73 177.57 105.85C177.773 105.951 177.94 106.112 178.05 106.31C178.173 106.517 178.258 106.743 178.3 106.98C178.349 107.247 178.373 107.518 178.37 107.79L178.4 111Z" fill="#4F8C64"/>
<path d="M179.88 104.89V103.68H181V104.89H179.88ZM179.88 110.98V105.75H181V111L179.88 110.98Z" fill="#4F8C64"/>
<path d="M185.42 110.73C185.307 110.789 185.19 110.839 185.07 110.88C184.916 110.935 184.759 110.982 184.6 111.02C184.419 111.06 184.235 111.08 184.05 111.08C183.834 111.081 183.62 111.04 183.42 110.96C183.232 110.883 183.071 110.751 182.96 110.58C182.833 110.373 182.77 110.133 182.78 109.89V106.64H182.09V105.79H182.78V104.07H183.88V105.79H185V106.64H183.86V109.54C183.862 109.615 183.878 109.69 183.909 109.758C183.94 109.827 183.985 109.889 184.04 109.94C184.146 110.03 184.281 110.076 184.42 110.07C184.57 110.07 184.719 110.042 184.86 109.99L185.17 109.86L185.42 110.73Z" fill="#4F8C64"/>
<path d="M188.69 111.08C188.313 111.085 187.939 111.013 187.59 110.87C187.268 110.73 186.976 110.53 186.73 110.28C186.494 110.035 186.307 109.746 186.18 109.43C186.028 109.049 185.961 108.639 185.985 108.229C186.01 107.82 186.124 107.42 186.32 107.06C186.555 106.638 186.901 106.289 187.321 106.051C187.74 105.813 188.218 105.695 188.7 105.71C189.05 105.703 189.398 105.767 189.723 105.897C190.048 106.027 190.343 106.22 190.592 106.466C190.841 106.713 191.038 107.006 191.172 107.33C191.305 107.653 191.373 108 191.37 108.35C191.375 108.427 191.375 108.503 191.37 108.58C191.375 108.637 191.375 108.693 191.37 108.75H187.18C187.195 109.032 187.284 109.305 187.44 109.54C187.583 109.764 187.779 109.949 188.01 110.08C188.254 110.214 188.527 110.284 188.805 110.284C189.083 110.284 189.356 110.214 189.6 110.08C189.84 109.956 190.028 109.75 190.13 109.5L191.07 109.77C190.953 110.032 190.778 110.264 190.56 110.45C190.323 110.665 190.044 110.829 189.74 110.93C189.403 111.046 189.046 111.097 188.69 111.08ZM187.12 108H190.28C190.267 107.722 190.181 107.453 190.03 107.22C189.886 106.999 189.69 106.817 189.46 106.69C189.224 106.561 188.959 106.495 188.69 106.5C188.428 106.496 188.169 106.562 187.94 106.69C187.71 106.817 187.514 106.999 187.37 107.22C187.223 107.455 187.137 107.723 187.12 108Z" fill="#4F8C64"/>
<path d="M192.15 108.39C192.143 107.922 192.25 107.459 192.46 107.04C192.645 106.64 192.931 106.295 193.29 106.04C193.651 105.799 194.076 105.673 194.51 105.68C194.896 105.676 195.274 105.784 195.6 105.99C195.907 106.184 196.164 106.448 196.35 106.76V103.65H197.45V109.71C197.443 109.805 197.468 109.9 197.52 109.98C197.584 110.035 197.665 110.067 197.75 110.07V111C197.59 111.011 197.43 111.011 197.27 111C197.081 111.005 196.896 110.941 196.75 110.82C196.682 110.77 196.626 110.705 196.587 110.631C196.547 110.557 196.524 110.474 196.52 110.39V110C196.326 110.326 196.046 110.592 195.71 110.77C195.387 110.954 195.022 111.051 194.65 111.05C194.305 111.056 193.963 110.984 193.65 110.84C193.348 110.706 193.078 110.508 192.86 110.26C192.63 110.008 192.453 109.712 192.34 109.39C192.214 109.072 192.149 108.732 192.15 108.39ZM196.35 109.11V107.76C196.279 107.549 196.159 107.357 196 107.2C195.84 107.038 195.654 106.902 195.45 106.8C195.261 106.704 195.052 106.653 194.84 106.65C194.621 106.647 194.404 106.699 194.21 106.8C194.022 106.896 193.855 107.028 193.72 107.19C193.583 107.358 193.475 107.547 193.4 107.75C193.328 107.963 193.291 108.186 193.29 108.41C193.288 108.639 193.329 108.866 193.41 109.08C193.489 109.285 193.608 109.471 193.76 109.63C193.906 109.79 194.083 109.919 194.28 110.01C194.483 110.095 194.7 110.139 194.92 110.14C195.073 110.138 195.225 110.111 195.37 110.06C195.522 110.005 195.666 109.931 195.8 109.84C195.93 109.749 196.048 109.642 196.15 109.52C196.24 109.396 196.308 109.257 196.35 109.11Z" fill="#4F8C64"/>
<path d="M218.92 56.79C218.305 56.7949 217.695 56.6864 217.12 56.47C216.589 56.2712 216.103 55.9687 215.69 55.58C215.284 55.2026 214.963 54.7422 214.75 54.23C214.526 53.6965 214.41 53.1237 214.41 52.545C214.41 51.9663 214.526 51.3935 214.75 50.86C214.966 50.3522 215.286 49.8956 215.69 49.52C216.106 49.1348 216.591 48.8327 217.12 48.63C217.696 48.417 218.306 48.3119 218.92 48.32C219.537 48.313 220.15 48.418 220.73 48.63C221.265 48.8324 221.757 49.1344 222.18 49.52C222.601 49.8942 222.941 50.3501 223.18 50.86C223.529 51.6523 223.62 52.5342 223.441 53.3812C223.261 54.2282 222.82 54.9974 222.18 55.58C221.76 55.969 221.267 56.2714 220.73 56.47C220.151 56.6854 219.538 56.7938 218.92 56.79ZM218.92 56.05C219.574 56.0602 220.221 55.9054 220.8 55.6C221.343 55.3124 221.799 54.8841 222.12 54.36C222.451 53.8263 222.622 53.2082 222.61 52.58C222.614 52.1065 222.522 51.637 222.34 51.2C222.155 50.7774 221.889 50.3956 221.556 50.0764C221.223 49.7572 220.83 49.5069 220.4 49.34C219.928 49.1572 219.426 49.0656 218.92 49.07C218.417 49.0649 217.918 49.1566 217.45 49.34C217.016 49.5083 216.621 49.7635 216.29 50.09C215.963 50.3976 215.707 50.7731 215.54 51.19C215.359 51.6206 215.268 52.0831 215.27 52.55C215.266 53.0171 215.358 53.48 215.54 53.91C215.713 54.3231 215.972 54.6947 216.3 55C216.631 55.3265 217.026 55.5818 217.46 55.75C217.926 55.9437 218.425 56.0456 218.93 56.05H218.92ZM216.92 50.05H219.26C219.573 50.0471 219.879 50.1376 220.14 50.31C220.392 50.4837 220.601 50.713 220.75 50.98C220.888 51.2347 220.961 51.5201 220.96 51.81C220.959 51.9937 220.929 52.1761 220.87 52.35C220.809 52.5238 220.725 52.6886 220.62 52.84C220.511 52.9893 220.379 53.1208 220.23 53.23L221.36 55H219.63L218.68 53.47H218.47V55H216.92V50.05ZM219.09 52.22C219.178 52.2205 219.264 52.1884 219.33 52.13C219.4 52.13 219.43 51.97 219.43 51.81C219.43 51.65 219.43 51.52 219.32 51.47C219.243 51.4271 219.158 51.4031 219.07 51.4H218.47V52.22H219.09Z" fill="#4F8C64"/>
</g>
<defs>
<clipPath id="clip0_0_5018">
<rect width="255.64" height="133.72" fill="white"/>
</clipPath>
</defs>
</svg>
