<svg width="316" height="196" viewBox="0 0 316 196" fill="none" xmlns="http://www.w3.org/2000/svg">
<g clip-path="url(#clip0_0_5063)">
<path d="M0 97.84L157.61 0L315.22 97.84L157.61 195.68L0 97.84Z" fill="#4329B5"/>
<path d="M126.06 42.07C127.739 42.07 129.1 40.7089 129.1 39.03C129.1 37.351 127.739 35.99 126.06 35.99C124.381 35.99 123.02 37.351 123.02 39.03C123.02 40.7089 124.381 42.07 126.06 42.07Z" fill="#FBF9F6"/>
<path d="M149.22 35.31C150.899 35.31 152.26 33.949 152.26 32.27C152.26 30.5911 150.899 29.23 149.22 29.23C147.541 29.23 146.18 30.5911 146.18 32.27C146.18 33.949 147.541 35.31 149.22 35.31Z" fill="#FBF9F6"/>
<path d="M167.91 36C169.589 36 170.95 34.639 170.95 32.96C170.95 31.2811 169.589 29.92 167.91 29.92C166.231 29.92 164.87 31.2811 164.87 32.96C164.87 34.639 166.231 36 167.91 36Z" fill="#FBF9F6"/>
<path d="M189.6 39.04C191.279 39.04 192.64 37.6789 192.64 36C192.64 34.321 191.279 32.96 189.6 32.96C187.921 32.96 186.56 34.321 186.56 36C186.56 37.6789 187.921 39.04 189.6 39.04Z" fill="#FBF9F6"/>
<path d="M173.18 49.16L168.18 39.87L159.35 49.38L151.42 39.87L143.04 49.61L131.04 42.36L136.93 67.73H177L185 41.68L173.18 49.16ZM157.32 62.4C156.399 62.396 155.5 62.1194 154.737 61.6049C153.973 61.0905 153.379 60.3613 153.029 59.5095C152.679 58.6576 152.59 57.7213 152.772 56.8187C152.954 55.916 153.399 55.0876 154.052 54.4379C154.704 53.7882 155.535 53.3463 156.438 53.1681C157.342 52.9899 158.278 53.0834 159.128 53.4367C159.978 53.7899 160.705 54.3872 161.216 55.1531C161.727 55.919 162 56.8192 162 57.74C162 58.3536 161.879 58.9612 161.643 59.5279C161.408 60.0946 161.063 60.6092 160.628 61.0422C160.193 61.4752 159.677 61.818 159.109 62.051C158.542 62.284 157.934 62.4026 157.32 62.4Z" fill="#FBF9F6"/>
<path d="M90.14 89.65H84.62V87.14H82.56V101.6H84.81V106.86H71.32V101.6H73.57V87.14H71.51V89.65H66V81.87H90.14V89.65Z" fill="#FBF9F6"/>
<path d="M117.61 87.14H116V101.6H117.61V106.86H105.47V101.6H107V96.3H102.5V101.6H104.04V106.86H91.91V101.6H93.52V87.14H91.91V81.87H104.05V87.14H102.51V92H107V87.14H105.46V81.87H117.6L117.61 87.14Z" fill="#FBF9F6"/>
<path d="M119.57 106.86V101.6H121.17V87.14H119.57V81.87H141.25V91.57H134.06V87.14H130.17V92.22H133V95.88H130.17V101.6H134.06V96.52H141.25V106.86H119.57Z" fill="#FBF9F6"/>
<path d="M177.52 101.6H179.12V106.86H170.35L165.54 96.86L164.06 98.08V101.55H165.6V106.81H153.46V101.6H155.06V87.14H153.46V81.87H165.6V87.14H164.06V91.38L169.06 87.14H167.06V81.87H179.06V87.14H177.46L172 91.57L177.52 101.6Z" fill="#FBF9F6"/>
<path d="M181 106.86V101.6H182.6V87.14H181V81.87H193.2V87.14H191.6V101.6H193.2V106.86H181Z" fill="#FBF9F6"/>
<path d="M213.63 81.87H224.16V87.14H222.56V106.86H213.56L204.15 92.38V101.6H205.69V106.86H195.12V101.6H196.73V87.14H195.12V81.87H206.72L215.17 94.75V87.14H213.63V81.87Z" fill="#FBF9F6"/>
<path d="M250.28 98.83H248.67V105.26C247.364 105.921 245.975 106.403 244.54 106.69C242.617 107.119 240.651 107.327 238.68 107.31C234.68 107.31 231.543 106.257 229.27 104.15C226.997 102.043 225.863 98.7833 225.87 94.37C225.87 89.85 226.997 86.5633 229.25 84.51C231.503 82.4567 234.733 81.4267 238.94 81.42C240.865 81.4112 242.785 81.626 244.66 82.06C246.054 82.3551 247.401 82.8431 248.66 83.51V91.19H240.66V89.68C240.735 88.9664 240.534 88.2511 240.1 87.68C239.583 87.2976 238.958 87.0912 238.315 87.0912C237.672 87.0912 237.047 87.2976 236.53 87.68C236.096 88.2511 235.895 88.9664 235.97 89.68V99.06C235.907 99.754 236.107 100.446 236.53 101C237.047 101.382 237.672 101.589 238.315 101.589C238.958 101.589 239.583 101.382 240.1 101C240.523 100.446 240.723 99.754 240.66 99.06V98.83H238.93V94.05H250.3L250.28 98.83Z" fill="#FBF9F6"/>
<path d="M96.87 120.68V121.42H93.94V120.68H96.87ZM94.79 119.33H95.66V124.72C95.6499 124.91 95.6877 125.099 95.77 125.27C95.8323 125.38 95.9314 125.465 96.05 125.51C96.1653 125.552 96.2873 125.572 96.41 125.57H96.65H96.79L96.97 126.35L96.72 126.42C96.587 126.433 96.453 126.433 96.32 126.42C96.0712 126.42 95.8255 126.365 95.6 126.26C95.3483 126.152 95.1358 125.97 94.9909 125.737C94.8461 125.505 94.776 125.234 94.79 124.96V119.33Z" fill="#FBF9F6"/>
<path d="M99.38 122.94V126.34H98.51V118.8H99.38V121.57H99.46C99.5848 121.284 99.7897 121.041 100.05 120.87C100.375 120.685 100.746 120.595 101.12 120.61C101.467 120.606 101.81 120.685 102.12 120.84C102.414 120.996 102.652 121.241 102.8 121.54C102.973 121.919 103.055 122.334 103.04 122.75V126.34H102.17V122.81C102.179 122.445 102.054 122.09 101.82 121.81C101.691 121.678 101.535 121.576 101.362 121.512C101.189 121.448 101.004 121.423 100.82 121.44C100.555 121.434 100.294 121.496 100.06 121.62C99.8318 121.74 99.6439 121.924 99.52 122.15C99.4145 122.399 99.3666 122.669 99.38 122.94Z" fill="#FBF9F6"/>
<path d="M107.22 126.46C106.728 126.47 106.243 126.342 105.82 126.09C105.425 125.853 105.109 125.505 104.91 125.09C104.691 124.614 104.581 124.094 104.59 123.57C104.582 123.039 104.691 122.513 104.91 122.03C105.111 121.623 105.419 121.277 105.8 121.03C106.202 120.781 106.667 120.653 107.14 120.66C107.436 120.661 107.73 120.712 108.01 120.81C108.298 120.914 108.563 121.074 108.79 121.28C109.044 121.525 109.236 121.826 109.35 122.16C109.501 122.587 109.573 123.038 109.56 123.49V123.86H105.21V123.11H108.68C108.687 122.812 108.622 122.517 108.49 122.25C108.374 122.003 108.186 121.797 107.95 121.66C107.708 121.508 107.426 121.432 107.14 121.44C106.82 121.432 106.506 121.523 106.24 121.7C105.992 121.865 105.791 122.092 105.66 122.36C105.527 122.634 105.459 122.935 105.46 123.24V123.74C105.447 124.112 105.522 124.482 105.68 124.82C105.815 125.101 106.031 125.334 106.3 125.49C106.579 125.653 106.897 125.736 107.22 125.73C107.431 125.73 107.64 125.696 107.84 125.63C108.023 125.564 108.189 125.459 108.327 125.323C108.465 125.187 108.572 125.022 108.64 124.84L109.48 125.08C109.389 125.361 109.235 125.618 109.03 125.83C108.81 126.047 108.548 126.217 108.26 126.33C107.924 126.437 107.572 126.482 107.22 126.46Z" fill="#FBF9F6"/>
<path d="M114.24 126.34V120.68H115.08V121.54H115.14C115.243 121.256 115.441 121.016 115.7 120.86C115.969 120.682 116.287 120.591 116.61 120.6H117.06V121.48H116.86C116.75 121.469 116.64 121.469 116.53 121.48C116.276 121.472 116.024 121.531 115.8 121.65C115.592 121.76 115.416 121.922 115.29 122.12C115.169 122.326 115.106 122.561 115.11 122.8V126.38L114.24 126.34Z" fill="#FBF9F6"/>
<path d="M121.87 124V120.65H122.74V126.31H121.87V125.31H121.82C121.68 125.603 121.466 125.854 121.2 126.04C120.887 126.249 120.516 126.354 120.14 126.34C119.812 126.346 119.488 126.266 119.2 126.11C118.913 125.948 118.686 125.7 118.55 125.4C118.377 125.028 118.295 124.62 118.31 124.21V120.61H119.18V124.15C119.169 124.332 119.194 124.513 119.254 124.685C119.315 124.857 119.408 125.015 119.53 125.15C119.643 125.272 119.781 125.368 119.935 125.432C120.088 125.496 120.254 125.526 120.42 125.52C120.649 125.517 120.875 125.462 121.08 125.36C121.309 125.243 121.503 125.067 121.64 124.85C121.801 124.596 121.881 124.3 121.87 124Z" fill="#FBF9F6"/>
<path d="M125.42 118.8V126.34H124.55V118.8H125.42Z" fill="#FBF9F6"/>
<path d="M129.6 126.46C129.105 126.471 128.616 126.343 128.19 126.09C127.795 125.853 127.479 125.505 127.28 125.09C127.061 124.614 126.951 124.094 126.96 123.57C126.952 123.039 127.061 122.513 127.28 122.03C127.481 121.623 127.789 121.277 128.17 121.03C128.572 120.781 129.037 120.653 129.51 120.66C129.806 120.661 130.1 120.712 130.38 120.81C130.693 120.918 130.977 121.095 131.211 121.329C131.445 121.563 131.622 121.847 131.73 122.16C131.881 122.587 131.953 123.038 131.94 123.49V123.86H127.58V123.11H131.05C131.057 122.812 130.992 122.517 130.86 122.25C130.745 122.006 130.561 121.801 130.33 121.66C130.084 121.509 129.799 121.433 129.51 121.44C129.19 121.432 128.876 121.523 128.61 121.7C128.364 121.867 128.164 122.095 128.03 122.36C127.897 122.634 127.829 122.935 127.83 123.24V123.74C127.817 124.112 127.892 124.482 128.05 124.82C128.185 125.101 128.401 125.334 128.67 125.49C128.952 125.655 129.274 125.738 129.6 125.73C129.811 125.729 130.02 125.695 130.22 125.63C130.398 125.561 130.56 125.46 130.7 125.33C130.839 125.192 130.945 125.025 131.01 124.84L131.85 125.08C131.759 125.361 131.605 125.618 131.4 125.83C131.182 126.049 130.919 126.22 130.63 126.33C130.298 126.437 129.948 126.481 129.6 126.46Z" fill="#FBF9F6"/>
<path d="M133.48 126.34V120.68H134.32V121.54H134.38C134.483 121.256 134.681 121.016 134.94 120.86C135.21 120.683 135.527 120.592 135.85 120.6H136.31V121.48H136.11C136 121.47 135.89 121.47 135.78 121.48C135.523 121.472 135.268 121.531 135.04 121.65C134.832 121.76 134.656 121.922 134.53 122.12C134.409 122.326 134.346 122.561 134.35 122.8V126.38L133.48 126.34Z" fill="#FBF9F6"/>
<path d="M143 126.46C142.532 126.471 142.071 126.345 141.673 126.098C141.275 125.852 140.958 125.494 140.76 125.07C140.539 124.591 140.429 124.068 140.44 123.54C140.429 123.009 140.539 122.483 140.76 122C140.963 121.59 141.274 121.244 141.66 121C142.065 120.758 142.528 120.63 143 120.63C143.472 120.63 143.935 120.758 144.34 121C144.728 121.242 145.041 121.588 145.24 122C145.461 122.483 145.571 123.009 145.56 123.54C145.571 124.068 145.461 124.591 145.24 125.07C145.041 125.482 144.728 125.828 144.34 126.07C143.94 126.326 143.475 126.462 143 126.46ZM143 125.68C143.359 125.704 143.714 125.597 144 125.38C144.254 125.174 144.445 124.9 144.55 124.59C144.666 124.269 144.727 123.931 144.73 123.59C144.733 123.229 144.672 122.87 144.55 122.53C144.442 122.221 144.252 121.948 144 121.74C143.718 121.545 143.383 121.441 143.04 121.441C142.697 121.441 142.362 121.545 142.08 121.74C141.828 121.948 141.638 122.221 141.53 122.53C141.408 122.87 141.347 123.229 141.35 123.59C141.353 123.931 141.414 124.269 141.53 124.59C141.635 124.9 141.826 125.174 142.08 125.38C142.345 125.58 142.668 125.685 143 125.68Z" fill="#FBF9F6"/>
<path d="M149.6 120.68V121.42H146.6V120.68H149.6ZM147.47 126.34V119.9C147.458 119.617 147.535 119.337 147.69 119.1C147.841 118.885 148.049 118.715 148.29 118.61C148.532 118.501 148.795 118.447 149.06 118.45C149.233 118.432 149.407 118.432 149.58 118.45C149.683 118.474 149.783 118.508 149.88 118.55L149.63 119.3L149.45 119.24C149.347 119.228 149.243 119.228 149.14 119.24C149.028 119.231 148.915 119.244 148.808 119.28C148.701 119.317 148.603 119.374 148.52 119.45C148.385 119.635 148.318 119.861 148.33 120.09V126.32L147.47 126.34Z" fill="#FBF9F6"/>
<path d="M156.63 120.68V121.42H153.7V120.68H156.63ZM154.55 119.33H155.42V124.72C155.41 124.91 155.448 125.099 155.53 125.27C155.592 125.38 155.691 125.465 155.81 125.51C155.926 125.55 156.047 125.57 156.17 125.57H156.41H156.56L156.73 126.35L156.49 126.42C156.354 126.432 156.216 126.432 156.08 126.42C155.834 126.421 155.592 126.366 155.37 126.26C155.132 126.159 154.927 125.992 154.78 125.78C154.619 125.537 154.539 125.251 154.55 124.96V119.33Z" fill="#FBF9F6"/>
<path d="M159.14 122.94V126.34H158.28V118.8H159.14V121.57H159.22C159.345 121.282 159.554 121.038 159.82 120.87C160.141 120.683 160.509 120.593 160.88 120.61C161.227 120.605 161.57 120.684 161.88 120.84C162.174 120.996 162.412 121.241 162.56 121.54C162.733 121.919 162.815 122.334 162.8 122.75V126.34H161.93V122.81C161.939 122.445 161.814 122.09 161.58 121.81C161.451 121.678 161.295 121.576 161.122 121.512C160.949 121.448 160.764 121.423 160.58 121.44C160.316 121.435 160.054 121.497 159.82 121.62C159.595 121.74 159.41 121.925 159.29 122.15C159.177 122.397 159.125 122.668 159.14 122.94Z" fill="#FBF9F6"/>
<path d="M167 126.46C166.505 126.471 166.016 126.343 165.59 126.09C165.195 125.853 164.879 125.505 164.68 125.09C164.461 124.614 164.351 124.094 164.36 123.57C164.352 123.039 164.461 122.513 164.68 122.03C164.881 121.623 165.189 121.277 165.57 121.03C165.972 120.781 166.437 120.653 166.91 120.66C167.206 120.661 167.5 120.712 167.78 120.81C168.093 120.918 168.377 121.095 168.611 121.329C168.845 121.563 169.022 121.847 169.13 122.16C169.281 122.587 169.353 123.038 169.34 123.49V123.86H165V123.11H168.47C168.477 122.812 168.412 122.517 168.28 122.25C168.165 122.006 167.981 121.801 167.75 121.66C167.504 121.509 167.219 121.433 166.93 121.44C166.61 121.432 166.296 121.523 166.03 121.7C165.784 121.867 165.584 122.095 165.45 122.36C165.317 122.634 165.249 122.935 165.25 123.24V123.74C165.237 124.112 165.312 124.482 165.47 124.82C165.605 125.101 165.821 125.334 166.09 125.49C166.372 125.655 166.694 125.738 167.02 125.73C167.231 125.729 167.44 125.695 167.64 125.63C167.818 125.561 167.98 125.46 168.12 125.33C168.256 125.19 168.361 125.023 168.43 124.84L169.27 125.08C169.179 125.361 169.025 125.618 168.82 125.83C168.602 126.049 168.339 126.22 168.05 126.33C167.711 126.439 167.355 126.483 167 126.46Z" fill="#FBF9F6"/>
<path d="M174 126.34V120.68H174.84V121.57H174.91C175.021 121.28 175.221 121.031 175.48 120.86C175.782 120.682 176.13 120.595 176.48 120.61C176.808 120.601 177.131 120.688 177.41 120.86C177.668 121.038 177.872 121.284 178 121.57C178.148 121.278 178.378 121.035 178.66 120.87C178.965 120.697 179.31 120.608 179.66 120.61C179.888 120.602 180.114 120.64 180.327 120.721C180.54 120.801 180.735 120.924 180.9 121.08C181.074 121.281 181.205 121.514 181.288 121.767C181.37 122.019 181.402 122.285 181.38 122.55V126.34H180.51V122.55C180.527 122.385 180.505 122.219 180.446 122.065C180.387 121.91 180.292 121.772 180.17 121.66C179.939 121.48 179.653 121.385 179.36 121.39C179.19 121.381 179.02 121.408 178.861 121.47C178.702 121.532 178.559 121.628 178.44 121.75C178.216 121.999 178.098 122.325 178.11 122.66V126.34H177.23V122.47C177.238 122.325 177.214 122.181 177.161 122.046C177.107 121.911 177.025 121.79 176.92 121.69C176.7 121.487 176.409 121.379 176.11 121.39C175.887 121.388 175.668 121.451 175.48 121.57C175.282 121.693 175.12 121.865 175.01 122.07C174.886 122.297 174.824 122.552 174.83 122.81V126.34H174Z" fill="#FBF9F6"/>
<path d="M185.52 126.46C185.052 126.471 184.591 126.345 184.193 126.098C183.795 125.852 183.478 125.494 183.28 125.07C183.059 124.591 182.949 124.068 182.96 123.54C182.949 123.009 183.059 122.483 183.28 122C183.483 121.59 183.794 121.244 184.18 121C184.585 120.758 185.048 120.63 185.52 120.63C185.992 120.63 186.455 120.758 186.86 121C187.251 121.239 187.563 121.586 187.76 122C187.986 122.481 188.096 123.009 188.08 123.54C188.095 124.068 187.986 124.592 187.76 125.07C187.563 125.484 187.251 125.831 186.86 126.07C186.46 126.326 185.995 126.462 185.52 126.46ZM185.52 125.68C185.879 125.704 186.234 125.597 186.52 125.38C186.774 125.174 186.965 124.9 187.07 124.59C187.195 124.271 187.259 123.932 187.26 123.59C187.265 123.228 187.2 122.868 187.07 122.53C186.962 122.221 186.772 121.948 186.52 121.74C186.234 121.523 185.879 121.416 185.52 121.44C185.161 121.413 184.805 121.52 184.52 121.74C184.265 121.948 184.071 122.221 183.96 122.53C183.838 122.87 183.777 123.229 183.78 123.59C183.783 123.931 183.844 124.269 183.96 124.59C184.069 124.901 184.263 125.174 184.52 125.38C184.805 125.6 185.161 125.707 185.52 125.68Z" fill="#FBF9F6"/>
<path d="M190.49 122.94V126.34H189.63V120.68H190.46V121.57H190.54C190.668 121.284 190.877 121.041 191.14 120.87C191.458 120.686 191.822 120.595 192.19 120.61C192.539 120.601 192.883 120.684 193.19 120.85C193.482 121.007 193.716 121.252 193.86 121.55C194.033 121.926 194.115 122.337 194.1 122.75V126.34H193.23V122.81C193.243 122.446 193.122 122.091 192.89 121.81C192.766 121.686 192.618 121.588 192.454 121.525C192.29 121.461 192.115 121.432 191.94 121.44C191.682 121.434 191.427 121.496 191.2 121.62C190.98 121.744 190.799 121.928 190.68 122.15C190.557 122.395 190.492 122.666 190.49 122.94Z" fill="#FBF9F6"/>
<path d="M197.57 126.47C197.226 126.478 196.885 126.409 196.57 126.27C196.284 126.141 196.041 125.933 195.87 125.67C195.692 125.39 195.601 125.062 195.61 124.73C195.602 124.455 195.668 124.182 195.8 123.94C195.927 123.739 196.107 123.577 196.32 123.47C196.538 123.347 196.774 123.259 197.02 123.21C197.28 123.148 197.544 123.101 197.81 123.07L198.64 122.97C198.803 122.96 198.962 122.919 199.11 122.85C199.16 122.819 199.201 122.774 199.227 122.721C199.254 122.668 199.265 122.609 199.26 122.55C199.278 122.243 199.173 121.941 198.97 121.71C198.848 121.602 198.705 121.52 198.55 121.469C198.396 121.417 198.232 121.397 198.07 121.41C197.716 121.383 197.363 121.478 197.07 121.68C196.855 121.826 196.683 122.026 196.57 122.26L195.74 121.97C195.868 121.653 196.074 121.374 196.34 121.16C196.577 120.974 196.849 120.838 197.14 120.76C197.424 120.682 197.716 120.642 198.01 120.64C198.222 120.642 198.433 120.665 198.64 120.71C198.884 120.755 199.117 120.843 199.33 120.97C199.564 121.117 199.754 121.324 199.88 121.57C200.043 121.902 200.119 122.27 200.1 122.64V126.37H199.23V125.6C199.152 125.748 199.05 125.883 198.93 126C198.774 126.15 198.591 126.269 198.39 126.35C198.127 126.444 197.849 126.485 197.57 126.47ZM197.7 125.69C198.002 125.7 198.302 125.631 198.57 125.49C198.796 125.367 198.983 125.184 199.11 124.96C199.229 124.757 199.291 124.525 199.29 124.29V123.5C199.222 123.561 199.139 123.602 199.05 123.62L198.63 123.71L198.16 123.77H197.79C197.577 123.8 197.366 123.847 197.16 123.91C196.982 123.968 196.821 124.067 196.69 124.2C196.621 124.29 196.57 124.392 196.54 124.502C196.511 124.612 196.503 124.726 196.518 124.838C196.533 124.951 196.57 125.059 196.627 125.157C196.684 125.255 196.76 125.341 196.85 125.41C197.098 125.588 197.395 125.686 197.7 125.69Z" fill="#FBF9F6"/>
<path d="M202 126.34V120.68H202.84V121.54H202.9C203.003 121.256 203.201 121.016 203.46 120.86C203.73 120.683 204.047 120.592 204.37 120.6H204.82V121.48H204.62C204.51 121.469 204.4 121.469 204.29 121.48C204.036 121.472 203.784 121.531 203.56 121.65C203.352 121.76 203.176 121.922 203.05 122.12C202.929 122.326 202.866 122.561 202.87 122.8V126.38L202 126.34Z" fill="#FBF9F6"/>
<path d="M208.16 126.46C207.676 126.47 207.2 126.338 206.79 126.08C206.413 125.831 206.109 125.486 205.91 125.08C205.706 124.606 205.601 124.096 205.601 123.58C205.601 123.064 205.706 122.554 205.91 122.08C206.111 121.673 206.419 121.327 206.8 121.08C207.202 120.831 207.667 120.703 208.14 120.71C208.509 120.704 208.874 120.779 209.21 120.93C209.517 121.073 209.788 121.285 210 121.55C210.206 121.821 210.333 122.142 210.37 122.48H209.51C209.433 122.212 209.28 121.973 209.07 121.79C208.81 121.581 208.483 121.474 208.15 121.49C207.834 121.486 207.524 121.576 207.26 121.75C207.002 121.94 206.798 122.196 206.67 122.49C206.523 122.845 206.451 123.226 206.46 123.61C206.451 124 206.522 124.389 206.67 124.75C206.789 125.055 206.994 125.319 207.26 125.51C207.52 125.693 207.832 125.787 208.15 125.78C208.363 125.783 208.574 125.742 208.77 125.66C208.949 125.585 209.106 125.469 209.23 125.32C209.36 125.165 209.455 124.985 209.51 124.79H210.37C210.324 125.118 210.198 125.429 210.003 125.696C209.807 125.963 209.549 126.178 209.25 126.32C208.903 126.451 208.529 126.499 208.16 126.46Z" fill="#FBF9F6"/>
<path d="M212.74 122.94V126.34H211.87V118.8H212.74V121.57H212.81C212.935 121.282 213.144 121.038 213.41 120.87C213.731 120.683 214.099 120.593 214.47 120.61C214.817 120.606 215.16 120.685 215.47 120.84C215.76 120.999 215.993 121.244 216.14 121.54C216.313 121.919 216.395 122.334 216.38 122.75V126.34H215.51V122.81C215.523 122.446 215.402 122.091 215.17 121.81C215.04 121.68 214.883 121.579 214.711 121.515C214.538 121.451 214.354 121.425 214.17 121.44C213.906 121.435 213.644 121.497 213.41 121.62C213.187 121.743 213.003 121.927 212.88 122.15C212.77 122.398 212.722 122.669 212.74 122.94Z" fill="#FBF9F6"/>
<path d="M218.56 128.46C218.431 128.477 218.299 128.477 218.17 128.46C218.086 128.453 218.005 128.429 217.93 128.39L218.15 127.63C218.333 127.676 218.521 127.697 218.71 127.69C218.875 127.671 219.028 127.593 219.14 127.47C219.298 127.29 219.417 127.079 219.49 126.85L219.65 126.41L217.56 120.72H218.5L220.06 125.23H220.12L221.68 120.72H222.62L220.23 127.2C220.135 127.464 219.996 127.711 219.82 127.93C219.67 128.112 219.482 128.258 219.27 128.36C219.042 128.441 218.801 128.475 218.56 128.46Z" fill="#FBF9F6"/>
<path d="M142.05 156.91L142.17 156.24L145.1 153.52C145.44 153.2 145.73 152.92 145.96 152.68C146.165 152.478 146.346 152.253 146.5 152.01C146.622 151.81 146.707 151.59 146.75 151.36C146.796 151.128 146.771 150.888 146.68 150.67C146.592 150.476 146.44 150.317 146.25 150.22C146.031 150.106 145.786 150.051 145.54 150.06C145.266 150.057 144.995 150.118 144.75 150.24C144.511 150.361 144.305 150.538 144.148 150.756C143.992 150.973 143.889 151.225 143.85 151.49H143C143.063 151.065 143.239 150.664 143.51 150.33C143.772 149.99 144.116 149.721 144.51 149.55C144.896 149.362 145.321 149.266 145.75 149.27C146.145 149.256 146.537 149.353 146.88 149.55C147.174 149.723 147.406 149.986 147.54 150.3C147.683 150.634 147.722 151.004 147.65 151.36C147.602 151.645 147.503 151.919 147.36 152.17C147.176 152.488 146.954 152.784 146.7 153.05C146.4 153.37 146 153.76 145.49 154.23L143.49 156.04V156.1H146.99L146.86 156.91H142.05Z" fill="#FBF9F6"/>
<path d="M151 157C150.51 157.027 150.03 156.862 149.66 156.54C149.291 156.191 149.054 155.724 148.99 155.22C148.871 154.528 148.871 153.822 148.99 153.13C149.098 152.404 149.317 151.699 149.64 151.04C149.903 150.515 150.287 150.059 150.76 149.71C151.199 149.411 151.719 149.254 152.25 149.26C152.736 149.236 153.212 149.401 153.58 149.72C153.952 150.07 154.195 150.535 154.27 151.04C154.394 151.731 154.394 152.439 154.27 153.13C154.168 153.859 153.945 154.565 153.61 155.22C153.356 155.746 152.975 156.2 152.5 156.54C152.061 156.848 151.536 157.009 151 157ZM151.13 156.19C151.414 156.182 151.691 156.105 151.939 155.965C152.186 155.826 152.396 155.629 152.55 155.39C152.999 154.712 153.283 153.938 153.38 153.13C153.485 152.58 153.508 152.017 153.45 151.46C153.411 151.076 153.262 150.711 153.02 150.41C152.908 150.29 152.772 150.195 152.62 150.133C152.468 150.071 152.304 150.042 152.14 150.05C151.858 150.058 151.582 150.136 151.337 150.278C151.093 150.419 150.888 150.619 150.74 150.86C150.287 151.54 150.002 152.318 149.91 153.13C149.8 153.676 149.777 154.236 149.84 154.79C149.878 155.156 150.02 155.503 150.25 155.79C150.356 155.918 150.489 156.021 150.639 156.092C150.79 156.163 150.954 156.2 151.12 156.2L151.13 156.19Z" fill="#FBF9F6"/>
<path d="M155.24 156.91L155.35 156.24L158.28 153.52C158.63 153.2 158.91 152.92 159.14 152.68C159.345 152.478 159.526 152.253 159.68 152.01C159.807 151.813 159.892 151.591 159.93 151.36C159.981 151.128 159.956 150.887 159.86 150.67C159.775 150.474 159.622 150.314 159.43 150.22C159.211 150.106 158.967 150.051 158.72 150.06C158.446 150.057 158.175 150.118 157.93 150.24C157.699 150.361 157.497 150.532 157.34 150.74C157.177 150.961 157.07 151.218 157.03 151.49H156.16C156.233 151.072 156.406 150.677 156.663 150.34C156.921 150.002 157.256 149.731 157.64 149.55C158.029 149.361 158.457 149.265 158.89 149.27C159.282 149.256 159.67 149.353 160.01 149.55C160.309 149.717 160.542 149.982 160.67 150.3C160.813 150.634 160.852 151.004 160.78 151.36C160.736 151.646 160.638 151.921 160.49 152.17C160.306 152.488 160.084 152.784 159.83 153.05C159.53 153.37 159.13 153.76 158.62 154.23L156.62 156.04V156.1H160.12L159.99 156.91H155.24Z" fill="#FBF9F6"/>
<path d="M161.72 156.91L161.84 156.24L164.77 153.52C165.11 153.2 165.4 152.92 165.63 152.68C165.835 152.478 166.016 152.253 166.17 152.01C166.292 151.81 166.377 151.59 166.42 151.36C166.466 151.128 166.441 150.888 166.35 150.67C166.262 150.476 166.11 150.317 165.92 150.22C165.701 150.106 165.457 150.051 165.21 150.06C164.936 150.057 164.665 150.118 164.42 150.24C164.181 150.361 163.975 150.538 163.818 150.756C163.662 150.973 163.559 151.225 163.52 151.49H162.65C162.713 151.065 162.889 150.664 163.16 150.33C163.422 149.99 163.766 149.721 164.16 149.55C164.546 149.362 164.971 149.266 165.4 149.27C165.795 149.256 166.187 149.353 166.53 149.55C166.824 149.723 167.056 149.986 167.19 150.3C167.333 150.634 167.372 151.004 167.3 151.36C167.252 151.645 167.153 151.919 167.01 152.17C166.826 152.488 166.604 152.784 166.35 153.05C166.05 153.37 165.65 153.76 165.14 154.23L163.14 156.04V156.1H166.64L166.51 156.91H161.72Z" fill="#FBF9F6"/>
<path d="M171.69 155.15C171.296 155.154 170.905 155.08 170.54 154.93C170.19 154.777 169.871 154.56 169.6 154.29C169.05 153.737 168.742 152.989 168.742 152.21C168.742 151.431 169.05 150.683 169.6 150.13C169.871 149.86 170.19 149.643 170.54 149.49C171.275 149.197 172.095 149.197 172.83 149.49C173.179 149.645 173.497 149.862 173.77 150.13C174.045 150.402 174.262 150.726 174.411 151.083C174.56 151.44 174.636 151.823 174.636 152.21C174.636 152.597 174.56 152.98 174.411 153.337C174.262 153.694 174.045 154.018 173.77 154.29C173.501 154.558 173.186 154.774 172.84 154.93C172.475 155.08 172.084 155.155 171.69 155.15ZM171.69 154.45C172.084 154.454 172.471 154.35 172.81 154.15C173.143 153.952 173.422 153.673 173.62 153.34C173.816 152.996 173.92 152.606 173.92 152.21C173.92 151.814 173.816 151.424 173.62 151.08C173.419 150.749 173.141 150.471 172.81 150.27C172.468 150.073 172.08 149.97 171.685 149.97C171.29 149.97 170.902 150.073 170.56 150.27C170.229 150.471 169.951 150.749 169.75 151.08C169.554 151.424 169.45 151.814 169.45 152.21C169.45 152.606 169.554 152.996 169.75 153.34C169.948 153.673 170.227 153.952 170.56 154.15C170.902 154.351 171.293 154.455 171.69 154.45ZM170.45 153.53L170.9 150.82H172.27C172.392 150.823 172.512 150.853 172.62 150.91C172.742 150.977 172.843 151.078 172.91 151.2C172.983 151.352 173.004 151.524 172.97 151.69C172.939 151.876 172.856 152.049 172.73 152.19C172.621 152.324 172.485 152.433 172.33 152.51C172.21 152.573 172.076 152.608 171.94 152.61H170.94L171.02 152.17H171.82C171.927 152.16 172.028 152.118 172.11 152.05C172.167 152.008 172.214 151.954 172.249 151.892C172.283 151.829 172.304 151.761 172.31 151.69C172.31 151.52 172.31 151.41 172.22 151.35C172.154 151.298 172.074 151.266 171.99 151.26H171.42L171.04 153.53H170.45ZM172.3 152.25L172.77 153.53H172.11L171.66 152.25H172.3Z" fill="#FBF9F6"/>
</g>
<defs>
<clipPath id="clip0_0_5063">
<rect width="315.22" height="195.68" fill="white"/>
</clipPath>
</defs>
</svg>
