<svg width="215" height="186" viewBox="0 0 215 186" fill="none" xmlns="http://www.w3.org/2000/svg">
<g clip-path="url(#clip0_0_5106)">
<path d="M107.25 0L0 185.77H214.51L107.25 0Z" fill="#FFDFD7"/>
<path d="M111.91 74.15L117.09 58.49C117.107 58.4251 117.148 58.3691 117.205 58.3328C117.262 58.2966 117.33 58.2827 117.396 58.294C117.462 58.3052 117.522 58.3408 117.563 58.3937C117.605 58.4466 117.625 58.513 117.62 58.58L117.33 76.08C117.33 76.1278 117.343 76.1747 117.367 76.216C117.391 76.2572 117.426 76.2912 117.468 76.3146C117.51 76.338 117.557 76.3499 117.605 76.3491C117.652 76.3483 117.699 76.3348 117.74 76.31L132.36 66.14C132.408 66.1065 132.466 66.0885 132.525 66.0885C132.584 66.0885 132.642 66.1065 132.69 66.14L135.78 68.92C135.825 68.9711 135.85 69.0369 135.85 69.105C135.85 69.1731 135.825 69.2389 135.78 69.29L124.43 82.94C124.398 82.9797 124.378 83.0276 124.372 83.0783C124.366 83.1289 124.374 83.1803 124.396 83.2263C124.418 83.2724 124.453 83.3112 124.496 83.3384C124.539 83.3656 124.589 83.3801 124.64 83.38L142.44 83.08C142.499 83.0829 142.556 83.1053 142.602 83.1438C142.647 83.1823 142.678 83.2346 142.691 83.2928C142.703 83.3509 142.696 83.4116 142.671 83.4653C142.645 83.5191 142.603 83.5629 142.55 83.59L128.3 90.18C128.258 90.2021 128.223 90.2352 128.199 90.2757C128.174 90.3162 128.161 90.3627 128.161 90.41C128.161 90.4574 128.174 90.5038 128.199 90.5443C128.223 90.5849 128.258 90.6179 128.3 90.64L144.3 100.1C144.355 100.133 144.396 100.184 144.418 100.244C144.44 100.304 144.441 100.37 144.42 100.43L143.78 102.01C143.755 102.071 143.709 102.121 143.65 102.151C143.591 102.18 143.524 102.187 143.46 102.17L126.24 96.74C126.189 96.7218 126.134 96.7197 126.082 96.7341C126.031 96.7485 125.985 96.7786 125.951 96.8203C125.917 96.862 125.896 96.9132 125.893 96.9669C125.889 97.0206 125.902 97.0741 125.93 97.12L136 114.58C136.026 114.625 136.039 114.677 136.036 114.729C136.034 114.782 136.016 114.832 135.985 114.875C135.955 114.917 135.912 114.949 135.863 114.968C135.814 114.987 135.761 114.991 135.71 114.98L115.71 109.31C115.668 109.298 115.623 109.296 115.581 109.306C115.538 109.315 115.498 109.335 115.465 109.364C115.432 109.393 115.407 109.43 115.392 109.471C115.377 109.512 115.373 109.557 115.38 109.6L117.38 127.11C117.391 127.172 117.38 127.236 117.348 127.29C117.316 127.344 117.265 127.385 117.205 127.405C117.145 127.424 117.08 127.421 117.022 127.397C116.964 127.372 116.917 127.327 116.89 127.27L108.24 111.6C108.216 111.558 108.182 111.524 108.141 111.5C108.1 111.476 108.053 111.463 108.005 111.463C107.957 111.463 107.91 111.476 107.869 111.5C107.828 111.524 107.794 111.558 107.77 111.6L98.59 128.23C98.5598 128.29 98.5076 128.336 98.4442 128.359C98.3808 128.381 98.3112 128.378 98.25 128.35L94.99 126.88C94.9317 126.858 94.8835 126.815 94.8542 126.76C94.8248 126.705 94.8162 126.641 94.83 126.58L98.66 109.3C98.671 109.249 98.6669 109.196 98.6482 109.147C98.6294 109.098 98.5969 109.055 98.5545 109.025C98.5121 108.994 98.4617 108.976 98.4094 108.974C98.3571 108.971 98.3052 108.984 98.26 109.01L82.85 118.31C82.7984 118.341 82.7381 118.353 82.6785 118.346C82.619 118.338 82.5637 118.311 82.5212 118.269C82.4788 118.226 82.4517 118.171 82.4443 118.111C82.4368 118.052 82.4494 117.992 82.48 117.94L91.8 102.33C91.8257 102.29 91.8398 102.244 91.841 102.196C91.8421 102.148 91.8302 102.101 91.8065 102.06C91.7827 102.019 91.7481 101.985 91.7064 101.962C91.6647 101.939 91.6175 101.928 91.57 101.93L74.38 102.21C74.3191 102.205 74.2616 102.18 74.2168 102.139C74.172 102.098 74.1425 102.042 74.1333 101.982C74.124 101.921 74.1354 101.86 74.1657 101.807C74.196 101.754 74.2433 101.713 74.3 101.69L90 97.12C90.05 97.1048 90.0945 97.0754 90.1281 97.0354C90.1617 96.9953 90.183 96.9464 90.1894 96.8945C90.1957 96.8426 90.1869 96.79 90.1639 96.7431C90.141 96.6961 90.1048 96.6568 90.06 96.63L70.21 85.69C70.1617 85.6616 70.1235 85.6188 70.1006 85.5676C70.0778 85.5164 70.0714 85.4594 70.0824 85.4045C70.0934 85.3495 70.1212 85.2994 70.162 85.2609C70.2028 85.2225 70.2545 85.1977 70.31 85.19L92.61 83.06C92.6557 83.0562 92.6996 83.0403 92.7373 83.014C92.7749 82.9877 92.8049 82.9519 92.8242 82.9102C92.8435 82.8686 92.8514 82.8226 92.8472 82.7769C92.8429 82.7312 92.8266 82.6874 92.8 82.65L82.7 67.42C82.6657 67.371 82.6494 67.3116 82.6538 67.2519C82.6582 67.1922 82.6831 67.1359 82.7242 67.0924C82.7653 67.0489 82.8202 67.0209 82.8796 67.0132C82.9389 67.0055 82.9991 67.0185 83.05 67.05L98.48 76.35C98.5192 76.3768 98.5653 76.3919 98.6127 76.3935C98.6602 76.3951 98.7072 76.3831 98.7481 76.359C98.789 76.3349 98.8222 76.2996 98.8438 76.2572C98.8654 76.2149 98.8745 76.1673 98.87 76.12L98.58 57.67C98.5799 57.6142 98.5972 57.5596 98.6294 57.514C98.6616 57.4684 98.7072 57.4339 98.7599 57.4152C98.8125 57.3966 98.8697 57.3947 98.9234 57.4099C98.9772 57.4251 99.0249 57.4566 99.06 57.5L111.46 74.22C111.486 74.2602 111.524 74.292 111.568 74.3115C111.611 74.331 111.66 74.3375 111.708 74.3301C111.755 74.3227 111.799 74.3018 111.835 74.2698C111.871 74.2379 111.897 74.1963 111.91 74.15Z" fill="#F8442E"/>
<path d="M29.2 178V161L28.58 157.9L29.2 156.04H41C42.9618 155.945 44.9095 156.417 46.61 157.4C47.2984 157.845 47.8564 158.464 48.2271 159.195C48.5978 159.926 48.7679 160.742 48.72 161.56C48.7505 162.423 48.5612 163.28 48.17 164.05C47.8226 164.688 47.3538 165.252 46.79 165.71C47.5115 165.88 48.1916 166.193 48.79 166.63C49.4247 167.093 49.9447 167.695 50.31 168.39C50.7252 169.232 50.9278 170.162 50.9 171.1C50.9596 172.036 50.8212 172.974 50.4938 173.853C50.1664 174.731 49.6574 175.531 49 176.2C47.7 177.4 45.6467 178 42.84 178H29.2ZM36 164.59H39.65C40.1771 164.635 40.7058 164.524 41.17 164.27C41.326 164.156 41.4508 164.005 41.533 163.83C41.6151 163.655 41.6519 163.463 41.64 163.27C41.6514 163.052 41.5911 162.836 41.4683 162.656C41.3455 162.475 41.167 162.34 40.96 162.27C40.4474 162.069 39.9005 161.97 39.35 161.98H36V164.59ZM36 172.13H41.27C41.8733 172.185 42.4787 172.049 43 171.74C43.1541 171.623 43.2793 171.471 43.3659 171.298C43.4526 171.125 43.4985 170.934 43.5 170.74C43.5 169.74 42.86 169.25 41.58 169.25H36V172.13Z" fill="#F8442E"/>
<path d="M54.93 178V161L54.62 157.9L54.93 156.04H61.78V178.04L54.93 178Z" fill="#F8442E"/>
<path d="M77.74 178.33C76.0611 178.346 74.3852 178.185 72.74 177.85C71.3188 177.565 69.9753 176.978 68.8 176.13C67.6407 175.238 66.7484 174.044 66.22 172.68C65.5491 170.878 65.2366 168.962 65.3 167.04C65.2489 165.122 65.5891 163.213 66.3 161.43C66.8621 160.079 67.7648 158.898 68.92 158C70.0419 157.166 71.3262 156.577 72.69 156.27C74.1324 155.934 75.6089 155.766 77.09 155.77C78.0221 155.766 78.9537 155.816 79.88 155.92C80.6506 156.013 81.4152 156.15 82.17 156.33L86.39 158.78L84.22 164.23L77.37 162.15C76.5347 162.141 75.7047 162.284 74.92 162.57C74.1761 162.853 73.549 163.377 73.14 164.06C72.6442 164.979 72.4123 166.017 72.47 167.06C72.47 169.06 72.9 170.45 73.76 171.23C74.7732 172.084 76.0773 172.514 77.4 172.43C77.8989 172.436 78.3974 172.4 78.89 172.32C79.2318 172.265 79.5669 172.174 79.89 172.05V170.35H77.19V165.45H87L87.34 167.31L86.66 170.5V177C86.43 177.09 85.92 177.23 85.13 177.44C82.699 178.037 80.2032 178.329 77.7 178.31L77.74 178.33Z" fill="#F8442E"/>
<path d="M91.38 178V161L90.76 157.9L91.38 156.04H103.16C105.122 155.942 107.071 156.414 108.77 157.4C109.46 157.843 110.019 158.462 110.39 159.193C110.761 159.925 110.93 160.742 110.88 161.56C110.914 162.422 110.728 163.279 110.34 164.05C109.993 164.688 109.524 165.252 108.96 165.71C109.681 165.881 110.361 166.194 110.96 166.63C111.598 167.089 112.119 167.692 112.48 168.39C112.895 169.232 113.098 170.162 113.07 171.1C113.127 172.032 112.986 172.965 112.657 173.839C112.327 174.713 111.817 175.507 111.16 176.17C109.88 177.39 107.827 178 105 178H91.38ZM98.2 164.57H101.86C102.387 164.614 102.915 164.503 103.38 164.25C103.535 164.136 103.658 163.984 103.739 163.809C103.819 163.634 103.854 163.442 103.84 163.25C103.851 163.032 103.791 162.816 103.668 162.636C103.546 162.455 103.367 162.32 103.16 162.25C102.648 162.047 102.101 161.948 101.55 161.96H98.2V164.57ZM98.2 172.11H103.47C104.077 172.166 104.685 172.03 105.21 171.72C105.363 171.602 105.487 171.45 105.571 171.277C105.656 171.104 105.7 170.913 105.7 170.72C105.7 169.72 105.06 169.23 103.78 169.23H98.2V172.11Z" fill="#F8442E"/>
<path d="M115.25 178L116.74 172.76V168.82L119.03 167.89L123.37 156.08H132.7L138 170L140.38 174.4V178H133.66L132.11 173.38H123.7L122.38 178H115.25ZM125.76 168H130.41L128.41 161.83H127.76L125.76 168Z" fill="#F8442E"/>
<path d="M143.83 178V161L143.21 157.9L143.83 156.04H150.06L156.33 163.85L157.81 166.42H158.13V156.1H165.29V158L164.98 161.1V178.1H158.81L151 167.42H150.69V169.27L151 178H143.83Z" fill="#F8442E"/>
<path d="M181.25 178.33C179.571 178.346 177.895 178.185 176.25 177.85C174.829 177.565 173.485 176.978 172.31 176.13C171.151 175.238 170.258 174.044 169.73 172.68C169.059 170.878 168.747 168.962 168.81 167.04C168.759 165.122 169.099 163.213 169.81 161.43C170.371 160.076 171.273 158.89 172.43 157.99C173.552 157.156 174.836 156.567 176.2 156.26C177.642 155.924 179.119 155.756 180.6 155.76C181.532 155.756 182.464 155.806 183.39 155.91C184.161 156.003 184.925 156.14 185.68 156.32L189.9 158.77L187.73 164.22L180.88 162.14C180.045 162.13 179.214 162.273 178.43 162.56C177.686 162.842 177.059 163.367 176.65 164.05C176.154 164.969 175.922 166.007 175.98 167.05C175.98 169.05 176.41 170.44 177.27 171.22C178.283 172.074 179.587 172.504 180.91 172.42C181.409 172.426 181.907 172.389 182.4 172.31C182.742 172.255 183.077 172.164 183.4 172.04V170.34H180.7V165.44H190.56L190.9 167.3L190.22 170.49V177C189.99 177.09 189.48 177.23 188.69 177.44C186.259 178.037 183.763 178.329 181.26 178.31L181.25 178.33Z" fill="#F8442E"/>
<path d="M72.13 122.65L72.4 123.07L69.8 124.78C69.7017 124.835 69.6191 124.914 69.56 125.01C69.5408 125.079 69.5408 125.151 69.56 125.22C69.5815 125.29 69.6118 125.357 69.65 125.42L69.73 125.52L69.79 125.59L69.47 125.92C69.4283 125.893 69.3911 125.859 69.36 125.82C69.3031 125.766 69.2528 125.706 69.21 125.64C69.1379 125.516 69.0872 125.381 69.06 125.24C69.0273 125.095 69.0273 124.945 69.06 124.8C69.1323 124.648 69.2468 124.519 69.39 124.43L72.13 122.65ZM72.13 124.09L71.77 124.32L70.85 122.9L71.2 122.67L72.13 124.09Z" fill="#F8442E"/>
<path d="M71.9 126L70.33 127.19L70.03 126.79L73.5 124.15L73.81 124.55L72.53 125.55C72.7034 125.502 72.8865 125.502 73.06 125.55C73.254 125.646 73.4223 125.786 73.551 125.96C73.6797 126.134 73.7651 126.336 73.8 126.55C73.829 126.741 73.7976 126.937 73.71 127.11C73.5976 127.321 73.4365 127.503 73.24 127.64L71.59 128.9L71.28 128.5L72.91 127.26C73.0939 127.141 73.2233 126.954 73.27 126.74C73.2854 126.637 73.2782 126.531 73.2488 126.431C73.2194 126.331 73.1687 126.239 73.1 126.16C73.0107 126.034 72.89 125.934 72.75 125.87C72.6187 125.81 72.4729 125.789 72.33 125.81C72.1736 125.838 72.0262 125.903 71.9 126Z" fill="#F8442E"/>
<path d="M73.31 131C73.1112 130.792 72.9759 130.532 72.92 130.25C72.8718 129.988 72.8996 129.717 73 129.47C73.1251 129.192 73.3059 128.944 73.5313 128.739C73.7567 128.534 74.0217 128.378 74.31 128.28C74.5687 128.21 74.8413 128.21 75.1 128.28C75.3654 128.35 75.6027 128.5 75.78 128.71C75.897 128.836 75.9917 128.982 76.06 129.14C76.1356 129.317 76.1694 129.51 76.159 129.702C76.1486 129.894 76.0942 130.082 76 130.25C75.8773 130.48 75.7109 130.684 75.51 130.85L75.35 131L73.66 129.12L73.99 128.83L75.33 130.33C75.46 130.214 75.5625 130.071 75.63 129.91C75.686 129.76 75.6988 129.597 75.667 129.439C75.6352 129.282 75.56 129.137 75.45 129.02C75.3294 128.879 75.1691 128.778 74.99 128.73C74.8229 128.686 74.6471 128.686 74.48 128.73C74.3125 128.777 74.1583 128.863 74.03 128.98L73.81 129.18C73.6448 129.318 73.5146 129.492 73.43 129.69C73.3658 129.859 73.3485 130.042 73.38 130.22C73.4147 130.371 73.4819 130.513 73.5769 130.636C73.6719 130.758 73.7924 130.859 73.93 130.93C74.0242 130.987 74.1303 131.021 74.24 131.03C74.3531 131.034 74.4657 131.014 74.57 130.97L74.8 131.42C74.6445 131.497 74.4734 131.537 74.3 131.537C74.1266 131.537 73.9555 131.497 73.8 131.42C73.6103 131.314 73.4437 131.171 73.31 131Z" fill="#F8442E"/>
<path d="M76.49 134.06L79.33 130.75L79.71 131.08L78.71 132.3L78.97 132.23C79.0921 132.205 79.2179 132.205 79.34 132.23C79.5128 132.271 79.6716 132.357 79.8 132.48C80.0013 132.642 80.1479 132.862 80.22 133.11C80.2848 133.359 80.2848 133.621 80.22 133.87C80.1271 134.165 79.9738 134.437 79.77 134.67C79.573 134.906 79.3275 135.097 79.05 135.23C78.8142 135.345 78.5505 135.39 78.29 135.36C78.0375 135.327 77.8008 135.219 77.61 135.05C77.4727 134.943 77.3658 134.801 77.3 134.64C77.2496 134.523 77.2257 134.397 77.23 134.27C77.23 134.16 77.23 134.06 77.23 134L76.91 134.38L76.49 134.06ZM77.93 133.14C77.7822 133.309 77.6638 133.502 77.58 133.71C77.5305 133.887 77.5305 134.073 77.58 134.25C77.6279 134.429 77.7292 134.589 77.8704 134.708C78.0115 134.828 78.1858 134.902 78.37 134.92C78.5596 134.925 78.7469 134.877 78.91 134.78C79.0999 134.679 79.2667 134.539 79.4 134.37C79.5426 134.212 79.6546 134.029 79.73 133.83C79.784 133.654 79.784 133.466 79.73 133.29C79.6922 133.104 79.5894 132.937 79.44 132.82C79.304 132.697 79.1324 132.62 78.95 132.6C78.769 132.592 78.5893 132.634 78.43 132.72C78.2407 132.831 78.0716 132.973 77.93 133.14Z" fill="#F8442E"/>
<path d="M80.63 137.47C80.395 137.31 80.2083 137.089 80.09 136.83C79.9769 136.569 79.9455 136.279 80 136C80.0596 135.704 80.1824 135.424 80.36 135.18C80.5337 134.928 80.7629 134.719 81.03 134.57C81.2638 134.436 81.5306 134.37 81.8 134.38C82.0761 134.393 82.3416 134.491 82.56 134.66C82.6948 134.764 82.8158 134.885 82.92 135.02C83.0229 135.166 83.0913 135.334 83.12 135.51C83.1691 135.707 83.1691 135.913 83.12 136.11C83.0494 136.361 82.9305 136.595 82.77 136.8L82.65 136.98L80.65 135.51L80.9 135.15L82.54 136.33C82.6376 136.188 82.7056 136.029 82.74 135.86C82.7605 135.704 82.7398 135.545 82.68 135.4C82.6129 135.248 82.5058 135.116 82.37 135.02C82.2225 134.909 82.0444 134.846 81.86 134.84C81.6888 134.835 81.5193 134.876 81.37 134.96C81.2124 135.037 81.0779 135.154 80.98 135.3L80.81 135.54C80.6763 135.709 80.5869 135.908 80.55 136.12C80.5184 136.299 80.5392 136.483 80.61 136.65C80.6881 136.821 80.8129 136.967 80.97 137.07C81.0669 137.141 81.1751 137.195 81.29 137.23C81.3986 137.255 81.5114 137.255 81.62 137.23C81.7318 137.217 81.8384 137.175 81.93 137.11L82.24 137.5C82.1061 137.605 81.9478 137.674 81.78 137.7C81.6062 137.745 81.4238 137.745 81.25 137.7C81.0306 137.663 80.8202 137.585 80.63 137.47Z" fill="#F8442E"/>
<path d="M83.19 140.61C83.0041 140.503 82.8356 140.368 82.69 140.21C82.5848 140.081 82.5004 139.935 82.44 139.78C82.3988 139.644 82.3753 139.502 82.37 139.36H82.86C82.86 139.44 82.86 139.53 82.86 139.63C82.8867 139.746 82.9379 139.855 83.01 139.95C83.1021 140.084 83.2257 140.194 83.37 140.27C83.5673 140.393 83.7977 140.453 84.03 140.44C84.1441 140.425 84.2526 140.382 84.3453 140.313C84.438 140.245 84.5119 140.155 84.56 140.05L84.9 139.48L84.66 139.59C84.5417 139.633 84.4155 139.65 84.29 139.64C84.1155 139.623 83.9476 139.565 83.8 139.47C83.5825 139.346 83.4054 139.162 83.29 138.94C83.1677 138.721 83.1154 138.47 83.14 138.22C83.1666 137.92 83.2661 137.632 83.43 137.38C83.5757 137.116 83.7812 136.89 84.03 136.72C84.2433 136.573 84.4961 136.495 84.755 136.495C85.0139 136.495 85.2667 136.573 85.48 136.72C85.6351 136.801 85.7662 136.922 85.86 137.07C85.9233 137.178 85.9673 137.297 85.99 137.42C85.99 137.53 85.99 137.62 85.99 137.69L86.26 137.24L86.68 137.49L85 140.3C84.8927 140.506 84.7223 140.673 84.5136 140.775C84.3049 140.878 84.0689 140.911 83.84 140.87C83.6101 140.821 83.3903 140.733 83.19 140.61ZM84.09 139.05C84.2393 139.154 84.4182 139.207 84.6 139.2C84.7742 139.188 84.9411 139.126 85.08 139.02C85.2487 138.89 85.3884 138.727 85.49 138.54C85.6034 138.36 85.6814 138.159 85.72 137.95C85.7516 137.771 85.7308 137.587 85.66 137.42C85.5886 137.252 85.4614 137.115 85.3 137.03C85.1409 136.924 84.9506 136.875 84.76 136.89C84.5772 136.913 84.4041 136.985 84.26 137.1C84.1016 137.233 83.9664 137.392 83.86 137.57C83.754 137.745 83.6827 137.938 83.65 138.14C83.6186 138.315 83.6395 138.496 83.71 138.66C83.7928 138.826 83.9257 138.963 84.09 139.05Z" fill="#F8442E"/>
<path d="M86.14 140.78L87.64 137.87L88.09 138.1L86.59 141L86.14 140.78ZM88.14 137.5C88.097 137.48 88.0587 137.45 88.0277 137.414C87.9967 137.378 87.9736 137.336 87.96 137.29C87.9256 137.207 87.9256 137.113 87.96 137.03C87.9811 136.99 88.0108 136.954 88.0471 136.927C88.0834 136.899 88.1254 136.88 88.17 136.87C88.2566 136.835 88.3534 136.835 88.44 136.87C88.5201 136.92 88.583 136.993 88.62 137.08C88.6376 137.121 88.6467 137.165 88.6467 137.21C88.6467 137.255 88.6376 137.299 88.62 137.34C88.6012 137.38 88.5733 137.416 88.5386 137.443C88.504 137.471 88.4634 137.49 88.42 137.5C88.3729 137.522 88.3218 137.533 88.27 137.533C88.2182 137.533 88.1671 137.522 88.12 137.5H88.14Z" fill="#F8442E"/>
<path d="M88.91 140L88.12 141.8L87.65 141.6L88.97 138.6L89.42 138.8L89.21 139.27C89.3431 139.147 89.5105 139.067 89.69 139.04C89.902 139.012 90.1174 139.047 90.31 139.14C90.4964 139.22 90.661 139.343 90.79 139.5C90.9022 139.646 90.9745 139.818 91 140C91.0049 140.24 90.9499 140.477 90.84 140.69L90.01 142.59L89.55 142.39L90.37 140.52C90.4665 140.324 90.4879 140.1 90.43 139.89C90.3951 139.793 90.3393 139.706 90.2667 139.633C90.1942 139.561 90.1065 139.505 90.01 139.47C89.8764 139.405 89.7279 139.378 89.58 139.39C89.4342 139.404 89.2954 139.46 89.18 139.55C89.0491 139.671 88.9555 139.827 88.91 140Z" fill="#F8442E"/>
<path d="M92.3 141.35L91.67 143.21L91.19 143.05L92.25 139.95L92.71 140.11L92.55 140.59C92.6761 140.46 92.8351 140.367 93.01 140.32C93.2126 140.262 93.4274 140.262 93.63 140.32C93.8208 140.383 93.9928 140.493 94.13 140.64C94.2608 140.781 94.3447 140.959 94.37 141.15C94.3965 141.387 94.3656 141.627 94.28 141.85L93.6 143.85L93.13 143.69L93.79 141.75C93.8697 141.548 93.8697 141.322 93.79 141.12C93.7461 141.027 93.6834 140.945 93.606 140.878C93.5285 140.811 93.4379 140.76 93.34 140.73C93.1951 140.697 93.0448 140.697 92.9 140.73C92.7555 140.755 92.6226 140.825 92.52 140.93C92.4141 141.05 92.3386 141.194 92.3 141.35Z" fill="#F8442E"/>
<path d="M94.83 144.22L95.7 141.07L96.18 141.2L95.31 144.35L94.83 144.22ZM96.09 140.61C96.0434 140.599 95.9998 140.578 95.9618 140.549C95.9239 140.519 95.8926 140.482 95.87 140.44C95.8356 140.357 95.8356 140.263 95.87 140.18C95.8913 140.107 95.9372 140.043 96 140C96.0866 139.965 96.1834 139.965 96.27 140C96.3598 140.026 96.4376 140.083 96.49 140.16C96.513 140.199 96.5279 140.243 96.5338 140.288C96.5397 140.333 96.5365 140.379 96.5243 140.422C96.5122 140.466 96.4914 140.507 96.4632 140.543C96.435 140.579 96.3999 140.608 96.36 140.63C96.2703 140.653 96.1753 140.646 96.09 140.61Z" fill="#F8442E"/>
<path d="M97.35 142.84L96.94 144.77L96.45 144.67L97.13 141.46L97.61 141.56L97.5 142.06C97.6116 141.916 97.7602 141.806 97.93 141.74C98.1329 141.684 98.3472 141.684 98.55 141.74C98.7478 141.778 98.9332 141.864 99.09 141.99C99.2342 142.118 99.3383 142.284 99.39 142.47C99.4449 142.703 99.4449 142.947 99.39 143.18L98.96 145.18L98.47 145.08L98.89 143.08C98.9467 142.869 98.9217 142.644 98.82 142.45C98.7658 142.364 98.6943 142.29 98.6099 142.233C98.5255 142.176 98.4302 142.138 98.33 142.12C98.182 142.086 98.0281 142.086 97.88 142.12C97.7462 142.172 97.6264 142.254 97.53 142.36C97.4293 142.502 97.3673 142.667 97.35 142.84Z" fill="#F8442E"/>
<path d="M101.4 146.86C101.188 146.841 100.981 146.783 100.79 146.69C100.64 146.618 100.505 146.52 100.39 146.4C100.294 146.295 100.214 146.177 100.15 146.05L100.59 145.82C100.63 145.897 100.677 145.971 100.73 146.04C100.799 146.137 100.888 146.219 100.99 146.28C101.135 146.36 101.295 146.408 101.46 146.42C101.689 146.463 101.926 146.424 102.13 146.31C102.226 146.25 102.305 146.167 102.363 146.07C102.42 145.973 102.454 145.863 102.46 145.75L102.54 145.09L102.35 145.29C102.264 145.38 102.158 145.449 102.04 145.49C101.869 145.528 101.691 145.528 101.52 145.49C101.273 145.458 101.038 145.361 100.84 145.21C100.643 145.055 100.494 144.847 100.41 144.61C100.328 144.322 100.305 144.021 100.341 143.724C100.377 143.427 100.472 143.14 100.62 142.88C100.757 142.66 100.95 142.481 101.18 142.36C101.413 142.248 101.675 142.209 101.93 142.25C102.105 142.26 102.273 142.315 102.42 142.41C102.524 142.486 102.612 142.581 102.68 142.69C102.728 142.764 102.772 142.841 102.81 142.92L102.87 142.4L103.35 142.46L102.94 145.8C102.925 146.044 102.83 146.276 102.67 146.46C102.52 146.622 102.325 146.737 102.11 146.79C101.879 146.853 101.639 146.877 101.4 146.86ZM101.6 145.08C101.781 145.107 101.965 145.079 102.13 145C102.287 144.924 102.414 144.797 102.49 144.64C102.596 144.456 102.661 144.251 102.68 144.04C102.721 143.832 102.721 143.618 102.68 143.41C102.636 143.236 102.546 143.077 102.42 142.95C102.281 142.826 102.106 142.749 101.92 142.73C101.734 142.703 101.544 142.739 101.38 142.83C101.221 142.921 101.092 143.056 101.01 143.22C100.916 143.405 100.855 143.604 100.83 143.81C100.789 144.011 100.789 144.219 100.83 144.42C100.873 144.591 100.968 144.744 101.1 144.86C101.241 144.982 101.415 145.059 101.6 145.08Z" fill="#F8442E"/>
<path d="M107.51 146C107.237 146.003 106.968 145.934 106.73 145.8C106.505 145.658 106.322 145.457 106.2 145.22C106.078 144.939 106.015 144.636 106.015 144.33C106.015 144.024 106.078 143.721 106.2 143.44C106.308 143.194 106.485 142.986 106.71 142.84C106.942 142.689 107.213 142.61 107.49 142.61C107.762 142.598 108.031 142.666 108.264 142.807C108.498 142.947 108.684 143.154 108.8 143.4C108.922 143.679 108.985 143.98 108.985 144.285C108.985 144.59 108.922 144.891 108.8 145.17C108.692 145.416 108.515 145.624 108.29 145.77C108.058 145.921 107.787 146 107.51 146ZM107.51 145.54C107.712 145.548 107.91 145.484 108.07 145.36C108.215 145.239 108.322 145.079 108.38 144.9C108.452 144.705 108.482 144.497 108.47 144.29C108.47 144.082 108.433 143.875 108.36 143.68C108.295 143.502 108.18 143.346 108.03 143.23C107.868 143.112 107.671 143.052 107.47 143.06C107.271 143.061 107.078 143.128 106.92 143.25C106.778 143.373 106.671 143.532 106.61 143.71C106.541 143.906 106.507 144.112 106.51 144.32C106.518 144.528 106.558 144.734 106.63 144.93C106.695 145.108 106.81 145.264 106.96 145.38C107.115 145.495 107.307 145.552 107.5 145.54H107.51Z" fill="#F8442E"/>
<path d="M111.22 142.48V142.91L109.47 143.03V142.61L111.22 142.48ZM110.22 145.84L109.95 142.12C109.929 141.953 109.964 141.784 110.05 141.64C110.123 141.509 110.235 141.404 110.37 141.34C110.503 141.267 110.649 141.223 110.8 141.21C110.903 141.199 111.007 141.199 111.11 141.21H111.29L111.17 141.66H111.07C111.01 141.65 110.95 141.65 110.89 141.66C110.824 141.657 110.759 141.669 110.698 141.695C110.637 141.721 110.583 141.76 110.54 141.81C110.469 141.919 110.44 142.051 110.46 142.18L110.72 145.78L110.22 145.84Z" fill="#F8442E"/>
<path d="M115.2 141.92L115.27 142.34L113.6 142.63L113.53 142.21L115.2 141.92ZM113.88 141.35L114.38 141.27L114.9 144.34C114.912 144.451 114.949 144.557 115.01 144.65C115.062 144.703 115.128 144.741 115.2 144.76C115.27 144.77 115.34 144.77 115.41 144.76C115.453 144.767 115.497 144.767 115.54 144.76H115.62L115.8 145.19L115.67 145.25C115.597 145.283 115.52 145.303 115.44 145.31C115.299 145.345 115.151 145.345 115.01 145.31C114.868 145.274 114.739 145.198 114.64 145.09C114.522 144.972 114.448 144.816 114.43 144.65L113.88 141.35Z" fill="#F8442E"/>
<path d="M116.88 142.91L117.35 144.82L116.86 144.94L115.86 140.7L116.35 140.58L116.73 142.13C116.756 141.948 116.84 141.78 116.97 141.65C117.124 141.501 117.319 141.4 117.53 141.36C117.727 141.31 117.933 141.31 118.13 141.36C118.317 141.408 118.485 141.513 118.61 141.66C118.757 141.852 118.859 142.074 118.91 142.31L119.4 144.31L118.91 144.43L118.43 142.43C118.412 142.322 118.373 142.218 118.315 142.126C118.256 142.033 118.18 141.953 118.09 141.89C118.003 141.836 117.905 141.801 117.804 141.787C117.702 141.773 117.598 141.781 117.5 141.81C117.348 141.845 117.207 141.917 117.09 142.02C116.982 142.119 116.905 142.248 116.87 142.39C116.83 142.561 116.833 142.74 116.88 142.91Z" fill="#F8442E"/>
<path d="M122 143.59C121.731 143.688 121.44 143.709 121.16 143.65C120.9 143.591 120.663 143.455 120.48 143.26C120.269 143.039 120.112 142.772 120.02 142.48C119.917 142.192 119.879 141.884 119.91 141.58C119.943 141.314 120.046 141.062 120.21 140.85C120.38 140.635 120.609 140.475 120.87 140.39C121.035 140.338 121.207 140.311 121.38 140.31C121.56 140.315 121.736 140.356 121.9 140.43C122.081 140.519 122.241 140.645 122.37 140.8C122.528 141.012 122.649 141.249 122.73 141.5L122.8 141.7L120.41 142.5L120.27 142.09L122.17 141.45C122.124 141.286 122.034 141.137 121.91 141.02C121.802 140.906 121.663 140.826 121.51 140.79C121.35 140.741 121.18 140.741 121.02 140.79C120.844 140.85 120.688 140.957 120.57 141.1C120.467 141.238 120.402 141.4 120.38 141.57C120.341 141.741 120.341 141.919 120.38 142.09L120.47 142.36C120.535 142.568 120.644 142.759 120.79 142.92C120.919 143.047 121.083 143.134 121.26 143.17C121.44 143.221 121.63 143.221 121.81 143.17C121.925 143.132 122.034 143.074 122.13 143C122.218 142.934 122.29 142.848 122.34 142.75C122.392 142.648 122.42 142.535 122.42 142.42H122.92C122.927 142.589 122.892 142.757 122.82 142.91C122.737 143.069 122.625 143.211 122.49 143.33C122.34 143.439 122.175 143.527 122 143.59Z" fill="#F8442E"/>
<path d="M127.3 139.83L126.45 138.09L126.91 137.87L128.33 140.81L127.88 141.03L127.64 140.53C127.641 140.719 127.593 140.905 127.5 141.07C127.393 141.257 127.228 141.404 127.03 141.49C126.86 141.576 126.671 141.617 126.48 141.61C126.29 141.591 126.11 141.518 125.96 141.4C125.777 141.247 125.63 141.056 125.53 140.84L124.63 138.97L125.08 138.75L125.97 140.59C126.053 140.781 126.208 140.931 126.4 141.01C126.488 141.049 126.584 141.069 126.68 141.069C126.776 141.069 126.872 141.049 126.96 141.01C127.078 140.95 127.18 140.865 127.26 140.76C127.352 140.641 127.411 140.499 127.43 140.35C127.442 140.167 127.396 139.986 127.3 139.83Z" fill="#F8442E"/>
<path d="M128.87 138.27L129.87 139.96L129.44 140.22L127.77 137.4L128.18 137.15L128.44 137.59C128.418 137.41 128.453 137.229 128.54 137.07C128.636 136.88 128.79 136.726 128.98 136.63C129.149 136.517 129.347 136.454 129.55 136.45C129.741 136.441 129.931 136.493 130.09 136.6C130.283 136.737 130.443 136.914 130.56 137.12L131.62 138.91L131.19 139.17L130.19 137.41C130.089 137.214 129.917 137.064 129.71 136.99C129.612 136.966 129.509 136.962 129.409 136.979C129.31 136.996 129.214 137.034 129.13 137.09C128.998 137.164 128.888 137.271 128.81 137.4C128.736 137.524 128.702 137.666 128.71 137.81C128.727 137.974 128.782 138.131 128.87 138.27Z" fill="#F8442E"/>
<path d="M130.75 134.91C130.712 134.94 130.669 134.96 130.622 134.971C130.575 134.981 130.527 134.981 130.48 134.97C130.435 134.965 130.392 134.949 130.354 134.925C130.316 134.901 130.284 134.868 130.26 134.83C130.242 134.789 130.233 134.745 130.233 134.7C130.233 134.655 130.242 134.611 130.26 134.57C130.269 134.524 130.288 134.48 130.315 134.442C130.343 134.404 130.379 134.373 130.42 134.35C130.497 134.301 130.589 134.28 130.68 134.29C130.725 134.296 130.767 134.312 130.805 134.336C130.843 134.36 130.876 134.392 130.9 134.43C130.928 134.467 130.947 134.509 130.955 134.554C130.964 134.599 130.962 134.646 130.95 134.69C130.936 134.739 130.91 134.785 130.875 134.823C130.841 134.861 130.798 134.891 130.75 134.91ZM132.68 138.22L130.84 135.51L131.26 135.23L133.09 137.94L132.68 138.22Z" fill="#F8442E"/>
<path d="M134.21 133L135.21 136.33L134.8 136.65L131.8 134.78L132.23 134.45L134.54 135.97L133.68 133.35L134.21 133Z" fill="#F8442E"/>
<path d="M137.92 134.22C137.709 134.415 137.45 134.55 137.17 134.61C136.908 134.658 136.637 134.63 136.39 134.53C136.108 134.408 135.859 134.224 135.66 133.99C135.452 133.766 135.295 133.5 135.2 133.21C135.125 132.952 135.125 132.678 135.2 132.42C135.269 132.154 135.419 131.916 135.63 131.74C135.757 131.626 135.902 131.535 136.06 131.47C136.223 131.397 136.401 131.362 136.58 131.37C136.782 131.373 136.981 131.425 137.16 131.52C137.39 131.652 137.596 131.821 137.77 132.02L137.91 132.18L136 133.86L135.71 133.54L137.21 132.19C137.097 132.064 136.957 131.965 136.8 131.9C136.654 131.844 136.495 131.827 136.34 131.85C136.173 131.879 136.019 131.96 135.9 132.08C135.758 132.195 135.656 132.353 135.61 132.53C135.566 132.697 135.566 132.873 135.61 133.04C135.659 133.21 135.744 133.367 135.86 133.5L136.06 133.71C136.195 133.878 136.37 134.009 136.57 134.09C136.742 134.144 136.928 134.144 137.1 134.09C137.282 134.05 137.451 133.964 137.59 133.84C137.678 133.755 137.752 133.658 137.81 133.55C137.868 133.456 137.903 133.35 137.91 133.24C137.914 133.127 137.894 133.014 137.85 132.91L138.3 132.69C138.378 132.841 138.413 133.011 138.4 133.18C138.396 133.362 138.348 133.54 138.26 133.7C138.182 133.894 138.066 134.071 137.92 134.22Z" fill="#F8442E"/>
<path d="M139.65 132.49L137.3 130.21L137.64 129.86L137.99 130.21C137.934 130.045 137.934 129.865 137.99 129.7C138.024 129.516 138.115 129.348 138.25 129.22L138.34 129.12C138.367 129.087 138.401 129.059 138.44 129.04L138.8 129.39L138.71 129.46C138.659 129.498 138.612 129.542 138.57 129.59C138.461 129.69 138.382 129.818 138.34 129.96C138.305 130.091 138.305 130.229 138.34 130.36C138.38 130.495 138.452 130.619 138.55 130.72L140.04 132.16L139.65 132.49Z" fill="#F8442E"/>
<path d="M141 127.24L140.81 127.67C140.727 127.655 140.643 127.655 140.56 127.67C140.468 127.646 140.372 127.646 140.28 127.67C140.17 127.728 140.072 127.806 139.99 127.9C139.871 128.031 139.794 128.195 139.77 128.37C139.757 128.44 139.764 128.512 139.788 128.579C139.813 128.646 139.855 128.705 139.91 128.75C139.951 128.788 140.001 128.816 140.054 128.832C140.108 128.847 140.165 128.85 140.22 128.84C140.371 128.803 140.512 128.731 140.63 128.63L141.04 128.34C141.23 128.18 141.463 128.08 141.71 128.05C141.919 128.039 142.124 128.11 142.28 128.25C142.417 128.368 142.515 128.525 142.56 128.7C142.609 128.887 142.609 129.083 142.56 129.27C142.491 129.487 142.379 129.688 142.23 129.86C142.049 130.088 141.806 130.258 141.53 130.35C141.403 130.384 141.27 130.393 141.14 130.376C141.01 130.359 140.884 130.316 140.77 130.25L140.99 129.81C141.134 129.887 141.301 129.909 141.46 129.87C141.626 129.817 141.772 129.716 141.88 129.58C142.021 129.437 142.109 129.25 142.13 129.05C142.143 128.978 142.138 128.905 142.113 128.836C142.088 128.767 142.046 128.707 141.99 128.66C141.95 128.626 141.904 128.6 141.854 128.585C141.804 128.569 141.752 128.564 141.7 128.57C141.564 128.588 141.436 128.643 141.33 128.73L140.88 129.07C140.685 129.226 140.449 129.324 140.2 129.35C140.096 129.357 139.993 129.343 139.895 129.308C139.797 129.274 139.707 129.22 139.63 129.15C139.495 129.036 139.4 128.882 139.36 128.71C139.316 128.533 139.316 128.347 139.36 128.17C139.426 127.968 139.531 127.781 139.67 127.62C139.834 127.403 140.067 127.248 140.33 127.18C140.554 127.133 140.788 127.154 141 127.24Z" fill="#F8442E"/>
<path d="M144.46 126.92C144.3 127.153 144.078 127.336 143.82 127.45C143.571 127.556 143.295 127.584 143.03 127.53C142.732 127.477 142.451 127.353 142.21 127.17C141.958 126.996 141.749 126.767 141.6 126.5C141.466 126.266 141.4 125.999 141.41 125.73C141.428 125.455 141.525 125.191 141.69 124.97C141.792 124.836 141.913 124.718 142.05 124.62C142.196 124.516 142.364 124.444 142.54 124.41C142.737 124.36 142.943 124.36 143.14 124.41C143.393 124.483 143.63 124.602 143.84 124.76L144.01 124.89L142.54 126.89L142.18 126.64L143.36 125.01C143.226 124.905 143.068 124.837 142.9 124.81C142.745 124.781 142.585 124.798 142.44 124.86C142.284 124.922 142.152 125.03 142.06 125.17C141.947 125.317 141.88 125.495 141.87 125.68C141.867 125.851 141.909 126.02 141.99 126.17C142.069 126.329 142.186 126.466 142.33 126.57L142.56 126.74C142.735 126.87 142.936 126.959 143.15 127C143.325 127.031 143.506 127.011 143.67 126.94C143.841 126.858 143.989 126.734 144.1 126.58C144.169 126.482 144.223 126.374 144.26 126.26C144.28 126.151 144.28 126.039 144.26 125.93C144.24 125.818 144.196 125.712 144.13 125.62L144.53 125.3C144.631 125.44 144.699 125.6 144.73 125.77C144.769 125.944 144.769 126.126 144.73 126.3C144.681 126.522 144.589 126.733 144.46 126.92Z" fill="#F8442E"/>
<path d="M170.04 144C172.818 144 175.07 141.748 175.07 138.97C175.07 136.192 172.818 133.94 170.04 133.94C167.262 133.94 165.01 136.192 165.01 138.97C165.01 141.748 167.262 144 170.04 144Z" fill="#F8442E"/>
<path d="M44.47 144C47.248 144 49.5 141.748 49.5 138.97C49.5 136.192 47.248 133.94 44.47 133.94C41.692 133.94 39.44 136.192 39.44 138.97C39.44 141.748 41.692 144 44.47 144Z" fill="#F8442E"/>
<path d="M107.25 41.79C110.028 41.79 112.28 39.538 112.28 36.76C112.28 33.982 110.028 31.73 107.25 31.73C104.472 31.73 102.22 33.982 102.22 36.76C102.22 39.538 104.472 41.79 107.25 41.79Z" fill="#F8442E"/>
</g>
<defs>
<clipPath id="clip0_0_5106">
<rect width="214.51" height="185.77" fill="white"/>
</clipPath>
</defs>
</svg>
