<svg width="225" height="216" viewBox="0 0 225 216" fill="none" xmlns="http://www.w3.org/2000/svg">
<g clip-path="url(#clip0_0_5147)">
<path d="M0 215.73V112C0 82.2865 11.8037 53.7899 32.8143 32.7793C53.8249 11.7687 82.3215 -0.0350037 112.035 -0.0350037C141.749 -0.0350037 170.245 11.7687 191.256 32.7793C212.266 53.7899 224.07 82.2865 224.07 112V215.73H0Z" fill="#F6D4E1"/>
<path d="M108.75 116.06C108.75 118.9 108.03 121.06 106.44 122.34C102.98 125.18 96.66 123.98 94.65 123.52C93.9886 122.318 93.6948 120.949 93.805 119.582C93.9152 118.215 94.4247 116.91 95.27 115.83C96.4 114.88 102 115.09 108.75 116.06Z" fill="#37669D"/>
<path d="M103.44 143.11C102.31 143.96 100.63 144.82 98.87 143.92C97.35 143.11 95.46 140.25 93.59 136.51C93.31 135.93 93.06 135.35 92.73 134.71L92.16 133.49C89.2641 127.041 86.945 120.348 85.23 113.49C85.23 113.08 85.17 112.71 85.14 112.29C85.58 108.49 92.83 105.29 96.75 104.03C97.35 107.54 97.88 110.4 98.23 112.13C95.62 112.29 93.63 112.78 92.8 113.79C91.4803 115.438 90.7036 117.455 90.5764 119.562C90.4493 121.67 90.978 123.765 92.09 125.56C92.1513 125.722 92.2429 125.872 92.36 126C93.0324 127.05 93.8506 128 94.79 128.82C97.26 130.92 102.22 133.13 107.2 134.98C107.238 136.533 106.918 138.073 106.266 139.483C105.614 140.892 104.647 142.133 103.44 143.11Z" fill="#37669D"/>
<path d="M92.8 143.2C92.8089 143.993 92.6174 144.775 92.2433 145.475C91.8692 146.174 91.3246 146.767 90.66 147.2C89.9358 147.843 89.063 148.295 88.1204 148.517C87.1778 148.739 86.1948 148.723 85.26 148.47C80.32 146.6 76.1 139.88 72.4 127.93C71.25 124.21 71.46 121.03 73.05 118.51C75.22 115.05 79.49 113.51 81.89 112.79C81.89 112.91 81.89 113.04 81.96 113.18C81.9452 113.454 81.9586 113.729 82 114C81.9937 114.06 81.9937 114.12 82 114.18C83 121.82 86.78 129.92 89.71 136.06C89.87 136.4 90.06 136.77 90.22 137.12C91.2917 139.05 92.1565 141.088 92.8 143.2Z" fill="#37669D"/>
<path d="M143.85 151.26C143.69 167.34 132.85 177.06 129.43 177.96L128.9 178.09C114.1 182 101 180.66 90 174C78.56 167.07 75.74 151.89 75.1 142.86C77.75 147.41 80.7 150.27 84.1 151.54C84.9192 151.844 85.7861 152 86.66 152C88.8504 151.953 90.9621 151.175 92.66 149.79C94.077 148.689 95.1237 147.182 95.66 145.47C96.1436 145.991 96.7032 146.436 97.32 146.79C98.2446 147.28 99.2735 147.541 100.32 147.55C102.15 147.492 103.909 146.827 105.32 145.66C106.762 144.488 107.949 143.034 108.809 141.386C109.669 139.739 110.183 137.933 110.32 136.08C112.39 136.77 114.38 137.4 116.09 137.86C110.78 141.11 102.66 148.38 104.89 161.86C104.966 162.283 105.204 162.659 105.553 162.91C105.902 163.16 106.335 163.264 106.76 163.2C107.183 163.127 107.559 162.889 107.807 162.538C108.054 162.187 108.153 161.753 108.08 161.33C105.31 144.6 120.75 139.08 121.39 138.85L121.03 135.71C117.61 135.37 103.95 131.03 98.2 127.38C98.71 127.43 99.2 127.45 99.82 127.45C102.68 127.45 105.93 126.9 108.33 124.91C110.73 122.92 111.75 120.23 111.82 116.63C117.63 117.536 123.34 118.999 128.87 121C138.84 124.92 144 135.4 143.85 151.26Z" fill="#37669D"/>
<path d="M134.53 120.33C133.133 119.378 131.638 118.58 130.07 117.95C124.17 115.6 110.67 112.44 101.5 112.07C100.26 105.52 94.5 74.41 96.03 64.14C96.47 61.3 97.65 57.88 100.97 57.51C103.58 57.24 106.07 58.9 106.56 60.15C108.08 64.15 115.14 90.28 116.9 110.96L120.06 111.28C125.06 94.35 133.56 67.88 136.33 64.35C138.43 61.67 142.47 59.35 145.17 60.21C147.41 60.91 148.03 63.81 148.17 66.15C148.79 76 137.48 111.33 134.53 120.33Z" fill="#37669D"/>
<path d="M100.05 203.64C99.7099 203.646 99.3713 203.592 99.05 203.48C98.7728 203.386 98.5176 203.236 98.3 203.04C98.0954 202.833 97.9384 202.584 97.84 202.31C97.7224 201.99 97.6681 201.651 97.68 201.31C97.6708 200.97 97.725 200.63 97.84 200.31C97.9411 200.029 98.1014 199.773 98.31 199.56C98.5249 199.346 98.7844 199.182 99.07 199.08C99.3905 198.964 99.7292 198.906 100.07 198.91C100.411 198.896 100.751 198.951 101.07 199.07C101.333 199.156 101.573 199.301 101.773 199.493C101.972 199.685 102.125 199.92 102.22 200.18C102.323 200.458 102.374 200.753 102.37 201.05C102.371 201.252 102.351 201.453 102.31 201.65C102.276 201.815 102.215 201.974 102.13 202.12C102.049 202.253 101.935 202.363 101.8 202.44C101.65 202.525 101.482 202.573 101.31 202.58C101.201 202.603 101.089 202.603 100.98 202.58C100.901 202.554 100.832 202.505 100.78 202.44C100.738 202.376 100.708 202.305 100.69 202.23C100.658 202.309 100.602 202.375 100.53 202.42C100.435 202.481 100.33 202.524 100.22 202.55C100.094 202.571 99.9658 202.571 99.84 202.55C99.7049 202.542 99.5725 202.508 99.45 202.45C99.3221 202.393 99.2091 202.308 99.12 202.2C99.0132 202.086 98.9345 201.949 98.89 201.8C98.8318 201.622 98.8015 201.437 98.8 201.25C98.806 201.07 98.8363 200.892 98.89 200.72C98.9417 200.577 99.0197 200.445 99.12 200.33C99.2125 200.23 99.3205 200.145 99.44 200.08C99.5525 200.031 99.6698 199.994 99.79 199.97C99.9159 199.95 100.044 199.95 100.17 199.97C100.278 199.985 100.383 200.019 100.48 200.07C100.545 200.097 100.599 200.147 100.63 200.21V200.02H101.18V201.75C101.177 201.818 101.198 201.886 101.24 201.94C101.256 201.962 101.277 201.98 101.301 201.992C101.326 202.004 101.353 202.01 101.38 202.01C101.42 202.01 101.459 201.999 101.494 201.98C101.529 201.961 101.558 201.933 101.58 201.9C101.65 201.802 101.694 201.689 101.71 201.57C101.728 201.38 101.728 201.19 101.71 201C101.714 200.8 101.684 200.6 101.62 200.41C101.567 200.253 101.485 200.108 101.38 199.98C101.276 199.861 101.15 199.763 101.01 199.69C100.869 199.613 100.717 199.556 100.56 199.52C100.395 199.488 100.228 199.471 100.06 199.47C99.7966 199.465 99.535 199.513 99.29 199.61C99.0819 199.692 98.8941 199.818 98.74 199.98C98.5955 200.148 98.4836 200.341 98.41 200.55C98.3363 200.776 98.2992 201.012 98.3 201.25C98.296 201.505 98.3366 201.759 98.42 202C98.4909 202.203 98.6072 202.388 98.76 202.54C98.9194 202.693 99.1106 202.809 99.32 202.88C99.6996 202.991 100.099 203.018 100.49 202.96L100.84 202.89L101.1 202.81L101.27 203.32C101.179 203.379 101.077 203.42 100.97 203.44C100.83 203.483 100.686 203.513 100.54 203.53C100.381 203.582 100.216 203.619 100.05 203.64ZM100 202C100.119 202.01 100.238 201.982 100.34 201.92C100.43 201.86 100.497 201.772 100.53 201.67C100.553 201.538 100.553 201.402 100.53 201.27C100.549 201.151 100.549 201.029 100.53 200.91C100.496 200.816 100.433 200.736 100.35 200.68C100.242 200.623 100.122 200.596 100 200.6C99.8802 200.595 99.7616 200.626 99.66 200.69C99.5682 200.743 99.4949 200.824 99.45 200.92C99.3999 201.03 99.376 201.149 99.38 201.27C99.3778 201.393 99.3981 201.515 99.44 201.63C99.4746 201.748 99.5498 201.85 99.6523 201.917C99.7548 201.985 99.878 202.014 100 202Z" fill="#37669D"/>
<path d="M105.09 200.64H104.4C104.386 200.581 104.358 200.527 104.32 200.48C104.276 200.435 104.226 200.398 104.17 200.37C104.094 200.354 104.016 200.354 103.94 200.37C103.838 200.368 103.737 200.395 103.65 200.45C103.612 200.466 103.58 200.492 103.557 200.526C103.534 200.559 103.521 200.599 103.52 200.64C103.521 200.672 103.528 200.704 103.542 200.734C103.556 200.763 103.575 200.789 103.6 200.81C103.681 200.865 103.773 200.903 103.87 200.92L104.36 201.02C104.58 201.049 104.788 201.139 104.96 201.28C105.024 201.342 105.075 201.416 105.107 201.499C105.14 201.582 105.155 201.671 105.15 201.76C105.151 201.929 105.098 202.093 105 202.23C104.885 202.368 104.737 202.475 104.57 202.54C104.37 202.619 104.155 202.657 103.94 202.65C103.637 202.668 103.337 202.591 103.08 202.43C102.976 202.36 102.889 202.268 102.823 202.161C102.757 202.054 102.716 201.934 102.7 201.81H103.44C103.45 201.861 103.47 201.91 103.499 201.953C103.528 201.996 103.566 202.032 103.61 202.06C103.708 202.124 103.823 202.155 103.94 202.15C104.052 202.153 104.163 202.126 104.26 202.07C104.291 202.05 104.316 202.023 104.334 201.99C104.352 201.958 104.361 201.922 104.361 201.885C104.361 201.848 104.352 201.812 104.334 201.78C104.316 201.747 104.291 201.72 104.26 201.7C104.178 201.648 104.086 201.614 103.99 201.6L103.52 201.51C103.301 201.472 103.097 201.376 102.93 201.23C102.865 201.164 102.814 201.086 102.779 201C102.745 200.914 102.728 200.822 102.73 200.73C102.726 200.564 102.779 200.402 102.88 200.27C102.985 200.139 103.123 200.039 103.28 199.98C103.475 199.908 103.682 199.874 103.89 199.88C104.177 199.862 104.462 199.939 104.7 200.1C104.8 200.157 104.886 200.235 104.953 200.328C105.02 200.421 105.067 200.527 105.09 200.64Z" fill="#37669D"/>
<path d="M106 199.51C105.893 199.51 105.79 199.471 105.71 199.4C105.672 199.366 105.641 199.325 105.62 199.278C105.599 199.232 105.588 199.181 105.588 199.13C105.588 199.079 105.599 199.028 105.62 198.982C105.641 198.935 105.672 198.894 105.71 198.86C105.79 198.79 105.893 198.751 106 198.751C106.107 198.751 106.21 198.79 106.29 198.86C106.329 198.893 106.36 198.935 106.381 198.981C106.402 199.028 106.412 199.079 106.41 199.13C106.41 199.181 106.399 199.231 106.378 199.278C106.357 199.324 106.327 199.366 106.29 199.4C106.21 199.471 106.107 199.51 106 199.51ZM105.62 202.59V199.86H106.38V202.59H105.62Z" fill="#37669D"/>
<path d="M108.22 203.67C108.006 203.677 107.792 203.643 107.59 203.57C107.434 203.509 107.291 203.417 107.17 203.3C107.073 203.188 107.004 203.054 106.97 202.91L107.67 202.82C107.696 202.874 107.73 202.925 107.77 202.97C107.824 203.02 107.889 203.058 107.96 203.08C108.053 203.098 108.148 203.098 108.24 203.08C108.383 203.087 108.524 203.044 108.64 202.96C108.698 202.912 108.744 202.85 108.774 202.781C108.804 202.711 108.816 202.635 108.81 202.56V202.06C108.774 202.139 108.723 202.21 108.66 202.27C108.591 202.346 108.506 202.404 108.41 202.44C108.291 202.482 108.166 202.502 108.04 202.5C107.844 202.503 107.651 202.454 107.48 202.36C107.305 202.257 107.166 202.104 107.08 201.92C106.973 201.685 106.921 201.428 106.93 201.17C106.921 200.905 106.973 200.642 107.08 200.4C107.166 200.208 107.305 200.045 107.48 199.93C107.646 199.831 107.836 199.779 108.03 199.78C108.165 199.773 108.299 199.8 108.42 199.86C108.515 199.906 108.6 199.971 108.67 200.05C108.727 200.116 108.774 200.19 108.81 200.27V199.81H109.56V202.57C109.57 202.777 109.51 202.981 109.39 203.15C109.272 203.311 109.108 203.433 108.92 203.5C108.7 203.602 108.462 203.66 108.22 203.67ZM108.22 201.98C108.33 201.982 108.438 201.951 108.53 201.89C108.614 201.821 108.68 201.731 108.72 201.63C108.772 201.5 108.796 201.36 108.79 201.22C108.795 201.077 108.771 200.934 108.72 200.8C108.686 200.693 108.62 200.598 108.53 200.53C108.442 200.462 108.332 200.426 108.22 200.43C108.105 200.425 107.992 200.46 107.9 200.53C107.812 200.604 107.747 200.701 107.71 200.81C107.617 201.075 107.617 201.365 107.71 201.63C107.747 201.733 107.813 201.823 107.9 201.89C107.998 201.964 108.118 202.002 108.24 202L108.22 201.98Z" fill="#37669D"/>
<path d="M110.16 202.59V199.86H110.88V200.34C110.932 200.19 111.03 200.061 111.16 199.97C111.3 199.872 111.469 199.823 111.64 199.83C111.811 199.821 111.98 199.871 112.12 199.97C112.248 200.058 112.34 200.19 112.38 200.34C112.435 200.186 112.541 200.056 112.68 199.97C112.837 199.877 113.017 199.828 113.2 199.83C113.314 199.825 113.428 199.844 113.535 199.885C113.642 199.926 113.739 199.989 113.82 200.07C113.905 200.163 113.969 200.272 114.011 200.39C114.052 200.509 114.069 200.635 114.06 200.76V202.59H113.31V200.91C113.313 200.846 113.304 200.782 113.281 200.722C113.259 200.661 113.224 200.606 113.18 200.56C113.095 200.483 112.985 200.44 112.87 200.44C112.755 200.44 112.645 200.483 112.56 200.56C112.479 200.658 112.44 200.783 112.45 200.91V202.57H111.71V200.87C111.713 200.753 111.674 200.64 111.6 200.55C111.561 200.511 111.514 200.48 111.462 200.459C111.411 200.439 111.356 200.429 111.3 200.43C111.219 200.428 111.14 200.449 111.07 200.49C111.004 200.537 110.949 200.599 110.91 200.67C110.869 200.75 110.848 200.84 110.85 200.93V202.57L110.16 202.59Z" fill="#37669D"/>
<path d="M115.49 202.64C115.332 202.643 115.175 202.612 115.03 202.55C114.899 202.494 114.787 202.4 114.71 202.28C114.626 202.145 114.584 201.989 114.59 201.83C114.587 201.699 114.615 201.569 114.67 201.45C114.722 201.347 114.802 201.26 114.9 201.2C115.002 201.136 115.113 201.088 115.23 201.06C115.353 201.021 115.481 200.998 115.61 200.99L116 200.94C116.073 200.935 116.145 200.914 116.21 200.88C116.23 200.863 116.246 200.841 116.257 200.817C116.267 200.793 116.272 200.766 116.27 200.74C116.273 200.692 116.266 200.644 116.249 200.599C116.232 200.554 116.205 200.513 116.17 200.48C116.084 200.415 115.978 200.383 115.87 200.39C115.753 200.383 115.637 200.415 115.54 200.48C115.465 200.535 115.409 200.612 115.38 200.7L114.68 200.65C114.714 200.492 114.786 200.344 114.89 200.22C115.001 200.094 115.142 199.997 115.3 199.94C115.481 199.868 115.675 199.834 115.87 199.84C116.016 199.825 116.164 199.825 116.31 199.84C116.443 199.874 116.568 199.932 116.68 200.01C116.786 200.083 116.875 200.179 116.94 200.29C117.002 200.421 117.033 200.565 117.03 200.71V202.55H116.31V202.17C116.268 202.257 116.211 202.335 116.14 202.4C116.057 202.462 115.966 202.512 115.87 202.55C115.749 202.6 115.621 202.63 115.49 202.64ZM115.71 202.12C115.814 202.123 115.918 202.099 116.01 202.05C116.092 202.01 116.161 201.947 116.21 201.87C116.254 201.794 116.278 201.708 116.28 201.62V201.33H116.18H116.04H115.89H115.75C115.671 201.338 115.593 201.358 115.52 201.39C115.459 201.413 115.406 201.455 115.37 201.51C115.329 201.557 115.307 201.618 115.31 201.68C115.307 201.726 115.316 201.772 115.335 201.814C115.354 201.856 115.383 201.892 115.42 201.92C115.49 202.018 115.593 202.089 115.71 202.12Z" fill="#37669D"/>
<path d="M118.06 202.64C118.003 202.642 117.947 202.631 117.895 202.609C117.843 202.586 117.797 202.553 117.76 202.51C117.719 202.471 117.687 202.425 117.665 202.373C117.642 202.322 117.631 202.266 117.63 202.21C117.632 202.097 117.679 201.989 117.76 201.91C117.799 201.871 117.846 201.84 117.898 201.819C117.949 201.799 118.004 201.789 118.06 201.79C118.172 201.79 118.279 201.833 118.36 201.91C118.441 201.989 118.488 202.097 118.49 202.21C118.492 202.284 118.471 202.358 118.43 202.42C118.393 202.487 118.337 202.543 118.27 202.58C118.208 202.621 118.134 202.642 118.06 202.64Z" fill="#37669D"/>
<path d="M121.38 200.64H120.68C120.665 200.583 120.642 200.529 120.61 200.48C120.564 200.433 120.51 200.396 120.45 200.37C120.378 200.354 120.302 200.354 120.23 200.37C120.124 200.368 120.02 200.396 119.93 200.45C119.895 200.468 119.865 200.495 119.844 200.529C119.823 200.562 119.811 200.6 119.81 200.64C119.811 200.672 119.818 200.704 119.832 200.734C119.846 200.763 119.865 200.789 119.89 200.81C119.971 200.865 120.063 200.903 120.16 200.92L120.65 201.02C120.867 201.051 121.071 201.141 121.24 201.28C121.306 201.341 121.357 201.416 121.392 201.498C121.426 201.581 121.443 201.67 121.44 201.76C121.442 201.93 121.386 202.096 121.28 202.23C121.167 202.37 121.019 202.477 120.85 202.54C120.65 202.62 120.435 202.658 120.22 202.65C119.917 202.668 119.617 202.591 119.36 202.43C119.257 202.358 119.171 202.266 119.105 202.16C119.04 202.053 118.997 201.934 118.98 201.81H119.73C119.738 201.86 119.756 201.909 119.784 201.952C119.811 201.995 119.847 202.032 119.89 202.06C119.992 202.124 120.11 202.155 120.23 202.15C120.342 202.152 120.452 202.125 120.55 202.07C120.586 202.05 120.616 202.022 120.637 201.986C120.658 201.951 120.67 201.911 120.67 201.87C120.67 201.837 120.661 201.804 120.646 201.774C120.63 201.745 120.607 201.719 120.58 201.7C120.502 201.648 120.413 201.614 120.32 201.6L119.85 201.51C119.628 201.475 119.42 201.378 119.25 201.23C119.186 201.164 119.136 201.085 119.104 200.999C119.071 200.914 119.056 200.822 119.06 200.73C119.057 200.566 119.106 200.405 119.2 200.27C119.307 200.141 119.444 200.042 119.6 199.98C119.795 199.909 120.002 199.875 120.21 199.88C120.5 199.862 120.788 199.939 121.03 200.1C121.213 200.227 121.339 200.421 121.38 200.64Z" fill="#37669D"/>
<path d="M123.37 199.86V200.43H121.72V199.86H123.37ZM122.1 199.21H122.85V201.75C122.838 201.806 122.838 201.864 122.85 201.92C122.875 201.952 122.905 201.979 122.94 202H123.08H123.18H123.27L123.38 202.57H123.23C123.144 202.581 123.056 202.581 122.97 202.57C122.81 202.575 122.651 202.551 122.5 202.5C122.37 202.447 122.258 202.357 122.18 202.24C122.095 202.106 122.056 201.948 122.07 201.79L122.1 199.21Z" fill="#37669D"/>
<path d="M124.83 202.63C124.632 202.633 124.437 202.578 124.27 202.47C124.09 202.359 123.95 202.195 123.87 202C123.771 201.756 123.724 201.494 123.73 201.23C123.722 200.962 123.773 200.696 123.88 200.45C123.966 200.258 124.105 200.095 124.28 199.98C124.446 199.881 124.636 199.829 124.83 199.83C124.962 199.822 125.093 199.85 125.21 199.91C125.308 199.951 125.394 200.016 125.46 200.1C125.52 200.166 125.57 200.24 125.61 200.32V199H126.37V202.64H125.62V202.2C125.577 202.281 125.527 202.358 125.47 202.43C125.397 202.503 125.313 202.564 125.22 202.61C125.093 202.645 124.96 202.652 124.83 202.63ZM125.07 202.03C125.182 202.036 125.292 202 125.38 201.93C125.473 201.858 125.542 201.761 125.58 201.65C125.626 201.515 125.65 201.373 125.65 201.23C125.65 201.084 125.626 200.939 125.58 200.8C125.542 200.692 125.472 200.598 125.38 200.53C125.29 200.465 125.181 200.43 125.07 200.43C124.959 200.43 124.85 200.465 124.76 200.53C124.669 200.602 124.603 200.699 124.57 200.81C124.476 201.082 124.476 201.378 124.57 201.65C124.607 201.759 124.672 201.856 124.76 201.93C124.852 201.989 124.962 202.014 125.07 202V202.03Z" fill="#37669D"/>
<path d="M34.27 103.88L9.26999 105.17L10.74 98.93L26.92 99V98.81L12.61 91.18L13.81 86.1L30.1 85.69V85.49L15.6 78.34L17.06 72.11L38.82 84.41L37.54 89.85L22.38 90.72V90.9L35.55 98.45L34.27 103.88Z" fill="#37669D"/>
<path d="M43.37 75.52L40 80.79L24 61.12L28.13 54.6L52.74 60.6L49.41 65.86L31.3 61L31.2 61.15L43.37 75.52ZM34.94 71.18L41.94 60.18L45.66 62.54L38.66 73.54L34.94 71.18Z" fill="#37669D"/>
<path d="M53.4 28.5L69.1 46.66L65.37 49.88L49.09 45.65L48.97 45.75L58 56.23L53.64 60L38 41.86L41.78 38.6L57.96 42.88L58.12 42.75L49 32.29L53.4 28.5Z" fill="#37669D"/>
<path d="M62.09 28.45L60.09 24.17L78.5 15.63L80.5 19.9L73.89 23L82 40.46L76.81 42.87L68.7 25.38L62.09 28.45Z" fill="#37669D"/>
<path d="M101.88 35L95.66 35.35L102.39 10.93L110.1 10.49L119.54 34L113.31 34.35L106.67 16.74H106.48L101.88 35ZM100.52 25.61L113.52 24.88L113.77 29.28L100.77 30.01L100.52 25.61Z" fill="#37669D"/>
<path d="M127.55 35.52L135 12.69L144.43 15.76C145.98 16.2224 147.392 17.0606 148.54 18.2C149.547 19.2207 150.241 20.508 150.54 21.91C150.824 23.3998 150.71 24.9383 150.21 26.37C149.768 27.8226 148.946 29.131 147.83 30.16C146.758 31.1203 145.425 31.7399 144 31.94C142.37 32.1646 140.71 31.9931 139.16 31.44L133.34 29.55L134.75 25.2L139.54 26.76C140.257 27.0159 141.024 27.1015 141.78 27.01C142.405 26.9127 142.987 26.6306 143.45 26.2C143.921 25.7304 144.265 25.1489 144.45 24.51C144.678 23.8689 144.733 23.1792 144.61 22.51C144.486 21.8916 144.176 21.3261 143.72 20.89C143.151 20.3679 142.465 19.9905 141.72 19.79L139 18.93L133 37.31L127.55 35.52Z" fill="#37669D"/>
<path d="M163.54 24.47L152 45.48L146.92 42.68L158.51 21.68L163.54 24.47Z" fill="#37669D"/>
<path d="M154.56 46.65L169.74 28.06L182.74 38.65L179.74 42.3L171.27 35.38L168.16 39.19L176 45.57L173 49.23L165.19 42.85L162 46.67L170.47 53.59L167.47 57.24L154.56 46.65Z" fill="#37669D"/>
<path d="M194.3 67.56L190.92 62.77C191.351 62.3893 191.716 61.9399 192 61.44C192.249 60.9745 192.405 60.465 192.46 59.94C192.507 59.3974 192.449 58.8509 192.29 58.33C192.112 57.7455 191.838 57.1947 191.48 56.7C190.891 55.7985 190.039 55.1002 189.04 54.7C188.035 54.3369 186.945 54.2846 185.91 54.55C184.613 54.8739 183.393 55.4517 182.32 56.25C181.182 57.0058 180.206 57.9816 179.45 59.12C178.869 60.0114 178.566 61.0558 178.58 62.12C178.622 63.1607 178.97 64.1658 179.58 65.01C179.917 65.4974 180.325 65.9321 180.79 66.3C181.208 66.6194 181.678 66.863 182.18 67.02C182.671 67.1715 183.189 67.2192 183.7 67.16C184.252 67.1038 184.79 66.9515 185.29 66.71L188.64 71.52C187.68 72.06 186.629 72.4193 185.54 72.58C184.374 72.7591 183.185 72.7287 182.03 72.49C180.775 72.2231 179.584 71.7172 178.52 71C177.286 70.1548 176.221 69.0865 175.38 67.85C174.175 66.2085 173.417 64.2824 173.18 62.26C172.98 60.2826 173.355 58.2896 174.26 56.52C175.354 54.4694 176.942 52.7235 178.88 51.44C180.74 50.039 182.925 49.1309 185.23 48.8C187.206 48.5426 189.214 48.8658 191.01 49.73C192.821 50.6166 194.371 51.9567 195.51 53.62C196.309 54.7302 196.93 55.9583 197.35 57.26C197.725 58.4485 197.874 59.6966 197.79 60.94C197.693 62.1616 197.353 63.3515 196.79 64.44C196.165 65.6286 195.32 66.6874 194.3 67.56Z" fill="#37669D"/>
<path d="M182.32 78.17L204.93 70.17L210.54 85.94L206.1 87.52L202.44 77.22L197.8 78.87L201.17 88.36L196.72 89.95L193.35 80.45L188.7 82.1L192.36 92.4L187.92 93.98L182.32 78.17Z" fill="#37669D"/>
<path d="M188.81 103.9C188.762 103.501 188.797 103.096 188.912 102.71C189.027 102.325 189.221 101.967 189.48 101.66C189.727 101.345 190.037 101.085 190.39 100.895C190.743 100.706 191.131 100.592 191.53 100.56C191.925 100.511 192.325 100.545 192.706 100.66C193.087 100.776 193.439 100.97 193.74 101.23C194.418 101.649 194.901 102.32 195.084 103.096C195.267 103.871 195.134 104.687 194.715 105.365C194.296 106.043 193.625 106.526 192.849 106.709C192.074 106.892 191.258 106.759 190.58 106.34C190.101 106.111 189.686 105.767 189.37 105.34C189.053 104.921 188.859 104.423 188.81 103.9ZM196.2 100.55H196.67C197.732 100.412 198.808 100.412 199.87 100.55C200.588 100.653 201.272 100.92 201.87 101.33C202.42 101.741 202.914 102.221 203.34 102.76C203.675 103.188 204.035 103.596 204.42 103.98C204.755 104.309 205.14 104.582 205.56 104.79C205.971 104.973 206.422 105.045 206.87 105C207.297 104.96 207.705 104.804 208.05 104.55C208.374 104.288 208.62 103.942 208.76 103.55C208.92 103.144 208.975 102.703 208.92 102.27C208.881 101.82 208.73 101.386 208.48 101.01C208.228 100.633 207.884 100.327 207.48 100.12C207.033 99.9036 206.533 99.8203 206.04 99.88L205.5 94.51C206.916 94.3276 208.353 94.5823 209.62 95.24C210.733 95.8668 211.643 96.8006 212.24 97.93C212.881 99.1503 213.272 100.486 213.39 101.86C213.568 103.316 213.462 104.793 213.08 106.21C212.76 107.426 212.101 108.525 211.18 109.38C210.212 110.219 208.998 110.721 207.72 110.81C206.881 110.913 206.03 110.841 205.22 110.6C204.486 110.363 203.806 109.982 203.22 109.48C202.594 108.948 202.033 108.344 201.55 107.68C201.197 107.187 200.788 106.737 200.33 106.34C199.929 106.002 199.463 105.75 198.96 105.6C198.38 105.448 197.775 105.41 197.18 105.49H196.7L196.2 100.55Z" fill="#37669D"/>
<path d="M201.42 121.32C199.127 121.318 196.885 121.996 194.977 123.269C193.07 124.542 191.583 126.352 190.704 128.47C189.826 130.588 189.595 132.919 190.042 135.169C190.489 137.418 191.593 139.484 193.215 141.105C194.836 142.727 196.902 143.831 199.151 144.278C201.401 144.725 203.732 144.494 205.85 143.616C207.968 142.737 209.778 141.25 211.051 139.343C212.324 137.435 213.002 135.193 213 132.9C213 129.829 211.78 126.883 209.608 124.712C207.437 122.54 204.491 121.32 201.42 121.32ZM194.84 130.68C194.84 129.68 195.42 128.8 196.15 128.8C196.88 128.8 197.45 129.64 197.45 130.68C197.45 131.72 196.87 132.56 196.15 132.56C195.43 132.56 194.84 131.72 194.84 130.68ZM207.21 135.45C206.676 136.534 205.85 137.447 204.824 138.086C203.798 138.724 202.613 139.063 201.405 139.063C200.197 139.063 199.012 138.724 197.986 138.086C196.96 137.447 196.134 136.534 195.6 135.45C195.564 135.344 195.568 135.229 195.612 135.126C195.655 135.023 195.734 134.939 195.834 134.89C195.935 134.841 196.05 134.83 196.157 134.859C196.265 134.889 196.358 134.957 196.42 135.05C196.879 135.985 197.591 136.772 198.474 137.323C199.358 137.874 200.379 138.165 201.42 138.165C202.461 138.165 203.482 137.874 204.366 137.323C205.249 136.772 205.961 135.985 206.42 135.05C206.446 134.996 206.482 134.947 206.527 134.907C206.571 134.867 206.624 134.836 206.681 134.816C206.738 134.797 206.798 134.789 206.858 134.793C206.918 134.797 206.976 134.813 207.03 134.84C207.133 134.899 207.209 134.995 207.242 135.109C207.276 135.223 207.264 135.345 207.21 135.45ZM206.69 132.56C205.97 132.56 205.38 131.72 205.38 130.68C205.38 129.64 205.97 128.8 206.69 128.8C207.41 128.8 208 129.64 208 130.68C208 131.72 207.41 132.56 206.69 132.56Z" fill="#37669D"/>
<path d="M196.38 182.89C194.316 183.886 192.594 185.472 191.431 187.447C190.268 189.421 189.716 191.697 189.846 193.985C189.976 196.273 190.781 198.471 192.16 200.302C193.539 202.132 195.43 203.513 197.594 204.269C199.757 205.025 202.096 205.123 204.315 204.55C206.534 203.977 208.534 202.759 210.061 201.05C211.588 199.34 212.573 197.217 212.894 194.948C213.214 192.678 212.854 190.365 211.86 188.3C210.524 185.531 208.143 183.405 205.24 182.391C202.337 181.376 199.15 181.556 196.38 182.89ZM194.53 194.19C194.289 193.839 194.191 193.409 194.258 192.988C194.325 192.567 194.552 192.189 194.89 191.93C195.54 191.62 196.43 192.12 196.89 193.05C197.35 193.98 197.18 195 196.53 195.32C195.88 195.64 195 195.13 194.53 194.19ZM207.75 193.11C207.727 194.314 207.369 195.487 206.717 196.499C206.065 197.511 205.144 198.322 204.058 198.841C202.972 199.36 201.762 199.566 200.565 199.437C199.368 199.308 198.231 198.849 197.28 198.11C197.187 198.034 197.127 197.924 197.114 197.804C197.101 197.685 197.136 197.565 197.21 197.47C197.246 197.422 197.292 197.382 197.344 197.352C197.396 197.322 197.453 197.302 197.513 197.295C197.573 197.287 197.633 197.292 197.691 197.308C197.749 197.325 197.803 197.352 197.85 197.39C198.668 198.034 199.651 198.436 200.686 198.549C201.721 198.662 202.767 198.482 203.705 198.03C204.643 197.578 205.435 196.871 205.991 195.991C206.547 195.11 206.845 194.091 206.85 193.05C206.85 192.928 206.898 192.811 206.985 192.725C207.071 192.638 207.188 192.59 207.31 192.59C207.432 192.59 207.549 192.638 207.635 192.725C207.722 192.811 207.77 192.928 207.77 193.05L207.75 193.11ZM206 190.73C205.35 191.05 204.46 190.54 204 189.61C203.54 188.68 203.71 187.61 204.36 187.35C205.01 187.09 205.9 187.54 206.36 188.47C206.82 189.4 206.67 190.42 206 190.73Z" fill="#37669D"/>
<path d="M205.84 152.41C203.721 151.535 201.39 151.307 199.142 151.757C196.894 152.207 194.83 153.313 193.21 154.936C191.591 156.559 190.49 158.626 190.045 160.875C189.601 163.124 189.833 165.454 190.713 167.571C191.593 169.688 193.081 171.497 194.989 172.768C196.897 174.039 199.139 174.715 201.432 174.712C203.725 174.709 205.965 174.026 207.869 172.749C209.773 171.472 211.256 169.66 212.13 167.54C212.711 166.134 213.01 164.627 213.008 163.105C213.007 161.583 212.705 160.076 212.121 158.671C211.537 157.266 210.681 155.99 209.604 154.916C208.526 153.841 207.247 152.99 205.84 152.41ZM196.18 158.55C196.58 157.55 197.44 157.04 198.11 157.31C198.78 157.58 199 158.59 198.6 159.55C198.2 160.51 197.34 161.07 196.68 160.79C196.02 160.51 195.79 159.51 196.18 158.55ZM205.8 167.69C204.891 168.485 203.778 169.009 202.587 169.205C201.395 169.401 200.173 169.261 199.058 168.799C197.942 168.337 196.977 167.573 196.273 166.593C195.568 165.612 195.152 164.455 195.07 163.25C195.065 163.191 195.071 163.131 195.09 163.074C195.108 163.017 195.138 162.965 195.177 162.92C195.216 162.875 195.264 162.839 195.318 162.813C195.372 162.787 195.43 162.772 195.49 162.77C195.61 162.762 195.729 162.801 195.821 162.88C195.913 162.958 195.97 163.07 195.98 163.19C196.048 164.226 196.405 165.222 197.01 166.066C197.616 166.91 198.445 167.567 199.405 167.964C200.364 168.36 201.416 168.48 202.44 168.31C203.464 168.139 204.42 167.686 205.2 167C205.293 166.936 205.407 166.908 205.519 166.922C205.631 166.936 205.735 166.991 205.809 167.076C205.883 167.162 205.923 167.272 205.922 167.385C205.92 167.498 205.877 167.607 205.8 167.69ZM206.42 164.82C205.76 164.54 205.54 163.54 205.93 162.58C206.32 161.62 207.19 161.07 207.86 161.34C208.53 161.61 208.75 162.62 208.35 163.58C207.95 164.54 207.09 165.09 206.42 164.82Z" fill="#37669D"/>
<path d="M22.7 121.32C20.4073 121.32 18.1661 122 16.2599 123.274C14.3537 124.548 12.8682 126.359 11.9913 128.477C11.1143 130.595 10.8854 132.926 11.3334 135.175C11.7814 137.423 12.8863 139.488 14.5082 141.109C16.1301 142.729 18.1961 143.832 20.445 144.279C22.6939 144.725 25.0246 144.494 27.1422 143.615C29.2598 142.736 31.0693 141.249 32.3416 139.342C33.6139 137.434 34.292 135.193 34.29 132.9C34.2913 131.378 33.9923 129.871 33.4102 128.465C32.8281 127.058 31.9743 125.781 30.8977 124.705C29.8211 123.63 28.5428 122.777 27.1361 122.196C25.7294 121.615 24.2219 121.317 22.7 121.32ZM16.12 130.68C16.12 129.68 16.71 128.8 17.43 128.8C18.15 128.8 18.74 129.64 18.74 130.68C18.74 131.72 18.15 132.56 17.43 132.56C16.71 132.56 16.12 131.72 16.12 130.68ZM28.5 135.45C27.9663 136.534 27.1397 137.447 26.1137 138.086C25.0878 138.724 23.9034 139.063 22.695 139.063C21.4865 139.063 20.3022 138.724 19.2762 138.086C18.2503 137.447 17.4236 136.534 16.89 135.45C16.8369 135.343 16.8287 135.218 16.8672 135.105C16.9056 134.992 16.9876 134.898 17.095 134.845C17.2024 134.792 17.3265 134.784 17.4399 134.822C17.5534 134.861 17.6469 134.943 17.7 135.05C18.1589 135.985 18.8706 136.772 19.7544 137.323C20.6382 137.874 21.6587 138.165 22.7 138.165C23.7413 138.165 24.7618 137.874 25.6456 137.323C26.5294 136.772 27.2411 135.985 27.7 135.05C27.7209 134.988 27.7547 134.931 27.7993 134.883C27.8439 134.835 27.8981 134.798 27.9585 134.772C28.0188 134.747 28.0838 134.735 28.1492 134.737C28.2146 134.739 28.2788 134.755 28.3376 134.783C28.3964 134.812 28.4484 134.853 28.4901 134.903C28.5318 134.954 28.5624 135.012 28.5796 135.075C28.5969 135.139 28.6005 135.205 28.5902 135.269C28.5799 135.334 28.556 135.395 28.52 135.45H28.5ZM28 132.56C27.28 132.56 26.69 131.72 26.69 130.68C26.69 129.64 27.28 128.8 28 128.8C28.72 128.8 29.31 129.64 29.31 130.68C29.31 131.72 28.7 132.56 28 132.56Z" fill="#37669D"/>
<path d="M17.67 182.89C15.6047 183.885 13.8807 185.47 12.7162 187.444C11.5516 189.419 10.9988 191.694 11.1276 193.983C11.2564 196.272 12.0611 198.471 13.4398 200.303C14.8186 202.134 16.7095 203.516 18.8734 204.272C21.0373 205.029 23.377 205.127 25.5966 204.554C27.8163 203.981 29.8161 202.762 31.3432 201.053C32.8703 199.343 33.8561 197.219 34.176 194.949C34.4958 192.679 34.1353 190.365 33.14 188.3C31.8036 185.533 29.4242 183.41 26.5239 182.396C23.6236 181.381 20.4393 181.559 17.67 182.89ZM15.81 194.19C15.36 193.26 15.52 192.24 16.17 191.93C16.82 191.62 17.72 192.12 18.17 193.05C18.62 193.98 18.46 195 17.81 195.32C17.16 195.64 16.26 195.13 15.81 194.19ZM29 193.11C28.979 194.314 28.6232 195.488 27.9724 196.5C27.3217 197.513 26.4017 198.324 25.3156 198.843C24.2296 199.363 23.0204 199.569 21.8236 199.439C20.6268 199.31 19.4898 198.85 18.54 198.11C18.4454 198.035 18.384 197.926 18.369 197.806C18.3541 197.687 18.3867 197.566 18.46 197.47C18.4963 197.422 18.5418 197.382 18.5938 197.352C18.6459 197.322 18.7034 197.302 18.7631 197.295C18.8228 197.287 18.8833 197.292 18.9412 197.308C18.999 197.325 19.053 197.352 19.1 197.39C19.9192 198.03 20.9012 198.429 21.935 198.54C22.9688 198.651 24.013 198.47 24.9496 198.019C25.8861 197.567 26.6775 196.862 27.2343 195.984C27.7911 195.106 28.091 194.09 28.1 193.05C28.0903 192.985 28.0948 192.918 28.1132 192.854C28.1316 192.791 28.1634 192.732 28.2066 192.682C28.2498 192.632 28.3033 192.592 28.3634 192.564C28.4235 192.537 28.4889 192.522 28.555 192.522C28.6211 192.522 28.6865 192.537 28.7466 192.564C28.8067 192.592 28.8602 192.632 28.9034 192.682C28.9465 192.732 28.9784 192.791 28.9968 192.854C29.0152 192.918 29.0197 192.985 29.01 193.05L29 193.11ZM27.28 190.73C26.62 191.05 25.73 190.54 25.28 189.61C24.83 188.68 24.99 187.61 25.64 187.35C26.29 187.09 27.19 187.54 27.64 188.47C28.09 189.4 28 190.42 27.31 190.73H27.28Z" fill="#37669D"/>
<path d="M27.13 152.41C25.0115 151.533 22.6805 151.304 20.4319 151.752C18.1832 152.2 16.118 153.305 14.4975 154.927C12.8769 156.549 11.7739 158.615 11.3279 160.864C10.8819 163.113 11.113 165.444 11.992 167.562C12.871 169.679 14.3583 171.489 16.2658 172.761C18.1734 174.033 20.4154 174.711 22.7082 174.708C25.0011 174.706 27.2417 174.024 29.1467 172.748C31.0516 171.472 32.5353 169.659 33.41 167.54C34.5818 164.701 34.5786 161.512 33.401 158.675C32.2235 155.838 29.968 153.585 27.13 152.41ZM17.47 158.55C17.87 157.55 18.73 157.04 19.4 157.31C20.07 157.58 20.28 158.59 19.89 159.55C19.5 160.51 18.63 161.07 17.96 160.79C17.29 160.51 17.07 159.51 17.47 158.55ZM27.09 167.69C26.1799 168.484 25.0665 169.008 23.8749 169.203C22.6833 169.399 21.4607 169.258 20.3448 168.796C19.2289 168.335 18.2638 167.572 17.558 166.592C16.8523 165.612 16.4339 164.455 16.35 163.25C16.3445 163.13 16.3865 163.012 16.4669 162.922C16.5473 162.832 16.6597 162.778 16.78 162.77C16.8394 162.765 16.8993 162.771 16.956 162.79C17.0128 162.808 17.0652 162.838 17.1101 162.877C17.155 162.916 17.1914 162.964 17.2172 163.018C17.243 163.072 17.2575 163.13 17.26 163.19C17.3304 164.226 17.689 165.222 18.2955 166.065C18.9019 166.908 19.732 167.565 20.6919 167.961C21.6519 168.357 22.7035 168.477 23.728 168.307C24.7526 168.138 25.7092 167.685 26.49 167C26.5758 166.917 26.6905 166.87 26.81 166.87C26.9294 166.87 27.0442 166.917 27.13 167C27.1751 167.047 27.2101 167.102 27.2326 167.163C27.2552 167.224 27.2649 167.289 27.2612 167.354C27.2574 167.419 27.2403 167.482 27.2108 167.54C27.1813 167.598 27.1402 167.649 27.09 167.69ZM27.71 164.82C27.04 164.54 26.82 163.54 27.22 162.58C27.62 161.62 28.48 161.07 29.14 161.34C29.8 161.61 30.03 162.62 29.63 163.58C29.23 164.54 28.38 165.09 27.71 164.82Z" fill="#37669D"/>
</g>
<defs>
<clipPath id="clip0_0_5147">
<rect width="224.07" height="215.73" fill="white"/>
</clipPath>
</defs>
</svg>
