<svg width="194" height="194" viewBox="0 0 194 194" fill="none" xmlns="http://www.w3.org/2000/svg">
<g clip-path="url(#clip0_0_89)">
<path d="M96.58 193.16C149.92 193.16 193.16 149.92 193.16 96.58C193.16 43.2403 149.92 0 96.58 0C43.2403 0 0 43.2403 0 96.58C0 149.92 43.2403 193.16 96.58 193.16Z" fill="#EB3E33"/>
<path d="M96.58 191.52C149.014 191.52 191.52 149.014 191.52 96.58C191.52 44.1461 149.014 1.64001 96.58 1.64001C44.1461 1.64001 1.64001 44.1461 1.64001 96.58C1.64001 149.014 44.1461 191.52 96.58 191.52Z" fill="#EC84B6"/>
<path d="M96.58 142.54C91.66 142.54 90.36 112.48 90.36 96.59C90.36 80.7 91.66 50.59 96.58 50.59C101.5 50.59 102.81 80.65 102.81 96.59C102.81 112.53 101.51 142.54 96.58 142.54ZM96.58 52.07C94.87 52.4 91.8 67.56 91.8 96.59C91.8 125.62 94.87 140.77 96.59 141.1C98.3 140.77 101.37 125.61 101.37 96.59C101.37 67.57 98.3 52.4 96.58 52.07Z" fill="#EB3E33"/>
<path d="M128 129.48C122.29 129.48 102.61 111.36 92.24 100.98C81 89.74 60.61 67.57 64.09 64.09C67.57 60.61 89.74 81 101 92.19C112.26 103.38 132.58 125.6 129.1 129.08C128.801 129.354 128.405 129.498 128 129.48ZM65.41 65C65.3011 64.9965 65.1936 65.0242 65.1 65.08C64.1 66.52 72.68 79.41 93.2 99.94C113.72 120.47 126.64 129 128.07 128.03C129.07 126.59 120.49 113.7 99.97 93.17C80.49 73.73 67.89 65 65.41 65Z" fill="#EB3E33"/>
<path d="M96.58 102.81C80.69 102.81 50.63 101.51 50.63 96.59C50.63 91.67 80.69 90.37 96.58 90.37C112.47 90.37 142.58 91.66 142.58 96.59C142.58 101.52 112.48 102.81 96.58 102.81ZM96.58 91.81C67.58 91.81 52.4 94.88 52.07 96.6C52.4 98.31 67.56 101.38 96.58 101.38C125.6 101.38 140.77 98.31 141.1 96.59C140.77 94.87 125.61 91.8 96.58 91.8V91.81Z" fill="#EB3E33"/>
<path d="M65.22 129.48C65.0144 129.493 64.8084 129.464 64.6142 129.395C64.42 129.327 64.2417 129.219 64.09 129.08C60.61 125.6 81 103.43 92.19 92.19C103.38 80.95 125.6 60.62 129.08 64.09C132.56 67.56 112.22 89.74 101 101C90.61 111.36 70.93 129.48 65.22 129.48ZM127.75 65C125.29 65 112.68 73.69 93.2 93.17C72.68 113.7 64.13 126.59 65.11 128.04C66.55 129.04 79.44 120.46 99.97 99.94C120.5 79.42 129 66.55 128.06 65.1C127.969 65.0362 127.861 65.0013 127.75 65Z" fill="#EB3E33"/>
<path d="M24.08 99.29L23.2 100.53L20.63 98.53L19.82 101.65L18.34 101.19L19.42 98.19L16.2 98.37V96.84L19.42 96.92L18.26 93.92L19.72 93.42L20.62 96.52L23.14 94.52L24 95.7L21.33 97.53L24.08 99.29Z" fill="#EB4038"/>
<path d="M34.73 81C34.5728 81.8456 34.2196 82.6425 33.6985 83.3267C33.1775 84.011 32.5033 84.5636 31.73 84.94C29.7938 85.7023 27.6544 85.7765 25.67 85.15C23.5933 84.7753 21.7004 83.7198 20.29 82.15C19.7513 81.4688 19.3839 80.6682 19.2186 79.8156C19.0533 78.963 19.095 78.0832 19.34 77.25C19.556 76.1655 20.1027 75.1745 20.9049 74.4134C21.7072 73.6523 22.7256 73.1585 23.82 73L24.35 74.66C23.5533 74.7516 22.7998 75.071 22.18 75.58C21.5378 76.131 21.0979 76.8806 20.93 77.71C20.7746 78.2981 20.7575 78.9142 20.88 79.51C21.0011 80.0558 21.2476 80.566 21.6 81C21.986 81.4883 22.461 81.8988 23 82.21C23.622 82.5748 24.2966 82.8412 25 83L27.23 83.54C28.503 83.9271 29.871 83.86 31.1 83.35C31.6173 83.085 32.0668 82.7046 32.4136 82.2381C32.7604 81.7717 32.9952 81.2317 33.1 80.66C33.3528 79.8126 33.3176 78.9053 33 78.08C32.6504 77.3174 32.0922 76.6691 31.39 76.21L32.63 75C33.532 75.6699 34.2255 76.5818 34.63 77.63C34.9987 78.7182 35.0335 79.8918 34.73 81Z" fill="#EB4038"/>
<path d="M34.43 62.15L31.05 69.15L37.28 72.15L36.47 73.8L22.71 67.11L23.52 65.45L29.59 68.45L32.97 61.45L26.9 58.49L27.7 56.84L41.46 63.52L40.66 65.18L34.43 62.15Z" fill="#EB4038"/>
<path d="M43.32 60.79L31.23 51.42L37 44L38.28 45L33.64 51L37.7 54.1L42 48.52L43.28 49.52L39 55.09L43.19 58.34L47.78 52.42L49.06 53.42L43.32 60.79Z" fill="#EB4038"/>
<path d="M51.78 33.85L51.69 33.92L52.32 36.73L53.71 44.2L46.66 41.37L44 40.2L43.92 40.27L52.09 50.27L50.7 51.41L41 39.55L42.93 38L51.54 41.6L51.62 41.53L49.81 32.36L51.64 30.86L61.34 42.69L60 43.82L51.78 33.85Z" fill="#EB4038"/>
<path d="M63.74 41.52L63 40.17L64.9 39.17L59.14 28.37L57.25 29.37L56.55 28L62 25.13L62.72 26.49L60.83 27.49L66.58 38.28L68.48 37.28L69.2 38.63L63.74 41.52Z" fill="#EB4038"/>
<path d="M76.8 36.0001C76.0007 36.3155 75.1388 36.44 74.2829 36.3636C73.427 36.2872 72.6008 36.0121 71.87 35.5601C70.1977 34.3337 69.0002 32.5675 68.48 30.5601C67.679 28.6104 67.5557 26.4482 68.13 24.4201C68.4187 23.6003 68.9 22.8618 69.5335 22.2667C70.1669 21.6716 70.9339 21.2372 71.77 21.0001C72.8006 20.5973 73.9305 20.5233 75.0048 20.7883C76.079 21.0533 77.045 21.6442 77.77 22.4801L76.64 23.8101C76.1363 23.1876 75.4674 22.7197 74.71 22.4601C73.8978 22.2077 73.0243 22.2359 72.23 22.5401C71.6497 22.7189 71.119 23.0305 70.68 23.4501C70.2718 23.8512 69.9605 24.3403 69.77 24.8801C69.576 25.4698 69.4913 26.0899 69.52 26.7101C69.5796 27.4228 69.7413 28.1233 70 28.7901L70.71 31.0001C71.0538 32.2851 71.8399 33.4077 72.93 34.1701C73.4291 34.4759 73.9926 34.6614 74.5758 34.7117C75.159 34.762 75.7459 34.6759 76.29 34.4601C77.1356 34.2094 77.8719 33.6809 78.38 32.9601C78.8442 32.2595 79.0976 31.4404 79.11 30.6001L80.79 31.0101C80.6884 32.0951 80.2867 33.1304 79.63 34.0001C78.9139 34.9409 77.926 35.6391 76.8 36.0001Z" fill="#EB4038"/>
<path d="M93.4 32.47L91.33 28.18L85.2 28.93L84.2 33.6L82.35 33.82L85.82 18L88.15 17.71L95.32 32.25L93.4 32.47ZM87.21 19.54H87.1L85.44 27.26L90.68 26.61L87.21 19.54Z" fill="#EB4038"/>
<path d="M97.19 32.4599L98.19 17.1899L100.03 17.3099L99.13 30.9999L105.63 31.3999L105.53 33.0199L97.19 32.4599Z" fill="#EB4038"/>
<path d="M121.39 22.9299L117.17 35.9299L115.42 35.3599L119.64 22.3599L115 20.8599L115.5 19.3199L126.5 22.8899L126 24.4399L121.39 22.9299Z" fill="#EB4038"/>
<path d="M135.18 36.93L128.47 33.08L125.02 39.08L123.42 38.16L131 24.9L132.6 25.82L129.24 31.67L136 35.52L139.36 29.66L140.96 30.58L133.35 43.85L131.76 42.94L135.18 36.93Z" fill="#EB4038"/>
<path d="M135.39 45.5699L136.39 44.3899L138 45.7699L145.86 36.3999L144.23 34.9999L145.23 33.8199L149.93 37.7699L148.93 38.9399L147.29 37.5599L139.43 46.9999L141.08 48.3799L140.08 49.5499L135.39 45.5699Z" fill="#EB4038"/>
<path d="M151.71 48.12L153.14 44.53V44.48L143.36 52.64L142.21 51.25L153.96 41.46L155.33 43.1L151.73 53.37L150.25 57V57.06L160.03 48.9L161.18 50.28L149.47 60L148.11 58.36L151.71 48.12Z" fill="#EB4038"/>
<path d="M157.69 70.5999V70.5399C156.924 70.686 156.131 70.5282 155.48 70.0999C154.638 69.5539 153.971 68.776 153.56 67.8599C153.15 67.0757 152.912 66.2133 152.86 65.3299C152.81 64.4825 152.964 63.6354 153.31 62.8599C153.695 62.001 154.246 61.2262 154.93 60.5799C155.766 59.7868 156.721 59.1289 157.76 58.6299C158.776 58.093 159.869 57.7153 161 57.5099C161.931 57.3378 162.887 57.3582 163.81 57.5699C164.647 57.7766 165.426 58.1697 166.09 58.7199C166.794 59.3118 167.366 60.0441 167.77 60.8699C168.355 61.9346 168.61 63.1499 168.5 64.3599C168.382 65.4509 167.967 66.4885 167.3 67.3599L165.8 66.4199C166.369 65.7698 166.723 64.9605 166.816 64.1019C166.909 63.2432 166.736 62.3768 166.32 61.6199C166.042 61.0505 165.65 60.5436 165.17 60.1299C164.712 59.7528 164.181 59.4737 163.61 59.3099C163.011 59.1486 162.385 59.1078 161.77 59.1899C161.073 59.2917 160.397 59.508 159.77 59.8299L157.55 60.9499C156.914 61.2586 156.335 61.6747 155.84 62.1799C155.404 62.6224 155.063 63.15 154.84 63.7299C154.625 64.2973 154.54 64.9054 154.59 65.5099C154.654 66.1827 154.844 66.8373 155.15 67.4399C155.379 67.8928 155.672 68.3104 156.02 68.6799C156.339 69.0257 156.719 69.3104 157.14 69.5199C157.551 69.7083 157.998 69.8039 158.45 69.7999C158.964 69.7799 159.467 69.6431 159.92 69.3999L161.28 68.7199L159.76 65.7199L161.2 64.9799L163.53 69.5999L156.53 73.1499L155.76 71.6199L157.69 70.5999Z" fill="#EB4038"/>
<path d="M158.18 80.1001C157.867 79.041 157.822 77.9207 158.05 76.84C158.292 75.8683 158.743 74.9608 159.37 74.1801L160.82 75.1801C160.305 75.8123 159.927 76.5444 159.71 77.3301C159.521 78.1183 159.542 78.9423 159.77 79.7201C159.944 80.6113 160.443 81.4061 161.17 81.9501C161.503 82.1596 161.878 82.294 162.268 82.3441C162.658 82.3942 163.055 82.3587 163.43 82.2401C163.736 82.1779 164.025 82.0501 164.277 81.8654C164.53 81.6806 164.739 81.4434 164.89 81.1701C165.199 80.4311 165.319 79.627 165.24 78.8301V77.5501C165.145 76.3633 165.344 75.1713 165.82 74.0801C166.06 73.6256 166.398 73.2302 166.81 72.9224C167.221 72.6145 167.696 72.402 168.2 72.3001C168.795 72.1294 169.42 72.0952 170.03 72.2001C170.589 72.2992 171.116 72.5288 171.57 72.8701C172.045 73.2372 172.446 73.6921 172.75 74.2101C173.106 74.8041 173.373 75.4478 173.54 76.1201C173.83 77.0936 173.881 78.1225 173.69 79.1201C173.482 80.0443 173.049 80.903 172.43 81.6201L171.1 80.5501C171.541 80.0108 171.862 79.3834 172.04 78.7101C172.207 77.9517 172.176 77.163 171.95 76.4201C171.788 75.617 171.366 74.8896 170.75 74.3501C170.47 74.1347 170.141 73.9912 169.792 73.9319C169.444 73.8727 169.086 73.8995 168.75 74.0101C168.443 74.071 168.154 74.2032 167.908 74.396C167.661 74.5888 167.463 74.8368 167.33 75.1201C167.064 75.8626 166.961 76.6541 167.03 77.4401V78.7201C167.154 79.94 166.932 81.1703 166.39 82.2701C166.13 82.7058 165.784 83.0839 165.373 83.3814C164.962 83.6789 164.495 83.8894 164 84.0001C163.369 84.1733 162.71 84.2208 162.06 84.1401C161.465 84.0568 160.897 83.8378 160.4 83.5001C159.873 83.1396 159.425 82.6771 159.08 82.1401C158.674 81.512 158.37 80.8234 158.18 80.1001Z" fill="#EB4038"/>
<path d="M169.07 93.45L169.95 92.21L172.53 94.15L173.32 91.02L174.8 91.47L173.74 94.47L176.96 94.28V95.81L173.73 95.74L174.91 98.74L173.45 99.26L172.54 96.16L170.03 98.16L169.14 97L171.8 95.15L169.07 93.45Z" fill="#EB4038"/>
<path d="M158.52 111.81C158.673 110.955 159.024 110.148 159.545 109.454C160.066 108.759 160.742 108.196 161.52 107.81C163.452 107.036 165.592 106.951 167.58 107.57C169.656 107.926 171.555 108.96 172.98 110.51C173.525 111.186 173.9 111.983 174.074 112.834C174.248 113.684 174.216 114.564 173.98 115.4C173.788 116.501 173.255 117.514 172.457 118.296C171.658 119.078 170.635 119.59 169.53 119.76L169 118.1C169.797 118.003 170.55 117.68 171.17 117.17C171.805 116.612 172.237 115.86 172.4 115.03C172.539 114.438 172.539 113.822 172.4 113.23C172.277 112.671 172.027 112.147 171.67 111.7C171.273 111.226 170.792 110.829 170.25 110.53C169.624 110.179 168.95 109.92 168.25 109.76L166.02 109.23C164.744 108.853 163.377 108.927 162.15 109.44C161.63 109.704 161.179 110.086 160.832 110.554C160.485 111.023 160.251 111.566 160.15 112.14C159.914 112.991 159.974 113.897 160.32 114.71C160.67 115.475 161.232 116.124 161.94 116.58L160.71 117.79C159.807 117.13 159.112 116.224 158.71 115.18C158.307 114.102 158.24 112.927 158.52 111.81Z" fill="#EB4038"/>
<path d="M158.94 130.66L162.28 123.66L156.03 120.66L156.82 119L170.62 125.61L169.83 127.27L163.74 124.36L160.4 131.36L166.49 134.28L165.69 135.94L151.89 129.33L152.69 127.67L158.94 130.66Z" fill="#EB4038"/>
<path d="M150.05 132.08L162.19 141.38L156.51 148.79L155.22 147.79L159.78 141.85L155.71 138.73L151.42 144.33L150.13 143.33L154.42 137.73L150.21 134.5L145.66 140.45L144.37 139.45L150.05 132.08Z" fill="#EB4038"/>
<path d="M141.75 159.06L141.83 158.99L141.19 156.19L139.75 148.73L146.82 151.52L149.46 152.67L149.54 152.6L141.31 142.68L142.7 141.53L152.46 153.3L150.57 154.87L141.94 151.33L141.85 151.4L143.73 160.55L141.9 162.06L132.14 150.29L133.52 149.14L141.75 159.06Z" fill="#EB4038"/>
<path d="M129.74 151.46L130.47 152.81L128.58 153.81L134.4 164.57L136.29 163.57L137.02 164.92L131.62 167.83L130.89 166.48L132.78 165.48L127 154.71L125.11 155.71L124.38 154.36L129.74 151.46Z" fill="#EB4038"/>
<path d="M116.7 157.1C117.497 156.78 118.358 156.651 119.213 156.722C120.069 156.793 120.897 157.063 121.63 157.51C123.311 158.736 124.522 160.5 125.06 162.51C125.869 164.457 126.002 166.618 125.44 168.65C125.153 169.469 124.675 170.207 124.045 170.803C123.416 171.4 122.653 171.838 121.82 172.08C120.753 172.484 119.59 172.561 118.48 172.3C117.432 172.016 116.487 171.437 115.76 170.63L116.88 169.29C117.385 169.913 118.058 170.378 118.82 170.63C119.63 170.878 120.5 170.847 121.29 170.54C121.87 170.355 122.4 170.041 122.84 169.62C123.246 169.215 123.554 168.723 123.74 168.18C123.935 167.594 124.016 166.976 123.98 166.36C123.949 165.633 123.807 164.915 123.56 164.23L122.82 162.07C122.465 160.788 121.673 159.67 120.58 158.91C120.079 158.607 119.515 158.425 118.932 158.379C118.349 158.332 117.763 158.421 117.22 158.64C116.376 158.895 115.643 159.427 115.14 160.15C114.677 160.851 114.427 161.67 114.42 162.51L112.74 162.12C112.82 161.006 113.215 159.938 113.88 159.04C114.6 158.121 115.584 157.444 116.7 157.1Z" fill="#EB4038"/>
<path d="M100.13 160.68L102.22 164.96L108.35 164.18L109.35 159.5L111.2 159.27L107.84 175.12L105.51 175.42L98.26 160.92L100.13 160.68ZM106.4 173.57H106.5L108.12 165.85L102.88 166.52L106.4 173.57Z" fill="#EB4038"/>
<path d="M96.32 160.71L95.45 176L93.61 175.9L94.39 162.25L87.89 161.87L87.99 160.25L96.32 160.71Z" fill="#EB4038"/>
<path d="M72.2 170.38L76.34 157.38L78.1 157.94L73.95 170.94L78.59 172.42L78.09 173.97L67.09 170.46L67.58 168.91L72.2 170.38Z" fill="#EB4038"/>
<path d="M58.33 156.46L65.06 160.27L68.47 154.27L70.07 155.18L62.54 168.49L60.94 167.59L64.26 161.71L57.53 157.9L54.21 163.78L52.6 162.87L60.14 149.55L61.74 150.46L58.33 156.46Z" fill="#EB4038"/>
<path d="M58.05 147.8L57.05 148.98L55.4 147.61L47.61 157L49.26 158.38L48.26 159.56L43.54 155.64L44.54 154.46L46.19 155.83L54 146.44L52.35 145.06L53.35 143.88L58.05 147.8Z" fill="#EB4038"/>
<path d="M41.72 145.34L40.31 148.93L50.05 140.73L51.21 142.1L39.55 152L38.18 150.37L41.72 140.08L43.13 136.49V136.44L33.39 144.64L32.23 143.27L43.93 133.41L45.3 135.04L41.72 145.34Z" fill="#EB4038"/>
<path d="M35.62 122.89V122.95C36.3846 122.801 37.1771 122.955 37.83 123.38C38.6736 123.926 39.346 124.699 39.77 125.61C40.1783 126.395 40.42 127.257 40.48 128.14C40.5273 128.985 40.3802 129.83 40.05 130.61C39.6654 131.472 39.1149 132.25 38.43 132.9C37.5999 133.709 36.6484 134.384 35.61 134.9C34.6089 135.427 33.5331 135.798 32.42 136C31.493 136.19 30.5371 136.19 29.61 136C28.7715 135.795 27.9892 135.405 27.32 134.86C26.614 134.27 26.0413 133.538 25.64 132.71C25.0592 131.711 24.7898 130.562 24.8664 129.409C24.943 128.257 25.3621 127.153 26.07 126.24L27.58 127.17C27.0304 127.812 26.6825 128.601 26.58 129.44C26.4894 130.319 26.6672 131.204 27.09 131.98C27.3723 132.544 27.7671 133.044 28.25 133.45C28.7035 133.832 29.2364 134.109 29.81 134.26C30.4092 134.423 31.0356 134.46 31.65 134.37C32.35 134.274 33.0273 134.054 33.65 133.72L35.86 132.59C36.4953 132.28 37.0708 131.86 37.56 131.35C37.9984 130.909 38.3391 130.381 38.56 129.8C38.7712 129.232 38.8532 128.624 38.8 128.02C38.7344 127.345 38.5374 126.689 38.22 126.09C37.9884 125.639 37.6956 125.221 37.35 124.85C37.0329 124.507 36.6526 124.229 36.23 124.03C35.817 123.838 35.3656 123.742 34.91 123.75C34.3992 123.77 33.8998 123.907 33.45 124.15L32.09 124.84L33.63 127.84L32.19 128.58L29.83 123.97L36.83 120.39L37.61 121.91L35.62 122.89Z" fill="#EB4038"/>
<path d="M35.08 113.41C35.4043 114.467 35.4559 115.588 35.23 116.67C34.9957 117.646 34.5483 118.558 33.92 119.34L32.46 118.34C32.9746 117.7 33.3524 116.962 33.57 116.17C33.7555 115.384 33.7313 114.563 33.5 113.79C33.3224 112.898 32.8155 112.105 32.08 111.57C31.7462 111.362 31.3711 111.229 30.9808 111.181C30.5906 111.133 30.1945 111.17 29.82 111.29C29.5153 111.353 29.2278 111.481 28.9775 111.666C28.7272 111.85 28.5199 112.087 28.37 112.36C28.061 113.099 27.9341 113.902 28 114.7L28.06 115.98C28.1623 117.169 27.9663 118.365 27.49 119.46C27.2531 119.914 26.9186 120.31 26.5106 120.619C26.1026 120.929 25.6311 121.144 25.13 121.25C24.5351 121.418 23.9108 121.456 23.3 121.36C22.7407 121.268 22.2121 121.042 21.76 120.7C21.2781 120.334 20.8708 119.879 20.56 119.36C20.2047 118.768 19.9353 118.128 19.76 117.46C19.4694 116.487 19.4146 115.458 19.6 114.46C19.8019 113.536 20.2316 112.676 20.85 111.96L22.2 113C21.7618 113.543 21.4447 114.174 21.27 114.85C21.1065 115.609 21.1409 116.398 21.37 117.14C21.5421 117.939 21.9662 118.661 22.58 119.2C22.8609 119.414 23.1902 119.557 23.5389 119.614C23.8876 119.672 24.2451 119.643 24.58 119.53C24.89 119.466 25.1804 119.329 25.4273 119.131C25.6741 118.933 25.8704 118.679 26 118.39C26.2577 117.645 26.3565 116.855 26.29 116.07V114.79C26.1552 113.572 26.3702 112.34 26.91 111.24C27.1723 110.812 27.5183 110.442 27.9273 110.152C28.3363 109.861 28.7999 109.657 29.29 109.55C29.9191 109.366 30.5792 109.311 31.23 109.39C31.8236 109.473 32.3909 109.688 32.89 110.02C33.4174 110.383 33.8692 110.845 34.22 111.38C34.618 112.004 34.9086 112.69 35.08 113.41Z" fill="#EB4038"/>
</g>
<defs>
<clipPath id="clip0_0_89">
<rect width="193.17" height="193.17" fill="white"/>
</clipPath>
</defs>
</svg>
