<svg width="304" height="88" viewBox="0 0 304 88" fill="none" xmlns="http://www.w3.org/2000/svg">
<g clip-path="url(#clip0_0_5213)">
<path d="M303.3 0H0V87.12H303.3V0Z" fill="#485BEA"/>
<path d="M39.49 61.41C36.8851 61.4082 34.2968 60.9965 31.82 60.19C29.4742 59.4745 27.2808 58.332 25.35 56.82L30.67 49.36C30.9612 49.7329 31.297 50.0688 31.67 50.36C32.3943 50.9143 33.1753 51.3903 34 51.78C35.0716 52.3217 36.1893 52.7668 37.34 53.11C38.5991 53.5024 39.9112 53.6981 41.23 53.69C42.171 53.7304 43.111 53.5912 44 53.28C44.5985 53.0653 45.111 52.6616 45.46 52.13C45.7546 51.6232 45.9066 51.0462 45.9 50.46C45.9073 50.0819 45.8195 49.7079 45.6448 49.3725C45.4701 49.037 45.214 48.7508 44.9 48.54C44.0783 47.9847 43.1829 47.5471 42.24 47.24L38.5 46C37.053 45.497 35.6702 44.8258 34.38 44C33.3476 43.3634 32.4861 42.4847 31.87 41.44C31.2893 40.3871 30.9897 39.2024 31 38C30.9574 35.9224 31.4135 33.865 32.33 32C33.2102 30.2614 34.4633 28.7385 36 27.54C37.5331 26.3372 39.2616 25.407 41.11 24.79C43.0021 24.1374 44.9885 23.7995 46.99 23.79C48.5849 23.7801 50.1735 23.9922 51.71 24.42C53.0901 24.811 54.4295 25.3334 55.71 25.98C56.8071 26.5417 57.869 27.1695 58.89 27.86L53.69 35C53.69 34.8267 53.42 34.5567 52.88 34.19C52.243 33.7514 51.5745 33.3603 50.88 33.02C49.9987 32.578 49.0822 32.21 48.14 31.92C47.1425 31.6105 46.1043 31.452 45.06 31.45C44.2025 31.4301 43.3496 31.5797 42.55 31.89C41.9261 32.1526 41.3888 32.5859 41 33.14C40.6193 33.7137 40.4271 34.3919 40.45 35.08C40.4444 35.393 40.5099 35.7033 40.6415 35.9873C40.7732 36.2714 40.9675 36.5219 41.21 36.72C41.8568 37.2282 42.5927 37.6114 43.38 37.85L46.64 39C48.2577 39.4966 49.8169 40.1672 51.29 41C52.5244 41.6607 53.589 42.5986 54.4 43.74C55.1918 45.0046 55.5822 46.4793 55.52 47.97C55.5821 50.1451 55.0973 52.3009 54.11 54.24C53.2246 55.9067 51.9523 57.3367 50.4 58.41C48.8402 59.4841 47.0987 60.2667 45.26 60.72C43.3727 61.1883 41.4345 61.4201 39.49 61.41Z" fill="#F4ECE9"/>
<path d="M65.33 23.05H73.68L70.45 38.68C71.6782 37.1343 73.2316 35.8779 75 35C76.6959 34.1311 78.5744 33.6787 80.48 33.68C81.8294 33.6092 83.1731 33.9028 84.37 34.53C85.2706 35.0432 85.9743 35.842 86.37 36.8C86.7684 37.7877 86.9656 38.8451 86.95 39.91C86.9506 40.5788 86.9071 41.2469 86.82 41.91C86.73 42.6 86.62 43.27 86.48 43.91L82.71 61.15H74.36L77.65 46.07C77.72 45.69 77.77 45.34 77.81 45.07C77.85 44.8 77.81 44.43 77.81 44.07C77.8782 43.2311 77.6163 42.3987 77.08 41.75C76.8161 41.4949 76.502 41.2973 76.1577 41.1699C75.8134 41.0426 75.4464 40.9881 75.08 41.01C74.3795 41.0503 73.6965 41.2449 73.08 41.58C72.2352 42.0078 71.4598 42.5607 70.78 43.22C70.0174 43.934 69.3727 44.7643 68.87 45.68L65.59 61.15H57.24L65.33 23.05Z" fill="#F4ECE9"/>
<path d="M101 61.68C98.6561 61.7734 96.3306 61.2309 94.27 60.11C92.6006 59.1368 91.2626 57.6838 90.43 55.94C89.5961 54.1462 89.1758 52.188 89.2 50.21C89.1912 48.056 89.6093 45.9216 90.43 43.93C91.2409 41.9597 92.4184 40.1612 93.9 38.63C95.4197 37.0802 97.2312 35.8465 99.23 35C101.447 34.0779 103.829 33.6218 106.23 33.66C108.584 33.547 110.924 34.0759 113 35.19C114.659 36.1536 115.987 37.597 116.81 39.33C117.633 41.1437 118.04 43.1187 118 45.11C118.005 47.2475 117.587 49.3647 116.77 51.34C115.961 53.3171 114.783 55.1224 113.3 56.66C111.798 58.2292 109.995 59.4807 108 60.34C105.784 61.2629 103.401 61.7191 101 61.68ZM102.2 54.68C103.133 54.6821 104.055 54.4664 104.89 54.05C105.759 53.6065 106.53 52.9947 107.16 52.25C107.839 51.4354 108.371 50.508 108.73 49.51C109.114 48.4386 109.307 47.3081 109.3 46.17C109.326 45.1905 109.159 44.2154 108.81 43.3C108.515 42.5594 108.015 41.9179 107.37 41.45C106.675 40.9905 105.853 40.7598 105.02 40.79C104.105 40.7963 103.205 41.0154 102.39 41.43C101.51 41.8685 100.727 42.4808 100.09 43.23C99.3938 44.0325 98.8545 44.9585 98.5 45.96C98.1044 47.0494 97.908 48.2011 97.92 49.36C97.9048 50.3103 98.0746 51.2545 98.42 52.14C98.6979 52.9104 99.2144 53.5721 99.8941 54.0288C100.574 54.4856 101.382 54.7137 102.2 54.68Z" fill="#F4ECE9"/>
<path d="M120.4 34.06H128.4L131.06 53.67C131.72 52.57 132.36 51.47 132.97 50.37L134.77 47.07L132.26 34.07H139.2L140.14 42.28C140.8 40.9 141.45 39.53 142.07 38.15C142.69 36.77 143.31 35.41 143.9 34.07H150.32C149.435 36.3725 148.433 38.6287 147.32 40.83C146.249 42.9672 145.032 45.0286 143.68 47L144.57 51.8C145.68 50.36 146.66 49.04 147.49 47.86C148.32 46.68 149.07 45.55 149.74 44.5C150.41 43.45 151 42.4 151.54 41.35C152.08 40.3 152.61 39.2 153.15 38.03C153.69 36.86 154.26 35.53 154.85 34.03H162.42C160.568 38.7698 158.221 43.3015 155.42 47.55C152.297 52.341 148.813 56.8875 145 61.15H139.52L138.21 51.66C137.337 53.24 136.433 54.8233 135.5 56.41L132.68 61.15H125.47L120.4 34.06Z" fill="#F4ECE9"/>
<path d="M171.87 61.68C169.626 61.7615 167.403 61.218 165.45 60.11C163.808 59.1383 162.485 57.7103 161.64 56C160.789 54.2357 160.358 52.2986 160.38 50.34C160.377 48.2256 160.805 46.1328 161.64 44.19C163.377 40.1079 166.618 36.8499 170.69 35.09C172.942 34.1245 175.37 33.6408 177.82 33.67C180.383 33.5317 182.922 34.234 185.05 35.67C186.806 36.96 188.066 38.8131 188.62 40.92L180 43.35C179.733 42.5803 179.242 41.9081 178.59 41.42C177.916 40.9536 177.11 40.7153 176.29 40.74C175.35 40.7451 174.423 40.9639 173.58 41.38C172.692 41.8152 171.902 42.4278 171.26 43.18C170.561 43.9861 170.013 44.9106 169.64 45.91C169.231 47.0136 169.027 48.183 169.04 49.36C169.018 50.3063 169.195 51.2465 169.56 52.12C169.865 52.8801 170.387 53.5338 171.06 54C171.694 54.4385 172.449 54.6692 173.22 54.66C173.855 54.6606 174.486 54.5454 175.08 54.32C175.694 54.0804 176.265 53.7427 176.77 53.32C177.282 52.926 177.725 52.4494 178.08 51.91L185.7 54.42C184.708 55.8326 183.512 57.0897 182.15 58.15C179.222 60.4574 175.598 61.7021 171.87 61.68Z" fill="#F4ECE9"/>
<path d="M198.7 61.68C196.906 61.7505 195.133 61.28 193.61 60.3295C192.087 59.379 190.885 57.9924 190.16 56.35C189.361 54.5825 188.965 52.6594 189 50.72C188.974 46.3047 190.572 42.0339 193.49 38.72C194.836 37.1991 196.449 35.9382 198.25 35C200.001 34.0876 201.946 33.6108 203.92 33.61C205.55 33.5737 207.148 34.0609 208.48 35C209.723 35.8619 210.636 37.1207 211.07 38.57L212.01 34.05H220.41L216.55 51.4C216.55 51.6 216.49 51.79 216.47 51.96C216.46 52.1265 216.46 52.2935 216.47 52.46C216.47 53.24 216.9 53.65 217.77 53.68L216.31 60.73C215.54 60.87 214.86 60.97 214.31 61.04C213.809 61.1028 213.305 61.1362 212.8 61.14C211.674 61.1974 210.553 60.9449 209.56 60.41C209.148 60.1637 208.812 59.8082 208.59 59.3829C208.367 58.9575 208.267 58.4789 208.3 58V57.63C208.287 57.487 208.287 57.343 208.3 57.2C208.3 57.05 208.37 56.88 208.41 56.69C207.226 58.285 205.676 59.5713 203.89 60.44C202.274 61.2347 200.501 61.6584 198.7 61.68ZM202.46 54.68C203.002 54.6779 203.54 54.5832 204.05 54.4C204.603 54.2142 205.136 53.9729 205.64 53.68C206.187 53.3579 206.694 52.9719 207.15 52.53C207.632 52.0713 208.07 51.5692 208.46 51.03L209.66 45.37C209.572 44.5321 209.295 43.7251 208.85 43.01C208.432 42.3564 207.871 41.806 207.21 41.4C206.583 41.0073 205.86 40.7962 205.12 40.79C204.152 40.7892 203.199 41.0334 202.35 41.5C201.457 41.9755 200.66 42.6131 200 43.38C199.311 44.2044 198.764 45.137 198.38 46.14C197.98 47.1663 197.777 48.2586 197.78 49.36C197.762 50.2928 197.949 51.2181 198.33 52.07C198.687 52.8461 199.269 53.4973 200 53.94C200.735 54.4055 201.59 54.6454 202.46 54.63V54.68Z" fill="#F4ECE9"/>
<path d="M231.32 61.68C229.163 61.6873 227.021 61.3045 225 60.55C223.137 59.8964 221.473 58.7737 220.17 57.29L224.17 52.17C225.404 53.2412 226.784 54.1303 228.27 54.81C229.525 55.3896 230.888 55.6996 232.27 55.72C232.919 55.7421 233.567 55.6438 234.18 55.43C234.633 55.2705 235.025 54.9733 235.3 54.58C235.55 54.1969 235.679 53.7474 235.67 53.29C235.666 52.9812 235.582 52.6787 235.426 52.4122C235.27 52.1457 235.048 51.9244 234.78 51.77C233.839 51.2366 232.83 50.8329 231.78 50.57C230.196 50.0787 228.646 49.4841 227.14 48.79C226.113 48.3441 225.207 47.6582 224.5 46.79C223.93 45.9749 223.649 44.9931 223.7 44C223.675 42.0986 224.272 40.2411 225.4 38.71C226.6 37.1092 228.181 35.8339 230 35C231.991 34.0604 234.169 33.5852 236.37 33.61C238.188 33.5826 239.998 33.8667 241.72 34.45C243.402 35.068 244.902 36.0997 246.08 37.45L241.8 42.45C240.78 41.5269 239.64 40.7465 238.41 40.13C237.448 39.6697 236.396 39.4273 235.33 39.42C234.707 39.4071 234.087 39.5088 233.5 39.72C233.029 39.8915 232.614 40.1889 232.3 40.58C232.013 40.978 231.866 41.4596 231.88 41.95C231.876 42.2411 231.952 42.5278 232.1 42.7783C232.248 43.0289 232.463 43.2337 232.72 43.37C233.675 43.8529 234.681 44.2253 235.72 44.48C237.389 44.9084 239.008 45.5118 240.55 46.28C241.622 46.7949 242.56 47.5514 243.29 48.49C243.897 49.3705 244.208 50.421 244.18 51.49C244.205 53.356 243.649 55.1837 242.59 56.72C241.457 58.299 239.91 59.5344 238.12 60.29C235.98 61.2373 233.66 61.7115 231.32 61.68Z" fill="#F4ECE9"/>
<path d="M258.62 61.68C256.487 61.7364 254.375 61.2403 252.49 60.24C250.792 59.3298 249.4 57.9382 248.49 56.24C247.545 54.4049 247.071 52.3637 247.11 50.3C247.093 48.0845 247.553 45.8914 248.46 43.87C249.362 41.8873 250.639 40.0978 252.22 38.6C253.844 37.0544 255.748 35.8326 257.83 35C260.027 34.1085 262.379 33.6599 264.75 33.68C266.591 33.6371 268.423 33.9424 270.15 34.58C271.55 35.0933 272.767 36.0082 273.65 37.21C274.494 38.437 274.925 39.9013 274.88 41.39C274.905 42.7759 274.532 44.1399 273.805 45.3202C273.078 46.5006 272.029 47.448 270.78 48.05C268.047 49.57 263.983 50.3333 258.59 50.34C257.59 50.34 256.41 50.34 255.17 50.26C253.93 50.18 252.66 50.11 251.34 49.97L252.34 44.86C253.45 44.96 254.51 45.04 255.52 45.09C256.53 45.14 257.52 45.17 258.52 45.17C260.153 45.2006 261.786 45.0902 263.4 44.84C264.337 44.7432 265.231 44.398 265.99 43.84C266.237 43.6333 266.435 43.3746 266.569 43.0824C266.704 42.7902 266.773 42.4718 266.77 42.15C266.786 41.6715 266.63 41.2032 266.33 40.83C266 40.4611 265.585 40.1794 265.12 40.01C264.544 39.7968 263.934 39.695 263.32 39.71C262.202 39.7032 261.103 40.0004 260.14 40.57C259.135 41.1765 258.273 41.9915 257.61 42.96C256.897 44.0119 256.354 45.1694 256 46.39C255.591 47.7521 255.389 49.1679 255.4 50.59C255.375 51.5189 255.534 52.4435 255.87 53.31C256.163 54.0557 256.708 54.675 257.41 55.06C258.238 55.4958 259.165 55.7062 260.1 55.67C261.313 55.6824 262.509 55.3791 263.57 54.79C264.624 54.201 265.512 53.3547 266.15 52.33L272.73 54.42C271.74 55.9 270.481 57.182 269.02 58.2C267.489 59.2964 265.804 60.1591 264.02 60.76C262.282 61.3588 260.458 61.6696 258.62 61.68Z" fill="#F4ECE9"/>
</g>
<defs>
<clipPath id="clip0_0_5213">
<rect width="303.3" height="87.12" fill="white"/>
</clipPath>
</defs>
</svg>
