<svg width="253" height="253" viewBox="0 0 253 253" fill="none" xmlns="http://www.w3.org/2000/svg">
<g clip-path="url(#clip0_0_5226)">
<path d="M126.019 -0.000580236L-0.00140381 126.02L126.019 252.041L252.04 126.02L126.019 -0.000580236Z" fill="#FF4530"/>
<path d="M72.69 116C73.0326 115.316 73.3331 114.611 73.59 113.89C74.6564 114.496 75.805 114.944 77 115.22C78.1808 115.517 79.3924 115.675 80.61 115.69C81.4281 115.736 82.2478 115.634 83.03 115.39C83.5 115.19 83.73 114.97 83.73 114.74C83.73 113.9 82.45 113.48 79.89 113.48C77.8116 113.6 75.7304 113.3 73.77 112.6C73.2019 112.376 72.7156 111.984 72.3761 111.477C72.0366 110.969 71.86 110.37 71.87 109.76C71.8264 108.925 72.0214 108.095 72.4323 107.368C72.8431 106.64 73.4528 106.044 74.19 105.65C76.0415 104.697 78.1093 104.242 80.19 104.33C81.6767 104.335 83.1574 104.52 84.6 104.88C86.016 105.207 87.3863 105.708 88.68 106.37C88.28 107.277 87.86 108.387 87.42 109.7C87.3626 109.911 87.2925 110.118 87.21 110.32C86.2488 109.631 85.1561 109.148 84 108.9C82.7761 108.551 81.5122 108.363 80.24 108.34C79.3524 108.291 78.4625 108.375 77.6 108.59C77.14 108.77 76.91 109.02 76.91 109.35C76.91 109.68 77.23 109.94 77.85 110.14C78.7374 110.371 79.6536 110.472 80.57 110.44C82.7372 110.311 84.9067 110.652 86.93 111.44C87.5326 111.692 88.0454 112.12 88.4021 112.667C88.7587 113.215 88.9426 113.857 88.93 114.51C88.995 115.332 88.8324 116.156 88.4603 116.891C88.0881 117.627 87.5206 118.246 86.82 118.68C84.8534 119.663 82.6652 120.117 80.47 120C78.8996 119.996 77.3342 119.825 75.8 119.49C74.314 119.184 72.8749 118.683 71.52 118C71.9503 117.358 72.341 116.69 72.69 116Z" fill="#FFD3C8"/>
<path d="M107.53 109.08C105.37 109.013 103.27 108.973 101.23 108.96V119.74H96.06V109C94.0133 109 91.92 109.04 89.78 109.12V104.78H107.53V109.08Z" fill="#FFD3C8"/>
<path d="M120.57 119.74C120.31 118.95 119.95 117.97 119.51 116.79H112.92L111.92 119.74H106.7L112.49 104.74H120.09L125.92 119.74H120.57ZM118.34 113.56C117.81 112.12 117.27 110.67 116.72 109.22L116.23 107.88C115.75 109.13 115.04 111.03 114.1 113.56H118.34Z" fill="#FFD3C8"/>
<path d="M143.52 109.08C141.36 109.013 139.26 108.973 137.22 108.96V119.74H132.05V109C129.997 109 127.903 109.04 125.77 109.12V104.78H143.52V109.08Z" fill="#FFD3C8"/>
<path d="M150.05 116C155.28 116 159.05 115.9 161.43 115.77C161.332 116.349 161.275 116.933 161.26 117.52C161.26 118.12 161.26 118.87 161.26 119.78H145.17C145.283 117.113 145.34 114.613 145.34 112.28C145.34 109.947 145.283 107.447 145.17 104.78H161.22V108.52H150.05V110.52C150.71 110.52 151.69 110.52 152.98 110.52C155.167 110.52 157.433 110.48 159.78 110.4V113.95C157.44 113.87 155.173 113.83 152.98 113.83H150.05V116Z" fill="#FFD3C8"/>
<path d="M164.25 116C164.593 115.316 164.893 114.611 165.15 113.89C166.217 114.494 167.366 114.942 168.56 115.22C169.741 115.517 170.952 115.675 172.17 115.69C172.988 115.737 173.808 115.635 174.59 115.39C175.06 115.19 175.29 114.97 175.29 114.74C175.29 113.9 174.01 113.48 171.45 113.48C169.375 113.601 167.297 113.301 165.34 112.6C164.765 112.385 164.272 111.996 163.929 111.487C163.587 110.977 163.412 110.374 163.43 109.76C163.388 108.926 163.583 108.096 163.994 107.369C164.405 106.641 165.014 106.045 165.75 105.65C167.602 104.699 169.67 104.244 171.75 104.33C173.237 104.335 174.717 104.52 176.16 104.88C177.576 105.207 178.946 105.708 180.24 106.37C179.84 107.277 179.42 108.387 178.98 109.7C178.923 109.911 178.853 110.118 178.77 110.32C177.818 109.635 176.736 109.152 175.59 108.9C174.366 108.551 173.102 108.363 171.83 108.34C170.942 108.291 170.053 108.375 169.19 108.59C168.73 108.77 168.51 109.02 168.51 109.35C168.51 109.68 168.82 109.94 169.45 110.14C170.334 110.372 171.247 110.473 172.16 110.44C174.33 110.312 176.503 110.653 178.53 111.44C179.132 111.694 179.644 112.121 180 112.669C180.357 113.216 180.541 113.857 180.53 114.51C180.595 115.332 180.432 116.156 180.06 116.891C179.688 117.627 179.121 118.246 178.42 118.68C176.432 119.675 174.219 120.13 172 120C170.43 119.996 168.864 119.825 167.33 119.49C165.845 119.185 164.406 118.688 163.05 118.01C163.491 117.365 163.892 116.694 164.25 116Z" fill="#FFD3C8"/>
<path d="M76.6899 144.53C76.4199 143.75 76.0699 142.76 75.6299 141.58H68.9999L67.9999 144.53H62.8199L68.6099 129.53H76.2099L82.0399 144.53H76.6899ZM74.4499 138.35C73.9299 136.91 73.3899 135.46 72.8399 134.02L72.3499 132.67C71.8699 133.93 71.1599 135.823 70.2199 138.35H74.4499Z" fill="#FFD3C8"/>
<path d="M92.51 129.55C95.25 129.55 97.1567 130.037 98.23 131.01C98.7822 131.534 99.2133 132.173 99.4931 132.881C99.7729 133.589 99.8947 134.35 99.85 135.11C99.8796 136.177 99.6568 137.236 99.2 138.2C98.7177 139.118 97.9179 139.829 96.95 140.2C95.5347 140.74 94.0236 140.986 92.51 140.92H88.21V144.55H83.13C83.2367 141.883 83.2933 139.383 83.3 137.05C83.3067 134.717 83.25 132.217 83.13 129.55H88.21H92.51ZM91.06 136.91C91.9222 136.925 92.7845 136.878 93.64 136.77C94.0795 136.736 94.498 136.568 94.84 136.29C95.055 135.99 95.1706 135.629 95.1706 135.26C95.1706 134.891 95.055 134.53 94.84 134.23C94.5069 133.953 94.0928 133.791 93.66 133.77C92.7904 133.67 91.9152 133.627 91.04 133.64H88.21V136.91H91.06Z" fill="#FFD3C8"/>
<path d="M110.88 129.55C113.62 129.55 115.527 130.037 116.6 131.01C117.149 131.536 117.577 132.176 117.855 132.883C118.133 133.591 118.254 134.351 118.21 135.11C118.243 136.176 118.023 137.235 117.57 138.2C117.082 139.113 116.284 139.822 115.32 140.2C113.904 140.739 112.394 140.984 110.88 140.92H106.58V144.55H101.5C101.607 141.883 101.66 139.383 101.66 137.05C101.66 134.717 101.607 132.217 101.5 129.55H106.58H110.88ZM109.43 136.91C110.289 136.925 111.148 136.879 112 136.77C112.439 136.736 112.858 136.568 113.2 136.29C113.437 136.012 113.558 135.655 113.54 135.29C113.56 134.929 113.446 134.573 113.22 134.29C112.887 134.013 112.473 133.851 112.04 133.83C111.174 133.73 110.302 133.687 109.43 133.7H106.58V136.97L109.43 136.91Z" fill="#FFD3C8"/>
<path d="M130.83 144.53C130.57 143.75 130.22 142.76 129.78 141.58H123.19L122.19 144.53H117L122.79 129.53H130.39L136.21 144.53H130.83ZM128.6 138.35C128.08 136.91 127.54 135.46 126.99 134.02L126.5 132.67C126.013 133.93 125.303 135.823 124.37 138.35H128.6Z" fill="#FFD3C8"/>
<path d="M153 137.57C152.242 138.504 151.18 139.141 150 139.37C150.16 139.59 150.28 139.76 150.35 139.88L153.69 144.53H148.07C147.47 143.403 146.513 141.807 145.2 139.74H142.2V144.53H137.32C137.427 141.863 137.48 139.363 137.48 137.03C137.48 134.697 137.427 132.197 137.32 129.53H142.2H146.43C149.21 129.53 151.153 129.98 152.26 130.88C152.8 131.313 153.231 131.868 153.518 132.498C153.804 133.129 153.939 133.818 153.91 134.51C153.942 135.601 153.623 136.674 153 137.57ZM142.17 133.57V135.92H144.95C145.838 135.936 146.726 135.9 147.61 135.81C148.048 135.783 148.475 135.66 148.86 135.45C148.973 135.368 149.064 135.259 149.125 135.134C149.186 135.008 149.215 134.87 149.21 134.73C149.217 134.594 149.19 134.458 149.133 134.334C149.075 134.21 148.988 134.103 148.88 134.02C148.5 133.808 148.075 133.688 147.64 133.67C146.746 133.59 145.848 133.556 144.95 133.57H142.17Z" fill="#FFD3C8"/>
<path d="M160.4 140.75C165.63 140.75 169.4 140.65 171.78 140.52C171.684 141.099 171.624 141.684 171.6 142.27C171.6 142.87 171.6 143.62 171.6 144.53H155.6C155.707 141.863 155.763 139.363 155.77 137.03C155.777 134.697 155.72 132.197 155.6 129.53H171.6V133.27H160.4V135.27C161.06 135.27 162.04 135.27 163.33 135.27C165.52 135.27 167.79 135.22 170.13 135.14V138.69C167.79 138.61 165.523 138.57 163.33 138.57H160.4V140.75Z" fill="#FFD3C8"/>
<path d="M178.47 140.36C182.47 140.36 185.77 140.26 188.39 140.15C188.218 140.805 188.107 141.474 188.06 142.15C188.06 142.79 188 143.58 188 144.5H173.43C173.537 141.833 173.593 139.333 173.6 137C173.607 134.667 173.55 132.167 173.43 129.5H178.43L178.47 140.36Z" fill="#FFD3C8"/>
<path d="M189.35 100.14C190.003 100.462 190.546 100.97 190.91 101.6C191.262 102.233 191.441 102.946 191.43 103.67C191.441 104.403 191.262 105.127 190.91 105.77C190.544 106.401 190.002 106.912 189.35 107.24C188.575 107.596 187.733 107.78 186.88 107.78C186.027 107.78 185.185 107.596 184.41 107.24C183.756 106.915 183.214 106.403 182.85 105.77C182.495 105.128 182.312 104.404 182.32 103.67C182.312 102.946 182.495 102.232 182.85 101.6C183.211 100.967 183.755 100.459 184.41 100.14C185.185 99.7843 186.027 99.6001 186.88 99.6001C187.733 99.6001 188.575 99.7843 189.35 100.14ZM184.2 103.67C184.187 104.235 184.379 104.785 184.74 105.22C184.74 104.53 184.74 104.02 184.74 103.69C184.74 103.36 184.74 102.82 184.74 102.16C184.382 102.581 184.19 103.118 184.2 103.67ZM189.55 103.67C189.558 103.353 189.5 103.039 189.38 102.746C189.259 102.453 189.079 102.189 188.85 101.97C188.579 101.729 188.262 101.545 187.919 101.428C187.575 101.311 187.212 101.264 186.85 101.29C186.171 101.254 185.503 101.468 184.97 101.89H187.51C187.976 101.856 188.44 101.987 188.82 102.26C188.949 102.373 189.051 102.514 189.12 102.671C189.19 102.828 189.224 102.998 189.22 103.17C189.223 103.368 189.177 103.563 189.084 103.738C188.991 103.913 188.856 104.062 188.69 104.17C188.814 104.276 188.928 104.393 189.03 104.52C189.101 104.644 189.132 104.787 189.12 104.93V105C189.394 104.61 189.544 104.147 189.55 103.67ZM185 105.51C185.538 105.905 186.193 106.109 186.86 106.09C187.521 106.112 188.17 105.907 188.7 105.51H187.54V105.14C187.549 105.077 187.542 105.012 187.52 104.953C187.497 104.893 187.459 104.841 187.41 104.8C187.221 104.733 187.02 104.705 186.82 104.72H186.26V105.51H185ZM186.28 103.59H187.21C187.53 103.59 187.68 103.5 187.68 103.32C187.685 103.278 187.677 103.235 187.657 103.198C187.638 103.161 187.607 103.13 187.57 103.11C187.456 103.064 187.333 103.043 187.21 103.05H186.28V103.59Z" fill="#FFD3C8"/>
<path d="M126 15.91L236.13 126L126 236.13L15.91 126L126 15.91ZM126 14.5L14.5 126L126 237.54L237.54 126L126 14.5Z" fill="#FFD3C8"/>
</g>
<defs>
<clipPath id="clip0_0_5226">
<rect width="252.04" height="252.04" fill="white"/>
</clipPath>
</defs>
</svg>
