<svg width="308" height="243" viewBox="0 0 308 243" fill="none" xmlns="http://www.w3.org/2000/svg">
<path d="M19.8898 188.3L24.3898 170.86C24.5117 170.381 24.5134 169.879 24.3948 169.4C24.2762 168.92 24.0409 168.477 23.7098 168.11C12.0856 155.005 5.71155 138.069 5.81121 120.552C5.91087 103.034 12.4772 86.1715 24.2498 73.1999C24.5892 72.8317 24.8311 72.3845 24.9533 71.8989C25.0756 71.4133 25.0744 70.9049 24.9498 70.4199L19.9498 50.8899C19.8334 50.4455 19.8206 49.9803 19.9125 49.5302C20.0043 49.0801 20.1983 48.657 20.4794 48.2937C20.7606 47.9304 21.1214 47.6366 21.5341 47.4348C21.9468 47.233 22.4004 47.1287 22.8598 47.1299H281.71C282.169 47.1287 282.623 47.233 283.035 47.4348C283.448 47.6366 283.809 47.9304 284.09 48.2937C284.371 48.657 284.565 49.0801 284.657 49.5302C284.749 49.9803 284.736 50.4455 284.62 50.8899L279.62 70.4399C279.497 70.9234 279.497 71.4299 279.619 71.9136C279.741 72.3972 279.982 72.8428 280.32 73.2099C292.085 86.1889 298.643 103.055 298.737 120.572C298.832 138.09 292.455 155.025 280.83 168.13C280.499 168.497 280.263 168.94 280.145 169.42C280.026 169.899 280.028 170.401 280.15 170.88L284.64 188.3C284.756 188.744 284.769 189.209 284.677 189.66C284.585 190.11 284.391 190.533 284.11 190.896C283.829 191.259 283.468 191.553 283.055 191.755C282.643 191.957 282.189 192.061 281.73 192.06H22.7998C22.3404 192.061 21.8868 191.957 21.4741 191.755C21.0614 191.553 20.7006 191.259 20.4194 190.896C20.1383 190.533 19.9443 190.11 19.8525 189.66C19.7606 189.209 19.7734 188.744 19.8898 188.3Z" fill="#4329B5"/>
<mask id="mask0_0_5246" style="mask-type:luminance" maskUnits="userSpaceOnUse" x="8" y="50" width="288" height="140">
<path d="M295.7 121C295.715 112.07 293.969 103.225 290.561 94.9715C287.154 86.7177 282.151 79.2173 275.84 72.8999L281.71 50.1299H22.8198L28.6898 72.8799C22.3728 79.1981 17.365 86.701 13.9536 94.9584C10.5421 103.216 8.79414 112.065 8.8098 121C8.79197 138.742 15.7236 155.786 28.1198 168.48L22.7998 189.05H281.69L276.38 168.46C288.775 155.773 295.71 138.737 295.7 121Z" fill="white"/>
</mask>
<g mask="url(#mask0_0_5246)">
<path d="M37.4598 142C36.7598 148.17 35.3798 153.09 33.3098 156.67C31.2398 160.25 28.7198 162.53 25.7598 163.38C22.7998 164.23 19.6498 163.7 16.2798 161.71C12.4153 159.284 9.20206 155.951 6.91981 152C4.16605 147.359 2.21215 142.289 1.13981 137C-0.079114 131.255 -0.32587 125.346 0.409811 119.52C1.07981 113.7 2.40981 109.52 4.51981 106.74C5.38171 105.488 6.50659 104.439 7.81584 103.667C9.12508 102.895 10.5871 102.418 12.0998 102.27C15.4384 102.071 18.7628 102.846 21.6698 104.5C25.3223 106.35 28.5113 108.999 30.9998 112.25C33.7975 115.983 35.7617 120.273 36.7598 124.83C37.9841 130.47 38.2209 136.279 37.4598 142ZM26.9998 136.32C27.3442 133.512 27.3711 130.674 27.0798 127.86C26.8743 125.728 26.2308 123.662 25.1898 121.79C24.273 120.224 22.9264 118.954 21.3098 118.13C20.5889 117.673 19.7778 117.378 18.932 117.264C18.0863 117.15 17.2259 117.22 16.4098 117.47C14.7819 118.205 13.5098 119.552 12.8698 121.22C11.7769 123.762 11.1015 126.463 10.8698 129.22C10.4714 132.007 10.4344 134.834 10.7598 137.63C11.0127 139.865 11.6916 142.031 12.7598 144.01C13.6621 145.694 15.0026 147.104 16.6398 148.09C18.4598 149.16 20.0798 149.37 21.4798 148.76C23.1161 147.876 24.3641 146.415 24.9798 144.66C26.0563 141.993 26.7369 139.184 26.9998 136.32Z" fill="#FBF9F6"/>
<path d="M53.6298 115C54.7498 128.933 55.8732 142.837 56.9998 156.71H57.2998C61.4198 143.237 65.5365 129.51 69.6498 115.53C73.5698 115.36 77.4898 114.98 81.3998 114.42C75.0665 134.88 68.7332 154.83 62.3998 174.27C57.6314 174.16 52.878 173.692 48.1798 172.87C46.0598 152.957 43.9598 132.963 41.8798 112.89C45.7462 113.849 49.6713 114.554 53.6298 115Z" fill="#FBF9F6"/>
<path d="M78.7098 173.46C80.8298 153.647 82.9498 133.783 85.0698 113.87C94.4453 112.194 103.679 109.804 112.69 106.72C112.223 111.16 111.75 115.593 111.27 120.02C105.53 121.9 99.7898 123.55 94.0498 124.89C93.7032 128.33 93.3698 131.77 93.0498 135.21C98.3098 134.02 103.58 132.56 108.84 130.9C108.373 135.333 107.9 139.76 107.42 144.18C102.15 145.8 96.8898 147.18 91.6198 148.36C91.2698 151.79 90.9198 155.23 90.6198 158.66C96.3298 157.47 102.04 155.94 107.76 154.17C107.28 158.59 106.807 163.013 106.34 167.44C97.3216 170.243 88.0768 172.257 78.7098 173.46Z" fill="#FBF9F6"/>
<path d="M111.5 165.79C113.62 145.53 115.74 125.25 117.86 104.95C123.37 102.95 128.86 100.86 134.4 98.6299C137.25 97.4799 139.65 97.2799 141.61 98.0499C143.57 98.8199 144.97 100.51 145.84 103.13C146.71 105.75 146.9 109.23 146.46 113.59C146.074 117.67 145.062 121.667 143.46 125.44C142.068 128.746 140.097 131.777 137.64 134.39C135.428 136.742 132.728 138.582 129.73 139.78C126.443 141.113 123.15 142.36 119.85 143.52L121.2 130.66C123.79 129.66 126.39 128.72 128.98 127.66C130.168 127.2 131.261 126.522 132.2 125.66C133.154 124.776 133.919 123.708 134.45 122.52C135.07 121.089 135.448 119.565 135.57 118.01C135.782 116.674 135.693 115.307 135.31 114.01C135.188 113.607 134.964 113.244 134.659 112.954C134.353 112.665 133.978 112.46 133.57 112.36C132.547 112.212 131.504 112.369 130.57 112.81L126.91 114.24C125.236 130.2 123.57 146.147 121.91 162.08C118.436 163.407 114.966 164.643 111.5 165.79ZM136.87 129.37C139.09 137.437 141.313 145.493 143.54 153.54C139.773 155.12 136.003 156.663 132.23 158.17C130.076 150.057 127.93 141.92 125.79 133.76C129.49 132.347 133.183 130.883 136.87 129.37Z" fill="#FBF9F6"/>
<path d="M147.2 152C149.32 131.553 151.443 111.1 153.57 90.6399C159.08 88.3099 164.57 85.9699 170.11 83.7099C172.95 82.5499 175.347 82.4499 177.3 83.4099C179.24 84.4099 180.64 86.2399 181.49 89.0299C182.386 92.5164 182.59 96.1449 182.09 99.7099C181.696 103.873 180.685 107.954 179.09 111.82C177.682 115.264 175.697 118.443 173.22 121.22C171.014 123.708 168.281 125.672 165.22 126.97C161.93 128.34 158.64 129.74 155.34 131.13L156.69 118.19C159.29 117.09 161.88 115.99 164.47 114.91C165.734 114.383 166.863 113.576 167.77 112.55C168.753 111.446 169.532 110.176 170.07 108.8C170.681 107.264 171.065 105.647 171.21 104C171.411 102.592 171.333 101.158 170.98 99.7799C170.876 99.3295 170.669 98.9093 170.376 98.552C170.083 98.1946 169.711 97.9099 169.29 97.7199C168.29 97.4217 167.214 97.5258 166.29 98.0099L162.62 99.5399C160.946 115.54 159.28 131.56 157.62 147.6L147.2 152Z" fill="#FBF9F6"/>
<path d="M181.79 137.75C183.91 117.39 186.03 97.0566 188.15 76.7499C193.67 74.7499 199.15 72.9499 204.69 71.3899C205.861 70.9751 207.105 70.8037 208.344 70.8863C209.584 70.9688 210.794 71.3035 211.9 71.8699C214.021 73.2094 215.538 75.3218 216.13 77.7599C217.037 81.2104 217.248 84.807 216.75 88.3399C216.397 92.2365 215.382 96.0443 213.75 99.5999C212.37 102.632 210.39 105.354 207.93 107.6C205.657 109.662 202.956 111.195 200.02 112.09C196.726 113.11 193.433 114.2 190.14 115.36L191.49 102.52C194.08 101.62 196.68 100.76 199.27 99.9499C200.44 99.6001 201.533 99.0299 202.49 98.2699C203.446 97.4904 204.215 96.5062 204.74 95.3899C205.378 94.0053 205.767 92.5193 205.89 90.9999C206.092 89.6634 206.003 88.299 205.63 86.9999C205.505 86.5766 205.283 86.1885 204.981 85.8671C204.678 85.5457 204.305 85.3 203.89 85.1499C202.901 84.8748 201.851 84.9203 200.89 85.2799C199.66 85.6499 198.44 86.0299 197.22 86.4299C195.546 102.277 193.88 118.147 192.22 134.04C188.74 135.193 185.263 136.43 181.79 137.75ZM207.17 102.43C209.39 110.797 211.61 119.217 213.83 127.69C210.06 128.55 206.29 129.55 202.52 130.69C200.38 122.35 198.236 114.043 196.09 105.77C199.783 104.543 203.476 103.43 207.17 102.43Z" fill="#FBF9F6"/>
<path d="M234.26 65.8499C232.14 85.5699 230.02 105.34 227.9 125.16C224.43 125.6 220.96 126.16 217.5 126.9C219.62 106.9 221.74 86.9566 223.86 67.0699C227.33 66.5199 230.79 66.1099 234.26 65.8499Z" fill="#FBF9F6"/>
<path d="M272.55 92.3899C269.142 91.2393 265.669 90.291 262.15 89.5499C262.224 88.3147 262.174 87.0751 262 85.8499C261.844 84.8121 261.541 83.8019 261.1 82.8499C260.713 82.022 260.141 81.2934 259.43 80.7199C258.714 80.1797 257.869 79.8351 256.98 79.7199C256.108 79.5809 255.216 79.641 254.371 79.8955C253.526 80.1501 252.75 80.5926 252.1 81.1899C250.461 82.7512 249.232 84.6915 248.52 86.8399C247.484 89.7733 246.812 92.8228 246.52 95.9199C246.178 98.763 246.178 101.637 246.52 104.48C246.7 106.363 247.391 108.161 248.52 109.68C248.988 110.257 249.569 110.732 250.228 111.076C250.887 111.42 251.609 111.625 252.35 111.68C253.32 111.786 254.301 111.705 255.24 111.44C256.111 111.176 256.915 110.73 257.6 110.13C258.32 109.481 258.92 108.709 259.37 107.85C259.89 106.863 260.273 105.81 260.51 104.72C264.053 105.389 267.553 106.27 270.99 107.36C270.58 109.776 269.861 112.128 268.85 114.36C267.854 116.589 266.503 118.643 264.85 120.44C263.249 122.186 261.296 123.573 259.12 124.51C256.775 125.469 254.225 125.813 251.71 125.51C248.249 125.268 244.974 123.857 242.42 121.51C239.81 119.1 237.93 115.68 236.76 111.12C235.59 106.56 235.36 100.94 236.06 94.2499C236.54 88.6301 237.938 83.127 240.2 77.9599C242.26 73.5799 244.76 70.3199 247.7 68.2799C250.398 66.2831 253.779 65.438 257.1 65.9299C259.543 66.2941 261.858 67.2559 263.84 68.7299C265.876 70.2834 267.576 72.2325 268.84 74.4599C270.264 76.9796 271.277 79.7107 271.84 82.5499C272.504 85.785 272.743 89.093 272.55 92.3899Z" fill="#FBF9F6"/>
<path d="M273.34 129.32C275.46 110.5 277.58 91.7699 279.7 73.1299C289.726 77.5499 299.038 83.4377 307.33 90.5999C306.85 94.4799 306.373 98.3632 305.9 102.25C300.533 97.7885 294.772 93.8223 288.69 90.3999L287.64 99.9099C293.186 102.938 298.468 106.427 303.43 110.34C302.956 114.247 302.483 118.16 302.01 122.08C297.04 118.27 291.754 114.891 286.21 111.98C285.87 115.16 285.536 118.343 285.21 121.53C291.244 124.617 296.981 128.253 302.35 132.39C301.876 136.31 301.403 140.23 300.93 144.15C292.547 137.823 283.242 132.821 273.34 129.32Z" fill="#FBF9F6"/>
<path d="M37.4598 76.3599C36.7598 82.5199 35.3798 87.4499 33.3098 91.0299C31.2398 94.6099 28.7198 96.8899 25.7598 97.7399C22.7998 98.5899 19.6498 98.0599 16.2798 96.0599C12.405 93.6168 9.19061 90.2581 6.91981 86.2799C4.16861 81.6379 2.21488 76.5677 1.13981 71.2799C-0.0802391 65.5318 -0.326999 59.6197 0.409809 53.7899C1.07981 47.9799 2.40981 43.7899 4.51981 41.0099C5.38171 39.758 6.50659 38.7093 7.81583 37.9372C9.12508 37.1652 10.5871 36.6883 12.0998 36.5399C15.438 36.3466 18.7609 37.1209 21.6698 38.7699C25.3242 40.6348 28.5127 43.297 30.9998 46.5599C33.7959 50.2977 35.7598 54.5904 36.7598 59.1499C37.9887 64.8026 38.2256 70.626 37.4598 76.3599ZM26.9998 70.6399C27.3442 67.8319 27.3711 64.9939 27.0798 62.1799C26.8757 60.0478 26.2322 57.981 25.1898 56.1099C24.2736 54.5411 22.9271 53.2675 21.3098 52.4399C20.5868 51.9881 19.7759 51.6955 18.931 51.5817C18.086 51.4679 17.2266 51.5355 16.4098 51.7799C14.7864 52.521 13.5163 53.8665 12.8698 55.5299C11.778 58.0719 11.1027 60.7732 10.8698 63.5299C10.4728 66.3374 10.4426 69.1846 10.7798 71.9999C11.0344 74.2345 11.7132 76.3999 12.7798 78.3799C13.6849 80.0625 15.0248 81.4714 16.6598 82.4599C18.4798 83.5299 20.0998 83.7299 21.4998 83.1199C23.1418 82.234 24.391 80.7635 24.9998 78.9999C26.0701 76.3255 26.7439 73.5091 26.9998 70.6399Z" fill="#FBF9F6"/>
<path d="M53.6298 49.3299C54.7498 63.2499 55.8732 77.1399 56.9998 90.9999H57.2998C61.4198 77.5199 65.5365 63.7932 69.6498 49.8199C73.5698 49.6399 77.4865 49.2699 81.3998 48.7099C75.0665 69.1699 68.7332 89.1199 62.3998 108.56C57.6317 108.445 52.8787 107.978 48.1798 107.16C46.0798 87.2332 43.9832 67.2332 41.8898 47.1599C45.7526 48.1339 49.6741 48.8588 53.6298 49.3299Z" fill="#FBF9F6"/>
<path d="M78.7098 107.78C80.8298 87.9666 82.9498 68.0999 85.0698 48.1799C94.4462 46.4946 103.68 44.0943 112.69 40.9999C112.223 45.4332 111.75 49.8666 111.27 54.2999C105.53 56.1799 99.7898 57.8299 94.0498 59.1599C93.7032 62.5999 93.3698 66.0399 93.0498 69.4799C98.3098 68.2999 103.58 66.8399 108.84 65.1799C108.373 69.5999 107.9 74.0232 107.42 78.4499C102.15 80.0799 96.8898 81.4499 91.6198 82.6299C91.2698 86.0699 90.9198 89.4999 90.6198 92.9399C96.3298 91.7399 102.04 90.2199 107.76 88.4399C107.28 92.8666 106.807 97.2899 106.34 101.71C97.3231 104.53 88.0783 106.561 78.7098 107.78Z" fill="#FBF9F6"/>
<path d="M111.5 100.1C113.62 79.8532 115.74 59.5732 117.86 39.2599C123.37 37.2599 128.86 35.1699 134.4 32.9499C137.25 31.7999 139.65 31.5999 141.61 32.3699C143.57 33.1399 144.97 34.8299 145.84 37.4499C146.71 40.0699 146.9 43.5499 146.46 47.8999C146.073 51.9835 145.061 55.9834 143.46 59.7599C142.069 63.0632 140.097 66.0908 137.64 68.6999C135.425 71.0515 132.726 72.894 129.73 74.0999C126.443 75.3932 123.15 76.6399 119.85 77.8399L121.23 64.9999C123.82 63.9999 126.42 62.9999 129 61.9999C130.188 61.5394 131.28 60.8612 132.22 59.9999C133.174 59.1196 133.939 58.0548 134.47 56.8699C135.088 55.4383 135.467 53.9146 135.59 52.3599C135.802 51.0238 135.713 49.6573 135.33 48.3599C135.21 47.9565 134.986 47.5916 134.681 47.302C134.375 47.0124 133.999 46.8082 133.59 46.7099C132.568 46.563 131.526 46.7159 130.59 47.1499L126.93 48.5799C125.256 64.5399 123.59 80.4866 121.93 96.4199C118.443 97.7266 114.966 98.9532 111.5 100.1ZM136.87 63.6799C139.09 71.7466 141.313 79.8032 143.54 87.8499C139.773 89.4299 136.003 90.9732 132.23 92.4799C130.076 84.3732 127.93 76.2366 125.79 68.0699C129.49 66.6899 133.183 65.2266 136.87 63.6799Z" fill="#FBF9F6"/>
<path d="M147.2 86.3099C149.32 65.8699 151.443 45.4199 153.57 24.9599C159.08 22.6199 164.57 20.2799 170.11 18.0299C172.95 16.8599 175.35 16.7699 177.3 17.7199C179.25 18.6699 180.64 20.5499 181.49 23.3399C182.387 26.8297 182.591 30.4616 182.09 34.0299C181.697 38.19 180.686 42.2683 179.09 46.1299C177.685 49.5787 175.699 52.7614 173.22 55.5399C171.008 58.0213 168.277 59.9846 165.22 61.2899C161.927 62.6566 158.633 64.0432 155.34 65.4499L156.69 52.4499L164.47 49.1799C165.73 48.646 166.857 47.8401 167.77 46.8199C168.751 45.7146 169.529 44.4452 170.07 43.0699C170.681 41.5302 171.065 39.9099 171.21 38.2599C171.411 36.8518 171.333 35.4178 170.98 34.0399C170.875 33.5951 170.67 33.1802 170.381 32.8266C170.092 32.4731 169.725 32.1903 169.31 31.9999C168.31 31.7017 167.234 31.8058 166.31 32.2899L162.64 33.8199L157.64 81.8799L147.2 86.3099Z" fill="#FBF9F6"/>
<path d="M181.79 72.0699C183.91 51.7032 186.03 31.3699 188.15 11.0699C193.67 9.0699 199.15 7.2799 204.69 5.7099C205.862 5.29895 207.106 5.13048 208.345 5.21471C209.585 5.29894 210.794 5.63412 211.9 6.1999C214.021 7.53551 215.538 9.64455 216.13 12.0799C217.036 15.5306 217.247 19.127 216.75 22.6599C216.397 26.5597 215.382 30.3708 213.75 33.9299C212.37 36.9623 210.39 39.6838 207.93 41.9299C205.652 43.9849 202.952 45.5173 200.02 46.4199C196.73 47.4199 193.44 48.5299 190.14 49.6899L191.49 36.8399C194.08 35.9399 196.68 35.0799 199.27 34.2699C200.44 33.9236 201.533 33.3568 202.49 32.5999C203.446 31.8166 204.215 30.8291 204.74 29.7099C205.365 28.3296 205.744 26.8507 205.86 25.3399C206.063 24.0035 205.975 22.6388 205.6 21.3399C205.477 20.9144 205.256 20.5239 204.954 20.2006C204.651 19.8773 204.276 19.6303 203.86 19.4799C202.87 19.2148 201.823 19.2602 200.86 19.6099C199.63 19.9799 198.41 20.3699 197.19 20.7599C195.516 36.6132 193.85 52.4866 192.19 68.3799C188.72 69.4799 185.26 70.7499 181.79 72.0699ZM207.17 36.7399C209.39 45.1199 211.61 53.5399 213.83 61.9999C210.056 62.8666 206.286 63.8666 202.52 64.9999C200.38 56.6599 198.236 48.3532 196.09 40.0799C199.783 38.8599 203.476 37.7466 207.17 36.7399Z" fill="#FBF9F6"/>
<path d="M234.26 0.169907C232.14 19.8832 230.02 39.6532 227.9 59.4799C224.426 59.9199 220.96 60.4966 217.5 61.2099C219.62 41.2099 221.74 21.2699 223.86 1.38991C227.33 0.839907 230.79 0.419907 234.26 0.169907Z" fill="#FBF9F6"/>
<path d="M272.55 26.6999C269.143 25.5479 265.67 24.6029 262.15 23.8699C262.224 22.6347 262.174 21.395 262 20.1699C261.844 19.1321 261.541 18.1219 261.1 17.1699C260.713 16.3303 260.142 15.5885 259.43 14.9999C258.722 14.4584 257.884 14.1134 257 13.9999C256.128 13.8587 255.236 13.9176 254.39 14.1723C253.545 14.427 252.768 14.8707 252.12 15.4699C250.479 17.0293 249.249 18.9702 248.54 21.1199C247.504 24.0498 246.832 27.096 246.54 30.1899C246.199 33.0364 246.199 35.9134 246.54 38.7599C246.721 40.6429 247.413 42.4407 248.54 43.9599C249.009 44.5354 249.591 45.0095 250.249 45.3533C250.908 45.6971 251.629 45.9035 252.37 45.9599C253.34 46.0713 254.322 45.9897 255.26 45.7199C256.131 45.4563 256.935 45.0096 257.62 44.4099C258.343 43.7635 258.943 42.9909 259.39 42.1299C259.877 41.1386 260.227 40.0856 260.43 38.9999C263.972 39.6734 267.471 40.555 270.91 41.6399C270.5 44.0555 269.781 46.4083 268.77 48.6399C267.776 50.8705 266.425 52.9242 264.77 54.7199C263.171 56.4691 261.218 57.8567 259.04 58.7899C256.694 59.7434 254.145 60.0874 251.63 59.7899C248.17 59.5467 244.894 58.1365 242.34 55.7899C239.73 53.3899 237.85 49.9599 236.68 45.3999C235.51 40.8399 235.28 35.2299 235.98 28.5399C236.459 22.9166 237.857 17.4101 240.12 12.2399C242.18 7.8699 244.68 4.5999 247.62 2.5599C250.32 0.566619 253.7 -0.274857 257.02 0.2199C259.475 0.571799 261.804 1.52697 263.8 2.9999C265.838 4.55038 267.54 6.50005 268.8 8.7299C270.226 11.2452 271.239 13.9733 271.8 16.8099C272.482 20.0595 272.734 23.3846 272.55 26.6999Z" fill="#FBF9F6"/>
<path d="M273.34 63.6399C275.46 44.8199 277.58 26.0899 279.7 7.44991C289.726 11.8699 299.038 17.7577 307.33 24.9199C306.85 28.7866 306.373 32.6666 305.9 36.5599C300.53 32.1018 294.77 28.1358 288.69 24.7099L287.64 34.2199C293.186 37.2516 298.468 40.7439 303.43 44.6599C302.956 48.5732 302.483 52.4832 302.01 56.3899C297.038 52.5861 291.752 49.2107 286.21 46.2999C285.87 49.4799 285.536 52.6599 285.21 55.8399C291.246 58.9273 296.984 62.5661 302.35 66.7099C301.876 70.6232 301.403 74.5432 300.93 78.4699C292.547 72.1425 283.242 67.1408 273.34 63.6399Z" fill="#FBF9F6"/>
<path d="M37.4598 210.36C36.7598 216.52 35.3798 221.45 33.3098 225.03C31.2398 228.61 28.7198 230.89 25.7598 231.73C22.7998 232.57 19.6498 232.05 16.2798 230.06C12.405 227.617 9.19061 224.258 6.91981 220.28C4.16861 215.638 2.21488 210.568 1.13981 205.28C-0.079114 199.535 -0.32587 193.626 0.409811 187.8C1.07981 181.98 2.40981 177.8 4.51981 175.02C5.38171 173.768 6.50659 172.719 7.81584 171.947C9.12508 171.175 10.5871 170.698 12.0998 170.55C15.4376 170.361 18.7593 171.135 21.6698 172.78C25.3231 174.642 28.5116 177.301 30.9998 180.56C33.7959 184.298 35.7598 188.59 36.7598 193.15C37.9887 198.803 38.2256 204.626 37.4598 210.36ZM26.9998 204.64C27.3442 201.832 27.3711 198.994 27.0798 196.18C26.8757 194.048 26.2322 191.981 25.1898 190.11C24.2736 188.541 22.9272 187.267 21.3098 186.44C20.5868 185.988 19.7759 185.696 18.931 185.582C18.086 185.468 17.2266 185.535 16.4098 185.78C14.7838 186.518 13.5126 187.864 12.8698 189.53C11.778 192.072 11.1027 194.773 10.8698 197.53C10.4714 200.317 10.4344 203.144 10.7598 205.94C11.0144 208.174 11.6932 210.34 12.7598 212.32C13.6649 214.002 15.0048 215.411 16.6398 216.4C18.4598 217.47 20.0798 217.67 21.4798 217.06C23.118 216.192 24.3732 214.744 24.9998 213C26.0701 210.326 26.7439 207.509 26.9998 204.64Z" fill="#FBF9F6"/>
<path d="M53.6298 183.33C54.7498 197.25 55.8732 211.14 56.9998 225H57.2998C61.4198 211.52 65.5365 197.793 69.6498 183.82C73.5698 183.64 77.4898 183.26 81.3998 182.71C75.0665 203.17 68.7332 223.117 62.3998 242.55C57.6317 242.444 52.8783 241.979 48.1798 241.16C46.0798 221.227 43.9832 201.227 41.8898 181.16C45.7526 182.134 49.6741 182.859 53.6298 183.33Z" fill="#FBF9F6"/>
<path d="M78.7098 241.78C80.8298 221.967 82.9498 202.1 85.0698 182.18C94.4451 180.49 103.678 178.09 112.69 175C112.223 179.433 111.75 183.867 111.27 188.3C105.53 190.17 99.7898 191.82 94.0498 193.16C93.7032 196.6 93.3698 200.04 93.0498 203.48C98.3098 202.29 103.58 200.84 108.84 199.18C108.373 203.6 107.9 208.023 107.42 212.45C102.15 214.08 96.8898 215.45 91.6198 216.63C91.2698 220.07 90.9198 223.5 90.6198 226.94C96.3298 225.74 102.04 224.21 107.76 222.44C107.28 226.873 106.807 231.297 106.34 235.71C97.3231 238.53 88.0783 240.561 78.7098 241.78Z" fill="#FBF9F6"/>
<path d="M111.5 234.1C113.62 213.853 115.74 193.573 117.86 173.26C123.37 171.26 128.86 169.17 134.4 166.95C137.25 165.8 139.65 165.6 141.61 166.37C143.57 167.14 144.97 168.83 145.84 171.45C146.71 174.07 146.9 177.55 146.46 181.9C146.073 185.983 145.061 189.983 143.46 193.76C142.069 197.063 140.097 200.091 137.64 202.7C135.425 205.052 132.726 206.894 129.73 208.1C126.443 209.387 123.15 210.633 119.85 211.84L121.23 199C123.82 198.05 126.42 197.06 129.01 196C130.201 195.545 131.294 194.866 132.23 194C133.184 193.12 133.949 192.055 134.48 190.87C135.097 189.438 135.476 187.914 135.6 186.36C135.81 185.024 135.721 183.658 135.34 182.36C135.219 181.958 134.995 181.595 134.69 181.307C134.384 181.019 134.008 180.816 133.6 180.72C132.578 180.573 131.536 180.726 130.6 181.16L126.94 182.59C125.266 198.55 123.6 214.497 121.94 230.43C118.446 231.73 114.966 232.953 111.5 234.1ZM136.87 197.68C139.09 205.747 141.313 213.803 143.54 221.85C139.773 223.43 136.003 224.973 132.23 226.48C130.09 218.36 127.943 210.223 125.79 202.07C129.49 200.69 133.183 199.227 136.87 197.68Z" fill="#FBF9F6"/>
<path d="M147.2 220.31C149.32 199.863 151.443 179.413 153.57 158.96C159.08 156.62 164.57 154.28 170.11 152.03C172.95 150.863 175.347 150.76 177.3 151.72C179.24 152.67 180.64 154.55 181.49 157.34C182.387 160.83 182.591 164.462 182.09 168.03C181.697 172.19 180.686 176.268 179.09 180.13C177.682 183.574 175.697 186.753 173.22 189.53C171.014 192.02 168.281 193.988 165.22 195.29C161.927 196.663 158.633 198.05 155.34 199.45L156.69 186.5L164.47 183.22C165.732 182.693 166.859 181.89 167.77 180.87C168.753 179.762 169.532 178.489 170.07 177.11C170.681 175.574 171.065 173.957 171.21 172.31C171.411 170.902 171.333 169.468 170.98 168.09C170.876 167.64 170.669 167.219 170.376 166.862C170.083 166.505 169.711 166.22 169.29 166.03C168.29 165.732 167.214 165.836 166.29 166.32L162.62 167.85L157.62 215.91L147.2 220.31Z" fill="#FBF9F6"/>
<path d="M181.79 206.07C183.91 185.697 186.03 165.363 188.15 145.07C193.67 143.07 199.15 141.28 204.69 139.71C207.54 138.91 209.94 139.08 211.9 140.2C214.021 141.535 215.538 143.645 216.13 146.08C217.036 149.531 217.247 153.127 216.75 156.66C216.397 160.56 215.382 164.371 213.75 167.93C212.37 170.962 210.39 173.684 207.93 175.93C205.652 177.985 202.952 179.517 200.02 180.42C196.73 181.42 193.44 182.53 190.14 183.69L191.49 170.84C194.08 169.94 196.68 169.08 199.27 168.27C200.44 167.924 201.533 167.357 202.49 166.6C203.448 165.819 204.218 164.831 204.74 163.71C205.365 162.33 205.744 160.851 205.86 159.34C206.063 158.003 205.975 156.639 205.6 155.34C205.477 154.914 205.256 154.524 204.954 154.201C204.651 153.877 204.276 153.63 203.86 153.48C202.87 153.215 201.823 153.26 200.86 153.61C199.63 153.98 198.41 154.37 197.19 154.76C195.516 170.613 193.85 186.487 192.19 202.38C188.72 203.48 185.26 204.75 181.79 206.07ZM207.17 170.74C209.39 179.12 211.61 187.54 213.83 196C210.056 196.873 206.286 197.873 202.52 199C200.38 190.647 198.236 182.337 196.09 174.07C199.78 172.85 203.47 171.73 207.17 170.74Z" fill="#FBF9F6"/>
<path d="M234.26 134.17C232.14 153.883 230.02 173.65 227.9 193.47C224.426 193.917 220.96 194.497 217.5 195.21C219.62 175.21 221.74 155.27 223.86 135.39C227.33 134.84 230.79 134.42 234.26 134.17Z" fill="#FBF9F6"/>
<path d="M272.55 160.7C269.143 159.548 265.67 158.603 262.15 157.87C262.224 156.635 262.174 155.395 262 154.17C261.844 153.132 261.541 152.122 261.1 151.17C260.708 150.345 260.138 149.617 259.43 149.04C258.716 148.495 257.871 148.15 256.98 148.04C256.108 147.896 255.215 147.953 254.369 148.208C253.523 148.463 252.747 148.908 252.1 149.51C250.459 151.065 249.229 153.003 248.52 155.15C247.485 158.084 246.813 161.133 246.52 164.23C246.179 167.076 246.179 169.953 246.52 172.8C246.701 174.68 247.393 176.475 248.52 177.99C248.988 178.567 249.569 179.042 250.228 179.386C250.887 179.73 251.609 179.935 252.35 179.99C253.319 180.106 254.303 180.025 255.24 179.75C256.111 179.486 256.915 179.04 257.6 178.44C258.323 177.793 258.923 177.021 259.37 176.16C259.89 175.173 260.273 174.12 260.51 173.03C264.052 173.703 267.551 174.585 270.99 175.67C270.58 178.086 269.861 180.438 268.85 182.67C267.856 184.901 266.505 186.954 264.85 188.75C263.251 190.499 261.298 191.887 259.12 192.82C256.774 193.773 254.225 194.117 251.71 193.82C248.25 193.577 244.974 192.166 242.42 189.82C239.81 187.42 237.93 183.99 236.76 179.43C235.59 174.87 235.36 169.25 236.06 162.57C236.539 156.947 237.937 151.44 240.2 146.27C242.26 141.9 244.76 138.63 247.7 136.59C250.401 134.598 253.779 133.754 257.1 134.24C259.54 134.613 261.853 135.574 263.84 137.04C265.879 138.594 267.58 140.547 268.84 142.78C270.266 145.295 271.279 148.023 271.84 150.86C272.504 154.095 272.743 157.403 272.55 160.7Z" fill="#FBF9F6"/>
<path d="M273.34 197.64C275.46 178.82 277.58 160.09 279.7 141.45C289.728 145.866 299.04 151.754 307.33 158.92C306.85 162.793 306.373 166.673 305.9 170.56C300.533 166.099 294.772 162.132 288.69 158.71L287.64 168.22C293.186 171.252 298.468 174.744 303.43 178.66C302.96 182.56 302.48 186.48 302.01 190.39C297.038 186.586 291.752 183.211 286.21 180.3C285.87 183.48 285.536 186.66 285.21 189.84C291.246 192.927 296.984 196.566 302.35 200.71C301.876 204.617 301.403 208.537 300.93 212.47C292.549 206.139 283.244 201.137 273.34 197.64Z" fill="#FBF9F6"/>
</g>
</svg>
