<svg width="174" height="174" viewBox="0 0 174 174" fill="none" xmlns="http://www.w3.org/2000/svg">
<g clip-path="url(#clip0_0_5282)">
<path d="M86.6 173.2C134.428 173.2 173.2 134.428 173.2 86.6C173.2 38.7721 134.428 0 86.6 0C38.7721 0 0 38.7721 0 86.6C0 134.428 38.7721 173.2 86.6 173.2Z" fill="#DBC2FF"/>
<path d="M91.25 15.75C76.8445 14.8064 62.4935 18.2765 50.1106 25.6977C37.7278 33.1189 27.9014 44.1386 21.9416 57.2874C15.9818 70.4362 14.172 85.0894 16.7532 99.2932C19.3345 113.497 26.1843 126.576 36.3893 136.788C46.5943 146.999 59.6696 153.856 73.8718 156.446C88.0741 159.036 102.728 157.235 115.881 151.283C129.033 145.331 140.059 135.512 147.487 123.133C154.916 110.755 158.395 96.4061 157.46 82C156.327 64.8085 148.989 48.6136 136.81 36.4274C124.631 24.2411 108.441 16.8931 91.25 15.75ZM142.61 86.6C142.618 98.7385 138.661 110.547 131.34 120.23C131.212 120.398 131.05 120.537 130.864 120.636C130.678 120.736 130.473 120.795 130.262 120.808C130.051 120.821 129.84 120.789 129.643 120.713C129.446 120.638 129.268 120.521 129.12 120.37L94.54 85.8C94.272 85.5344 94.1148 85.177 94.1 84.8V32.85C94.1011 32.6316 94.1498 32.4161 94.2428 32.2185C94.3358 32.0209 94.4708 31.846 94.6384 31.706C94.806 31.566 95.0022 31.4643 95.2132 31.408C95.4242 31.3517 95.6449 31.3421 95.86 31.38C108.917 33.585 120.773 40.3383 129.329 50.4445C137.885 60.5508 142.589 73.3583 142.61 86.6ZM77.39 141.83C69.44 140.508 61.8721 137.475 55.21 132.94C55.0309 132.816 54.8813 132.655 54.7719 132.467C54.6624 132.279 54.5957 132.069 54.5766 131.852C54.5575 131.635 54.5865 131.417 54.6614 131.213C54.7363 131.008 54.8553 130.823 55.01 130.67L76.57 109.11C76.774 108.904 77.0338 108.763 77.3172 108.704C77.6007 108.644 77.8953 108.67 78.1646 108.776C78.434 108.882 78.6661 109.066 78.8324 109.303C78.9987 109.54 79.0917 109.821 79.1 110.11V140.31C79.1086 140.529 79.0686 140.746 78.9829 140.948C78.8972 141.149 78.7679 141.329 78.6044 141.474C78.4409 141.62 78.2471 141.727 78.0371 141.788C77.8271 141.85 77.6061 141.864 77.39 141.83ZM96.64 109.11L118.2 130.67C118.355 130.823 118.474 131.008 118.549 131.213C118.624 131.417 118.652 131.635 118.633 131.852C118.614 132.069 118.548 132.279 118.438 132.467C118.329 132.655 118.179 132.816 118 132.94C111.338 137.475 103.77 140.508 95.82 141.83C95.6076 141.863 95.3906 141.85 95.1838 141.791C94.977 141.733 94.7853 141.63 94.622 141.491C94.4586 141.351 94.3273 141.178 94.2372 140.982C94.1471 140.787 94.1003 140.575 94.1 140.36V110.16C94.1014 109.866 94.1896 109.58 94.3534 109.336C94.5172 109.092 94.7494 108.902 95.0208 108.79C95.2922 108.678 95.5906 108.648 95.8787 108.705C96.1668 108.762 96.4317 108.903 96.64 109.11ZM79.1 32.85V84.75C79.0889 85.1258 78.9352 85.4834 78.67 85.75L44.09 120.37C43.9422 120.521 43.7638 120.638 43.5667 120.713C43.3696 120.789 43.1586 120.821 42.948 120.808C42.7374 120.795 42.5321 120.736 42.3461 120.636C42.16 120.537 41.9977 120.398 41.87 120.23C36.0817 112.55 32.3709 103.508 31.0959 93.9765C29.8209 84.4447 31.0246 74.7452 34.591 65.8143C38.1573 56.8833 43.9658 49.0226 51.4557 42.9909C58.9456 36.9592 67.864 32.9602 77.35 31.38C77.5646 31.342 77.7849 31.3515 77.9954 31.4078C78.2059 31.4642 78.4015 31.5661 78.5684 31.7062C78.7352 31.8464 78.8693 32.0215 78.9612 32.2191C79.053 32.4167 79.1004 32.6321 79.1 32.85Z" fill="#6E3BC8"/>
</g>
<defs>
<clipPath id="clip0_0_5282">
<rect width="173.21" height="173.21" fill="white"/>
</clipPath>
</defs>
</svg>
