<svg width="165" height="184" viewBox="0 0 165 184" fill="none" xmlns="http://www.w3.org/2000/svg">
<g clip-path="url(#clip0_0_5288)">
<path d="M142.77 6.96001H29.19C16.9127 6.96001 6.95999 16.9127 6.95999 29.19V160.87C6.95999 173.147 16.9127 183.1 29.19 183.1H142.77C155.047 183.1 165 173.147 165 160.87V29.19C165 16.9127 155.047 6.96001 142.77 6.96001Z" fill="#37669D"/>
<path d="M135.81 0H22.23C9.95271 0 0 9.95271 0 22.23V153.91C0 166.187 9.95271 176.14 22.23 176.14H135.81C148.087 176.14 158.04 166.187 158.04 153.91V22.23C158.04 9.95271 148.087 0 135.81 0Z" fill="#F6D4E1"/>
<path d="M47.86 120.79L42.86 134.01H38.18L36.65 126.83L35.09 133.62H30.26L26.18 120.35L30.47 119L32.78 127.27L35 119.35H38.54L40.37 127.93L43.37 118.64L47.86 120.79Z" fill="#37669D"/>
<path d="M55.71 133.7V128.31C55.7228 128.077 55.6867 127.843 55.604 127.624C55.5214 127.406 55.394 127.207 55.23 127.04C54.8696 126.722 54.3998 126.557 53.92 126.58C53.4862 126.563 53.0597 126.695 52.7107 126.953C52.3617 127.211 52.111 127.58 52 128L52.08 133.67L48.47 133.61L48.2 118.18H51.85L51.95 124.63C52.3634 124.168 52.8763 123.805 53.45 123.57C54.0352 123.308 54.6688 123.172 55.31 123.17C55.8481 123.15 56.3834 123.256 56.8731 123.48C57.3628 123.704 57.7932 124.04 58.13 124.46C58.9044 125.472 59.2943 126.727 59.23 128V133.75L55.71 133.7Z" fill="#37669D"/>
<path d="M67.06 133.7V132.79C66.6784 133.108 66.241 133.352 65.77 133.51C65.2625 133.689 64.7282 133.781 64.19 133.78C63.3567 133.782 62.5418 133.535 61.85 133.07C61.1247 132.597 60.5326 131.947 60.13 131.18C59.7076 130.372 59.4912 129.472 59.5 128.56C59.4905 127.642 59.7142 126.738 60.15 125.93C60.5687 125.148 61.1937 124.496 61.9572 124.045C62.7206 123.593 63.5932 123.36 64.48 123.37C64.9646 123.367 65.4457 123.451 65.9 123.62C66.3015 123.766 66.6641 124.002 66.96 124.31V123.48H70.16L70.6 133.7H67.06ZM65.79 130.29C66.0998 130.088 66.3514 129.809 66.52 129.48C66.6983 129.144 66.791 128.77 66.79 128.39C66.7969 128.147 66.7553 127.905 66.6678 127.679C66.5802 127.452 66.4484 127.245 66.28 127.07C66.115 126.898 65.9161 126.762 65.6957 126.67C65.4754 126.579 65.2384 126.535 65 126.54C64.7259 126.537 64.4539 126.589 64.1998 126.692C63.9457 126.795 63.7147 126.947 63.52 127.14C63.3175 127.317 63.1556 127.535 63.0451 127.78C62.9347 128.025 62.8784 128.291 62.88 128.56C62.8837 128.912 62.9802 129.257 63.16 129.56C63.3385 129.871 63.5888 130.135 63.89 130.33C64.1681 130.526 64.4999 130.631 64.84 130.631C65.1801 130.631 65.5119 130.526 65.79 130.33V130.29Z" fill="#37669D"/>
<path d="M75 133.85C74.4755 133.87 73.9528 133.779 73.4654 133.585C72.978 133.39 72.5367 133.095 72.17 132.72C71.429 131.83 71.0696 130.684 71.17 129.53V120.06L74.79 119V128.47C74.7724 128.682 74.8009 128.896 74.8734 129.096C74.9458 129.296 75.0607 129.478 75.21 129.63C75.4822 129.88 75.8402 130.016 76.21 130.01C76.4434 130.02 76.6742 129.957 76.87 129.83L77.72 133.24C76.8647 133.628 75.9389 133.835 75 133.85Z" fill="#37669D"/>
<path d="M86.16 124.77C87.0849 125.825 87.562 127.199 87.49 128.6C87.49 128.87 87.49 129.08 87.49 129.22L80.68 129.29C80.811 129.684 81.0299 130.043 81.32 130.34C81.5809 130.616 81.9404 130.778 82.32 130.79C82.7401 130.863 83.1724 130.818 83.5682 130.659C83.964 130.5 84.3075 130.234 84.56 129.89L87.31 130.68C87.1241 131.298 86.7793 131.857 86.31 132.3C85.8271 132.79 85.2483 133.174 84.61 133.43C83.9751 133.69 83.2961 133.826 82.61 133.83C82.4836 133.842 82.3564 133.842 82.23 133.83C81.3504 133.771 80.5035 133.474 79.78 132.97C79.0287 132.46 78.414 131.773 77.99 130.97C77.5394 130.131 77.3089 129.192 77.32 128.24C77.32 128.05 77.32 127.9 77.32 127.79C77.3609 126.975 77.6313 126.188 78.1 125.52C78.5733 124.853 79.2104 124.319 79.95 123.97C80.739 123.591 81.6048 123.4 82.48 123.41C83.1539 123.372 83.8283 123.473 84.4614 123.707C85.0945 123.941 85.6727 124.303 86.16 124.77ZM80.68 127H83.93C83.8992 126.662 83.7377 126.35 83.48 126.13C83.2342 125.931 82.935 125.809 82.62 125.78C82.204 125.716 81.7788 125.804 81.4225 126.028C81.0662 126.252 80.8026 126.597 80.68 127Z" fill="#37669D"/>
<path d="M96.64 123.08L96.7 124.77H101.26L101.57 128.61L96.82 128.67L96.97 133.77H93.12V119.25L102.78 119.08V122.93L96.64 123.08Z" fill="#37669D"/>
<path d="M110.51 123.69C110.964 123.936 111.36 124.277 111.67 124.69L110.34 127.69C110.171 127.445 109.943 127.247 109.678 127.113C109.412 126.978 109.117 126.912 108.82 126.92C108.52 126.902 108.22 126.96 107.949 127.089C107.678 127.219 107.444 127.415 107.27 127.66C106.863 128.401 106.66 129.235 106.68 130.08V133.77H103.1V123.45H106.68V124.33C107.029 124.019 107.432 123.775 107.87 123.61C108.287 123.443 108.731 123.355 109.18 123.35C109.645 123.352 110.101 123.469 110.51 123.69Z" fill="#37669D"/>
<path d="M120 124.77C120.929 125.823 121.406 127.198 121.33 128.6C121.342 128.806 121.342 129.014 121.33 129.22L114.52 129.29C114.655 129.685 114.877 130.044 115.17 130.34C115.299 130.478 115.453 130.588 115.625 130.665C115.796 130.743 115.982 130.785 116.17 130.79C116.589 130.865 117.02 130.82 117.415 130.661C117.809 130.502 118.151 130.235 118.4 129.89L121.15 130.68C120.961 131.297 120.617 131.855 120.15 132.3C119.665 132.787 119.087 133.171 118.45 133.43C117.815 133.69 117.136 133.825 116.45 133.83C116.32 133.842 116.19 133.842 116.06 133.83C115.181 133.769 114.334 133.472 113.61 132.97C112.859 132.46 112.244 131.773 111.82 130.97C111.377 130.129 111.151 129.191 111.16 128.24C111.16 128.05 111.16 127.9 111.16 127.79C111.201 126.975 111.471 126.188 111.94 125.52C112.412 124.856 113.045 124.322 113.78 123.97C114.57 123.594 115.435 123.402 116.31 123.41C116.986 123.369 117.663 123.469 118.298 123.703C118.933 123.937 119.513 124.3 120 124.77ZM114.49 127H117.74C117.709 126.662 117.548 126.35 117.29 126.13C117.048 125.931 116.752 125.809 116.44 125.78C116.023 125.718 115.597 125.806 115.24 126.03C114.882 126.254 114.616 126.598 114.49 127Z" fill="#37669D"/>
<path d="M130.55 124.77C131.479 125.823 131.956 127.198 131.88 128.6C131.892 128.806 131.892 129.014 131.88 129.22L125.07 129.29C125.205 129.685 125.427 130.044 125.72 130.34C125.849 130.478 126.003 130.588 126.175 130.665C126.346 130.743 126.532 130.785 126.72 130.79C127.139 130.864 127.57 130.819 127.964 130.66C128.358 130.5 128.7 130.234 128.95 129.89L131.7 130.68C131.511 131.297 131.167 131.855 130.7 132.3C130.215 132.787 129.637 133.171 129 133.43C128.349 133.696 127.653 133.832 126.95 133.83C126.82 133.842 126.69 133.842 126.56 133.83C125.681 133.769 124.834 133.472 124.11 132.97C123.359 132.46 122.744 131.773 122.32 130.97C121.877 130.129 121.651 129.191 121.66 128.24C121.648 128.09 121.648 127.94 121.66 127.79C121.701 126.975 121.971 126.188 122.44 125.52C122.909 124.853 123.543 124.319 124.28 123.97C125.07 123.594 125.935 123.402 126.81 123.41C127.494 123.362 128.18 123.459 128.824 123.693C129.469 123.927 130.056 124.294 130.55 124.77ZM125.07 127H128.32C128.289 126.662 128.128 126.35 127.87 126.13C127.625 125.929 127.325 125.807 127.01 125.78C126.594 125.718 126.17 125.807 125.814 126.031C125.458 126.255 125.194 126.598 125.07 127Z" fill="#37669D"/>
<path d="M87 68.3C88.8 68.47 89.91 68.93 90.33 69.69C90.47 70.11 90.37 70.25 90.03 70.11C89.89 70.11 89.89 70.11 90.03 70.24C87.8381 70.8073 85.5987 71.1721 83.34 71.33C81.0886 71.499 78.8847 72.0643 76.83 73L75.83 74.44C75.5334 74.9255 75.199 75.387 74.83 75.82C74.4271 76.2929 73.9319 76.6787 73.3749 76.9538C72.8178 77.2289 72.2105 77.3876 71.59 77.42C71.15 77.42 70.98 77.31 71.09 77C71.2893 76.7075 71.3648 76.348 71.3 76C68.582 77.5977 65.7702 79.0303 62.88 80.29C60.0483 81.5403 57.3455 83.0642 54.81 84.84C53.75 85.6133 50.7267 89.6667 45.74 97C45.8436 97.7589 46.2336 98.4494 46.83 98.93C47.3892 99.3876 47.8603 99.9433 48.22 100.57C47.4916 100.135 46.6738 99.8709 45.8284 99.7982C44.983 99.7254 44.1321 99.8457 43.34 100.15C42.83 100.32 42.02 100.66 40.9 101.15C40.0507 101.535 39.1792 101.869 38.29 102.15C39.0823 100.883 40.099 99.7719 41.29 98.87C42.442 97.9705 43.4857 96.9403 44.4 95.8C44.32 91.5733 45.61 86.9867 48.27 82.04C48.41 81.76 49.17 80.53 50.54 78.34C51.3403 77.1138 52.0297 75.8187 52.6 74.47C53.6 71.55 52.38 69.86 48.82 69.38C49.4297 68.7792 50.1802 68.3409 51.003 68.105C51.8258 67.8692 52.6947 67.8434 53.53 68.03C55.4052 68.4578 57.3276 68.6427 59.25 68.58C61.8456 67.9498 64.3495 66.9886 66.7 65.72C69.0944 64.3987 71.6996 63.5021 74.4 63.07C76.9044 62.869 79.4233 63.1856 81.8 64C84.71 65 86.45 66.4 87 68.3ZM114.83 43L111.5 45.19C110.902 45.5372 110.392 46.0188 110.012 46.5968C109.632 47.1747 109.392 47.8331 109.31 48.52C111.131 51.7644 112.574 55.2069 113.61 58.78C114.667 62.7164 114.622 66.8674 113.48 70.78C113.37 71.09 113.03 71.78 112.48 72.96C112.087 73.6413 111.857 74.4048 111.81 75.19C112.081 76.6197 112.458 78.027 112.94 79.4C113.244 80.1268 113.401 80.907 113.401 81.695C113.401 82.483 113.244 83.2632 112.94 83.99C112.8 83.65 112.62 83.19 112.39 82.6C112.16 82.01 111.97 81.41 111.89 81.21C111.584 80.2968 110.973 79.5165 110.16 79C108.789 78.7076 107.358 78.9509 106.16 79.68C105.91 79.84 105.47 80.15 104.86 80.6C104.534 80.8524 104.178 81.0639 103.8 81.23C104.519 79.4021 105.624 77.751 107.04 76.39C108.405 75.1285 109.297 73.4384 109.57 71.6C109.854 69.4145 109.684 67.1938 109.069 65.0772C108.455 62.9606 107.41 60.9938 106 59.3C104.694 57.685 103.07 56.3549 101.23 55.3917C99.3897 54.4286 97.3715 53.8528 95.3 53.7C95.5969 55.1936 96.0947 56.6401 96.78 58C97.4665 59.4239 97.8803 60.9638 98 62.54C96.1152 61.9592 94.3994 60.9298 93 59.54C92.89 59.4 92.44 58.59 91.66 57.1C91.4871 56.6846 91.2229 56.3135 90.8871 56.014C90.5513 55.7145 90.1524 55.4944 89.72 55.37C89.9795 55.2068 90.1843 54.9699 90.3084 54.6896C90.4324 54.4093 90.47 54.0984 90.4163 53.7966C90.3626 53.4949 90.2201 53.216 90.007 52.9957C89.7938 52.7754 89.5198 52.6237 89.22 52.56C88.5617 52.2189 87.8197 52.0725 87.0812 52.1381C86.3426 52.2036 85.638 52.4783 85.05 52.93C85.4659 52.4544 85.9861 52.0814 86.57 51.84C87.1424 51.5613 87.6552 51.1741 88.08 50.7C87.5466 50.9397 87.0259 51.2067 86.52 51.5C85.65 52.01 85.05 52.35 84.71 52.5C83.3711 53.238 81.9174 53.7451 80.41 54C80.2259 53.9981 80.0458 54.054 79.8951 54.1598C79.7444 54.2657 79.6307 54.4161 79.57 54.59C79.45 54.9 79.29 55.06 79.06 55.09C78.8407 54.6549 78.7877 54.1547 78.9111 53.6834C79.0345 53.212 79.3257 52.8019 79.73 52.53C80.4716 51.97 81.1641 51.3477 81.8 50.67C82 50.1363 82.0983 49.5699 82.09 49C82.0641 48.3603 82.1487 47.721 82.34 47.11C83.52 44.11 86.5633 42.4667 91.47 42.18C95.4377 41.8883 99.4127 42.6398 103 44.36C104.767 43.4093 106.669 42.7348 108.64 42.36L112.55 41.6L114.83 43ZM84.83 55.12C84.99 54.9 83.98 54.98 81.83 55.37C81.63 55.6 82.64 55.51 84.83 55.09V55.12ZM89.5 54.83C88.9176 55.1385 88.2523 55.2541 87.6 55.16C86.34 55.11 85.6 55.09 85.37 55.16C85.9558 54.8618 86.622 54.7601 87.27 54.87C88.014 54.9035 88.7595 54.8801 89.5 54.8V54.83ZM86.22 47.97C85.93 48.45 86.07 48.74 86.64 48.85C86.7334 48.8683 86.8296 48.8671 86.9226 48.8465C87.0155 48.8258 87.1031 48.7862 87.18 48.73C87.2501 48.6677 87.2999 48.5858 87.3231 48.4949C87.3463 48.404 87.3417 48.3083 87.31 48.22C87.31 48.05 87.14 47.97 86.89 47.97C86.7789 47.9383 86.6611 47.9383 86.55 47.97H86.22Z" fill="#37669D"/>
<path d="M119.17 35.86C119.265 35.9211 119.377 35.9525 119.49 35.95V36.78C119.291 36.7798 119.093 36.7389 118.91 36.66C118.721 36.5788 118.551 36.4597 118.41 36.31C118.269 36.1699 118.163 35.9986 118.1 35.81H118V36.6H117.17V33.6C117.302 33.5331 117.444 33.4892 117.59 33.47C117.77 33.4552 117.95 33.4552 118.13 33.47C118.395 33.4625 118.658 33.5137 118.9 33.62C119.095 33.7004 119.259 33.8405 119.37 34.02C119.48 34.1969 119.535 34.402 119.53 34.61C119.532 34.8152 119.484 35.0178 119.39 35.2C119.291 35.3694 119.149 35.5106 118.98 35.61C119.017 35.7103 119.083 35.7973 119.17 35.86ZM118 35C118.053 35.0105 118.107 35.0105 118.16 35C118.25 34.9991 118.339 34.9786 118.42 34.94C118.498 34.9114 118.567 34.8631 118.62 34.8C118.67 34.7373 118.698 34.6601 118.7 34.58C118.7 34.512 118.679 34.4456 118.64 34.39C118.604 34.3254 118.552 34.2705 118.49 34.23C118.422 34.2091 118.348 34.2091 118.28 34.23C118.227 34.2214 118.173 34.2214 118.12 34.23C118.077 34.2214 118.033 34.2214 117.99 34.23L118 35Z" fill="#37669D"/>
<path d="M118.32 38.55C117.642 38.55 116.978 38.3488 116.414 37.9719C115.85 37.595 115.411 37.0594 115.151 36.4326C114.891 35.8059 114.824 35.1162 114.956 34.4508C115.088 33.7855 115.415 33.1743 115.895 32.6946C116.374 32.2149 116.985 31.8883 117.651 31.7559C118.316 31.6236 119.006 31.6915 119.633 31.9511C120.259 32.2107 120.795 32.6503 121.172 33.2144C121.549 33.7785 121.75 34.4416 121.75 35.12C121.75 36.0297 121.389 36.9021 120.745 37.5454C120.102 38.1886 119.23 38.55 118.32 38.55ZM118.32 32.55C117.811 32.55 117.314 32.701 116.891 32.9838C116.468 33.2667 116.139 33.6686 115.945 34.1388C115.75 34.609 115.7 35.1263 115.8 35.6251C115.9 36.1239 116.146 36.5818 116.506 36.9408C116.867 37.2998 117.326 37.5438 117.825 37.6418C118.324 37.7399 118.841 37.6875 119.31 37.4915C119.78 37.2954 120.181 36.9645 120.462 36.5405C120.743 36.1166 120.892 35.6187 120.89 35.11C120.889 34.7738 120.821 34.4412 120.691 34.1311C120.561 33.821 120.372 33.5395 120.133 33.3027C119.894 33.0659 119.612 32.8785 119.3 32.751C118.989 32.6236 118.656 32.5587 118.32 32.56V32.55Z" fill="#37669D"/>
</g>
<defs>
<clipPath id="clip0_0_5288">
<rect width="165" height="183.1" fill="white"/>
</clipPath>
</defs>
</svg>
