<svg width="179" height="177" viewBox="0 0 179 177" fill="none" xmlns="http://www.w3.org/2000/svg">
<g clip-path="url(#clip0_0_5306)">
<path d="M0 176.14V89C-1.74228e-07 77.3078 2.30296 65.73 6.77739 54.9278C11.2518 44.1256 17.8101 34.3104 26.0777 26.0427C34.3454 17.7751 44.1606 11.2168 54.9628 6.74238C65.765 2.26795 77.3428 -0.0350037 89.035 -0.0350037C100.727 -0.0350037 112.305 2.26795 123.107 6.74238C133.909 11.2168 143.725 17.7751 151.992 26.0427C160.26 34.3104 166.818 44.1256 171.293 54.9278C175.767 65.73 178.07 77.3078 178.07 89V176.1L0 176.14Z" fill="#FEC305"/>
<path d="M23.53 64.4C23.5061 64.4629 23.476 64.5232 23.44 64.58C23.04 65.09 21.78 64.65 21.5 65.49C21.422 65.6881 21.4232 65.9086 21.5032 66.1059C21.5833 66.3032 21.7361 66.4622 21.93 66.55C22.93 66.9 24.42 62.6 27.5 63.64C29.26 64.23 30.76 66.3 29.6 69.73C28.9 71.82 27.71 72.97 25.21 72.13C24.21 71.78 23.39 71.04 23.65 70.27C23.99 69.27 25.65 69.55 26.14 68.19C26.31 67.69 26.14 67.3 25.99 67.19C25.3 66.96 22.91 70.19 20.99 69.52C19.56 69.04 18.73 66.58 19.37 64.7C19.57 64.08 19.96 63.6 20.13 63.07C20.1523 63.0127 20.1826 62.9588 20.22 62.91C20.5 62.54 21.28 62.51 22.04 62.77C22.8 63.03 23.74 63.76 23.53 64.4ZM20.36 64.22C20.53 64.28 20.83 64.06 20.91 63.81C20.99 63.56 20.91 63.55 20.83 63.51C20.75 63.47 20.36 63.67 20.28 63.92C20.2 64.17 20.25 64.18 20.36 64.22Z" fill="#F98410"/>
<path d="M22.27 57.8C22.79 56.8 23.57 55.89 24.07 56.14C24.57 56.39 24.67 57.14 25.31 57.68C25.7268 57.9994 26.1759 58.2742 26.65 58.5C28.23 59.31 29.73 59.73 30.4 58.44C31.07 57.15 29.85 56.1 28.17 55.24L27.61 55C27.3562 54.8584 27.088 54.7444 26.81 54.66C26.02 54.45 25.29 54.75 24.91 54.56C24.38 54.28 24.41 53.56 24.91 52.56C25.41 51.56 25.97 51.12 26.51 51.39C26.89 51.59 27.06 52.39 27.69 52.89C28.0846 53.202 28.5142 53.4672 28.97 53.68C29.97 54.21 31.34 54.54 32.13 54.94C34.38 56.1 34.31 58.84 33.48 60.46C32.48 62.32 29.98 63.73 28.24 62.83C27.6 62.5 26.46 61.54 25.24 60.94C24.7987 60.7002 24.3326 60.5091 23.85 60.37C23.06 60.17 22.34 60.47 21.91 60.25C21.48 60.03 21.75 58.81 22.27 57.8ZM23.63 57.35C23.74 57.14 23.74 56.92 23.63 56.86C23.52 56.8 23.31 56.86 23.2 57.13C23.09 57.4 23.11 57.57 23.2 57.63C23.29 57.69 23.52 57.56 23.63 57.35ZM26.06 52.62C26.17 52.41 26.17 52.19 26.06 52.13C25.95 52.07 25.74 52.13 25.63 52.4C25.52 52.67 25.54 52.84 25.63 52.9C25.72 52.96 26 52.84 26.06 52.62Z" fill="#F98410"/>
<path d="M31.17 50.92C30.6697 50.5537 30.1296 50.2451 29.56 50C28.82 49.66 28.05 49.84 27.67 49.55C27.29 49.26 27.67 48.13 28.37 47.21C29.07 46.29 29.79 45.79 30.44 45.9C30.77 45.96 34.44 47.58 34.69 47.21C34.76 47.12 34.62 46.9 34.14 46.52C33.7295 46.1961 33.2872 45.9147 32.82 45.68C32.05 45.35 31.28 45.52 30.9 45.23C30.52 44.94 30.9 43.81 31.6 42.9C32.3 41.99 33.19 41.24 33.6 41.58C34.01 41.92 34.04 42.65 34.6 43.27C34.9379 43.641 35.3132 43.9762 35.72 44.27C36.635 44.9291 37.6053 45.508 38.62 46C40.02 46.65 40.95 46.43 41.41 46.77C41.87 47.11 41.46 48.35 40.56 49.56C39.66 50.77 39 51.22 38.4 50.81C37.26 49.96 33.58 48.46 33.25 48.9C33.19 48.97 33.25 49.12 33.62 49.37C34.149 49.7315 34.6964 50.0653 35.26 50.37C36.66 51.14 37.44 51.12 37.9 51.46C38.36 51.8 38.23 52.67 37.33 53.88C36.08 55.54 35.23 55.63 34.6 55.17C33.81 54.58 33.79 53.58 33.07 52.71C32.5081 52.0418 31.8705 51.4411 31.17 50.92Z" fill="#F98410"/>
<path d="M38.72 41.41C38.2892 40.9583 37.8096 40.5558 37.29 40.21C36.62 39.75 35.83 39.79 35.51 39.44C35.19 39.09 35.77 38.04 36.6 37.26C37.43 36.48 38.25 36.1 38.86 36.32C39.18 36.44 42.49 38.67 42.86 38.32C42.94 38.24 42.86 38.01 42.44 37.55C42.0911 37.1752 41.7021 36.8399 41.28 36.55C40.58 36.08 39.79 36.12 39.46 35.77C39.13 35.42 39.73 34.37 40.56 33.59C41.39 32.81 42.41 32.24 42.79 32.59C43.17 32.94 43.03 33.72 43.44 34.42C43.7062 34.849 44.018 35.248 44.37 35.61C45.1525 36.4339 46.0095 37.1838 46.93 37.85C48.19 38.73 49.15 38.68 49.54 39.09C49.93 39.5 49.32 40.65 48.22 41.69C47.12 42.73 46.35 43.03 45.88 42.53C44.88 41.53 41.54 39.37 41.14 39.75C41.07 39.81 41.14 39.98 41.43 40.28C41.8789 40.7368 42.3565 41.1643 42.86 41.56C44.11 42.56 44.86 42.69 45.27 43.1C45.68 43.51 45.39 44.34 44.27 45.38C42.75 46.81 41.9 46.75 41.36 46.18C40.82 45.61 40.83 44.48 40.28 43.5C39.8375 42.7487 39.3144 42.0479 38.72 41.41Z" fill="#F98410"/>
<path d="M50.73 26.05C51.36 25.62 51.98 25.42 52.19 25.73C52.2384 25.8121 52.2659 25.9048 52.27 26C52.27 26.58 51.8 27.51 51.67 28.59C51.5396 29.2218 51.5193 29.8713 51.61 30.51C51.7391 31.0456 51.97 31.5515 52.29 32C52.5504 32.3884 52.8485 32.7501 53.18 33.08C53.5 33.39 54.92 33.84 55.47 34.64C55.9 35.28 55.77 36.14 54.05 37.3C52.33 38.46 51.49 38.3 51.05 37.63C50.5 36.81 50.59 35.27 50.41 34.81C50.2993 34.5276 50.1621 34.2564 50 34C49.6062 33.4295 49.0678 32.9739 48.44 32.68C47.8971 32.389 47.332 32.1416 46.75 31.94C45.75 31.62 44.75 31.7 44.25 31.45C44.1851 31.4232 44.1295 31.378 44.09 31.32C43.86 30.97 44.46 30.32 45.29 29.75C46.12 29.18 47.71 28.44 48.29 28.75C48.4529 28.8413 48.5904 28.972 48.69 29.13C48.78 29.27 48.86 29.41 48.97 29.56C49.0979 29.7721 49.264 29.9586 49.46 30.11C49.82 30.4 50.08 30.56 50.16 30.51C50.24 30.46 50.16 30.23 49.96 29.78C49.57 29.01 49.27 28.67 49.26 28.1C49.25 27.53 50 26.56 50.73 26.05ZM47.13 29.84C47.2 29.95 47.42 29.93 47.62 29.84C47.82 29.75 47.92 29.51 47.84 29.38C47.76 29.25 47.55 29.29 47.36 29.38C47.17 29.47 47 29.72 47.13 29.84ZM51.28 26.84C51.48 26.7 51.58 26.51 51.51 26.4C51.44 26.29 51.2 26.3 51 26.4C50.8 26.5 50.7 26.73 50.78 26.84C50.86 26.95 51.08 27 51.28 26.87V26.84Z" fill="#F98410"/>
<path d="M66.65 22.73H66.46C65.81 22.73 65.35 21.5 64.53 21.81C64.3278 21.8747 64.1582 22.0145 64.0559 22.2005C63.9536 22.3865 63.9264 22.6046 63.98 22.81C64.36 23.81 68.61 22.23 69.75 25.27C70.41 27 69.75 29.47 66.37 30.75C64.31 31.53 62.67 31.33 61.74 28.87C61.36 27.87 61.43 26.78 62.18 26.49C63.18 26.12 64.03 27.6 65.37 27.1C65.86 26.91 66.09 26.57 66.01 26.37C65.76 25.7 61.75 25.89 61.01 23.97C60.47 22.55 61.85 20.35 63.71 19.65C64.32 19.42 64.94 19.41 65.46 19.22H65.63C66.11 19.22 66.63 19.8 66.9 20.54C67.17 21.28 67.28 22.49 66.65 22.73ZM64.79 20.17C64.85 20.34 65.21 20.42 65.46 20.33C65.71 20.24 65.68 20.18 65.63 20.07C65.58 19.96 65.22 19.81 64.96 19.91C64.7 20.01 64.75 20.05 64.79 20.17Z" fill="#F98410"/>
<path d="M71 17.58C72.11 17.34 73.3 17.38 73.41 17.92C73.52 18.46 73 19 73 19.86C73.0142 20.3827 73.0846 20.9024 73.21 21.41C73.59 23.15 74.21 24.58 75.63 24.27C77.05 23.96 77.09 22.37 76.7 20.52L76.57 19.91C76.518 19.6227 76.4376 19.3414 76.33 19.07C75.99 18.33 75.33 17.96 75.2 17.54C75.08 16.95 75.64 16.54 76.75 16.3C77.86 16.06 78.54 16.21 78.66 16.8C78.75 17.22 78.26 17.85 78.25 18.66C78.2597 19.162 78.3234 19.6616 78.44 20.15C78.68 21.28 79.29 22.53 79.44 23.39C80 25.87 77.8 27.56 76 27.94C74 28.37 71.25 27.3 70.84 25.38C70.7 24.67 70.71 23.18 70.44 21.89C70.3469 21.3985 70.1994 20.9188 70 20.46C69.66 19.72 69 19.35 68.87 18.88C68.74 18.41 69.84 17.82 71 17.58ZM72.2 18.35C72.44 18.3 72.6 18.15 72.58 18.02C72.56 17.89 72.33 17.81 72.1 17.86C71.87 17.91 71.7 18.07 71.73 18.2C71.76 18.33 71.93 18.4 72.16 18.35H72.2ZM77.4 17.24C77.64 17.24 77.8 17.04 77.78 16.91C77.76 16.78 77.53 16.7 77.3 16.75C77.07 16.8 76.9 16.96 76.93 17.09C76.96 17.22 77.13 17.29 77.36 17.24H77.4Z" fill="#F98410"/>
<path d="M88.75 25.57C88.75 25 89.18 24.37 89.36 22.78C89.4356 22.1427 89.4757 21.5017 89.48 20.86C89.48 20.23 89.39 19.98 89.3 19.98C88.75 19.98 87.87 24.1 87.91 25.59C87.9184 25.6803 87.9078 25.7713 87.8789 25.8572C87.85 25.9431 87.8034 26.0221 87.7422 26.0889C87.681 26.1558 87.6065 26.2091 87.5234 26.2455C87.4404 26.2818 87.3507 26.3004 87.26 26.3C87.1695 26.304 87.0792 26.2897 86.9944 26.2579C86.9096 26.226 86.8322 26.1773 86.7667 26.1147C86.7013 26.0521 86.6492 25.9768 86.6137 25.8935C86.5782 25.8102 86.5599 25.7206 86.56 25.63C86.56 24.14 85.4 20.1 84.84 20.11C84.75 20.11 84.7 20.37 84.72 21C84.7504 21.6409 84.8239 22.279 84.94 22.91C85.21 24.49 85.71 25.09 85.72 25.66C85.73 26.23 84.99 26.66 83.48 26.71C81.4 26.78 80.8 26.16 80.77 25.39C80.77 24.39 81.5 23.76 81.77 22.66C81.9552 21.7423 82.0191 20.8043 81.96 19.87V19.61C81.9659 19.1318 81.895 18.6557 81.75 18.2C81.54 17.47 80.94 16.92 80.92 16.44C80.9 15.96 82.05 15.57 83.19 15.53C84.33 15.49 85.19 15.76 85.5 16.33C86.42 18.04 86.72 20.12 87.16 20.1C87.6 20.08 87.75 17.85 88.5 16.25C88.78 15.65 89.59 15.34 90.76 15.31C91.93 15.28 93.05 15.53 93.06 16.08C93.07 16.63 92.49 17.08 92.34 17.88C92.2464 18.3776 92.2095 18.8841 92.23 19.39C92.2615 20.381 92.3752 21.3678 92.57 22.34C92.85 23.44 93.67 24 93.7 24.99C93.7 25.77 93.16 26.43 91.08 26.49C89.54 26.54 88.77 26.26 88.75 25.57ZM84.2 16.51C84.44 16.51 84.63 16.39 84.62 16.25C84.61 16.11 84.42 16.01 84.18 16.01C83.94 16.01 83.75 16.14 83.75 16.28C83.75 16.42 84 16.51 84.2 16.51ZM91.83 16.28C92.07 16.28 92.26 16.16 92.26 16.03C92.26 15.9 92.05 15.78 91.82 15.79C91.59 15.8 91.38 15.92 91.39 16.05C91.4 16.18 91.59 16.29 91.83 16.28Z" fill="#F98410"/>
<path d="M101.92 26.88C102.02 26.32 102.59 25.8 103.1 24.28C103.308 23.6701 103.481 23.0491 103.62 22.42C103.73 21.8 103.72 21.54 103.62 21.53C103.07 21.43 101.35 25.26 101.09 26.73C101.078 26.8201 101.048 26.9069 101.001 26.9847C100.954 27.0626 100.891 27.1299 100.817 27.1825C100.743 27.2351 100.659 27.2718 100.57 27.2903C100.481 27.3088 100.389 27.3087 100.3 27.29C100.211 27.2745 100.126 27.2413 100.051 27.1923C99.9753 27.1433 99.9103 27.0795 99.8599 27.0048C99.8095 26.9301 99.7746 26.8461 99.7575 26.7576C99.7403 26.6691 99.7412 26.5781 99.76 26.49C100.03 25.02 99.76 20.83 99.23 20.73C99.14 20.73 99.03 20.95 98.92 21.57C98.8199 22.2056 98.7598 22.8469 98.74 23.49C98.67 25.09 99.04 25.78 98.93 26.34C98.82 26.9 98.01 27.17 96.52 26.9C94.52 26.53 94.01 25.81 94.14 25.04C94.32 24.04 95.2 23.6 95.66 22.58C96.0287 21.7158 96.2874 20.8087 96.43 19.88V19.63C96.5318 19.1606 96.5622 18.6785 96.52 18.2C96.46 17.44 95.99 16.78 96.08 16.31C96.17 15.84 97.36 15.69 98.48 15.89C99.6 16.09 100.39 16.53 100.58 17.16C101.13 19.02 100.99 21.16 101.42 21.16C101.85 21.16 102.42 19.09 103.53 17.67C103.93 17.14 104.79 17.01 105.94 17.22C107.09 17.43 108.13 17.91 108.03 18.46C107.93 19.01 107.26 19.32 106.94 20.07C106.753 20.5375 106.615 21.0236 106.53 21.52C106.347 22.5096 106.253 23.5136 106.25 24.52C106.25 25.65 106.98 26.38 106.8 27.35C106.66 28.11 105.97 28.64 103.92 28.27C102.5 28 101.8 27.56 101.92 26.88ZM99.35 17.06C99.59 17.11 99.8 17.06 99.82 16.91C99.84 16.76 99.68 16.62 99.44 16.58C99.2 16.54 98.99 16.58 98.97 16.75C98.95 16.92 99.12 17 99.35 17.06ZM106.87 18.43C107.11 18.48 107.32 18.43 107.34 18.27C107.36 18.11 107.2 18 107 18C106.8 18 106.55 18 106.53 18.17C106.51 18.34 106.64 18.39 106.87 18.43Z" fill="#F98410"/>
<path d="M110.6 22.8C110.787 22.3433 110.921 21.867 111 21.38C111.11 20.58 110.73 19.89 110.89 19.48C111.05 19.07 112.23 19.21 113.29 19.61L118.06 21.43C118.69 21.67 118.93 23.1 118.53 24.15C118.31 24.73 117.91 25.15 117.45 25.02C116.55 24.67 117.18 23.25 115.45 22.59C115.073 22.43 114.652 22.4096 114.262 22.5324C113.871 22.6552 113.537 22.9132 113.32 23.26C113.22 23.54 113.32 23.83 113.77 24.01C114.22 24.19 114.83 23.81 115.12 23.93C115.41 24.05 115.46 24.67 115.21 25.32C114.96 25.97 114.51 26.44 114.21 26.32C113.91 26.2 113.82 25.56 113.21 25.32C112.82 25.17 112.6 25.32 112.49 25.56C112.402 25.8718 112.411 26.2027 112.515 26.5095C112.618 26.8164 112.812 27.0849 113.07 27.28C114.65 27.89 115.28 26.28 116.35 26.72C117.23 27.06 117.35 27.91 116.96 28.8C116.41 30.26 114.75 31.8 113.7 31.42L109.25 29.72C107.35 29 106.98 28.2 107.25 27.46C107.61 26.53 108.55 26.25 109.19 25.33C109.753 24.5418 110.226 23.6932 110.6 22.8ZM117.26 21.67C117.2 21.84 117.4 22.15 117.66 22.24C117.92 22.33 117.92 22.24 117.96 22.16C118 22.08 117.82 21.69 117.57 21.6C117.32 21.51 117.31 21.56 117.26 21.67Z" fill="#F98410"/>
<path d="M120.5 27.34C120.827 26.7874 121.092 26.2005 121.29 25.59C121.54 24.82 121.29 24.07 121.52 23.66C121.75 23.25 122.94 23.52 123.92 24.1L126.19 25.44C128.81 26.99 128.78 28.83 128.19 29.79C127.958 30.1479 127.637 30.4394 127.258 30.6357C126.879 30.8321 126.456 30.9266 126.03 30.91C126.155 31.983 126.155 33.067 126.03 34.14C125.87 35.14 126.96 35.65 126.31 36.76C125.66 37.87 124.6 37.53 123.41 36.82C121.94 35.95 121.29 35.24 121.88 34.25C122.66 32.9 123.83 30.41 123.06 29.95C122.72 29.76 122.13 29.95 121.79 30.54C121.645 30.7781 121.531 31.0334 121.45 31.3C121.237 32.2282 120.97 33.1431 120.65 34.04C120.3 34.63 119.49 34.5 118.18 33.73C116.39 32.73 116.18 31.83 116.61 31.15C117.11 30.3 118.09 30.15 118.88 29.38C119.495 28.7633 120.039 28.079 120.5 27.34ZM125.1 27.29C124.39 26.87 123.82 27.07 123.59 27.46C123.36 27.85 123.72 28.57 124.26 28.89C124.8 29.21 125.26 29.22 125.53 28.79C125.662 28.5322 125.692 28.2335 125.612 27.9549C125.532 27.6762 125.349 27.4385 125.1 27.29ZM126.78 26.73C126.69 26.89 126.85 27.22 127.08 27.36C127.31 27.5 127.33 27.44 127.39 27.36C127.45 27.28 127.33 26.87 127.1 26.74C126.87 26.61 126.85 26.63 126.78 26.73Z" fill="#F98410"/>
<path d="M135.86 37.9C136.29 37.4841 136.673 37.0212 137 36.52C137.44 35.84 137.38 35.05 137.69 34.75C138 34.45 139.13 34.95 139.93 35.75L141.64 37.5C143.77 39.66 142.97 43.39 140.79 45.5C138.96 47.29 136.33 47.8 133.79 45.21L132.06 43.45C130.63 42 130.63 41.12 131.19 40.56C131.9 39.87 132.87 40 133.84 39.43C134.569 38.998 135.247 38.4848 135.86 37.9ZM137.32 40.27C136.6 40.98 135.69 42 136.38 42.7C137.07 43.4 138.24 43.08 139.08 42.26C140.08 41.26 140.76 39.66 140.08 39.02C139.4 38.38 138.59 38.97 137.72 39.83L137.32 40.27ZM141.66 38.67C141.53 38.8 141.59 39.16 141.78 39.35C141.97 39.54 142 39.49 142.09 39.35C142.18 39.21 142.16 38.87 141.97 38.68C141.78 38.49 141.75 38.59 141.66 38.67Z" fill="#F98410"/>
<path d="M144.78 57.11C143.61 57.92 142.87 57.04 142.06 55.87C141.06 54.47 140.8 53.56 141.74 52.87C142.02 52.68 142.56 52.36 142.94 52.1C143.32 51.84 143.94 51.33 143.47 50.71C142.94 49.94 142.08 50.43 141.47 50.85C141.3 50.97 141.13 51.11 140.95 51.23C139.87 51.98 139.13 51.63 138.25 50.36C137.61 49.44 137.3 48.57 138.25 47.9C139.2 47.23 139.43 48.39 141.19 48.16C142.397 47.982 143.59 47.718 144.76 47.37C145.335 47.2343 145.886 47.0081 146.39 46.7C147.08 46.22 146.98 45.61 147.44 45.29C147.9 44.97 148.85 46.01 149.44 46.89C150.03 47.77 150.66 49.04 150.24 49.53C150.188 49.5815 150.131 49.6283 150.07 49.67C148.651 50.6223 147.392 51.7935 146.34 53.14C144.76 55.33 146.14 56.16 144.78 57.11ZM144.65 49.92C144.85 50.2 145.13 50.13 145.42 49.92C146.22 49.36 146.48 48.92 146.36 48.81C146.24 48.7 145.64 48.81 144.85 49.31C144.61 49.49 144.49 49.68 144.65 49.92ZM149.37 48.06C149.24 48.15 149.27 48.44 149.43 48.66C149.59 48.88 149.68 48.88 149.79 48.81C149.9 48.74 149.9 48.44 149.79 48.22C149.68 48 149.49 48 149.37 48.06Z" fill="#F98410"/>
<path d="M156.81 60C157.14 60.68 157.25 61.33 156.92 61.49C156.828 61.5133 156.732 61.5133 156.64 61.49C156.07 61.41 155.21 60.82 154.15 60.49C153.546 60.2651 152.905 60.1532 152.26 60.16C151.715 60.2105 151.185 60.3667 150.7 60.62C150.28 60.8223 149.881 61.0669 149.51 61.35C149.16 61.62 148.51 62.96 147.64 63.35C146.95 63.68 146.11 63.44 145.2 61.57C144.29 59.7 144.6 58.89 145.31 58.57C146.19 58.14 147.71 58.45 148.19 58.34C148.488 58.2609 148.779 58.1572 149.06 58.03C149.674 57.7184 150.198 57.2534 150.58 56.68C150.949 56.1805 151.283 55.6559 151.58 55.11C152.04 54.17 152.11 53.11 152.42 52.7C152.453 52.6381 152.506 52.5889 152.57 52.56C152.95 52.37 153.57 53.06 153.96 53.97C154.35 54.88 154.91 56.55 154.55 57.08C154.435 57.2255 154.288 57.342 154.12 57.42L153.65 57.63C153.426 57.7335 153.22 57.8719 153.04 58.04C152.71 58.35 152.5 58.59 152.55 58.68C152.6 58.77 152.82 58.75 153.3 58.58C154.11 58.3 154.49 58.05 155.06 58.13C155.63 58.21 156.41 59.18 156.81 60ZM153.56 55.89C153.44 55.95 153.43 56.17 153.56 56.39C153.69 56.61 153.84 56.73 153.98 56.67C154.12 56.61 154.11 56.4 153.98 56.19C153.85 55.98 153.7 55.84 153.56 55.9V55.89ZM155.92 60.43C156.02 60.64 156.2 60.77 156.32 60.71C156.44 60.65 156.47 60.43 156.32 60.21C156.17 59.99 156.04 59.87 155.92 59.93C155.8 59.99 155.81 60.22 155.92 60.44V60.43Z" fill="#F98410"/>
<path d="M156.42 70.11C156.41 70.047 156.41 69.983 156.42 69.92C156.42 69.27 157.7 68.92 157.42 68.03C157.361 67.8213 157.225 67.643 157.039 67.5315C156.853 67.4199 156.632 67.3836 156.42 67.43C155.42 67.77 156.76 72.09 153.66 73.08C151.89 73.64 149.46 72.86 148.36 69.41C147.69 67.31 147.97 65.68 150.48 64.88C151.48 64.55 152.59 64.68 152.83 65.45C153.15 66.45 151.62 67.23 152.06 68.6C152.22 69.1 152.55 69.34 152.75 69.28C153.43 69.06 153.46 65.05 155.41 64.42C156.85 63.96 158.98 65.42 159.58 67.35C159.78 67.97 159.76 68.59 159.92 69.11C159.93 69.1729 159.93 69.2371 159.92 69.3C159.92 69.77 159.3 70.3 158.54 70.49C157.78 70.68 156.62 70.75 156.42 70.11ZM159.07 68.38C158.9 68.44 158.79 68.79 158.87 69.04C158.95 69.29 159.01 69.27 159.12 69.23C159.23 69.19 159.4 68.83 159.32 68.57C159.24 68.31 159.19 68.35 159.07 68.38Z" fill="#F98410"/>
<path d="M64.05 73.62C64.93 71.95 66.75 71.1 69.49 71.05C72.85 70.97 75.07 70.57 76.15 69.83C75.4337 68.7969 74.5358 67.9024 73.5 67.19C71.7314 67.5325 69.899 67.1739 68.39 66.19C66.7033 65.1833 65.2567 64.9 64.05 65.34C64.2777 65.0166 64.5763 64.7494 64.9228 64.5588C65.2694 64.3682 65.6549 64.2591 66.05 64.24C66.849 64.2543 67.6413 64.3892 68.4 64.64C70.66 65.3067 72.2533 65.2833 73.18 64.57C74.1048 64.831 74.948 65.3231 75.63 66C76.0639 66.3742 76.5789 66.6422 77.1344 66.7828C77.6898 66.9234 78.2703 66.9327 78.83 66.81C78.83 66.81 78.71 67.47 78.54 68.81C78.44 69.61 78.02 69.96 77.29 69.81C77.93 70.06 78.29 70.73 78.5 71.81C78.5 72.03 78.55 72.52 78.65 73.28C78.6523 73.7622 78.7128 74.2423 78.83 74.71C76.4547 74.1785 74.0233 73.9401 71.59 74C69.0711 74.035 66.5526 73.9081 64.05 73.62ZM75.78 78.18C75.14 79.01 73.66 79.68 71.33 80.18C69 80.68 67.39 81.28 66.7 81.94C66.6353 81.5916 66.6737 81.232 66.8105 80.9051C66.9473 80.5783 67.1765 80.2985 67.47 80.1C68.1549 79.6374 68.898 79.2675 69.68 79C70.5284 78.6844 71.3508 78.3033 72.14 77.86C72.4923 77.6479 72.7957 77.3636 73.0301 77.0258C73.2645 76.6879 73.4247 76.3042 73.5 75.9C76.5 75.97 78.39 75.72 79.2 75.13C79.721 75.5588 80.0749 76.1569 80.2 76.82C80.2182 77.0528 80.1718 77.2862 80.0659 77.4944C79.96 77.7025 79.7988 77.8775 79.6 78C78.72 78.77 77.45 78.82 75.78 78.18ZM70.12 61.89C69.7616 61.0673 69.4674 60.2181 69.24 59.35C69.1599 58.9371 68.9938 58.5457 68.7526 58.2011C68.5115 57.8566 68.2005 57.5666 67.84 57.35C68.0189 57.2063 68.2251 57.1005 68.4462 57.0391C68.6673 56.9777 68.8986 56.9619 69.1259 56.9928C69.3533 57.0237 69.572 57.1006 69.7687 57.2187C69.9654 57.3368 70.1359 57.4938 70.27 57.68C70.41 57.83 70.71 58.19 71.15 58.75C71.3861 59.0823 71.6691 59.3787 71.99 59.63C72.8162 59.3099 73.7022 59.1735 74.5864 59.2305C75.4706 59.2875 76.3318 59.5364 77.11 59.96C78.4791 60.8035 79.9468 61.4752 81.48 61.96C81.2724 62.7145 80.8963 63.412 80.38 64C79.8481 64.5745 79.4457 65.2566 79.2 66C78.0125 65.8372 76.9358 65.2163 76.2 64.27C75.5085 63.3888 74.7351 62.5752 73.89 61.84C72 62.21 70.73 62.21 70.12 61.89ZM83.72 81.56C82.99 81.76 81.87 82.66 80.38 84.25C79.8103 84.878 79.085 85.3445 78.2774 85.6026C77.4697 85.8607 76.6083 85.9012 75.78 85.72C75.24 85.8733 74.75 86.54 74.31 87.72C73.92 88.72 73.31 89.26 72.4 89.19C72.9867 89.2433 73.23 87.4767 73.13 83.89C73.9474 83.9471 74.7657 83.7932 75.5064 83.443C76.2472 83.0927 76.8855 82.558 77.36 81.89L78.58 79.98C78.9515 79.3434 79.4091 78.7613 79.94 78.25C81.46 78.43 82.72 79.55 83.72 81.56ZM79.57 52.81C79.47 52.3 78.88 51.62 77.8 50.81C77.3713 50.4748 77.0566 50.0153 76.8991 49.4944C76.7416 48.9735 76.7489 48.4166 76.92 47.9C77 48 78.25 48.72 80.67 50.07C82.2233 50.9167 82.6167 52.2267 81.85 54C82.245 54.9894 82.9457 55.8267 83.85 56.39C84.731 57.0062 85.3791 57.9008 85.69 58.93C85.3499 59.6425 84.7427 60.1922 84 60.46C83.2765 60.7562 82.6522 61.2522 82.2 61.89C81.6029 60.927 81.0717 59.9247 80.61 58.89C80.1665 57.889 79.558 56.9695 78.81 56.17C78.8928 55.6178 79.0301 55.0751 79.22 54.55C79.424 53.991 79.542 53.4044 79.57 52.81ZM84.13 81.56C84.6614 81.4982 85.1973 81.6295 85.64 81.93C86.0682 82.2555 86.6058 82.4024 87.14 82.34C86.78 82.85 86.42 84.41 86.08 87.01C85.83 88.92 84.92 90.01 83.36 90.28C82.87 92.41 82.62 93.49 82.62 93.52C82.4611 94.0027 82.1565 94.4243 81.7483 94.7269C81.34 95.0296 80.848 95.1983 80.34 95.21C80.56 94.52 80.98 93.4 81.59 91.86C82.2 90.32 82.53 89.37 82.8 88.59C83.6 86.3284 84.0485 83.9575 84.13 81.56ZM87.51 68.33C87.1568 68.4909 86.8216 68.6887 86.51 68.92C86.05 69.23 85.71 69.44 85.51 69.54C85.1551 69.7228 84.7472 69.7749 84.3578 69.6871C83.9683 69.5994 83.6222 69.3774 83.38 69.06C83.331 69.186 83.334 69.3263 83.3884 69.45C83.4428 69.5738 83.5441 69.6709 83.67 69.72C83.96 69.9 84.12 70.05 84.15 70.2C85.62 70.28 86.5 70.03 86.8 69.47C86.9019 69.6322 86.9359 69.828 86.8947 70.015C86.8536 70.2021 86.7405 70.3655 86.58 70.47C86.1515 70.7459 85.6494 70.8853 85.14 70.87C83.55 70.97 82.58 70.61 82.24 69.8C82.3198 69.2636 82.57 68.767 82.9535 68.3834C83.337 67.9999 83.8336 67.7498 84.37 67.67C84.9049 67.4918 85.4776 67.459 86.0293 67.5749C86.5811 67.6909 87.0921 67.9515 87.51 68.33ZM89.02 69.06C88.7409 68.498 88.3309 68.0112 87.8245 67.6405C87.3181 67.2698 86.7301 67.0262 86.11 66.93C84.5 66.46 83.32 66.81 82.58 67.93C82.5236 67.5898 82.58 67.2404 82.7407 66.9353C82.9014 66.6301 83.1575 66.386 83.47 66.24C84.1746 65.855 84.9859 65.711 85.78 65.83C86.6409 65.894 87.4629 66.2144 88.14 66.75C88.4662 67.0315 88.716 67.3909 88.8663 67.7947C89.0167 68.1985 89.0626 68.6337 89 69.06H89.02ZM89.02 57.74C89.12 58.3 88.82 58.63 88.14 58.74C87.46 58.85 86.87 59.03 86.78 59.25C84.26 55.5767 83.12 50.7833 83.36 44.87C84.3783 47.0019 85.2861 49.1848 86.08 51.41C86.8224 53.619 87.8014 55.7414 89 57.74H89.02ZM93.58 72.85C93.06 73.49 91.85 73.85 89.94 73.85C89.3345 73.8234 88.7283 73.884 88.14 74.03C87.882 74.105 87.6509 74.2521 87.4737 74.4541C87.2965 74.6561 87.1808 74.9044 87.14 75.17C86.75 74.95 86.68 74.53 86.92 73.92C87.34 72.92 87.54 72.42 87.51 72.52C87.7808 72.709 88.0943 72.8281 88.4223 72.8665C88.7504 72.9049 89.0828 72.8614 89.39 72.74C90.1335 72.4933 90.9233 72.418 91.7 72.52C91.0821 71.4993 90.7195 70.3446 90.6429 69.1538C90.5663 67.9631 90.778 66.7715 91.26 65.68C91.4314 65.2233 91.6986 64.8085 92.0436 64.4636C92.3885 64.1186 92.8033 63.8514 93.26 63.68C93.8245 63.5362 94.4127 63.5108 94.9876 63.6054C95.5624 63.7001 96.1114 63.9127 96.6 64.23C96.144 64.344 95.6789 64.4176 95.21 64.45C94.6874 64.5163 94.1696 64.6166 93.66 64.75C93.1407 64.8401 92.6649 65.0966 92.3041 65.4808C91.9434 65.865 91.7173 66.3561 91.66 66.88C92.3088 66.227 93.1146 65.7518 94 65.5C95.55 64.96 96.67 65.14 97.39 66.05C97.0601 67.0185 96.5475 67.9146 95.88 68.69C95.1439 68.8117 94.3903 68.7742 93.67 68.58C93.4142 68.4836 93.1407 68.4435 92.868 68.4625C92.5953 68.4815 92.3299 68.5591 92.09 68.69C91.87 69.58 92.09 70.18 92.75 70.5L94.37 71.34C94.5291 72.2879 94.5894 73.2497 94.55 74.21C94.5115 75.1434 94.5684 76.0782 94.72 77C94.222 77.4865 93.6131 77.8446 92.9458 78.0432C92.2786 78.2418 91.573 78.275 90.89 78.14C89.7717 77.9452 88.6283 77.9452 87.51 78.14C87.51 77.33 88.28 76.56 89.9 75.82C91.1165 75.1427 92.5227 74.8861 93.9 75.09C94.0589 74.3289 93.9457 73.5362 93.58 72.85ZM88.65 82.7C89.41 83.1 90.8 83.1 92.81 82.7C92.751 84.6004 92.5639 86.4947 92.25 88.37C92.1405 89.1414 91.8636 89.8794 91.4386 90.5324C91.0137 91.1854 90.451 91.7375 89.79 92.15C89.9076 92.9375 90.0916 93.7136 90.34 94.47C90.4688 94.8351 90.5193 95.2232 90.4883 95.6091C90.4573 95.9951 90.3454 96.3701 90.16 96.71C89.4571 96.3394 88.8489 95.812 88.3824 95.1686C87.916 94.5253 87.6038 93.7833 87.47 93C87.2715 92.2228 87.3112 91.4039 87.5841 90.6496C87.8569 89.8952 88.3502 89.2404 89 88.77C88.46 86.96 88.17 85.93 88.12 85.68C87.9958 85.1738 87.9788 84.6472 88.0701 84.134C88.1613 83.6208 88.3589 83.1324 88.65 82.7ZM89.79 77.78C90.7646 77.7951 91.7347 77.6464 92.66 77.34C93.66 76.97 93.99 76.49 93.58 75.9C93.36 76.27 92.7 76.55 91.58 76.75C90.46 76.95 90 77.29 89.79 77.78ZM90.56 58.47C90.3743 56.6848 90.5755 54.8805 91.15 53.18C91.7226 51.3198 91.6451 49.3202 90.93 47.51C91.3954 46.9462 91.9257 46.4393 92.51 46C92.8244 45.7795 93.0842 45.4901 93.2696 45.1539C93.4551 44.8177 93.5612 44.4435 93.58 44.06C94.1167 46.3852 94.3884 48.7637 94.39 51.15C94.4433 54.6833 94.5533 57.11 94.72 58.43C95.384 57.8731 96.125 57.415 96.92 57.07C97.7342 56.718 98.5114 56.2859 99.24 55.78C99.2939 54.9648 99.5305 54.1723 99.932 53.4608C100.334 52.7494 100.89 52.1374 101.56 51.67C103.18 50.34 104.05 49.07 104.17 47.84C104.426 48.1181 104.607 48.4567 104.696 48.8241C104.786 49.1914 104.78 49.5754 104.68 49.94C104.388 50.5959 103.978 51.1926 103.47 51.7C102.906 52.2999 102.425 52.9725 102.04 53.7C101.636 54.605 101.583 55.6278 101.89 56.57L99.42 58.22C98.9692 58.4837 98.5833 58.8452 98.2908 59.2779C97.9983 59.7106 97.8067 60.2034 97.73 60.72C95.6425 59.2217 93.1292 58.433 90.56 58.47ZM92.81 66.82C92.58 67.55 92.81 67.95 93.54 68C93.71 68 94.04 68 94.54 67.92C94.8453 67.8787 95.1547 67.8787 95.46 67.92C95.5397 67.7137 95.6402 67.516 95.76 67.33C95.8817 67.161 95.9793 66.9759 96.05 66.78C96.22 66.39 96.05 66.13 95.46 66.01C95.61 67.01 95.32 67.5 94.58 67.48C93.9307 67.475 93.304 67.2413 92.81 66.82ZM93.21 82.7C94.71 81.58 95.88 81.17 96.74 81.49C97.5972 81.9987 98.2296 82.8135 98.51 83.77C98.51 83.89 98.76 84.46 99.13 85.46C99.3391 86.052 99.5863 86.6299 99.87 87.19C100.082 87.7288 100.407 88.2152 100.825 88.6158C101.243 89.0163 101.743 89.3214 102.29 89.51C102.272 90.377 102.1 91.2339 101.78 92.04C101.466 92.938 101.376 93.8994 101.52 94.84C100.12 94.6733 99.4967 93.2767 99.65 90.65C99.0881 90.0191 98.3605 89.5584 97.55 89.32C96.7502 89.0634 96.028 88.6094 95.45 88C95.424 86.9686 95.1459 85.9592 94.64 85.06C94.5 84.84 94.25 84.44 93.91 83.88C93.6553 83.4998 93.4216 83.1058 93.21 82.7ZM105.31 81.56C105.31 82.96 106.13 84.2367 107.77 85.39C109.41 86.5433 110.233 87.7933 110.24 89.14C103.413 84.26 99.2433 81.49 97.73 80.83C97.8618 80.5185 98.0574 80.2381 98.3043 80.0069C98.5511 79.7757 98.8437 79.5988 99.1631 79.4876C99.4825 79.3764 99.8217 79.3335 100.159 79.3614C100.496 79.3894 100.823 79.4877 101.12 79.65C101.24 79.65 101.91 80.06 103.12 80.72C103.81 81.0955 104.546 81.3779 105.31 81.56ZM98.51 61.56C98.85 60.68 100.087 59.5767 102.22 58.25C103.004 57.8391 103.667 57.2311 104.144 56.4858C104.621 55.7405 104.895 54.8837 104.94 54C105.23 53.73 106.13 53.62 107.62 53.67C108.953 53.67 109.703 53.4 109.87 52.86C110.01 52.86 110.11 52.95 110.16 53.12C110.151 53.2031 110.151 53.2869 110.16 53.37C110.14 53.442 110.14 53.518 110.16 53.59C109.933 54.9233 108.793 55.6833 106.74 55.87C106.843 56.7865 106.733 57.7143 106.419 58.5815C106.105 59.4486 105.596 60.2317 104.93 60.87C103.731 61.9636 102.682 63.2111 101.81 64.58C101.429 64.4812 101.073 64.3015 100.768 64.053C100.463 63.8045 100.214 63.4931 100.04 63.14C99.7142 62.4518 99.1785 61.8846 98.51 61.52V61.56ZM117.44 73.29C116.83 73.37 114.66 73.29 110.93 73.22C108.645 73.0047 106.34 73.2809 104.17 74.03C105.099 75.1782 106.186 76.1884 107.4 77.03C108.832 77.8284 110.494 78.1141 112.11 77.84C112.684 78.4391 113.145 79.137 113.47 79.9C113.623 80.285 113.851 80.6356 114.141 80.931C114.431 81.2265 114.778 81.4607 115.16 81.62C114.65 81.82 113.58 81.62 111.96 80.93C111.391 80.6374 110.75 80.513 110.112 80.5714C109.474 80.6299 108.867 80.8687 108.36 81.26C106.3 79.86 105.23 79.15 105.16 79.12C103.662 78.4422 101.987 78.2634 100.38 78.61C100.608 78.1848 100.805 77.7437 100.97 77.29C101.123 76.8348 101.307 76.3904 101.52 75.96C101.702 75.5069 102.018 75.1199 102.425 74.8503C102.832 74.5806 103.312 74.441 103.8 74.45C103.513 74.4047 103.249 74.2651 103.05 74.0533C102.851 73.8415 102.728 73.5694 102.7 73.28C102.605 72.533 102.605 71.777 102.7 71.03C104.435 71.06 106.17 70.9261 107.88 70.63C108.665 70.4721 109.477 70.5322 110.23 70.8037C110.983 71.0752 111.647 71.5477 112.15 72.17C113.125 71.7566 114.205 71.6553 115.24 71.88C115.693 71.9018 116.133 72.0391 116.518 72.2789C116.903 72.5187 117.221 72.853 117.44 73.25V73.29ZM101.89 64.95C103.509 65.0246 105.131 64.8766 106.71 64.51C107.469 64.303 108.27 64.3062 109.028 64.5193C109.785 64.7324 110.47 65.1475 111.01 65.72L113.47 64.54C113.897 64.2814 114.386 64.1447 114.885 64.1447C115.384 64.1447 115.873 64.2814 116.3 64.54C115.431 64.8673 114.686 65.4582 114.17 66.23C113.662 66.9649 113.108 67.6663 112.51 68.33C111.698 67.9196 110.804 67.6991 109.894 67.6852C108.985 67.6714 108.084 67.8645 107.26 68.25C105.03 69.18 103.49 69.59 102.66 69.47C102.719 68.5705 102.543 67.6711 102.15 66.86C101.78 65.93 101.69 65.28 101.89 64.91V64.95Z" fill="#F98410"/>
<path d="M48.19 129.3L47.63 128.75L50.24 126.14L50.79 126.69L49.79 127.69L52.41 130.31L51.75 130.97L49.13 128.35L48.19 129.3Z" fill="#F98410"/>
<path d="M52.63 123.75L53.3 123.08L55.37 125.14C55.5879 125.346 55.7402 125.611 55.8078 125.903C55.8754 126.194 55.8553 126.5 55.75 126.78C55.6284 127.093 55.4429 127.378 55.2053 127.615C54.9677 127.853 54.6832 128.038 54.37 128.16C54.0945 128.261 53.7953 128.278 53.51 128.21C53.213 128.142 52.9421 127.989 52.73 127.77L50.67 125.71L51.34 125.04L53.34 127.04C53.4493 127.155 53.5875 127.237 53.74 127.28C53.8873 127.32 54.0427 127.32 54.19 127.28C54.3495 127.23 54.4939 127.14 54.61 127.02C54.7304 126.904 54.8198 126.76 54.87 126.6C54.9099 126.453 54.9099 126.297 54.87 126.15C54.8253 125.998 54.7427 125.861 54.63 125.75L52.63 123.75Z" fill="#F98410"/>
<path d="M57 125.7L53.83 122.53L55.08 121.27C55.2849 121.053 55.5386 120.889 55.82 120.79C56.0637 120.711 56.3263 120.711 56.57 120.79C56.8306 120.86 57.0662 121.002 57.25 121.2C57.4461 121.385 57.5878 121.62 57.66 121.88C57.7341 122.121 57.7341 122.379 57.66 122.62C57.5526 122.905 57.3816 123.161 57.16 123.37L56.32 124.21L55.78 123.67L56.51 122.94C56.6231 122.835 56.7148 122.71 56.78 122.57C56.8189 122.457 56.8189 122.333 56.78 122.22C56.7441 122.094 56.6751 121.98 56.58 121.89C56.4902 121.795 56.3761 121.725 56.25 121.69C56.1366 121.651 56.0134 121.651 55.9 121.69C55.7548 121.746 55.6247 121.835 55.52 121.95L55.07 122.4L57.7 125L57 125.7ZM57.27 122.54L59.5 123.2L58.76 123.94L56.55 123.26L57.27 122.54Z" fill="#F98410"/>
<path d="M59.37 117L62.55 120.17L61.97 120.75L58.59 120.13L60.59 122.13L59.91 122.81L56.74 119.63L57.33 119.04L60.69 119.67L58.69 117.67L59.37 117Z" fill="#F98410"/>
<path d="M65.45 114.11C65.7606 114.41 65.994 114.78 66.13 115.19C66.2347 115.546 66.2347 115.924 66.13 116.28C66.0412 116.659 65.8471 117.006 65.57 117.28C65.2938 117.556 64.9484 117.753 64.57 117.85C64.2137 117.951 63.8363 117.951 63.48 117.85C63.0681 117.714 62.6968 117.477 62.4 117.16C62.0886 116.863 61.8521 116.496 61.71 116.09C61.6053 115.734 61.6053 115.356 61.71 115C61.8027 114.62 62.0001 114.273 62.28 114C62.5547 113.722 62.9007 113.525 63.28 113.43C63.6323 113.325 64.0077 113.325 64.36 113.43C64.7733 113.565 65.1474 113.798 65.45 114.11ZM64.76 114.79C64.5729 114.592 64.3487 114.432 64.1 114.32C63.9017 114.238 63.6836 114.218 63.4734 114.26C63.2633 114.303 63.0706 114.407 62.92 114.56C62.7655 114.704 62.6605 114.893 62.62 115.1C62.5758 115.315 62.5967 115.537 62.68 115.74C62.919 116.236 63.3216 116.635 63.82 116.87C64.0183 116.956 64.2377 116.98 64.45 116.94C64.6544 116.887 64.8408 116.78 64.9902 116.63C65.1396 116.481 65.2465 116.294 65.3 116.09C65.3402 115.878 65.3158 115.658 65.23 115.46C65.1197 115.207 64.9599 114.98 64.76 114.79Z" fill="#F98410"/>
<path d="M67 109.37L70.17 112.55L69.59 113.13L66.21 112.51L68.21 114.51L67.54 115.18L64.35 112L64.94 111.41L68.31 112.03L66.31 110.03L67 109.37Z" fill="#F98410"/>
<path d="M79 128.11L78.44 127.56L81 125L81.55 125.55L80.55 126.55L83.17 129.17L82.51 129.83L79.89 127.21L79 128.11Z" fill="#F98410"/>
<path d="M83.4 122.56L84.07 121.89L86.13 124C86.3485 124.208 86.5015 124.476 86.57 124.77C86.6542 125.054 86.6542 125.356 86.57 125.64C86.4406 125.954 86.2463 126.238 85.9999 126.472C85.7535 126.707 85.4605 126.886 85.14 127C84.8561 127.084 84.5539 127.084 84.27 127C83.976 126.931 83.7083 126.779 83.5 126.56L81.44 124.5L82.11 123.83L84.11 125.83C84.2254 125.942 84.366 126.024 84.52 126.07C84.6632 126.115 84.8168 126.115 84.96 126.07C85.1226 126.027 85.2688 125.936 85.38 125.81C85.5004 125.694 85.5898 125.55 85.64 125.39C85.6848 125.243 85.6848 125.087 85.64 124.94C85.5951 124.786 85.5086 124.648 85.39 124.54L83.4 122.56Z" fill="#F98410"/>
<path d="M87.28 118.68L90.45 121.86L89.87 122.44L86.49 121.82L88.49 123.82L87.82 124.49L84.64 121.32L85.23 120.73L88.6 121.35L86.6 119.35L87.28 118.68Z" fill="#F98410"/>
<path d="M91 121.3L87.82 118.13L90 116L90.55 116.55L89.06 118L89.81 118.76L91.17 117.4L91.72 117.95L90.37 119.31L91.12 120.07L92.6 118.59L93.15 119.15L91 121.3Z" fill="#F98410"/>
<path d="M92.19 113.77L95.36 117L94.69 117.67L91.52 114.49L92.19 113.77Z" fill="#F98410"/>
<path d="M95.4 110.56L98.57 113.74L97.99 114.32L94.61 113.7L96.61 115.7L95.94 116.37L92.76 113.2L93.35 112.61L96.72 113.24L94.72 111.24L95.4 110.56Z" fill="#F98410"/>
<path d="M107.07 129.58L106.51 129.02L109.12 126.42L109.67 126.97L108.67 127.97L111.29 130.59L110.63 131.25L108 128.6L107.07 129.58Z" fill="#F98410"/>
<path d="M112.73 129.16L109.55 126L110.8 124.75C111.007 124.531 111.264 124.366 111.55 124.27C111.794 124.19 112.056 124.19 112.3 124.27C112.56 124.342 112.795 124.484 112.98 124.68C113.173 124.868 113.314 125.102 113.39 125.36C113.464 125.601 113.464 125.859 113.39 126.1C113.28 126.383 113.109 126.639 112.89 126.85L112.05 127.69L111.51 127.15L112.24 126.42C112.354 126.318 112.443 126.192 112.5 126.05C112.539 125.937 112.539 125.813 112.5 125.7C112.461 125.575 112.392 125.462 112.3 125.37C112.208 125.278 112.095 125.209 111.97 125.17C111.852 125.136 111.728 125.136 111.61 125.17C111.467 125.235 111.338 125.326 111.23 125.44L110.78 125.89L113.41 128.52L112.73 129.16ZM113 126L115.23 126.66L114.49 127.4L112.27 126.72L113 126Z" fill="#F98410"/>
<path d="M113.09 122.45L116.26 125.62L115.59 126.29L112.42 123.12L113.09 122.45Z" fill="#F98410"/>
<path d="M116.81 125.07L113.64 121.9L114.89 120.64C115.097 120.418 115.359 120.256 115.65 120.17C115.898 120.095 116.162 120.095 116.41 120.17C116.676 120.247 116.917 120.392 117.11 120.59C117.31 120.782 117.455 121.023 117.53 121.29C117.605 121.541 117.605 121.809 117.53 122.06C117.432 122.35 117.263 122.611 117.04 122.82L116.24 123.61L115.71 123.08L116.39 122.39C116.506 122.282 116.595 122.149 116.65 122C116.69 121.876 116.69 121.744 116.65 121.62C116.605 121.491 116.529 121.374 116.43 121.28C116.336 121.183 116.219 121.111 116.09 121.07C115.97 121.03 115.84 121.03 115.72 121.07C115.573 121.128 115.44 121.217 115.33 121.33L114.88 121.78L117.51 124.41L116.81 125.07Z" fill="#F98410"/>
<path d="M122 116.73C122.321 117.023 122.559 117.396 122.69 117.81C122.795 118.166 122.795 118.544 122.69 118.9C122.594 119.259 122.4 119.585 122.13 119.84C121.873 120.116 121.544 120.313 121.18 120.41C120.824 120.515 120.446 120.515 120.09 120.41C119.679 120.272 119.308 120.035 119.01 119.72C118.697 119.421 118.46 119.05 118.32 118.64C118.215 118.284 118.215 117.906 118.32 117.55C118.416 117.171 118.613 116.825 118.89 116.55C119.151 116.282 119.479 116.089 119.84 115.99C120.192 115.885 120.568 115.885 120.92 115.99C121.34 116.135 121.713 116.391 122 116.73ZM121.32 117.41C121.136 117.208 120.911 117.048 120.66 116.94C120.458 116.855 120.236 116.83 120.02 116.87C119.812 116.913 119.622 117.022 119.48 117.18C119.329 117.328 119.221 117.515 119.17 117.72C119.134 117.932 119.159 118.151 119.24 118.35C119.475 118.852 119.878 119.255 120.38 119.49C120.579 119.571 120.798 119.596 121.01 119.56C121.215 119.509 121.402 119.401 121.55 119.25C121.708 119.108 121.817 118.918 121.86 118.71C121.9 118.498 121.876 118.278 121.79 118.08C121.679 117.823 121.511 117.594 121.3 117.41H121.32Z" fill="#F98410"/>
<path d="M122.85 112.68L123.52 112.01L125.58 114.07C125.801 114.274 125.956 114.538 126.025 114.831C126.095 115.123 126.075 115.429 125.97 115.71C125.858 116.028 125.673 116.316 125.43 116.55C125.194 116.791 124.907 116.976 124.59 117.09C124.309 117.194 124.005 117.213 123.713 117.146C123.422 117.078 123.156 116.927 122.95 116.71L120.89 114.64L121.56 113.97L123.56 115.97C123.669 116.085 123.808 116.167 123.96 116.21C124.107 116.25 124.263 116.25 124.41 116.21C124.568 116.157 124.712 116.068 124.83 115.95C124.948 115.832 125.037 115.688 125.09 115.53C125.13 115.383 125.13 115.227 125.09 115.08C125.047 114.928 124.965 114.789 124.85 114.68L122.85 112.68Z" fill="#F98410"/>
<path d="M124.51 112.14L123.95 111.58L126.56 108.97L127.12 109.53L126.12 110.53L128.74 113.15L128.08 113.81L125.46 111.19L124.51 112.14Z" fill="#F98410"/>
<path d="M147.76 132.5H146.63C146.635 131.476 146.851 130.463 147.263 129.526C147.676 128.588 148.278 127.745 149.03 127.05C149.693 126.46 150.225 125.736 150.588 124.926C150.952 124.116 151.14 123.238 151.14 122.35C151.14 121.462 150.952 120.584 150.588 119.774C150.225 118.964 149.693 118.24 149.03 117.65C148.274 116.958 147.67 116.116 147.257 115.177C146.844 114.239 146.631 113.225 146.631 112.2C146.631 111.175 146.844 110.161 147.257 109.223C147.67 108.284 148.274 107.442 149.03 106.75C149.693 106.161 150.224 105.438 150.588 104.629C150.951 103.819 151.139 102.942 151.139 102.055C151.139 101.168 150.951 100.291 150.588 99.4815C150.224 98.6722 149.693 97.9492 149.03 97.36C148.274 96.6677 147.67 95.8256 147.257 94.8873C146.844 93.9491 146.631 92.9352 146.631 91.91C146.631 90.8849 146.844 89.8709 147.257 88.9327C147.67 87.9944 148.274 87.1524 149.03 86.46C149.689 85.8659 150.216 85.1413 150.58 84.3321C150.943 83.5229 151.134 82.647 151.14 81.76H152.27C152.264 82.7843 152.048 83.7964 151.635 84.7338C151.222 85.6712 150.621 86.514 149.87 87.21C149.207 87.8001 148.675 88.524 148.312 89.3341C147.948 90.1442 147.76 91.0221 147.76 91.91C147.76 92.798 147.948 93.6758 148.312 94.4859C148.675 95.296 149.207 96.0199 149.87 96.61C150.626 97.3015 151.229 98.1427 151.642 99.0801C152.055 100.018 152.268 101.031 152.268 102.055C152.268 103.079 152.055 104.092 151.642 105.03C151.229 105.967 150.626 106.809 149.87 107.5C149.207 108.09 148.675 108.814 148.312 109.624C147.948 110.434 147.76 111.312 147.76 112.2C147.76 113.088 147.948 113.966 148.312 114.776C148.675 115.586 149.207 116.31 149.87 116.9C150.626 117.592 151.23 118.434 151.643 119.373C152.056 120.311 152.269 121.325 152.269 122.35C152.269 123.375 152.056 124.389 151.643 125.327C151.23 126.266 150.626 127.108 149.87 127.8C149.21 128.393 148.682 129.118 148.319 129.927C147.955 130.737 147.765 131.613 147.76 132.5Z" fill="#F98410"/>
<path d="M152.38 132.5H151.25C151.257 131.476 151.474 130.464 151.887 129.527C152.299 128.59 152.899 127.747 153.65 127.05C154.313 126.46 154.845 125.736 155.208 124.926C155.572 124.116 155.76 123.238 155.76 122.35C155.76 121.462 155.572 120.584 155.208 119.774C154.845 118.964 154.313 118.24 153.65 117.65C152.894 116.958 152.29 116.116 151.877 115.177C151.464 114.239 151.251 113.225 151.251 112.2C151.251 111.175 151.464 110.161 151.877 109.223C152.29 108.284 152.894 107.442 153.65 106.75C154.313 106.161 154.844 105.438 155.208 104.629C155.571 103.819 155.759 102.942 155.759 102.055C155.759 101.168 155.571 100.291 155.208 99.4815C154.844 98.6722 154.313 97.9492 153.65 97.36C152.894 96.6677 152.29 95.8256 151.877 94.8873C151.464 93.9491 151.251 92.9352 151.251 91.91C151.251 90.8849 151.464 89.8709 151.877 88.9327C152.29 87.9944 152.894 87.1524 153.65 86.46C154.31 85.8671 154.839 85.1427 155.202 84.3332C155.566 83.5238 155.756 82.6473 155.76 81.76H156.89C156.886 82.7846 156.671 83.7975 156.258 84.7352C155.845 85.673 155.243 86.5155 154.49 87.21C153.827 87.8001 153.295 88.524 152.932 89.3341C152.568 90.1442 152.38 91.0221 152.38 91.91C152.38 92.798 152.568 93.6758 152.932 94.4859C153.295 95.296 153.827 96.0199 154.49 96.61C155.246 97.3015 155.849 98.1427 156.262 99.0801C156.675 100.018 156.888 101.031 156.888 102.055C156.888 103.079 156.675 104.092 156.262 105.03C155.849 105.967 155.246 106.809 154.49 107.5C153.827 108.09 153.295 108.814 152.932 109.624C152.568 110.434 152.38 111.312 152.38 112.2C152.38 113.088 152.568 113.966 152.932 114.776C153.295 115.586 153.827 116.31 154.49 116.9C155.246 117.592 155.85 118.434 156.263 119.373C156.676 120.311 156.889 121.325 156.889 122.35C156.889 123.375 156.676 124.389 156.263 125.327C155.85 126.266 155.246 127.108 154.49 127.8C153.832 128.395 153.305 129.12 152.942 129.929C152.579 130.738 152.387 131.613 152.38 132.5Z" fill="#F98410"/>
<path d="M157 132.5H155.87C155.877 131.476 156.094 130.464 156.507 129.527C156.919 128.59 157.52 127.747 158.27 127.05C158.933 126.46 159.465 125.736 159.828 124.926C160.192 124.116 160.38 123.238 160.38 122.35C160.38 121.462 160.192 120.584 159.828 119.774C159.465 118.964 158.933 118.24 158.27 117.65C157.514 116.958 156.91 116.116 156.497 115.177C156.084 114.239 155.871 113.225 155.871 112.2C155.871 111.175 156.084 110.161 156.497 109.223C156.91 108.284 157.514 107.442 158.27 106.75C158.933 106.161 159.464 105.438 159.828 104.629C160.191 103.819 160.379 102.942 160.379 102.055C160.379 101.168 160.191 100.291 159.828 99.4815C159.464 98.6722 158.933 97.9492 158.27 97.36C157.514 96.6677 156.91 95.8256 156.497 94.8873C156.084 93.9491 155.871 92.9352 155.871 91.91C155.871 90.8849 156.084 89.8709 156.497 88.9327C156.91 87.9944 157.514 87.1524 158.27 86.46C158.93 85.8671 159.459 85.1427 159.822 84.3332C160.186 83.5238 160.376 82.6473 160.38 81.76H161.51C161.506 82.7846 161.291 83.7975 160.878 84.7352C160.465 85.673 159.863 86.5155 159.11 87.21C158.447 87.8001 157.915 88.524 157.552 89.3341C157.188 90.1442 157 91.0221 157 91.91C157 92.798 157.188 93.6758 157.552 94.4859C157.915 95.296 158.447 96.0199 159.11 96.61C159.866 97.3015 160.469 98.1427 160.882 99.0801C161.295 100.018 161.508 101.031 161.508 102.055C161.508 103.079 161.295 104.092 160.882 105.03C160.469 105.967 159.866 106.809 159.11 107.5C158.447 108.09 157.915 108.814 157.552 109.624C157.188 110.434 157 111.312 157 112.2C157 113.088 157.188 113.966 157.552 114.776C157.915 115.586 158.447 116.31 159.11 116.9C159.866 117.592 160.47 118.434 160.883 119.373C161.296 120.311 161.509 121.325 161.509 122.35C161.509 123.375 161.296 124.389 160.883 125.327C160.47 126.266 159.866 127.108 159.11 127.8C158.452 128.395 157.925 129.12 157.562 129.929C157.199 130.738 157.007 131.613 157 132.5Z" fill="#F98410"/>
<path d="M22.66 132.5H23.79C23.7827 131.476 23.566 130.464 23.1533 129.527C22.7406 128.59 22.1405 127.747 21.39 127.05C20.7265 126.46 20.1955 125.736 19.8318 124.926C19.4682 124.116 19.2802 123.238 19.2802 122.35C19.2802 121.462 19.4682 120.584 19.8318 119.774C20.1955 118.964 20.7265 118.24 21.39 117.65C22.146 116.958 22.7497 116.116 23.1627 115.177C23.5758 114.239 23.789 113.225 23.789 112.2C23.789 111.175 23.5758 110.161 23.1627 109.223C22.7497 108.284 22.146 107.442 21.39 106.75C20.7267 106.161 20.1959 105.438 19.8323 104.629C19.4687 103.819 19.2808 102.942 19.2808 102.055C19.2808 101.168 19.4687 100.291 19.8323 99.4815C20.1959 98.6722 20.7267 97.9492 21.39 97.36C22.146 96.6677 22.7497 95.8256 23.1627 94.8873C23.5758 93.9491 23.789 92.9352 23.789 91.91C23.789 90.8849 23.5758 89.8709 23.1627 88.9327C22.7497 87.9944 22.146 87.1524 21.39 86.46C20.7299 85.8671 20.2012 85.1427 19.8378 84.3332C19.4744 83.5238 19.2844 82.6473 19.28 81.76H18.15C18.1538 82.7846 18.3688 83.7975 18.7818 84.7352C19.1947 85.673 19.7967 86.5155 20.55 87.21C21.2135 87.8001 21.7445 88.524 22.1082 89.3341C22.4718 90.1442 22.6598 91.0221 22.6598 91.91C22.6598 92.798 22.4718 93.6758 22.1082 94.4859C21.7445 95.296 21.2135 96.0199 20.55 96.61C19.7942 97.3015 19.1907 98.1427 18.7778 99.0801C18.3649 100.018 18.1516 101.031 18.1516 102.055C18.1516 103.079 18.3649 104.092 18.7778 105.03C19.1907 105.967 19.7942 106.809 20.55 107.5C21.2135 108.09 21.7445 108.814 22.1082 109.624C22.4718 110.434 22.6598 111.312 22.6598 112.2C22.6598 113.088 22.4718 113.966 22.1082 114.776C21.7445 115.586 21.2135 116.31 20.55 116.9C19.794 117.592 19.1903 118.434 18.7773 119.373C18.3642 120.311 18.151 121.325 18.151 122.35C18.151 123.375 18.3642 124.389 18.7773 125.327C19.1903 126.266 19.794 127.108 20.55 127.8C21.2077 128.395 21.7348 129.12 22.098 129.929C22.4612 130.738 22.6525 131.613 22.66 132.5Z" fill="#F98410"/>
<path d="M27.28 132.5H28.41C28.4027 131.476 28.186 130.464 27.7733 129.527C27.3606 128.59 26.7605 127.747 26.01 127.05C25.3465 126.46 24.8155 125.736 24.4518 124.926C24.0882 124.116 23.9002 123.238 23.9002 122.35C23.9002 121.462 24.0882 120.584 24.4518 119.774C24.8155 118.964 25.3465 118.24 26.01 117.65C26.766 116.958 27.3697 116.116 27.7828 115.177C28.1958 114.239 28.4091 113.225 28.4091 112.2C28.4091 111.175 28.1958 110.161 27.7828 109.223C27.3697 108.284 26.766 107.442 26.01 106.75C25.3468 106.161 24.8159 105.438 24.4523 104.629C24.0887 103.819 23.9008 102.942 23.9008 102.055C23.9008 101.168 24.0887 100.291 24.4523 99.4815C24.8159 98.6722 25.3468 97.9492 26.01 97.36C26.766 96.6677 27.3697 95.8256 27.7828 94.8873C28.1958 93.9491 28.4091 92.9352 28.4091 91.91C28.4091 90.8849 28.1958 89.8709 27.7828 88.9327C27.3697 87.9944 26.766 87.1524 26.01 86.46C25.3499 85.8671 24.8212 85.1427 24.4578 84.3332C24.0944 83.5238 23.9044 82.6473 23.9 81.76H22.77C22.7738 82.7846 22.9888 83.7975 23.4018 84.7352C23.8147 85.673 24.4167 86.5155 25.17 87.21C25.8335 87.8001 26.3645 88.524 26.7282 89.3341C27.0918 90.1442 27.2798 91.0221 27.2798 91.91C27.2798 92.798 27.0918 93.6758 26.7282 94.4859C26.3645 95.296 25.8335 96.0199 25.17 96.61C24.4142 97.3015 23.8107 98.1427 23.3978 99.0801C22.9849 100.018 22.7716 101.031 22.7716 102.055C22.7716 103.079 22.9849 104.092 23.3978 105.03C23.8107 105.967 24.4142 106.809 25.17 107.5C25.8335 108.09 26.3645 108.814 26.7282 109.624C27.0918 110.434 27.2798 111.312 27.2798 112.2C27.2798 113.088 27.0918 113.966 26.7282 114.776C26.3645 115.586 25.8335 116.31 25.17 116.9C24.414 117.592 23.8103 118.434 23.3973 119.373C22.9842 120.311 22.771 121.325 22.771 122.35C22.771 123.375 22.9842 124.389 23.3973 125.327C23.8103 126.266 24.414 127.108 25.17 127.8C25.8277 128.395 26.3548 129.12 26.718 129.929C27.0812 130.738 27.2725 131.613 27.28 132.5Z" fill="#F98410"/>
<path d="M31.9 132.5H33C32.9927 131.476 32.776 130.464 32.3633 129.527C31.9505 128.59 31.3505 127.747 30.6 127.05C29.9365 126.46 29.4055 125.736 29.0418 124.926C28.6782 124.116 28.4902 123.238 28.4902 122.35C28.4902 121.462 28.6782 120.584 29.0418 119.774C29.4055 118.964 29.9365 118.24 30.6 117.65C31.356 116.958 31.9597 116.116 32.3727 115.177C32.7858 114.239 32.999 113.225 32.999 112.2C32.999 111.175 32.7858 110.161 32.3727 109.223C31.9597 108.284 31.356 107.442 30.6 106.75C29.9367 106.161 29.4059 105.438 29.0423 104.629C28.6787 103.819 28.4908 102.942 28.4908 102.055C28.4908 101.168 28.6787 100.291 29.0423 99.4815C29.4059 98.6722 29.9367 97.9492 30.6 97.36C31.356 96.6677 31.9597 95.8256 32.3727 94.8873C32.7858 93.9491 32.999 92.9352 32.999 91.91C32.999 90.8849 32.7858 89.8709 32.3727 88.9327C31.9597 87.9944 31.356 87.1524 30.6 86.46C29.9399 85.8671 29.4112 85.1427 29.0478 84.3332C28.6844 83.5238 28.4944 82.6473 28.49 81.76H27.39C27.3938 82.7846 27.6088 83.7975 28.0218 84.7352C28.4347 85.673 29.0367 86.5155 29.79 87.21C30.4535 87.8001 30.9845 88.524 31.3482 89.3341C31.7118 90.1442 31.8998 91.0221 31.8998 91.91C31.8998 92.798 31.7118 93.6758 31.3482 94.4859C30.9845 95.296 30.4535 96.0199 29.79 96.61C29.0342 97.3015 28.4307 98.1427 28.0178 99.0801C27.6048 100.018 27.3916 101.031 27.3916 102.055C27.3916 103.079 27.6048 104.092 28.0178 105.03C28.4307 105.967 29.0342 106.809 29.79 107.5C30.4535 108.09 30.9845 108.814 31.3482 109.624C31.7118 110.434 31.8998 111.312 31.8998 112.2C31.8998 113.088 31.7118 113.966 31.3482 114.776C30.9845 115.586 30.4535 116.31 29.79 116.9C29.034 117.592 28.4303 118.434 28.0173 119.373C27.6042 120.311 27.391 121.325 27.391 122.35C27.391 123.375 27.6042 124.389 28.0173 125.327C28.4303 126.266 29.034 127.108 29.79 127.8C30.4477 128.395 30.9748 129.12 31.338 129.929C31.7012 130.738 31.8925 131.613 31.9 132.5Z" fill="#F98410"/>
<path d="M75.7 160.75C74.5145 160.751 73.3507 160.433 72.33 159.83C71.8401 159.554 71.3866 159.218 70.98 158.83C70.5925 158.423 70.2566 157.969 69.98 157.48C69.684 156.984 69.4585 156.449 69.31 155.89C69.1492 155.314 69.0684 154.718 69.07 154.12C69.067 153.522 69.1478 152.926 69.31 152.35C69.4585 151.791 69.684 151.256 69.98 150.76C70.2541 150.269 70.5902 149.815 70.98 149.41C71.3841 149.005 71.8377 148.652 72.33 148.36C73.1001 147.914 73.9504 147.625 74.8323 147.508C75.7143 147.392 76.6106 147.45 77.47 147.68C78.0274 147.836 78.562 148.065 79.06 148.36C80.0476 148.947 80.8726 149.772 81.46 150.76C81.7518 151.258 81.9771 151.793 82.13 152.35C82.2922 152.926 82.373 153.522 82.37 154.12C82.3716 154.718 82.2908 155.314 82.13 155.89C81.9771 156.447 81.7518 156.982 81.46 157.48C81.1862 157.971 80.8501 158.425 80.46 158.83C79.6412 159.643 78.6297 160.235 77.52 160.55C76.9258 160.702 76.313 160.769 75.7 160.75ZM79.48 155.12H79.39C79.2894 155.119 79.1913 155.151 79.11 155.21C79.0258 155.269 78.9683 155.359 78.95 155.46C78.8561 155.816 78.7041 156.154 78.5 156.46C78.3025 156.762 78.0558 157.029 77.77 157.25C77.4708 157.482 77.132 157.658 76.77 157.77C76.0529 158.01 75.2771 158.01 74.56 157.77C74.1978 157.654 73.8592 157.475 73.56 157.24C73.2716 157.018 73.0245 156.747 72.83 156.44C72.6285 156.132 72.4767 155.795 72.38 155.44C72.3727 155.391 72.3557 155.343 72.3299 155.3C72.3042 155.257 72.2702 155.22 72.23 155.19C72.153 155.122 72.0527 155.086 71.95 155.09H71.85C71.752 155.11 71.6639 155.163 71.6 155.24C71.5395 155.321 71.5078 155.419 71.51 155.52C71.5053 155.536 71.5053 155.554 71.51 155.57C71.6182 156.038 71.8041 156.484 72.06 156.89C72.3157 157.27 72.6295 157.607 72.99 157.89C73.7347 158.482 74.6587 158.803 75.61 158.8C76.0871 158.802 76.561 158.721 77.01 158.56C77.4497 158.415 77.8596 158.191 78.22 157.9C78.5837 157.621 78.8981 157.283 79.15 156.9C79.4136 156.5 79.6032 156.057 79.71 155.59C79.7132 155.55 79.7132 155.51 79.71 155.47C79.7118 155.374 79.6759 155.28 79.61 155.21C79.5719 155.173 79.528 155.143 79.48 155.12ZM72.56 151.39C72.451 151.388 72.3429 151.409 72.2428 151.452C72.1427 151.495 72.0531 151.559 71.98 151.64C71.8922 151.731 71.8245 151.839 71.7815 151.958C71.7384 152.077 71.7209 152.204 71.73 152.33V152.61C71.7195 152.693 71.7195 152.777 71.73 152.86C71.7362 152.943 71.7716 153.021 71.83 153.08C71.83 153.08 71.83 153.03 71.92 153.01L72.1 152.95H72.31H72.75H72.96L73.14 153.01C73.1798 153.022 73.2148 153.047 73.24 153.08C73.2807 153.024 73.308 152.959 73.32 152.89C73.3254 152.813 73.3254 152.737 73.32 152.66V152.33C73.3286 152.205 73.3118 152.079 73.2706 151.96C73.2293 151.842 73.1645 151.733 73.08 151.64C73.0152 151.565 72.9356 151.504 72.8461 151.461C72.7566 151.418 72.6592 151.394 72.56 151.39ZM78.84 151.39C78.7296 151.388 78.6199 151.409 78.5181 151.452C78.4164 151.495 78.325 151.559 78.25 151.64C78.1655 151.733 78.1007 151.842 78.0594 151.96C78.0182 152.079 78.0014 152.205 78.01 152.33V152.6C78.0044 152.687 78.0044 152.773 78.01 152.86C78.0181 152.939 78.0456 153.014 78.09 153.08C78.1152 153.047 78.1502 153.022 78.19 153.01L78.38 152.95H78.6H79.04H79.25L79.42 153.01C79.4598 153.022 79.4948 153.047 79.52 153.08C79.5646 153.026 79.5924 152.96 79.6 152.89C79.6104 152.817 79.6104 152.743 79.6 152.67V152.33C79.6127 152.079 79.5306 151.833 79.37 151.64C79.303 151.565 79.2215 151.504 79.1304 151.461C79.0394 151.418 78.9406 151.394 78.84 151.39Z" fill="#F98410"/>
<path d="M89 160.75C88.3984 160.752 87.7995 160.671 87.22 160.51C86.6617 160.356 86.1268 160.127 85.63 159.83C85.1401 159.554 84.6866 159.218 84.28 158.83C83.8925 158.423 83.5566 157.969 83.28 157.48C82.984 156.984 82.7585 156.449 82.61 155.89C82.4492 155.314 82.3684 154.718 82.37 154.12C82.367 153.522 82.4478 152.926 82.61 152.35C82.7585 151.791 82.984 151.256 83.28 150.76C83.5541 150.269 83.8902 149.815 84.28 149.41C85.0946 148.59 86.1073 147.994 87.22 147.68C88.3837 147.375 89.6063 147.375 90.77 147.68C91.3274 147.836 91.862 148.065 92.36 148.36C92.8558 148.647 93.3101 149 93.71 149.41C94.5318 150.222 95.1251 151.236 95.43 152.35C95.5922 152.926 95.673 153.522 95.67 154.12C95.6716 154.718 95.5908 155.314 95.43 155.89C95.2771 156.447 95.0518 156.982 94.76 157.48C94.483 157.969 94.1472 158.422 93.76 158.83C92.9412 159.643 91.9297 160.235 90.82 160.55C90.2258 160.702 89.6131 160.769 89 160.75ZM92.78 155.12H92.69C92.5894 155.119 92.4913 155.151 92.41 155.21C92.3258 155.269 92.2683 155.359 92.25 155.46C92.1519 155.814 92.0002 156.152 91.8 156.46C91.6025 156.762 91.3558 157.029 91.07 157.25C90.7708 157.482 90.432 157.658 90.07 157.77C89.7124 157.89 89.3374 157.951 88.96 157.95C88.5859 157.951 88.2142 157.89 87.86 157.77C87.4978 157.654 87.1592 157.475 86.86 157.24C86.5716 157.018 86.3245 156.747 86.13 156.44C85.9246 156.134 85.7725 155.796 85.68 155.44C85.6727 155.391 85.6557 155.343 85.6299 155.3C85.6042 155.257 85.5702 155.22 85.53 155.19C85.453 155.122 85.3527 155.086 85.25 155.09H85.15C85.0511 155.108 84.9621 155.161 84.9 155.24C84.8395 155.321 84.8078 155.419 84.81 155.52C84.8053 155.536 84.8053 155.554 84.81 155.57C84.9182 156.038 85.1041 156.484 85.36 156.89C85.6157 157.27 85.9295 157.607 86.29 157.89C87.0347 158.482 87.9587 158.803 88.91 158.8C89.3871 158.802 89.8609 158.721 90.31 158.56C90.7497 158.415 91.1596 158.191 91.52 157.9C91.8837 157.621 92.1981 157.283 92.45 156.9C92.7135 156.5 92.9032 156.057 93.01 155.59C93.0132 155.55 93.0132 155.51 93.01 155.47C93.0118 155.374 92.9759 155.28 92.91 155.21C92.8841 155.176 92.8539 155.146 92.82 155.12H92.78ZM85.86 151.39C85.751 151.388 85.6429 151.409 85.5428 151.452C85.4427 151.495 85.3531 151.559 85.28 151.64C85.1922 151.731 85.1245 151.839 85.0815 151.958C85.0384 152.077 85.0209 152.204 85.03 152.33V152.61C85.0248 152.693 85.0248 152.777 85.03 152.86C85.0439 152.943 85.0822 153.019 85.14 153.08C85.14 153.08 85.14 153.03 85.23 153.01L85.4 152.95H85.62H86.06H86.27L86.45 153.01C86.4898 153.022 86.5248 153.047 86.55 153.08C86.5907 153.024 86.618 152.959 86.63 152.89C86.6354 152.813 86.6354 152.737 86.63 152.66V152.33C86.6386 152.205 86.6218 152.079 86.5806 151.96C86.5393 151.842 86.4745 151.733 86.39 151.64C86.2662 151.495 86.09 151.405 85.9 151.39H85.86ZM92.14 151.39C92.0296 151.388 91.9199 151.409 91.8181 151.452C91.7164 151.495 91.625 151.559 91.55 151.64C91.4655 151.733 91.4007 151.842 91.3594 151.96C91.3182 152.079 91.3013 152.205 91.31 152.33V152.6C91.3044 152.687 91.3044 152.773 91.31 152.86C91.3181 152.939 91.3456 153.014 91.39 153.08C91.4152 153.047 91.4502 153.022 91.49 153.01L91.68 152.95H91.9H92.34H92.55L92.72 153.01C92.7598 153.022 92.7948 153.047 92.82 153.08C92.8646 153.026 92.8924 152.96 92.9 152.89C92.9054 152.817 92.9054 152.743 92.9 152.67V152.33C92.9127 152.079 92.8306 151.833 92.67 151.64C92.5442 151.498 92.3691 151.408 92.18 151.39H92.14Z" fill="#F98410"/>
<path d="M102.38 160.75C101.778 160.752 101.179 160.671 100.6 160.51C100.041 160.358 99.5059 160.129 99.01 159.83C98.5201 159.554 98.0666 159.218 97.66 158.83C97.2725 158.423 96.9366 157.969 96.66 157.48C96.3649 156.982 96.1363 156.447 95.98 155.89C95.8274 155.312 95.7501 154.717 95.75 154.12C95.7487 153.522 95.826 152.927 95.98 152.35C96.1363 151.793 96.3649 151.258 96.66 150.76C96.9341 150.269 97.2702 149.815 97.66 149.41C98.0586 148.991 98.5089 148.625 99 148.32C99.498 148.025 100.033 147.796 100.59 147.64C101.754 147.335 102.976 147.335 104.14 147.64C104.697 147.796 105.232 148.025 105.73 148.32C107.228 149.211 108.327 150.643 108.8 152.32C108.962 152.896 109.043 153.492 109.04 154.09C109.042 154.688 108.961 155.284 108.8 155.86C108.648 156.419 108.419 156.954 108.12 157.45C107.847 157.941 107.511 158.395 107.12 158.8C106.301 159.613 105.29 160.205 104.18 160.52C103.594 160.68 102.988 160.758 102.38 160.75ZM106.16 155.12H106.07C105.969 155.119 105.871 155.151 105.79 155.21C105.706 155.269 105.648 155.359 105.63 155.46C105.532 155.814 105.38 156.152 105.18 156.46C104.98 156.76 104.733 157.027 104.45 157.25C104.151 157.483 103.812 157.66 103.45 157.77C103.096 157.891 102.724 157.952 102.35 157.95C101.976 157.951 101.604 157.89 101.25 157.77C100.888 157.654 100.549 157.475 100.25 157.24C99.9611 157.016 99.7111 156.745 99.51 156.44C99.3116 156.132 99.1631 155.794 99.07 155.44C99.0627 155.391 99.0457 155.343 99.0199 155.3C98.9942 155.257 98.9602 155.22 98.92 155.19C98.843 155.122 98.7427 155.086 98.64 155.09H98.54C98.4411 155.108 98.3521 155.161 98.29 155.24C98.2295 155.321 98.1978 155.419 98.2 155.52C98.1953 155.536 98.1953 155.554 98.2 155.57C98.3082 156.038 98.4941 156.484 98.75 156.89C99.0057 157.27 99.3195 157.607 99.68 157.89C100.042 158.181 100.451 158.407 100.89 158.56C101.343 158.72 101.82 158.802 102.3 158.8C102.777 158.802 103.251 158.721 103.7 158.56C104.163 158.452 104.603 158.262 105 158C105.364 157.721 105.678 157.383 105.93 157C106.194 156.6 106.383 156.157 106.49 155.69C106.493 155.65 106.493 155.61 106.49 155.57C106.487 155.474 106.452 155.383 106.39 155.31C106.335 155.224 106.255 155.157 106.16 155.12ZM99.24 151.39C99.1311 151.388 99.0229 151.409 98.9228 151.452C98.8227 151.495 98.7331 151.559 98.66 151.64C98.5722 151.731 98.5045 151.839 98.4615 151.958C98.4184 152.077 98.4009 152.204 98.41 152.33V152.61C98.4048 152.693 98.4048 152.777 98.41 152.86C98.4239 152.943 98.4622 153.019 98.52 153.08C98.52 153.08 98.52 153.03 98.61 153.01L98.78 152.95H99H99.43H99.65L99.83 153.01C99.8698 153.022 99.9048 153.047 99.93 153.08C99.9707 153.024 99.9981 152.959 100.01 152.89C100.015 152.813 100.015 152.737 100.01 152.66V152.33C100.019 152.205 100.002 152.079 99.9606 151.96C99.9193 151.842 99.8545 151.733 99.77 151.64C99.7033 151.564 99.6219 151.503 99.5308 151.46C99.4397 151.417 99.3407 151.393 99.24 151.39ZM105.52 151.39C105.41 151.388 105.3 151.409 105.198 151.452C105.096 151.495 105.005 151.559 104.93 151.64C104.845 151.733 104.781 151.842 104.739 151.96C104.698 152.079 104.681 152.205 104.69 152.33V152.6C104.684 152.687 104.684 152.773 104.69 152.86C104.698 152.939 104.726 153.014 104.77 153.08C104.795 153.047 104.83 153.022 104.87 153.01L105.06 152.95H105.27H105.71H105.93L106.1 153.01C106.14 153.022 106.175 153.047 106.2 153.08C106.241 153.024 106.268 152.959 106.28 152.89C106.285 152.817 106.285 152.743 106.28 152.67V152.33C106.293 152.079 106.211 151.833 106.05 151.64C105.983 151.565 105.901 151.504 105.81 151.461C105.719 151.418 105.621 151.394 105.52 151.39Z" fill="#F98410"/>
<path d="M131.06 156.94V156L133.22 154C133.41 153.82 133.56 153.66 133.69 153.52C133.807 153.395 133.904 153.253 133.98 153.1C134.04 152.958 134.071 152.805 134.07 152.65C134.075 152.488 134.033 152.329 133.95 152.19C133.871 152.061 133.756 151.957 133.62 151.89C133.47 151.82 133.306 151.785 133.14 151.79C132.97 151.784 132.801 151.822 132.65 151.9C132.515 151.975 132.405 152.085 132.33 152.22C132.255 152.376 132.218 152.547 132.22 152.72H131C130.997 152.368 131.091 152.023 131.27 151.72C131.435 151.412 131.69 151.161 132 151C132.35 150.834 132.733 150.752 133.12 150.76C133.513 150.747 133.903 150.826 134.26 150.99C134.565 151.129 134.827 151.346 135.02 151.62C135.201 151.9 135.295 152.227 135.29 152.56C135.287 152.793 135.239 153.024 135.15 153.24C135.029 153.51 134.867 153.76 134.67 153.98C134.359 154.335 134.025 154.669 133.67 154.98L132.78 155.85H135.34V156.9L131.06 156.94Z" fill="#F98410"/>
<path d="M138.71 157.08C138.245 157.087 137.789 156.955 137.4 156.7C137.014 156.43 136.718 156.05 136.55 155.61C136.341 155.068 136.242 154.49 136.26 153.91C136.246 153.33 136.345 152.753 136.55 152.21C136.691 151.895 136.897 151.615 137.156 151.386C137.414 151.158 137.718 150.987 138.047 150.886C138.377 150.785 138.724 150.755 139.066 150.799C139.408 150.843 139.737 150.959 140.03 151.14C140.411 151.407 140.706 151.779 140.88 152.21C141.085 152.753 141.184 153.33 141.17 153.91C141.184 154.494 141.082 155.075 140.87 155.62C140.711 156.061 140.416 156.44 140.028 156.702C139.64 156.965 139.178 157.097 138.71 157.08ZM138.71 156.01C138.886 156.009 139.057 155.959 139.206 155.865C139.354 155.771 139.473 155.638 139.55 155.48C139.789 154.993 139.895 154.451 139.86 153.91C139.867 153.519 139.82 153.128 139.72 152.75C139.645 152.491 139.508 152.254 139.32 152.06C139.153 151.909 138.935 151.827 138.71 151.83C138.537 151.832 138.368 151.882 138.222 151.973C138.076 152.065 137.957 152.195 137.88 152.35C137.642 152.834 137.535 153.372 137.57 153.91C137.559 154.305 137.606 154.699 137.71 155.08C137.778 155.345 137.916 155.587 138.11 155.78C138.275 155.926 138.49 156.004 138.71 156V156.01Z" fill="#F98410"/>
<path d="M142.08 156.94V156L144.25 154C144.43 153.82 144.59 153.66 144.71 153.52C144.83 153.397 144.928 153.255 145 153.1C145.068 152.96 145.102 152.806 145.1 152.65C145.105 152.488 145.063 152.329 144.98 152.19C144.901 152.061 144.786 151.957 144.65 151.89C144.5 151.821 144.336 151.786 144.17 151.79C144 151.784 143.831 151.822 143.68 151.9C143.541 151.969 143.429 152.081 143.36 152.22C143.281 152.374 143.243 152.547 143.25 152.72H142C141.992 152.368 142.086 152.021 142.27 151.72C142.448 151.425 142.709 151.188 143.02 151.04C143.373 150.874 143.76 150.792 144.15 150.8C144.543 150.789 144.932 150.868 145.29 151.03C145.594 151.166 145.853 151.384 146.04 151.66C146.221 151.94 146.315 152.267 146.31 152.6C146.311 152.833 146.266 153.064 146.18 153.28C146.059 153.55 145.897 153.8 145.7 154.02C145.388 154.374 145.054 154.708 144.7 155.02L143.82 155.89H146.37V156.94H142.08Z" fill="#F98410"/>
<path d="M147.35 156.94V156L149.52 154C149.7 153.82 149.86 153.66 149.98 153.52C150.1 153.397 150.198 153.255 150.27 153.1C150.338 152.96 150.372 152.806 150.37 152.65C150.375 152.488 150.333 152.329 150.25 152.19C150.169 152.058 150.051 151.954 149.91 151.89C149.764 151.819 149.602 151.785 149.44 151.79C149.27 151.784 149.101 151.822 148.95 151.9C148.811 151.969 148.699 152.081 148.63 152.22C148.551 152.374 148.513 152.547 148.52 152.72H147.29C147.286 152.367 147.383 152.02 147.57 151.72C147.746 151.423 148.007 151.186 148.32 151.04C148.673 150.874 149.06 150.792 149.45 150.8C149.839 150.788 150.226 150.867 150.58 151.03C150.888 151.163 151.152 151.382 151.34 151.66C151.521 151.94 151.615 152.267 151.61 152.6C151.611 152.833 151.566 153.064 151.48 153.28C151.359 153.55 151.197 153.8 151 154.02C150.688 154.374 150.354 154.708 150 155.02L149.12 155.89H151.67V156.94H147.35Z" fill="#F98410"/>
<path d="M26.44 156.94V156L28.6 154C28.79 153.82 28.94 153.66 29.07 153.52C29.1836 153.395 29.278 153.253 29.35 153.1C29.4179 152.96 29.4522 152.806 29.45 152.65C29.4546 152.488 29.4129 152.329 29.33 152.19C29.2507 152.061 29.1362 151.957 29 151.89C28.85 151.82 28.6856 151.785 28.52 151.79C28.35 151.784 28.1813 151.822 28.03 151.9C27.8933 151.972 27.7817 152.083 27.71 152.22C27.6352 152.376 27.5976 152.547 27.6 152.72H26.38C26.3772 152.368 26.4706 152.023 26.65 151.72C26.828 151.425 27.0888 151.188 27.4 151.04C27.7532 150.874 28.1399 150.792 28.53 150.8C28.9226 150.789 29.3125 150.868 29.67 151.03C29.9737 151.166 30.2334 151.384 30.42 151.66C30.6007 151.94 30.6946 152.267 30.69 152.6C30.6906 152.833 30.6464 153.064 30.56 153.28C30.4392 153.55 30.2773 153.8 30.08 154.02C29.7687 154.375 29.4347 154.709 29.08 155.02L28.19 155.89H30.74V156.94H26.44Z" fill="#F98410"/>
<path d="M34.09 157.08C33.6222 157.086 33.1631 156.954 32.77 156.7C32.3871 156.429 32.0944 156.049 31.93 155.61C31.7162 155.07 31.6174 154.491 31.64 153.91C31.6214 153.33 31.7201 152.751 31.93 152.21C32.1011 151.777 32.3969 151.405 32.78 151.14C33.171 150.892 33.6272 150.767 34.09 150.78C34.5559 150.754 35.0177 150.88 35.4068 151.137C35.7959 151.395 36.0916 151.771 36.25 152.21C36.4636 152.751 36.5657 153.329 36.55 153.91C36.5638 154.494 36.4618 155.075 36.25 155.62C36.0828 156.055 35.7905 156.431 35.41 156.7C35.019 156.958 34.5584 157.091 34.09 157.08ZM34.09 156.01C34.2655 156.009 34.4373 155.959 34.5857 155.865C34.7342 155.771 34.8534 155.638 34.93 155.48C35.1638 154.991 35.2704 154.451 35.24 153.91C35.2495 153.518 35.1989 153.127 35.09 152.75C35.0229 152.49 34.8883 152.252 34.7 152.06C34.532 151.911 34.3148 151.829 34.09 151.83C33.917 151.831 33.7476 151.88 33.601 151.972C33.4544 152.064 33.3363 152.195 33.26 152.35C33.0223 152.834 32.9154 153.372 32.95 153.91C32.9387 154.305 32.9858 154.699 33.09 155.08C33.154 155.347 33.2927 155.59 33.49 155.78C33.6554 155.926 33.8695 156.004 34.09 156V156.01Z" fill="#F98410"/>
<path d="M37.46 156.94V156L39.63 154C39.81 153.82 39.97 153.66 40.09 153.52C40.2066 153.395 40.3043 153.253 40.38 153.1C40.4479 152.96 40.4822 152.806 40.48 152.65C40.4846 152.488 40.4429 152.329 40.36 152.19C40.2745 152.062 40.1573 151.959 40.02 151.89C39.87 151.82 39.7056 151.785 39.54 151.79C39.3733 151.786 39.2083 151.824 39.06 151.9C38.9213 151.969 38.8089 152.081 38.74 152.22C38.6571 152.373 38.6157 152.546 38.62 152.72H37.4C37.3972 152.368 37.4906 152.023 37.67 151.72C37.852 151.424 38.1161 151.188 38.43 151.04C38.7865 150.885 39.1712 150.805 39.56 150.805C39.9488 150.805 40.3335 150.885 40.69 151.04C40.9982 151.173 41.262 151.392 41.45 151.67C41.6307 151.95 41.7246 152.277 41.72 152.61C41.7169 152.843 41.6694 153.074 41.58 153.29C41.4592 153.56 41.2973 153.81 41.1 154.03C40.7887 154.385 40.4547 154.719 40.1 155.03L39.21 155.9H41.8V156.95L37.46 156.94Z" fill="#F98410"/>
<path d="M42.73 156.94V156L44.9 154C45.08 153.82 45.24 153.66 45.36 153.52C45.4766 153.395 45.5743 153.253 45.65 153.1C45.7136 152.958 45.7477 152.805 45.75 152.65C45.7559 152.487 45.7104 152.326 45.62 152.19C45.5407 152.061 45.4262 151.957 45.29 151.89C45.14 151.82 44.9756 151.785 44.81 151.79C44.6433 151.786 44.4783 151.824 44.33 151.9C44.1913 151.969 44.0789 152.081 44.01 152.22C43.9271 152.373 43.8857 152.546 43.89 152.72H42.67C42.6672 152.368 42.7606 152.023 42.94 151.72C43.122 151.424 43.3861 151.188 43.7 151.04C44.0592 150.873 44.4495 150.783 44.8458 150.776C45.242 150.769 45.6352 150.845 46 151C46.3082 151.133 46.572 151.352 46.76 151.63C46.9407 151.91 47.0346 152.237 47.03 152.57C47.0269 152.804 46.9794 153.034 46.89 153.25C46.7692 153.52 46.6073 153.77 46.41 153.99C46.0987 154.345 45.7647 154.679 45.41 154.99L44.52 155.86H47.08V156.91L42.73 156.94Z" fill="#F98410"/>
</g>
<defs>
<clipPath id="clip0_0_5306">
<rect width="178.07" height="176.14" fill="white"/>
</clipPath>
</defs>
</svg>
