<svg width="164" height="164" viewBox="0 0 164 164" fill="none" xmlns="http://www.w3.org/2000/svg">
<g clip-path="url(#clip0_0_5363)">
<path d="M81.82 163.64C127.008 163.64 163.64 127.008 163.64 81.82C163.64 36.6321 127.008 0 81.82 0C36.6321 0 0 36.6321 0 81.82C0 127.008 36.6321 163.64 81.82 163.64Z" fill="#FFDFD7"/>
<path d="M121.85 66.07C121.71 78.3833 117.947 88.31 110.56 95.85C103.173 103.39 93.5333 107.127 81.64 107.06C70.04 107.02 60.6 103.333 53.32 96C46.04 88.6667 42.2 79.0767 41.8 67.23C41.8 66.3 42.5 65.88 43.98 65.97C45.1622 66.0967 46.3526 66.1301 47.54 66.07C47.4067 75.95 50.8533 83.9033 57.88 89.93C64.22 95.39 71.9933 98.2233 81.2 98.43C90.4067 98.6367 98.28 96.0767 104.82 90.75C112.073 84.81 115.833 76.5833 116.1 66.07H121.85ZM86.23 97.89C75.51 99.0167 66.65 96.49 59.65 90.31C52.9367 84.39 49.1633 76.31 48.33 66.07C51.5367 66.57 56.5367 66.5133 63.33 65.9C69.65 65.3067 74.34 65.3633 77.4 66.07C78.1921 66.2998 78.9095 66.7344 79.48 67.33C80.0035 67.8795 80.595 68.3601 81.24 68.76C81.7532 68.9582 82.2919 69.0828 82.84 69.13C83.4713 69.1677 84.0925 69.3061 84.68 69.54C85.9793 70.2357 87.3968 70.6833 88.86 70.86C89.6295 70.8862 90.3861 70.6572 91.0119 70.2086C91.6377 69.7601 92.0976 69.1172 92.32 68.38C93.69 69.38 95.26 69.31 97.05 68.31C97.7244 67.9107 98.3754 67.4734 99 67C99.4342 66.6319 99.915 66.3225 100.43 66.08H115.35C114.683 74.94 111.76 82.2267 106.58 87.94C101.4 93.6533 94.6167 96.97 86.23 97.89ZM56.35 74.89C56.7656 74.8673 57.1563 74.6845 57.44 74.38C57.6654 74.0959 57.7856 73.7426 57.78 73.38C57.755 73.0111 57.6112 72.6602 57.37 72.38C57.2492 72.2255 57.0983 72.097 56.9264 72.0025C56.7545 71.908 56.5652 71.8493 56.37 71.83C55.9779 72.2457 55.7578 72.7946 55.7541 73.3661C55.7504 73.9376 55.9633 74.4892 56.35 74.91V74.89ZM65.56 74.11C65.1199 74.0187 64.6615 74.0926 64.2724 74.3176C63.8832 74.5426 63.5905 74.903 63.45 75.33C63.2506 75.7532 63.1616 76.22 63.1913 76.6869C63.221 77.1538 63.3685 77.6055 63.62 78C64.91 78.11 65.7 77.69 65.97 76.74C66.0934 76.3011 66.1206 75.8407 66.0499 75.3903C65.9791 74.9398 65.812 74.51 65.56 74.13V74.11ZM81.26 84.11C80.9595 84.4339 80.7368 84.8219 80.6085 85.2446C80.4803 85.6674 80.45 86.1138 80.52 86.55C80.63 87.64 81.13 88.23 82.01 88.32C82.1 88 82.36 87.88 82.79 87.95C83.0247 87.5814 83.1664 87.1613 83.203 86.7259C83.2396 86.2904 83.1699 85.8526 83 85.45C82.9104 85.0579 82.6885 84.7086 82.3716 84.4609C82.0547 84.2132 81.6622 84.0822 81.26 84.09V84.11ZM94.26 76.05C93.6979 76.9793 93.4263 78.0553 93.48 79.14C93.807 79.3148 94.1153 79.5225 94.4 79.76C94.6931 79.9972 95.0344 80.1678 95.4 80.26L96.56 78.74C96.4465 78.1 96.2159 77.4864 95.88 76.93L95.34 76.12L94.26 76.05ZM105 71.81C104.725 72.0187 104.508 72.2951 104.372 72.6123C104.235 72.9295 104.183 73.2766 104.22 73.62C104.15 74.57 104.53 75 105.37 74.91C106.05 74.75 106.31 74.19 106.16 73.24C106.01 72.29 105.6 71.84 105 71.81Z" fill="#F8442E"/>
<path d="M30.37 61.31L15 58L16.68 55L27.09 57.72L27.15 57.61L19.2 50.22L20.61 47.59L31.16 50.1L31.22 49.98L23.13 42.85L24.77 39.78L36 50.67L34.54 53.41L24.54 51.31L24.49 51.41L31.84 58.57L30.37 61.31Z" fill="#F8442E"/>
<path d="M39.89 46L37.49 48.43L30.4 34.12L33.28 31.19L47.66 38.05L45.27 40.49L34.34 35L34.25 35.08L39.89 46ZM35.52 42L41.17 36.25L42.94 38L37.29 43.7L35.52 42Z" fill="#F8442E"/>
<path d="M39.93 28.55L38.5 26.35L48.88 19.61L50.31 21.81L46.44 24.32L53.21 34.76L50.57 36.47L43.8 26L39.93 28.55Z" fill="#F8442E"/>
<path d="M58.28 31.79L53.14 17.63L62.68 14.16L63.57 16.63L57 19L58.22 22.38L64.28 20.17L65.18 22.64L59.12 24.85L60.35 28.23L67 25.85L67.9 28.31L58.28 31.79Z" fill="#F8442E"/>
<path d="M69.54 27.87L67.69 12.92L73.59 12.19C74.595 12.0334 75.6227 12.1157 76.59 12.43C77.3908 12.71 78.0881 13.226 78.59 13.91C79.1413 14.6387 79.4866 15.5021 79.59 16.41C79.7236 17.3027 79.613 18.215 79.27 19.05C78.9162 19.8253 78.3379 20.4767 77.61 20.92C76.7338 21.4382 75.7536 21.7558 74.74 21.85L70.74 22.34L70.43 19.8L73.87 19.37C74.3831 19.3227 74.8823 19.1767 75.34 18.94C75.6958 18.7515 75.9777 18.4485 76.14 18.08C76.3073 17.6788 76.3559 17.238 76.28 16.81C76.2417 16.3704 76.0863 15.9492 75.83 15.59C75.5776 15.2668 75.2264 15.035 74.83 14.93C74.3249 14.7931 73.7965 14.7659 73.28 14.85L71.15 15.11L72.7 27.48L69.54 27.87ZM76.77 20.07L81.33 26.41L77.84 26.84L73.36 20.49L76.77 20.07Z" fill="#F8442E"/>
<path d="M84.41 11.28L88.3 11.88L90.87 22.51H91.04L96.67 13.13L100.56 13.72L98.28 28.62L95.28 28.15L96.76 18.45H96.63L91.31 27.45L89.23 27.13L86.8 16.93H86.68L85.19 26.66L82.19 26.2L84.41 11.28Z" fill="#F8442E"/>
<path d="M99.81 29.54L106 15.8L115.25 20L114.18 22.39L107.82 19.53L106.35 22.81L112.23 25.45L111.15 27.85L105.27 25.2L103.79 28.48L110.17 31.35L109.1 33.75L99.81 29.54Z" fill="#F8442E"/>
<path d="M110.61 34.67L119.5 22.51L122.08 24.39L114.73 34.39L119.94 38.21L118.39 40.33L110.61 34.67Z" fill="#F8442E"/>
<path d="M133.83 46.3C132.755 47.2694 131.456 47.9566 130.05 48.3C128.841 48.5905 127.573 48.5245 126.4 48.11C125.225 47.6637 124.181 46.9317 123.36 45.9801C122.539 45.0286 121.969 43.8875 121.7 42.66C121.463 41.4383 121.585 40.1742 122.05 39.02C122.641 37.6992 123.516 36.5246 124.611 35.5793C125.707 34.6341 126.997 33.9413 128.39 33.55C129.599 33.2563 130.866 33.3188 132.04 33.73C133.212 34.1801 134.255 34.9134 135.075 35.8643C135.895 36.8152 136.467 37.9543 136.74 39.18C136.976 40.401 136.858 41.6638 136.4 42.82C135.845 44.1752 134.962 45.371 133.83 46.3ZM131.72 43.85C132.437 43.2703 133.026 42.5485 133.45 41.73C133.78 41.086 133.912 40.3589 133.83 39.64C133.731 38.9335 133.425 38.2722 132.95 37.74C132.492 37.1912 131.884 36.788 131.2 36.58C130.497 36.3977 129.757 36.4256 129.07 36.66C128.2 36.9622 127.4 37.4385 126.72 38.06C126.007 38.6407 125.421 39.3625 125 40.18C124.67 40.824 124.538 41.5511 124.62 42.27C124.713 42.9783 125.02 43.6413 125.5 44.17C125.958 44.7188 126.566 45.122 127.25 45.33C127.953 45.5123 128.693 45.4844 129.38 45.25C130.247 44.9466 131.043 44.4703 131.72 43.85Z" fill="#F8442E"/>
<path d="M147.86 57.39L134.26 63.87L133.08 61.39L138.82 51.39V51.29L130.26 55.37L128.89 52.49L142.45 46L143.65 48.53L137.89 58.47L137.95 58.59L146.5 54.52L147.86 57.39Z" fill="#F8442E"/>
<path d="M16.7 92.6V82.07H23V83.2H18V86.76H22.57V87.89H18V92.6H16.7Z" fill="#F8442E"/>
<path d="M25.2 92.6V82.07H28.76C29.4506 82.0488 30.1363 82.1928 30.76 82.49C31.2835 82.7341 31.7172 83.1364 32 83.64C32.2591 84.1544 32.3895 84.7241 32.38 85.3C32.3978 85.8896 32.2671 86.4741 32 87C31.737 87.4892 31.328 87.8842 30.83 88.13C30.2053 88.4234 29.5197 88.5639 28.83 88.54H25.9V87.33H28.74C29.2052 87.3474 29.6688 87.2656 30.1 87.09C30.418 86.9423 30.6807 86.6971 30.85 86.39C31.0133 86.0505 31.0922 85.6766 31.08 85.3C31.0912 84.9171 31.0124 84.5369 30.85 84.19C30.6845 83.8692 30.4172 83.6125 30.09 83.46C29.6591 83.2701 29.1905 83.1811 28.72 83.2H26.48V92.6H25.2ZM30.2 87.87L32.79 92.6H31.27L28.72 87.87H30.2Z" fill="#F8442E"/>
<path d="M35.81 75.71H12.01V76.71H35.81V75.71Z" fill="#F8442E"/>
<path d="M35.81 98.15H12.01V99.15H35.81V98.15Z" fill="#F8442E"/>
<path d="M132.53 94.06V83.53H138.85V84.66H133.85V88.22H138.41V89.35H133.85V94.06H132.53Z" fill="#F8442E"/>
<path d="M141 94.06V83.53H144.55C145.241 83.5076 145.927 83.6517 146.55 83.95C147.051 84.2005 147.461 84.603 147.72 85.1C147.983 85.6129 148.114 86.1836 148.1 86.76C148.114 87.3332 147.983 87.9007 147.72 88.41C147.458 88.8965 147.053 89.2909 146.56 89.54C145.935 89.8312 145.25 89.9717 144.56 89.95H141.68V88.79H144.51C144.975 88.8093 145.439 88.7274 145.87 88.55C146.193 88.4053 146.459 88.1596 146.63 87.85C146.785 87.504 146.865 87.1291 146.865 86.75C146.865 86.3709 146.785 85.996 146.63 85.65C146.468 85.3299 146.204 85.073 145.88 84.92C145.445 84.7313 144.974 84.6424 144.5 84.66H142.3V94.06H141ZM146 89.33L148.6 94.06H147.11L144.56 89.33H146Z" fill="#F8442E"/>
<path d="M151.64 77.17H127.84V78.17H151.64V77.17Z" fill="#F8442E"/>
<path d="M151.64 99.61H127.84V100.61H151.64V99.61Z" fill="#F8442E"/>
<path d="M36.82 118.79L43.44 113.67L46.51 117.67L45.8 118.22L43.35 115L41.11 116.73L43.33 119.6L42.62 120.15L40.4 117.3L37.4 119.59L36.82 118.79Z" fill="#F8442E"/>
<path d="M44.21 127.27L49.62 120.89L51.78 122.72C52.2133 123.066 52.5564 123.512 52.78 124.02C52.9571 124.43 52.9991 124.885 52.9 125.32C52.7914 125.763 52.5789 126.175 52.28 126.52C51.9897 126.87 51.6192 127.144 51.2 127.32C50.7893 127.481 50.3391 127.512 49.91 127.41C49.3784 127.261 48.8888 126.991 48.48 126.62L46.73 125.14L47.33 124.44L49.05 125.9C49.3234 126.15 49.6474 126.337 50 126.45C50.2615 126.546 50.5485 126.546 50.81 126.45C51.0889 126.334 51.3333 126.148 51.52 125.91C51.7179 125.682 51.8615 125.412 51.94 125.12C52.0075 124.842 51.9793 124.55 51.86 124.29C51.6952 123.951 51.4559 123.654 51.16 123.42L49.8 122.27L45 127.93L44.21 127.27ZM49.64 126.96L48.78 131.16L47.88 130.39L48.77 126.21L49.64 126.96Z" fill="#F8442E"/>
<path d="M53.72 134.4L57.72 127.03L62.17 129.41L61.74 130.2L58.18 128.3L56.85 130.79L60.18 132.57L59.75 133.37L56.42 131.58L55 134.09L58.66 136L58.23 136.79L53.72 134.4Z" fill="#F8442E"/>
<path d="M70.21 134.42C70.2462 134.227 70.2371 134.028 70.1833 133.839C70.1295 133.649 70.0325 133.475 69.9 133.33C69.5984 132.99 69.201 132.75 68.76 132.64C68.4367 132.54 68.096 132.509 67.76 132.55C67.4865 132.582 67.2254 132.682 67 132.84C66.7987 133.002 66.6521 133.222 66.58 133.47C66.5186 133.665 66.5186 133.875 66.58 134.07C66.6431 134.251 66.7417 134.418 66.87 134.56C67.002 134.709 67.1495 134.843 67.31 134.96C67.47 135.07 67.62 135.17 67.76 135.25L68.51 135.71C68.7309 135.838 68.9446 135.978 69.15 136.13C69.3839 136.307 69.5954 136.512 69.78 136.74C69.9679 136.979 70.1041 137.255 70.18 137.55C70.2698 137.877 70.2698 138.223 70.18 138.55C70.0634 138.969 69.827 139.344 69.5 139.63C69.1509 139.927 68.7241 140.118 68.27 140.18C67.71 140.263 67.1383 140.215 66.6 140.04C66.0848 139.906 65.6041 139.664 65.19 139.33C64.8422 139.053 64.5761 138.686 64.42 138.27C64.2761 137.862 64.2518 137.421 64.35 137L65.35 137.29C65.2847 137.573 65.3201 137.87 65.45 138.13C65.5734 138.386 65.7634 138.603 66 138.76C66.261 138.943 66.5521 139.078 66.86 139.16C67.1838 139.257 67.5227 139.295 67.86 139.27C68.165 139.24 68.4575 139.134 68.71 138.96C68.9493 138.792 69.1198 138.544 69.19 138.26C69.2768 138.031 69.2768 137.779 69.19 137.55C69.0782 137.324 68.9177 137.126 68.72 136.97C68.4942 136.788 68.2571 136.621 68.01 136.47L67.1 135.9C66.589 135.604 66.1541 135.193 65.83 134.7C65.696 134.482 65.6113 134.238 65.582 133.984C65.5526 133.73 65.5792 133.473 65.66 133.23C65.772 132.804 66.0173 132.426 66.36 132.15C66.7148 131.878 67.136 131.705 67.58 131.65C68.071 131.593 68.5685 131.633 69.0439 131.768C69.5193 131.904 69.9631 132.132 70.35 132.44C70.6816 132.704 70.9399 133.048 71.1 133.44C71.2425 133.824 71.2635 134.243 71.16 134.64L70.21 134.42Z" fill="#F8442E"/>
<path d="M75.75 141.81L76.17 133.45L77.17 133.5L77 137.22L81.46 137.45L81.64 133.73L82.64 133.78L82.21 142.14H81.21L81.4 138.4L77 138.12L76.81 141.86L75.75 141.81Z" fill="#F8442E"/>
<path d="M93.86 132.23L95.42 140.46L94.42 140.64L88.75 135H88.67L89.9 141.46L88.9 141.65L87.34 133.42L88.34 133.24L94 138.91H94.08L92.85 132.44L93.86 132.23Z" fill="#F8442E"/>
<path d="M101.76 138.38L98.39 130.72L103.01 128.72L103.37 129.54L99.68 131.17L100.82 133.75L104.27 132.23L104.64 133.06L101.18 134.58L102.32 137.18L106.08 135.53L106.44 136.35L101.76 138.38Z" fill="#F8442E"/>
<path d="M111.94 125.41C111.816 125.268 111.662 125.156 111.489 125.081C111.316 125.007 111.128 124.972 110.94 124.98C110.49 125.013 110.059 125.177 109.7 125.45C109.426 125.64 109.194 125.886 109.02 126.17C108.873 126.404 108.79 126.673 108.78 126.95C108.778 127.207 108.863 127.457 109.02 127.66C109.133 127.827 109.293 127.956 109.48 128.03C109.661 128.102 109.856 128.129 110.05 128.11C110.246 128.097 110.441 128.063 110.63 128.01C110.82 127.95 110.99 127.9 111.14 127.84L111.96 127.53C112.17 127.45 112.42 127.37 112.69 127.29C112.975 127.219 113.267 127.179 113.56 127.17C113.866 127.171 114.168 127.232 114.45 127.35C114.758 127.502 115.023 127.729 115.22 128.01C115.479 128.359 115.632 128.776 115.66 129.21C115.675 129.669 115.561 130.123 115.33 130.52C115.045 131.009 114.656 131.429 114.19 131.75C113.766 132.072 113.279 132.3 112.76 132.42C112.332 132.541 111.878 132.541 111.45 132.42C111.037 132.283 110.672 132.029 110.4 131.69L111.25 131.08C111.435 131.304 111.688 131.462 111.97 131.53C112.246 131.599 112.534 131.599 112.81 131.53C113.11 131.435 113.394 131.293 113.65 131.11C113.943 130.903 114.195 130.641 114.39 130.34C114.556 130.082 114.652 129.786 114.67 129.48C114.683 129.192 114.594 128.909 114.42 128.68C114.283 128.471 114.072 128.321 113.83 128.26C113.586 128.206 113.334 128.206 113.09 128.26C112.804 128.323 112.524 128.407 112.25 128.51L111.25 128.87C110.701 129.089 110.109 129.178 109.52 129.13C109.265 129.101 109.02 129.017 108.801 128.884C108.582 128.751 108.394 128.572 108.25 128.36C107.983 128.01 107.839 127.581 107.84 127.14C107.845 126.694 107.966 126.256 108.19 125.87C108.442 125.442 108.783 125.074 109.19 124.79C109.582 124.49 110.037 124.282 110.52 124.18C110.94 124.085 111.378 124.102 111.79 124.23C112.19 124.344 112.542 124.586 112.79 124.92L111.94 125.41Z" fill="#F8442E"/>
<path d="M119.47 118.07C119.311 117.953 119.127 117.875 118.933 117.84C118.739 117.805 118.54 117.816 118.35 117.87C117.915 117.997 117.529 118.251 117.24 118.6C117.012 118.842 116.835 119.128 116.72 119.44C116.632 119.701 116.611 119.979 116.66 120.25C116.714 120.502 116.847 120.73 117.04 120.9C117.189 121.04 117.378 121.131 117.58 121.16C117.767 121.205 117.963 121.205 118.15 121.16C118.339 121.101 118.523 121.028 118.7 120.94L119.16 120.66L119.89 120.18C120.107 120.042 120.33 119.915 120.56 119.8C120.817 119.658 121.093 119.554 121.38 119.49C121.677 119.43 121.983 119.43 122.28 119.49C122.618 119.564 122.93 119.731 123.18 119.97C123.506 120.261 123.742 120.639 123.86 121.06C123.984 121.498 123.984 121.962 123.86 122.4C123.688 122.938 123.398 123.43 123.01 123.84C122.666 124.259 122.236 124.6 121.75 124.84C121.347 125.027 120.903 125.106 120.46 125.07C120.029 125.017 119.622 124.847 119.28 124.58L119.98 123.8C120.209 123.979 120.49 124.077 120.78 124.08C121.066 124.077 121.345 123.997 121.59 123.85C121.868 123.701 122.116 123.5 122.32 123.26C122.563 122.999 122.754 122.694 122.88 122.36C122.987 122.073 123.018 121.763 122.97 121.46C122.919 121.172 122.771 120.911 122.55 120.72C122.371 120.552 122.136 120.456 121.89 120.45C121.64 120.451 121.394 120.509 121.17 120.62C120.908 120.745 120.655 120.885 120.41 121.04L119.5 121.61C119.008 121.94 118.447 122.153 117.86 122.23C117.606 122.254 117.35 122.224 117.108 122.141C116.867 122.059 116.646 121.925 116.46 121.75C116.123 121.463 115.891 121.073 115.8 120.64C115.712 120.204 115.74 119.752 115.88 119.33C116.032 118.856 116.288 118.422 116.63 118.06C116.951 117.682 117.35 117.379 117.8 117.17C118.196 116.996 118.628 116.921 119.06 116.95C119.466 116.991 119.85 117.155 120.16 117.42L119.47 118.07Z" fill="#F8442E"/>
</g>
<defs>
<clipPath id="clip0_0_5363">
<rect width="163.65" height="163.65" fill="white"/>
</clipPath>
</defs>
</svg>
