<svg width="364" height="95" viewBox="0 0 364 95" fill="none" xmlns="http://www.w3.org/2000/svg">
<g clip-path="url(#clip0_0_5396)">
<path d="M315.82 0H47.27C21.1635 0 0 21.1635 0 47.27C0 73.3765 21.1635 94.54 47.27 94.54H315.82C341.927 94.54 363.09 73.3765 363.09 47.27C363.09 21.1635 341.927 0 315.82 0Z" fill="#FDEABF"/>
<path d="M72.89 43.41C72.9102 44.1755 72.7601 44.9359 72.4505 45.6363C72.141 46.3367 71.6797 46.9596 71.1 47.46C72.0758 47.9075 72.8963 48.6353 73.4573 49.5506C74.0182 50.4659 74.2941 51.5274 74.25 52.6C74.25 57.74 70.11 59.69 63.84 59.69H52.67V36.48H63C68.72 36.48 72.89 38.54 72.89 43.41ZM63.71 42.35H61.29V53.35H64C66.18 53.35 66.15 50.73 64 50.73H61.85V44.83H63.71C65.8 44.84 65.8 42.35 63.71 42.35Z" fill="#B32D38"/>
<path d="M74.88 36.48H84.4C93.65 36.48 96.6 40.66 96.5 45.54C96.5 47.96 95.38 50.48 92.79 51.34L97.33 59.69H88.33L84.1 50.91V47.72H86C86.2298 47.745 86.4623 47.722 86.6827 47.6525C86.9032 47.583 87.1068 47.4684 87.2807 47.3162C87.4546 47.1639 87.595 46.9772 87.693 46.7678C87.791 46.5585 87.8444 46.3311 87.85 46.1C87.8491 45.8674 87.7987 45.6377 87.7022 45.4261C87.6058 45.2145 87.4654 45.0259 87.2904 44.8727C87.1155 44.7195 86.9099 44.6052 86.6875 44.5375C86.465 44.4698 86.2306 44.4502 86 44.48H83.51V59.69H74.88V36.48Z" fill="#B32D38"/>
<path d="M105.82 44.77H116.82V51.4H105.82V52H116.82V59.69H97.2V36.48H116.86V44.18H105.86L105.82 44.77Z" fill="#B32D38"/>
<path d="M145.88 59.69H136.63L131.42 45.27L128.94 52H133.21L136 59.69H117.13L126.22 36.48H136.63L145.88 59.69Z" fill="#B32D38"/>
<path d="M141.77 44.77V36.48H160.7V44.77H155.53V59.69H146.94V44.77H141.77Z" fill="#B32D38"/>
<path d="M161.6 36.48H170.22V44.24H175.09V36.48H183.72V59.69H175.09V51.94H170.22V59.69H161.6V36.48Z" fill="#B32D38"/>
<path d="M184.68 44.77V36.48H203.61V44.77H198.44V59.69H189.85V44.77H184.68Z" fill="#B32D38"/>
<path d="M228.22 59.69H219L213.79 45.27L211.27 52H215.55L218.34 59.72H199.47L208.55 36.51H219L228.22 59.69Z" fill="#B32D38"/>
<path d="M243.14 59.69L237.14 50.54V59.69H228.52V36.48H237.14V45.3L242.35 36.48H252.66L245.4 48.09L253.46 59.69H243.14Z" fill="#B32D38"/>
<path d="M253.65 36.48H262.27V59.69H253.65V36.48Z" fill="#B32D38"/>
<path d="M278.23 46.53L276.37 43.53V36.53H285V59.69H276.28L270.28 50.08H269.75L271.64 53.13V59.69H263V36.48H271.29L277.76 46.53H278.23Z" fill="#B32D38"/>
<path d="M310.42 48.39V59.69H298.09C290.26 59.69 285.59 54.49 285.59 47.69C285.59 40.89 291.36 35.79 298.02 35.79C304.68 35.79 310.42 40.7 310.42 47.79H301.3C301.224 46.975 300.841 46.2196 300.228 45.6772C299.615 45.1348 298.818 44.8461 298 44.87C297.125 44.87 296.285 45.2177 295.667 45.8366C295.048 46.4554 294.7 47.2948 294.7 48.17C294.7 49.0452 295.048 49.8846 295.667 50.5035C296.285 51.1223 297.125 51.47 298 51.47H301.28V49H298.83V48.41L310.42 48.39Z" fill="#B32D38"/>
<path d="M313.86 29.08H315.58C317.25 29.08 317.78 29.83 317.76 30.71C317.784 30.935 317.73 31.1613 317.608 31.3521C317.487 31.5428 317.304 31.6866 317.09 31.76L317.91 33.27H316.28L315.52 31.68V31.11H315.87C315.913 31.118 315.958 31.1164 316 31.1053C316.043 31.0941 316.083 31.0738 316.116 31.0456C316.15 31.0175 316.177 30.9822 316.196 30.9424C316.215 30.9025 316.225 30.859 316.225 30.815C316.225 30.771 316.215 30.7275 316.196 30.6877C316.177 30.6478 316.15 30.6125 316.116 30.5844C316.083 30.5562 316.043 30.5359 316 30.5247C315.958 30.5136 315.913 30.512 315.87 30.52H315.42V33.27H313.86V29.08Z" fill="#B32D38"/>
<path d="M315.81 36.76C314.751 36.76 313.717 36.446 312.837 35.8577C311.957 35.2694 311.271 34.4332 310.866 33.455C310.462 32.4769 310.356 31.4007 310.563 30.3626C310.771 29.3245 311.281 28.3713 312.03 27.6234C312.78 26.8756 313.734 26.3669 314.772 26.1616C315.811 25.9563 316.887 26.0637 317.864 26.4701C318.842 26.8766 319.677 27.5639 320.263 28.445C320.85 29.3261 321.162 30.3614 321.16 31.42C321.157 32.8372 320.592 34.1954 319.589 35.1966C318.586 36.1977 317.227 36.76 315.81 36.76ZM315.81 27.37C315.021 27.3701 314.25 27.6034 313.593 28.0408C312.936 28.4782 312.424 29.0999 312.119 29.8279C311.815 30.5559 311.733 31.3576 311.884 32.1322C312.034 32.9067 312.41 33.6195 312.964 34.1808C313.519 34.7422 314.227 35.127 314.999 35.2869C315.772 35.4469 316.575 35.3748 317.306 35.0797C318.038 34.7846 318.666 34.2797 319.112 33.6285C319.557 32.9773 319.8 32.2089 319.81 31.42C319.81 30.3545 319.39 29.3319 318.641 28.5738C317.893 27.8156 316.875 27.3832 315.81 27.37Z" fill="#B32D38"/>
</g>
<defs>
<clipPath id="clip0_0_5396">
<rect width="363.09" height="94.54" fill="white"/>
</clipPath>
</defs>
</svg>
