<svg width="165" height="166" viewBox="0 0 165 166" fill="none" xmlns="http://www.w3.org/2000/svg">
<g clip-path="url(#clip0_0_129)">
<path d="M79.65 40.51L99.49 0L102.8 44.99L141.39 21.64L119.85 61.27L164.94 62.5L125.39 84.19L162.66 109.6L117.66 106.46L135.27 147.99L99.11 121.03L91.48 165.48L75.64 123.25L45.19 156.52L54.69 112.43L11.08 123.95L42.92 92L0 78.12L44.06 68.45L15.46 33.57L57.75 49.25L52.55 4.45L79.65 40.51Z" fill="#4FBE94"/>
<path d="M73.75 112.78C80.6591 112.78 86.26 99.3306 86.26 82.7399C86.26 66.1493 80.6591 52.7 73.75 52.7C66.8409 52.7 61.24 66.1493 61.24 82.7399C61.24 99.3306 66.8409 112.78 73.75 112.78Z" fill="#F5F5F5"/>
<path d="M75.44 71.51C73.86 82.34 69 90.6 64.46 90C63.8388 89.8677 63.2517 89.6083 62.7354 89.2384C62.2192 88.8684 61.785 88.3957 61.46 87.85C61.33 86.21 61.28 84.52 61.28 82.79C61.28 66.7 66.55 53.57 73.17 52.79C75.6 56.16 76.62 63.41 75.44 71.51Z" fill="black"/>
<path d="M73.5909 66.3995C74.3897 61.4568 73.1624 57.1469 70.8496 56.7731C68.5368 56.3993 66.0143 60.1032 65.2155 65.0459C64.4167 69.9886 65.644 74.2985 67.9568 74.6723C70.2696 75.0461 72.7921 71.3422 73.5909 66.3995Z" fill="#F5F5F5"/>
<path d="M86.26 82.74C86.26 92.11 84.48 100.48 81.67 106C79.5541 100.72 78.3145 95.1296 78 89.45C77.87 87.8 77.81 86.11 77.81 84.39C77.81 75.01 79.61 66.64 82.41 61.14C84.8 66.6 86.26 74.26 86.26 82.74Z" fill="#E5E5E5"/>
<path d="M103.7 82.74C103.7 99.33 98.1 112.74 91.18 112.74C85 112.74 79.85 101.94 78.86 87.74C79.184 88.2865 79.618 88.7597 80.1344 89.1298C80.6508 89.4999 81.2384 89.7588 81.86 89.89C86.35 90.54 91.26 82.28 92.86 71.45C94.04 63.35 93.02 56.1 90.55 52.68C90.7531 52.6651 90.9569 52.6651 91.16 52.68C98.1 52.7 103.7 66.15 103.7 82.74Z" fill="#F5F5F5"/>
<path d="M92.88 71.51C91.3 82.34 86.39 90.6 81.9 90C81.2784 89.8688 80.6908 89.6099 80.1744 89.2399C79.658 88.8698 79.224 88.3965 78.9 87.85C78.77 86.21 78.72 84.52 78.72 82.79C78.72 66.7 83.99 53.57 90.61 52.79C93 56.16 94.06 63.41 92.88 71.51Z" fill="black"/>
<path d="M90.9009 66.6813C91.7043 61.7537 90.4864 57.4544 88.1807 57.0785C85.875 56.7026 83.3546 60.3924 82.5512 65.32C81.7478 70.2476 82.9657 74.5469 85.2714 74.9229C87.5771 75.2988 90.0975 71.6089 90.9009 66.6813Z" fill="#F5F5F5"/>
</g>
<defs>
<clipPath id="clip0_0_129">
<rect width="164.94" height="165.48" fill="white"/>
</clipPath>
</defs>
</svg>
