<svg width="137" height="137" viewBox="0 0 137 137" fill="none" xmlns="http://www.w3.org/2000/svg">
<g clip-path="url(#clip0_0_6484)">
<path d="M136.85 50.97H110.58L129.16 32.39L104.47 7.7L85.89 26.27V0H50.97V26.27L32.39 7.7L7.7 32.39L26.27 50.97H0V85.89H26.27L7.7 104.47L32.39 129.16L50.97 110.58V136.85H85.89V110.58L104.47 129.16L129.16 104.47L110.58 85.89H136.85V50.97Z" fill="#F290B7"/>
<path d="M53.63 54.46H53.43C52.81 54.22 52.88 52.85 51.97 52.82C51.06 52.79 50.31 54.4 50.26 55.82C50.26 57.02 50.63 58.13 51.78 58.17C52.15 58.17 52.29 58.04 52.3 57.86C52.3 57.46 51.78 56.78 51.79 56.55C51.79 55.94 53.01 55.69 54.17 55.73C55.33 55.77 56.52 56.1 56.49 56.73C56.46 57.36 55.49 57.59 55.49 58.73C55.44 60.07 56.85 59.81 56.81 60.93C56.81 61.67 55.5 62.24 53.95 62.18C53.3536 62.1696 52.764 62.051 52.21 61.83C51.6415 61.9577 51.0623 62.0314 50.48 62.05C47.74 61.95 46.48 59.48 46.58 56.85C46.69 53.72 48.95 50.36 52.07 50.47C52.73 50.47 53.32 50.73 53.89 50.75C53.9496 50.7406 54.0103 50.7406 54.07 50.75C54.53 50.92 54.78 51.68 54.75 52.49C54.72 53.3 54.33 54.48 53.63 54.46ZM52.86 51.35C52.86 51.52 53.12 51.67 53.39 51.68C53.66 51.69 53.73 51.61 53.74 51.47C53.75 51.33 53.5 51.16 53.23 51.15C52.96 51.14 52.87 51.21 52.86 51.35ZM54.75 56.49C54.75 56.66 55 56.81 55.27 56.82C55.54 56.83 55.62 56.75 55.62 56.62C55.62 56.49 55.39 56.3 55.11 56.29C54.83 56.28 54.75 56.36 54.75 56.49Z" fill="#C97596"/>
<path d="M58 56.81C58.11 53.68 60.37 50.33 63.48 50.43C66.59 50.53 68.61 54.03 68.48 57.16C68.38 59.8 66.76 62.16 63.03 62.05C59.3 61.94 57.88 59.44 58 56.81ZM64.89 55.94C64.89 54.47 64.31 52.82 63.39 52.78C62.47 52.74 61.73 54.36 61.68 55.78C61.68 56.98 62.05 58.09 63.2 58.13C64.35 58.17 64.82 57.14 64.86 55.94H64.89ZM64.42 51.3C64.42 51.48 64.72 51.71 64.99 51.72C65.26 51.73 65.26 51.66 65.26 51.54C65.26 51.42 64.97 51.13 64.69 51.12C64.41 51.11 64.4 51.17 64.39 51.3H64.42Z" fill="#C97596"/>
<path d="M69.24 56.81C69.35 53.68 71.6 50.33 74.72 50.43C77.84 50.53 79.84 54.03 79.72 57.16C79.63 59.8 78.01 62.16 74.28 62.05C70.55 61.94 69.15 59.44 69.24 56.81ZM76.13 55.94C76.18 54.47 75.55 52.82 74.62 52.78C73.69 52.74 72.97 54.36 72.92 55.78C72.92 56.98 73.28 58.09 74.44 58.13C75.6 58.17 76.09 57.14 76.13 55.94ZM75.66 51.3C75.66 51.48 75.95 51.71 76.23 51.72C76.51 51.73 76.49 51.66 76.5 51.54C76.51 51.42 76.2 51.13 75.93 51.12C75.66 51.11 75.66 51.17 75.66 51.3Z" fill="#C97596"/>
<path d="M82.1 55C82.1415 54.3782 82.1079 53.7537 82 53.14C81.85 52.32 81.25 51.77 81.27 51.33C81.27 50.71 82.48 50.46 83.65 50.5L86.15 50.59C89.27 50.7 91.31 54.05 91.2 57.18C91.11 59.81 89.51 62.04 85.79 61.92L83.26 61.83C81.17 61.75 80.54 61.1 80.57 60.29C80.57 59.29 81.43 58.69 81.74 57.57C81.9584 56.73 82.0792 55.8676 82.1 55ZM84.86 55.74C84.86 56.74 84.86 58.18 85.86 58.21C86.86 58.24 87.51 57.21 87.55 55.98C87.55 54.5 86.96 52.85 86.04 52.82C85.12 52.79 84.9 53.82 84.86 55.1V55.74ZM87 51.45C87 51.63 87.29 51.86 87.57 51.87C87.7 51.87 87.83 51.87 87.83 51.69C87.83 51.51 87.54 51.28 87.26 51.27C86.98 51.26 87 51.33 87 51.45Z" fill="#C97596"/>
<path d="M39.53 72.94C39.4637 72.9494 39.3963 72.9494 39.33 72.94C38.71 72.71 38.77 71.34 37.87 71.31C37.6659 71.2995 37.4649 71.3637 37.3047 71.4907C37.1446 71.6178 37.0362 71.7988 37 72C37 73.13 41.62 73.29 41.5 76.62C41.43 78.53 39.84 80.62 36.12 80.48C33.86 80.4 32.38 79.57 32.48 76.86C32.48 75.75 33.01 74.76 33.84 74.79C34.93 74.79 35.15 76.57 36.62 76.62C37.16 76.62 37.51 76.41 37.52 76.19C37.52 75.45 33.67 74.04 33.74 71.94C33.79 70.38 35.97 68.84 38.01 68.94C38.68 68.94 39.27 69.19 39.84 69.21H40.02C40.47 69.38 40.73 70.14 40.7 70.96C40.67 71.78 40.22 73 39.53 72.94ZM38.78 69.77C38.78 69.96 39.07 70.19 39.35 70.19C39.63 70.19 39.61 70.19 39.62 70.02C39.63 69.85 39.32 69.61 39.05 69.6C38.78 69.59 38.78 69.65 38.78 69.77Z" fill="#C97596"/>
<path d="M44.91 68.94C46.07 68.94 47.25 69.32 47.23 69.94C47.21 70.56 46.58 70.94 46.35 71.77C46.2259 72.2908 46.1655 72.8247 46.17 73.36C46.11 75.19 46.37 76.77 47.87 76.82C49.37 76.87 49.8 75.29 49.87 73.35V72.71C49.9063 72.4111 49.9063 72.1089 49.87 71.81C49.72 70.99 49.12 70.45 49.14 70C49.14 69.39 49.81 69.12 50.98 69.16C52.15 69.2 52.79 69.51 52.76 70.16C52.76 70.6 52.1 71.1 51.89 71.91C51.7738 72.4152 51.7134 72.9316 51.71 73.45C51.71 74.63 51.96 76.02 51.93 76.93C51.84 79.53 49.26 80.67 47.4 80.6C45.25 80.53 42.83 78.78 42.9 76.77C42.9 76.03 43.32 74.55 43.37 73.2C43.3963 72.6849 43.3661 72.1685 43.28 71.66C43.12 70.84 42.53 70.29 42.55 69.8C42.57 69.31 43.74 68.9 44.91 68.94ZM45.91 70.01C46.15 70.01 46.35 69.92 46.36 69.78C46.37 69.64 46.17 69.51 45.92 69.5C45.67 69.49 45.47 69.61 45.47 69.75C45.47 69.89 45.67 70 45.92 70L45.91 70.01ZM51.36 70.2C51.61 70.2 51.81 70.11 51.81 69.97C51.81 69.83 51.62 69.7 51.38 69.69C51.14 69.68 50.93 69.8 50.92 69.94C50.91 70.08 51.12 70.19 51.37 70.2H51.36Z" fill="#C97596"/>
<path d="M61.63 79.56C61.63 78.97 62.15 78.36 62.44 76.74C62.5632 76.0789 62.6467 75.4111 62.69 74.74C62.69 74.09 62.69 73.83 62.57 73.83C62 73.83 60.82 77.95 60.77 79.49C60.77 79.673 60.6973 79.8485 60.5679 79.9779C60.4385 80.1073 60.263 80.18 60.08 80.18C59.897 80.18 59.7215 80.1073 59.5921 79.9779C59.4627 79.8485 59.39 79.673 59.39 79.49C59.39 77.95 58.56 73.74 57.99 73.72C57.9 73.72 57.83 73.97 57.8 74.62C57.7937 75.2881 57.8271 75.9559 57.9 76.62C58.08 78.26 58.55 78.91 58.53 79.49C58.51 80.07 57.71 80.49 56.16 80.42C54.02 80.35 53.44 79.68 53.47 78.88C53.47 77.88 54.33 77.27 54.64 76.15C54.8874 75.2103 55.0085 74.2417 55 73.27V73C55.0319 72.5101 54.9915 72.0181 54.88 71.54C54.71 70.78 54.13 70.17 54.14 69.68C54.15 69.19 55.36 68.86 56.53 68.9C57.7 68.94 58.53 69.27 58.85 69.9C59.67 71.71 59.85 73.9 60.29 73.9C60.73 73.9 61.08 71.59 62 70C62.33 69.42 63.18 69.15 64.38 69.19C65.58 69.23 66.71 69.57 66.69 70.19C66.67 70.81 66.04 71.19 65.82 71.99C65.7002 72.4916 65.6332 73.0044 65.62 73.52C65.5852 74.5224 65.6353 75.526 65.77 76.52C65.98 77.67 66.77 78.29 66.77 79.31C66.77 80.11 66.12 80.75 63.99 80.67C62.38 80.6 61.61 80.26 61.63 79.56ZM57.56 70C57.81 70 58.01 69.91 58.02 69.77C58.03 69.63 57.83 69.5 57.58 69.49C57.33 69.48 57.13 69.6 57.13 69.74C57.13 69.88 57.32 70 57.56 70ZM65.4 70.27C65.65 70.27 65.85 70.18 65.85 70.04C65.85 69.9 65.66 69.77 65.42 69.77C65.18 69.77 64.97 69.87 64.96 70.01C64.95 70.15 65.16 70.23 65.4 70.24V70.27Z" fill="#C97596"/>
<path d="M76.16 79.56C76.16 78.97 76.67 78.36 76.96 76.74C77.0885 76.0798 77.1721 75.4116 77.21 74.74C77.21 74.09 77.21 73.83 77.09 73.83C76.52 73.83 75.35 77.95 75.3 79.49C75.3118 79.5883 75.3026 79.6879 75.2731 79.7824C75.2436 79.8769 75.1943 79.964 75.1287 80.038C75.063 80.1121 74.9824 80.1713 74.8921 80.2119C74.8018 80.2525 74.704 80.2735 74.605 80.2735C74.506 80.2735 74.4082 80.2525 74.3179 80.2119C74.2276 80.1713 74.147 80.1121 74.0813 80.038C74.0156 79.964 73.9664 79.8769 73.9369 79.7824C73.9074 79.6879 73.8982 79.5883 73.91 79.49C73.97 77.95 73.08 73.74 72.51 73.72C72.42 73.72 72.35 73.97 72.33 74.62C72.3183 75.2882 72.3517 75.9563 72.43 76.62C72.6 78.26 73.07 78.91 73.05 79.49C73.03 80.07 72.23 80.49 70.68 80.42C68.55 80.35 67.97 79.68 68 78.88C68 77.88 68.85 77.27 69.17 76.15C69.4223 75.2247 69.5468 74.2691 69.54 73.31V73C69.5774 72.5101 69.5369 72.0173 69.42 71.54C69.25 70.78 68.67 70.17 68.69 69.68C68.71 69.19 69.9 68.86 71.07 68.9C72.24 68.94 73.07 69.27 73.39 69.9C74.22 71.71 74.39 73.9 74.84 73.9C75.29 73.9 75.59 71.64 76.46 70.03C76.79 69.45 77.65 69.18 78.84 69.22C80.03 69.26 81.17 69.6 81.15 70.22C81.13 70.84 80.5 71.22 80.29 72.02C80.1613 72.5202 80.0909 73.0336 80.08 73.55C80.0431 74.5528 80.0967 75.5568 80.24 76.55C80.44 77.7 81.24 78.32 81.24 79.34C81.24 80.14 80.59 80.78 78.45 80.7C76.9 80.6 76.13 80.26 76.16 79.56ZM72.09 70C72.33 70 72.54 69.91 72.54 69.77C72.54 69.63 72.35 69.5 72.11 69.49C71.87 69.48 71.66 69.6 71.65 69.74C71.64 69.88 71.84 70 72.09 70ZM79.93 70.27C80.17 70.27 80.37 70.18 80.38 70.04C80.39 69.9 80.19 69.77 79.94 69.77C79.69 69.77 79.49 69.87 79.49 70.01C79.49 70.15 79.68 70.23 79.93 70.24V70.27Z" fill="#C97596"/>
<path d="M84.12 73.11C84.1431 72.6036 84.1028 72.0964 84 71.6C83.85 70.78 83.25 70.24 83.27 69.79C83.27 69.18 84.48 69.08 85.65 69.12L90.88 69.3C91.58 69.3 92.28 70.63 92.24 71.78C92.24 72.43 91.99 73 91.48 72.99C90.48 72.99 90.63 71.36 88.75 71.29C88.333 71.2597 87.9187 71.379 87.5816 71.6263C87.2444 71.8737 87.0064 72.2331 86.91 72.64C86.91 72.95 87.1 73.2 87.59 73.22C88.08 73.24 88.59 72.68 88.87 72.7C89.15 72.72 89.45 73.3 89.43 74.02C89.41 74.74 89.12 75.34 88.78 75.32C88.44 75.3 88.16 74.72 87.54 74.7C87.11 74.7 86.94 74.88 86.93 75.17C86.93 75.74 87.54 76.63 88.06 76.65C89.8 76.71 89.89 74.98 91.06 75.02C92.06 75.02 92.38 75.85 92.35 76.83C92.29 78.43 91.2 80.5 90.05 80.46L85.16 80.29C83.07 80.22 82.45 79.56 82.48 78.75C82.48 77.75 83.34 77.15 83.65 76.04C83.9229 75.0855 84.0806 74.1019 84.12 73.11ZM90.22 69.8C90.22 69.99 90.51 70.21 90.79 70.22C91.07 70.23 91.05 70.22 91.06 70.05C91.07 69.88 90.76 69.64 90.49 69.63C90.22 69.62 90.22 69.68 90.22 69.8Z" fill="#C97596"/>
<path d="M95.12 73.53C95.148 72.8602 95.101 72.1894 94.98 71.53C94.82 70.71 94.22 70.17 94.24 69.68C94.26 69.19 95.45 68.86 96.62 68.9L99.33 68.99C102.45 69.1 103.33 70.78 103.33 71.91C103.27 73.54 101.94 73.82 101.93 73.99C102.577 74.8913 103.117 75.8645 103.54 76.89C103.87 77.89 105.12 77.79 105.08 79.11C105.04 80.43 103.92 80.64 102.49 80.59C100.73 80.53 99.81 80.21 99.85 79.02C99.85 77.42 99.73 74.6 98.85 74.57C98.45 74.57 98.02 75.05 98 75.73C97.9812 76.0148 98.0013 76.3007 98.06 76.58C98.3237 77.5201 98.5307 78.4751 98.68 79.44C98.68 80.15 97.87 80.44 96.31 80.38C94.18 80.3 93.6 79.62 93.63 78.82C93.63 77.82 94.48 77.22 94.8 76.11C95.0035 75.2648 95.1109 74.3993 95.12 73.53ZM99.25 71.23C98.41 71.23 97.99 71.66 97.97 72.12C97.95 72.58 98.63 73.07 99.28 73.12C99.93 73.17 100.36 72.91 100.38 72.41C100.38 72.1055 100.263 71.8127 100.052 71.5928C99.8417 71.3729 99.5542 71.2429 99.25 71.23ZM100.5 69.9C100.5 70.09 100.79 70.31 101.07 70.32C101.35 70.33 101.33 70.32 101.33 70.15C101.33 69.98 101.04 69.74 100.76 69.73C100.48 69.72 100.5 69.78 100.5 69.9Z" fill="#C97596"/>
</g>
<defs>
<clipPath id="clip0_0_6484">
<rect width="136.85" height="136.85" fill="white"/>
</clipPath>
</defs>
</svg>
