<svg width="198" height="142" viewBox="0 0 198 142" fill="none" xmlns="http://www.w3.org/2000/svg">
<g clip-path="url(#clip0_0_6499)">
<path d="M173.61 38.06H23.9C10.7004 38.06 0 48.7604 0 61.96V117.74C0 130.94 10.7004 141.64 23.9 141.64H173.61C186.81 141.64 197.51 130.94 197.51 117.74V61.96C197.51 48.7604 186.81 38.06 173.61 38.06Z" fill="#018F67"/>
<path d="M98.76 76.12C119.78 76.12 136.82 59.08 136.82 38.06C136.82 17.04 119.78 0 98.76 0C77.74 0 60.7 17.04 60.7 38.06C60.7 59.08 77.74 76.12 98.76 76.12Z" fill="#018F67"/>
<path d="M70.9 86C71.0745 84.9461 71.1482 83.8779 71.12 82.81C71.12 80.9 71.07 79.81 71.07 79.39C72.7802 75.1129 74.785 70.9596 77.07 66.96C80.0167 61.58 82.09 57.8467 83.29 55.76C84.6234 53.48 86.7334 49.73 89.62 44.51C92.2867 39.73 94.3934 36.0333 95.94 33.42C95.9917 33.2951 95.9917 33.1549 95.94 33.03C95.8679 32.9314 95.8293 32.8122 95.83 32.69C96.16 32.88 96.46 32.62 96.72 31.91C96.9172 31.4501 96.9963 30.9482 96.95 30.45C96.7378 30.7772 96.5854 31.1395 96.5 31.52C96.3682 31.8557 96.197 32.1746 95.99 32.47C96.07 32.13 96.05 31.94 95.99 31.91C95.93 31.88 95.67 31.7 95.71 31.74C95.75 31.78 95.82 31.46 95.93 31.12C96.04 30.78 96.03 30.79 95.88 31.01C95.7124 31.211 95.5775 31.4371 95.48 31.68C95.4118 31.9063 95.2997 32.117 95.15 32.3C95.04 32 95.15 31.55 95.54 30.96C95.8 30.5467 95.78 30.3767 95.48 30.45C95.0298 31.2071 94.6738 32.0165 94.42 32.86C94.3844 32.7376 94.3758 32.6089 94.3948 32.4829C94.4138 32.3569 94.4599 32.2365 94.53 32.13C94.65 31.87 94.61 31.68 94.42 31.57C94.233 31.8419 94.1006 32.1476 94.03 32.47C93.9786 32.8213 93.8634 33.1602 93.69 33.47C93.5823 33.2857 93.5166 33.0799 93.4975 32.8673C93.4785 32.6547 93.5067 32.4405 93.58 32.24C93.7625 31.8741 93.8017 31.4533 93.69 31.06C93.5163 31.4598 93.3693 31.8707 93.25 32.29C93.1629 32.7142 92.9893 33.1159 92.74 33.47C92.74 33.1 92.65 32.91 92.57 32.91C92.5039 33.2338 92.3711 33.5403 92.18 33.81C91.96 32.95 91.9 32.52 92.01 32.52C91.83 33.9 91.53 34.65 91.12 34.76C91.12 34.68 91.25 34.51 91.51 34.25C91.7 34.1 91.62 34.03 91.28 34.03C91.28 34.37 91.21 34.42 91.17 34.2C91.13 33.98 91.02 33.64 90.95 33.64V34.53C90.8123 34.4538 90.6574 34.4139 90.5 34.4139C90.3426 34.4139 90.1878 34.4538 90.05 34.53C89.9897 34.5639 89.9217 34.582 89.8524 34.5826C89.7832 34.5831 89.7149 34.5662 89.654 34.5332C89.5931 34.5003 89.5415 34.4524 89.5041 34.3942C89.4667 34.3359 89.4447 34.2691 89.44 34.2C89.21 35.06 89.16 35.49 89.27 35.49C89.27 34.89 89.19 34.49 88.93 34.37C88.67 35.26 88.6 35.69 88.71 35.65C88.56 35.65 88.5 35.58 88.54 35.32C88.58 35.06 88.54 34.89 88.37 34.92C88.11 35.67 88.06 36.05 88.21 36.05C88.21 35.64 88.04 35.39 87.81 35.32C87.59 35.91 87.53 36.21 87.65 36.21C87.4148 35.8992 87.2602 35.5351 87.2 35.15C87.08 34.63 86.99 34.25 86.92 34.03C86.7592 34.4599 86.6648 34.9117 86.64 35.37C86.6045 35.8464 86.5105 36.3166 86.36 36.77C86.36 36.36 86.36 36.21 86.25 36.32C86.1692 36.4774 86.0755 36.6279 85.97 36.77C85.97 36.4 85.87 36.21 85.8 36.21C85.57 36.96 85.52 37.33 85.63 37.33C85.44 37.26 85.33 37.02 85.29 36.61C85.3011 36.3301 85.2241 36.0539 85.07 35.82C84.8622 36.3158 84.8032 36.8613 84.9 37.39C84.9879 37.8525 84.9879 38.3275 84.9 38.79C84.71 38.34 84.53 38.32 84.34 38.73C84.15 39.14 84.02 39.52 83.95 39.52C83.88 39.52 83.95 39.41 83.95 39.18C83.95 38.95 83.86 38.88 83.78 38.96C83.6394 39.2005 83.5445 39.465 83.5 39.74C83.43 40 83.28 39.98 83.06 39.74C82.7706 40.1431 82.5068 40.5639 82.27 41C82.2434 39.216 82.6283 37.4498 83.3949 35.8387C84.1614 34.2275 85.289 32.8147 86.69 31.71C87.77 30.85 90.77 29.2433 95.69 26.89C94.8069 27.1191 93.944 27.4201 93.11 27.79C93.11 27.6 93.23 27.36 93.56 27.06C93.71 26.91 93.75 26.86 93.67 26.89C93.19 27.3033 92.93 27.4733 92.89 27.4L93.11 26.72C92.9434 26.9918 92.7379 27.2377 92.5 27.45C92.24 27.56 92.12 27.45 92.16 27.06C92.16 27.43 91.97 27.66 91.71 27.73C91.5673 27.746 91.4227 27.7291 91.2875 27.6806C91.1523 27.6321 91.03 27.5532 90.93 27.45C91.23 26.67 91.15 26.45 90.71 26.72C90.3257 27.0807 89.8912 27.3838 89.42 27.62C89.19 27.62 89.1 27.43 89.14 27.17C89.18 26.91 89.14 26.72 89.08 26.72C88.9865 26.8806 88.9127 27.0518 88.86 27.23C88.7784 27.3845 88.662 27.518 88.52 27.62C88.4834 27.2826 88.521 26.9413 88.63 26.62C88.6843 26.529 88.7178 26.4271 88.7282 26.3217C88.7386 26.2163 88.7255 26.1098 88.69 26.01C88.4655 26.4244 88.1154 26.757 87.69 26.96C87.3806 26.9712 87.0843 27.0876 86.85 27.29C86.51 26.77 86.51 26.53 86.85 26.57C86.6414 26.7611 86.4687 26.988 86.34 27.24C86.1866 27.4746 85.9769 27.6672 85.73 27.8C85.65 27.4333 85.65 27.2633 85.73 27.29C85.62 27.44 85.37 27.74 85 28.19C84.9665 28.0954 84.959 27.9935 84.9783 27.8949C84.9977 27.7964 85.0432 27.7049 85.11 27.63C85.22 27.44 85.19 27.33 85 27.29C84.9356 27.5025 84.8197 27.6957 84.6627 27.8527C84.5058 28.0097 84.3125 28.1256 84.1 28.19C84.1 28.19 84.16 28.02 84.38 27.8C84.6 27.58 84.5 27.54 84.27 27.46L83.82 28.13C83.64 28.47 83.47 28.55 83.32 28.36C83.43 28.36 83.54 28.27 83.66 28.08C83.78 27.89 83.66 27.8 83.54 27.8C83.02 28.51 82.7 28.8 82.54 28.58C83.54 26.75 85.54 25.49 88.65 24.77C91.288 24.0908 94.066 24.188 96.65 25.05C96.32 24.94 96.24 24.81 96.43 24.66C96.5178 24.5975 96.6116 24.5439 96.71 24.5C96.8276 24.4522 96.9412 24.3953 97.05 24.33C96.7571 24.2379 96.443 24.2379 96.15 24.33C95.81 24.45 95.62 24.43 95.59 24.33C95.8748 23.9136 96.2845 23.5984 96.76 23.43C97.2454 23.2588 97.701 23.0125 98.11 22.7C97.4511 22.7999 96.8086 22.9883 96.2 23.26C95.7105 23.512 95.1839 23.6841 94.64 23.77C95.1453 23.5844 95.6078 23.2987 96 22.93C96.1259 22.7892 96.28 22.6764 96.4523 22.5989C96.6245 22.5214 96.8111 22.4809 97 22.48C96.7 22.48 96.59 22.41 96.66 22.37C96.7796 22.2845 96.8932 22.191 97 22.09C96.4423 22.2272 95.9116 22.457 95.43 22.77C95.0645 23.0528 94.6464 23.2601 94.2 23.38C94.3411 23.1227 94.5527 22.9111 94.81 22.77C95.0786 22.6695 95.3116 22.4921 95.48 22.26C95.67 22.26 94.94 22.71 93.3 23.72C93.38 23.34 93.75 22.93 94.42 22.48C94.3793 22.4616 94.3354 22.4514 94.2907 22.45C94.2461 22.4486 94.2016 22.456 94.1598 22.4717C94.118 22.4875 94.0797 22.5114 94.0472 22.542C94.0146 22.5726 93.9884 22.6093 93.97 22.65C93.9095 22.7204 93.8311 22.7733 93.7432 22.8032C93.6553 22.8331 93.561 22.8389 93.47 22.82C93.8311 22.3601 94.2672 21.9646 94.76 21.65C95.2 21.35 95.28 21.25 94.98 21.37C94.5108 21.5587 94.0752 21.8221 93.69 22.15C93.28 22.4595 92.8489 22.7402 92.4 22.99C92.626 22.6771 92.8915 22.3947 93.19 22.15C93.6 21.78 93.77 21.52 93.69 21.37C93.4868 21.6076 93.2551 21.8192 93 22C92.7 22.19 92.5 22.22 92.38 22.11C93.54 21.4 94.14 20.92 94.18 20.66C93.7878 20.8731 93.4133 21.1172 93.06 21.39C92.6895 21.6918 92.2746 21.9346 91.83 22.11C92.2403 21.5902 92.7296 21.1381 93.28 20.77C93.84 20.32 93.97 20.15 93.67 20.27C93.1858 20.5498 92.736 20.8854 92.33 21.27C91.8976 21.6488 91.4286 21.9838 90.93 22.27C91.242 21.8972 91.576 21.5432 91.93 21.21C92.37 20.8 92.45 20.48 92.15 20.26C91.6281 20.8289 91.0249 21.3176 90.36 21.71C90.55 20.89 90.73 20.54 90.92 20.65C90.8127 20.902 90.612 21.1027 90.36 21.21C90.5868 20.7849 90.9349 20.4368 91.36 20.21C91.85 19.84 92.07 19.56 92.03 19.37C90.5 20.47 89.77 21 89.77 21C89.77 20.74 90.09 20.41 90.61 20C91.13 19.59 91.3 19.4 91.22 19.21C89.92 20.29 89.2534 20.83 89.22 20.83C89.18 20.65 89.33 20.41 89.67 20.11C89.89 19.85 89.93 19.66 89.78 19.55C89.3848 20.0709 88.8882 20.5063 88.32 20.83C88.25 20.13 88.32 19.83 88.66 19.94C88.29 20.57 88.04 20.76 87.93 20.5C87.86 19.87 87.99 19.6 88.32 19.71C88.1621 19.9589 87.974 20.1872 87.76 20.39C87.5 20.65 87.32 20.86 87.2 21C87.2 20.86 87.28 20.65 87.54 20.39C87.8 20.13 87.75 20.01 87.6 19.94C87.5736 20.0243 87.5201 20.0975 87.4477 20.1481C87.3753 20.1988 87.2883 20.224 87.2 20.22C87.1409 20.2435 87.0753 20.2453 87.0149 20.2252C86.9546 20.2051 86.9032 20.1643 86.87 20.11C87.2534 19.8653 87.5615 19.5192 87.76 19.11C87.9484 18.7398 88.1949 18.4022 88.49 18.11C87.8834 18.8341 87.2141 19.5034 86.49 20.11C86.4653 19.9443 86.4825 19.7751 86.5402 19.6179C86.5978 19.4606 86.694 19.3204 86.82 19.21C87.08 18.95 87.16 18.76 87.04 18.65C86.8029 18.9013 86.5793 19.165 86.37 19.44L85.76 20.28C85.8339 20.0106 85.9671 19.7611 86.15 19.55C86.37 19.25 86.37 19.01 86.15 18.82C85.74 19.75 85.42 20.05 85.2 19.71C85.27 19.71 85.31 19.6 85.31 19.38C85.31 19.16 85.31 19.03 85.2 18.99C85.1497 19.1166 85.0741 19.2315 84.9778 19.3278C84.8815 19.4241 84.7666 19.4997 84.64 19.55C84.7413 19.2359 84.9122 18.9487 85.14 18.71C85.4 18.37 85.48 18.17 85.37 18.09C85.26 18.01 84.97 18.2 84.64 18.65C84.31 19.1 84.06 19.29 83.91 19.21C84.2697 18.7648 84.5351 18.251 84.69 17.7C84.772 17.4313 84.9097 17.183 85.094 16.971C85.2784 16.7591 85.5053 16.5884 85.76 16.47L82.6 17.89C82.6752 17.6995 82.8175 17.543 83 17.45C83.1494 17.3089 83.2625 17.134 83.33 16.94C83.11 16.94 82.86 17.07 82.6 17.45C82.34 17.83 82.21 17.82 82.1 17.67C82.1563 17.5856 82.1938 17.4901 82.21 17.39C82.2146 17.3041 82.2364 17.2199 82.2742 17.1426C82.312 17.0653 82.365 16.9964 82.43 16.94C82.3554 16.9178 82.2753 16.9227 82.204 16.9538C82.1326 16.9849 82.0745 17.0402 82.04 17.11C82.0067 17.1705 81.9593 17.222 81.9019 17.2603C81.8445 17.2986 81.7786 17.3225 81.71 17.33C81.8824 17.0097 82.157 16.7562 82.49 16.61C82.7861 16.4487 83.0672 16.2613 83.33 16.05C83.63 15.97 82.5467 16.6367 80.08 18.05C80.2218 17.7425 80.4107 17.4591 80.64 17.21C80.94 16.91 81.05 16.71 80.98 16.6C80.2704 17.2243 79.454 17.7155 78.57 18.05C79.1024 17.5378 79.6064 16.997 80.08 16.43C79.5624 16.5598 79.0827 16.8099 78.68 17.16C78.16 17.57 77.77 17.73 77.51 17.66C77.51 17.44 77.79 17.14 78.35 16.76C78.8 16.43 79 16.19 78.96 16.04C78.7427 16.2654 78.4756 16.4367 78.18 16.54C77.69 16.76 77.4 16.9 77.28 16.93C77.6673 16.6318 78.0049 16.274 78.28 15.87C77.926 15.9388 77.5872 16.0709 77.28 16.26C77.2226 16.3078 77.1542 16.3406 77.081 16.3553C77.0078 16.3701 76.932 16.3664 76.8606 16.3445C76.7891 16.3227 76.7243 16.2834 76.6718 16.2303C76.6193 16.1771 76.5809 16.1117 76.56 16.04C80.0123 14.4977 83.7858 13.8116 87.56 14.04C93.34 14.4933 97.91 17.3667 101.27 22.66C100.815 20.8991 99.8643 19.3058 98.53 18.07C98.7817 18.112 99.027 18.1859 99.26 18.29C99.56 18.41 99.61 18.39 99.43 18.24C99.2376 18.0682 99.0029 17.9508 98.75 17.9C98.5134 17.8314 98.3016 17.696 98.14 17.51C98.62 17.51 98.89 17.42 98.92 17.34C98.44 17.34 98.12 17.25 97.92 16.95C97.9938 16.8333 98.0329 16.6981 98.0329 16.56C98.0329 16.4219 97.9938 16.2867 97.92 16.17C97.73 15.87 97.68 15.65 97.75 15.5C98.0544 15.4763 98.3604 15.5137 98.65 15.61C98.91 15.68 98.98 15.61 98.87 15.5C98.6415 15.3826 98.3946 15.3048 98.14 15.27C97.81 15.27 97.62 15.12 97.58 14.94C97.92 14.94 98.09 14.84 98.09 14.77C97.38 14.54 97.03 14.49 97.03 14.6C97.77 14.34 98.12 14.28 98.09 14.43L97.53 14.27C97.27 14.27 97.16 14.1 97.19 13.87C97.49 13.87 97.58 13.87 97.47 13.76C97.36 13.65 97.19 13.55 97.19 13.48C97.64 13.55 97.88 13.48 97.92 13.14H97.25C97.03 13.14 96.95 13.01 97.03 12.75C97.382 12.7112 97.736 12.6945 98.09 12.7C98.3524 12.6772 98.6129 12.6371 98.87 12.58C98.6355 12.4514 98.3915 12.3411 98.14 12.25L97.25 11.86C96.65 11.56 96.69 11.32 97.36 11.13C96.8 11.13 96.45 11.03 96.3 10.74C96.78 10.74 96.89 10.66 96.63 10.4L97.25 10.62C97.51 10.77 97.68 10.76 97.75 10.62C97.3505 10.4428 96.9396 10.2925 96.52 10.17C96 9.99 95.6 9.83 95.34 9.72C95.34 9.61 95.44 9.54 95.63 9.5C95.82 9.46 95.9 9.41 95.9 9.33C95.3374 9.2167 94.7925 9.02835 94.28 8.77C94.4 8.70972 94.5309 8.67423 94.6649 8.66564C94.7989 8.65705 94.9333 8.67553 95.06 8.72C95.2937 8.76875 95.5372 8.72578 95.74 8.6C94.9983 8.39715 94.2674 8.15684 93.55 7.88C93.6707 7.81671 93.803 7.77874 93.9388 7.76842C94.0747 7.75811 94.2112 7.77566 94.34 7.82C94.452 7.85908 94.572 7.86949 94.689 7.85028C94.8061 7.83106 94.9164 7.78284 95.01 7.71L94.17 7.48C94.0384 7.46021 93.919 7.39163 93.8357 7.28787C93.7523 7.18412 93.711 7.05279 93.72 6.92C94.2 7.19 94.45 7.19 94.45 6.92C93.29 6.25333 92.75 6.01333 92.83 6.2C94.7372 6.72435 96.4996 7.67697 97.9829 8.98532C99.4663 10.2937 100.632 11.9233 101.39 13.75C102.59 16.29 103.2 17.56 103.24 17.56C103.54 17.04 103.54 16.8 103.24 16.83L104.14 17.23C103.908 17.0732 103.7 16.8847 103.52 16.67C103.375 16.4058 103.136 16.2059 102.85 16.11C103.15 16.11 103.26 15.92 103.18 15.55C103.1 15.18 103.35 15.14 103.8 15.21C103.8 15.14 103.63 15.08 103.41 15.04C103.19 15 103.07 14.93 103.07 14.82C103.371 14.7861 103.675 14.803 103.97 14.87C104.34 14.87 104.53 14.87 104.53 14.82C104.306 14.7554 104.1 14.6409 103.927 14.485C103.753 14.3291 103.618 14.1359 103.53 13.92C103.462 13.6348 103.304 13.3789 103.08 13.19C103.22 13.1206 103.374 13.083 103.53 13.08C103.582 13.0983 103.639 13.0973 103.69 13.0771C103.742 13.0569 103.784 13.0189 103.81 12.97C103.398 12.8592 103.041 12.599 102.81 12.24C102.637 11.9085 102.411 11.6078 102.14 11.35C102.66 11.05 102.91 11.05 102.87 11.35L102.14 10.79C102.25 10.64 102.36 10.62 102.48 10.73C102.501 10.7415 102.525 10.7478 102.549 10.7482C102.573 10.7486 102.597 10.7431 102.619 10.7324C102.64 10.7216 102.659 10.7057 102.673 10.6861C102.687 10.6666 102.697 10.6439 102.7 10.62C102.406 10.4874 102.157 10.2741 101.98 10.005C101.803 9.73593 101.706 9.42207 101.7 9.1C103.798 10.4302 105.303 12.5185 105.9 14.93C106.755 17.7324 106.81 20.7178 106.06 23.55C106.25 23.44 107.06 22.92 108.47 21.98C109.317 21.4091 110.195 20.885 111.1 20.41C113.108 19.3929 115.416 19.1337 117.6 19.68H116.7C116.51 19.91 116.55 20.12 116.81 20.3C116.931 20.3701 117.034 20.4669 117.112 20.583C117.19 20.6991 117.241 20.8315 117.26 20.97C116.293 20.8967 115.863 20.7867 115.97 20.64C116.147 20.6838 116.308 20.7749 116.437 20.9035C116.565 21.0321 116.656 21.1934 116.7 21.37C116.287 21.1857 115.854 21.0515 115.41 20.97L115.81 21.25C115.99 21.44 115.97 21.53 115.75 21.53C115.641 21.4501 115.528 21.3766 115.41 21.31C115.284 21.1938 115.146 21.09 115 21C114.876 20.893 114.718 20.8342 114.555 20.8342C114.392 20.8342 114.234 20.893 114.11 21C114.228 20.9728 114.352 20.9855 114.463 21.0362C114.573 21.0868 114.664 21.1725 114.72 21.28L115 21.96C114.818 21.8465 114.651 21.7123 114.5 21.56C114.313 21.4067 114.183 21.4067 114.11 21.56C114.44 21.86 114.4 21.96 113.99 21.84C113.36 21.66 112.99 21.62 112.82 21.73C113.15 21.8586 113.44 22.0726 113.66 22.35C113.92 22.68 114.01 22.91 113.94 23.02C113.34 23.13 113.1 23.02 113.21 22.68C113.14 22.68 113.32 23.08 113.77 23.97C112.95 23.75 112.57 23.56 112.65 23.41C112.798 23.4749 112.931 23.5703 113.04 23.69C113.19 23.84 113.17 23.93 113.04 23.97L112.37 23.63C112.067 23.4574 111.718 23.3807 111.37 23.41C111.694 23.488 111.987 23.6623 112.21 23.91C112.51 24.18 112.61 24.38 112.49 24.53C112.3 24.38 112.21 24.4 112.21 24.59C112.21 24.78 112.12 25.03 111.93 25.03C111.22 25.11 110.93 25.03 110.93 24.7C111.057 24.7503 111.172 24.8259 111.268 24.9222C111.364 25.0185 111.44 25.1334 111.49 25.26C110.71 25.15 110.35 25.02 110.43 24.87C110.43 24.87 110.5 24.94 110.65 24.98C110.738 25.0446 110.832 25.1015 110.93 25.15C111.16 25.26 111.16 25.35 110.93 25.43C110.722 25.1796 110.454 24.9868 110.15 24.87C109.663 24.6767 109.513 24.6767 109.7 24.87C110.158 25.0945 110.574 25.3955 110.93 25.76C110.804 25.7923 110.673 25.7946 110.546 25.7668C110.419 25.739 110.301 25.6819 110.2 25.6C109.94 25.41 109.77 25.41 109.7 25.6C110.44 25.97 110.7 26.21 110.43 26.32C110.24 26.02 109.87 25.97 109.31 26.15C109.23 26.3 109.31 26.47 109.53 26.66C109.75 26.85 109.66 26.85 109.53 26.88C108.78 26.21 108.24 26.02 107.9 26.32C108.72 26.51 109.21 26.88 109.36 27.44C108.951 27.4367 108.547 27.3409 108.18 27.16C107.814 26.9816 107.4 26.9255 107 27C107.3 27 107.45 27.13 107.45 27.28C107.45 27.43 107.61 27.62 107.95 27.73C107.123 27.3918 106.261 27.1469 105.38 27C105.368 27.048 105.366 27.0978 105.374 27.1466C105.382 27.1954 105.399 27.2421 105.425 27.2841C105.451 27.326 105.485 27.3623 105.526 27.3908C105.566 27.4193 105.612 27.4394 105.66 27.45C105.95 27.52 106.1 27.62 106.1 27.73H105.43C105.21 27.73 105.13 27.86 105.21 28.12C114.543 28.0133 120.833 30.8867 124.08 36.74C123.975 36.7114 123.878 36.6564 123.8 36.58C123.719 36.4893 123.625 36.4117 123.52 36.35C123.37 36.5 123.35 36.76 123.46 37.14C123.57 37.52 123.46 37.69 123.35 37.81C123.333 37.3247 123.133 36.8637 122.79 36.52C122.53 37.27 122.47 37.64 122.62 37.64C122.564 36.956 122.291 36.3078 121.84 35.79C121.61 36.43 121.56 36.74 121.67 36.74C121.663 35.7184 121.266 34.7381 120.56 34C120.56 33.78 120.62 34 120.85 34.78C120.893 34.9092 120.887 35.0495 120.833 35.1747C120.78 35.2998 120.683 35.4012 120.56 35.46C119.78 34.19 119.16 33.52 118.72 33.46C118.64 34.46 118.64 34.95 118.72 34.91C118.589 34.6907 118.511 34.4444 118.49 34.19C118.493 34.075 118.464 33.9615 118.406 33.8624C118.347 33.7633 118.262 33.6827 118.16 33.63C117.9 34.52 117.84 34.95 117.99 34.91C117.91 34.43 117.84 34.19 117.76 34.19C117.76 34.64 117.69 34.94 117.43 35.08C117.43 34.23 117.34 33.68 117.04 33.46C116.81 34.06 116.76 34.36 116.87 34.36C116.87 33.65 116.79 33.22 116.53 33.07C116.5 33.1657 116.495 33.2677 116.516 33.3658C116.537 33.464 116.583 33.555 116.65 33.63C116.757 33.8167 116.717 33.9467 116.53 34.02C116.425 33.559 116.235 33.1216 115.97 32.73C115.898 33.0256 115.898 33.3344 115.97 33.63C116.05 34 116.05 34.19 115.97 34.19C115.71 33.82 115.49 33.63 115.3 33.63C115.11 33.63 114.95 33.44 114.69 33.07C114.659 33.3548 114.697 33.6427 114.8 33.91C114.854 34.1874 114.854 34.4726 114.8 34.75C116.895 36.3517 118.609 38.3975 119.819 40.7402C121.029 43.083 121.706 45.6647 121.8 48.3C121.666 47.6741 121.495 47.0564 121.29 46.45C120.993 46.8172 120.818 47.2683 120.79 47.74C120.794 48.2061 120.635 48.6588 120.34 49.02C120.08 47.12 120.02 46.26 120.17 46.45C120.056 47.1086 119.811 47.7377 119.45 48.3C119.18 46.69 119.13 45.96 119.28 46.11C119.173 46.2421 119.094 46.3955 119.05 46.56C119.028 46.7193 118.973 46.8725 118.89 47.01C118.679 46.5115 118.658 45.9531 118.83 45.44C118.94 44.73 118.83 44.29 118.55 44.1C118.481 44.504 118.285 44.8755 117.99 45.16C118.559 43.8348 118.679 42.3595 118.33 40.96C118.14 41.11 118.05 41.56 118.05 42.31C118.05 43.06 117.9 43.43 117.6 43.54C117.6 43.54 117.65 43.11 117.76 42.36C117.84 41.9067 117.73 41.6267 117.43 41.52C117.43 42.34 117.34 42.52 117.04 42.08C116.919 42.8137 116.609 43.5031 116.14 44.08C116.21 43.6532 116.341 43.2389 116.53 42.85C116.632 42.6878 116.666 42.492 116.625 42.305C116.584 42.1179 116.471 41.9545 116.31 41.85C116.267 42.4774 116.01 43.0708 115.58 43.53C115.595 43.1953 115.691 42.8693 115.86 42.58C116.01 42.24 115.97 42.13 115.75 42.24C115.6 42.95 115.36 43.38 115.02 43.53C115.043 42.8583 115.12 42.1894 115.25 41.53C115.231 41.7722 115.152 42.0058 115.02 42.21C114.87 42.43 114.76 42.45 114.69 42.21C115.17 41.31 115.28 40.76 115.02 40.53C114.882 40.9622 114.63 41.3492 114.29 41.65C114.266 41.405 114.287 41.1578 114.35 40.92C114.405 40.7761 114.428 40.622 114.417 40.4684C114.407 40.3149 114.363 40.1653 114.29 40.03C114.1 40.7957 113.8 41.5299 113.4 42.21C113.96 40.27 114.09 38.93 113.79 38.21C113.661 39.3533 113.214 40.4376 112.5 41.34C112.454 40.9002 112.533 40.4562 112.73 40.06C112.809 39.8817 112.844 39.6874 112.834 39.4928C112.823 39.2982 112.767 39.1088 112.67 38.94C112.59 39.42 112.54 39.67 112.5 39.67C112.511 38.8049 112.438 37.9407 112.28 37.09C112.422 37.9833 112.241 38.8978 111.77 39.67C112.04 37.73 112.04 36.75 111.77 36.75C111.593 37.9841 111.157 39.1667 110.49 40.22C111.05 38.55 111.1 37.5 110.65 37.09C110.65 38.17 110.5 38.79 110.09 38.94C110.43 37.26 110.43 36.16 110.09 35.63C110.02 37.84 109.78 39.07 109.37 39.33C109.58 38.9058 109.731 38.455 109.82 37.99C109.96 37.39 109.87 37.28 109.54 37.65C109.54 36.49 109.31 35.82 108.97 35.65C109.09 36.14 109.03 36.44 108.81 36.55C108.841 36.3369 108.802 36.1194 108.7 35.93C108.58 35.67 108.51 35.64 108.47 35.82C109.618 39.3837 109.715 43.2025 108.75 46.82C107.71 50.74 105.71 52.8667 102.75 53.2C103.289 53.0841 103.79 52.8367 104.21 52.48C103.72 52.63 103.63 52.59 103.93 52.37C104.065 52.2419 104.212 52.1279 104.37 52.03C104.509 51.9455 104.643 51.8519 104.77 51.75C104.598 51.7907 104.417 51.7747 104.255 51.7044C104.093 51.6341 103.958 51.5133 103.87 51.36C104.17 51.55 104.41 51.55 104.6 51.36L105.16 50.85C104.911 50.8288 104.66 50.8701 104.43 50.97C104.17 51.08 103.98 51.04 103.87 50.85C104.87 50.37 105.31 50.05 105.16 49.9C105.16 50.01 105.06 50.07 104.88 50.07C104.7 50.07 104.63 50.01 104.6 49.9C106.02 49.2667 106.687 48.7267 106.6 48.28C106.57 48.4203 106.494 48.5464 106.383 48.6373C106.272 48.7282 106.133 48.7785 105.99 48.78C105.755 48.7909 105.522 48.7317 105.32 48.61C105.8 48.24 106.04 48.07 106.04 48.11C105.67 48 105.48 48 105.48 48.11C105.633 48.07 105.633 47.94 105.48 47.72C105.71 47.87 106.04 47.72 106.48 47.21C106.822 46.9221 107.058 46.5277 107.15 46.09C107.04 46.39 106.74 46.56 106.26 46.6H105.26C105.26 46.49 105.38 46.41 105.65 46.38C105.92 46.35 106.02 46.24 105.98 46.09C105.61 46.09 105.38 46.09 105.31 45.93C105.284 45.8255 105.228 45.7313 105.147 45.6599C105.067 45.5885 104.967 45.5431 104.86 45.53C105.65 44.94 106.02 44.69 105.98 44.81C105.42 44.51 105.18 44.51 105.26 44.81C105.561 44.5303 105.842 44.2295 106.1 43.91L106.71 43.13C106.218 43.5356 105.673 43.872 105.09 44.13C105.084 43.789 105.142 43.4499 105.26 43.13C105.37 42.79 105.26 42.7 104.86 42.85C104.86 42.7 105.12 42.46 105.54 42.12C105.96 41.78 105.93 41.67 105.82 41.56C105.59 41.94 105.35 42.12 105.09 42.12C105.83 40.67 106.26 40.05 106.37 40.27L106.04 40.67C105.919 40.8139 105.805 40.9641 105.7 41.12C105.367 41.4467 105.087 41.5367 104.86 41.39C105.17 41.2072 105.453 40.9817 105.7 40.72C105.96 40.42 106.06 40.22 105.98 40.11C105.35 40.78 105.22 40.87 105.59 40.39C106.11 39.7233 106.37 39.4433 106.37 39.55C106.08 39.55 105.72 39.81 105.31 40.33C104.9 40.85 104.66 41.08 104.31 41C105.43 39.59 105.97 38.73 105.93 38.43C105.585 39.0958 105.088 39.6712 104.48 40.11C104.594 39.8344 104.764 39.5857 104.98 39.38C105.24 39.08 105.32 38.89 105.21 38.82C104.79 39.45 104.55 39.64 104.48 39.38C105.067 38.7057 105.555 37.9515 105.93 37.14C105.64 36.99 105.33 37.14 105.04 37.59C104.75 38.04 104.35 38.39 104.04 38.43C104.82 37.43 105.14 37.03 105.04 37.14C103.88 37.66 103.45 38.04 103.75 38.26C104.87 36.88 105.41 36.08 105.37 35.85C104.894 36.566 104.352 37.2356 103.75 37.85C103.804 37.6042 103.942 37.3849 104.14 37.23C104.37 37.01 104.42 36.86 104.31 36.78C104.26 36.9066 104.184 37.0215 104.088 37.1178C103.992 37.2141 103.877 37.2897 103.75 37.34C103.987 37.071 104.144 36.7415 104.204 36.3883C104.264 36.035 104.225 35.6721 104.09 35.34C104.09 35.79 104.01 36.08 103.75 36.23C103.45 34.63 103.39 33.9 103.58 34.05C103.571 36.8811 102.819 39.6601 101.4 42.11C99.8667 44.91 98.0167 46.4967 95.85 46.87L95.52 46.93C95.415 46.9885 95.2995 47.0259 95.18 47.04C94.88 47.04 94.68 46.85 94.57 46.48C94.7518 46.5223 94.9418 46.5129 95.1186 46.4528C95.2953 46.3927 95.4517 46.2844 95.57 46.14H94.78C94.49 46.14 94.37 46.01 94.45 45.75H95.51C95.96 45.75 96.09 45.75 95.9 45.58C95.31 45.58 95.01 45.49 95.01 45.19C96.01 44.93 96.5 44.88 96.46 45.03C96.05 45.03 95.87 44.86 95.9 44.63C97.06 44.37 97.62 44.32 97.58 44.46C97.477 44.4761 97.3716 44.4642 97.2748 44.4255C97.178 44.3868 97.0935 44.3227 97.03 44.24C96.8434 44.0533 96.8434 43.9433 97.03 43.91C97.03 43.7567 97.29 43.6067 97.81 43.46C98.2607 43.3501 98.6995 43.196 99.12 43C98.8168 43.0229 98.5121 42.9851 98.2237 42.889C97.9353 42.7928 97.6689 42.6402 97.44 42.44C98.04 42.22 98.35 42.16 98.44 42.27C98.14 42.35 97.96 42.27 97.88 42.05L97.71 41.54C98.31 41.32 98.61 41.26 98.61 41.37C98.24 41.3 98.05 41.23 98.05 41.15C98.3169 41.0212 98.5992 40.9271 98.89 40.87C99.3 40.76 99.51 40.67 99.51 40.59C98.83 40.74 98.51 40.59 98.51 40.2C98.63 39.49 98.7 39.2 98.74 39.36C99.34 39.1 99.65 39.02 99.74 39.13C99.37 39.13 99.18 39.04 99.18 38.97C99.5006 38.8938 99.8052 38.7618 100.08 38.58C99.4134 38.28 99.1134 38.28 99.18 38.58C99.5681 38.4923 99.9442 38.358 100.3 38.18L99.18 38.07C99.4157 37.9074 99.6805 37.792 99.96 37.73C100.34 37.59 100.43 37.46 100.24 37.34C100.32 37.49 100.17 37.57 99.8 37.57C99.43 37.57 99.31 37.49 99.35 37.34C99.6013 37.2963 99.8464 37.2224 100.08 37.12C100.19 37.05 100.08 36.93 99.74 36.78C100.08 36.71 100.24 36.64 100.24 36.56C100.1 36.5818 99.9562 36.561 99.8279 36.5004C99.6995 36.4398 99.5923 36.3421 99.52 36.22C99.7251 36.1079 99.9564 36.0526 100.19 36.06C100.49 36.06 100.64 35.89 100.64 35.66C100.437 35.6041 100.23 35.5672 100.02 35.55C99.9263 35.5482 99.8338 35.5278 99.748 35.49C99.6622 35.4522 99.5847 35.3979 99.52 35.33C99.6674 35.3756 99.8248 35.3782 99.9736 35.3375C100.122 35.2968 100.256 35.2144 100.36 35.1C100.43 35.1 100.43 35.03 100.36 34.99C100.205 35.001 100.053 35.0382 99.91 35.1C100.079 34.8937 100.317 34.7552 100.58 34.71C100.84 34.6233 101.06 34.4458 101.2 34.21C100.67 34.13 100.36 33.95 100.2 33.65C100.61 33.2 100.61 32.96 100.2 32.92C100.301 32.744 100.437 32.5908 100.6 32.47C100.748 32.3266 100.882 32.1692 101 32C100.886 31.9906 100.772 32.0063 100.664 32.046C100.557 32.0858 100.46 32.1486 100.38 32.23C100.175 32.3384 99.9394 32.377 99.71 32.34C99.9 31.85 99.9 31.5 99.71 31.28L99.15 32C99.1475 31.9032 99.1681 31.8072 99.21 31.72V31.5C99.21 31.39 99.12 31.31 98.93 31.28L90.5 48.13L80.59 67C76.59 74.6867 73.4167 81.09 71.07 86.21H70.9V86Z" fill="#00E19A"/>
<path d="M158.49 58.16H39.02C29.957 58.16 22.61 65.507 22.61 74.57V105.13C22.61 114.193 29.957 121.54 39.02 121.54H158.49C167.553 121.54 174.9 114.193 174.9 105.13V74.57C174.9 65.507 167.553 58.16 158.49 58.16Z" fill="#018F67"/>
<path d="M67.8 71.28H63.67V69.41H62.13V80.22H63.81V84.16H53.72V80.22H55.4V69.41H53.86V71.28H49.73V65.47H67.8V71.28Z" fill="#00E19A"/>
<path d="M87.85 69.41H86.64V80.22H87.85V84.16H78.76V80.22H79.91V76.22H76.55V80.22H77.7V84.16H68.62V80.22H69.82V69.41H68.62V65.47H77.7V69.41H76.55V73.06H79.91V69.41H78.76V65.47H87.85V69.41Z" fill="#00E19A"/>
<path d="M88.81 84.16V80.22H90V69.41H88.8V65.47H97.93V69.41H96.73V80.22H97.93V84.16H88.81Z" fill="#00E19A"/>
<path d="M102 84.1C100.915 83.9232 99.855 83.6212 98.84 83.2V78.44H104.13C104.093 78.8295 104.212 79.2178 104.46 79.52C104.811 79.7869 105.252 79.9086 105.69 79.86C106.062 79.893 106.435 79.8128 106.76 79.63C106.868 79.5541 106.954 79.4515 107.01 79.3323C107.066 79.2131 107.09 79.0814 107.08 78.95C107.082 78.8236 107.055 78.6985 107.001 78.5841C106.948 78.4698 106.869 78.3692 106.77 78.29C106.446 78.0378 106.081 77.8449 105.69 77.72L103.61 77C102.155 76.5378 100.839 75.7198 99.78 74.62C98.9526 73.5702 98.5366 72.2546 98.61 70.92C98.5592 70.105 98.7021 69.2895 99.0272 68.5403C99.3522 67.7912 99.8501 67.1297 100.48 66.61C101.72 65.6233 103.79 65.13 106.69 65.13C108.012 65.1226 109.33 65.2635 110.62 65.55C111.674 65.7575 112.688 66.1359 113.62 66.67V71H108.81C108.81 70.2 108.31 69.8 107.32 69.8C106.977 69.7772 106.634 69.8391 106.32 69.98C106.217 70.0473 106.134 70.1417 106.082 70.2529C106.029 70.364 106.007 70.4876 106.02 70.61C106.015 70.7397 106.045 70.8683 106.107 70.9825C106.168 71.0968 106.259 71.1925 106.37 71.26C106.726 71.4783 107.11 71.6497 107.51 71.77L109.6 72.49C111.018 72.8882 112.301 73.6662 113.31 74.74C114.125 75.7617 114.541 77.0446 114.48 78.35C114.536 79.2293 114.378 80.1092 114.02 80.914C113.661 81.7188 113.112 82.4243 112.42 82.97C110.641 84.1236 108.536 84.6708 106.42 84.53C104.936 84.5323 103.456 84.3882 102 84.1Z" fill="#00E19A"/>
<path d="M122.31 84.16V80.22H123.51V69.41H122.31V65.47H131.44V69.41H130.24V80.22H131.44V84.16H122.31Z" fill="#00E19A"/>
<path d="M135.49 84.1C134.405 83.9232 133.345 83.6212 132.33 83.2V78.44H137.62C137.601 78.6337 137.621 78.8292 137.679 79.0148C137.738 79.2004 137.833 79.3723 137.96 79.52C138.307 79.7881 138.745 79.9102 139.18 79.86C139.552 79.8943 139.925 79.814 140.25 79.63C140.359 79.5546 140.446 79.4524 140.504 79.3333C140.562 79.2142 140.588 79.0821 140.58 78.95C140.58 78.824 140.552 78.6996 140.498 78.5855C140.445 78.4715 140.367 78.3706 140.27 78.29C139.944 78.0361 139.575 77.843 139.18 77.72L137.12 77C135.662 76.5378 134.343 75.7198 133.28 74.62C132.46 73.5667 132.048 72.2528 132.12 70.92C132.07 70.1041 132.215 69.2881 132.542 68.5389C132.868 67.7897 133.368 67.1286 134 66.61C135.24 65.6233 137.31 65.13 140.21 65.13C141.532 65.1215 142.85 65.2624 144.14 65.55C145.195 65.7538 146.209 66.1324 147.14 66.67V71H142.33C142.33 70.2 141.84 69.8 140.84 69.8C140.497 69.7772 140.154 69.839 139.84 69.98C139.737 70.0473 139.654 70.1417 139.602 70.2529C139.549 70.364 139.527 70.4876 139.54 70.61C139.537 70.7393 139.568 70.8672 139.63 70.981C139.691 71.0949 139.781 71.191 139.89 71.26C140.247 71.4783 140.63 71.6497 141.03 71.77L143.12 72.49C144.54 72.8907 145.826 73.6682 146.84 74.74C147.727 75.982 148.127 77.507 147.963 79.0245C147.799 80.5421 147.082 81.9464 145.95 82.97C144.17 84.1222 142.066 84.6693 139.95 84.53C138.453 84.5347 136.959 84.3906 135.49 84.1Z" fill="#00E19A"/>
<path d="M39.19 112.94C38.0935 112.753 37.0228 112.437 36 112V107.24H41.29C41.2556 107.632 41.3738 108.023 41.62 108.33C41.9752 108.588 42.4133 108.705 42.85 108.66C43.2217 108.693 43.5947 108.613 43.92 108.43C44.0256 108.352 44.1101 108.249 44.166 108.13C44.2219 108.012 44.2473 107.881 44.24 107.75C44.242 107.624 44.2151 107.499 44.1613 107.384C44.1076 107.27 44.0285 107.169 43.93 107.09C43.6039 106.842 43.239 106.649 42.85 106.52L40.78 105.8C39.3471 105.342 38.049 104.538 37 103.46C36.1726 102.41 35.7565 101.095 35.83 99.76C35.7775 98.9448 35.9197 98.1288 36.2449 97.3793C36.57 96.6299 37.0688 95.9686 37.7 95.45C38.9266 94.4833 40.99 94 43.89 94C45.2116 93.9926 46.5298 94.1335 47.82 94.42C48.8743 94.6275 49.8876 95.0059 50.82 95.54V99.84H46C46 99.04 45.5 98.64 44.51 98.64C44.1669 98.6172 43.8235 98.6791 43.51 98.82C43.4061 98.8889 43.3232 98.9851 43.2703 99.098C43.2174 99.2108 43.1965 99.3361 43.21 99.46C43.206 99.5882 43.2364 99.7151 43.2979 99.8276C43.3595 99.9401 43.4499 100.034 43.56 100.1C43.9165 100.318 44.2996 100.49 44.7 100.61L46.79 101.33C48.2056 101.735 49.4868 102.512 50.5 103.58C51.3147 104.602 51.7305 105.885 51.67 107.19C51.7264 108.069 51.5685 108.949 51.2096 109.754C50.8508 110.559 50.3018 111.264 49.61 111.81C47.8306 112.964 45.7259 113.511 43.61 113.37C42.1261 113.373 40.6455 113.229 39.19 112.94Z" fill="#00E19A"/>
<path d="M55.4599 111.68C54.0899 110.58 53.41 108.78 53.41 106.3V98.3H52.2V94.31H61.0999V98.25H60.0999V107.52C60.0639 107.939 60.1851 108.356 60.4399 108.69C60.58 108.821 60.7456 108.921 60.9263 108.985C61.107 109.048 61.2989 109.074 61.49 109.06C61.673 109.069 61.8561 109.042 62.028 108.978C62.2 108.914 62.3571 108.816 62.49 108.69C62.7529 108.36 62.8783 107.941 62.84 107.52V98.25H62V94.31H70.25V98.25H69V106.25C69 108.73 68.34 110.53 67 111.63C65.3476 112.838 63.3224 113.426 61.2799 113.29C59.2124 113.44 57.1566 112.871 55.4599 111.68Z" fill="#00E19A"/>
<path d="M97.5799 98.25H96.3799V109.06H97.5799V113H88.4999V109.06H89.6499V100.65L85.5599 113H81.9999L77.7999 100.77V109.06H78.9999V113H71.0699V109.06H72.2699V98.25H71.0699V94.31H82.0699L84.5699 101.8L86.9999 94.31H97.5999L97.5799 98.25Z" fill="#00E19A"/>
<path d="M125.05 98.25H123.85V109.06H125.05V113H116V109.06H117.15V100.65L113 113H109.45L105.24 100.77V109.06H106.4V113H98.54V109.06H99.74V98.25H98.54V94.31H109.54L112.04 101.8L114.44 94.31H125.04L125.05 98.25Z" fill="#00E19A"/>
<path d="M126 113V109.06H127.2V98.25H126V94.31H142.23V101.56H136.84V98.25H133.93V102H136.05V104.74H133.93V109.02H136.84V105.23H142.23V113H126Z" fill="#00E19A"/>
<path d="M143.15 109.06H144.35V98.25H143.15V94.31H154.15C155.827 94.196 157.494 94.6428 158.89 95.58C159.466 96.0925 159.914 96.7333 160.197 97.4507C160.48 98.1681 160.591 98.942 160.52 99.71C160.544 100.68 160.321 101.64 159.87 102.5C159.475 103.255 158.817 103.838 158.02 104.14V104.38C158.361 104.406 158.693 104.501 158.996 104.659C159.299 104.817 159.566 105.035 159.782 105.299C159.998 105.564 160.158 105.87 160.252 106.198C160.347 106.527 160.373 106.871 160.33 107.21V109.06H161.46V113H153.84V107.36C153.867 106.872 153.774 106.384 153.57 105.94C153.378 105.617 153.065 105.383 152.7 105.29C152.153 105.161 151.592 105.104 151.03 105.12V109.06H152.62V113H143.1L143.15 109.06ZM152.38 102.19C152.563 102.197 152.745 102.168 152.917 102.105C153.088 102.041 153.246 101.944 153.38 101.82C153.643 101.49 153.768 101.071 153.73 100.65V99.79C153.768 99.3695 153.643 98.9504 153.38 98.62C153.247 98.4937 153.09 98.3957 152.918 98.3321C152.746 98.2685 152.563 98.2405 152.38 98.25H151.08V102.19H152.38Z" fill="#00E19A"/>
<path d="M18.23 58.24C20.8203 58.24 22.92 56.1402 22.92 53.55C22.92 50.9598 20.8203 48.86 18.23 48.86C15.6398 48.86 13.54 50.9598 13.54 53.55C13.54 56.1402 15.6398 58.24 18.23 58.24Z" fill="#00E19A"/>
<path d="M179.28 58.24C181.87 58.24 183.97 56.1402 183.97 53.55C183.97 50.9598 181.87 48.86 179.28 48.86C176.69 48.86 174.59 50.9598 174.59 53.55C174.59 56.1402 176.69 58.24 179.28 58.24Z" fill="#00E19A"/>
<path d="M18.23 130.85C20.8203 130.85 22.92 128.75 22.92 126.16C22.92 123.57 20.8203 121.47 18.23 121.47C15.6398 121.47 13.54 123.57 13.54 126.16C13.54 128.75 15.6398 130.85 18.23 130.85Z" fill="#00E19A"/>
<path d="M179.28 130.85C181.87 130.85 183.97 128.75 183.97 126.16C183.97 123.57 181.87 121.47 179.28 121.47C176.69 121.47 174.59 123.57 174.59 126.16C174.59 128.75 176.69 130.85 179.28 130.85Z" fill="#00E19A"/>
</g>
<defs>
<clipPath id="clip0_0_6499">
<rect width="197.51" height="141.64" fill="white"/>
</clipPath>
</defs>
</svg>
