<svg width="153" height="188" viewBox="0 0 153 188" fill="none" xmlns="http://www.w3.org/2000/svg">
<path d="M9.19995 162V67C10.6 30 41.7 1.1 78.7 2.5C113.8 3.8 141.9 31.9 143.2 67V162H9.19995Z" fill="#2AA27F"/>
<path d="M134.1 153H18.3V67C18.3 35 44.2 9.1 76.1 9.1C76.1 9.1 76.1 9.1 76.2 9.1C108.2 9.1 134.1 35 134.1 67C134.1 67 134.1 67 134.1 67.1V153Z" fill="#FEC401"/>
<path d="M30.2 58.4C30.2 58.4 28.1 62.5 32.7 62.5L31.7 63.5C31.7 63.5 37.4 65.4 40.3 62.2C40.3 62.2 37.9 62.9 37 62.6C36.6 60.2 37.4 57.7 39.1 55.9C36.4 56.2 34.3 58.3 34.1 61.1C32.7 60.3 31.4 59.4 30.2 58.4Z" fill="#1E1107"/>
<path d="M52.5 60C52.5 60 52.7 61.1 52.3 61.2C51.9 61.3 50.9 60.4 50.9 58.8C50.9 57.2 55.7 57.4 55.7 57.4L54.5 58.2C54.5 58.2 55.9 62 55.2 62.5C54.5 63 52.6 60.8 52.5 60Z" fill="#1E1107"/>
<path d="M59.9 50.6C59.9 50.6 62.8 52.5 63.8 54.4C64.8 56.3 65.5 53.7 63.4 51.9C63.4 51.9 64.2 51.3 63.6 50.9C63 50.5 62.5 51.4 62.5 51.4C62.5 51.4 60.4 49.6 59.9 50.6Z" fill="#1E1107"/>
<path d="M93.7 55.1C100.935 55.1 106.8 49.2349 106.8 42C106.8 34.7651 100.935 28.9 93.7 28.9C86.465 28.9 80.6 34.7651 80.6 42C80.6 49.2349 86.465 55.1 93.7 55.1Z" fill="#A969E3"/>
<path d="M99.1001 138.1H35L18.3 135.9V108.4C25.7 101.4 44.3001 83.4 48.9001 77.5C49.3001 77 50.1 76.8 50.7001 77.2C55.7001 80.5 77 94 91.2 96.3L99.1001 138.1Z" fill="#FF8C1F"/>
<path d="M134.1 108.4V150.3C134.1 150.3 134 150.3 133.9 150.3L54.9 148.6C54.6 148.6 54.3 148.4 54.2 148L47.8 121C47.7 120.8 47.8 120.5 48 120.3C49.8 118.4 59.7 108.3 69.3 105.3C79.4 102.1 98.9 88.5 104.4 83.8C104.7 83.5 105.2 83.6 105.5 83.9C105.5 84 105.6 84 105.6 84.1C106.9 86.7 111 94.1 115.1 95.6C119.6 97.3 126.7 101 134.1 108.4Z" fill="#FFB171"/>
<path d="M132.9 140.9V153H18.3V125.3C21.2 122.3 26.1 117.2 32.8 109.6C33.4 108.9 34.5 108.8 35.3 109.3C38.3 111.5 41.6 113.3 45 114.6C51.8 117.1 57.8 123.2 66.4001 129.2C75.0001 135.3 125.8 141.6 132.9 140.9Z" fill="#D86F19"/>
<path d="M134.1 114V153H18.3V145.1C23.8 149.2 33.4001 152.3 49.4001 148.2C73.6001 142 113 126 134.1 114Z" fill="#6D380C"/>
</svg>
