<svg width="159" height="154" viewBox="0 0 159 154" fill="none" xmlns="http://www.w3.org/2000/svg">
<g clip-path="url(#clip0_0_6534)">
<path d="M155.89 51.61C154.477 48.0866 152.349 44.8945 149.639 42.2353C146.93 39.576 143.699 37.5074 140.15 36.16C136.574 34.7819 132.772 34.0833 128.94 34.1C125.023 34.1126 121.137 34.8097 117.46 36.16C113.492 37.6488 109.848 39.8898 106.73 42.76C107.979 40.2994 108.916 37.6926 109.52 35C109.992 32.6662 110.23 30.2911 110.23 27.91C110.276 24.1442 109.517 20.4121 108.005 16.963C106.492 13.514 104.261 10.4275 101.46 7.91C98.572 5.36461 95.221 3.39886 91.59 2.12C83.5173 -0.626813 74.7628 -0.626813 66.69 2.12C63.0619 3.39865 59.7142 5.36449 56.83 7.91C54.0252 10.425 51.7907 13.5107 50.2764 16.9602C48.7621 20.4097 48.003 24.1431 48.05 27.91C48.0555 30.2939 48.3136 32.6705 48.82 35C49.4596 37.6953 50.4128 40.3065 51.66 42.78C48.5359 39.9072 44.8855 37.666 40.91 36.18C37.241 34.822 33.3622 34.118 29.45 34.1C25.5848 34.0788 21.7495 34.7774 18.14 36.16C14.6553 37.4964 11.473 39.516 8.78002 42.1C6.02246 44.802 3.84478 48.0379 2.38002 51.61C0.738249 55.6954 -0.0709154 60.0676 1.84835e-05 64.47C1.84835e-05 70.12 1.08002 74.83 3.21002 78.62C5.23486 82.2875 8.09976 85.4231 11.57 87.77C15.1742 90.1319 19.1908 91.7942 23.41 92.67C27.9025 93.6391 32.4965 94.0555 37.09 93.91C30.07 97.0167 24.7867 101.097 21.24 106.15C17.7216 111.115 15.8599 117.065 15.92 123.15C15.886 127.236 16.5627 131.296 17.92 135.15C19.154 138.712 21.1621 141.957 23.8 144.65C26.5926 147.424 29.9578 149.554 33.66 150.89C38.1474 152.503 42.8926 153.279 47.66 153.18C52.5052 153.325 57.3218 152.389 61.76 150.44C65.3617 148.783 68.5823 146.4 71.22 143.44C73.6778 140.621 75.569 137.355 76.79 133.82C77.9927 130.428 78.7948 126.908 79.18 123.33C79.6188 126.905 80.4437 130.422 81.64 133.82C82.8736 137.345 84.7561 140.608 87.19 143.44C89.7934 146.407 92.9929 148.792 96.58 150.44C101.018 152.389 105.835 153.325 110.68 153.18C115.447 153.279 120.193 152.503 124.68 150.89C128.392 149.544 131.772 147.416 134.59 144.65C137.262 141.971 139.296 138.724 140.54 135.15C141.883 131.292 142.559 127.234 142.54 123.15C142.6 117.065 140.738 111.115 137.22 106.15C133.68 101.09 128.38 97.02 121.37 93.91C125.93 94.0514 130.491 93.635 134.95 92.67C139.179 91.7868 143.208 90.1252 146.83 87.77C150.324 85.4511 153.195 82.309 155.19 78.62C157.297 74.8267 158.35 70.11 158.35 64.47C158.41 60.0609 157.573 55.6856 155.89 51.61ZM104.35 87.19C102.956 90.4287 100.961 93.3739 98.47 95.87C95.9755 98.357 93.025 100.34 89.78 101.71C86.4266 103.11 82.8288 103.83 79.195 103.83C75.5612 103.83 71.9634 103.11 68.61 101.71C65.3637 100.342 62.4128 98.3591 59.92 95.87C57.412 93.38 55.4026 90.4339 54 87.19C52.5671 83.8415 51.8283 80.2372 51.8283 76.595C51.8283 72.9528 52.5671 69.3485 54 66C56.8351 59.4635 62.0619 54.2582 68.61 51.45C71.9567 50.0238 75.5571 49.2886 79.195 49.2886C82.8329 49.2886 86.4333 50.0238 89.78 51.45C96.3131 54.2666 101.524 59.4708 104.35 66C105.782 69.3471 106.52 72.9496 106.52 76.59C106.52 80.2304 105.782 83.8329 104.35 87.18V87.19Z" fill="#FFC300"/>
<path d="M106.52 76.55C106.548 80.2093 105.808 83.8338 104.35 87.19C102.956 90.4287 100.961 93.3739 98.47 95.87C95.9755 98.357 93.025 100.34 89.78 101.71C86.4266 103.11 82.8288 103.83 79.195 103.83C75.5612 103.83 71.9634 103.11 68.61 101.71C65.3637 100.342 62.4127 98.3591 59.92 95.87C57.4119 93.38 55.4026 90.4339 54 87.19C52.5671 83.8415 51.8282 80.2372 51.8282 76.595C51.8282 72.9528 52.5671 69.3485 54 66C56.8351 59.4635 62.0619 54.2582 68.61 51.45C71.9567 50.0238 75.5571 49.2886 79.195 49.2886C82.8329 49.2886 86.4333 50.0238 89.78 51.45C96.313 54.2666 101.524 59.4708 104.35 66C105.802 69.3266 106.541 72.9204 106.52 76.55Z" fill="#FFF3CD"/>
<path d="M71.66 74.09C72.9302 74.09 73.96 71.8559 73.96 69.1C73.96 66.3441 72.9302 64.11 71.66 64.11C70.3897 64.11 69.36 66.3441 69.36 69.1C69.36 71.8559 70.3897 74.09 71.66 74.09Z" fill="#FF8C17"/>
<path d="M86.73 74.09C88.0003 74.09 89.03 71.8559 89.03 69.1C89.03 66.3441 88.0003 64.11 86.73 64.11C85.4597 64.11 84.43 66.3441 84.43 69.1C84.43 71.8559 85.4597 74.09 86.73 74.09Z" fill="#FF8C17"/>
<path d="M100.4 77.55L99.74 76.94C99.4917 77.2094 99.171 77.4016 98.8164 77.4938C98.4618 77.586 98.0882 77.5743 97.74 77.46C97.3912 77.3273 97.0864 77.0996 96.8602 76.8027C96.634 76.5058 96.4954 76.1516 96.46 75.78L95.57 75.84C95.6036 76.3054 95.7517 76.7553 96.0012 77.1496C96.2507 77.5439 96.5938 77.8704 97 78.1C96.957 80.3131 96.4849 82.4968 95.61 84.53C94.7035 86.6447 93.4 88.5661 91.77 90.19C90.1409 91.8154 88.212 93.1093 86.09 94C83.907 94.9172 81.5629 95.3897 79.195 95.3897C76.8271 95.3897 74.4831 94.9172 72.3 94C70.1884 93.1112 68.2695 91.8206 66.65 90.2C65.0244 88.5725 63.7215 86.652 62.81 84.54C61.9341 82.5036 61.462 80.3164 61.42 78.1C61.8243 77.8706 62.1661 77.5455 62.4155 77.1532C62.6648 76.7609 62.814 76.3134 62.85 75.85L61.95 75.79C61.9257 76.1642 61.7917 76.523 61.5648 76.8216C61.3379 77.1202 61.0281 77.3454 60.6741 77.4691C60.32 77.5928 59.9374 77.6096 59.5739 77.5172C59.2104 77.4249 58.8821 77.2276 58.63 76.95L57.97 77.56C58.234 77.8458 58.554 78.0742 58.9102 78.2307C59.2664 78.3873 59.651 78.4688 60.04 78.47C60.2063 78.4853 60.3737 78.4853 60.54 78.47C60.6279 80.6816 61.1228 82.858 62 84.89C62.9488 87.1034 64.3058 89.1185 66 90.83C67.6999 92.5383 69.7179 93.8972 71.94 94.83C74.2182 95.8048 76.6721 96.3017 79.15 96.29C81.6499 96.3051 84.1267 95.8118 86.43 94.84C88.6457 93.8952 90.6615 92.5378 92.37 90.84C94.0602 89.1252 95.4167 87.111 96.37 84.9C97.2498 82.8517 97.7415 80.6578 97.82 78.43C97.9799 78.4399 98.1402 78.4399 98.3 78.43C98.6921 78.438 99.0815 78.3638 99.4432 78.2122C99.8048 78.0607 100.131 77.8351 100.4 77.55Z" fill="#FF8C17"/>
</g>
<defs>
<clipPath id="clip0_0_6534">
<rect width="158.28" height="153.22" fill="white"/>
</clipPath>
</defs>
</svg>
