<svg width="323" height="151" viewBox="0 0 323 151" fill="none" xmlns="http://www.w3.org/2000/svg">
<g clip-path="url(#clip0_0_6543)">
<path d="M38.49 23.08L34.15 70L0 66.85L4.34 19.93L38.49 23.08ZM29.64 34.32C29.47 31.03 28.44 28.77 26.57 27.55C24.2463 26.2148 21.5863 25.5793 18.91 25.72C16.47 25.5934 14.0748 26.4097 12.22 28C11.3707 28.8059 10.7064 29.7866 10.273 30.8743C9.83965 31.962 9.64756 33.1308 9.71 34.3C9.68654 35.5289 10.0125 36.7391 10.65 37.79C11.3184 38.8589 12.2211 39.7616 13.29 40.43C14.1192 40.9589 15.0004 41.4012 15.92 41.75C16.92 42.12 17.92 42.48 18.86 42.82C19.8 43.16 20.81 43.51 21.72 43.88C22.5813 44.2245 23.3841 44.7002 24.1 45.29C24.6361 45.6914 25.0484 46.2354 25.29 46.86C25.5207 47.4736 25.6359 48.1245 25.63 48.78C25.6349 49.6342 25.4178 50.475 25 51.22C24.6257 51.9088 24.1153 52.5143 23.5 53C22.8644 53.4922 22.1466 53.868 21.38 54.11C20.582 54.3666 19.7483 54.4948 18.91 54.49C16.7722 54.5592 14.6822 53.8483 13.03 52.49C12.2519 51.8451 11.6326 51.0299 11.2199 50.1074C10.8072 49.1849 10.6122 48.1799 10.65 47.17L7.65 47.34C7.69528 50.085 8.76535 52.7138 10.65 54.71C12.4633 56.55 15.0733 57.47 18.48 57.47C19.8356 57.4777 21.1844 57.2788 22.48 56.88C23.6652 56.517 24.7665 55.9221 25.72 55.13C26.6709 54.3348 27.4333 53.3382 27.9521 52.2124C28.471 51.0866 28.7332 49.8596 28.72 48.62C28.7552 47.49 28.5085 46.3691 28.0022 45.3582C27.496 44.3474 26.746 43.4785 25.82 42.83C25.0294 42.2597 24.1733 41.7864 23.27 41.42C22.36 41.05 21.41 40.7 20.42 40.36C19.43 40.02 18.42 39.66 17.52 39.29C16.607 38.9457 15.7296 38.5137 14.9 38C14.2274 37.5899 13.6711 37.0142 13.2842 36.328C12.8973 35.6417 12.6927 34.8678 12.69 34.08C12.6772 33.3791 12.8193 32.684 13.1063 32.0444C13.3932 31.4048 13.8179 30.8364 14.35 30.38C15.46 29.38 17.17 28.89 19.5 28.89C21.3456 28.7869 23.1775 29.2623 24.74 30.25C26.02 31.16 26.68 32.69 26.74 34.85L29.64 34.32Z" fill="#FFC200"/>
<path d="M47.52 71.79L41.52 24.27L86.05 18.74L92.05 66.25L47.52 71.79ZM79.52 23.79L75.6 24.22L78.75 49.22C78.8075 49.4862 78.8376 49.7576 78.84 50.03V50.84C78.8613 52.2621 78.6066 53.6749 78.09 55C77.5905 56.2715 76.8386 57.4285 75.8795 58.4013C74.9205 59.3741 73.7742 60.1425 72.51 60.66C71.1241 61.243 69.6334 61.5357 68.13 61.52C66.8525 61.5477 65.5826 61.3165 64.3968 60.8405C63.211 60.3645 62.1337 59.6533 61.23 58.75C59.3254 56.8415 58.1505 54.3255 57.91 51.64L54.84 26.83L47.18 27.76L47.6 31.68L51.52 31.17L54.16 52C54.3693 53.8159 54.8726 55.5857 55.65 57.24C56.3924 58.8131 57.4082 60.2419 58.65 61.46C59.8726 62.6473 61.3031 63.5998 62.87 64.27C64.5138 64.9536 66.2799 65.2939 68.06 65.27C71.9277 65.3036 75.6504 63.8001 78.41 61.09C79.7478 59.7788 80.8176 58.2198 81.56 56.5C82.3421 54.6711 82.7338 52.699 82.71 50.71V49.71C82.7087 49.3747 82.6785 49.0401 82.62 48.71L79.52 23.79Z" fill="#9D6AEB"/>
<path d="M151 69.32L92 60.12L101.34 0L159.34 8.94L151 69.32ZM145.46 58.25L151.59 18.91L145.29 17.91L126.46 48.37L117.09 13.88L106.45 12.6L106.02 16.6L110.45 17.11L105 52.71L108.41 53.23L113.94 17.71L125.1 58.25L147.67 22.57L142.21 57.82L145.46 58.25Z" fill="#F999A7"/>
<path d="M212.3 62.42H162.14V16.52H211.53L212.3 62.42ZM206.85 54.84V24.78H202.08L191.61 49.65L180.62 25L172.53 25.25L172.62 28.32L176.02 28.23V55.44L178.66 55.35V28.27L191.66 57.27L204.38 28V54.93L206.85 54.84Z" fill="#FF8C17"/>
<path d="M257.35 4.43L262.35 54.25L222.16 58.42L217 8.52L257.35 4.43ZM251.35 12.26L222.99 15.26L223.59 20.46L228.44 20.03L231.68 52.48L256.07 50L255.56 44.63L236.49 46.63L235.29 34.97L252.92 33.26L252.41 27.9L234.78 29.69L233.78 19.47L252.09 17.59L251.35 12.26Z" fill="#FFC500"/>
<path d="M322.5 64.3L272.59 72.73L263.48 19.16L313.38 10.73L322.5 64.3ZM309.3 61.66L311.89 61.23L313.72 60.93C314.24 60.85 314.72 60.76 315.09 60.68L316.45 60.38L315.85 56.97C314.94 57.2 314.01 57.4 313.04 57.57L309.04 58.25C308.76 58.31 308.5 58.35 308.27 58.38C308.017 58.3966 307.763 58.3966 307.51 58.38C305.898 58.3942 304.343 57.7851 303.17 56.68C301.813 55.3549 300.866 53.668 300.44 51.82C300.15 50.69 299.87 49.45 299.59 48.12C299.31 46.8147 298.925 45.5339 298.44 44.29C297.984 43.1178 297.368 42.0141 296.61 41.01C295.866 40.0381 294.86 39.2991 293.71 38.88C295.04 38.1721 296.135 37.0912 296.86 35.77C297.539 34.4683 297.883 33.0179 297.86 31.55C297.86 28.55 297.01 26.33 295.31 24.91C293.424 23.4263 291.067 22.6703 288.67 22.78C288.04 22.78 287.42 22.78 286.79 22.87C286.16 22.96 285.52 23.01 284.84 23.12C282.28 23.58 280.22 23.93 278.66 24.19L274.79 24.83C273.79 25 272.88 25.15 272.15 25.29L269.76 25.76L270.36 29.09L273.94 28.49L279.13 59.06L282.45 58.46L279.83 43L288.94 41.46C289.334 41.4005 289.732 41.3738 290.13 41.38C290.696 41.3493 291.263 41.4316 291.797 41.6222C292.331 41.8128 292.821 42.1078 293.24 42.49C294.052 43.2885 294.692 44.2448 295.12 45.3C295.622 46.5072 296.007 47.7595 296.27 49.04C296.532 50.3638 296.866 51.6723 297.27 52.96C297.904 55.4957 299.267 57.7901 301.19 59.56C302.886 61.042 305.068 61.8467 307.32 61.82C307.66 61.82 307.98 61.82 308.32 61.82L309.3 61.66ZM288.77 26.23C290.23 26.189 291.654 26.6874 292.77 27.63C293.346 28.1633 293.795 28.8197 294.082 29.5503C294.37 30.281 294.488 31.067 294.43 31.85C294.43 35.31 291.65 37.5233 286.09 38.49L283.58 38.92L281.87 39.22L280.59 39.43C280.22 39.49 279.79 39.54 279.27 39.6L277.36 28C279.18 27.66 281.11 27.27 283.15 26.85C284.997 26.4509 286.88 26.2431 288.77 26.23Z" fill="#F998AB"/>
<path d="M114.5 138.66L64.68 143.18L58.68 77.69L108.5 73.18L114.5 138.66ZM101.72 101.79L101.04 93.79L68.94 96.68L69.7 104.68L82 103.58L85 137.47L93 136.71L89.88 102.9L101.72 101.79Z" fill="#C2C343"/>
<path d="M142.85 147L119.69 142.91L129.23 88.91L152.48 93.17L142.85 147ZM135.36 137.63L142.26 99.14L133.83 97.61L133.06 101.52L137.57 102.29L131.57 136.95L135.36 137.63Z" fill="#9E6AF3"/>
<path d="M209.7 150.08L150.7 140.88L160.07 80.75L218.07 89.75L209.7 150.08ZM204.17 139L210.3 99.66L204 98.66L185.18 129.15L175.81 94.66L165.17 93.38L164.74 97.38L169.17 97.89L163.72 133.49L167.12 134L172.66 98.49L183.82 139L206.38 103.32L200.93 138.58L204.17 139Z" fill="#E0C0FF"/>
<path d="M265.31 92L262.5 144.11L220.5 141.9L223.14 89.78L265.31 92ZM258 99.15L228.36 97.62L228.11 103.07L233.11 103.41L231.24 137.3L256.7 138.66L257.04 133.13L237.12 132L237.72 119.82L256.2 120.82L256.54 115.28L238.06 114.28L238.66 103.63L257.73 104.63L258 99.15Z" fill="#FF8C17"/>
</g>
<defs>
<clipPath id="clip0_0_6543">
<rect width="322.5" height="150.08" fill="white"/>
</clipPath>
</defs>
</svg>
