<svg width="170" height="170" viewBox="0 0 170 170" fill="none" xmlns="http://www.w3.org/2000/svg">
<g clip-path="url(#clip0_0_6557)">
<path d="M84.82 169.64C131.665 169.64 169.64 131.665 169.64 84.82C169.64 37.9752 131.665 0 84.82 0C37.9752 0 0 37.9752 0 84.82C0 131.665 37.9752 169.64 84.82 169.64Z" fill="#FF9018"/>
<path d="M84.82 143.34C117.14 143.34 143.34 117.14 143.34 84.82C143.34 52.5003 117.14 26.3 84.82 26.3C52.5003 26.3 26.3 52.5003 26.3 84.82C26.3 117.14 52.5003 143.34 84.82 143.34Z" fill="#FEC305"/>
<path d="M67.94 79.93C67.5186 82.0052 67.364 84.1257 67.48 86.24C65.6267 85.8533 61.71 84.9833 55.73 83.63C50.87 82.55 46.87 81.76 43.73 81.26C47.7089 80.7435 51.7178 80.493 55.73 80.51C59.8073 80.5264 63.8827 80.3328 67.94 79.93ZM69.27 93.82C70.9514 95.1393 72.3178 96.8166 73.27 98.73C69.8447 100.544 66.5229 102.547 63.32 104.73C58.84 107.73 55.59 109.79 53.54 110.87C53.39 111.1 53.39 110.96 53.54 110.46C55.62 108.3 58.2433 105.543 61.41 102.19C65.9967 97.3433 68.6167 94.5533 69.27 93.82ZM67.07 88C67.57 88.08 67.9033 88.64 68.07 89.68C68.22 90.76 68.49 91.39 68.88 91.59C66.455 92.2912 63.9768 92.7929 61.47 93.09C58.9574 93.4123 56.4779 93.9543 54.06 94.71C54.88 93.79 56.88 92.71 60.06 91.41C62.5025 90.5053 64.8505 89.3631 67.07 88ZM70.2 74.55C70.1222 75.1964 69.8813 75.8123 69.5 76.34C69.135 76.874 68.9177 77.495 68.87 78.14C66.6255 77.0335 64.4924 75.7141 62.5 74.2C60.5211 72.7068 58.4541 71.3343 56.31 70.09C58.6317 70.3449 60.8937 70.9906 63 72C65.3262 73.0456 67.7343 73.8985 70.2 74.55ZM76 69.17C75.1933 69.8638 74.4223 70.5981 73.69 71.37C72.9426 72.1661 72.0364 72.7963 71.03 73.22C68.21 68.16 64.0433 61.5833 58.53 53.49C61.5977 55.7207 64.4804 58.1954 67.15 60.89C71.9167 65.45 74.8667 68.21 76 69.17ZM84.51 69.17C88.1724 68.9927 91.7854 70.0723 94.75 72.23C96.2777 73.2613 97.5821 74.5897 98.5855 76.136C99.5888 77.6822 100.271 79.4146 100.59 81.23C101.053 83.3093 101.081 85.4617 100.673 87.5524C100.265 89.6431 99.4302 91.6271 98.22 93.38C96.0497 96.518 92.8294 98.7772 89.14 99.75C85.5641 100.913 81.6942 100.789 78.2 99.4C76.3473 98.6801 74.6727 97.5671 73.2916 96.1376C71.9105 94.7082 70.8558 92.9963 70.2 91.12C67.96 85.38 68.44 80.29 71.64 75.85C73.115 73.7998 75.0528 72.1265 77.296 70.9658C79.5392 69.8051 82.0244 69.1899 84.55 69.17H84.51ZM70.2 113.55C70.5154 111.13 71.1894 108.771 72.2 106.55C73.9 102.34 74.86 99.89 75.1 99.2C76.2165 99.9542 77.4267 100.559 78.7 101C78.12 101.89 76.7 104 74.36 107.19C72.8238 109.208 71.4336 111.334 70.2 113.55ZM78.2 68.76C77.3133 66.18 76.4267 61.5533 75.54 54.88C75.38 53.83 75.67 54.11 76.41 55.69C76.64 56.19 76.96 56.92 77.41 57.89C77.86 58.86 78.14 59.64 78.22 59.79C79.4486 62.2383 80.4915 64.7754 81.34 67.38C80.8582 67.7167 80.3027 67.9328 79.72 68.01C79.1503 68.0662 78.6222 68.3338 78.24 68.76H78.2ZM80.46 101.92C80.69 101.92 81.61 102.03 83.23 102.26C84.2459 102.418 85.2786 102.439 86.3 102.32C85.76 105.14 84.93 109.037 83.81 114.01C82.6233 119.343 81.7933 123.22 81.32 125.64C80.1333 119.64 80.4433 116.207 82.25 115.34C82.13 114.947 81.88 114.967 81.5 115.4C81.07 115.82 80.72 115.8 80.5 115.34L80.46 101.92ZM89.89 67.38C89.42 67.68 88.48 67.68 87.05 67.38C85.9296 67.096 84.7754 66.9681 83.62 67C84.08 64.4867 84.91 60.61 86.11 55.37C87.23 50.3567 88.04 46.46 88.54 43.68C89.0358 47.768 89.2862 51.882 89.29 56C89.2836 59.8025 89.4973 63.6022 89.93 67.38H89.89ZM88.5 101.92C89.1606 101.941 89.8163 101.8 90.41 101.51C90.9392 101.25 91.5062 101.074 92.09 100.99C92.419 103.5 92.883 105.99 93.48 108.45C94.0203 110.552 94.309 112.71 94.34 114.88C94.34 115.88 94.19 115.98 94 115.28C93.53 113.93 93.36 113.35 93.48 113.55C91.4894 109.829 89.8361 105.936 88.54 101.92H88.5ZM99.76 56.21C99.6867 56.9367 98.0467 61.5633 94.84 70.09C94.3211 69.8796 93.8196 69.6289 93.34 69.34C92.8522 69.0237 92.2977 68.8252 91.72 68.76C92.7164 66.4483 93.9998 64.2712 95.54 62.28C97.74 59.31 99.14 57.29 99.76 56.21ZM93.92 99.66C95.5349 99.0426 96.928 97.956 97.92 96.54C100.569 99.4184 102.878 102.593 104.8 106C106.772 109.406 108.974 112.673 111.39 115.78C106.263 112.407 100.44 107.033 93.92 99.66ZM100.63 75.88C99.0984 74.4117 97.7548 72.7591 96.63 70.96C104.69 66.1 110.957 62.07 115.43 58.87C115.9 58.87 116.13 58.95 116.13 59.1C116.107 59.2028 116.066 59.3008 116.01 59.39C115.941 59.5124 115.903 59.6497 115.9 59.79C110.82 64.6633 105.73 70.0267 100.63 75.88ZM99.76 94.74C99.7576 94.4153 99.823 94.0937 99.9522 93.7957C100.081 93.4978 100.271 93.2302 100.51 93.01C100.745 92.7666 100.92 92.4717 101.02 92.1488C101.121 91.8258 101.145 91.4838 101.09 91.15C102.25 91.8167 104.25 93.1867 107.09 95.26C109.031 96.7008 111.062 98.0168 113.17 99.2C110.891 98.9412 108.665 98.3341 106.57 97.4C102.54 95.78 100.26 94.9 99.76 94.74ZM101.56 77.67C103.9 77.3586 106.218 76.8977 108.5 76.29C110.453 75.743 112.472 75.4671 114.5 75.47C115.31 75.47 115.5 75.61 115.13 75.76C115.06 75.76 114.8 75.9 114.38 76.05C113.96 76.2 113.78 76.27 113.63 76.34L102.41 81.26C101.9 80.07 101.65 79.47 101.65 79.47C101.65 79.47 101.63 78.87 101.56 77.67ZM102.43 83.52C114.81 85.9067 122.427 87.7 125.28 88.9C122.46 88.78 118.563 88.8367 113.59 89.07C108.497 89.3433 104.64 89.44 102.02 89.36C102.372 87.4345 102.51 85.4758 102.43 83.52Z" fill="#FF9018"/>
<path d="M11.75 73.39L13.07 67L15.52 67.38V67.59C14.8336 67.6872 14.1776 67.9366 13.6 68.32C13.1628 68.7332 12.8804 69.2838 12.8 69.88L12.72 70.31L16.5 71.09L16.58 70.67C16.6127 70.4965 16.6092 70.318 16.5696 70.1459C16.53 69.9738 16.4552 69.8118 16.35 69.67C16.0709 69.317 15.706 69.0416 15.29 68.87V68.69L18.91 69.44V69.65C18.4137 69.6316 17.9211 69.7418 17.48 69.97C17.3209 70.0772 17.1856 70.216 17.0824 70.3777C16.9792 70.5394 16.9103 70.7206 16.88 70.91L16.82 71.21L20.7 72L20.79 71.53C20.942 70.8514 20.8426 70.1407 20.51 69.53C20.1807 68.8734 19.6522 68.3379 19 68V67.75L21.65 68.4L20.26 75.12H19.99L20.14 74.39L12.14 72.74L11.99 73.46L11.75 73.39Z" fill="#FFF3C6"/>
<path d="M16.1 58.16L24.17 60.89L23.6 62.55L14.6 64.02L22 66.54L22.22 65.89L22.45 65.96L21.9 67.58L21.67 67.51L21.9 66.86L14.06 64.2L13.84 64.85L13.61 64.78L14.72 61.51L21.72 60.42L16 58.48L15.78 59.13L15.55 59.06L16.1 57.44L16.33 57.51L16.1 58.16Z" fill="#FFF3C6"/>
<path d="M17.38 54.64L19.1 51L19.31 51.1L19.02 51.72L23.92 54C24.7607 54.3009 25.4477 54.9231 25.83 55.73C25.9482 56.126 25.9852 56.5419 25.9388 56.9525C25.8924 57.3632 25.7636 57.7603 25.56 58.12C25.3572 58.6397 25.0103 59.0907 24.56 59.42C24.3782 59.5403 24.1682 59.611 23.9507 59.625C23.7331 59.639 23.5157 59.5959 23.32 59.5C23.0332 59.3808 22.8038 59.1549 22.68 58.87C22.6328 58.7277 22.6147 58.5773 22.6268 58.4279C22.6388 58.2785 22.6807 58.1329 22.75 58C22.7979 57.8669 22.8735 57.7456 22.9717 57.6439C23.07 57.5422 23.1887 57.4625 23.32 57.41C23.4272 57.3632 23.543 57.339 23.66 57.339C23.777 57.339 23.8928 57.3632 24 57.41C24.2293 57.5168 24.4363 57.6661 24.61 57.85L24.41 58.29C24.4761 58.3959 24.5693 58.4822 24.68 58.54C24.732 58.5689 24.7905 58.5841 24.85 58.5841C24.9095 58.5841 24.968 58.5689 25.02 58.54C25.1489 58.4543 25.2497 58.3326 25.31 58.19C25.381 58.0736 25.4116 57.937 25.3972 57.8014C25.3827 57.6659 25.324 57.5388 25.23 57.44C24.7741 57.0906 24.2728 56.8046 23.74 56.59L18 53.89L17.6 54.74L17.38 54.64Z" fill="#FFF3C6"/>
<path d="M29.53 50.65C29.2692 51.1594 28.9021 51.6068 28.4536 51.9622C28.0051 52.3176 27.4855 52.5726 26.93 52.71C25.7526 52.8552 24.5637 52.5517 23.6 51.86C22.5249 51.2724 21.7108 50.3012 21.32 49.14C21.1737 48.5778 21.1515 47.9905 21.2551 47.4189C21.3588 46.8472 21.5856 46.3051 21.92 45.83C22.1805 45.3266 22.5483 44.8865 22.9976 44.5409C23.4469 44.1953 23.9666 43.9526 24.52 43.83C25.7119 43.6988 26.9106 44.0082 27.89 44.7C28.9524 45.27 29.765 46.2144 30.17 47.35C30.3169 47.9129 30.3356 48.5016 30.2249 49.0727C30.1141 49.6438 29.8767 50.1828 29.53 50.65ZM27 47.19L26.21 46.71C25.4198 46.1486 24.5547 45.7009 23.64 45.38C23.4565 45.3215 23.2621 45.3055 23.0716 45.3333C22.881 45.361 22.6992 45.4317 22.54 45.54C22.3706 45.6717 22.2281 45.8346 22.12 46.02C22.0015 46.2035 21.9169 46.4067 21.87 46.62C21.8302 46.8116 21.8512 47.0109 21.93 47.19C22.0104 47.3708 22.1111 47.5419 22.23 47.7C22.3977 47.9051 22.589 48.0897 22.8 48.25C23.3697 48.6809 23.9641 49.0783 24.58 49.44L25.34 49.92C25.9497 50.3025 26.5883 50.6369 27.25 50.92C27.5424 51.0557 27.8581 51.1338 28.18 51.15C28.4165 51.1515 28.6489 51.0879 28.8517 50.9662C29.0545 50.8445 29.22 50.6694 29.33 50.46C29.5045 50.2432 29.5997 49.9733 29.5997 49.695C29.5997 49.4167 29.5045 49.1468 29.33 48.93C28.6438 48.2378 27.8586 47.6514 27 47.19Z" fill="#FFF3C6"/>
<path d="M31 40.44L29.06 36.61L28.27 37.61L28.11 37.48L29.65 35.56L29.81 35.69L29.29 36.33L31.37 40.42L34.6 43L35.08 42.4L35.27 42.55L32.79 45.64L32.6 45.49L33.08 44.9L30.08 42.46L25.31 41.35L24.94 41.81L24.78 41.68L27.29 38.57L27.44 38.69L26.93 39.33L31 40.44Z" fill="#FFF3C6"/>
<path d="M38.63 32.55L37.32 28.46L36.38 29.31L36.25 29.16L38.07 27.51L38.2 27.66L37.59 28.21L39 32.57L41.79 35.63L42.35 35.12L42.51 35.29L39.58 38L39.42 37.82L39.98 37.31L37.36 34.42L32.82 32.59L32.38 32.98L32.25 32.84L35.25 30.15L35.38 30.29L34.78 30.84L38.63 32.55Z" fill="#FFF3C6"/>
<path d="M47 32C46.5627 32.3675 46.0517 32.6371 45.5014 32.7907C44.9512 32.9442 44.3744 32.978 43.81 32.89C42.6671 32.5732 41.6853 31.8378 41.06 30.83C40.2885 29.8681 39.9098 28.6498 40 27.42C40.081 26.8462 40.2857 26.2968 40.5999 25.8099C40.9142 25.323 41.3305 24.9102 41.82 24.6C42.2567 24.2368 42.7679 23.9741 43.3175 23.8307C43.8671 23.6872 44.4415 23.6665 45 23.77C46.1524 24.1011 47.14 24.8498 47.77 25.87C48.5343 26.8027 48.9261 27.9854 48.87 29.19C48.7819 29.7664 48.5689 30.3165 48.2459 30.8019C47.9229 31.2873 47.4977 31.6962 47 32ZM46 27.8L45.46 27.05C44.9419 26.2332 44.3163 25.4899 43.6 24.84C43.4528 24.7148 43.2792 24.6246 43.0921 24.5761C42.9051 24.5276 42.7095 24.5221 42.52 24.56C42.3135 24.62 42.1201 24.7183 41.95 24.85C41.7674 24.9744 41.6083 25.1301 41.48 25.31C41.3697 25.4675 41.3167 25.6581 41.33 25.85C41.3279 26.0489 41.3515 26.2471 41.4 26.44C41.4799 26.6942 41.5872 26.939 41.72 27.17C41.96 27.59 42.35 28.17 42.9 28.95L43.43 29.68C43.833 30.2821 44.288 30.8476 44.79 31.37C45.0079 31.61 45.2692 31.8068 45.56 31.95C45.7795 32.0379 46.0184 32.0657 46.2521 32.0305C46.4859 31.9954 46.7061 31.8985 46.89 31.75C47.1309 31.6123 47.3177 31.3966 47.4195 31.1384C47.5213 30.8802 47.5321 30.5951 47.45 30.33C47.0929 29.4203 46.6044 28.568 46 27.8Z" fill="#FFF3C6"/>
<path d="M53.45 26.73C53.6976 26.8439 53.9705 26.8917 54.2421 26.8689C54.5137 26.8462 54.7748 26.7535 55 26.6C55.2677 26.4776 55.5051 26.2976 55.6953 26.0729C55.8854 25.8482 56.0236 25.5843 56.1 25.3C56.2025 24.6033 56.0498 23.893 55.67 23.3L53.02 18.3L52.3 18.68L52.19 18.47L53.8 17.62L53.91 17.83L53.31 18.15L55.92 23.06C56.3617 23.7621 56.5324 24.6011 56.4 25.42C56.242 25.8297 56.0016 26.2025 55.6937 26.5156C55.3858 26.8286 55.017 27.0752 54.61 27.24C53.8055 27.7353 52.8594 27.9499 51.92 27.85C51.4726 27.7295 51.0592 27.5069 50.7122 27.1998C50.3652 26.8927 50.094 26.5094 49.92 26.08L47.37 21.29L46.76 21.62L46.65 21.41L50.13 19.56L50.24 19.77L49.52 20.15L52.27 25.31C52.5212 25.8854 52.9303 26.3778 53.45 26.73Z" fill="#FFF3C6"/>
<path d="M60.26 19.75L59.64 19.98L61.1 23.91L61.86 23.62L61.94 23.85L58.13 25.26L58.05 25L58.81 24.71L55.93 17L55.17 17.28L55.09 17.06L58.63 15.74C59.3451 15.4483 60.0893 15.2338 60.85 15.1C61.183 15.043 61.5244 15.0601 61.85 15.15C62.1252 15.2525 62.3726 15.4181 62.5723 15.6334C62.772 15.8487 62.9185 16.1079 63 16.39C63.1165 16.6424 63.1769 16.917 63.1769 17.195C63.1769 17.473 63.1165 17.7476 63 18C62.685 18.4817 62.2268 18.8525 61.69 19.06C62.1917 18.8975 62.7352 18.9224 63.22 19.13C63.6674 19.4466 63.9894 19.9102 64.13 20.44L64.36 21.06C64.4504 21.3407 64.5746 21.6094 64.73 21.86C64.7671 21.9182 64.8237 21.9612 64.8897 21.9813C64.9557 22.0015 65.0267 21.9975 65.09 21.97C65.1589 21.9463 65.2198 21.9037 65.2657 21.8472C65.3117 21.7906 65.3409 21.7223 65.35 21.65C65.3733 21.3482 65.3497 21.0446 65.28 20.75L65.48 20.7C65.6236 21.1931 65.6236 21.7169 65.48 22.21C65.2091 22.6164 64.7948 22.9056 64.32 23.02C64.0836 23.1374 63.8251 23.2034 63.5614 23.2138C63.2977 23.2241 63.0348 23.1785 62.79 23.08C62.2888 22.6933 61.9357 22.1461 61.79 21.53L61.47 20.68C61.3704 20.3408 61.1883 20.0316 60.94 19.78C60.8386 19.7176 60.7229 19.682 60.6039 19.6768C60.4849 19.6715 60.3665 19.6967 60.26 19.75ZM58.26 16.15L59.6 19.76L59.97 19.62C60.1614 19.5649 60.3371 19.4657 60.483 19.3302C60.6289 19.1947 60.7409 19.0268 60.81 18.84C60.9109 18.3477 60.8513 17.836 60.64 17.38L60.47 17C60.24 16.39 59.99 16 59.7 15.9C59.3394 15.7767 58.945 15.7982 58.6 15.96L58.26 16.15Z" fill="#FFF3C6"/>
<path d="M72.48 20.74C72.8585 20.6605 73.2059 20.4729 73.48 20.2C73.6136 20.056 73.7085 19.8805 73.7557 19.6899C73.8029 19.4992 73.801 19.2997 73.75 19.11C73.7218 18.907 73.6416 18.7147 73.5172 18.5517C73.3928 18.3888 73.2284 18.2607 73.04 18.18C72.5385 17.984 72.008 17.8725 71.47 17.85C70.9825 17.818 70.4979 17.7512 70.02 17.65C69.705 17.5764 69.402 17.4585 69.12 17.3C68.8087 17.0977 68.5466 16.8285 68.3528 16.5118C68.159 16.1952 68.0385 15.8392 68 15.47C67.9287 15.1263 67.9283 14.7716 67.9988 14.4277C68.0693 14.0838 68.2092 13.7579 68.41 13.47C68.6417 13.142 68.9392 12.8659 69.2836 12.6593C69.6279 12.4527 70.0116 12.3201 70.41 12.27C70.8677 12.1819 71.3352 12.155 71.8 12.19C72.106 12.2186 72.414 12.2186 72.72 12.19C72.83 12.19 72.92 12.07 72.98 11.88H73.11L73.68 14.34H73.49C73.04 13.7771 72.5112 13.282 71.92 12.87C71.7033 12.708 71.4559 12.5917 71.1929 12.5281C70.9299 12.4646 70.6568 12.455 70.39 12.5C69.9658 12.5557 69.5756 12.7614 69.29 13.08C69.1775 13.2179 69.0983 13.3798 69.0584 13.5532C69.0185 13.7266 69.0191 13.9068 69.06 14.08C69.0872 14.2621 69.1642 14.4332 69.2824 14.5743C69.4006 14.7155 69.5555 14.8213 69.73 14.88C70.1551 15.0316 70.5995 15.1225 71.05 15.15L72.05 15.23L72.66 15.32C72.8652 15.3566 73.0661 15.4136 73.26 15.49C73.4434 15.5623 73.6206 15.6492 73.79 15.75C73.9651 15.8561 74.1207 15.9913 74.25 16.15C74.5648 16.5332 74.775 16.9914 74.86 17.48C74.9553 17.8692 74.9681 18.274 74.8974 18.6684C74.8268 19.0628 74.6744 19.4381 74.45 19.77C74.215 20.0984 73.9172 20.3771 73.574 20.5899C73.2307 20.8028 72.8487 20.9455 72.45 21.01C71.9086 21.1045 71.3595 21.148 70.81 21.14C70.19 21.14 69.81 21.14 69.81 21.14C69.81 21.14 69.61 21.31 69.55 21.57H69.38L68.68 18.67H68.89C69.3757 19.2984 69.968 19.8366 70.64 20.26C71.1712 20.6457 71.8281 20.8171 72.48 20.74Z" fill="#FFF3C6"/>
<path d="M79.31 19C79.4885 19.2036 79.7172 19.3569 79.9734 19.4446C80.2295 19.5323 80.5042 19.5514 80.77 19.5C81.0628 19.4939 81.3507 19.4236 81.6134 19.294C81.876 19.1644 82.107 18.9787 82.29 18.75C82.6664 18.1559 82.8089 17.4432 82.69 16.75L82.27 11.11L81.46 11.17V10.93L83.28 10.8V11.04L82.59 11.09L83 16.7C83.1293 17.5227 82.9474 18.3641 82.49 19.06C82.1819 19.3727 81.8121 19.6178 81.404 19.7796C80.996 19.9415 80.5587 20.0165 80.12 20C79.1839 20.1376 78.2287 19.9543 77.41 19.48C77.0544 19.1893 76.7703 18.8208 76.5796 18.403C76.3889 17.9852 76.2966 17.5291 76.31 17.07L75.9 11.66L75.22 11.71V11.47L79.15 11.18V11.42L78.34 11.48L78.78 17.31C78.7952 17.9118 78.9788 18.4973 79.31 19Z" fill="#FFF3C6"/>
<path d="M91.38 11.24L94.71 11.46V11.69H94.02L93.47 19.94L94.16 19.99V20.23L90.36 19.97V19.74H91.04L91.55 12L89.14 19.91L87.59 19.81L85.93 11.59L85.41 19.42L86.09 19.47V19.7L84.39 19.59V19.35L85.07 19.4L85.62 11.14H84.94V10.8L88.31 11.03L89.54 17.56L91.38 11.24Z" fill="#FFF3C6"/>
<path d="M102.94 13.19L106.19 13.93V14.16L105.52 14.01L103.67 22.08L104.34 22.23L104.29 22.46L100.57 21.61V21.38L101.24 21.53L103 13.92L99.37 21.34L97.79 21L97.45 12.63L95.69 20.28L96.36 20.43V20.66L94.7 20.28V20.05L95.37 20.21L97.22 12.14L96.51 12L96.57 11.77L99.86 12.52L100.04 19.17L102.94 13.19Z" fill="#FFF3C6"/>
<path d="M107.74 14.5L113.81 16.82L113.05 19.17L112.84 19.09C112.855 18.401 112.715 17.7174 112.43 17.09C112.094 16.5723 111.588 16.1871 111 16L110.59 15.85L109.21 19.46L109.61 19.61C109.784 19.6807 109.971 19.7112 110.158 19.699C110.345 19.6869 110.527 19.6325 110.69 19.54C111.101 19.3351 111.447 19.0201 111.69 18.63L111.87 18.7L110.55 22.15L110.35 22.08C110.443 21.5901 110.412 21.0849 110.26 20.61C110.183 20.4344 110.069 20.2775 109.925 20.1498C109.782 20.0222 109.613 19.9267 109.43 19.87L109.15 19.76L107.72 23.51L108.16 23.68C108.82 23.9508 109.557 23.9686 110.23 23.73C110.902 23.4945 111.485 23.0581 111.9 22.48L112.13 22.57L111 25.12L104.59 22.67L104.69 22.42L105.38 22.68L108.33 15L107.64 14.74L107.74 14.5Z" fill="#FFF3C6"/>
<path d="M117.29 23.32L116.7 23L114.7 26.69L115.42 27.07L115.31 27.28L111.73 25.36L111.84 25.15L112.56 25.54L116.46 18.24L115.75 17.86L115.86 17.65L119.19 19.43C119.898 19.7719 120.569 20.1875 121.19 20.67C121.465 20.8874 121.687 21.1644 121.84 21.48C121.935 21.7521 121.966 22.0422 121.931 22.3282C121.896 22.6141 121.797 22.8884 121.64 23.13C121.533 23.3854 121.372 23.6149 121.168 23.8029C120.965 23.9909 120.723 24.1331 120.46 24.22C119.888 24.304 119.304 24.206 118.79 23.94C119.256 24.2032 119.611 24.6258 119.79 25.13C119.841 25.6779 119.708 26.2271 119.41 26.69L119.09 27.27C118.94 27.5246 118.823 27.7966 118.74 28.08C118.722 28.1439 118.727 28.2121 118.754 28.2726C118.782 28.333 118.83 28.3817 118.89 28.41C118.952 28.447 119.023 28.4665 119.095 28.4665C119.167 28.4665 119.238 28.447 119.3 28.41C119.544 28.2296 119.757 28.01 119.93 27.76L120.1 27.88C119.84 28.3111 119.462 28.6583 119.01 28.88C118.508 28.9004 118.01 28.7753 117.578 28.5199C117.145 28.2645 116.795 27.8895 116.57 27.44C116.52 26.8028 116.689 26.1676 117.05 25.64L117.48 24.84C117.669 24.539 117.779 24.195 117.8 23.84C117.772 23.7144 117.709 23.5991 117.619 23.5072C117.529 23.4153 117.415 23.3505 117.29 23.32ZM118.63 19.4L116.81 22.8L117.17 22.99C117.336 23.0962 117.525 23.1616 117.722 23.1807C117.918 23.1998 118.116 23.1722 118.3 23.1C118.743 22.8555 119.095 22.4727 119.3 22.01L119.47 21.69C119.737 21.3085 119.854 20.8423 119.8 20.38C119.645 20.0326 119.367 19.7548 119.02 19.6L118.63 19.4Z" fill="#FFF3C6"/>
<path d="M131.1 27.15L136 31.46L134.45 33.4L134.28 33.25C134.543 32.6177 134.656 31.9332 134.61 31.25C134.47 30.6659 134.135 30.1472 133.66 29.78L133.33 29.49L130.77 32.38L131.09 32.66C131.223 32.7832 131.382 32.8758 131.554 32.9311C131.727 32.9864 131.91 33.0031 132.09 32.98C132.533 32.9209 132.952 32.741 133.3 32.46L133.44 32.59L131 35.33L130.84 35.19C131.102 34.7647 131.25 34.2791 131.27 33.78C131.262 33.5864 131.213 33.3967 131.125 33.224C131.037 33.0514 130.912 32.8999 130.76 32.78L130.53 32.58L127.87 35.58L128.23 35.9C128.748 36.3878 129.429 36.6657 130.14 36.68C130.85 36.6973 131.549 36.4947 132.14 36.1L132.33 36.26L130.44 38.26L125.31 33.7L125.49 33.5L126 34L131.44 27.86L130.89 27.37L131.1 27.15Z" fill="#FFF3C6"/>
<path d="M142.16 38.53L135.77 44.16L134.61 42.85L137.84 34.28L132 39.48L132.45 39.99L132.27 40.15L131.14 38.87L131.32 38.71L131.77 39.22L137.98 33.75L137.52 33.23L137.7 33.08L139.98 35.66L137.44 42.27L141.97 38.27L141.52 37.75L141.7 37.6L142.83 38.88L142.65 39.04L142.16 38.53Z" fill="#FFF3C6"/>
<path d="M144.56 41.38L146.91 44.69L146.71 44.83L146.31 44.27L141.91 47.39C141.23 47.9662 140.349 48.2501 139.46 48.18C139.048 48.0918 138.657 47.9204 138.314 47.6762C137.97 47.4321 137.679 47.1203 137.46 46.76C137.112 46.3166 136.9 45.7816 136.85 45.22C136.833 45.0026 136.875 44.7847 136.972 44.5893C137.069 44.3939 137.217 44.2283 137.4 44.11C137.519 44.0126 137.657 43.941 137.805 43.8997C137.953 43.8584 138.108 43.8483 138.26 43.87C138.407 43.8972 138.548 43.9548 138.672 44.0392C138.796 44.1236 138.901 44.2328 138.98 44.36C139.072 44.4678 139.14 44.594 139.18 44.7303C139.22 44.8665 139.23 45.0095 139.21 45.15C139.193 45.2647 139.152 45.3746 139.09 45.4727C139.028 45.5708 138.946 45.655 138.85 45.72C138.64 45.8661 138.407 45.9744 138.16 46.04L137.88 45.64C137.752 45.6446 137.628 45.6825 137.52 45.75C137.474 45.7867 137.437 45.834 137.412 45.888C137.388 45.9419 137.377 46.0009 137.38 46.06C137.396 46.2146 137.451 46.3625 137.54 46.49C137.608 46.6096 137.713 46.7036 137.84 46.7578C137.966 46.8119 138.107 46.8232 138.24 46.79C138.765 46.5646 139.26 46.2722 139.71 45.92L144.86 42.28L144.32 41.51L144.56 41.38Z" fill="#FFF3C6"/>
<path d="M142 53.9C141.689 53.4201 141.484 52.879 141.399 52.3132C141.315 51.7473 141.352 51.17 141.51 50.62C141.961 49.5246 142.812 48.6416 143.89 48.15C144.935 47.5054 146.186 47.2803 147.39 47.52C147.957 47.6671 148.484 47.9368 148.935 48.31C149.386 48.6833 149.75 49.1509 150 49.68C150.305 50.1575 150.501 50.6959 150.575 51.2574C150.649 51.8188 150.6 52.3897 150.43 52.93C149.885 53.9854 149.034 54.8517 147.988 55.4155C146.943 55.9793 145.751 56.2144 144.57 56.09C144.008 55.9344 143.487 55.6578 143.043 55.2795C142.599 54.9012 142.243 54.4303 142 53.9ZM146.26 53.41L147.08 52.97C147.956 52.5528 148.773 52.0215 149.51 51.39C149.647 51.2629 149.754 51.1077 149.825 50.935C149.896 50.7624 149.928 50.5764 149.92 50.39C149.88 50.1761 149.806 49.97 149.7 49.78C149.599 49.5866 149.467 49.4109 149.31 49.26C149.161 49.1382 148.981 49.0619 148.79 49.04C148.591 49.0199 148.39 49.0199 148.19 49.04C147.929 49.0867 147.673 49.1639 147.43 49.27C146.774 49.5526 146.133 49.8697 145.51 50.22L144.72 50.65C144.075 50.9783 143.457 51.3561 142.87 51.78C142.609 51.9714 142.386 52.2086 142.21 52.48C142.087 52.6838 142.023 52.9172 142.023 53.155C142.023 53.3928 142.087 53.6262 142.21 53.83C142.319 54.0848 142.51 54.2954 142.753 54.4279C142.996 54.5604 143.277 54.6069 143.55 54.56C144.501 54.3102 145.411 53.9227 146.25 53.41H146.26Z" fill="#FFF3C6"/>
<path d="M150.11 60.23L154.4 60.46L153.94 59.28L154.13 59.21L155.03 61.5L154.84 61.57L154.54 60.81L150 60.58L146.15 62.09L146.43 62.8L146.21 62.88L144.76 59.19L144.98 59.11L145.26 59.82L148.89 58.39L152.22 54.8L152.01 54.25L152.19 54.18L153.65 57.91L153.47 57.98L153.17 57.22L150.11 60.23Z" fill="#FFF3C6"/>
<path d="M153.15 70.77L157.35 71.67L157.09 70.44H157.28L157.81 72.85H157.61L157.43 72.05L152.95 71.05L148.95 71.94L149.11 72.68L148.88 72.74L148 68.9L148.24 68.84L148.4 69.59L152.21 68.75L156.07 65.75L155.94 65.17H156.14L157 69H156.81L156.63 68.21L153.15 70.77Z" fill="#FFF3C6"/>
<path d="M149.48 78.32C149.378 77.7559 149.398 77.1764 149.54 76.6208C149.681 76.0653 149.941 75.5466 150.3 75.1C151.141 74.2671 152.267 73.7845 153.45 73.75C154.662 73.5613 155.901 73.8362 156.92 74.52C157.38 74.8778 157.756 75.3316 158.022 75.8498C158.288 76.368 158.437 76.938 158.46 77.52C158.555 78.0783 158.526 78.6506 158.376 79.1966C158.226 79.7427 157.957 80.249 157.59 80.68C156.681 81.445 155.562 81.9159 154.38 82.0302C153.197 82.1444 152.008 81.8968 150.97 81.32C150.516 80.9606 150.147 80.5053 149.889 79.9867C149.632 79.4681 149.492 78.8989 149.48 78.32ZM153.6 79.51L154.52 79.42C155.492 79.3781 156.454 79.2066 157.38 78.91C157.56 78.8453 157.723 78.7406 157.856 78.6038C157.989 78.4669 158.09 78.3015 158.15 78.12C158.187 77.9083 158.187 77.6917 158.15 77.48C158.13 77.2629 158.076 77.0503 157.99 76.85C157.903 76.6747 157.763 76.5312 157.59 76.44C157.418 76.3388 157.233 76.2615 157.04 76.21C156.784 76.1519 156.522 76.1217 156.26 76.12C155.545 76.1306 154.831 76.1773 154.12 76.26L153.22 76.35C152.499 76.4034 151.784 76.5137 151.08 76.68C150.764 76.7548 150.463 76.8833 150.19 77.06C150.004 77.2077 149.861 77.4023 149.774 77.6237C149.688 77.8451 149.663 78.0854 149.7 78.32C149.704 78.6032 149.806 78.8762 149.988 79.093C150.17 79.3098 150.422 79.4571 150.7 79.51C151.661 79.6561 152.639 79.6561 153.6 79.51Z" fill="#FFF3C6"/>
<path d="M150.8 86.56C150.581 86.7185 150.405 86.93 150.289 87.1749C150.174 87.4197 150.123 87.6899 150.14 87.96C150.114 88.2537 150.154 88.5494 150.256 88.826C150.358 89.1026 150.52 89.3533 150.73 89.56C151.277 89.9854 151.958 90.2017 152.65 90.17L158.29 90.36V89.55H158.53L158.47 91.38H158.23V90.69L152.67 90.51C151.838 90.5433 151.023 90.2692 150.38 89.74C150.103 89.401 149.9 89.0082 149.783 88.5864C149.666 88.1647 149.637 87.7232 149.7 87.29C149.668 86.3428 149.957 85.4126 150.52 84.65C150.847 84.3291 151.244 84.0875 151.679 83.9436C152.114 83.7997 152.576 83.7574 153.03 83.82L158.45 84V83.31H158.68L158.55 87.24H158.32V86.42L152.48 86.23C151.901 86.1917 151.322 86.3055 150.8 86.56Z" fill="#FFF3C6"/>
<path d="M153.47 95.92L153.58 95.27L149.45 94.58L149.31 95.38H149.08L149.74 91.38H149.98L149.84 92.19L158 93.53L158.13 92.73H158.37L157.75 96.45C157.649 97.2178 157.465 97.9722 157.2 98.7C157.081 99.029 156.894 99.3289 156.65 99.58C156.426 99.7729 156.161 99.9112 155.874 99.984C155.588 100.057 155.289 100.062 155 100C154.724 99.9798 154.455 99.9006 154.212 99.7678C153.968 99.635 153.756 99.4516 153.59 99.23C153.32 98.7178 153.222 98.1323 153.31 97.56C153.204 98.0789 152.913 98.5412 152.49 98.86C151.992 99.0891 151.43 99.1386 150.9 99L150.24 98.89C149.954 98.8309 149.662 98.8074 149.37 98.82C149.302 98.8198 149.236 98.8455 149.186 98.8919C149.136 98.9383 149.105 99.0019 149.1 99.07C149.085 99.1401 149.09 99.213 149.115 99.2802C149.14 99.3474 149.183 99.4063 149.24 99.45C149.49 99.6234 149.767 99.7552 150.06 99.84L150 100.04C149.497 99.9377 149.035 99.6909 148.67 99.33C148.448 98.894 148.401 98.3893 148.54 97.92C148.557 97.6577 148.629 97.4019 148.751 97.1693C148.873 96.9367 149.043 96.7325 149.25 96.57C149.836 96.313 150.494 96.2671 151.11 96.44L152.01 96.59C152.339 96.6621 152.681 96.6621 153.01 96.59C153.144 96.5365 153.26 96.4442 153.342 96.3249C153.424 96.2056 153.468 96.0647 153.47 95.92ZM157.61 95.92L153.81 95.29L153.75 95.68C153.7 95.8715 153.697 96.0723 153.74 96.2654C153.784 96.4585 153.873 96.6384 154 96.79C154.374 97.1257 154.849 97.3295 155.35 97.37L155.71 97.43C156.156 97.5606 156.635 97.5177 157.05 97.31C157.339 97.0545 157.515 96.695 157.54 96.31L157.61 95.92Z" fill="#FFF3C6"/>
<path d="M146.53 106C146.41 106.377 146.41 106.783 146.53 107.16C146.589 107.347 146.695 107.516 146.836 107.653C146.978 107.789 147.151 107.888 147.34 107.94C147.53 108.013 147.735 108.036 147.936 108.008C148.137 107.98 148.328 107.902 148.49 107.78C148.908 107.443 149.27 107.042 149.56 106.59C149.832 106.182 150.13 105.791 150.45 105.42C150.674 105.185 150.93 104.983 151.21 104.82C151.539 104.639 151.905 104.537 152.279 104.522C152.654 104.506 153.027 104.577 153.37 104.73C153.708 104.837 154.021 105.014 154.287 105.248C154.554 105.482 154.77 105.769 154.92 106.09C155.089 106.45 155.182 106.84 155.194 107.238C155.206 107.635 155.137 108.031 154.99 108.4C154.839 108.844 154.627 109.265 154.36 109.65C154.184 109.898 154.026 110.158 153.89 110.43C153.89 110.54 153.89 110.67 154.03 110.81L154 111L151.58 110.27L151.65 110.08C152.361 109.972 153.051 109.76 153.7 109.45C153.95 109.346 154.175 109.19 154.36 108.994C154.546 108.798 154.689 108.565 154.78 108.31C154.944 107.916 154.962 107.476 154.83 107.07C154.764 106.901 154.661 106.749 154.527 106.626C154.394 106.503 154.234 106.412 154.06 106.36C153.892 106.299 153.71 106.285 153.534 106.318C153.358 106.352 153.194 106.432 153.06 106.55C152.715 106.837 152.415 107.174 152.17 107.55C151.88 107.97 151.69 108.25 151.59 108.38C151.49 108.51 151.37 108.67 151.22 108.86C151.086 109.022 150.935 109.17 150.77 109.3C150.618 109.424 150.454 109.531 150.28 109.62C150.102 109.726 149.905 109.798 149.7 109.83C149.213 109.915 148.712 109.867 148.25 109.69C147.864 109.582 147.504 109.393 147.196 109.136C146.887 108.879 146.637 108.56 146.46 108.2C146.128 107.452 146.107 106.604 146.4 105.84C146.578 105.319 146.813 104.82 147.1 104.35C147.41 103.81 147.58 103.51 147.6 103.45C147.62 103.39 147.6 103.19 147.36 103.01L147.41 102.84L150.27 103.67L150.2 103.88C149.413 103.986 148.652 104.229 147.95 104.6C147.313 104.865 146.804 105.367 146.53 106Z" fill="#FFF3C6"/>
<path d="M144.61 112.81C144.346 112.861 144.1 112.98 143.897 113.156C143.693 113.331 143.539 113.557 143.45 113.81C143.308 114.068 143.224 114.354 143.205 114.648C143.186 114.942 143.232 115.236 143.34 115.51C143.675 116.114 144.209 116.584 144.85 116.84L149.95 119.27L150.3 118.54L150.52 118.64L149.73 120.29L149.52 120.19L149.81 119.57L144.81 117.17C144.035 116.867 143.398 116.291 143.02 115.55C142.903 115.128 142.875 114.686 142.937 114.252C142.999 113.819 143.15 113.403 143.38 113.03C143.734 112.151 144.371 111.415 145.19 110.94C145.619 110.775 146.08 110.711 146.538 110.753C146.996 110.794 147.438 110.94 147.83 111.18L152.72 113.52L153.02 112.9L153.23 113.01L151.53 116.56L151.32 116.46L151.67 115.72L146.39 113.2C145.845 112.905 145.228 112.77 144.61 112.81Z" fill="#FFF3C6"/>
<path d="M145.35 127.17L143.5 129.94L143.3 129.81L143.68 129.24L136.8 124.64L136.42 125.21L136.22 125.08L138.34 121.91L138.54 122.04L138.16 122.61L144.65 126.96L139 120.96L139.87 119.66L147.82 122.33L141.3 117.96L140.92 118.54L140.72 118.4L141.66 116.99L141.86 117.12L141.48 117.69L148.36 122.3L148.74 121.72L148.94 121.86L147.06 124.66L140.79 122.46L145.35 127.17Z" fill="#FFF3C6"/>
<path d="M137.91 136.18L135.64 138.63L135.47 138.47L135.94 137.96L129.87 132.34L129.4 132.84L129.23 132.68L131.82 129.89L131.99 130.05L131.52 130.55L137.25 135.86L132.66 129L133.72 127.85L141.15 131.74L135.39 126.4L134.93 126.91L134.75 126.75L135.91 125.5L136.08 125.66L135.61 126.16L141.68 131.79L142.15 131.29L142.33 131.45L140.03 133.92L134.18 130.77L137.91 136.18Z" fill="#FFF3C6"/>
<path d="M134.36 139.71L129.36 143.83L127.67 142L127.84 141.86C128.431 142.224 129.099 142.443 129.79 142.5C130.388 142.458 130.953 142.211 131.39 141.8L131.73 141.52L129.28 138.52L128.95 138.79C128.801 138.91 128.68 139.063 128.597 139.236C128.514 139.409 128.471 139.598 128.47 139.79C128.464 140.237 128.574 140.678 128.79 141.07L128.65 141.19L126.3 138.32L126.47 138.19C126.846 138.511 127.296 138.735 127.78 138.84C127.973 138.858 128.167 138.836 128.351 138.776C128.535 138.715 128.705 138.618 128.85 138.49L129.08 138.3L126.54 135.19L126.17 135.49C125.611 135.933 125.228 136.56 125.09 137.26C124.962 137.96 125.052 138.683 125.35 139.33L125.16 139.49L123.51 137.31L128.82 132.97L129 133.18L128.42 133.65L133.62 140L134.19 139.53L134.36 139.71Z" fill="#FFF3C6"/>
<path d="M122 143.6L122.56 143.25L120.34 139.7L119.65 140.13L119.52 139.93L122.96 137.77L123.09 137.97L122.4 138.4L126.79 145.4L127.48 144.97L127.61 145.17L124.41 147.17C123.786 147.604 123.115 147.966 122.41 148.25C122.092 148.376 121.752 148.434 121.41 148.42C121.126 148.367 120.859 148.249 120.628 148.075C120.398 147.902 120.21 147.678 120.08 147.42C119.909 147.2 119.788 146.946 119.724 146.675C119.66 146.404 119.655 146.123 119.71 145.85C119.925 145.315 120.299 144.858 120.78 144.54C120.322 144.798 119.786 144.883 119.27 144.78C118.765 144.562 118.354 144.173 118.11 143.68L117.75 143.12C117.605 142.864 117.43 142.626 117.23 142.41C117.178 142.367 117.113 142.343 117.045 142.343C116.977 142.343 116.912 142.367 116.86 142.41C116.8 142.448 116.75 142.502 116.717 142.565C116.684 142.628 116.668 142.699 116.67 142.77C116.703 143.072 116.788 143.366 116.92 143.64L116.73 143.73C116.477 143.286 116.356 142.78 116.38 142.27C116.45 141.94 116.77 141.6 117.38 141.27C117.589 141.109 117.83 140.993 118.087 140.931C118.343 140.869 118.61 140.862 118.87 140.91C119.447 141.178 119.914 141.637 120.19 142.21L120.68 142.99C120.85 143.298 121.089 143.562 121.38 143.76C121.489 143.785 121.602 143.783 121.709 143.755C121.817 143.727 121.917 143.674 122 143.6ZM124.73 146.71L122.73 143.45L122.39 143.66C122.215 143.752 122.063 143.884 121.949 144.046C121.834 144.208 121.759 144.394 121.73 144.59C121.733 145.092 121.898 145.579 122.2 145.98L122.39 146.29C122.74 146.85 123.06 147.16 123.39 147.22C123.771 147.265 124.154 147.161 124.46 146.93L124.73 146.71Z" fill="#FFF3C6"/>
<path d="M111.79 153.69L105.63 155.75L104.72 153.45L104.94 153.38C105.366 153.924 105.91 154.365 106.53 154.67C107.107 154.836 107.723 154.804 108.28 154.58L108.69 154.44L107.46 150.77L107.06 150.91C106.883 150.966 106.72 151.061 106.584 151.187C106.447 151.313 106.34 151.468 106.27 151.64C106.105 152.059 106.05 152.514 106.11 152.96L105.94 153.02L104.76 149.51L104.96 149.44C105.196 149.876 105.541 150.245 105.96 150.51C106.132 150.598 106.321 150.648 106.515 150.657C106.708 150.665 106.901 150.632 107.08 150.56L107.36 150.47L106.08 146.66L105.63 146.81C104.949 147.024 104.369 147.479 104 148.09C103.635 148.69 103.464 149.389 103.51 150.09L103.27 150.17L102.5 147.56L109.01 145.37L109.09 145.63L108.39 145.87L111 153.64L111.7 153.4L111.79 153.69Z" fill="#FFF3C6"/>
<path d="M96.41 157.6L94.72 149.25L96.43 148.91L102.24 155.98L100.68 148.29L100.01 148.42L99.96 148.19L101.64 147.85V148.08L100.96 148.22L102.61 156.33L103.28 156.19V156.42L99.9 157.11L95.44 151.61L96.64 157.53L97.32 157.39V157.63L95.64 157.97V157.73L96.41 157.6Z" fill="#FFF3C6"/>
<path d="M92.75 158.26L88.75 158.63V158.4L89.43 158.33L88.93 152.96C88.7734 152.082 88.9673 151.177 89.47 150.44C89.7511 150.135 90.0906 149.889 90.4685 149.717C90.8465 149.545 91.255 149.451 91.67 149.44C92.2284 149.361 92.7977 149.444 93.31 149.68C93.503 149.771 93.6684 149.912 93.7896 150.087C93.9108 150.263 93.9834 150.467 94 150.68C94.0441 150.988 93.965 151.3 93.78 151.55C93.6818 151.665 93.5609 151.758 93.4249 151.823C93.2889 151.888 93.1408 151.925 92.99 151.93C92.8524 151.955 92.7109 151.952 92.5748 151.919C92.4387 151.886 92.311 151.825 92.2 151.74C92.1092 151.664 92.0342 151.571 91.9793 151.467C91.9244 151.362 91.8907 151.248 91.88 151.13C91.8594 150.878 91.8831 150.624 91.95 150.38L92.44 150.33C92.4975 150.219 92.525 150.095 92.52 149.97C92.512 149.912 92.4895 149.857 92.4545 149.809C92.4196 149.762 92.3733 149.725 92.32 149.7C92.1812 149.63 92.0246 149.602 91.87 149.62C91.7325 149.615 91.5974 149.657 91.4866 149.739C91.3759 149.82 91.296 149.937 91.26 150.07C91.1831 150.641 91.1831 151.219 91.26 151.79L91.84 158.06L92.77 157.97L92.75 158.26Z" fill="#FFF3C6"/>
<path d="M83.18 149.78C83.7524 149.75 84.3245 149.844 84.8576 150.054C85.3908 150.265 85.8724 150.587 86.27 151C87.0076 151.935 87.3648 153.113 87.27 154.3C87.2826 155.531 86.8289 156.72 86 157.63C85.5892 158.041 85.0937 158.358 84.548 158.559C84.0022 158.759 83.4194 158.838 82.84 158.79C82.2793 158.811 81.7207 158.71 81.2028 158.494C80.6849 158.278 80.2199 157.953 79.84 157.54C79.1896 156.545 78.8584 155.375 78.8906 154.187C78.9227 152.999 79.3168 151.848 80.02 150.89C80.432 150.483 80.9291 150.172 81.4755 149.981C82.0219 149.789 82.604 149.72 83.18 149.78ZM81.48 153.72V154.65C81.4004 155.616 81.4508 156.588 81.63 157.54C81.6749 157.726 81.7599 157.901 81.8791 158.051C81.9982 158.201 82.1487 158.324 82.32 158.41C82.5246 158.486 82.7417 158.524 82.96 158.52C83.1764 158.533 83.3933 158.505 83.6 158.44C83.7832 158.374 83.943 158.256 84.06 158.1C84.1759 157.938 84.2732 157.764 84.35 157.58C84.4452 157.332 84.5091 157.074 84.54 156.81C84.6 156.33 84.64 155.62 84.67 154.68V153.78C84.7035 153.056 84.6801 152.33 84.6 151.61C84.5722 151.285 84.4805 150.969 84.33 150.68C84.2093 150.477 84.0359 150.31 83.8282 150.197C83.6205 150.085 83.3861 150.03 83.15 150.04C82.8744 150.004 82.5947 150.063 82.3579 150.209C82.1212 150.355 81.9418 150.578 81.85 150.84C81.5861 151.777 81.4614 152.747 81.48 153.72Z" fill="#FFF3C6"/>
<path d="M73.61 153.67L71.28 157.28L72.53 157.47V157.66L70.1 157.3V157.11L70.91 157.23L73.39 153.37L73.99 149.28L73.24 149.17V148.93L77.16 149.51V149.75L76.4 149.63L75.84 153.49L77.29 158.17L77.87 158.25V158.45L73.87 157.87V157.67L74.67 157.79L73.61 153.67Z" fill="#FFF3C6"/>
<path d="M63 151.07L60.14 154.27L61.34 154.65L61.28 154.84L58.93 154.1L58.99 153.91L59.78 154.16L62.78 150.75L64 146.8L63.28 146.57L63.35 146.34L67.13 147.53L67.06 147.76L66.33 147.53L65.16 151.25L65.86 156.1L66.42 156.27L66.36 156.46L62.55 155.26L62.61 155.07L63.38 155.32L63 151.07Z" fill="#FFF3C6"/>
<path d="M58.25 144.13C58.7888 144.322 59.2801 144.628 59.6907 145.027C60.1013 145.425 60.4216 145.907 60.63 146.44C60.9295 147.587 60.7867 148.804 60.23 149.85C59.7922 150.996 58.9389 151.935 57.84 152.48C57.3019 152.699 56.7226 152.798 56.1424 152.77C55.5621 152.743 54.9948 152.589 54.48 152.32C53.9471 152.129 53.4634 151.821 53.0639 151.42C52.6643 151.019 52.359 150.534 52.17 150C51.8771 148.838 52.0268 147.608 52.59 146.55C53.0112 145.422 53.8337 144.489 54.9 143.93C55.4395 143.719 56.0186 143.627 56.597 143.662C57.1754 143.696 57.7394 143.856 58.25 144.13ZM55.15 147.13L54.78 147.97C54.3248 148.831 53.9884 149.749 53.78 150.7C53.7449 150.888 53.7538 151.081 53.8058 151.265C53.8579 151.449 53.9517 151.618 54.08 151.76C54.236 151.913 54.4191 152.035 54.62 152.12C54.8183 152.213 55.0316 152.271 55.25 152.29C55.4434 152.302 55.6357 152.253 55.8 152.15C55.969 152.047 56.1265 151.926 56.27 151.79C56.4525 151.597 56.6104 151.382 56.74 151.15C56.98 150.73 57.3 150.09 57.68 149.23L58.05 148.41C58.366 147.767 58.6269 147.097 58.83 146.41C58.9309 146.087 58.9683 145.747 58.94 145.41C58.8987 145.185 58.7996 144.974 58.6523 144.799C58.5051 144.624 58.3147 144.49 58.1 144.41C57.8591 144.27 57.5774 144.218 57.3023 144.261C57.0272 144.305 56.7756 144.442 56.59 144.65C55.9898 145.397 55.5044 146.23 55.15 147.12V147.13Z" fill="#FFF3C6"/>
<path d="M50.46 141.19C50.4343 140.919 50.3388 140.66 50.1828 140.437C50.0267 140.215 49.8156 140.037 49.57 139.92C49.3299 139.752 49.0558 139.639 48.7672 139.589C48.4787 139.539 48.1826 139.553 47.9 139.63C47.2539 139.891 46.7245 140.378 46.41 141L43.41 145.8L44.1 146.23L43.97 146.43L42.42 145.43L42.55 145.23L43.13 145.59L46.07 140.87C46.4482 140.128 47.0902 139.553 47.87 139.26C48.3036 139.192 48.7466 139.213 49.1715 139.323C49.5965 139.433 49.9942 139.63 50.34 139.9C51.1711 140.34 51.8324 141.043 52.22 141.9C52.337 142.345 52.35 142.811 52.2581 143.262C52.1662 143.713 51.9718 144.136 51.69 144.5L48.82 149.11L49.41 149.47L49.28 149.67L46 147.63L46.12 147.43L46.81 147.86L49.9 142.86C50.2306 142.362 50.4237 141.786 50.46 141.19Z" fill="#FFF3C6"/>
<path d="M41 138.81L41.51 139.23L44.17 136L43.54 135.48L43.69 135.3L46.83 137.88L46.68 138.06L46.05 137.55L40.8 143.94L41.43 144.46L41.28 144.64L38.36 142.25C37.7461 141.78 37.186 141.243 36.69 140.65C36.4626 140.384 36.2985 140.069 36.21 139.73C36.1681 139.444 36.1933 139.153 36.2835 138.879C36.3738 138.604 36.5266 138.355 36.73 138.15C36.8826 137.918 37.0845 137.722 37.3213 137.577C37.5581 137.432 37.8239 137.341 38.1 137.31C38.6762 137.341 39.2284 137.551 39.68 137.91C39.2913 137.554 39.04 137.073 38.97 136.55C39.0224 136.003 39.2626 135.49 39.65 135.1L40.07 134.58C40.2663 134.362 40.4343 134.12 40.57 133.86C40.6015 133.799 40.6098 133.729 40.5932 133.663C40.5766 133.597 40.5364 133.539 40.48 133.5C40.4247 133.455 40.3584 133.426 40.2881 133.416C40.2178 133.405 40.146 133.414 40.08 133.44C39.8064 133.567 39.5562 133.74 39.34 133.95L39.19 133.8C39.5301 133.415 39.9748 133.137 40.47 133C40.9565 133.025 41.4147 133.236 41.75 133.59C41.9714 133.736 42.1591 133.927 42.3006 134.151C42.442 134.376 42.5338 134.627 42.57 134.89C42.4985 135.523 42.2127 136.112 41.76 136.56L41.18 137.26C40.9372 137.516 40.7619 137.829 40.67 138.17C40.664 138.296 40.6913 138.422 40.7492 138.534C40.8072 138.647 40.8937 138.742 41 138.81ZM38.92 142.38L41.36 139.38L41.05 139.13C40.9093 138.989 40.7367 138.885 40.5468 138.826C40.357 138.767 40.1556 138.754 39.96 138.79C39.4852 138.955 39.0753 139.266 38.79 139.68L38.56 139.96C38.2202 140.278 38.016 140.715 37.99 141.18C38.0665 141.551 38.2855 141.878 38.6 142.09L38.92 142.38Z" fill="#FFF3C6"/>
<path d="M35.7 127.76C35.435 127.461 35.0867 127.249 34.7 127.15C34.5076 127.108 34.3077 127.116 34.119 127.171C33.9302 127.227 33.7585 127.33 33.62 127.47C33.4601 127.597 33.3357 127.763 33.2586 127.952C33.1816 128.142 33.1545 128.347 33.18 128.55C33.2671 129.081 33.4393 129.594 33.69 130.07C33.9054 130.508 34.0924 130.958 34.25 131.42C34.3454 131.745 34.3959 132.081 34.4 132.42C34.39 132.794 34.2947 133.16 34.1214 133.491C33.9481 133.822 33.7013 134.109 33.4 134.33C33.1324 134.576 32.8163 134.764 32.4719 134.881C32.1274 134.998 31.7623 135.042 31.4 135.01C30.6144 134.921 29.8957 134.526 29.4 133.91C29.0947 133.558 28.8359 133.168 28.63 132.75C28.5039 132.473 28.3568 132.205 28.19 131.95C28.11 131.86 27.98 131.84 27.79 131.88L27.7 131.78L29.56 130L29.69 130.15C29.4336 130.824 29.2721 131.531 29.21 132.25C29.1802 132.517 29.2048 132.788 29.2821 133.046C29.3594 133.304 29.4879 133.543 29.66 133.75C29.9278 134.084 30.3018 134.317 30.72 134.41C30.8993 134.439 31.0828 134.426 31.2563 134.372C31.4297 134.318 31.5884 134.225 31.72 134.1C31.8661 133.983 31.9764 133.827 32.0383 133.65C32.1002 133.473 32.1112 133.283 32.07 133.1C31.9903 132.658 31.8454 132.23 31.64 131.83C31.41 131.37 31.27 131.07 31.2 130.92C31.13 130.77 31.06 130.58 30.98 130.35C30.9034 130.156 30.8465 129.955 30.81 129.75C30.7987 129.553 30.7987 129.357 30.81 129.16C30.804 128.954 30.8415 128.75 30.92 128.56C31.1576 127.961 31.572 127.449 32.108 127.092C32.6439 126.735 33.276 126.549 33.92 126.56C34.3252 126.597 34.7186 126.717 35.0762 126.911C35.4337 127.105 35.7481 127.37 36 127.69C36.3564 128.108 36.6712 128.561 36.94 129.04C37.25 129.58 37.43 129.87 37.47 129.92C37.51 129.97 37.72 130.01 37.97 129.92L38.09 130.05L35.94 132.11L35.8 131.95C36.0985 131.215 36.2676 130.433 36.3 129.64C36.3527 128.959 36.1374 128.285 35.7 127.76Z" fill="#FFF3C6"/>
<path d="M30.79 122.74C30.8734 122.481 30.8887 122.206 30.8344 121.939C30.7801 121.673 30.658 121.425 30.48 121.22C30.326 120.97 30.119 120.758 29.8736 120.597C29.6282 120.436 29.3504 120.331 29.06 120.29C28.3695 120.273 27.6957 120.504 27.16 120.94L22.51 124.16L22.97 124.83L22.78 124.96L21.78 123.46L21.97 123.32L22.36 123.89L26.94 120.72C27.5879 120.202 28.4012 119.936 29.23 119.97C29.6537 120.079 30.0501 120.276 30.3943 120.546C30.7385 120.816 31.023 121.154 31.23 121.54C31.8185 122.28 32.1424 123.195 32.15 124.14C32.0797 124.594 31.9061 125.026 31.6425 125.402C31.379 125.778 31.0326 126.089 30.63 126.31L26.17 129.4L26.56 129.96L26.36 130.1L24.12 126.86L24.32 126.73L24.78 127.39L29.59 124.07C30.104 123.745 30.519 123.285 30.79 122.74Z" fill="#FFF3C6"/>
<path d="M17.93 116.21L16.45 113.21L16.66 113.1L16.97 113.72L24.38 110.03L24.07 109.42L24.29 109.31L26 112.75L25.79 112.85L25.48 112.24L18.48 115.71V115.76L26.48 113.85L27.18 115.25L21 120.82V120.87L28 117.37L27.69 116.76L27.9 116.65L28.66 118.17L28.45 118.28L28.14 117.66L20.73 121.35L21.04 121.96L20.82 122.07L19.32 119.07L24.32 114.71L17.93 116.21Z" fill="#FFF3C6"/>
<path d="M13.82 105.28L12.82 102.09L13.04 102.02L13.25 102.68L21.15 100.22L20.95 99.56L21.17 99.49L22.31 103.13L22.08 103.2L21.87 102.54L14.41 104.87L22.65 104.27L23.12 105.76L16.05 110.27L23.59 108L23.39 107.35L23.61 107.27L24.12 108.9L23.89 108.97L23.69 108.31L15.79 110.77L15.99 111.43L15.76 111.5L14.76 108.28L20.41 104.78L13.82 105.28Z" fill="#FFF3C6"/>
<path d="M12.53 100.44L11.53 94.03L13.95 93.51V93.73C13.34 94.0564 12.8157 94.5224 12.42 95.09C12.1575 95.6306 12.0903 96.2455 12.23 96.83L12.3 97.27L16.11 96.64L16 96.22C15.9724 96.0351 15.9043 95.8585 15.8006 95.7029C15.6969 95.5473 15.5601 95.4166 15.4 95.32C15.0262 95.1047 14.6013 94.9942 14.17 95V94.81L17.83 94.21V94.42C17.3595 94.5836 16.9392 94.8661 16.61 95.24C16.498 95.3957 16.4197 95.5731 16.3801 95.7608C16.3405 95.9484 16.3405 96.1423 16.38 96.33L16.43 96.63L20.43 95.98L20.35 95.51C20.2537 94.8004 19.8973 94.1518 19.35 93.69C18.8052 93.236 18.136 92.9572 17.43 92.89V92.64L20.14 92.3L21.17 99H20.9L20.78 98.27L12.68 99.6L12.8 100.33L12.53 100.44Z" fill="#FFF3C6"/>
<path d="M15.35 87.77V88.43L19.53 88.28V87.46H19.77L19.92 91.51H19.68V90.7L11.41 91V91.81H11.17L11 88.06C10.9446 87.289 10.9747 86.5143 11.09 85.75C11.134 85.3925 11.2607 85.0501 11.46 84.75C11.6521 84.535 11.8906 84.3666 12.1574 84.2575C12.4242 84.1483 12.7123 84.1013 13 84.12C13.2738 84.0837 13.5523 84.1069 13.8163 84.188C14.0804 84.2691 14.3238 84.4062 14.53 84.59C14.8927 85.0404 15.1059 85.5927 15.14 86.17C15.1452 85.6427 15.3405 85.1349 15.69 84.74C16.1348 84.4135 16.679 84.251 17.23 84.28H17.89C18.1828 84.2793 18.4746 84.2457 18.76 84.18C18.8271 84.1634 18.8857 84.1225 18.9244 84.0653C18.9632 84.008 18.9794 83.9385 18.97 83.87C18.968 83.7986 18.9464 83.7292 18.9076 83.6692C18.8688 83.6092 18.8143 83.5611 18.75 83.53C18.4757 83.4046 18.1809 83.33 17.88 83.31V83.1C18.3945 83.1017 18.8977 83.2509 19.33 83.53C19.6045 83.9509 19.7507 84.4425 19.7507 84.945C19.7507 85.4475 19.6045 85.9391 19.33 86.36C18.8074 86.7243 18.1753 86.8973 17.54 86.85H16.63C16.2836 86.8393 15.9399 86.9149 15.63 87.07C15.5205 87.1469 15.4357 87.2541 15.3859 87.3784C15.3362 87.5027 15.3237 87.6387 15.35 87.77ZM11.29 88.58L15.14 88.44V88.04C15.1451 87.8482 15.1052 87.6579 15.0236 87.4843C14.942 87.3106 14.8209 87.1585 14.67 87.04C14.2351 86.7871 13.7288 86.6852 13.23 86.75H12.87C12.4042 86.7078 11.9397 86.8436 11.57 87.13C11.3479 87.4359 11.2513 87.8152 11.3 88.19L11.29 88.58Z" fill="#FFF3C6"/>
</g>
<defs>
<clipPath id="clip0_0_6557">
<rect width="169.64" height="169.64" fill="white"/>
</clipPath>
</defs>
</svg>
