<svg width="220" height="256" viewBox="0 0 220 256" fill="none" xmlns="http://www.w3.org/2000/svg">
<g clip-path="url(#clip0_0_6609)">
<path d="M109.82 255.46C79.99 255.46 52.11 241.85 31.31 217.15C11.12 193.16 0 161.4 0 127.73C0 94.06 11.12 62.3 31.31 38.31C52.11 13.61 80 0 109.82 0C139.64 0 167.54 13.61 188.33 38.31C208.52 62.31 219.64 94.05 219.64 127.73C219.64 161.41 208.52 193.16 188.33 217.15C167.54 241.85 139.65 255.46 109.82 255.46Z" fill="#F5F5F5"/>
<path d="M109.82 250.32C81.7 250.32 55.35 237.41 35.61 213.97C16.18 190.88 5.47 160.25 5.47 127.73C5.47 95.21 16.18 64.58 35.61 41.49C55.35 18 81.7 5.13 109.82 5.13C137.94 5.13 164.3 18 184 41.49C203.44 64.58 214.14 95.2 214.14 127.73C214.14 160.26 203.47 190.88 184 214C164.3 237.41 137.94 250.32 109.82 250.32Z" fill="#260273"/>
<path d="M109.82 245.19C164.43 245.19 208.7 192.601 208.7 127.73C208.7 62.8586 164.43 10.27 109.82 10.27C55.2101 10.27 10.94 62.8586 10.94 127.73C10.94 192.601 55.2101 245.19 109.82 245.19Z" fill="#F5F5F5"/>
<path d="M166 54.05C165.299 60.3579 163.069 66.3994 159.503 71.65C155.938 76.9006 151.145 81.2017 145.54 84.18C141.983 81.8729 137.834 80.6452 133.595 80.6452C129.356 80.6452 125.207 81.8729 121.65 84.18C121.615 81.0405 121.023 77.9321 119.9 75C122.154 72.8923 123.981 70.3695 125.28 67.57C126.58 64.7256 127.395 61.6835 127.69 58.57C134.423 53.61 142.577 50.9552 150.94 51C156.115 50.9788 161.241 52.0168 166 54.05Z" fill="#04BF9D"/>
<path d="M125 57.12C125 57.79 124.91 58.45 124.82 59.12C124.72 59.88 124.59 60.64 124.42 61.39C124.029 63.1099 123.462 64.7853 122.73 66.39C121.724 68.5656 120.351 70.5514 118.67 72.26C118.35 71.65 118.01 71.06 117.67 70.48C117.33 69.9 117.09 69.59 116.79 69.16C116.49 68.73 116.18 68.33 115.86 67.93C112.535 63.7772 108.041 60.7156 102.96 59.14C103.724 54.6616 105.619 50.4524 108.464 46.9106C111.31 43.3688 115.012 40.6116 119.22 38.9C123.331 44.051 125.39 50.5412 125 57.12Z" fill="#04BF9D"/>
<path d="M152.82 102.67C152.819 107.441 151.04 112.041 147.83 115.571C144.62 119.101 140.21 121.307 135.46 121.76C134.089 116.952 131.392 112.627 127.678 109.279C123.965 105.932 119.384 103.697 114.46 102.83V102.69C117.895 99.0439 120.226 94.4979 121.18 89.58C121.27 89.12 121.35 88.65 121.41 88.18C121.41 88.07 121.41 87.96 121.41 87.86C121.77 87.56 122.14 87.28 122.51 87.01C125.383 84.9811 128.758 83.7796 132.267 83.5362C135.776 83.2929 139.284 84.0171 142.41 85.63C142.935 85.8957 143.446 86.1894 143.94 86.51C144.4 86.81 144.85 87.12 145.28 87.45C147.622 89.2366 149.521 91.5392 150.829 94.1788C152.136 96.8185 152.818 99.7242 152.82 102.67Z" fill="#260273"/>
<path d="M133.64 129C133.642 134.64 131.635 140.097 127.979 144.392C124.323 148.687 119.256 151.539 113.688 152.437C108.12 153.335 102.413 152.22 97.5924 149.292C92.7714 146.364 89.1509 141.815 87.38 136.46C90.0974 133.98 92.2676 130.96 93.7519 127.594C95.2361 124.228 96.0018 120.589 96 116.91C96.003 114.948 95.785 112.993 95.35 111.08C101.266 111.042 106.997 109.013 111.62 105.32H111.83C112.32 105.32 112.83 105.41 113.27 105.48C113.71 105.55 114.27 105.63 114.73 105.73C118.861 106.585 122.69 108.524 125.823 111.348C128.957 114.172 131.282 117.78 132.56 121.8C132.71 122.27 132.84 122.74 132.96 123.22C133.08 123.7 133.18 124.16 133.27 124.64C133.522 126.079 133.646 127.539 133.64 129Z" fill="#260273"/>
<path d="M118.84 84.54C118.84 85 118.84 85.46 118.84 85.91C118.84 86.1 118.84 86.29 118.84 86.48C118.84 86.67 118.79 87.08 118.75 87.37C118.75 87.84 118.63 88.31 118.55 88.77C118.037 91.679 116.971 94.4626 115.41 96.97C114.791 97.9725 114.099 98.9284 113.34 99.83C112.842 100.416 112.315 100.977 111.76 101.51C111.44 101.83 111.11 102.13 110.76 102.44C110.181 102.944 109.577 103.418 108.95 103.86C108.079 104.487 107.163 105.048 106.21 105.54C103.956 106.723 101.524 107.53 99.01 107.93C97.9546 108.102 96.8889 108.202 95.82 108.23H94.54C94.46 107.99 94.37 107.76 94.28 107.52C92.527 102.913 89.5285 98.8843 85.6191 95.8825C81.7097 92.8807 77.0431 91.0242 72.14 90.52C71.2374 87.0102 71.1493 83.3405 71.8825 79.7914C72.6156 76.2424 74.1505 72.9079 76.3698 70.043C78.5892 67.1781 81.4343 64.8586 84.6875 63.2618C87.9407 61.665 91.516 60.8332 95.14 60.83C96.729 60.8267 98.3141 60.9875 99.87 61.31C100.34 61.39 100.81 61.51 101.27 61.63C101.73 61.75 102.2 61.89 102.66 62.05C107.407 63.6388 111.53 66.6874 114.44 70.76C114.77 71.21 115.08 71.67 115.37 72.15C115.66 72.63 115.97 73.15 116.24 73.69C116.34 73.87 116.43 74.07 116.52 74.26C116.739 74.693 116.936 75.1369 117.11 75.59C117.3 76.04 117.47 76.5 117.63 76.97C118.44 79.4112 118.849 81.9678 118.84 84.54Z" fill="#260273"/>
<path d="M93.16 116.91C93.1701 123.022 90.8117 128.9 86.58 133.31C86.2 133.72 85.79 134.11 85.38 134.48C84.97 134.85 84.59 135.18 84.18 135.48C81.214 137.84 77.726 139.455 74.0078 140.19C70.2897 140.925 66.4495 140.758 62.8088 139.704C59.1681 138.651 55.8328 136.74 53.082 134.133C50.3311 131.526 48.2448 128.298 46.9977 124.719C45.7505 121.139 45.3788 117.314 45.9136 113.562C46.4484 109.809 47.8741 106.24 50.0716 103.152C52.269 100.064 55.1742 97.5469 58.5439 95.812C61.9136 94.0771 65.6499 93.1746 69.44 93.18H70C70.52 93.18 71 93.18 71.54 93.27C72.08 93.36 72.54 93.38 73.11 93.46C77.1577 94.0997 80.9713 95.7745 84.1811 98.322C87.3909 100.87 89.888 104.203 91.43 108L91.7 108.69C91.79 108.93 91.87 109.18 91.96 109.42C92.11 109.9 92.26 110.42 92.39 110.89C92.53 111.423 92.65 111.963 92.75 112.51C93.0235 113.961 93.1607 115.434 93.16 116.91Z" fill="#260273"/>
<path d="M63.27 178.79C63.2974 179.552 63.1117 180.307 62.7336 180.97C62.3556 181.632 61.8002 182.176 61.13 182.54C61.912 182.82 62.5916 183.328 63.08 184C63.6605 184.888 63.9344 185.942 63.86 187C63.8768 187.576 63.758 188.147 63.513 188.668C63.2681 189.189 62.9039 189.646 62.45 190C61.2767 190.803 59.8695 191.194 58.45 191.11H52.85C52.7272 191.114 52.6048 191.092 52.4911 191.046C52.3773 190.999 52.2747 190.929 52.19 190.84C52.1003 190.742 52.0311 190.627 51.9864 190.501C51.9418 190.376 51.9226 190.243 51.93 190.11V174.93C51.9124 174.807 51.9409 174.683 52.01 174.58C52.1107 174.515 52.2308 174.487 52.35 174.5H57.76C61.4333 174.5 63.27 175.93 63.27 178.79ZM56.44 178.34V181.45H56.56C58.07 181.45 58.83 180.94 58.83 179.93C58.8503 179.709 58.8223 179.487 58.7481 179.278C58.6738 179.069 58.5551 178.878 58.4 178.72C57.9712 178.43 57.4558 178.296 56.94 178.34H56.44ZM56.44 184.25V187.33H56.87C57.3948 187.369 57.9179 187.235 58.36 186.95C58.527 186.799 58.6564 186.611 58.738 186.401C58.8195 186.19 58.8511 185.964 58.83 185.74C58.8543 185.526 58.8281 185.31 58.7534 185.109C58.6787 184.907 58.5576 184.726 58.4 184.58C57.9585 184.323 57.4489 184.208 56.94 184.25H56.44Z" fill="#260273"/>
<path d="M65.47 189.7V175C65.47 174.67 66.28 174.5 67.88 174.5C69.48 174.5 70.29 174.67 70.29 175V186.62H73.94C74.22 186.62 74.42 186.99 74.53 187.73C74.5785 188.101 74.6019 188.476 74.6 188.85C74.6013 189.238 74.5779 189.625 74.53 190.01C74.4 190.77 74.2 191.15 73.92 191.15H66.61C66.4471 191.151 66.2863 191.113 66.1417 191.038C65.997 190.963 65.8729 190.854 65.78 190.72C65.5667 190.424 65.4576 190.065 65.47 189.7Z" fill="#260273"/>
<path d="M83.78 175C83.78 174.69 84.64 174.53 86.35 174.53C88.06 174.53 88.93 174.69 88.93 175V185.89C88.9534 186.637 88.8093 187.379 88.5082 188.062C88.2071 188.746 87.7567 189.353 87.19 189.84C85.8459 190.926 84.145 191.472 82.42 191.37C80.618 191.458 78.844 190.898 77.42 189.79C76.794 189.276 76.2958 188.624 75.9644 187.884C75.633 187.145 75.4774 186.339 75.51 185.53V175C75.51 174.68 76.37 174.52 78.08 174.52C79.79 174.52 80.66 174.68 80.66 175V185.69C80.6616 185.851 80.7095 186.009 80.7982 186.144C80.8869 186.278 81.0125 186.385 81.16 186.45C81.4923 186.639 81.8678 186.739 82.25 186.74C82.5998 186.738 82.9435 186.649 83.25 186.48C83.394 186.406 83.5138 186.292 83.5952 186.152C83.6767 186.012 83.7166 185.852 83.71 185.69L83.78 175Z" fill="#260273"/>
<path d="M98.62 181.09C98.92 181.09 99.07 181.65 99.07 182.75C99.0666 183.145 99.0332 183.54 98.97 183.93C98.9 184.38 98.77 184.6 98.58 184.6H95.58V187H99.94C100.213 187 100.393 187.35 100.48 188.05C100.535 188.38 100.562 188.715 100.56 189.05C100.549 189.49 100.499 189.929 100.41 190.36C100.32 190.9 100.16 191.17 99.94 191.17H91.82C91.22 191.17 90.92 190.92 90.92 190.43V175.12C90.92 174.71 91.1 174.5 91.46 174.5H100C100.33 174.5 100.5 175.2 100.5 176.6C100.5 178 100.33 178.7 100 178.7H95.57V181.09H98.62Z" fill="#260273"/>
<path d="M114.25 178.79C114.277 179.551 114.092 180.305 113.716 180.967C113.34 181.629 112.788 182.174 112.12 182.54C112.899 182.826 113.574 183.338 114.06 184.01C114.64 184.898 114.914 185.952 114.84 187.01C114.857 187.586 114.738 188.157 114.493 188.678C114.248 189.199 113.884 189.656 113.43 190.01C112.257 190.815 110.85 191.205 109.43 191.12H103.83C103.707 191.124 103.585 191.102 103.471 191.056C103.357 191.009 103.255 190.939 103.17 190.85C103.08 190.752 103.011 190.637 102.966 190.511C102.922 190.386 102.903 190.253 102.91 190.12V174.93C102.89 174.87 102.887 174.806 102.902 174.744C102.916 174.683 102.948 174.627 102.992 174.582C103.037 174.538 103.093 174.506 103.154 174.492C103.216 174.477 103.28 174.48 103.34 174.5H108.74C112.413 174.5 114.25 175.93 114.25 178.79ZM107.42 178.34V181.45H107.54C109.06 181.45 109.82 180.94 109.82 179.93C109.839 179.708 109.809 179.485 109.733 179.276C109.657 179.067 109.537 178.878 109.38 178.72C108.952 178.428 108.436 178.294 107.92 178.34H107.42ZM107.42 184.25V187.33H107.85C108.375 187.372 108.899 187.238 109.34 186.95C109.509 186.8 109.64 186.612 109.723 186.402C109.807 186.192 109.84 185.965 109.82 185.74C109.842 185.526 109.814 185.309 109.738 185.108C109.661 184.906 109.539 184.726 109.38 184.58C108.939 184.322 108.429 184.207 107.92 184.25H107.42Z" fill="#260273"/>
<path d="M124.4 181.09C124.7 181.09 124.85 181.65 124.85 182.75C124.848 183.146 124.811 183.541 124.74 183.93C124.67 184.38 124.54 184.6 124.35 184.6H121.35V187H125.71C125.98 187 126.17 187.35 126.26 188.05C126.312 188.381 126.335 188.715 126.33 189.05C126.318 189.49 126.271 189.928 126.19 190.36C126.09 190.9 125.94 191.17 125.71 191.17H117.61C117 191.17 116.7 190.92 116.7 190.43V175.12C116.7 174.71 116.89 174.5 117.25 174.5H125.74C126.07 174.5 126.24 175.2 126.24 176.6C126.24 178 126.07 178.7 125.74 178.7H121.35V181.09H124.4Z" fill="#260273"/>
<path d="M132.91 190.77C132.91 191.02 132.16 191.15 130.66 191.15C129.16 191.15 128.38 191.03 128.38 190.79V175.33C128.38 174.78 128.68 174.5 129.26 174.5H133.79C137.95 174.5 140.03 176.12 140.03 179.36C140.043 180.281 139.848 181.194 139.46 182.03C139.103 182.798 138.547 183.458 137.85 183.94L140.85 188.94C140.582 189.488 140.153 189.942 139.62 190.24C138.952 190.797 138.135 191.145 137.27 191.24C137.004 191.257 136.738 191.205 136.499 191.09C136.259 190.974 136.052 190.798 135.9 190.58L133.67 185.38H132.93L132.91 190.77ZM132.91 178.7V182.26H133C134.5 182.26 135.25 181.63 135.25 180.38C135.269 180.15 135.241 179.919 135.167 179.7C135.093 179.482 134.975 179.281 134.82 179.11C134.407 178.801 133.894 178.655 133.38 178.7H132.91Z" fill="#260273"/>
<path d="M146.9 190.77C146.9 191.02 146.15 191.15 144.65 191.15C143.15 191.15 142.38 191.03 142.38 190.79V175.33C142.38 174.78 142.67 174.5 143.25 174.5H147.78C151.94 174.5 154.02 176.12 154.02 179.36C154.033 180.281 153.838 181.194 153.45 182.03C153.093 182.798 152.537 183.458 151.84 183.94L154.84 188.94C154.572 189.488 154.143 189.942 153.61 190.24C152.942 190.797 152.125 191.145 151.26 191.24C150.994 191.257 150.728 191.205 150.488 191.09C150.249 190.974 150.042 190.798 149.89 190.58L147.66 185.38H146.92L146.9 190.77ZM146.9 178.7V182.26H147C148.5 182.26 149.26 181.63 149.26 180.38C149.277 180.149 149.247 179.918 149.172 179.699C149.096 179.481 148.976 179.28 148.82 179.11C148.407 178.801 147.894 178.655 147.38 178.7H146.9Z" fill="#260273"/>
<path d="M164.62 175.28C164.82 174.73 165.84 174.45 167.62 174.45C168.165 174.453 168.709 174.487 169.25 174.55C169.87 174.61 170.16 174.69 170.11 174.79L165.18 184.7V190.48C165.18 190.75 164.75 190.94 163.88 191.05C163.447 191.118 163.009 191.151 162.57 191.15C162.15 191.15 161.72 191.15 161.29 191.08C160.42 190.97 159.99 190.77 159.99 190.48V184.84L154.89 174.84C154.83 174.75 155.15 174.66 155.89 174.57C156.487 174.49 157.088 174.446 157.69 174.44C159.64 174.44 160.69 174.72 160.9 175.29L162.63 180.13L164.62 175.28Z" fill="#260273"/>
<path d="M75 203.58C74.67 203.49 74.15 203.39 74.15 202.92C74.2163 202.584 74.3678 202.271 74.59 202.01C74.95 201.42 75.28 200.45 76.1 200.45C76.72 200.45 77.1 200.73 77.1 201.37C77.1 201.6 77.1 201.82 77.1 202.03C77.1 203.16 77.1 204.3 77.1 205.42C77.1 205.78 77.1 206.13 77.1 206.49C77.1 206.85 77.23 207.2 77.23 207.56C77.23 208.08 76.72 208.27 76.23 208.27C74.9 208.27 75.1 206.62 75.1 205.68C75.1 205.12 75.1 204.55 75.1 203.99C75.14 203.85 75.17 203.63 75 203.58Z" fill="#260273"/>
<path d="M81.89 208.63C80.03 208.63 79.09 207.26 79.09 205.51C79.0917 204.957 79.1588 204.407 79.29 203.87C79.65 202.3 80.29 200.61 82.22 200.61C84.15 200.61 84.94 202.61 84.94 204.27C84.94 206.16 84.19 208.63 81.89 208.63ZM83 204.34C83 203.97 82.82 202.12 82.34 202.12C82.1826 202.144 82.0305 202.195 81.89 202.27C81.3137 203.272 81.0038 204.404 80.99 205.56C80.99 206.1 81.13 207.24 81.86 207.24C82.59 207.24 83 205 83 204.34Z" fill="#260273"/>
<path d="M89.64 208.63C87.78 208.63 86.84 207.26 86.84 205.51C86.845 204.957 86.9155 204.406 87.05 203.87C87.4 202.3 88.05 200.61 89.97 200.61C91.89 200.61 92.69 202.61 92.69 204.27C92.69 206.16 92 208.63 89.64 208.63ZM90.76 204.34C90.76 203.97 90.58 202.12 90.1 202.12C89.939 202.143 89.7833 202.193 89.64 202.27C89.0682 203.274 88.7587 204.405 88.74 205.56C88.74 206.1 88.88 207.24 89.62 207.24C90.36 207.24 90.76 205 90.76 204.34Z" fill="#260273"/>
<path d="M97.8 201.6C97.8624 201.755 97.9579 201.895 98.08 202.01C98.3433 202.151 98.5644 202.36 98.7208 202.615C98.8771 202.87 98.9631 203.161 98.97 203.46C98.881 204 98.5938 204.488 98.1646 204.828C97.7353 205.167 97.1947 205.335 96.6486 205.297C96.1024 205.26 95.5898 205.02 95.211 204.625C94.8322 204.23 94.6143 203.707 94.6 203.16C94.5879 202.896 94.6281 202.633 94.7182 202.385C94.8083 202.137 94.9466 201.91 95.1251 201.715C95.3035 201.521 95.5186 201.364 95.758 201.253C95.9975 201.143 96.2564 201.08 96.52 201.07C97 201.07 97.59 201.18 97.8 201.6ZM96.72 203C96.6552 203.005 96.5943 203.032 96.5484 203.078C96.5025 203.124 96.4746 203.185 96.47 203.25C96.47 203.37 96.38 203.9 96.77 203.9C96.97 203.9 97.05 203.68 97.05 203.49C97.05 203.3 96.93 203 96.72 203ZM102.22 202.1C101.54 203.61 100.88 205.1 100.22 206.66C99.8231 207.587 99.5086 208.548 99.28 209.53C99.2365 209.738 99.117 209.921 98.9449 210.045C98.7729 210.169 98.5607 210.224 98.35 210.2C97.92 210.2 97.35 210.01 97.35 209.5C97.35 208.25 100.06 202.19 100.69 200.96C100.796 200.766 100.952 200.603 101.142 200.489C101.332 200.375 101.549 200.313 101.77 200.31C102.14 200.31 102.65 200.58 102.65 201C102.65 201.42 102.39 201.76 102.22 202.12V202.1ZM103.03 209.76C102.773 209.77 102.516 209.726 102.276 209.632C102.037 209.537 101.82 209.393 101.639 209.209C101.458 209.026 101.318 208.807 101.227 208.566C101.136 208.325 101.096 208.067 101.11 207.81C101.093 207.108 101.348 206.427 101.821 205.909C102.294 205.391 102.95 205.076 103.65 205.03C103.911 205.022 104.171 205.07 104.413 205.168C104.654 205.267 104.873 205.416 105.054 205.604C105.234 205.793 105.374 206.017 105.463 206.262C105.552 206.508 105.588 206.769 105.57 207.03C105.564 207.727 105.297 208.397 104.821 208.906C104.345 209.415 103.695 209.727 103 209.78L103.03 209.76ZM103.66 206.9C103.66 206.78 103.66 206.6 103.5 206.6C103.34 206.6 103.01 207.6 103.01 207.82C103.01 208.04 103.01 208.18 103.15 208.18C103.29 208.18 103.66 207.16 103.66 206.92V206.9Z" fill="#260273"/>
<path d="M113.56 200.14C113.97 200.14 114.56 200.32 114.56 200.83C114.547 200.98 114.49 201.123 114.395 201.241C114.301 201.358 114.174 201.445 114.03 201.49C113.89 201.49 113.76 201.49 113.62 201.56C113.14 201.68 113.05 202.31 113.05 202.71C113.05 204.17 113.72 205.54 113.72 207C113.72 208.27 113.1 208.87 111.81 208.87C111.36 208.87 110.65 208.71 110.65 208.12C110.65 207.53 111.2 207.5 111.65 207.43C111.77 207.43 111.79 207.29 111.79 207.17C111.79 205.75 111.08 204.25 111.08 202.76C111.052 202.421 111.095 202.079 111.208 201.758C111.321 201.437 111.5 201.143 111.734 200.895C111.968 200.648 112.252 200.453 112.566 200.323C112.881 200.193 113.22 200.13 113.56 200.14Z" fill="#260273"/>
<path d="M120 205.29C119.93 205.41 119.87 205.58 119.8 205.72C119.56 206.21 119.36 206.72 119.16 207.21C118.96 207.7 118.71 208.41 117.92 208.41C117.7 208.439 117.478 208.387 117.293 208.264C117.109 208.141 116.977 207.954 116.92 207.74C116.622 206.333 116.477 204.898 116.49 203.46C116.49 202.92 116.49 202.38 116.49 201.84C116.475 201.724 116.475 201.606 116.49 201.49C116.58 201.04 117.06 200.9 117.49 200.9C117.704 200.893 117.917 200.937 118.11 201.03C118.5 201.23 118.52 201.54 118.52 201.93C118.52 202.56 118.52 203.21 118.52 203.84V203.97C118.52 203.97 119.28 202.52 120.24 202.64C120.79 202.7 121.15 203.18 121.47 203.75C121.656 204.089 121.878 204.407 122.13 204.7C122.139 204.722 122.154 204.741 122.174 204.756C122.193 204.77 122.216 204.778 122.24 204.78C122.32 204.78 122.32 204.68 122.32 204.64C122.32 203.2 122.12 201.75 122.12 200.31C122.12 199.8 122.66 199.59 123.12 199.59C123.93 199.59 124.18 200.03 124.18 200.76C124.18 202.51 124.24 204.65 124.27 206.11C124.306 206.322 124.294 206.539 124.233 206.746C124.172 206.952 124.065 207.141 123.92 207.3C123.723 207.454 123.48 207.539 123.23 207.54C122.23 207.54 120.9 205.97 120.31 205.26C120.296 205.235 120.275 205.214 120.251 205.198C120.227 205.182 120.199 205.173 120.17 205.17C120.133 205.171 120.097 205.183 120.067 205.205C120.037 205.226 120.014 205.256 120 205.29Z" fill="#260273"/>
<path d="M130.55 209C129.554 209.409 128.495 209.646 127.42 209.7C126.04 209.7 126.18 208.93 126.18 207.84C126.18 205.65 126.54 203.46 126.6 201.27C126.586 201.049 126.658 200.83 126.8 200.66C127.239 200.313 127.792 200.142 128.35 200.18C128.71 200.18 129.07 200.09 129.42 200.09H129.5C129.667 200.017 129.848 199.982 130.03 199.99C130.44 199.99 131.03 200.24 131.03 200.72C131.03 201.46 129.46 201.62 128.93 201.62C128.79 201.62 128.64 201.54 128.64 201.76C128.64 201.98 128.64 202.1 128.64 202.28C128.64 202.66 128.64 203.04 128.56 203.42C128.48 203.8 128.49 203.96 128.49 204.23C128.49 204.32 128.49 204.41 128.6 204.41C128.71 204.41 129.01 204.28 129.23 204.28C129.63 204.28 130.23 204.55 130.23 205.02C130.23 205.49 129.11 206.02 128.61 206.18C128.53 206.198 128.457 206.24 128.401 206.301C128.346 206.362 128.31 206.438 128.3 206.52C128.3 206.94 128.3 207.37 128.3 207.79C128.297 207.822 128.301 207.854 128.311 207.884C128.322 207.914 128.338 207.942 128.36 207.966C128.382 207.989 128.408 208.008 128.437 208.021C128.466 208.034 128.498 208.04 128.53 208.04C129.06 208.04 129.46 207.6 129.98 207.6C130.5 207.6 131.03 207.8 131.03 208.31C131.014 208.456 130.962 208.596 130.878 208.716C130.794 208.837 130.681 208.934 130.55 209Z" fill="#260273"/>
<path d="M133 208.24C133 207.74 133 207.24 133 206.74C133 205.51 133.1 204.27 133.17 203.04C133.17 202.21 133.17 201.5 133.28 200.66C133.28 200.18 133.8 200.04 134.22 200.04H136.59C137.09 200.04 137.93 199.93 137.93 200.74C137.93 201.55 137.32 201.46 136.85 201.46C136.38 201.46 135.94 201.4 135.49 201.4C135.453 201.394 135.416 201.396 135.381 201.406C135.345 201.416 135.312 201.433 135.283 201.457C135.255 201.481 135.232 201.51 135.216 201.543C135.2 201.577 135.191 201.613 135.19 201.65C135.19 202.27 135.09 203.06 135.09 203.65C135.09 203.76 135.09 203.84 135.26 203.84C135.43 203.84 135.73 203.7 135.98 203.7C136.23 203.7 136.89 203.96 136.89 204.36C136.89 204.96 135.57 205.31 135.13 205.47C135.01 205.52 134.98 205.57 134.98 205.71C134.98 206.17 134.98 206.63 134.98 207.1C134.98 207.57 134.98 207.54 135.51 207.54H136.9C137.36 207.54 137.75 207.61 137.75 208.23C137.75 208.85 137.37 208.92 136.9 208.92H134.34C133.76 208.93 133.05 208.88 133 208.24Z" fill="#260273"/>
<path d="M145.65 201.46C145.26 201.46 144.92 201.52 144.45 201.52C144.376 201.522 144.305 201.552 144.251 201.604C144.197 201.656 144.165 201.726 144.16 201.8V207.88C144.16 208.17 144.16 208.46 144.16 208.77C144.16 209.5 143.91 209.86 143.16 209.86C142.04 209.86 142.16 209.1 142.16 208.24C142.16 207.59 142.16 207.6 142.16 206.96V201.54C142.16 201.503 142.153 201.466 142.138 201.432C142.123 201.398 142.101 201.367 142.074 201.342C142.047 201.316 142.015 201.297 141.979 201.285C141.944 201.272 141.907 201.267 141.87 201.27C141.51 201.27 141.63 201.27 141.27 201.27C140.91 201.27 139.47 201.27 139.47 200.59C139.47 199.91 140.07 199.8 140.58 199.8C141.58 199.8 142.21 199.8 143.26 199.8C143.95 199.8 146.78 199.65 146.78 200.73C146.75 201.23 146.08 201.46 145.65 201.46Z" fill="#260273"/>
</g>
<defs>
<clipPath id="clip0_0_6609">
<rect width="219.64" height="255.46" fill="white"/>
</clipPath>
</defs>
</svg>
