<svg width="319" height="128" viewBox="0 0 319 128" fill="none" xmlns="http://www.w3.org/2000/svg">
<g clip-path="url(#clip0_0_6640)">
<path d="M313.45 12.69C312.475 13.6605 311.783 14.8793 311.451 16.2145C311.119 17.5498 311.158 18.9504 311.565 20.2648C311.972 21.5792 312.731 22.7572 313.759 23.6712C314.788 24.5852 316.047 25.2004 317.4 25.45C317.788 25.5268 318.137 25.7366 318.388 26.0433C318.638 26.35 318.773 26.7343 318.77 27.13V31.75C318.773 32.1457 318.638 32.53 318.388 32.8367C318.137 33.1434 317.788 33.3532 317.4 33.43C315.67 33.7553 314.108 34.6748 312.984 36.0297C311.86 37.3846 311.245 39.0896 311.245 40.85C311.245 42.6104 311.86 44.3154 312.984 45.6703C314.108 47.0252 315.67 47.9447 317.4 48.27C317.797 48.3482 318.153 48.5654 318.404 48.8825C318.655 49.1996 318.785 49.5958 318.77 50V54.62C318.771 55.0164 318.636 55.4012 318.386 55.7091C318.137 56.0171 317.788 56.2293 317.4 56.31C315.901 56.5808 314.522 57.3071 313.45 58.39C312.474 59.3593 311.782 60.5775 311.449 61.9122C311.117 63.247 311.156 64.6474 311.563 65.9614C311.97 67.2754 312.729 68.4528 313.758 69.3657C314.787 70.2787 316.047 70.8923 317.4 71.14C317.789 71.2189 318.138 71.4307 318.388 71.739C318.638 72.0474 318.773 72.4331 318.77 72.83V77.44C318.773 77.8357 318.638 78.22 318.388 78.5267C318.137 78.8334 317.788 79.0432 317.4 79.12C315.664 79.4399 314.095 80.3578 312.966 81.7142C311.837 83.0707 311.218 84.7799 311.218 86.545C311.218 88.3101 311.837 90.0193 312.966 91.3758C314.095 92.7322 315.664 93.6501 317.4 93.97C317.788 94.0468 318.137 94.2566 318.388 94.5633C318.638 94.87 318.773 95.2543 318.77 95.65V100.27C318.773 100.666 318.638 101.05 318.388 101.357C318.137 101.663 317.788 101.873 317.4 101.95C315.668 102.278 314.105 103.199 312.979 104.555C311.852 105.911 311.234 107.617 311.23 109.38C311.235 111.141 311.853 112.846 312.979 114.201C314.106 115.555 315.669 116.474 317.4 116.8C317.789 116.875 318.139 117.084 318.39 117.391C318.64 117.698 318.775 118.084 318.77 118.48V124.68C318.77 125.134 318.59 125.57 318.27 125.893C317.949 126.215 317.514 126.397 317.06 126.4H1.28999C1.1163 126.4 0.944363 126.365 0.784503 126.297C0.624642 126.229 0.480147 126.13 0.359682 126.005C0.239217 125.88 0.145264 125.731 0.0834566 125.569C0.0216491 125.407 -0.00673959 125.234 -7.13905e-06 125.06V2.29C-7.13905e-06 1.94787 0.135903 1.61975 0.377825 1.37783C0.619747 1.13591 0.947864 1 1.28999 1H317.06C317.514 1.00264 317.949 1.18502 318.27 1.5073C318.59 1.82957 318.77 2.26556 318.77 2.72V8.92C318.773 9.31571 318.638 9.70002 318.388 10.0067C318.137 10.3134 317.788 10.5232 317.4 10.6C315.901 10.8785 314.523 11.6076 313.45 12.69Z" fill="#FF8D18"/>
<path d="M52.54 21.78V25.2H51.82C50.51 25.2 50.12 26.81 49.82 27.46C49.52 28.11 45.56 40 45.56 40H41.84L39.31 32.37L36.73 40H32.91C32.91 40.08 29.91 30.68 28.61 27.42C28.19 26.42 27.96 25.24 26.34 25.24H25.77V21.78H34.77V25.2H34C32.94 25.2 32.86 25.93 33.2 26.65L35.31 32.91C35.77 31.37 36.58 28.91 37.08 27.7C37.41 26.65 38.14 25.2 36.58 25.2H35.7V21.78H43.7V25.2H42.87C41.78 25.2 41.87 25.79 41.99 26.65L44.1 32.91C44.67 31.37 45.48 28.91 45.89 27.7C46.28 26.65 47.01 25.2 45.4 25.2H44.51V21.78H52.54Z" fill="#FFFCD1"/>
<path d="M69.83 26.39V35.39C69.8553 35.6977 69.9963 35.9843 70.2245 36.1921C70.4528 36.4 70.7513 36.5136 71.06 36.51H72V40H63V36.53H63.81C64.1467 36.4947 64.4573 36.3322 64.6785 36.0758C64.8996 35.8194 65.0146 35.4883 65 35.15V32.65H59.9V35.15C59.8919 35.5047 60.0237 35.8483 60.267 36.1066C60.5103 36.3648 60.8454 36.5169 61.2 36.53H62.01V40H53.01V36.53H54C54.3063 36.5287 54.6011 36.4132 54.8267 36.2061C55.0524 35.9989 55.1926 35.7151 55.22 35.41V26.41C55.1974 26.1013 55.0592 25.8126 54.8331 25.6013C54.6069 25.39 54.3095 25.2717 54 25.27H53.11V21.78H62.11V25.27H61.3C60.9375 25.3006 60.6006 25.469 60.3588 25.7407C60.1169 26.0123 59.9885 26.3664 60 26.73V29.16H65V26.73C65.017 26.3699 64.8944 26.0172 64.6578 25.7453C64.4213 25.4733 64.0889 25.3031 63.73 25.27H63V21.78H72V25.27H71.11C70.7928 25.2533 70.4817 25.361 70.2426 25.5702C70.0036 25.7793 69.8556 26.0734 69.83 26.39Z" fill="#FFFCD1"/>
<path d="M91.35 36.53V40H82.35V36.53H83.16C84.16 36.53 84.16 35.88 83.97 35.15L83.84 34.75H78.9L78.71 35.28C78.53 35.88 78.71 36.53 79.6 36.53H80.49V40H72.49V36.53H73.3C74.5 36.53 74.94 34.91 75.15 34.34C75.46 33.5 79.45 21.78 79.45 21.78H84.16L88.54 34.34C88.88 35.34 89.19 36.53 90.8 36.53H91.35ZM83 32.33L81.38 27.38C81.38 27.38 80.47 30.01 79.69 32.33H83Z" fill="#FFFCD1"/>
<path d="M110.91 29.16H107.1C107.1 26.97 107.03 25.27 105.23 25.27H105.07C104.72 25.2951 104.392 25.4508 104.151 25.7065C103.91 25.9621 103.774 26.2988 103.77 26.65V35.15C103.774 35.5011 103.91 35.8379 104.151 36.0935C104.392 36.3492 104.72 36.5049 105.07 36.53H105.88V40H96.88V36.53H97.77C98.078 36.5312 98.3753 36.4168 98.603 36.2095C98.8308 36.0021 98.9724 35.7168 99 35.41V26.41C98.9726 26.1049 98.8324 25.821 98.6067 25.6139C98.3811 25.4068 98.0863 25.2913 97.78 25.29H97.54C95.75 25.29 95.67 26.99 95.67 29.18H91.87V21.78H110.87L110.91 29.16Z" fill="#FFFCD1"/>
<path d="M124.81 26.65V35.07C124.816 35.4416 124.962 35.7974 125.217 36.0676C125.472 36.3377 125.819 36.5026 126.19 36.53H126.92V40H117.92V36.53H118.8C119.103 36.526 119.395 36.4091 119.617 36.202C119.838 35.9949 119.975 35.7125 120 35.41V26.41C119.992 26.0917 119.86 25.789 119.632 25.5667C119.404 25.3443 119.098 25.2199 118.78 25.22H117.9V21.78H126.9V25.2H126.17C125.804 25.2297 125.462 25.3947 125.21 25.6627C124.959 25.9307 124.816 26.2826 124.81 26.65Z" fill="#FFFCD1"/>
<path d="M142 34.34C142 36.94 140.46 40.02 136.09 40.02C134.63 40.02 132.09 39.78 131.14 38.64V40H127.49V33.2H131.14C131.14 36.27 133.98 36.51 135.2 36.51C136.2 36.51 137.28 36.35 137.28 35.13C137.262 34.8572 137.171 34.5944 137.016 34.3691C136.861 34.1438 136.648 33.9645 136.4 33.85C134.891 33.3453 133.351 32.9378 131.79 32.63C127.91 31.56 127.49 29.37 127.49 27.44C127.49 23.38 130.49 21.76 133.49 21.76C135.083 21.6698 136.65 22.1921 137.87 23.22V21.78H141.59V28.66H137.87C137.872 27.8384 137.577 27.0437 137.041 26.4213C136.505 25.7988 135.763 25.3901 134.95 25.27C134.14 25.12 132.29 25.35 132.29 26.65C132.29 27.04 132.37 27.7 133.75 28.11C135.687 28.4786 137.581 29.0484 139.4 29.81C141.14 31 142 31.92 142 34.34Z" fill="#FFFCD1"/>
<path d="M44.65 53V56.49H44C42.7 56.49 41.74 57.79 41.4 58.41L37.85 63.78V66.28C37.8357 66.641 37.9605 66.9937 38.1987 67.2654C38.4368 67.5371 38.7702 67.707 39.13 67.74H39.86V71.23H30.86V67.78H31.75C32.0614 67.7863 32.3637 67.6742 32.5957 67.4663C32.8277 67.2584 32.9722 66.9703 33 66.66V63.82C33 63.9 29.2 58.3 29.2 58.3C28.47 57.41 27.98 56.53 26.44 56.53H25.79V53H34.79V56.49H34C32.8 56.49 33.34 57.49 33.76 57.94L35.76 61.02L38 57.91C38.24 57.57 38.81 56.53 37.35 56.53H36.62V53H44.65Z" fill="#FFFCD1"/>
<path d="M52.62 71.4C45.48 71.4 45.17 65.02 45.17 62.15C45.17 58.22 45.82 52.91 52.46 52.91C59.1 52.91 59.91 57.83 59.91 61.84C59.91 64.6 60.15 71.4 52.62 71.4ZM55.15 62.46C55.15 58.3 54.81 56.46 52.54 56.46C50.02 56.46 50.02 58.46 50.02 62.46C50.02 65.36 50.17 67.8 52.62 67.8C55.07 67.8 55.15 64.94 55.15 62.46Z" fill="#FFFCD1"/>
<path d="M79.32 53V56.49H78.51C78.3546 56.4777 78.1983 56.4974 78.0507 56.5479C77.9032 56.5983 77.7676 56.6785 77.6523 56.7835C77.5371 56.8885 77.4445 57.016 77.3805 57.1582C77.3164 57.3003 77.2822 57.4541 77.28 57.61V63.15C77.28 68.62 75.28 71.23 70.15 71.23C64.63 71.23 62.54 69.33 62.54 63.15V57.65C62.5148 57.3441 62.3753 57.0589 62.1491 56.8513C61.923 56.6437 61.627 56.529 61.32 56.53H60.43V53H69.43V56.49H68.62C68.2654 56.503 67.9303 56.6551 67.687 56.9134C67.4437 57.1717 67.3119 57.5153 67.32 57.87V63.15C67.32 66.41 67.81 67.74 69.92 67.74C72.03 67.74 73.41 66.85 73.41 63.15V57.65C73.3848 57.3441 73.2453 57.0589 73.0191 56.8513C72.793 56.6437 72.497 56.529 72.19 56.53H71.3V53H79.32Z" fill="#FFFCD1"/>
<path d="M98.72 70.15C98.2845 70.5442 97.774 70.8465 97.219 71.039C96.6641 71.2314 96.076 71.31 95.49 71.27C94.7896 71.2742 94.1041 71.0676 93.5227 70.6771C92.9413 70.2865 92.4909 69.73 92.23 69.08C91.35 66.24 92.81 63.9 89.39 63.9H86.74V66.42C86.7503 66.7809 86.8996 67.1239 87.1567 67.3773C87.4139 67.6307 87.759 67.775 88.12 67.78H88.85V71.27H79.85V67.78H80.74C80.8964 67.7881 81.0529 67.7644 81.2 67.7104C81.3471 67.6564 81.4817 67.5731 81.5957 67.4657C81.7097 67.3582 81.8007 67.2287 81.8634 67.0851C81.926 66.9415 81.9588 66.7867 81.96 66.63V57.63C81.9444 57.3188 81.8085 57.0258 81.5808 56.813C81.3531 56.6003 81.0515 56.4844 80.74 56.49H79.85V53H91.11C94.26 53 96.61 54.3 96.61 58.1C96.5981 59.0984 96.2197 60.0576 95.5467 60.7951C94.8737 61.5326 93.9531 61.997 92.96 62.1C93.4608 62.1086 93.9546 62.2183 94.412 62.4224C94.8694 62.6265 95.2808 62.9209 95.6217 63.2879C95.9625 63.6549 96.2258 64.0869 96.3956 64.5581C96.5654 65.0293 96.6383 65.5299 96.61 66.03C96.69 68.15 98.15 67.57 98.15 67.57L98.72 70.15ZM86.72 60.41H89.37C92.86 60.41 92.29 56.53 89.63 56.53H88.12C87.7451 56.5506 87.3925 56.7148 87.1355 56.9885C86.8785 57.2623 86.7368 57.6245 86.74 58L86.72 60.41Z" fill="#FFFCD1"/>
<path d="M124.79 53V56.49H124C123.836 56.4792 123.671 56.5017 123.515 56.5563C123.36 56.6108 123.217 56.6963 123.096 56.8075C122.974 56.9186 122.877 57.0533 122.809 57.2032C122.741 57.3532 122.704 57.5154 122.7 57.68V71.27H118.7L111.7 59.37V66.58C111.702 66.7455 111.738 66.9088 111.806 67.0599C111.873 67.211 111.971 67.3468 112.092 67.4591C112.214 67.5713 112.357 67.6577 112.513 67.7129C112.669 67.768 112.835 67.7909 113 67.78H113.81V71.27H105.81V67.78H106.69C106.998 67.7812 107.295 67.6669 107.523 67.4595C107.751 67.2521 107.892 66.9668 107.92 66.66V57.66C107.892 57.3532 107.751 57.0679 107.523 56.8605C107.295 56.6532 106.998 56.5388 106.69 56.54H105.81V53H112.61L114.79 56.49L118.86 63.44V57.65C118.856 57.4945 118.821 57.3415 118.757 57.2C118.692 57.0585 118.6 56.9316 118.485 56.8269C118.37 56.7222 118.235 56.6419 118.088 56.5909C117.941 56.5398 117.785 56.5191 117.63 56.53H116.83V53H124.79Z" fill="#FFFCD1"/>
<path d="M144.19 67.78V71.27H135.19V67.78H136C137 67.78 137 67.13 136.81 66.4L136.68 66.01H131.73L131.55 66.53C131.36 67.13 131.55 67.78 132.43 67.78H133.32V71.27H125.32V67.78H126.12C127.32 67.78 127.76 66.16 127.97 65.59C128.29 64.76 132.27 53.04 132.27 53.04H137L141.37 65.59C141.71 66.59 142.02 67.78 143.64 67.78H144.19ZM135.88 63.58L134.27 58.64C134.27 58.64 133.35 61.27 132.57 63.58H135.88Z" fill="#FFFCD1"/>
<path d="M167.19 57.91V66.37C167.176 66.7374 167.302 67.0964 167.544 67.3734C167.786 67.6505 168.124 67.8245 168.49 67.86H169.3V71.27H160.3V67.86H161.18C161.505 67.8574 161.817 67.727 162.047 67.4968C162.277 67.2667 162.407 66.9554 162.41 66.63L162.49 58.97L157.77 71.27H155.51L150.77 58.74V66.63C150.77 66.7976 150.804 66.9635 150.87 67.1174C150.936 67.2714 151.033 67.4103 151.155 67.5255C151.276 67.6406 151.42 67.7297 151.578 67.7873C151.735 67.8448 151.903 67.8695 152.07 67.86H152.8V71.27H144.8V67.86H145.68C146.005 67.8574 146.317 67.727 146.547 67.4968C146.777 67.2667 146.907 66.9554 146.91 66.63V57.63C146.892 57.3179 146.754 57.0249 146.525 56.8123C146.295 56.5998 145.993 56.4843 145.68 56.49H144.8V53H153.5L157.17 62.84L160.91 53H169.3V56.41H168.49C168.119 56.4382 167.775 56.6116 167.531 56.8925C167.288 57.1734 167.165 57.5391 167.19 57.91Z" fill="#FFFCD1"/>
<path d="M176.69 58V60.43H181.69V63.9H176.69V66.4C176.7 66.7628 176.849 67.108 177.105 67.3646C177.362 67.6213 177.707 67.7699 178.07 67.78H179.29C181.8 67.78 182.86 66.78 182.86 63.9H186.67V71.27H169.81V67.78H170.7C171.01 67.7909 171.311 67.6795 171.539 67.47C171.768 67.2604 171.904 66.9695 171.92 66.66V57.66C171.895 57.3541 171.755 57.0689 171.529 56.8613C171.303 56.6537 171.007 56.539 170.7 56.54H169.81V53H186.67V60.37H182.86C182.86 57.53 181.8 56.49 179.29 56.49H178.07C177.69 56.5157 177.334 56.6869 177.077 56.9682C176.82 57.2495 176.681 57.6191 176.69 58Z" fill="#FFFCD1"/>
<path d="M197.42 64.37C197.402 63.6625 197.549 62.9606 197.85 62.32C198.095 61.7905 198.434 61.3095 198.85 60.9C199.335 60.472 199.846 60.0746 200.38 59.71C200.879 59.3798 201.345 59.0013 201.77 58.58C202.057 58.2824 202.215 57.8835 202.21 57.47C202.21 56.8033 201.69 56.47 200.65 56.47C199.718 56.4904 198.795 56.6488 197.91 56.94C196.976 57.2291 196.064 57.5833 195.18 58L193.8 52.69C195.088 52.0997 196.427 51.6277 197.8 51.28C199.267 50.885 200.78 50.6833 202.3 50.68C203.621 50.651 204.935 50.8786 206.17 51.35C207.178 51.7218 208.06 52.3741 208.71 53.23C209.3 54.0578 209.609 55.0535 209.59 56.07C209.615 56.8834 209.461 57.6924 209.14 58.44C208.859 59.0256 208.473 59.5544 208 60C207.461 60.4894 206.886 60.9373 206.28 61.34C205.69 61.76 205.22 62.12 204.86 62.43C204.499 62.7566 204.201 63.1463 203.98 63.58C203.729 64.0788 203.606 64.6319 203.62 65.19V65.59H197.4L197.42 64.37ZM197.42 71.27V67H203.62V71.27H197.42Z" fill="#FFFCD1"/>
<path d="M202.03 83.53H39.04C31.5676 83.53 25.51 89.5876 25.51 97.06C25.51 104.532 31.5676 110.59 39.04 110.59H202.03C209.502 110.59 215.56 104.532 215.56 97.06C215.56 89.5876 209.502 83.53 202.03 83.53Z" fill="#FFFCD1"/>
<path d="M265.14 5.5C264.875 5.5 264.62 5.39464 264.433 5.20711C264.245 5.01957 264.14 4.76522 264.14 4.5V1C264.14 0.734784 264.245 0.48043 264.433 0.292893C264.62 0.105357 264.875 0 265.14 0C265.405 0 265.66 0.105357 265.847 0.292893C266.035 0.48043 266.14 0.734784 266.14 1V4.5C266.14 4.76522 266.035 5.01957 265.847 5.20711C265.66 5.39464 265.405 5.5 265.14 5.5Z" fill="#FFFCD1"/>
<path d="M265.14 116.89C264.875 116.89 264.62 116.785 264.433 116.597C264.245 116.41 264.14 116.155 264.14 115.89V108.89C264.14 108.625 264.245 108.37 264.433 108.183C264.62 107.995 264.875 107.89 265.14 107.89C265.405 107.89 265.66 107.995 265.847 108.183C266.035 108.37 266.14 108.625 266.14 108.89V115.89C266.14 116.155 266.035 116.41 265.847 116.597C265.66 116.785 265.405 116.89 265.14 116.89ZM265.14 102.96C264.875 102.96 264.62 102.855 264.433 102.667C264.245 102.48 264.14 102.225 264.14 101.96V95C264.14 94.7348 264.245 94.4804 264.433 94.2929C264.62 94.1054 264.875 94 265.14 94C265.405 94 265.66 94.1054 265.847 94.2929C266.035 94.4804 266.14 94.7348 266.14 95V102C266.14 102.265 266.035 102.52 265.847 102.707C265.66 102.895 265.405 103 265.14 103V102.96ZM265.14 89.04C264.875 89.04 264.62 88.9346 264.433 88.7471C264.245 88.5596 264.14 88.3052 264.14 88.04V81.04C264.14 80.7748 264.245 80.5204 264.433 80.3329C264.62 80.1454 264.875 80.04 265.14 80.04C265.405 80.04 265.66 80.1454 265.847 80.3329C266.035 80.5204 266.14 80.7748 266.14 81.04V88.04C266.13 88.2982 266.02 88.5424 265.833 88.7214C265.647 88.9004 265.398 89.0002 265.14 89V89.04ZM265.14 75.12C264.875 75.12 264.62 75.0146 264.433 74.8271C264.245 74.6396 264.14 74.3852 264.14 74.12V67.12C264.14 66.8548 264.245 66.6004 264.433 66.4129C264.62 66.2254 264.875 66.12 265.14 66.12C265.405 66.12 265.66 66.2254 265.847 66.4129C266.035 66.6004 266.14 66.8548 266.14 67.12V74.12C266.14 74.3852 266.035 74.6396 265.847 74.8271C265.66 75.0146 265.405 75.12 265.14 75.12ZM265.14 61.19C264.875 61.19 264.62 61.0846 264.433 60.8971C264.245 60.7096 264.14 60.4552 264.14 60.19V53.19C264.14 52.9248 264.245 52.6704 264.433 52.4829C264.62 52.2954 264.875 52.19 265.14 52.19C265.405 52.19 265.66 52.2954 265.847 52.4829C266.035 52.6704 266.14 52.9248 266.14 53.19V60.19C266.14 60.4552 266.035 60.7096 265.847 60.8971C265.66 61.0846 265.405 61.19 265.14 61.19ZM265.14 47.27C264.875 47.27 264.62 47.1646 264.433 46.9771C264.245 46.7896 264.14 46.5352 264.14 46.27V39.27C264.14 39.0048 264.245 38.7504 264.433 38.5629C264.62 38.3754 264.875 38.27 265.14 38.27C265.405 38.27 265.66 38.3754 265.847 38.5629C266.035 38.7504 266.14 39.0048 266.14 39.27V46.27C266.14 46.5352 266.035 46.7896 265.847 46.9771C265.66 47.1646 265.405 47.27 265.14 47.27ZM265.14 33.35C264.875 33.35 264.62 33.2446 264.433 33.0571C264.245 32.8696 264.14 32.6152 264.14 32.35V25.35C264.14 25.0848 264.245 24.8304 264.433 24.6429C264.62 24.4554 264.875 24.35 265.14 24.35C265.405 24.35 265.66 24.4554 265.847 24.6429C266.035 24.8304 266.14 25.0848 266.14 25.35V32.35C266.14 32.6152 266.035 32.8696 265.847 33.0571C265.66 33.2446 265.405 33.35 265.14 33.35ZM265.14 19.42C264.875 19.42 264.62 19.3146 264.433 19.1271C264.245 18.9396 264.14 18.6852 264.14 18.42V11.42C264.14 11.1548 264.245 10.9004 264.433 10.7129C264.62 10.5254 264.875 10.42 265.14 10.42C265.405 10.42 265.66 10.5254 265.847 10.7129C266.035 10.9004 266.14 11.1548 266.14 11.42V18.42C266.14 18.6852 266.035 18.9396 265.847 19.1271C265.66 19.3146 265.405 19.42 265.14 19.42Z" fill="#FFFCD1"/>
<path d="M265.14 127.35C264.875 127.35 264.62 127.245 264.433 127.057C264.245 126.87 264.14 126.615 264.14 126.35V122.85C264.14 122.585 264.245 122.33 264.433 122.143C264.62 121.955 264.875 121.85 265.14 121.85C265.405 121.85 265.66 121.955 265.847 122.143C266.035 122.33 266.14 122.585 266.14 122.85V126.35C266.14 126.615 266.035 126.87 265.847 127.057C265.66 127.245 265.405 127.35 265.14 127.35Z" fill="#FFFCD1"/>
<path d="M171.78 48.98C183.643 48.98 193.26 39.3631 193.26 27.5C193.26 15.6369 183.643 6.02 171.78 6.02C159.917 6.02 150.3 15.6369 150.3 27.5C150.3 39.3631 159.917 48.98 171.78 48.98Z" fill="#FCC200"/>
<mask id="mask0_0_6640" style="mask-type:luminance" maskUnits="userSpaceOnUse" x="150" y="6" width="44" height="43">
<path d="M171.78 48.98C183.643 48.98 193.26 39.3631 193.26 27.5C193.26 15.6369 183.643 6.02 171.78 6.02C159.917 6.02 150.3 15.6369 150.3 27.5C150.3 39.3631 159.917 48.98 171.78 48.98Z" fill="white"/>
</mask>
<g mask="url(#mask0_0_6640)">
<path d="M180.62 12.72C181.308 12.7177 181.989 12.8572 182.62 13.13C183.228 13.4006 183.783 13.7763 184.26 14.24C184.733 14.7078 185.113 15.2609 185.38 15.87C185.653 16.5014 185.792 17.1822 185.79 17.87V44.42C185.792 45.6736 185.624 46.9217 185.29 48.13C184.639 50.4691 183.394 52.6003 181.677 54.3172C179.96 56.0341 177.829 57.2785 175.49 57.93C173.058 58.5967 170.492 58.5967 168.06 57.93C165.721 57.2822 163.589 56.0423 161.87 54.33C161.025 53.4805 160.292 52.5261 159.69 51.49C159.075 50.4386 158.598 49.3128 158.27 48.14C157.937 46.9281 157.769 45.6768 157.77 44.42V36.31C157.762 35.5197 157.919 34.7364 158.23 34.01C158.527 33.3091 158.955 32.6711 159.49 32.13C160.032 31.5962 160.67 31.1688 161.37 30.87C162.1 30.5597 162.887 30.4032 163.68 30.41H164.46C164.841 29.7168 165.366 29.1133 166 28.64C166.639 28.1661 167.367 27.8259 168.14 27.64L165.51 21.38C165.376 21.057 165.272 20.7222 165.2 20.38C165.121 20.0525 165.081 19.7169 165.08 19.38C165.082 18.6926 165.221 18.0125 165.49 17.38C165.755 16.7635 166.132 16.2008 166.6 15.72C167.07 15.2448 167.626 14.8645 168.24 14.6C169.47 14.0867 170.848 14.0546 172.1 14.51C172.636 14.7121 173.131 15.0103 173.56 15.39C173.989 15.7752 174.357 16.2237 174.65 16.72C174.968 17.2496 175.227 17.8131 175.42 18.4V17.86C175.418 17.1722 175.557 16.4914 175.83 15.86C176.117 15.2524 176.513 14.7031 177 14.24C177.477 13.7763 178.032 13.4006 178.64 13.13C179.265 12.8599 179.939 12.7204 180.62 12.72ZM171.78 55.47C173.261 55.4803 174.729 55.1841 176.09 54.6C177.4 54.0402 178.591 53.2358 179.6 52.23C180.597 51.2179 181.4 50.0316 181.97 48.73C182.554 47.3687 182.85 45.9013 182.84 44.42C182.842 43.7322 182.703 43.0514 182.43 42.42C181.888 41.1916 180.902 40.2131 179.67 39.68C179.039 39.4072 178.358 39.2677 177.67 39.27H165.87C165.578 39.2703 165.289 39.328 165.02 39.44C164.76 39.5575 164.52 39.7162 164.31 39.91C164.11 40.1132 163.948 40.3502 163.83 40.61C163.718 40.8794 163.66 41.1682 163.66 41.46C163.659 41.7518 163.717 42.0408 163.83 42.31C163.945 42.5742 164.108 42.8149 164.31 43.02C164.512 43.2267 164.753 43.39 165.02 43.5C165.287 43.6197 165.577 43.6811 165.87 43.68H170.3C170.398 43.6772 170.495 43.6945 170.586 43.7307C170.677 43.7669 170.76 43.8213 170.829 43.8906C170.899 43.9599 170.953 44.0426 170.989 44.1336C171.026 44.2246 171.043 44.3221 171.04 44.42V50.33C171.041 50.4271 171.023 50.5235 170.986 50.6133C170.949 50.7032 170.895 50.7847 170.826 50.8528C170.757 50.921 170.674 50.9746 170.584 51.0102C170.494 51.0457 170.397 51.0627 170.3 51.06C170.204 51.0616 170.108 51.0438 170.019 51.0077C169.929 50.9716 169.848 50.918 169.78 50.85C169.712 50.7814 169.659 50.7002 169.623 50.611C169.587 50.5217 169.569 50.4262 169.57 50.33V45.16H165.87C165.382 45.1614 164.899 45.0627 164.45 44.87C163.782 44.5853 163.212 44.1101 162.812 43.5037C162.412 42.8973 162.199 42.1865 162.2 41.46C162.207 40.6169 162.496 39.8002 163.02 39.14C163.281 38.8126 163.595 38.5319 163.95 38.31C164.313 38.0887 164.713 37.933 165.13 37.85V33.36H163.68C163.281 33.3573 162.885 33.4391 162.52 33.6C162.169 33.7469 161.849 33.9609 161.58 34.23C161.034 34.7854 160.726 35.5313 160.72 36.31V44.42C160.708 45.9025 161.008 47.3709 161.6 48.73C162.162 50.0332 162.963 51.2201 163.96 52.23C164.969 53.2358 166.16 54.0402 167.47 54.6C168.831 55.1841 170.299 55.4803 171.78 55.47ZM169.57 30.41C169.175 30.407 168.784 30.4853 168.42 30.64C168.07 30.7929 167.751 31.01 167.48 31.28C167.213 31.5476 167 31.8631 166.85 32.21C166.689 32.572 166.607 32.964 166.61 33.36V37.79H171V30.41H169.57ZM182.84 40.29V17.87C182.841 17.5771 182.78 17.2873 182.66 17.02C182.552 16.755 182.388 16.5163 182.18 16.32C181.972 16.124 181.732 15.9651 181.47 15.85C181.201 15.7373 180.912 15.6795 180.62 15.68C180.328 15.6803 180.039 15.738 179.77 15.85C179.51 15.9675 179.27 16.1262 179.06 16.32C178.858 16.5214 178.695 16.7588 178.58 17.02C178.463 17.288 178.405 17.5778 178.41 17.87V29.52C178.41 29.756 178.316 29.9824 178.149 30.1493C177.982 30.3162 177.756 30.41 177.52 30.41C177.359 30.4205 177.2 30.3745 177.07 30.28C176.945 30.1856 176.834 30.0746 176.74 29.95C176.62 29.771 176.525 29.5757 176.46 29.37C176.32 29.04 176.16 28.62 175.97 28.12C175.78 27.62 175.56 27.05 175.33 26.42C175.1 25.79 174.86 25.13 174.61 24.42C174.36 23.71 174.12 23.1 173.88 22.42L173.22 20.62C173.01 20.08 172.83 19.62 172.67 19.21C172.51 18.8 172.4 18.54 172.33 18.39C172.157 17.9829 171.868 17.6353 171.5 17.39C171.139 17.1503 170.714 17.0248 170.28 17.03C169.987 17.0289 169.697 17.0903 169.43 17.21C169.171 17.3239 168.934 17.4831 168.73 17.68C168.534 17.8845 168.375 18.1214 168.26 18.38C168.147 18.6492 168.089 18.9382 168.09 19.23C168.09 19.539 168.151 19.8449 168.27 20.13L172.52 30.29V37.67H177.67C178.662 37.6629 179.642 37.889 180.53 38.33C181.431 38.8108 182.219 39.4792 182.84 40.29Z" fill="#FF8D18"/>
</g>
</g>
<defs>
<clipPath id="clip0_0_6640">
<rect width="318.77" height="127.35" fill="white"/>
</clipPath>
</defs>
</svg>
