<svg width="169" height="169" viewBox="0 0 169 169" fill="none" xmlns="http://www.w3.org/2000/svg">
<g clip-path="url(#clip0_0_6670)">
<path d="M84.41 168.82C131.028 168.82 168.82 131.028 168.82 84.41C168.82 37.7916 131.028 0 84.41 0C37.7916 0 0 37.7916 0 84.41C0 131.028 37.7916 168.82 84.41 168.82Z" fill="#DBC2FF"/>
<path d="M84.41 8.27C91.2496 8.2516 98.0596 9.17013 104.65 11C111.012 12.7711 117.122 15.3487 122.83 18.67C134.147 25.2712 143.565 34.6858 150.17 46C153.49 51.7112 156.064 57.8243 157.83 64.19C161.457 77.4329 161.457 91.4071 157.83 104.65C156.064 111.016 153.49 117.129 150.17 122.84C143.558 134.149 134.141 143.562 122.83 150.17C117.124 153.496 111.014 156.074 104.65 157.84C91.4037 161.467 77.4262 161.467 64.18 157.84C57.8154 156.071 51.7051 153.49 46 150.16C34.6828 143.563 25.2671 134.147 18.67 122.83C15.3427 117.121 12.7649 111.008 11 104.64C7.3733 91.3971 7.3733 77.4229 11 64.18C12.7625 57.8164 15.337 51.7061 18.66 46C25.2509 34.672 34.672 25.2509 46 18.66C51.7082 15.3412 57.8179 12.7669 64.18 11C70.7667 9.16881 77.5735 8.25024 84.41 8.27ZM84.41 150.38C90.3549 150.401 96.2742 149.6 102 148C107.513 146.471 112.806 144.239 117.75 141.36C127.533 135.63 135.68 127.483 141.41 117.7C144.268 112.77 146.483 107.493 148 102C151.16 90.5134 151.16 78.3866 148 66.9C146.471 61.387 144.239 56.0936 141.36 51.15C135.63 41.3669 127.483 33.2198 117.7 27.49C112.774 24.6006 107.498 22.3556 102 20.81C96.2867 19.2173 90.3811 18.4198 84.45 18.44C80.0856 18.4379 75.7315 18.8633 71.45 19.71C67.1826 20.5633 63.0116 21.8431 59 23.53C61.9544 23.4283 64.8823 24.1188 67.48 25.53C69.9941 27.0257 72.2779 28.8784 74.26 31.03C74.8995 31.7845 75.6397 32.4474 76.46 33C77.3349 33.4785 78.3235 33.7101 79.32 33.67H99.67C100.647 33.6417 101.612 33.8839 102.46 34.37C103.291 34.8943 104.059 35.5116 104.75 36.21C105.435 36.8839 106.189 37.4838 107 38C107.845 38.4911 108.814 38.724 109.79 38.67H117.41C117.746 38.6673 118.078 38.7315 118.389 38.8587C118.7 38.9859 118.982 39.1736 119.219 39.4109C119.456 39.6483 119.644 39.9304 119.771 40.241C119.898 40.5516 119.963 40.8844 119.96 41.22C119.96 42.35 119.59 43.05 118.86 43.33C118.108 43.6222 117.307 43.7682 116.5 43.76H114.87C113.511 43.7491 112.165 44.0252 110.92 44.57C109.719 45.0916 108.626 45.8345 107.7 46.76C106.776 47.6909 106.039 48.7909 105.53 50C105 51.2662 104.734 52.6274 104.75 54C104.747 54.5014 104.596 54.9907 104.316 55.4068C104.036 55.8229 103.64 56.1473 103.177 56.3393C102.714 56.5314 102.204 56.5827 101.712 56.4868C101.22 56.3909 100.767 56.152 100.41 55.8C100.169 55.5672 99.9792 55.2871 99.8519 54.9773C99.7246 54.6676 99.6626 54.3348 99.67 54C99.7566 52.9348 99.4664 51.873 98.85 51C98.3191 50.3261 97.6329 49.7908 96.85 49.44C95.9865 49.0743 95.0662 48.8612 94.13 48.81C93.13 48.74 92.13 48.7 91.27 48.7C90.8 48.7 90.27 48.7 89.82 48.77C89.3468 48.815 88.8841 48.9366 88.45 49.13C88.0317 49.3024 87.6662 49.5817 87.39 49.94C87.0911 50.3764 86.9532 50.9031 87 51.43C86.9697 51.7136 87.0004 52.0005 87.0901 52.2713C87.1798 52.5421 87.3263 52.7905 87.52 53C87.9333 53.3514 88.4127 53.6166 88.93 53.78C89.49 53.96 90.11 54.14 90.77 54.31C91.41 54.4509 92.0263 54.6833 92.6 55C93.1796 55.3555 93.6609 55.8506 94 56.44C94.4177 57.2475 94.6111 58.1523 94.56 59.06C94.5318 60.4002 93.9862 61.6775 93.0374 62.6244C92.0886 63.5714 90.8102 64.1145 89.47 64.14C88.507 64.0843 87.5494 64.3176 86.72 64.81C86.0748 65.2485 85.5518 65.8438 85.2 66.54C84.8369 67.2837 84.61 68.0863 84.53 68.91C84.4377 69.7903 84.3909 70.6748 84.39 71.56V74.24C84.4422 74.5904 84.3938 74.9485 84.2504 75.2725C84.107 75.5965 83.8745 75.873 83.58 76.07C83.0177 76.3707 82.4242 76.6088 81.81 76.78C81.211 76.9582 80.6314 77.196 80.08 77.49C79.56 77.77 79.3 78.38 79.3 79.32V89.49C79.2947 90.1558 79.0272 90.7927 78.5555 91.2625C78.0837 91.7324 77.4458 91.9974 76.78 92C76.5014 92.0229 76.2211 91.9906 75.955 91.9048C75.689 91.819 75.4426 91.6814 75.23 91.5C74.8874 91.1559 74.6335 90.7338 74.49 90.27C74.3122 89.7392 74.1816 89.1938 74.1 88.64C74.0126 88.0975 73.872 87.5649 73.68 87.05C73.4666 86.5197 73.1805 86.0216 72.83 85.57C72.54 85.24 72.17 84.84 71.7 84.37C70.9775 83.6272 70.4008 82.7555 70 81.8C69.64 80.9 69.35 80.09 69.12 79.36C68.9198 78.7166 68.6446 78.099 68.3 77.52C68.1265 77.2646 67.887 77.0609 67.6071 76.9306C67.3271 76.8004 67.0171 76.7483 66.71 76.78C66.3885 76.7487 66.0644 76.8002 65.7686 76.9298C65.4727 77.0593 65.215 77.2625 65.02 77.52C64.6567 78.0931 64.3709 78.7118 64.17 79.36C63.93 80.09 63.65 80.9 63.32 81.8C62.9375 82.7746 62.3628 83.6622 61.63 84.41C61.16 84.88 60.78 85.28 60.5 85.61C60.1422 86.0566 59.8555 86.5559 59.65 87.09C59.406 87.5789 59.2503 88.107 59.19 88.65C59.1228 89.1897 59.0056 89.722 58.84 90.24C58.6825 90.7094 58.4307 91.1416 58.1 91.51C57.8904 91.7009 57.6437 91.8466 57.3753 91.9377C57.1068 92.0289 56.8225 92.0638 56.54 92.04C56.2608 92.0598 55.9806 92.0231 55.716 91.932C55.4513 91.8409 55.2078 91.6974 55 91.51C54.6464 91.1536 54.3825 90.7183 54.23 90.24C54.0559 89.7188 53.9123 89.1879 53.8 88.65C53.6974 88.1164 53.5434 87.5939 53.34 87.09C53.1487 86.5995 52.8895 86.1383 52.57 85.72C52.29 85.36 51.95 84.97 51.57 84.55L51.28 84.27C50.91 83.85 50.58 83.46 50.28 83.1C49.9569 82.6822 49.6943 82.221 49.5 81.73C49.3011 81.2245 49.1472 80.7025 49.04 80.17C48.92 79.61 48.78 79.08 48.62 78.58C48.4599 78.1029 48.1931 77.6685 47.84 77.31C47.6349 77.1246 47.3947 76.9822 47.1336 76.8912C46.8725 76.8002 46.5959 76.7623 46.32 76.78C46.0359 76.7592 45.7507 76.7992 45.4834 76.8975C45.2161 76.9958 44.9729 77.1501 44.77 77.35C44.4206 77.7631 44.1586 78.2428 44 78.76C43.81 79.32 43.64 79.94 43.47 80.6C43.3152 81.2432 43.0658 81.8599 42.73 82.43C42.3855 83.0133 41.9008 83.5014 41.32 83.85C40.5117 84.2654 39.6075 84.4587 38.7 84.41C38.0309 84.414 37.3677 84.285 36.7489 84.0305C36.1301 83.776 35.5681 83.401 35.0954 82.9275C34.6228 82.4539 34.2489 81.8911 33.9957 81.2718C33.7424 80.6525 33.6147 79.9891 33.62 79.32C32.3104 79.3781 31.0737 79.9392 30.1675 80.8865C29.2613 81.8337 28.7555 83.0941 28.7555 84.405C28.7555 85.7159 29.2613 86.9763 30.1675 87.9235C31.0737 88.8708 32.3104 89.4319 33.62 89.49C34.2883 89.4887 34.9503 89.6195 35.5679 89.875C36.1855 90.1304 36.7465 90.5054 37.2186 90.9785C37.6907 91.4515 38.0646 92.0132 38.3189 92.6313C38.5731 93.2494 38.7026 93.9117 38.7 94.58C38.7555 95.6406 38.4718 96.6914 37.89 97.58C37.3527 98.3263 36.7647 99.0346 36.13 99.7C35.4859 100.36 34.9065 101.08 34.4 101.85C33.8536 102.727 33.5819 103.747 33.62 104.78V107.47C33.6522 108.786 33.5314 110.102 33.26 111.39C33.0932 112.232 32.6789 113.005 32.07 113.61C31.4043 114.165 30.5908 114.512 29.73 114.61C28.4689 114.797 27.1947 114.881 25.92 114.86L25.21 113.66C30.6784 124.689 39.1189 133.971 49.58 140.46C54.7393 143.653 60.3109 146.126 66.14 147.81C72.0768 149.531 78.2288 150.396 84.41 150.38ZM37.41 109.77C37.5811 109.741 37.7566 109.752 37.9226 109.803C38.0887 109.853 38.2407 109.941 38.3668 110.061C38.4929 110.18 38.5895 110.327 38.649 110.49C38.7086 110.653 38.7295 110.828 38.71 111C38.7223 111.504 38.6322 112.005 38.4451 112.472C38.258 112.94 37.9778 113.365 37.6215 113.722C37.2652 114.078 36.8403 114.358 36.3725 114.545C35.9046 114.732 35.4037 114.822 34.9 114.81C34.7274 114.835 34.5512 114.82 34.3857 114.765C34.2201 114.71 34.0696 114.617 33.9463 114.494C33.8229 114.37 33.7301 114.22 33.6752 114.054C33.6203 113.889 33.6048 113.713 33.63 113.54C33.63 113.07 33.76 112.76 34.02 112.62C34.2982 112.468 34.5936 112.351 34.9 112.27C35.2061 112.184 35.5014 112.063 35.78 111.91C36.04 111.77 36.17 111.47 36.17 111C36.1516 110.83 36.1721 110.659 36.23 110.499C36.2879 110.338 36.3817 110.193 36.5042 110.074C36.6267 109.956 36.7747 109.867 36.9369 109.814C37.099 109.761 37.2711 109.746 37.44 109.77H37.41ZM84.41 97.12C84.417 98.1279 84.2126 99.126 83.81 100.05C83.0124 101.887 81.5469 103.352 79.71 104.15C78.7839 104.546 77.7872 104.75 76.78 104.75C75.7728 104.75 74.776 104.546 73.85 104.15C72.0179 103.349 70.5569 101.884 69.76 100.05C69.3496 99.1281 69.1416 98.129 69.15 97.12C69.1818 96.4549 69.4609 95.8257 69.9327 95.3558C70.4044 94.8858 71.0348 94.6092 71.7 94.58C72.0504 94.5278 72.4085 94.5762 72.7325 94.7196C73.0564 94.863 73.333 95.0955 73.53 95.39C73.8264 95.9542 74.0643 96.5473 74.24 97.16C74.4279 97.7632 74.6828 98.3435 75 98.89C75.28 99.41 75.89 99.67 76.83 99.67C77.77 99.67 78.39 99.41 78.67 98.89C78.9665 98.3409 79.2012 97.7607 79.37 97.16C79.5243 96.5516 79.7352 95.959 80 95.39C80.1986 95.0947 80.4769 94.8618 80.8026 94.7184C81.1283 94.575 81.4881 94.527 81.84 94.58C82.1739 94.5787 82.5048 94.6435 82.8136 94.7706C83.1223 94.8978 83.4029 95.0849 83.639 95.321C83.8751 95.5571 84.0621 95.8377 84.1893 96.1464C84.3165 96.4552 84.3813 96.7861 84.38 97.12H84.41ZM94.58 104.75C94.9287 104.699 95.2849 104.744 95.6095 104.882C95.934 105.019 96.2144 105.244 96.42 105.53C96.7165 106.079 96.9512 106.659 97.12 107.26C97.2982 107.859 97.536 108.439 97.83 108.99C98.11 109.51 98.72 109.77 99.67 109.77C101.009 109.796 102.287 110.339 103.234 111.286C104.181 112.233 104.724 113.511 104.75 114.85V119.94C104.805 121.001 104.522 122.051 103.94 122.94C103.405 123.691 102.813 124.399 102.17 125.06C101.539 125.721 100.961 126.429 100.44 127.18C99.884 128.078 99.6153 129.125 99.67 130.18C98.6134 130.236 97.5654 129.964 96.67 129.4C95.9195 128.879 95.2107 128.301 94.55 127.67C93.8786 127.027 93.1599 126.435 92.4 125.9C91.5282 125.33 90.5004 125.047 89.46 125.09H86.81C85.8914 125.095 84.9733 125.048 84.06 124.95C83.2257 124.875 82.4123 124.648 81.66 124.28C80.957 123.936 80.3671 123.398 79.96 122.73C79.5005 121.899 79.2791 120.958 79.32 120.01C79.3067 118.634 79.5862 117.27 80.14 116.01C80.6641 114.813 81.4068 113.725 82.33 112.8C83.2527 111.875 84.3418 111.132 85.54 110.61C86.785 110.065 88.131 109.789 89.49 109.8C90.49 109.8 91.05 109.54 91.33 109.02C91.6239 108.469 91.8618 107.889 92.04 107.29C92.2131 106.691 92.4476 106.111 92.74 105.56C92.9419 105.268 93.2207 105.038 93.5455 104.895C93.8703 104.752 94.2284 104.702 94.58 104.75ZM86.1 89.49C85.8771 89.4947 85.6556 89.4537 85.4492 89.3694C85.2428 89.2851 85.0559 89.1594 84.9 89C84.7425 88.8427 84.618 88.6556 84.5338 88.4495C84.4497 88.2434 84.4076 88.0226 84.41 87.8C84.4087 87.3545 84.4954 86.913 84.6653 86.5011C84.8352 86.0893 85.0849 85.715 85.3999 85.4C85.715 85.0849 86.0892 84.8353 86.5011 84.6654C86.913 84.4955 87.3544 84.4087 87.8 84.41C88.0226 84.4076 88.2434 84.4497 88.4495 84.5338C88.6555 84.618 88.8427 84.7425 89 84.9C89.1594 85.0559 89.2851 85.2428 89.3694 85.4492C89.4537 85.6556 89.4947 85.8771 89.49 86.1C89.4953 86.5467 89.4113 86.9899 89.2429 87.4036C89.0744 87.8173 88.8249 88.1932 88.509 88.509C88.1932 88.8249 87.8173 89.0744 87.4036 89.2429C86.9899 89.4113 86.5466 89.4954 86.1 89.49ZM92 74.24C91.6656 74.2413 91.3342 74.1766 91.0249 74.0495C90.7156 73.9225 90.4344 73.7356 90.1975 73.4996C89.9605 73.2636 89.7725 72.9832 89.6443 72.6743C89.516 72.3655 89.45 72.0344 89.45 71.7C89.3983 70.6439 89.6705 69.5972 90.23 68.7C90.7576 67.9652 91.35 67.2791 92 66.65C92.6476 66.0043 93.2397 65.3051 93.77 64.56C94.3518 63.6714 94.6355 62.6207 94.58 61.56C94.5787 61.2261 94.6434 60.8952 94.7706 60.5864C94.8978 60.2777 95.0849 59.9971 95.321 59.761C95.5571 59.5249 95.8376 59.3378 96.1464 59.2107C96.4552 59.0835 96.786 59.0187 97.12 59.02C97.4544 59.0187 97.7857 59.0834 98.0951 59.2105C98.4044 59.3375 98.6856 59.5244 98.9225 59.7604C99.1594 59.9964 99.3474 60.2769 99.4757 60.5857C99.604 60.8945 99.67 61.2256 99.67 61.56C99.7304 62.6226 99.4425 63.6759 98.85 64.56C98.3202 65.3026 97.7316 66.0015 97.09 66.65C96.4496 67.2878 95.8704 67.9842 95.36 68.73C94.7962 69.6254 94.5238 70.6734 94.58 71.73C94.5774 72.0648 94.5084 72.3958 94.3769 72.7037C94.2455 73.0116 94.0542 73.2904 93.8143 73.5239C93.5743 73.7574 93.2903 73.9409 92.9789 74.0638C92.6675 74.1867 92.3347 74.2466 92 74.24ZM92 94.58C93.037 94.5394 94.0611 94.8224 94.93 95.39C95.6942 95.9197 96.4133 96.5118 97.08 97.16C97.7381 97.7938 98.4471 98.3724 99.2 98.89C100.095 99.4537 101.143 99.7262 102.2 99.67C102.534 99.6687 102.865 99.7335 103.174 99.8606C103.482 99.9878 103.763 100.175 103.999 100.411C104.235 100.647 104.422 100.928 104.549 101.236C104.677 101.545 104.741 101.876 104.74 102.21C104.708 102.873 104.431 103.501 103.961 103.971C103.491 104.441 102.863 104.718 102.2 104.75C101.166 104.804 100.141 104.531 99.27 103.97C98.5283 103.45 97.8294 102.871 97.18 102.24C96.5202 101.603 95.815 101.015 95.07 100.48C94.1775 99.9069 93.1296 99.624 92.07 99.67C91.3945 99.6674 90.7474 99.3979 90.2698 98.9202C89.7921 98.4426 89.5226 97.7955 89.52 97.12C89.5198 96.4566 89.7792 95.8195 90.2426 95.3448C90.706 94.8702 91.3368 94.5957 92 94.58ZM117.35 119.94C117.685 119.937 118.017 120.001 118.327 120.128C118.637 120.254 118.918 120.441 119.155 120.677C119.393 120.914 119.581 121.195 119.708 121.504C119.836 121.814 119.901 122.145 119.9 122.48C119.953 123.542 119.665 124.593 119.08 125.48C118.548 126.227 117.96 126.933 117.32 127.59C116.679 128.256 116.1 128.979 115.59 129.75C115.042 130.627 114.771 131.647 114.81 132.68C114.811 133.014 114.747 133.345 114.619 133.654C114.492 133.962 114.305 134.243 114.069 134.479C113.833 134.715 113.552 134.902 113.244 135.029C112.935 135.157 112.604 135.221 112.27 135.22C111.938 135.217 111.611 135.147 111.307 135.015C111.003 134.883 110.728 134.691 110.5 134.45C110.258 134.223 110.064 133.949 109.932 133.645C109.799 133.34 109.731 133.012 109.73 132.68C109.673 131.625 109.942 130.578 110.5 129.68C111.021 128.929 111.599 128.221 112.23 127.56C112.873 126.903 113.465 126.197 114 125.45C114.582 124.561 114.865 123.511 114.81 122.45C114.809 122.116 114.873 121.785 115.001 121.476C115.128 121.168 115.315 120.887 115.551 120.651C115.787 120.415 116.068 120.228 116.376 120.101C116.685 119.973 117.016 119.909 117.35 119.91V119.94Z" fill="#6E3BC8"/>
</g>
<defs>
<clipPath id="clip0_0_6670">
<rect width="168.82" height="168.82" fill="white"/>
</clipPath>
</defs>
</svg>
