<svg width="265" height="152" viewBox="0 0 265 152" fill="none" xmlns="http://www.w3.org/2000/svg">
<g clip-path="url(#clip0_0_141)">
<path d="M207.32 18.33C202.834 18.3326 198.364 18.8595 194 19.9C177.77 7.54 156.16 0 132.44 0C108.72 0 87.11 7.54 70.89 19.9C62.4346 17.8799 53.6313 17.802 45.1415 19.6721C36.6516 21.5423 28.6959 25.3118 21.8718 30.6976C15.0477 36.0834 9.53274 42.9454 5.74103 50.7683C1.94933 58.5912 -0.020504 67.1716 -0.020504 75.865C-0.020504 84.5584 1.94933 93.1388 5.74103 100.962C9.53274 108.785 15.0477 115.647 21.8718 121.032C28.6959 126.418 36.6516 130.188 45.1415 132.058C53.6313 133.928 62.4346 133.85 70.89 131.83C87.11 144.2 108.72 151.74 132.44 151.74C156.16 151.74 177.77 144.2 193.98 131.83C201.884 133.722 210.1 133.917 218.085 132.404C226.07 130.891 233.644 127.703 240.309 123.05C246.973 118.398 252.576 112.387 256.749 105.412C260.921 98.4378 263.569 90.6585 264.518 82.5866C265.467 74.5147 264.695 66.3334 262.253 58.5815C259.811 50.8296 255.754 43.683 250.35 37.6122C244.946 31.5415 238.318 26.6844 230.901 23.3609C223.484 20.0374 215.447 18.3228 207.32 18.33Z" fill="#EA5A42"/>
<path d="M206.72 128.63C235.859 128.63 259.48 105.009 259.48 75.87C259.48 46.7314 235.859 23.11 206.72 23.11C177.581 23.11 153.96 46.7314 153.96 75.87C153.96 105.009 177.581 128.63 206.72 128.63Z" fill="#F9B75C"/>
<path d="M58.71 128.63C87.8485 128.63 111.47 105.009 111.47 75.87C111.47 46.7314 87.8485 23.11 58.71 23.11C29.5715 23.11 5.95 46.7314 5.95 75.87C5.95 105.009 29.5715 128.63 58.71 128.63Z" fill="#F9B75C"/>
<path d="M132.44 146.95C179.301 146.95 217.29 115.126 217.29 75.87C217.29 36.6136 179.301 4.79004 132.44 4.79004C85.5786 4.79004 47.59 36.6136 47.59 75.87C47.59 115.126 85.5786 146.95 132.44 146.95Z" fill="#EA5A42"/>
<path d="M103 120.84L87.14 134L83.38 132.07L88.98 127.6L89.98 114.19L93.89 116.19L92.89 124.69L99.17 118.89L103 120.84Z" fill="#F9B75C"/>
<path d="M102.84 133.46C102.033 132.679 101.467 131.683 101.21 130.59C100.972 129.395 101.03 128.16 101.379 126.992C101.728 125.824 102.356 124.759 103.21 123.89C104.024 123.107 105.044 122.57 106.15 122.34C107.31 122.112 108.509 122.173 109.64 122.52C110.784 122.83 111.833 123.421 112.69 124.24C113.501 125.028 114.073 126.03 114.34 127.13C114.591 128.323 114.54 129.561 114.19 130.729C113.841 131.898 113.205 132.96 112.34 133.82C111.51 134.613 110.468 135.148 109.34 135.36C108.177 135.572 106.981 135.511 105.846 135.181C104.711 134.852 103.668 134.262 102.8 133.46H102.84ZM108.9 131.66C109.625 131.186 110.135 130.446 110.32 129.6C110.619 128.792 110.594 127.9 110.25 127.11C110.087 126.793 109.861 126.512 109.586 126.285C109.31 126.058 108.992 125.89 108.65 125.789C108.307 125.689 107.948 125.66 107.594 125.703C107.24 125.746 106.898 125.861 106.59 126.04C105.924 126.569 105.438 127.292 105.2 128.108C104.961 128.925 104.982 129.796 105.26 130.6C105.406 130.923 105.623 131.208 105.895 131.435C106.167 131.662 106.487 131.824 106.83 131.91C107.173 132.016 107.535 132.048 107.892 132.005C108.248 131.962 108.592 131.845 108.9 131.66Z" fill="#F9B75C"/>
<path d="M130.18 126.11L128.88 138.88L124.97 138.48L125.14 136.74C124.671 137.285 124.067 137.698 123.39 137.94C122.657 138.216 121.868 138.312 121.09 138.22C120.183 138.149 119.313 137.834 118.57 137.31C117.857 136.792 117.317 136.07 117.02 135.24C116.678 134.279 116.568 133.251 116.7 132.24L117.46 124.78L121.35 125.18L120.64 132.11C120.521 132.83 120.686 133.569 121.1 134.17C121.305 134.432 121.564 134.647 121.859 134.8C122.154 134.954 122.478 135.042 122.81 135.06C123.144 135.113 123.485 135.094 123.811 135.005C124.137 134.915 124.44 134.756 124.7 134.54C125.223 134.034 125.531 133.347 125.56 132.62L126.27 125.68L130.18 126.11Z" fill="#F9B75C"/>
<path d="M138.32 126.2C139.002 125.761 139.79 125.516 140.6 125.49L140.78 129.65H139.7C138.911 129.622 138.138 129.878 137.52 130.37C137.259 130.677 137.066 131.037 136.956 131.425C136.845 131.814 136.819 132.221 136.88 132.62L137.14 138.62L133.21 138.79L132.65 126L136.58 125.83L136.67 127.97C137.076 127.26 137.641 126.655 138.32 126.2Z" fill="#F9B75C"/>
<path d="M146.52 137.36C145.66 137.17 144.864 136.76 144.21 136.17C143.604 135.621 143.175 134.904 142.98 134.11L146.8 133.43C146.853 133.645 146.952 133.845 147.09 134.018C147.228 134.19 147.402 134.331 147.6 134.43C148.04 134.635 148.534 134.695 149.01 134.6C149.409 134.553 149.784 134.382 150.08 134.11C150.188 134.01 150.27 133.884 150.317 133.745C150.364 133.605 150.376 133.455 150.35 133.31C150.32 133.133 150.235 132.969 150.108 132.842C149.981 132.715 149.817 132.63 149.64 132.6C149.001 132.465 148.352 132.381 147.7 132.35C146.902 132.315 146.107 132.228 145.32 132.09C144.675 131.959 144.071 131.675 143.56 131.26C143 130.758 142.644 130.067 142.56 129.32C142.426 128.614 142.514 127.884 142.81 127.23C143.139 126.525 143.663 125.928 144.32 125.51C145.133 124.991 146.046 124.65 147 124.51C148.351 124.184 149.774 124.366 151 125.02C152.059 125.651 152.825 126.676 153.13 127.87L149.55 128.5C149.43 128.099 149.157 127.761 148.79 127.56C148.37 127.359 147.894 127.306 147.44 127.41C147.071 127.456 146.723 127.609 146.44 127.85C146.34 127.951 146.267 128.075 146.227 128.211C146.187 128.347 146.181 128.491 146.21 128.63C146.242 128.808 146.329 128.972 146.458 129.099C146.587 129.226 146.752 129.31 146.93 129.34C147.554 129.478 148.191 129.555 148.83 129.57C149.639 129.618 150.444 129.719 151.24 129.87C151.888 130.009 152.492 130.305 153 130.73C153.579 131.25 153.954 131.959 154.06 132.73C154.194 133.438 154.1 134.17 153.79 134.82C153.443 135.518 152.906 136.104 152.24 136.51C151.447 137.017 150.559 137.357 149.63 137.51C148.594 137.681 147.534 137.63 146.52 137.36Z" fill="#F9B75C"/>
<path d="M168.14 126.08L159.76 129.08C159.999 129.725 160.479 130.253 161.1 130.55C161.671 130.78 162.309 130.78 162.88 130.55C163.292 130.435 163.658 130.196 163.929 129.865C164.199 129.533 164.36 129.127 164.39 128.7L168.33 127.29C168.412 128.147 168.299 129.012 168 129.82C167.694 130.656 167.201 131.412 166.56 132.03C165.849 132.698 165.004 133.206 164.08 133.52C162.985 133.928 161.806 134.055 160.65 133.89C159.556 133.716 158.535 133.23 157.71 132.49C156.836 131.65 156.168 130.618 155.758 129.477C155.349 128.335 155.209 127.115 155.35 125.91C155.515 124.82 155.995 123.802 156.73 122.98C157.528 122.111 158.532 121.457 159.65 121.08C160.728 120.677 161.89 120.549 163.03 120.71C164.101 120.863 165.103 121.329 165.91 122.05C166.794 122.833 167.453 123.838 167.82 124.96C167.948 125.327 168.055 125.701 168.14 126.08ZM163.68 125.35C163.591 125.061 163.438 124.795 163.232 124.573C163.026 124.351 162.772 124.179 162.49 124.07C161.902 123.841 161.248 123.841 160.66 124.07C160.084 124.256 159.596 124.647 159.29 125.17C158.969 125.723 158.866 126.375 159 127L163.68 125.35Z" fill="#F9B75C"/>
<path d="M168.73 112.63L176.63 127.7L173.15 129.53L165.25 114.45L168.73 112.63Z" fill="#F9B75C"/>
<path d="M180.23 114.24L178.43 115.35L183.43 123.5L180.08 125.56L175.08 117.42L173.87 118.17L172.15 115.39L173.37 114.64L173.17 114.32C172.783 113.782 172.518 113.166 172.392 112.515C172.266 111.864 172.282 111.194 172.44 110.55C172.926 109.196 173.904 108.075 175.18 107.41C175.43 107.26 175.61 107.15 175.74 107.09L177.49 109.93C176.974 110.143 176.554 110.538 176.31 111.04C176.26 111.289 176.264 111.545 176.323 111.792C176.381 112.039 176.493 112.271 176.65 112.47L176.71 112.57L178.51 111.46L180.23 114.24Z" fill="#F9B75C"/>
<path d="M103.43 22.3901C104.102 22.4856 104.739 22.7506 105.28 23.1601L104.69 21.5701L108.15 20.3101L112.25 31.5801C112.607 32.5373 112.747 33.562 112.66 34.5801C112.553 35.5759 112.148 36.5166 111.5 37.2801C110.73 38.1561 109.739 38.8089 108.63 39.1701C107.208 39.768 105.627 39.8701 104.14 39.4601C103.485 39.2743 102.878 38.9495 102.36 38.5076C101.843 38.0658 101.426 37.5175 101.14 36.9001L104.56 35.6601C104.688 35.856 104.856 36.0231 105.052 36.1505C105.248 36.2779 105.469 36.3629 105.7 36.4001C106.248 36.503 106.815 36.4439 107.33 36.2301C107.657 36.1406 107.962 35.9854 108.227 35.7739C108.492 35.5624 108.711 35.2991 108.87 35.0001C109.005 34.6449 109.067 34.2665 109.053 33.887C109.039 33.5075 108.95 33.1345 108.79 32.7901L108.21 31.2001C108.049 31.863 107.73 32.4771 107.28 32.9901C106.761 33.5589 106.108 33.9886 105.38 34.2401C104.488 34.5708 103.52 34.6402 102.59 34.4401C101.631 34.222 100.751 33.7406 100.05 33.0501C99.2488 32.2565 98.6429 31.2877 98.28 30.2201C97.8861 29.1952 97.7322 28.0937 97.83 27.0001C97.9213 26.0271 98.2891 25.1007 98.89 24.3301C99.4764 23.582 100.264 23.0166 101.16 22.7001C101.879 22.4098 102.659 22.3033 103.43 22.3901ZM105.29 25.3901C104.983 25.232 104.647 25.1398 104.303 25.1191C103.958 25.0984 103.613 25.1498 103.29 25.2701C102.961 25.3853 102.66 25.5675 102.405 25.805C102.151 26.0425 101.948 26.3302 101.81 26.6501C101.507 27.3834 101.507 28.2068 101.81 28.9401C101.924 29.321 102.113 29.6754 102.365 29.9826C102.618 30.2899 102.929 30.544 103.28 30.7301C103.585 30.8933 103.921 30.9894 104.266 31.0118C104.611 31.0343 104.957 30.9825 105.28 30.8601C105.611 30.7459 105.914 30.563 106.169 30.3235C106.424 30.0839 106.625 29.7931 106.76 29.4701C106.911 29.1055 106.989 28.7147 106.989 28.3201C106.989 27.9254 106.911 27.5346 106.76 27.1701C106.512 26.4225 105.986 25.7993 105.29 25.4301V25.3901Z" fill="#F9B75C"/>
<path d="M117.34 18.88C117.905 18.3741 118.596 18.0288 119.34 17.88L120.08 21.7L119.08 21.9C118.341 21.9944 117.661 22.3489 117.16 22.9C116.962 23.2209 116.834 23.5805 116.786 23.9548C116.737 24.329 116.769 24.7092 116.88 25.07L118 30.55L114.39 31.25L112.09 19.46L115.7 18.76L116.09 20.76C116.352 20.043 116.78 19.3986 117.34 18.88Z" fill="#F9B75C"/>
<path d="M125.18 28.8899C124.232 28.4529 123.426 27.7603 122.85 26.8899C122.239 25.9195 121.894 24.8057 121.85 23.6599C121.771 22.5239 121.999 21.3874 122.51 20.3699C122.982 19.4213 123.718 18.6295 124.63 18.0899C125.593 17.5466 126.668 17.2348 127.772 17.1793C128.876 17.1237 129.978 17.326 130.99 17.7699C131.953 18.2151 132.768 18.9264 133.34 19.8199C133.955 20.7809 134.301 21.8896 134.34 23.0299C134.42 24.1693 134.192 25.3092 133.68 26.3299C133.194 27.2781 132.448 28.0687 131.53 28.6099C130.567 29.1684 129.482 29.4809 128.37 29.5199C127.271 29.5776 126.175 29.3611 125.18 28.8899ZM129.98 25.4299C130.479 24.7928 130.706 23.9838 130.61 23.1799C130.62 22.3773 130.323 21.6011 129.78 21.0099C129.541 20.7765 129.257 20.5946 128.944 20.4755C128.632 20.3564 128.299 20.3027 127.965 20.3177C127.632 20.3327 127.304 20.4161 127.004 20.5627C126.704 20.7093 126.437 20.916 126.22 21.1699C125.738 21.8188 125.524 22.6276 125.62 23.4299C125.608 24.2323 125.897 25.0101 126.43 25.6099C126.659 25.8492 126.939 26.0351 127.248 26.1543C127.557 26.2735 127.889 26.3233 128.22 26.2999C128.561 26.2887 128.896 26.2054 129.203 26.0554C129.51 25.9055 129.781 25.6923 130 25.4299H129.98Z" fill="#F9B75C"/>
<path d="M154.75 19.5001L149.75 30.9001L145.75 30.3101L145.01 22.3101L142 29.7501L138 29.1601L136.52 16.8101L140.16 17.3401L140.59 26.0801L143.84 17.8801L147.69 18.4501L148.47 27.2001L151.32 19.0001L154.75 19.5001Z" fill="#F9B75C"/>
<path d="M167.4 25.58C167.878 26.8812 167.824 28.3183 167.25 29.58L164.77 36.14L161.34 34.85L163.65 28.75C163.794 28.4383 163.876 28.1012 163.889 27.758C163.903 27.4148 163.849 27.0722 163.73 26.75C163.609 26.4628 163.428 26.205 163.199 25.9944C162.969 25.7839 162.697 25.6254 162.4 25.53C162.116 25.401 161.807 25.3343 161.495 25.3343C161.183 25.3343 160.874 25.401 160.59 25.53C159.991 25.856 159.545 26.4061 159.35 27.06L157 33.18L153.56 31.87L157.81 20.64L161.25 21.94L160.69 23.43C161.241 23.06 161.878 22.8395 162.54 22.79C163.275 22.7268 164.015 22.8363 164.7 23.11C165.302 23.3015 165.855 23.6216 166.322 24.048C166.788 24.4745 167.156 24.9973 167.4 25.58Z" fill="#F9B75C"/>
<path d="M132.43 89.51C129.732 89.512 127.094 88.7137 124.849 87.2161C122.605 85.7185 120.855 83.5889 119.821 81.0967C118.787 78.6045 118.516 75.8616 119.041 73.2151C119.566 70.5685 120.864 68.1372 122.772 66.2286C124.679 64.32 127.109 63.0199 129.755 62.4928C132.401 61.9657 135.145 62.2352 137.637 63.2673C140.13 64.2994 142.261 66.0477 143.761 68.291C145.26 70.5343 146.06 73.1718 146.06 75.87C146.055 79.4842 144.617 82.949 142.063 85.5056C139.508 88.0621 136.044 89.5021 132.43 89.51ZM132.43 66.69C130.614 66.69 128.84 67.2284 127.33 68.2371C125.82 69.2458 124.644 70.6795 123.949 72.3569C123.254 74.0344 123.072 75.8802 123.426 77.6609C123.781 79.4417 124.655 81.0774 125.939 82.3612C127.223 83.6451 128.858 84.5194 130.639 84.8736C132.42 85.2278 134.266 85.046 135.943 84.3512C137.62 83.6564 139.054 82.4798 140.063 80.9701C141.072 79.4605 141.61 77.6856 141.61 75.87C141.607 73.4361 140.639 71.1027 138.918 69.3817C137.197 67.6607 134.864 66.6926 132.43 66.69Z" fill="#F9B75C"/>
<path d="M132.43 59.73C131.839 59.73 131.271 59.495 130.853 59.0768C130.435 58.6586 130.2 58.0914 130.2 57.5V45.18C130.238 44.6157 130.489 44.0868 130.902 43.7005C131.315 43.3142 131.859 43.0992 132.425 43.0992C132.991 43.0992 133.535 43.3142 133.948 43.7005C134.361 44.0868 134.612 44.6157 134.65 45.18V57.5C134.651 57.7924 134.595 58.0821 134.484 58.3526C134.373 58.6231 134.21 58.869 134.003 59.0762C133.797 59.2834 133.552 59.4479 133.282 59.5601C133.012 59.6722 132.722 59.73 132.43 59.73Z" fill="#F9B75C"/>
<path d="M132.43 108.78C131.839 108.78 131.271 108.545 130.853 108.127C130.435 107.709 130.2 107.141 130.2 106.55V94.24C130.18 93.9352 130.222 93.6295 130.324 93.3419C130.427 93.0542 130.588 92.7906 130.796 92.5676C131.005 92.3445 131.257 92.1666 131.537 92.045C131.817 91.9235 132.12 91.8607 132.425 91.8607C132.73 91.8607 133.033 91.9235 133.313 92.045C133.593 92.1666 133.845 92.3445 134.054 92.5676C134.262 92.7906 134.423 93.0542 134.525 93.3419C134.628 93.6295 134.67 93.9352 134.65 94.24V106.55C134.651 106.842 134.595 107.132 134.484 107.403C134.373 107.673 134.21 107.919 134.003 108.126C133.797 108.333 133.552 108.498 133.282 108.61C133.012 108.722 132.722 108.78 132.43 108.78Z" fill="#F9B75C"/>
<path d="M147.69 105.52C147.299 105.52 146.915 105.418 146.577 105.223C146.238 105.028 145.956 104.748 145.76 104.41L139.6 93.74C139.434 93.4859 139.322 93.2007 139.27 92.9016C139.218 92.6026 139.228 92.2962 139.299 92.0011C139.369 91.706 139.499 91.4284 139.681 91.1854C139.863 90.9423 140.092 90.7389 140.355 90.5876C140.618 90.4363 140.91 90.3403 141.211 90.3055C141.513 90.2706 141.818 90.2977 142.109 90.385C142.399 90.4722 142.669 90.6179 142.901 90.8131C143.134 91.0083 143.324 91.2488 143.46 91.52L149.61 102.18C149.811 102.517 149.918 102.901 149.921 103.293C149.924 103.686 149.822 104.072 149.627 104.412C149.431 104.752 149.149 105.033 148.809 105.228C148.468 105.423 148.082 105.524 147.69 105.52Z" fill="#F9B75C"/>
<path d="M158.15 94.78C157.759 94.7837 157.375 94.6799 157.04 94.48L146.37 88.32C145.859 88.0243 145.487 87.5379 145.335 86.9678C145.183 86.3977 145.264 85.7906 145.56 85.28C145.856 84.7695 146.342 84.3973 146.912 84.2454C147.482 84.0935 148.089 84.1743 148.6 84.47L159.27 90.62C159.695 90.866 160.027 91.2452 160.214 91.699C160.401 92.1528 160.434 92.6557 160.306 93.1298C160.179 93.6038 159.898 94.0225 159.508 94.3209C159.118 94.6193 158.641 94.7806 158.15 94.78Z" fill="#F9B75C"/>
<path d="M162.21 78.1H149.9C149.309 78.1 148.741 77.8651 148.323 77.4469C147.905 77.0287 147.67 76.4615 147.67 75.87C147.67 75.2786 147.905 74.7114 148.323 74.2932C148.741 73.875 149.309 73.64 149.9 73.64H162.21C162.801 73.64 163.369 73.875 163.787 74.2932C164.205 74.7114 164.44 75.2786 164.44 75.87C164.44 76.4615 164.205 77.0287 163.787 77.4469C163.369 77.8651 162.801 78.1 162.21 78.1Z" fill="#F9B75C"/>
<path d="M148.05 67.57C147.559 67.5706 147.082 67.4092 146.692 67.1108C146.302 66.8124 146.021 66.3938 145.894 65.9197C145.766 65.4456 145.799 64.9427 145.986 64.4889C146.173 64.0352 146.505 63.6559 146.93 63.41L157.6 57.25C158.109 56.9943 158.697 56.9432 159.242 57.1071C159.788 57.2709 160.25 57.6373 160.534 58.131C160.818 58.6248 160.902 59.2085 160.769 59.7624C160.637 60.3164 160.297 60.7985 159.82 61.11L149.16 67.2699C148.823 67.4653 148.44 67.5687 148.05 67.57Z" fill="#F9B75C"/>
<path d="M141.35 61.43C140.959 61.4293 140.576 61.326 140.238 61.1305C139.9 60.9349 139.619 60.654 139.423 60.3158C139.228 59.9776 139.125 59.5939 139.124 59.2033C139.124 58.8127 139.226 58.4288 139.42 58.09L145.58 47.42C145.885 46.9275 146.37 46.5732 146.932 46.432C147.494 46.2909 148.089 46.3741 148.591 46.6639C149.093 46.9538 149.462 47.4276 149.62 47.985C149.779 48.5424 149.714 49.1395 149.44 49.65L143.28 60.32C143.084 60.6579 142.802 60.9383 142.463 61.1331C142.125 61.3279 141.741 61.4303 141.35 61.43Z" fill="#F9B75C"/>
<path d="M116.92 105.52C116.528 105.522 116.143 105.421 115.803 105.226C115.463 105.031 115.181 104.75 114.985 104.411C114.789 104.072 114.686 103.686 114.687 103.295C114.688 102.903 114.792 102.518 114.99 102.18L121.15 91.52C121.469 91.061 121.949 90.7385 122.494 90.6164C123.04 90.4943 123.611 90.5814 124.095 90.8607C124.579 91.1399 124.941 91.5908 125.109 92.124C125.276 92.6573 125.237 93.234 125 93.74L118.84 104.41C118.645 104.746 118.365 105.026 118.028 105.221C117.691 105.415 117.309 105.519 116.92 105.52Z" fill="#F9B75C"/>
<path d="M106.46 94.78C105.969 94.7806 105.492 94.6193 105.102 94.3209C104.712 94.0225 104.431 93.6038 104.304 93.1298C104.176 92.6557 104.209 92.1528 104.396 91.699C104.583 91.2452 104.915 90.866 105.34 90.62L116 84.47C116.511 84.1756 117.117 84.0961 117.686 84.2489C118.255 84.4018 118.741 84.7745 119.035 85.285C119.329 85.7956 119.409 86.4021 119.256 86.9713C119.103 87.5405 118.731 88.0256 118.22 88.32L107.56 94.48C107.227 94.6767 106.847 94.7803 106.46 94.78Z" fill="#F9B75C"/>
<path d="M114.71 78.1H102.4C101.809 78.1 101.241 77.8651 100.823 77.4469C100.405 77.0287 100.17 76.4615 100.17 75.87C100.17 75.2786 100.405 74.7114 100.823 74.2932C101.241 73.875 101.809 73.64 102.4 73.64H114.71C115.301 73.64 115.869 73.875 116.287 74.2932C116.705 74.7114 116.94 75.2786 116.94 75.87C116.94 76.4615 116.705 77.0287 116.287 77.4469C115.869 77.8651 115.301 78.1 114.71 78.1Z" fill="#F9B75C"/>
<path d="M116.56 67.57C116.17 67.5687 115.787 67.4653 115.45 67.2699L104.78 61.11C104.303 60.7985 103.963 60.3164 103.831 59.7624C103.698 59.2085 103.782 58.6248 104.066 58.131C104.35 57.6373 104.812 57.2709 105.358 57.1071C105.903 56.9432 106.491 56.9943 107 57.25L117.67 63.41C118.095 63.6559 118.427 64.0352 118.614 64.4889C118.801 64.9427 118.834 65.4456 118.706 65.9197C118.579 66.3938 118.298 66.8124 117.908 67.1108C117.518 67.4092 117.041 67.5706 116.55 67.57H116.56Z" fill="#F9B75C"/>
<path d="M123.26 61.43C122.869 61.4303 122.485 61.3279 122.147 61.1331C121.808 60.9383 121.526 60.6579 121.33 60.32L115.17 49.65C114.949 49.1484 114.921 48.5829 115.09 48.0616C115.259 47.5403 115.615 47.0997 116.089 46.8239C116.562 46.548 117.121 46.4564 117.658 46.5663C118.195 46.6763 118.673 46.9802 119 47.42L125.15 58.09C125.344 58.4281 125.446 58.8111 125.446 59.2009C125.446 59.5906 125.343 59.9735 125.149 60.3115C124.955 60.6494 124.676 60.9305 124.339 61.1267C124.002 61.323 123.62 61.4276 123.23 61.43H123.26Z" fill="#F9B75C"/>
<path d="M77.16 66.91C78.3649 67.5982 79.3497 68.6142 80 69.84C80.6706 71.1671 81.0199 72.6331 81.0199 74.12C81.0199 75.6069 80.6706 77.0729 80 78.4C79.3418 79.6293 78.3506 80.6482 77.14 81.34C75.8458 82.0358 74.3994 82.4001 72.93 82.4001C71.4606 82.4001 70.0142 82.0358 68.72 81.34C67.5067 80.6484 66.5122 79.6296 65.85 78.4C65.1794 77.0729 64.83 75.6069 64.83 74.12C64.83 72.6331 65.1794 71.1671 65.85 69.84C66.5097 68.6111 67.505 67.595 68.72 66.91C70.0171 66.2235 71.4624 65.8646 72.93 65.8646C74.3976 65.8646 75.8429 66.2235 77.14 66.91H77.16ZM69.38 68C68.3783 68.5594 67.5668 69.4057 67.05 70.43C66.5099 71.5834 66.23 72.8414 66.23 74.115C66.23 75.3886 66.5099 76.6466 67.05 77.8C67.5661 78.83 68.3772 79.6829 69.38 80.25C70.4834 80.8152 71.7053 81.1099 72.945 81.1099C74.1847 81.1099 75.4066 80.8152 76.51 80.25C77.5135 79.6806 78.3273 78.8286 78.85 77.8C79.3834 76.6448 79.6597 75.3875 79.6597 74.115C79.6597 72.8425 79.3834 71.5853 78.85 70.43C78.3265 69.4071 77.5124 68.5617 76.51 68C75.4047 67.4411 74.1835 67.1499 72.945 67.1499C71.7065 67.1499 70.4853 67.4411 69.38 68ZM70.38 69.58C69.6119 69.9912 68.9796 70.6165 68.56 71.38C68.1248 72.2278 67.8978 73.1671 67.8978 74.12C67.8978 75.073 68.1248 76.0122 68.56 76.86C68.9796 77.6235 69.6119 78.2488 70.38 78.66C71.1892 79.0893 72.0941 79.306 73.01 79.29C74.1372 79.326 75.2425 78.9729 76.14 78.29C77.0079 77.6054 77.6035 76.634 77.82 75.55H74.4C74.3092 75.8869 74.106 76.1825 73.8241 76.3881C73.5422 76.5936 73.1985 76.6966 72.85 76.68C72.5896 76.6843 72.3321 76.6245 72.1002 76.5059C71.8683 76.3873 71.669 76.2136 71.52 76C71.2084 75.4188 71.0453 74.7695 71.0453 74.11C71.0453 73.4505 71.2084 72.8012 71.52 72.22C71.6722 72.0125 71.8732 71.8456 72.1051 71.734C72.337 71.6224 72.5928 71.5695 72.85 71.58C73.2076 71.5646 73.5599 71.6703 73.85 71.88C74.1265 72.0861 74.327 72.3779 74.42 72.71H77.8C77.5835 71.6318 76.983 70.6688 76.11 70C75.209 69.3164 74.1004 68.9633 72.97 69C72.0585 68.969 71.1539 69.1685 70.34 69.58H70.38Z" fill="#F9B75C"/>
<path d="M194.48 66.91C195.692 67.5952 196.684 68.6115 197.34 69.84C198.011 71.1671 198.36 72.6331 198.36 74.12C198.36 75.6069 198.011 77.0729 197.34 78.4C196.682 79.6293 195.691 80.6482 194.48 81.34C193.186 82.0358 191.739 82.4001 190.27 82.4001C188.801 82.4001 187.354 82.0358 186.06 81.34C184.847 80.6508 183.855 79.6312 183.2 78.4C182.523 77.0748 182.17 75.608 182.17 74.12C182.17 72.632 182.523 71.1652 183.2 69.84C183.853 68.6095 184.846 67.5925 186.06 66.91C187.357 66.2235 188.802 65.8646 190.27 65.8646C191.738 65.8646 193.183 66.2235 194.48 66.91ZM186.7 68C185.698 68.5594 184.887 69.4057 184.37 70.43C183.83 71.5834 183.55 72.8414 183.55 74.115C183.55 75.3886 183.83 76.6466 184.37 77.8C184.886 78.83 185.697 79.6829 186.7 80.25C187.803 80.8152 189.025 81.1099 190.265 81.1099C191.505 81.1099 192.727 80.8152 193.83 80.25C194.833 79.6806 195.647 78.8286 196.17 77.8C196.703 76.6448 196.98 75.3875 196.98 74.115C196.98 72.8425 196.703 71.5853 196.17 70.43C195.647 69.4071 194.832 68.5617 193.83 68C192.725 67.4411 191.504 67.1499 190.265 67.1499C189.026 67.1499 187.805 67.4411 186.7 68ZM187.7 69.58C186.932 69.9912 186.3 70.6165 185.88 71.38C185.445 72.2278 185.218 73.1671 185.218 74.12C185.218 75.073 185.445 76.0122 185.88 76.86C186.3 77.6235 186.932 78.2488 187.7 78.66C188.509 79.0893 189.414 79.306 190.33 79.29C191.457 79.326 192.562 78.9729 193.46 78.29C194.328 77.6054 194.923 76.634 195.14 75.55H191.76C191.671 75.8861 191.47 76.1815 191.19 76.3871C190.909 76.5927 190.567 76.6961 190.22 76.68C189.962 76.6896 189.705 76.6363 189.471 76.5249C189.238 76.4134 189.035 76.247 188.88 76.04C188.568 75.4588 188.405 74.8095 188.405 74.15C188.405 73.4905 188.568 72.8412 188.88 72.26C189.152 71.9231 189.54 71.701 189.968 71.638C190.397 71.575 190.833 71.6757 191.19 71.92C191.467 72.1261 191.667 72.4179 191.76 72.75H195.14C194.927 71.6543 194.319 70.6753 193.43 70C192.529 69.3164 191.42 68.9633 190.29 69C189.378 68.969 188.474 69.1685 187.66 69.58H187.7Z" fill="#F9B75C"/>
</g>
<defs>
<clipPath id="clip0_0_141">
<rect width="264.88" height="151.74" fill="white"/>
</clipPath>
</defs>
</svg>
