<svg width="333" height="174" viewBox="0 0 333 174" fill="none" xmlns="http://www.w3.org/2000/svg">
<g clip-path="url(#clip0_0_7737)">
<path d="M166.19 173.96C257.974 173.96 332.38 135.018 332.38 86.98C332.38 38.9423 257.974 0 166.19 0C74.4058 0 0 38.9423 0 86.98C0 135.018 74.4058 173.96 166.19 173.96Z" fill="#F3C3B4"/>
<path d="M24.05 64.07C28.69 60.41 31.05 58.66 35.85 55.33C36.5167 69.6567 37.1833 83.99 37.85 98.33C39.48 93.33 40.29 90.62 41.94 84.72C41.2733 74.02 40.58 63.3167 39.86 52.61C44 49.9 46 48.6 50.23 46.12C50.47 55.89 50.59 60.82 50.82 70.77C53.02 61.32 55.05 51.77 56.95 42.3C61.24 39.95 63.41 38.84 67.79 36.73C64.35 52.66 60.79 68.54 56.71 84.33C56.98 91.64 57.11 95.33 57.37 102.75C62.81 80.21 67.53 57.54 71.96 34.75C77.21 32.35 79.87 31.23 85.23 29.17C77.89 63.62 70.35 98.17 59.72 131.77C55.84 129.71 53.92 128.64 50.12 126.39C49.3733 116.71 48.6067 107.023 47.82 97.33C45.5129 104.962 42.7 112.432 39.4 119.69C35.7 117.22 33.87 115.94 30.26 113.28C28.44 96.84 26.54 80.42 24.05 64.07Z" fill="#F0372E"/>
<path d="M95.87 25.4C100.43 23.89 102.73 23.19 107.35 21.92C109.117 65.3067 110.823 108.667 112.47 152C107.33 150.71 104.77 150 99.7 148.41C99.57 138.64 99.51 133.76 99.37 124.02C94.94 123.17 92.74 122.72 88.37 121.74C86.76 130.5 85.96 134.74 84.37 143.04C79.37 141.09 76.89 140.04 71.99 137.8C81.34 100.67 88.74 63.05 95.87 25.4ZM99.07 101.31C98.9033 88.53 98.73 75.76 98.55 63C96.47 75.5867 94.33 88.1733 92.13 100.76L99.07 101.31Z" fill="#F0372E"/>
<path d="M128.59 50.25C123.59 50.72 121.08 50.99 116.11 51.59L118.45 19.16C130.953 16.3692 143.661 14.5968 156.45 13.86C155.65 25.4467 154.853 37.0367 154.06 48.63C149.01 48.81 146.49 48.93 141.47 49.25C138.97 84.95 136.44 120.65 133.88 156.35C128.75 155.56 126.18 155.09 121.09 154.01C123.623 119.43 126.123 84.8433 128.59 50.25Z" fill="#F0372E"/>
<path d="M171.3 160.17C168.47 160.17 165.93 158.44 163.69 154.96C161.075 150.548 159.159 145.758 158.01 140.76C156.351 134.144 155.175 127.416 154.49 120.63C153.683 113.013 153.286 105.359 153.3 97.7C153.302 89.6367 153.766 81.5802 154.69 73.57C155.568 65.7882 156.887 58.0625 158.64 50.43C160.138 43.7474 162.171 37.1963 164.72 30.84C166.582 25.9442 169.245 21.3921 172.6 17.37C175.5 14.11 178.6 12.56 181.87 12.72C186.21 12.94 189.8 16.13 192.62 22.1C195.44 28.07 197.3 35.77 198.18 45.19C193.66 53.38 191.39 57.61 186.85 66.19C186.779 62.4735 186.256 58.7795 185.29 55.19C184.787 53.1636 183.81 51.2856 182.44 49.71C181.608 48.7336 180.427 48.1202 179.15 48C177.15 48 175.3 49.41 173.73 52.33C171.903 56.0003 170.575 59.8981 169.78 63.92C168.664 68.9971 167.853 74.1362 167.35 79.31C166.805 84.5558 166.528 89.826 166.52 95.1C166.491 100.003 166.769 104.902 167.35 109.77C167.722 113.454 168.559 117.076 169.84 120.55C170.947 123.29 172.343 124.653 174.03 124.64C175.355 124.505 176.579 123.868 177.45 122.86C178.971 121.207 180.156 119.275 180.94 117.17C182.257 113.791 183.193 110.276 183.73 106.69C187.43 114.39 189.27 118.21 192.95 125.69C191.815 132.021 189.911 138.19 187.28 144.06C185.388 148.474 182.726 152.517 179.42 156C176.58 158.773 173.873 160.163 171.3 160.17Z" fill="#F0372E"/>
<path d="M205.31 16.06C210.45 16.83 213.01 17.28 218.11 18.33C216.877 34.9967 215.66 51.6633 214.46 68.33C220.02 68.6 222.79 68.76 228.29 69.13C229.477 53.29 230.68 37.4567 231.9 21.63C236.9 22.99 239.44 23.74 244.42 25.38C241.087 66.9933 237.86 108.61 234.74 150.23C229.74 151.66 227.18 152.3 222.09 153.44C223.363 135.813 224.647 118.223 225.94 100.67C220.43 100.95 217.66 101.08 212.09 101.3C210.757 119.56 209.463 137.823 208.21 156.09C203.07 156.92 200.5 157.27 195.34 157.82C198.62 110.56 201.943 63.3067 205.31 16.06Z" fill="#F0372E"/>
<path d="M257.26 142.6C258.06 132.713 258.873 122.83 259.7 112.95C264.45 112.01 266.8 111.51 271.46 110.45C270.46 121.06 270.02 126.45 269.06 137.55C264.39 139.7 262 140.71 257.26 142.6ZM261.26 94.77C263.02 74.51 264.84 54.2533 266.72 34C271.42 36.1 273.72 37.21 278.34 39.58C276.48 57.7 274.7 75.84 273 94C268.34 94.3 266 94.47 261.26 94.77Z" fill="#F0372E"/>
<path d="M292.42 66.06C287.93 64.64 285.66 63.97 281.06 62.69C281.93 54.26 282.36 50.15 283.22 42.17C294.867 48.5175 305.954 55.8439 316.36 64.07C315.57 67.7 315.17 69.67 314.36 73.91C310.16 72.22 308.02 71.41 303.69 69.85C301.17 87.28 299.09 104.76 297.07 122.25C292.54 125.14 290.24 126.51 285.59 129.12C287.73 108.08 289.93 87.05 292.42 66.06Z" fill="#F0372E"/>
</g>
<defs>
<clipPath id="clip0_0_7737">
<rect width="332.38" height="173.96" fill="white"/>
</clipPath>
</defs>
</svg>
