<svg width="219" height="219" viewBox="0 0 219 219" fill="none" xmlns="http://www.w3.org/2000/svg">
<g clip-path="url(#clip0_0_7749)">
<path d="M109.24 11.93L126.53 0L137.72 21.58L153.06 7.08L159.44 10.7L163.44 34.7L195.3 37.37L183.81 55.07L207.81 59.07L196.88 80.74L212 81.49L218.47 91.93L201.39 109.24L218.47 119.94V126.54L196.88 137.73L207.76 159.44L205.14 164.6L183.78 163.41L187.44 187.41L163.44 183.74L159.44 207.74L153.72 210.45L137.72 196.86L126.53 218.44L109.24 201.36L98.53 218.47H91.93L80.74 196.89L59 207.77L55 183.77L32.9 190.63L34.69 163.41L8.08 151.18L21.58 137.73L0 126.54V113.73L17.08 109.24L0 91.93L21.58 80.74L10.7 59L13.54 53L34.69 55.1L31 31L36.47 26.28L55.04 34.67L59.04 10.67L72.58 4.8L80.74 21.58L91.93 0L109.24 11.93Z" fill="#FDC5F5"/>
<path d="M133.12 102.27C130.802 102.27 128.519 102.826 126.46 103.89L122 96.23L122.29 95.59H122.09L122.9 92.18C124.524 92.2464 126.137 91.8769 127.57 91.11C131.72 88.68 124.75 86.48 123.42 87.11C121.824 88.0726 120.02 88.6353 118.16 88.75C115.66 88.83 116.36 90.84 117.16 91.11C118.473 91.5901 119.834 91.9255 121.22 92.11L120.43 95.43L95.88 92.44L97.55 88.22H87L86.78 88.39C86.68 88.47 84.35 90.26 84.57 92.58C84.7 94.05 85.79 95.31 87.8 96.31L88.55 94.82C87.55 94.32 86.33 93.5 86.22 92.43C86.2578 91.9343 86.3993 91.452 86.6353 91.0145C86.8713 90.5769 87.1965 90.1938 87.59 89.89H95.1L92.41 96.71L92.1 97.51L89.93 103C88.4518 102.514 86.9061 102.264 85.35 102.26C81.7323 102.248 78.2376 103.573 75.5375 105.981C72.8374 108.389 71.1222 111.709 70.7214 115.305C70.3207 118.9 71.2626 122.517 73.3663 125.46C75.4701 128.404 78.5871 130.466 82.1188 131.251C85.6504 132.035 89.3475 131.488 92.4997 129.712C95.652 127.937 98.0371 125.06 99.1969 121.633C100.357 118.206 100.209 114.471 98.7831 111.147C97.3568 107.822 94.7524 105.141 91.47 103.62L93.38 98.77L109.61 114.77C109.399 115.171 109.286 115.617 109.28 116.07C109.272 116.741 109.504 117.393 109.933 117.908C110.363 118.424 110.962 118.769 111.624 118.883C112.285 118.996 112.966 118.87 113.542 118.526C114.119 118.183 114.554 117.645 114.77 117.01L118.52 117.15C118.575 120.027 119.479 122.824 121.118 125.19C122.757 127.556 125.058 129.385 127.733 130.448C130.407 131.51 133.336 131.759 136.152 131.164C138.967 130.568 141.544 129.154 143.559 127.099C145.574 125.044 146.937 122.44 147.478 119.613C148.018 116.786 147.711 113.862 146.596 111.209C145.481 108.556 143.607 106.291 141.21 104.699C138.812 103.107 135.998 102.259 133.12 102.26V102.27ZM98.3 116.89C98.3006 119.623 97.4368 122.285 95.8323 124.497C94.2277 126.709 91.9646 128.357 89.3668 129.204C86.769 130.052 83.9696 130.056 81.3694 129.216C78.7691 128.376 76.5011 126.735 74.8901 124.528C73.279 122.321 72.4075 119.661 72.4001 116.928C72.3927 114.195 73.2498 111.531 74.8489 109.315C76.448 107.099 78.707 105.446 81.3027 104.592C83.8983 103.738 86.6977 103.727 89.3 104.56L85.5 114.23H85.34C84.6984 114.22 84.0741 114.438 83.5773 114.844C83.0805 115.25 82.7433 115.819 82.6253 116.449C82.5072 117.08 82.616 117.732 82.9323 118.29C83.2485 118.849 83.752 119.277 84.3537 119.5C84.9553 119.723 85.6165 119.726 86.2202 119.509C86.8239 119.292 87.3314 118.868 87.6528 118.312C87.9743 117.757 88.0891 117.106 87.977 116.474C87.8649 115.843 87.533 115.271 87.04 114.86L90.85 105.2C93.0682 106.247 94.9448 107.901 96.2631 109.969C97.5814 112.038 98.2876 114.437 98.3 116.89ZM130.62 115.96L120.24 115.56C120.438 113.678 121.044 111.861 122.016 110.238C122.989 108.614 124.304 107.223 125.87 106.16L131.12 115.16C130.905 115.408 130.735 115.692 130.62 116V115.96ZM118.62 115.5L114.88 115.35C114.723 114.825 114.417 114.356 114 114L121.15 98.12L125.04 104.76C123.233 105.958 121.716 107.544 120.599 109.402C119.482 111.259 118.792 113.342 118.58 115.5H118.62ZM95.25 94L119.81 97L112.46 113.32C112.344 113.31 112.226 113.31 112.11 113.32C111.644 113.322 111.187 113.443 110.78 113.67L94.05 97.09L95.25 94ZM133.12 129.8C129.749 129.783 126.517 128.458 124.104 126.103C121.692 123.749 120.289 120.549 120.19 117.18L130.56 117.58C130.698 118.057 130.965 118.486 131.333 118.819C131.701 119.152 132.155 119.376 132.643 119.466C133.132 119.556 133.635 119.507 134.097 119.327C134.56 119.146 134.963 118.84 135.261 118.443C135.559 118.046 135.74 117.574 135.785 117.079C135.829 116.585 135.735 116.088 135.513 115.644C135.29 115.2 134.949 114.827 134.526 114.567C134.103 114.306 133.616 114.169 133.12 114.17C132.928 114.17 132.737 114.19 132.55 114.23L127.31 105.29C129.055 104.416 130.975 103.948 132.927 103.921C134.879 103.894 136.811 104.309 138.58 105.135C140.348 105.961 141.907 107.176 143.139 108.69C144.372 110.203 145.246 111.976 145.696 113.875C146.146 115.775 146.161 117.751 145.739 119.657C145.317 121.562 144.47 123.348 143.26 124.88C142.05 126.411 140.51 127.65 138.754 128.502C136.998 129.354 135.072 129.798 133.12 129.8Z" fill="#6D47A8"/>
<path d="M68.55 73.38V52H74.55V56.63H74.76C74.8777 56.0626 75.0728 55.5142 75.34 55C75.6096 54.4462 75.9714 53.9424 76.41 53.51C76.8787 53.078 77.425 52.7387 78.02 52.51C78.7083 52.1947 79.4532 52.0213 80.21 52H81.27V57.61H79.77C78.424 57.5291 77.0779 57.7654 75.84 58.3C75.4039 58.5594 75.0515 58.9385 74.8246 59.3923C74.5977 59.8461 74.5059 60.3555 74.56 60.86V73.38H68.55Z" fill="#6D47A8"/>
<path d="M93.42 73.87C91.9829 73.8933 90.5554 73.6316 89.22 73.1C88.0181 72.6044 86.9469 71.8378 86.09 70.86C85.1914 69.827 84.5111 68.6228 84.09 67.32C83.1565 64.3039 83.1565 61.0761 84.09 58.06C84.5044 56.7603 85.1856 55.5614 86.09 54.54C86.9507 53.5714 88.0213 52.8121 89.22 52.32C91.9294 51.2936 94.9206 51.2936 97.63 52.32C98.8274 52.8145 99.8974 53.5735 100.76 54.54C101.664 55.5614 102.346 56.7603 102.76 58.06C103.68 61.0781 103.68 64.3019 102.76 67.32C102.339 68.6228 101.659 69.827 100.76 70.86C99.9012 71.8357 98.8305 72.6019 97.63 73.1C96.2913 73.6324 94.8604 73.8941 93.42 73.87ZM93.42 69.11C93.9351 69.142 94.4509 69.059 94.93 68.867C95.4091 68.675 95.8395 68.3789 96.19 68C96.9016 67.1177 97.2582 66.0015 97.19 64.87V60.53C97.2553 59.3989 96.899 58.2837 96.19 57.4C95.4399 56.6991 94.4516 56.3093 93.425 56.3093C92.3984 56.3093 91.4101 56.6991 90.66 57.4C89.9518 58.2842 89.5957 59.399 89.66 60.53V64.88C89.5918 66.0115 89.9484 67.1277 90.66 68.01C91.0099 68.3863 91.439 68.6801 91.9163 68.8704C92.3936 69.0606 92.9072 69.1424 93.42 69.11Z" fill="#6D47A8"/>
<path d="M123.46 73.38C122.463 73.4159 121.493 73.0565 120.76 72.38C120.013 71.6528 119.533 70.6942 119.4 69.66H119.15C119.017 70.2981 118.758 70.9035 118.389 71.4408C118.02 71.9781 117.548 72.4367 117 72.79C115.765 73.5441 114.336 73.9196 112.89 73.87C111.999 73.9301 111.106 73.8106 110.262 73.5186C109.419 73.2266 108.643 72.7679 107.98 72.17C107.404 71.5758 106.955 70.8702 106.661 70.0965C106.367 69.3227 106.234 68.497 106.27 67.67C106.21 66.6946 106.405 65.7205 106.837 64.8436C107.268 63.9668 107.921 63.2176 108.73 62.67C110.744 61.4694 113.068 60.8886 115.41 61H118.79V59.68C118.836 58.7877 118.548 57.9102 117.98 57.22C117.615 56.884 117.183 56.6292 116.713 56.4724C116.242 56.3155 115.744 56.2602 115.25 56.31C114.246 56.2582 113.251 56.5279 112.41 57.08C111.733 57.5617 111.142 58.1532 110.66 58.83L107.08 55.64C107.914 54.3928 109.036 53.3641 110.35 52.64C112.015 51.8361 113.854 51.4614 115.7 51.55C118.7 51.55 121.01 52.22 122.53 53.55C123.315 54.2921 123.926 55.199 124.318 56.2053C124.711 57.2116 124.875 58.2925 124.8 59.37V68.7H126.8V73.38H123.46ZM115.13 69.68C116.034 69.7081 116.927 69.4829 117.71 69.03C118.067 68.8169 118.357 68.5083 118.548 68.139C118.739 67.7697 118.823 67.3544 118.79 66.94V64.44H115.86C113.5 64.44 112.33 65.23 112.33 66.82V67.42C112.302 67.7445 112.355 68.0707 112.482 68.3705C112.609 68.6702 112.808 68.9344 113.06 69.14C113.675 69.5354 114.4 69.7246 115.13 69.68Z" fill="#6D47A8"/>
<path d="M143.91 69.8H143.71C143.543 70.3768 143.279 70.9211 142.93 71.41C142.577 71.9099 142.144 72.349 141.65 72.71C141.132 73.0818 140.558 73.3688 139.95 73.56C139.304 73.7703 138.629 73.8749 137.95 73.87C136.773 73.9381 135.598 73.7112 134.531 73.2101C133.464 72.7089 132.539 71.9492 131.84 71C130.447 69.0933 129.753 66.3233 129.76 62.69C129.76 59.06 130.45 56.29 131.84 54.4C132.547 53.4477 133.481 52.6879 134.557 52.19C135.633 51.6921 136.817 51.472 138 51.55C139.317 51.5282 140.606 51.9276 141.68 52.69C142.705 53.3788 143.439 54.4224 143.74 55.62H143.94V43.3H149.94V73.38H143.94L143.91 69.8ZM140 69C141.005 69.0377 141.995 68.7463 142.82 68.17C143.182 67.9091 143.474 67.5624 143.67 67.1611C143.865 66.7597 143.958 66.3161 143.94 65.87V59.57C143.958 59.1239 143.865 58.6803 143.67 58.2789C143.474 57.8775 143.182 57.5309 142.82 57.27C141.995 56.6937 141.005 56.4022 140 56.44C139.47 56.4262 138.943 56.5261 138.455 56.7331C137.967 56.9401 137.529 57.2493 137.17 57.64C136.378 58.5215 135.959 59.6757 136 60.86V64.56C135.942 65.7409 136.344 66.8982 137.12 67.79C137.483 68.189 137.929 68.5039 138.426 68.7129C138.924 68.9219 139.461 69.0198 140 69Z" fill="#6D47A8"/>
<path d="M71.27 140.47H77.27V152.79H77.47C77.7688 151.594 78.4989 150.551 79.52 149.86C80.5945 149.099 81.8834 148.7 83.2 148.72C84.3797 148.647 85.5589 148.87 86.631 149.367C87.703 149.865 88.6341 150.622 89.34 151.57C90.72 153.46 91.41 156.23 91.41 159.86C91.41 163.49 90.72 166.26 89.34 168.17C88.6344 169.112 87.7057 169.864 86.6374 170.358C85.5691 170.852 84.3948 171.073 83.22 171C81.9022 171.008 80.6152 170.602 79.54 169.84C79.048 169.476 78.6161 169.038 78.26 168.54C77.9142 168.051 77.6538 167.506 77.49 166.93H77.29V170.51H71.29L71.27 140.47ZM81.27 166.16C81.8001 166.174 82.327 166.074 82.8151 165.867C83.3033 165.66 83.7415 165.351 84.1 164.96C84.8736 164.067 85.2714 162.91 85.21 161.73V158C85.2714 156.82 84.8736 155.663 84.1 154.77C83.7415 154.379 83.3033 154.07 82.8151 153.863C82.327 153.656 81.8001 153.556 81.27 153.57C80.2645 153.531 79.2739 153.822 78.45 154.4C78.0877 154.661 77.7958 155.008 77.6003 155.409C77.4049 155.81 77.312 156.254 77.33 156.7V163C77.312 163.446 77.4049 163.89 77.6003 164.291C77.7958 164.692 78.0877 165.039 78.45 165.3C79.2592 165.88 80.2347 166.182 81.23 166.16H81.27Z" fill="#6D47A8"/>
<path d="M99 146.93C98.5238 146.974 98.0437 146.923 97.5872 146.78C97.1307 146.638 96.7069 146.407 96.34 146.1C96.0674 145.823 95.8527 145.495 95.7084 145.135C95.5642 144.774 95.4933 144.388 95.5 144V143.1C95.4862 142.707 95.5527 142.316 95.6954 141.949C95.8382 141.583 96.0541 141.25 96.33 140.97C97.1113 140.424 98.0416 140.131 98.995 140.131C99.9484 140.131 100.879 140.424 101.66 140.97C101.936 141.25 102.152 141.583 102.295 141.949C102.437 142.316 102.504 142.707 102.49 143.1V144C102.502 144.393 102.435 144.784 102.292 145.15C102.149 145.516 101.935 145.849 101.66 146.13C100.913 146.737 99.9575 147.024 99 146.93ZM96 149.21H102V170.55H96V149.21Z" fill="#6D47A8"/>
<path d="M107.61 140.47H113.61V158.23H113.85L116.49 154.29L120.76 149.21H127.43L120.31 157.38L128.24 170.55H121.09L116.29 161.55L113.61 164.55V170.55H107.61V140.47Z" fill="#6D47A8"/>
<path d="M138.87 171C137.381 171.025 135.903 170.753 134.52 170.2C133.291 169.706 132.188 168.944 131.29 167.97C130.374 166.957 129.692 165.755 129.29 164.45C128.41 161.446 128.41 158.254 129.29 155.25C129.679 153.954 130.336 152.755 131.22 151.73C132.081 150.744 133.16 149.97 134.37 149.47C135.727 148.926 137.178 148.657 138.64 148.68C140.198 148.639 141.746 148.946 143.17 149.58C144.371 150.126 145.429 150.945 146.26 151.97C147.07 153 147.662 154.184 148 155.45C148.372 156.791 148.557 158.178 148.55 159.57V161.36H134.85V161.69C134.783 162.319 134.86 162.955 135.076 163.55C135.292 164.144 135.641 164.681 136.096 165.12C136.552 165.56 137.101 165.889 137.703 166.083C138.305 166.277 138.944 166.331 139.57 166.24C140.636 166.284 141.693 166.028 142.62 165.5C143.419 164.989 144.154 164.384 144.81 163.7L147.81 167.45C146.802 168.611 145.525 169.507 144.09 170.06C142.429 170.713 140.655 171.032 138.87 171ZM138.75 153.11C138.212 153.082 137.675 153.175 137.178 153.383C136.681 153.591 136.238 153.908 135.88 154.31C135.168 155.215 134.812 156.35 134.88 157.5V157.83H142.36V157.46C142.413 156.344 142.108 155.241 141.49 154.31C141.167 153.903 140.746 153.584 140.268 153.381C139.789 153.178 139.267 153.099 138.75 153.15V153.11Z" fill="#6D47A8"/>
<path d="M56 130.59C56.1123 130.808 56.1708 131.05 56.1708 131.295C56.1708 131.54 56.1123 131.782 56 132C55.6858 132.473 55.2204 132.826 54.68 133C54.1602 133.248 53.5735 133.318 53.01 133.2C52.7813 133.133 52.5716 133.013 52.3979 132.849C52.2241 132.686 52.0913 132.484 52.01 132.26C51.883 131.975 51.8447 131.658 51.9 131.35C51.9565 131.056 52.1033 130.787 52.32 130.58L52.7 130.87C52.5359 131.017 52.4179 131.208 52.36 131.42C52.302 131.644 52.3232 131.88 52.42 132.09C52.4812 132.246 52.5769 132.386 52.7 132.5C52.813 132.605 52.9504 132.681 53.1 132.72C53.2681 132.755 53.4418 132.755 53.61 132.72C53.8076 132.706 54.0008 132.655 54.18 132.57L54.76 132.34C55.1061 132.225 55.4002 131.991 55.59 131.68C55.6636 131.538 55.7021 131.38 55.7021 131.22C55.7021 131.06 55.6636 130.902 55.59 130.76C55.5096 130.532 55.3545 130.338 55.15 130.21C54.9496 130.095 54.7207 130.04 54.49 130.05L54.58 129.58C54.8822 129.593 55.1755 129.686 55.43 129.85C55.6861 130.038 55.8838 130.294 56 130.59Z" fill="#6D47A8"/>
<path d="M51.61 127.79L51.46 127.35L55.52 127.43H55.77C55.8348 127.444 55.8961 127.471 55.95 127.51C56.0065 127.554 56.054 127.608 56.09 127.67C56.1357 127.754 56.1758 127.841 56.21 127.93L56.28 128.16L55.88 128.3L55.72 127.84H55L52.36 130L52.2 129.54L54 128.15L54.43 127.86H53.9L51.61 127.79Z" fill="#6D47A8"/>
<path d="M54 124.7C54.0383 124.895 54.0383 125.095 54 125.29C53.9758 125.474 53.9071 125.649 53.8 125.8C53.688 125.96 53.5452 126.096 53.38 126.2C53.1874 126.319 52.9786 126.41 52.76 126.47C52.5434 126.538 52.3168 126.568 52.09 126.56C51.8966 126.564 51.7049 126.523 51.53 126.44C51.3605 126.369 51.2123 126.255 51.1 126.11C50.9731 125.955 50.881 125.774 50.83 125.58C50.7498 125.333 50.7498 125.067 50.83 124.82C50.9076 124.605 51.0425 124.414 51.22 124.27L51.53 124.6C51.3984 124.689 51.3 124.819 51.25 124.97C51.1999 125.133 51.1999 125.307 51.25 125.47C51.2799 125.595 51.3381 125.711 51.42 125.81C51.4898 125.899 51.5786 125.97 51.68 126.02C51.7803 126.068 51.8891 126.095 52 126.1C52.1263 126.114 52.2537 126.114 52.38 126.1L52.89 125.95C53.124 125.894 53.3299 125.756 53.47 125.56C53.5357 125.459 53.5772 125.344 53.5911 125.224C53.6049 125.105 53.5909 124.983 53.55 124.87C53.5093 124.696 53.4151 124.538 53.2807 124.42C53.1462 124.302 52.9782 124.228 52.8 124.21L52.93 123.81C53.1652 123.842 53.3868 123.939 53.57 124.09C53.7674 124.249 53.9164 124.461 54 124.7Z" fill="#6D47A8"/>
<path d="M53.35 122.48C53.3711 122.544 53.378 122.613 53.3703 122.68C53.3625 122.747 53.3403 122.812 53.3052 122.87C53.27 122.928 53.2228 122.978 53.1666 123.016C53.1105 123.054 53.0468 123.079 52.98 123.09L49.15 124.01L49.04 123.55L52.94 122.61L52.84 122.17L53.25 122.07L53.35 122.48Z" fill="#6D47A8"/>
<path d="M49.31 122C49.3284 122.036 49.338 122.075 49.338 122.115C49.338 122.155 49.3284 122.194 49.31 122.23C49.2667 122.289 49.2021 122.328 49.13 122.34H49.06C48.9916 122.361 48.9185 122.361 48.85 122.34C48.8161 122.316 48.7878 122.284 48.7671 122.248C48.7464 122.212 48.7337 122.172 48.73 122.13C48.7137 122.094 48.7053 122.055 48.7053 122.015C48.7053 121.975 48.7137 121.936 48.73 121.9C48.771 121.843 48.8316 121.804 48.9 121.79H49C49.0317 121.777 49.0657 121.77 49.1 121.77C49.1344 121.77 49.1683 121.777 49.2 121.79C49.2631 121.843 49.3026 121.918 49.31 122ZM50.07 122.08L49.98 121.61L52.98 120.97L53.08 121.44L50.07 122.08Z" fill="#6D47A8"/>
<path d="M52.81 120L49.75 120.51L49.67 120.04L50.17 119.96C49.9961 119.922 49.8365 119.835 49.71 119.71C49.5706 119.57 49.4825 119.387 49.46 119.19C49.4317 119.052 49.4332 118.909 49.4642 118.771C49.4952 118.633 49.5551 118.503 49.64 118.39C49.8511 118.152 50.1437 118.002 50.46 117.97L52.46 117.64L52.54 118.12L50.66 118.43C50.11 118.53 49.87 118.8 49.95 119.26C49.9598 119.354 49.9869 119.446 50.03 119.53C50.0657 119.612 50.1166 119.687 50.18 119.75C50.2344 119.817 50.3076 119.865 50.39 119.89C50.4748 119.916 50.5652 119.916 50.65 119.89L52.78 119.54L52.81 120Z" fill="#6D47A8"/>
<path d="M52.34 114C52.4781 113.974 52.6208 113.988 52.7516 114.039C52.8824 114.09 52.9962 114.177 53.08 114.29C53.2848 114.622 53.4018 115 53.42 115.39C53.4895 115.744 53.4618 116.11 53.34 116.45C53.296 116.554 53.224 116.643 53.1323 116.708C53.0405 116.774 52.9324 116.812 52.82 116.82C52.6782 116.843 52.5327 116.815 52.41 116.74C52.3014 116.65 52.2186 116.533 52.17 116.4H52.1C52.0757 116.487 52.0252 116.564 51.9554 116.621C51.8857 116.679 51.8 116.713 51.71 116.72C51.644 116.733 51.576 116.729 51.5116 116.71C51.4473 116.691 51.3884 116.657 51.34 116.61C51.2365 116.509 51.1577 116.386 51.11 116.25C51.0454 116.434 50.9312 116.597 50.78 116.72C50.6219 116.844 50.4303 116.917 50.23 116.93C50.0849 116.96 49.9351 116.96 49.79 116.93C49.6539 116.89 49.5278 116.822 49.42 116.73C49.3127 116.634 49.2244 116.519 49.16 116.39C49.0918 116.241 49.0479 116.083 49.03 115.92C49.0086 115.721 49.029 115.52 49.09 115.33C48.9899 115.367 48.8801 115.367 48.78 115.33C48.7329 115.305 48.6938 115.268 48.6672 115.222C48.6407 115.176 48.6278 115.123 48.63 115.07L48.58 114.61H49L49.07 115.2H49.26C49.3463 115.08 49.4549 114.978 49.58 114.9C49.7138 114.82 49.8644 114.772 50.02 114.76C50.1651 114.73 50.3149 114.73 50.46 114.76C50.5937 114.798 50.7169 114.867 50.82 114.96C50.9302 115.053 51.0189 115.169 51.08 115.3C51.1501 115.448 51.1941 115.607 51.21 115.77C51.2202 115.873 51.2202 115.977 51.21 116.08C51.2479 116.173 51.2984 116.261 51.36 116.34C51.387 116.377 51.4237 116.406 51.466 116.424C51.5083 116.441 51.5547 116.447 51.6 116.44C51.6407 116.437 51.6792 116.42 51.7098 116.393C51.7405 116.366 51.7616 116.33 51.77 116.29C51.7859 116.177 51.7859 116.063 51.77 115.95L51.69 115.29C51.6333 114.997 51.6792 114.693 51.82 114.43C51.8671 114.323 51.9386 114.228 52.0289 114.153C52.1192 114.079 52.2258 114.026 52.34 114ZM50.76 115.71C50.7521 115.534 50.6811 115.367 50.56 115.24C50.4965 115.184 50.4213 115.144 50.3399 115.121C50.2585 115.099 50.1731 115.095 50.09 115.11H49.92C49.8353 115.112 49.7523 115.134 49.6776 115.174C49.6029 115.214 49.5386 115.271 49.49 115.34C49.3955 115.488 49.3632 115.668 49.4 115.84C49.4056 116.013 49.4772 116.178 49.6 116.3C49.6631 116.356 49.7383 116.397 49.8198 116.42C49.9013 116.442 49.987 116.446 50.07 116.43H50.24C50.3244 116.427 50.4069 116.404 50.4814 116.364C50.5558 116.324 50.6203 116.268 50.67 116.2C50.7457 116.063 50.7771 115.906 50.76 115.75V115.71ZM52.42 114.44C52.3636 114.446 52.3092 114.464 52.2608 114.493C52.2123 114.523 52.1711 114.563 52.14 114.61C52.0884 114.776 52.0884 114.954 52.14 115.12L52.25 116.12C52.2908 116.202 52.3561 116.269 52.4367 116.312C52.5173 116.355 52.6094 116.372 52.7 116.36C52.7652 116.353 52.8283 116.333 52.8851 116.3C52.942 116.267 52.9913 116.223 53.03 116.17C53.1211 116.009 53.1495 115.82 53.11 115.64L53.06 115.2C53.0535 114.983 52.9878 114.772 52.87 114.59C52.8157 114.527 52.7432 114.483 52.6626 114.463C52.5819 114.444 52.4972 114.449 52.42 114.48V114.44Z" fill="#6D47A8"/>
<path d="M49.21 112.11V112.62H48.79V112.11H48.16C47.971 112.126 47.7826 112.073 47.63 111.96C47.56 111.898 47.5048 111.82 47.4685 111.734C47.4321 111.647 47.4156 111.554 47.42 111.46V110.99H47.84V111.65H48.76V110.99H49.18V111.65L51.85 111.54V112.02L49.21 112.11Z" fill="#6D47A8"/>
<path d="M51.89 109.14C51.8847 109.337 51.8405 109.53 51.76 109.71C51.6858 109.88 51.5728 110.031 51.43 110.15C51.2795 110.273 51.1061 110.365 50.92 110.42C50.7043 110.492 50.477 110.522 50.25 110.51C50.022 110.512 49.7954 110.475 49.58 110.4C49.3934 110.336 49.2204 110.238 49.07 110.11C48.9349 109.982 48.8262 109.83 48.75 109.66C48.6749 109.48 48.6407 109.285 48.65 109.09C48.6461 108.897 48.6872 108.705 48.77 108.53C48.8479 108.359 48.9643 108.209 49.11 108.09C49.2585 107.962 49.4322 107.867 49.62 107.81C49.8357 107.738 50.063 107.708 50.29 107.72C50.5179 107.718 50.7445 107.755 50.96 107.83C51.1449 107.896 51.3149 107.998 51.46 108.13C51.6 108.249 51.7097 108.4 51.78 108.57C51.8585 108.749 51.8961 108.944 51.89 109.14ZM51.46 109.14C51.469 109.023 51.4532 108.906 51.4135 108.795C51.3739 108.685 51.3113 108.584 51.23 108.5C51.1317 108.41 51.0165 108.341 50.8912 108.296C50.7658 108.252 50.6328 108.233 50.5 108.24H50.06C49.9275 108.227 49.7939 108.241 49.6668 108.28C49.5397 108.32 49.4218 108.384 49.32 108.47C49.1589 108.644 49.0696 108.873 49.07 109.11C49.0631 109.345 49.1453 109.573 49.3 109.75C49.4925 109.92 49.7432 110.01 50 110H50.45C50.5808 110.011 50.7126 109.997 50.8379 109.958C50.9631 109.918 51.0794 109.854 51.18 109.77C51.2676 109.69 51.3377 109.593 51.3859 109.484C51.4341 109.376 51.4593 109.259 51.46 109.14Z" fill="#6D47A8"/>
<path d="M51.86 107L48.76 106.85V106.38H49.33C49.1857 106.288 49.0712 106.156 49 106C48.883 105.823 48.8301 105.611 48.85 105.4V105.22H49.33V105.5C49.299 105.713 49.3375 105.931 49.44 106.12C49.4731 106.188 49.5242 106.245 49.5877 106.286C49.6512 106.326 49.7247 106.348 49.8 106.35L51.9 106.46L51.86 107Z" fill="#6D47A8"/>
<path d="M47.68 102.91L47.74 102.43L49.57 102.66C49.416 102.572 49.2883 102.444 49.2 102.29C49.1103 102.114 49.0788 101.915 49.11 101.72C49.1231 101.58 49.1655 101.445 49.2344 101.322C49.3033 101.2 49.3972 101.094 49.51 101.01C49.7773 100.841 50.0993 100.78 50.41 100.84L52.41 101.07L52.35 101.55L50.46 101.32C49.91 101.25 49.6 101.45 49.55 101.92C49.54 102.013 49.54 102.107 49.55 102.2C49.5599 102.288 49.5871 102.373 49.63 102.45C49.669 102.528 49.7269 102.596 49.7985 102.647C49.87 102.697 49.953 102.729 50.04 102.74L52.18 103L52.12 103.47L47.68 102.91Z" fill="#6D47A8"/>
<path d="M52.8 99C52.7651 99.1949 52.6938 99.3814 52.59 99.55C52.482 99.6982 52.3461 99.8238 52.19 99.92C52.0167 100.017 51.8268 100.082 51.63 100.11C51.4084 100.149 51.1816 100.149 50.96 100.11C50.7367 100.075 50.5206 100.004 50.32 99.9C50.1454 99.8101 49.9919 99.6839 49.87 99.53C49.7519 99.3869 49.6665 99.2196 49.62 99.04C49.5786 98.8509 49.575 98.6555 49.6093 98.465C49.6436 98.2746 49.7152 98.0927 49.82 97.93C49.9193 97.7805 50.053 97.657 50.21 97.57C50.3668 97.4776 50.54 97.4165 50.72 97.39C50.9218 97.3553 51.1281 97.3553 51.33 97.39H51.55L51.16 99.58H51.3C51.4255 99.6043 51.5545 99.6043 51.68 99.58C51.7956 99.558 51.9056 99.513 52.0035 99.4477C52.1014 99.3825 52.1852 99.2982 52.25 99.2C52.3161 99.0885 52.3634 98.9669 52.39 98.84C52.4414 98.6671 52.4414 98.4829 52.39 98.31C52.2934 98.1704 52.1577 98.0626 52 98L52.31 97.71C52.5001 97.8489 52.646 98.04 52.73 98.26C52.8177 98.4963 52.8418 98.7514 52.8 99ZM50 98.49C49.9699 98.6115 49.9699 98.7385 50 98.86C50.026 98.9684 50.0736 99.0704 50.14 99.16C50.2117 99.2548 50.2997 99.3361 50.4 99.4C50.5092 99.4612 50.6273 99.505 50.75 99.53H50.8L51.1 97.84H51C50.7677 97.7861 50.5235 97.8256 50.32 97.95C50.2303 98.011 50.1552 98.0911 50.0999 98.1844C50.0446 98.2777 50.0105 98.382 50 98.49Z" fill="#6D47A8"/>
<path d="M53.65 94.75C53.6399 94.8204 53.6139 94.8875 53.5741 94.9464C53.5342 95.0053 53.4815 95.0544 53.42 95.09C53.3 95.1519 53.163 95.173 53.03 95.15C53.1887 95.2507 53.3086 95.4023 53.37 95.58C53.4204 95.77 53.4204 95.9699 53.37 96.16C53.3193 96.4309 53.1696 96.6733 52.95 96.84C52.8438 96.9107 52.7234 96.9572 52.5972 96.9763C52.4711 96.9953 52.3423 96.9863 52.22 96.95C52.091 96.9282 51.9699 96.8734 51.8683 96.7911C51.7667 96.7088 51.688 96.6016 51.64 96.48C51.5439 96.1536 51.5439 95.8064 51.64 95.48L51.78 94.89L51.49 94.82C51.4006 94.7929 51.3066 94.7843 51.2138 94.7946C51.121 94.8049 51.0312 94.834 50.95 94.88C50.8709 94.9376 50.8043 95.0108 50.7545 95.0951C50.7046 95.1794 50.6725 95.2729 50.66 95.37C50.6094 95.5294 50.6094 95.7006 50.66 95.86C50.7167 96.0052 50.8017 96.1378 50.91 96.25L50.59 96.46C50.4331 96.3336 50.3181 96.1628 50.26 95.97C50.1938 95.7346 50.1938 95.4854 50.26 95.25C50.3148 94.9408 50.4823 94.6629 50.73 94.47C50.8494 94.3909 50.9844 94.3383 51.1258 94.3159C51.2673 94.2934 51.412 94.3017 51.55 94.34L53.2 94.73L53.29 94.39L53.7 94.49L53.65 94.75ZM53 96C53.0135 95.8904 53.0135 95.7796 53 95.67C52.9927 95.5744 52.9725 95.4802 52.94 95.39C52.9077 95.3114 52.8601 95.24 52.8 95.18C52.7444 95.126 52.6753 95.088 52.6 95.07L52.1 94.95L51.96 95.57C51.9016 95.7725 51.9016 95.9874 51.96 96.19C51.9812 96.2568 52.0204 96.3164 52.0733 96.3623C52.1263 96.4082 52.1909 96.4385 52.26 96.45H52.38C52.4451 96.4682 52.5136 96.4705 52.5798 96.4565C52.6459 96.4426 52.7078 96.4129 52.76 96.37C52.8783 96.2762 52.9626 96.1463 53 96Z" fill="#6D47A8"/>
<path d="M54 93.38C53.9905 93.4506 53.9636 93.5177 53.9217 93.5753C53.8798 93.6329 53.8242 93.6792 53.76 93.71C53.6999 93.7353 53.6353 93.7483 53.57 93.7483C53.5048 93.7483 53.4402 93.7353 53.38 93.71L49.59 92.64L49.72 92.18L53.58 93.27L53.71 92.83L54.12 92.94L54 93.38Z" fill="#6D47A8"/>
<path d="M54.54 91.71C54.5249 91.7787 54.4946 91.843 54.4513 91.8984C54.4081 91.9538 54.3529 91.9988 54.29 92.03C54.2286 92.0573 54.1622 92.0714 54.095 92.0714C54.0278 92.0714 53.9614 92.0573 53.9 92.03L51.84 91.38L51.69 91.87L51.28 91.74L51.37 91.46C51.3854 91.4254 51.3934 91.3879 51.3934 91.35C51.3934 91.3121 51.3854 91.2746 51.37 91.24C51.3239 91.1777 51.2561 91.1348 51.18 91.12L50.63 91L50.76 90.58L51.58 90.84L51.78 90.2L52.19 90.33L51.99 90.97L54.12 91.65L54.31 91.05L54.72 91.18L54.54 91.71Z" fill="#6D47A8"/>
<path d="M50.8 88.86L50.96 88.41L52.69 89.05C52.5579 88.9279 52.4611 88.7725 52.41 88.6C52.3475 88.4151 52.3475 88.2149 52.41 88.03C52.4508 87.8952 52.5215 87.7712 52.6167 87.6674C52.7119 87.5635 52.8292 87.4824 52.96 87.43C53.2553 87.312 53.5847 87.312 53.88 87.43L55.74 88.12L55.57 88.57L53.79 87.91C53.26 87.71 52.92 87.84 52.79 88.27C52.7558 88.3597 52.7356 88.4542 52.73 88.55C52.7149 88.636 52.7149 88.724 52.73 88.81C52.7495 88.8957 52.7908 88.975 52.85 89.04C52.9094 89.1079 52.9851 89.1595 53.07 89.19L55.07 89.93L55 90.4L50.8 88.86Z" fill="#6D47A8"/>
<path d="M162.47 87.88C162.366 87.6684 162.312 87.4358 162.312 87.2C162.312 86.9642 162.366 86.7315 162.47 86.52C162.784 86.0469 163.25 85.6944 163.79 85.52C164.31 85.2723 164.896 85.2021 165.46 85.32C165.689 85.3873 165.898 85.5074 166.072 85.6707C166.246 85.834 166.379 86.0359 166.46 86.26C166.587 86.5455 166.625 86.8625 166.57 87.17C166.514 87.4641 166.367 87.7332 166.15 87.94L165.77 87.65C165.932 87.5019 166.05 87.3114 166.11 87.1C166.168 86.8764 166.147 86.6397 166.05 86.43C165.993 86.272 165.896 86.1309 165.77 86.02C165.655 85.9151 165.518 85.8366 165.37 85.79C165.201 85.7596 165.029 85.7596 164.86 85.79C164.664 85.8055 164.471 85.8528 164.29 85.93L163.71 86.17C163.364 86.2848 163.07 86.5187 162.88 86.83C162.806 86.9721 162.768 87.1299 162.768 87.29C162.768 87.4501 162.806 87.6078 162.88 87.75C162.96 87.9777 163.116 88.1716 163.32 88.3C163.522 88.41 163.75 88.4651 163.98 88.46L163.89 88.92C163.588 88.9148 163.293 88.8247 163.04 88.66C162.778 88.4614 162.58 88.1902 162.47 87.88Z" fill="#6D47A8"/>
<path d="M166.86 90.68L167.01 91.12L163 91H162.75C162.685 90.9858 162.624 90.9586 162.57 90.92C162.514 90.8761 162.466 90.8218 162.43 90.76C162.384 90.6777 162.347 90.5905 162.32 90.5L162.24 90.27L162.64 90.13L162.8 90.59H163.5L166.17 88.46L166.32 88.92L164.57 90.3L164.14 90.59H164.67L166.86 90.68Z" fill="#6D47A8"/>
<path d="M164.47 93.77C164.415 93.5785 164.398 93.3781 164.42 93.18C164.444 92.9963 164.513 92.8212 164.62 92.67C164.732 92.5101 164.875 92.3741 165.04 92.27C165.233 92.1507 165.441 92.0598 165.66 92C165.877 91.9322 166.103 91.9018 166.33 91.91C166.523 91.9061 166.715 91.9472 166.89 92.03C167.059 92.1009 167.208 92.2146 167.32 92.36C167.447 92.5153 167.539 92.696 167.59 92.89C167.67 93.137 167.67 93.403 167.59 93.65C167.512 93.8654 167.378 94.0555 167.2 94.2L166.89 93.87C167.022 93.781 167.12 93.6509 167.17 93.5C167.22 93.3371 167.22 93.1629 167.17 93C167.14 92.8752 167.082 92.7589 167 92.66C166.93 92.5713 166.841 92.4996 166.74 92.45C166.64 92.4024 166.531 92.3753 166.42 92.37C166.294 92.3561 166.166 92.3561 166.04 92.37L165.53 92.52C165.3 92.6092 165.111 92.7802 165 93C164.934 93.101 164.893 93.2159 164.879 93.3356C164.865 93.4553 164.879 93.5766 164.92 93.69C164.961 93.8644 165.055 94.0218 165.189 94.1401C165.324 94.2584 165.492 94.3318 165.67 94.35L165.54 94.75C165.305 94.7178 165.083 94.6209 164.9 94.47C164.688 94.2866 164.538 94.0421 164.47 93.77Z" fill="#6D47A8"/>
<path d="M165.12 96C165.091 95.9372 165.076 95.869 165.076 95.8C165.076 95.731 165.091 95.6628 165.12 95.6C165.155 95.5441 165.202 95.4964 165.257 95.4601C165.312 95.4239 165.375 95.4 165.44 95.39L169.27 94.47L169.38 94.93L165.48 95.87L165.58 96.31L165.17 96.41L165.12 96Z" fill="#6D47A8"/>
<path d="M168.4 96.44L168.49 96.91L165.49 97.55L165.4 97.08L168.4 96.44ZM169.16 96.52C169.142 96.4844 169.132 96.445 169.132 96.405C169.132 96.365 169.142 96.3255 169.16 96.29C169.18 96.2596 169.207 96.2341 169.238 96.2151C169.269 96.1961 169.304 96.1841 169.34 96.18H169.41C169.478 96.1547 169.552 96.1547 169.62 96.18C169.654 96.2022 169.682 96.2317 169.703 96.2664C169.724 96.301 169.736 96.3398 169.74 96.38C169.757 96.4178 169.765 96.4587 169.765 96.5C169.765 96.5413 169.757 96.5821 169.74 96.62C169.699 96.6766 169.638 96.7158 169.57 96.73H169.49C169.458 96.7432 169.424 96.75 169.39 96.75C169.356 96.75 169.322 96.7432 169.29 96.73C169.255 96.7058 169.226 96.6746 169.203 96.6385C169.181 96.6024 169.166 96.562 169.16 96.52Z" fill="#6D47A8"/>
<path d="M165.66 98.49L168.72 97.98L168.8 98.45L168.3 98.53C168.474 98.5681 168.633 98.6548 168.76 98.78C168.901 98.9189 168.99 99.1028 169.01 99.3C169.038 99.4385 169.037 99.5814 169.006 99.7193C168.975 99.8572 168.915 99.987 168.83 100.1C168.613 100.33 168.324 100.479 168.01 100.52L166.01 100.84L165.93 100.37L167.81 100.06C168.36 99.96 168.6 99.69 168.52 99.23C168.51 99.1359 168.483 99.0443 168.44 98.96C168.402 98.8762 168.351 98.7986 168.29 98.73C168.233 98.6683 168.161 98.6234 168.08 98.6C167.995 98.575 167.905 98.575 167.82 98.6L165.69 98.95L165.66 98.49Z" fill="#6D47A8"/>
<path d="M166.13 104.43C165.992 104.456 165.849 104.442 165.718 104.391C165.588 104.34 165.474 104.253 165.39 104.14C165.185 103.808 165.068 103.43 165.05 103.04C164.981 102.686 165.008 102.32 165.13 101.98C165.175 101.876 165.247 101.787 165.339 101.72C165.43 101.653 165.537 101.612 165.65 101.6C165.793 101.58 165.939 101.612 166.06 101.69C166.169 101.78 166.251 101.897 166.3 102.03H166.37C166.394 101.943 166.445 101.866 166.515 101.809C166.584 101.751 166.67 101.717 166.76 101.71C166.826 101.697 166.894 101.701 166.958 101.72C167.023 101.739 167.082 101.773 167.13 101.82C167.234 101.921 167.312 102.044 167.36 102.18C167.425 101.996 167.539 101.833 167.69 101.71C167.85 101.589 168.04 101.513 168.24 101.49C168.386 101.464 168.534 101.464 168.68 101.49C168.816 101.53 168.942 101.598 169.05 101.69C169.157 101.786 169.246 101.901 169.31 102.03C169.378 102.179 169.422 102.337 169.44 102.5C169.461 102.699 169.441 102.9 169.38 103.09C169.48 103.053 169.59 103.053 169.69 103.09C169.737 103.115 169.776 103.152 169.803 103.198C169.829 103.244 169.842 103.297 169.84 103.35L169.89 103.81H169.47L169.4 103.23H169.21C169.124 103.35 169.015 103.452 168.89 103.53C168.754 103.605 168.604 103.652 168.45 103.67C168.305 103.7 168.155 103.7 168.01 103.67C167.877 103.629 167.755 103.561 167.65 103.47C167.537 103.376 167.447 103.256 167.39 103.12C167.319 102.976 167.275 102.82 167.26 102.66C167.25 102.557 167.25 102.453 167.26 102.35C167.222 102.257 167.172 102.169 167.11 102.09C167.083 102.053 167.046 102.024 167.004 102.006C166.962 101.989 166.915 101.983 166.87 101.99C166.829 101.993 166.791 102.01 166.76 102.037C166.73 102.064 166.708 102.1 166.7 102.14C166.684 102.253 166.684 102.367 166.7 102.48L166.78 103.14C166.837 103.433 166.791 103.737 166.65 104C166.6 104.106 166.528 104.199 166.438 104.273C166.348 104.348 166.243 104.401 166.13 104.43ZM166.05 103.99C166.108 103.985 166.163 103.966 166.212 103.934C166.261 103.903 166.301 103.86 166.33 103.81C166.383 103.644 166.383 103.466 166.33 103.3L166.22 102.3C166.179 102.218 166.114 102.151 166.033 102.108C165.953 102.065 165.861 102.048 165.77 102.06C165.705 102.067 165.642 102.087 165.585 102.12C165.528 102.153 165.479 102.197 165.44 102.25C165.349 102.411 165.32 102.6 165.36 102.78L165.41 103.22C165.417 103.437 165.482 103.648 165.6 103.83C165.646 103.903 165.715 103.96 165.797 103.99C165.878 104.021 165.967 104.024 166.05 104V103.99ZM167.71 102.72C167.718 102.896 167.789 103.063 167.91 103.19C167.973 103.246 168.049 103.286 168.13 103.309C168.212 103.331 168.297 103.335 168.38 103.32H168.55C168.635 103.318 168.718 103.296 168.792 103.256C168.867 103.216 168.931 103.159 168.98 103.09C169.074 102.942 169.107 102.762 169.07 102.59C169.066 102.416 168.995 102.251 168.87 102.13C168.808 102.072 168.733 102.029 168.651 102.006C168.569 101.984 168.483 101.982 168.4 102H168.23C168.146 102.002 168.064 102.022 167.99 102.06C167.915 102.098 167.85 102.153 167.8 102.22C167.716 102.372 167.684 102.548 167.71 102.72Z" fill="#6D47A8"/>
<path d="M169.26 106.36V105.85H169.68V106.36H170.31C170.499 106.344 170.687 106.397 170.84 106.51C170.91 106.572 170.965 106.65 171.002 106.736C171.038 106.823 171.054 106.916 171.05 107.01V107.48H170.63V106.82H169.71V107.48H169.29V106.81L166.62 106.93V106.45L169.26 106.36Z" fill="#6D47A8"/>
<path d="M166.58 109.33C166.585 109.133 166.629 108.94 166.71 108.76C166.784 108.59 166.897 108.439 167.04 108.32C167.191 108.197 167.364 108.105 167.55 108.05C167.766 107.979 167.993 107.945 168.22 107.95C168.448 107.956 168.674 107.997 168.89 108.07C169.077 108.134 169.25 108.232 169.4 108.36C169.539 108.484 169.649 108.638 169.72 108.81C169.795 108.99 169.829 109.185 169.82 109.38C169.824 109.573 169.783 109.765 169.7 109.94C169.622 110.111 169.506 110.261 169.36 110.38C169.209 110.504 169.036 110.599 168.85 110.66C168.632 110.722 168.407 110.752 168.18 110.75C167.952 110.752 167.725 110.715 167.51 110.64C167.325 110.574 167.155 110.472 167.01 110.34C166.87 110.221 166.76 110.07 166.69 109.9C166.613 109.72 166.576 109.526 166.58 109.33ZM167.01 109.33C167.001 109.447 167.017 109.564 167.056 109.675C167.096 109.785 167.159 109.886 167.24 109.97C167.338 110.06 167.453 110.129 167.579 110.174C167.704 110.218 167.837 110.237 167.97 110.23H168.41C168.543 110.241 168.677 110.226 168.804 110.185C168.931 110.144 169.049 110.077 169.15 109.99C169.312 109.821 169.402 109.595 169.4 109.36C169.407 109.125 169.325 108.897 169.17 108.72C169.072 108.63 168.957 108.561 168.831 108.516C168.706 108.472 168.573 108.453 168.44 108.46H168C167.869 108.449 167.737 108.463 167.612 108.502C167.487 108.542 167.371 108.606 167.27 108.69C167.183 108.772 167.114 108.871 167.068 108.982C167.021 109.092 166.998 109.21 167 109.33H167.01Z" fill="#6D47A8"/>
<path d="M166.61 111.48L169.71 111.63V112.11H169.14C169.313 112.189 169.458 112.32 169.553 112.485C169.648 112.65 169.689 112.84 169.67 113.03V113.21H169.19V112.93C169.221 112.717 169.182 112.499 169.08 112.31C169.047 112.242 168.996 112.185 168.932 112.144C168.869 112.104 168.795 112.082 168.72 112.08L166.62 111.97L166.61 111.48Z" fill="#6D47A8"/>
<path d="M170.79 115.56L170.73 116.03L168.9 115.81C169.054 115.898 169.182 116.026 169.27 116.18C169.36 116.355 169.392 116.555 169.36 116.75C169.347 116.89 169.305 117.025 169.236 117.148C169.167 117.27 169.073 117.376 168.96 117.46C168.693 117.629 168.371 117.69 168.06 117.63L166.06 117.4L166.12 116.92L168.01 117.15C168.56 117.21 168.87 117.02 168.92 116.55C168.93 116.457 168.93 116.363 168.92 116.27C168.91 116.182 168.883 116.097 168.84 116.02C168.804 115.941 168.749 115.873 168.68 115.82C168.606 115.768 168.52 115.737 168.43 115.73L166.29 115.47L166.35 114.99L170.79 115.56Z" fill="#6D47A8"/>
<path d="M165.67 119.48C165.705 119.285 165.776 119.099 165.88 118.93C165.988 118.782 166.124 118.656 166.28 118.56C166.453 118.463 166.643 118.398 166.84 118.37C167.062 118.331 167.288 118.331 167.51 118.37C167.733 118.405 167.949 118.476 168.15 118.58C168.325 118.67 168.478 118.796 168.6 118.95C168.718 119.093 168.803 119.26 168.85 119.44C168.891 119.629 168.895 119.824 168.861 120.015C168.826 120.205 168.755 120.387 168.65 120.55C168.551 120.7 168.417 120.823 168.26 120.91C168.103 121.002 167.93 121.063 167.75 121.09C167.548 121.125 167.342 121.125 167.14 121.09H166.92L167.31 118.9H167.17C167.045 118.876 166.916 118.876 166.79 118.9C166.674 118.922 166.564 118.967 166.467 119.032C166.369 119.098 166.285 119.182 166.22 119.28C166.154 119.391 166.107 119.513 166.08 119.64C166.029 119.813 166.029 119.997 166.08 120.17C166.144 120.338 166.26 120.481 166.41 120.58L166.1 120.87C165.91 120.731 165.764 120.54 165.68 120.32C165.593 120.047 165.59 119.755 165.67 119.48ZM168.46 119.98C168.49 119.858 168.49 119.731 168.46 119.61C168.434 119.502 168.386 119.4 168.32 119.31C168.248 119.215 168.16 119.134 168.06 119.07C167.951 119.009 167.833 118.965 167.71 118.94H167.66L167.36 120.63H167.43C167.662 120.684 167.907 120.644 168.11 120.52C168.203 120.464 168.282 120.389 168.343 120.299C168.403 120.209 168.443 120.107 168.46 120V119.98Z" fill="#6D47A8"/>
<path d="M164.82 123.72C164.832 123.649 164.859 123.581 164.898 123.521C164.938 123.461 164.99 123.409 165.05 123.37C165.173 123.316 165.308 123.299 165.44 123.32C165.281 123.219 165.161 123.068 165.1 122.89C165.05 122.7 165.05 122.5 165.1 122.31C165.148 122.038 165.298 121.795 165.52 121.63C165.626 121.559 165.747 121.513 165.873 121.494C165.999 121.475 166.128 121.484 166.25 121.52C166.379 121.542 166.5 121.597 166.602 121.679C166.703 121.761 166.782 121.868 166.83 121.99C166.928 122.316 166.928 122.664 166.83 122.99L166.69 123.59L166.98 123.66C167.069 123.687 167.163 123.696 167.256 123.685C167.349 123.675 167.439 123.646 167.52 123.6C167.599 123.542 167.666 123.469 167.716 123.385C167.765 123.301 167.798 123.207 167.81 123.11C167.861 122.951 167.861 122.779 167.81 122.62C167.753 122.475 167.668 122.342 167.56 122.23L167.89 122.02C168.04 122.151 168.15 122.32 168.21 122.51C168.276 122.742 168.276 122.988 168.21 123.22C168.157 123.533 167.99 123.815 167.74 124.01C167.621 124.089 167.486 124.142 167.344 124.164C167.203 124.187 167.058 124.178 166.92 124.14L165.27 123.74L165.18 124.09L164.77 123.99L164.82 123.72ZM165.47 122.45C165.457 122.56 165.457 122.67 165.47 122.78C165.477 122.876 165.497 122.97 165.53 123.06C165.562 123.139 165.61 123.21 165.67 123.27C165.726 123.324 165.795 123.362 165.87 123.38L166.37 123.5L166.51 122.88C166.568 122.677 166.568 122.463 166.51 122.26C166.489 122.193 166.45 122.134 166.397 122.088C166.344 122.042 166.279 122.011 166.21 122H166.09C166.025 121.979 165.956 121.975 165.889 121.989C165.823 122.003 165.761 122.035 165.71 122.08C165.592 122.174 165.507 122.304 165.47 122.45Z" fill="#6D47A8"/>
<path d="M164.44 125.09C164.45 125.019 164.476 124.952 164.518 124.895C164.56 124.837 164.616 124.791 164.68 124.76C164.74 124.735 164.805 124.722 164.87 124.722C164.935 124.722 165 124.735 165.06 124.76L168.85 125.83L168.72 126.29L164.86 125.2L164.73 125.64L164.32 125.53L164.44 125.09Z" fill="#6D47A8"/>
<path d="M163.93 126.76C163.945 126.691 163.975 126.627 164.019 126.572C164.062 126.516 164.117 126.471 164.18 126.44C164.241 126.413 164.308 126.399 164.375 126.399C164.442 126.399 164.509 126.413 164.57 126.44L166.63 127.09L166.78 126.6L167.19 126.73L167.1 127.01C167.085 127.045 167.077 127.082 167.077 127.12C167.077 127.158 167.085 127.195 167.1 127.23C167.146 127.292 167.214 127.335 167.29 127.35L167.84 127.52L167.71 127.94L166.89 127.68L166.69 128.32L166.28 128.19L166.48 127.55L164.35 126.87L164.16 127.47L163.75 127.34L163.93 126.76Z" fill="#6D47A8"/>
<path d="M167.67 129.61L167.51 130.06L165.78 129.42C165.911 129.539 166.007 129.691 166.06 129.86C166.107 130.054 166.089 130.257 166.01 130.44C165.969 130.575 165.899 130.699 165.803 130.803C165.708 130.906 165.591 130.988 165.46 131.04C165.165 131.158 164.835 131.158 164.54 131.04L162.68 130.35L162.85 129.9L164.63 130.56C165.16 130.76 165.5 130.63 165.63 130.2C165.664 130.11 165.684 130.016 165.69 129.92C165.705 129.834 165.705 129.746 165.69 129.66C165.67 129.576 165.632 129.498 165.58 129.43C165.515 129.364 165.436 129.313 165.35 129.28L163.35 128.53L163.52 128.08L167.67 129.61Z" fill="#6D47A8"/>
</g>
<defs>
<clipPath id="clip0_0_7749">
<rect width="218.47" height="218.47" fill="white"/>
</clipPath>
</defs>
</svg>
