<svg width="292" height="119" viewBox="0 0 292 119" fill="none" xmlns="http://www.w3.org/2000/svg">
<g clip-path="url(#clip0_0_7795)">
<path d="M267.11 0H24.87C11.1347 0 0 11.1347 0 24.87V93.78C0 107.515 11.1347 118.65 24.87 118.65H267.11C280.845 118.65 291.98 107.515 291.98 93.78V24.87C291.98 11.1347 280.845 0 267.11 0Z" fill="#FF8D18"/>
<path d="M80.35 0H24.87C11.1347 0 0 11.1347 0 24.87V93.78C0 107.515 11.1347 118.65 24.87 118.65H80.35C94.0853 118.65 105.22 107.515 105.22 93.78V24.87C105.22 11.1347 94.0853 0 80.35 0Z" fill="#3D2C1D"/>
<path d="M52.61 27.91C55.4434 27.8869 58.2665 28.2537 61 29C63.6252 29.7273 66.1459 30.7894 68.5 32.16C75.5727 36.3201 80.7374 43.0819 82.89 51C84.3968 56.4681 84.3968 62.2419 82.89 67.71C80.7002 75.5927 75.5285 82.3137 68.47 86.45C66.1233 87.8142 63.6133 88.8759 61 89.61C55.5267 91.1034 49.7533 91.1034 44.28 89.61C41.6557 88.8802 39.1353 87.8182 36.78 86.45C34.4623 85.0914 32.3282 83.4412 30.43 81.54C28.525 79.6414 26.8745 77.5036 25.52 75.18C24.1483 72.8252 23.083 70.3048 22.35 67.68C20.8565 62.2101 20.8565 56.4399 22.35 50.97C23.083 48.3452 24.1483 45.8248 25.52 43.47C28.2395 38.8159 32.1057 34.936 36.75 32.2C39.1012 30.8137 41.6222 29.7381 44.25 29C46.9738 28.2564 49.7866 27.8897 52.61 27.91ZM32.33 42.11C30.5779 44.1801 29.1485 46.503 28.09 49C27.0412 51.5081 26.3836 54.1623 26.14 56.87H35.73C35.82 55.06 35.98 53.26 36.21 51.49C36.44 49.72 36.77 47.96 37.21 46.21C36.2696 45.6986 35.382 45.0957 34.56 44.41C33.7204 43.7429 32.9709 42.9698 32.33 42.11ZM26.14 61.75C26.3836 64.4544 27.0413 67.1053 28.09 69.61C29.1457 72.1206 30.5752 74.4571 32.33 76.54C32.9589 75.6712 33.6947 74.885 34.52 74.2C35.3447 73.5208 36.232 72.9215 37.17 72.41C36.7383 70.67 36.4045 68.9073 36.17 67.13C35.94 65.36 35.79 63.56 35.7 61.75H26.14ZM38.62 41.43C39.0125 40.3062 39.4734 39.2075 40 38.14C40.5175 37.058 41.102 36.0093 41.75 35C39.6595 35.9376 37.7024 37.1481 35.93 38.6C36.1552 39.222 36.5214 39.7834 37 40.24C37.4939 40.6959 38.0373 41.0951 38.62 41.43ZM41.75 83.6C41.1014 82.6083 40.5169 81.5762 40 80.51C39.4734 79.4425 39.0125 78.3438 38.62 77.22C38.0373 77.5549 37.4939 77.9541 37 78.41C36.5277 78.8523 36.1619 79.3959 35.93 80C36.8114 80.723 37.7365 81.3909 38.7 82C39.6781 82.6038 40.6973 83.1385 41.75 83.6ZM50.19 49.6C48.75 49.48 47.33 49.31 45.92 49.09C44.495 48.8555 43.0882 48.5213 41.71 48.09C41.3799 49.5328 41.1229 50.9913 40.94 52.46C40.76 53.91 40.64 55.38 40.57 56.86H50.19V49.6ZM50.19 61.74H40.57C40.64 63.22 40.76 64.68 40.94 66.14C41.1229 67.6087 41.3799 69.0672 41.71 70.51C43.0882 70.0787 44.495 69.7445 45.92 69.51C47.33 69.28 48.75 69.13 50.19 69.04V61.74ZM50.19 33.35C49.2812 33.8295 48.457 34.4544 47.75 35.2C46.9966 35.9746 46.3263 36.8259 45.75 37.74C45.171 38.6651 44.6533 39.6272 44.2 40.62C43.76 41.62 43.36 42.54 43.03 43.44C44.1865 43.7988 45.3658 44.0795 46.56 44.28C47.75 44.48 48.95 44.63 50.16 44.72L50.19 33.35ZM50.19 73.91C48.9834 73.9963 47.7819 74.1431 46.59 74.35C45.3958 74.5505 44.2165 74.8312 43.06 75.19C43.39 76.08 43.79 77.03 44.23 78.01C44.6833 79.0028 45.201 79.9649 45.78 80.89C46.3589 81.8022 47.029 82.6533 47.78 83.43C48.487 84.1756 49.3112 84.8005 50.22 85.28L50.19 73.91ZM55 44.73C56.21 44.64 57.42 44.49 58.62 44.29C59.8175 44.0894 61.0001 43.8088 62.16 43.45C61.85 42.55 61.47 41.61 61.02 40.61C60.5687 39.6106 60.0404 38.6477 59.44 37.73C58.8482 36.8269 58.1791 35.9771 57.44 35.19C56.7335 34.4492 55.909 33.8308 55 33.36V44.73ZM55 49.61V56.9H64.62C64.55 55.42 64.43 53.95 64.25 52.5C64.0686 51.0304 63.8082 49.5716 63.47 48.13C62.0949 48.5602 60.6915 48.8944 59.27 49.13C57.89 49.32 56.47 49.49 55 49.61ZM55 69.08C56.44 69.17 57.86 69.32 59.27 69.55C60.6915 69.7856 62.0949 70.1198 63.47 70.55C63.8082 69.1084 64.0686 67.6496 64.25 66.18C64.43 64.72 64.55 63.26 64.62 61.78H55V69.08ZM55 85.29C55.9044 84.817 56.7225 84.195 57.42 83.45C58.1615 82.665 58.8309 81.8149 59.42 80.91C60.0415 79.9859 60.5866 79.0127 61.05 78C61.5 77 61.88 76 62.19 75.16C61.0301 74.8012 59.8475 74.5206 58.65 74.32C57.45 74.11 56.24 73.97 55.03 73.88L55 85.29ZM63.47 35C64.1129 35.9986 64.6972 37.0337 65.22 38.1C65.7467 39.1675 66.2075 40.2662 66.6 41.39C67.1696 41.0483 67.7053 40.6532 68.2 40.21C68.7012 39.7746 69.0861 39.2213 69.32 38.6C68.4283 37.8723 67.4896 37.2042 66.51 36.6C65.5244 36.0156 64.5098 35.4816 63.47 35ZM66.6 77.22C66.2075 78.3438 65.7467 79.4425 65.22 80.51C64.6993 81.5742 64.1149 82.6061 63.47 83.6C64.5007 83.1151 65.5024 82.5709 66.47 81.97C67.4497 81.3659 68.3884 80.6978 69.28 79.97C69.0421 79.3479 68.6579 78.7923 68.16 78.35C67.6761 77.9258 67.1539 77.5475 66.6 77.22ZM79.08 56.9C78.8205 54.1897 78.146 51.5354 77.08 49.03C76.0242 46.5225 74.5947 44.1893 72.84 42.11C72.2376 42.9969 71.5062 43.7889 70.67 44.46C69.834 45.1306 68.9406 45.7263 68 46.24C68.4317 47.9799 68.7655 49.7427 69 51.52C69.22 53.29 69.38 55.09 69.47 56.9H79.08ZM72.89 76.54C74.6448 74.4571 76.0743 72.1206 77.13 69.61C78.1959 67.1081 78.8704 64.4571 79.13 61.75H69.49C69.4 63.56 69.25 65.36 69.04 67.13C68.8151 68.9088 68.4812 70.6721 68.04 72.41C68.9806 72.9237 69.874 73.5194 70.71 74.19C71.5497 74.8603 72.2845 75.6524 72.89 76.54Z" fill="#FFF4D4"/>
<path d="M159 48.5L164.81 65.12L170.09 48.5H183.43L172.41 81.84H157.55L151.93 66.36H151.22L153.22 71.84L149.69 81.84H135L124 48.5H137.33L142.67 65.12L148.24 48.5H159Z" fill="#FFF4D4"/>
<path d="M179.22 68.46C179.218 65.661 180.046 62.9242 181.6 60.596C183.153 58.2677 185.363 56.4525 187.948 55.38C190.533 54.3075 193.379 54.0258 196.124 54.5707C198.87 55.1155 201.392 56.4624 203.372 58.4409C205.352 60.4194 206.701 62.9407 207.247 65.6858C207.794 68.4309 207.515 71.2765 206.444 73.8626C205.373 76.4488 203.56 78.6593 201.232 80.2146C198.905 81.7699 196.169 82.6 193.37 82.6C189.62 82.5973 186.024 81.1071 183.371 78.4562C180.718 75.8053 179.225 72.2103 179.22 68.46ZM190.94 68.46C190.946 68.9393 191.093 69.4061 191.364 69.8018C191.635 70.1974 192.016 70.5042 192.461 70.6835C192.905 70.8628 193.393 70.9067 193.862 70.8096C194.332 70.7125 194.762 70.4787 195.099 70.1377C195.435 69.7967 195.664 69.3637 195.755 68.8931C195.847 68.4226 195.797 67.9356 195.612 67.4933C195.427 67.051 195.116 66.6732 194.717 66.4075C194.318 66.1418 193.849 66 193.37 66C193.049 66.0013 192.731 66.066 192.435 66.1905C192.139 66.315 191.87 66.4967 191.644 66.7253C191.418 66.9538 191.24 67.2247 191.119 67.5224C190.998 67.8201 190.937 68.1387 190.94 68.46Z" fill="#FFF4D4"/>
<path d="M225.23 66.31H220.7C220.607 66.3026 220.514 66.3153 220.426 66.3473C220.338 66.3792 220.259 66.4296 220.192 66.4951C220.126 66.5605 220.074 66.6395 220.041 66.7266C220.008 66.8137 219.994 66.907 220 67V81.84H208.27V67.51C208.27 60.03 213.51 55.12 220.99 55.12H225.23V66.31Z" fill="#FFF4D4"/>
<path d="M237.85 48.46V81.84H226.13V48.46H237.85Z" fill="#FFF4D4"/>
<path d="M267 68.51C266.994 71.298 266.163 74.0218 264.611 76.3381C263.06 78.6544 260.857 80.4596 258.281 81.526C255.705 82.5924 252.871 82.8724 250.136 82.3306C247.401 81.7889 244.888 80.4496 242.913 78.4817C240.938 76.5138 239.59 74.0053 239.039 71.2724C238.488 68.5395 238.758 65.7045 239.815 63.1248C240.872 60.5451 242.67 58.3361 244.98 56.7764C247.291 55.2166 250.012 54.3758 252.8 54.36H254.56V66.08H252.8C252.319 66.08 251.85 66.2225 251.45 66.4895C251.05 66.7566 250.739 67.1361 250.555 67.5801C250.371 68.0241 250.323 68.5127 250.417 68.9841C250.51 69.4555 250.742 69.8884 251.082 70.2283C251.422 70.5681 251.855 70.7996 252.326 70.8933C252.797 70.9871 253.286 70.939 253.73 70.755C254.174 70.5711 254.553 70.2597 254.82 69.8601C255.087 69.4604 255.23 68.9906 255.23 68.51V48.51H267V68.51Z" fill="#FFF4D4"/>
<path d="M169.39 32.06V31.21H175.31V32.06H172.82V39.06H171.87V32.06H169.39Z" fill="#FFF4D4"/>
<path d="M176 39.1V33.18H176.88V34.08H177C177.106 33.7813 177.311 33.5274 177.58 33.36C177.878 33.1706 178.227 33.0764 178.58 33.09H179V34H178.79H178.45C178.182 33.9955 177.918 34.0573 177.68 34.18C177.463 34.2938 177.28 34.4628 177.15 34.67C177.016 34.8862 176.947 35.1359 176.95 35.39V39.1H176Z" fill="#FFF4D4"/>
<path d="M181.83 39.24C181.486 39.2408 181.145 39.1692 180.83 39.03C180.521 38.8923 180.261 38.6654 180.083 38.3784C179.905 38.0914 179.817 37.7576 179.83 37.42C179.814 37.1329 179.884 36.8475 180.03 36.6C180.157 36.3876 180.341 36.2145 180.56 36.1C180.795 35.9785 181.043 35.8846 181.3 35.82C181.57 35.76 181.85 35.72 182.12 35.68L183 35.57C183.17 35.564 183.337 35.5232 183.49 35.45C183.544 35.4194 183.588 35.3738 183.616 35.3187C183.644 35.2637 183.656 35.2016 183.65 35.14C183.669 34.9734 183.649 34.8047 183.592 34.6471C183.535 34.4894 183.443 34.3469 183.322 34.2308C183.201 34.1147 183.055 34.0281 182.895 33.9777C182.735 33.9272 182.566 33.9143 182.4 33.94C182.045 33.9233 181.695 34.0215 181.4 34.22C181.181 34.379 181.002 34.5881 180.88 34.83L180.02 34.52C180.149 34.193 180.359 33.904 180.63 33.68C180.882 33.4832 181.171 33.3403 181.48 33.26C181.777 33.1815 182.083 33.1411 182.39 33.14C182.611 33.1428 182.832 33.1628 183.05 33.2C183.304 33.2537 183.547 33.3483 183.77 33.48C184.014 33.6367 184.214 33.8537 184.35 34.11C184.517 34.4589 184.596 34.8435 184.58 35.23V39.13H183.67V38.33C183.594 38.4854 183.489 38.6246 183.36 38.74C183.197 38.9026 183.003 39.0317 182.79 39.12C182.482 39.2288 182.155 39.2698 181.83 39.24ZM181.96 38.42C182.28 38.4298 182.596 38.3575 182.88 38.21C183.113 38.0804 183.306 37.8904 183.44 37.66C183.562 37.4467 183.627 37.2057 183.63 36.96V36.13C183.559 36.1919 183.473 36.2334 183.38 36.25C183.232 36.2924 183.082 36.3257 182.93 36.35L182.44 36.42H182.06C181.836 36.448 181.616 36.4948 181.4 36.56C181.209 36.6183 181.037 36.7251 180.9 36.87C180.826 36.9629 180.771 37.0698 180.74 37.1843C180.708 37.2989 180.7 37.4186 180.716 37.5363C180.732 37.6541 180.771 37.7673 180.832 37.8694C180.893 37.9714 180.974 38.0601 181.07 38.13C181.34 38.3254 181.667 38.4273 182 38.42H181.96Z" fill="#FFF4D4"/>
<path d="M190.83 33.18L188.64 39.1H187.71L185.52 33.18H186.52L188.15 37.9H188.22L189.85 33.18H190.83Z" fill="#FFF4D4"/>
<path d="M194.29 39.23C193.774 39.2427 193.265 39.1111 192.82 38.85C192.407 38.5922 192.077 38.2207 191.87 37.78C191.64 37.2823 191.527 36.7383 191.54 36.19C191.529 35.6355 191.642 35.0855 191.87 34.58C192.073 34.1401 192.395 33.766 192.8 33.5C193.218 33.2353 193.705 33.0997 194.2 33.11C194.513 33.1118 194.823 33.1624 195.12 33.26C195.426 33.3663 195.705 33.5368 195.94 33.76C196.2 34.0169 196.402 34.3275 196.53 34.67C196.686 35.1199 196.761 35.594 196.75 36.07V36.45H192.18V35.67H195.82C195.824 35.3585 195.756 35.0503 195.62 34.77C195.494 34.5154 195.301 34.3007 195.06 34.15C194.801 33.9935 194.503 33.9138 194.2 33.92C193.867 33.9129 193.539 34.0071 193.26 34.19C193.002 34.3662 192.795 34.6078 192.66 34.89C192.516 35.1717 192.44 35.4835 192.44 35.8V36.33C192.428 36.7205 192.51 37.1082 192.68 37.46C192.819 37.7578 193.046 38.0057 193.33 38.17C193.634 38.3419 193.981 38.425 194.33 38.41C194.55 38.4101 194.77 38.3763 194.98 38.31C195.17 38.2445 195.344 38.1388 195.49 38C195.636 37.8543 195.746 37.6761 195.81 37.48L196.69 37.73C196.601 38.0228 196.443 38.2902 196.23 38.51C196.001 38.7426 195.725 38.9234 195.42 39.04C195.059 39.1737 194.675 39.2382 194.29 39.23Z" fill="#FFF4D4"/>
<path d="M199 31.21V39.1H198.09V31.21H199Z" fill="#FFF4D4"/>
<path d="M204.2 39.1H203.2L206.1 31.21H207.1L210 39.1H209L206.64 32.46H206.58L204.2 39.1ZM204.57 36.02H208.57V36.87H204.57V36.02Z" fill="#FFF4D4"/>
<path d="M211.09 39.1V33.18H212V34.08C212.113 33.7824 212.321 33.5298 212.59 33.36C212.874 33.1796 213.204 33.0858 213.54 33.09H214.02V34H213.81H213.47C213.202 33.9942 212.937 34.0561 212.7 34.18C212.481 34.2909 212.298 34.4606 212.17 34.67C212.036 34.8862 211.967 35.1359 211.97 35.39V39.1H211.09Z" fill="#FFF4D4"/>
<path d="M215.13 39.1V33.18H216V34.08H216.06C216.17 33.7805 216.378 33.5269 216.65 33.36C216.948 33.17 217.297 33.0758 217.65 33.09H218.13V34H217.92H217.58C217.312 33.9942 217.047 34.0561 216.81 34.18C216.589 34.2882 216.405 34.4585 216.28 34.67C216.146 34.8862 216.077 35.1359 216.08 35.39V39.1H215.13Z" fill="#FFF4D4"/>
<path d="M221.39 39.23C220.892 39.2405 220.402 39.1049 219.98 38.84C219.575 38.5797 219.25 38.213 219.04 37.78C218.822 37.2712 218.71 36.7235 218.71 36.17C218.71 35.6165 218.822 35.0688 219.04 34.56C219.247 34.1225 219.573 33.7518 219.98 33.49C220.403 33.2286 220.893 33.0965 221.39 33.11C221.884 33.0961 222.371 33.2283 222.79 33.49C223.202 33.7462 223.529 34.1184 223.73 34.56C223.953 35.0674 224.068 35.6157 224.068 36.17C224.068 36.7243 223.953 37.2726 223.73 37.78C223.526 38.2169 223.199 38.5851 222.79 38.84C222.372 39.1047 221.885 39.2403 221.39 39.23ZM221.39 38.41C221.749 38.421 222.1 38.3119 222.39 38.1C222.654 37.8847 222.855 37.6011 222.97 37.28C223.223 36.5651 223.223 35.7849 222.97 35.07C222.858 34.7445 222.657 34.457 222.39 34.24C222.104 34.021 221.75 33.9079 221.39 33.92C221.029 33.9062 220.676 34.0195 220.39 34.24C220.123 34.457 219.922 34.7445 219.81 35.07C219.557 35.7849 219.557 36.5651 219.81 37.28C219.925 37.6011 220.125 37.8847 220.39 38.1C220.679 38.3133 221.031 38.4225 221.39 38.41Z" fill="#FFF4D4"/>
<path d="M229.19 36.68V33.18H230.1V39.1H229.19V38.1H229.13C228.985 38.4068 228.761 38.6692 228.48 38.86C228.154 39.0824 227.765 39.1945 227.37 39.18C227.02 39.1894 226.674 39.1029 226.37 38.93C226.071 38.7606 225.834 38.5017 225.69 38.19C225.516 37.7968 225.434 37.3694 225.45 36.94V33.18H226.36V36.88C226.352 37.2464 226.48 37.6027 226.72 37.88C226.84 38.0047 226.985 38.103 227.145 38.1684C227.305 38.2338 227.477 38.265 227.65 38.26C227.906 38.2564 228.157 38.1908 228.381 38.0689C228.606 37.9469 228.798 37.7723 228.94 37.56C229.106 37.2965 229.192 36.9912 229.19 36.68Z" fill="#FFF4D4"/>
<path d="M232.67 35.54V39.1H231.76V33.18H232.64V34.11H232.72C232.859 33.8133 233.077 33.5607 233.35 33.38C233.68 33.1877 234.058 33.094 234.44 33.11C234.808 33.103 235.171 33.1853 235.5 33.35C235.802 33.5208 236.046 33.7787 236.2 34.09C236.376 34.4826 236.461 34.9098 236.45 35.34V39.1H235.54V35.4C235.552 35.2045 235.526 35.0085 235.463 34.8231C235.399 34.6378 235.3 34.4668 235.17 34.32C235.044 34.183 234.888 34.076 234.715 34.0068C234.542 33.9376 234.356 33.9079 234.17 33.92C233.898 33.919 233.631 33.9842 233.39 34.11C233.166 34.2407 232.982 34.4311 232.86 34.66C232.725 34.9331 232.659 35.2354 232.67 35.54Z" fill="#FFF4D4"/>
<path d="M240.35 39.23C239.885 39.2375 239.429 39.1051 239.04 38.85C238.653 38.5839 238.345 38.2175 238.15 37.79C237.928 37.2758 237.819 36.7199 237.83 36.16C237.819 35.6033 237.928 35.0507 238.15 34.54C238.342 34.1108 238.651 33.7437 239.04 33.48C239.433 33.2276 239.893 33.0988 240.36 33.11C240.678 33.0931 240.995 33.1586 241.28 33.3C241.479 33.4051 241.653 33.5518 241.79 33.73L242.07 34.12H242.15V31.21H243.06V39.1H242.18V38.19H242.07C242 38.3 241.91 38.44 241.79 38.6C241.645 38.7785 241.465 38.9249 241.26 39.03C240.979 39.1741 240.666 39.243 240.35 39.23ZM240.47 38.41C240.8 38.418 241.124 38.316 241.39 38.12C241.657 37.9158 241.859 37.6376 241.97 37.32C242.105 36.9416 242.169 36.5416 242.16 36.14C242.177 35.7534 242.122 35.367 242 35C241.886 34.6922 241.689 34.4221 241.43 34.22C241.158 34.0294 240.832 33.9313 240.5 33.94C240.141 33.9161 239.786 34.0227 239.5 34.24C239.233 34.4442 239.031 34.7223 238.92 35.04C238.792 35.3995 238.728 35.7785 238.73 36.16C238.726 36.5523 238.794 36.942 238.93 37.31C239.048 37.6271 239.244 37.9093 239.5 38.13C239.782 38.3304 240.124 38.4291 240.47 38.41Z" fill="#FFF4D4"/>
<path d="M247.59 32.06V31.21H253.51V32.06H251V39.06H250V32.06H247.59Z" fill="#FFF4D4"/>
<path d="M255.77 35.54V39.1H254.86V31.21H255.77V34.11H255.85C255.983 33.8097 256.202 33.5556 256.48 33.38C256.816 33.184 257.202 33.0902 257.59 33.11C257.958 33.1005 258.322 33.183 258.65 33.35C258.959 33.5107 259.208 33.7667 259.36 34.08C259.542 34.4744 259.627 34.9061 259.61 35.34V39.1H258.7V35.4C258.725 35.0038 258.596 34.6134 258.34 34.31C258.21 34.1781 258.054 34.0751 257.882 34.0079C257.709 33.9406 257.525 33.9107 257.34 33.92C257.062 33.9189 256.788 33.984 256.54 34.11C256.308 34.2373 256.117 34.4281 255.99 34.66C255.84 34.9287 255.764 35.2324 255.77 35.54Z" fill="#FFF4D4"/>
<path d="M263.76 39.23C263.241 39.2414 262.729 39.11 262.28 38.85C261.867 38.5922 261.537 38.2207 261.33 37.78C261.1 37.2823 260.987 36.7383 261 36.19C260.989 35.6355 261.102 35.0855 261.33 34.58C261.533 34.1401 261.855 33.766 262.26 33.5C262.681 33.234 263.172 33.0983 263.67 33.11C263.979 33.111 264.287 33.1616 264.58 33.26C264.886 33.3663 265.165 33.5368 265.4 33.76C265.664 34.0141 265.866 34.3255 265.99 34.67C266.146 35.1199 266.221 35.594 266.21 36.07V36.45H261.65V35.67H265.28C265.289 35.358 265.221 35.0486 265.08 34.77C264.954 34.5154 264.761 34.3007 264.52 34.15C264.25 33.9868 263.941 33.9005 263.625 33.9005C263.31 33.9005 263 33.9868 262.73 34.15C262.466 34.323 262.255 34.5652 262.12 34.85C261.979 35.1325 261.907 35.4444 261.91 35.76V36.29C261.9 36.6793 261.978 37.0657 262.14 37.42C262.282 37.7157 262.508 37.9627 262.79 38.13C263.095 38.2999 263.441 38.3829 263.79 38.37C264.01 38.3693 264.23 38.3356 264.44 38.27C264.627 38.2044 264.798 38.0986 264.94 37.96C265.086 37.8123 265.198 37.635 265.27 37.44L266.15 37.69C266.055 37.9827 265.895 38.2496 265.68 38.47C265.451 38.7026 265.175 38.8834 264.87 39C264.518 39.1451 264.141 39.2231 263.76 39.23Z" fill="#FFF4D4"/>
</g>
<defs>
<clipPath id="clip0_0_7795">
<rect width="291.98" height="118.65" fill="white"/>
</clipPath>
</defs>
</svg>
