<svg width="237" height="113" viewBox="0 0 237 113" fill="none" xmlns="http://www.w3.org/2000/svg">
<g clip-path="url(#clip0_0_7823)">
<path d="M179.99 0H56.17C25.1482 0 0 25.1482 0 56.17C0 87.1918 25.1482 112.34 56.17 112.34H179.99C211.012 112.34 236.16 87.1918 236.16 56.17C236.16 25.1482 211.012 0 179.99 0Z" fill="#6E3BC8"/>
<path d="M118.08 89.63C136.559 89.63 151.54 74.6494 151.54 56.17C151.54 37.6905 136.559 22.71 118.08 22.71C99.6006 22.71 84.62 37.6905 84.62 56.17C84.62 74.6494 99.6006 89.63 118.08 89.63Z" fill="#F5F5F5"/>
<path d="M185 56.16C185.001 60.5549 184.137 64.9069 182.456 68.9677C180.775 73.0284 178.311 76.7181 175.203 79.8262C172.096 82.9344 168.407 85.3999 164.347 87.082C160.287 88.7642 155.935 89.63 151.54 89.63V22.71C160.412 22.71 168.922 26.2339 175.196 32.5067C181.471 38.7795 184.997 47.2876 185 56.16Z" fill="#F5F5F5"/>
<path d="M218.47 56.16C218.47 65.0368 214.944 73.55 208.667 79.8269C202.39 86.1037 193.877 89.63 185 89.63V22.71C193.873 22.71 202.384 26.2335 208.66 32.5061C214.936 38.7786 218.465 47.2867 218.47 56.16Z" fill="#F5F5F5"/>
<path d="M51.15 56.17C51.1526 47.2949 54.6801 38.7843 60.9567 32.5096C67.2332 26.2349 75.7449 22.71 84.62 22.71V89.63C75.7449 89.63 67.2332 86.1051 60.9567 79.8304C54.6801 73.5557 51.1526 65.0451 51.15 56.17Z" fill="#F5F5F5"/>
<path d="M17.69 56.17C17.6927 47.2967 21.2187 38.7875 27.4931 32.5131C33.7675 26.2387 42.2767 22.7126 51.15 22.71V89.63C42.2767 89.6273 33.7675 86.1012 27.4931 79.8269C21.2187 73.5525 17.6927 65.0433 17.69 56.17Z" fill="#F5F5F5"/>
</g>
<defs>
<clipPath id="clip0_0_7823">
<rect width="236.16" height="112.34" fill="white"/>
</clipPath>
</defs>
</svg>
