<svg width="260" height="97" viewBox="0 0 260 97" fill="none" xmlns="http://www.w3.org/2000/svg">
<g clip-path="url(#clip0_0_7833)">
<path d="M233.73 10.92H55.25V79.06H233.73V10.92Z" fill="#6E3BC8"/>
<path d="M10 10.45H25.32V29.78H29.87V41.23H10V10.45Z" fill="#6E3BC8"/>
<path d="M48 10H51.7C57.0333 10 60.9233 11.2633 63.37 13.79C65.8167 16.3167 67.0333 20.28 67.02 25.68C67.02 31.08 65.7967 35.08 63.35 37.68C60.9033 40.28 57.0333 41.61 51.74 41.67H48C42.6667 41.67 38.7767 40.3567 36.33 37.73C33.8833 35.1033 32.65 31.1033 32.63 25.73C32.63 20.33 33.8567 16.3667 36.31 13.84C38.7633 11.3133 42.66 10.0333 48 10ZM48.58 24.66V29.82C48.5641 30.1643 48.6824 30.5013 48.91 30.76C49.0249 30.8783 49.1638 30.9706 49.3173 31.031C49.4707 31.0913 49.6353 31.1183 49.8 31.11C49.972 31.1163 50.1435 31.0886 50.3048 31.0285C50.4661 30.9685 50.614 30.8772 50.74 30.76C50.866 30.6389 50.965 30.4926 51.0305 30.3306C51.096 30.1686 51.1265 29.9946 51.12 29.82V24.66C51.1233 24.4917 51.0912 24.3246 51.0257 24.1696C50.9603 24.0145 50.8629 23.875 50.74 23.76C50.4832 23.5269 50.1467 23.4016 49.8 23.41C49.6356 23.4042 49.4717 23.4323 49.3186 23.4925C49.1655 23.5527 49.0264 23.6438 48.91 23.76C48.702 24.012 48.5983 24.334 48.62 24.66H48.58Z" fill="#6E3BC8"/>
<path d="M84.25 28.49H85.19L86.19 10.49H100.09L94.59 41.23H73.7L68 10.45H83.1L84.25 28.49Z" fill="#6E3BC8"/>
<path d="M103 10.45H128V23.45H118.38V25.23H128V28H118.38V29.78H128.38V41.23H103V10.45Z" fill="#6E3BC8"/>
<path d="M170.22 41.23H153.52V34L151.78 33.25C151.234 32.9703 150.706 32.6563 150.2 32.31C149.569 31.931 149.018 31.4315 148.58 30.84C147.544 29.3799 146.896 27.6797 146.7 25.9L144.79 10.49H160.56L161.67 25.72H162.67L163.61 10.49H179L177 25.86C176.802 27.6378 176.159 29.3369 175.13 30.8C174.685 31.3893 174.132 31.8882 173.5 32.27C172.995 32.6185 172.467 32.9325 171.92 33.21L170.18 33.96L170.22 41.23Z" fill="#6E3BC8"/>
<path d="M195.88 10H199.58C204.913 10 208.803 11.2633 211.25 13.79C213.697 16.3167 214.913 20.28 214.9 25.68C214.9 31.08 213.677 35.08 211.23 37.68C208.783 40.28 204.9 41.5933 199.58 41.62H195.88C190.547 41.62 186.657 40.3067 184.21 37.68C181.763 35.0533 180.53 31.0533 180.51 25.68C180.51 20.28 181.737 16.3167 184.19 13.79C186.643 11.2633 190.54 10 195.88 10ZM196.46 24.66V29.82C196.444 30.1643 196.562 30.5013 196.79 30.76C196.905 30.8783 197.044 30.9706 197.197 31.031C197.351 31.0913 197.515 31.1183 197.68 31.11C197.852 31.1174 198.024 31.0902 198.185 31.0301C198.347 30.97 198.495 30.8782 198.62 30.76C198.746 30.6389 198.845 30.4926 198.91 30.3306C198.976 30.1686 199.006 29.9946 199 29.82V24.66C199.003 24.4917 198.971 24.3246 198.906 24.1696C198.84 24.0145 198.743 23.875 198.62 23.76C198.364 23.5251 198.027 23.3995 197.68 23.41C197.516 23.4042 197.352 23.4323 197.199 23.4925C197.046 23.5527 196.906 23.6438 196.79 23.76C196.568 24.0059 196.449 24.3286 196.46 24.66Z" fill="#6E3BC8"/>
<path d="M235 10.45H249.66V27.55C249.66 32.3633 248.433 35.92 245.98 38.22C243.527 40.52 239.63 41.67 234.29 41.67H233.13C227.797 41.67 223.913 40.5133 221.48 38.2C219.047 35.8867 217.82 32.3367 217.8 27.55V10.45H232.41V29.2C232.402 29.3677 232.429 29.5352 232.489 29.6918C232.55 29.8485 232.642 29.9909 232.76 30.11C233.01 30.3391 233.341 30.4611 233.68 30.45C233.851 30.4547 234.022 30.4253 234.181 30.3635C234.341 30.3017 234.487 30.2087 234.61 30.09C234.732 29.9766 234.829 29.8387 234.895 29.6854C234.96 29.5321 234.993 29.3667 234.99 29.2L235 10.45Z" fill="#6E3BC8"/>
<path d="M30.54 68.43V55.43H58V68.43H52.54V86.25H35.88V68.43H30.54Z" fill="#6E3BC8"/>
<path d="M61.49 86.25V55.47H76.82V86.25H61.49Z" fill="#6E3BC8"/>
<path d="M80.33 55.47H95.66V74.8H100.2V86.25H80.33V55.47Z" fill="#6E3BC8"/>
<path d="M103.68 55.47H119V74.8H123.54V86.25H103.68V55.47Z" fill="#6E3BC8"/>
<path d="M141 69.81V55.47H166V68.61L159.41 86.25H141.14L147.73 69.81H141Z" fill="#6E3BC8"/>
<path d="M168.84 70.7C168.84 65.3266 170.037 61.3867 172.43 58.88C174.823 56.3733 178.58 55.1167 183.7 55.11C188.82 55.11 192.613 56.3566 195.08 58.85C197.547 61.3433 198.78 65.28 198.78 70.66C198.78 76.0333 197.56 80.0333 195.12 82.66C192.68 85.2867 188.893 86.62 183.76 86.66C178.633 86.66 174.863 85.3467 172.45 82.72C170.037 80.0933 168.833 76.0866 168.84 70.7ZM182.25 71.91H185.19C185.522 71.91 185.839 71.7783 186.074 71.5439C186.308 71.3094 186.44 70.9915 186.44 70.66C186.44 70.3285 186.308 70.0105 186.074 69.7761C185.839 69.5417 185.522 69.41 185.19 69.41H182.25C181.918 69.41 181.601 69.5417 181.366 69.7761C181.132 70.0105 181 70.3285 181 70.66C181 70.9915 181.132 71.3094 181.366 71.5439C181.601 71.7783 181.918 71.91 182.25 71.91Z" fill="#6E3BC8"/>
<path d="M202.56 67.76L201.89 53.24H211.34L210.71 67.76H202.56Z" fill="#6E3BC8"/>
<path d="M229.64 55C231.928 54.9911 234.214 55.1481 236.48 55.47C238.03 55.6674 239.559 56.002 241.05 56.47L242.38 56.96V69.68C239.24 68.4367 235.874 67.8645 232.5 68V69.16C236.36 69.46 239.13 70.23 240.83 71.47C241.684 72.1329 242.362 72.9961 242.803 73.9834C243.245 74.9706 243.436 76.0513 243.36 77.13C243.405 78.5166 243.088 79.8909 242.441 81.1182C241.794 82.3454 240.839 83.3833 239.67 84.13C237.197 85.79 233.393 86.62 228.26 86.62C225.654 86.6428 223.05 86.4723 220.47 86.11C218.923 85.9366 217.398 85.6014 215.92 85.11L214.72 84.58V73.55C214.99 73.67 215.39 73.84 215.92 74.04C217.094 74.4007 218.295 74.6715 219.51 74.85C221.492 75.1841 223.5 75.348 225.51 75.34V74.27C221.89 74.0033 219.16 73.23 217.32 71.95C215.47 70.67 214.55 68.45 214.55 65.27C214.504 63.8012 214.826 62.3441 215.488 61.0322C216.15 59.7202 217.131 58.5952 218.34 57.76C220.85 55.94 224.63 55 229.64 55Z" fill="#6E3BC8"/>
<path d="M0 51.23V0.450012H35.32V19.78H39.87V51.23H0Z" fill="#6E3BC8"/>
<path d="M48 51.67C39.83 51.67 33.45 49.28 29 44.57C24.76 40.04 22.6 33.68 22.6 25.68C22.6 17.68 24.79 11.26 29.1 6.82C33.41 2.38 39.91 0 48 0H51.7C59.87 0 66.22 2.3 70.6 6.84C74.98 11.38 77.06 17.62 77.06 25.68C77.06 33.74 74.92 40 70.7 44.55C66.29 49.27 59.92 51.67 51.7 51.67H48Z" fill="#6E3BC8"/>
<path d="M65.38 51.23L55.97 0.450012H112.07L102.95 51.23H65.38Z" fill="#6E3BC8"/>
<path d="M92.96 51.23V0.450012H137.91V19.78H138.31V51.23H92.96Z" fill="#6E3BC8"/>
<path d="M143.52 51.23V39.78C142.357 38.8942 141.329 37.8431 140.47 36.66C138.477 33.8655 137.216 30.6169 136.8 27.21L133.47 0.450012H190.27L187 27.21C186.58 30.6126 185.318 33.857 183.33 36.65C182.468 37.8367 181.437 38.8912 180.27 39.78V51.23H143.52Z" fill="#6E3BC8"/>
<path d="M195.88 51.67C187.71 51.67 181.33 49.28 176.88 44.57C172.63 40.04 170.47 33.68 170.47 25.68C170.47 17.68 172.7 11.26 177 6.82C181.3 2.38 187.75 0 195.88 0H199.58C207.71 0 214.06 2.3 218.44 6.84C222.82 11.38 224.9 17.62 224.9 25.68C224.9 33.74 222.76 40 218.54 44.55C214.14 49.27 207.76 51.67 199.54 51.67H195.88Z" fill="#6E3BC8"/>
<path d="M233.12 51.67C225.19 51.67 218.96 49.58 214.6 45.46C210.09 41.19 207.8 35.17 207.8 27.55V0.450012H259.65V27.55C259.65 35.21 257.35 41.25 252.82 45.55C248.46 49.64 242.23 51.71 234.28 51.71L233.12 51.67Z" fill="#6E3BC8"/>
<path d="M25.88 96.25V78.43H20.54V45.47H67.97V78.43H62.54V96.25H25.88Z" fill="#6E3BC8"/>
<path d="M86.81 45.47H51.49V96.25H86.81V45.47Z" fill="#6E3BC8"/>
<path d="M70.33 96.25V45.47H105.66V64.8H110.2V96.25H70.33Z" fill="#6E3BC8"/>
<path d="M93.68 96.25V45.47H129V64.8H133.54V96.25H93.68Z" fill="#6E3BC8"/>
<path d="M126.35 96.25L132.94 79.81H131V45.47H175.95V70.42L166.29 96.25H126.35Z" fill="#6E3BC8"/>
<path d="M183.76 96.65C175.76 96.65 169.44 94.23 165.08 89.46C160.94 84.94 158.84 78.63 158.84 70.7C158.84 62.77 161 56.4 165.19 52C169.38 47.6 175.75 45.13 183.7 45.13C191.65 45.13 197.79 47.39 202.19 51.85C206.59 56.31 208.78 62.6 208.78 70.68C208.78 78.76 206.66 84.95 202.48 89.48C198.08 94.23 191.79 96.65 183.76 96.65Z" fill="#6E3BC8"/>
<path d="M193.01 77.76L191.42 43.24H221.78L220.29 77.76H193.01Z" fill="#6E3BC8"/>
<path d="M228.26 96.69C225.152 96.7106 222.047 96.5034 218.97 96.07C216.587 95.7969 214.246 95.2327 212 94.39L204.7 91.15V68.15C204.582 67.1778 204.522 66.1994 204.52 65.22C204.519 64.307 204.579 63.395 204.7 62.49V58.15L205.7 58.58C207.004 54.9857 209.373 51.8741 212.49 49.66C216.8 46.54 222.42 45.02 229.66 45.02C232.434 45.0127 235.204 45.2066 237.95 45.6C240.136 45.8606 242.293 46.3294 244.39 47L252.39 49.94V71.11C253.055 73.0405 253.393 75.0683 253.39 77.11C253.396 79.1977 253.058 81.2722 252.39 83.25V85.19L251.74 84.89C250.335 87.9642 248.093 90.5807 245.27 92.44C241.06 95.32 235.51 96.69 228.26 96.69Z" fill="#6E3BC8"/>
<path d="M6 45.23V6.45001H29.32V25.78H33.87V45.23H6Z" fill="#DBC2FF"/>
<path d="M48 45.67C41.56 45.67 36.65 43.92 33.41 40.46C30.17 37 28.63 32.11 28.63 25.68C28.63 19.25 30.29 14.29 33.48 11C36.67 7.71 41.6 6 48 6H51.7C58.14 6 63.04 7.68 66.25 11C69.46 14.32 71.02 19.22 71.02 25.67C71.02 32.12 69.42 37.07 66.27 40.45C63.12 43.83 58.14 45.66 51.7 45.66L48 45.67Z" fill="#DBC2FF"/>
<path d="M70.37 45.23L63.19 6.45001H104.89L97.94 45.23H70.37Z" fill="#DBC2FF"/>
<path d="M98.96 45.23V6.45001H131.91V25.78H132.31V45.23H98.96Z" fill="#DBC2FF"/>
<path d="M149.52 45.23V36.54C149.11 36.32 148.62 36.02 148.01 35.62C146.957 34.9644 146.041 34.1122 145.31 33.11C143.907 31.1226 143.024 28.816 142.74 26.4L140.26 6.45001H183.48L181 26.35C180.717 28.8081 179.815 31.1544 178.38 33.17C177.656 34.147 176.753 34.9783 175.72 35.62C175.11 36.02 174.63 36.32 174.21 36.54V45.23H149.52Z" fill="#DBC2FF"/>
<path d="M195.88 45.67C189.44 45.67 184.53 43.92 181.29 40.46C178.05 37 176.51 32.11 176.51 25.68C176.51 19.25 178.13 14.29 181.32 11C184.51 7.71 189.44 6 195.88 6H199.58C206.02 6 210.92 7.68 214.13 11C217.34 14.32 218.9 19.22 218.9 25.67C218.9 32.12 217.3 37.07 214.15 40.45C211 43.83 206.02 45.66 199.58 45.66L195.88 45.67Z" fill="#DBC2FF"/>
<path d="M233.12 45.67C226.77 45.67 221.93 44.13 218.72 41.1C215.51 38.07 213.8 33.45 213.8 27.55V6.45001H253.65V27.55C253.65 33.49 251.98 38.06 248.71 41.13C245.44 44.2 240.65 45.67 234.28 45.67H233.12Z" fill="#DBC2FF"/>
<path d="M31.88 90.25V72.43H26.54V51.47H61.97V72.43H56.54V90.25H31.88Z" fill="#DBC2FF"/>
<path d="M80.81 51.47H57.49V90.25H80.81V51.47Z" fill="#DBC2FF"/>
<path d="M76.33 90.25V51.47H99.66V70.8H104.2V90.25H76.33Z" fill="#DBC2FF"/>
<path d="M99.68 90.25V51.47H123V70.8H127.54V90.25H99.68Z" fill="#DBC2FF"/>
<path d="M135.22 90.25L141.81 73.81H137V51.47H169.95V69.33L162.13 90.25H135.22Z" fill="#DBC2FF"/>
<path d="M183.76 90.65C177.48 90.65 172.68 88.89 169.5 85.41C166.32 81.93 164.84 77.08 164.84 70.7C164.84 64.32 166.42 59.38 169.53 56.12C172.64 52.86 177.46 51.12 183.7 51.12C189.94 51.12 194.7 52.78 197.92 56.05C201.14 59.32 202.78 64.23 202.78 70.67C202.78 77.11 201.19 82 198.07 85.4C194.95 88.8 190 90.65 183.76 90.65Z" fill="#DBC2FF"/>
<path d="M198.74 71.76L197.71 49.24H215.51L214.54 71.76H198.74Z" fill="#DBC2FF"/>
<path d="M228.26 90.69C225.454 90.7137 222.649 90.5299 219.87 90.14C217.99 89.9297 216.14 89.5001 214.36 88.86L210.72 87.25V67.8C210.601 66.962 210.54 66.1165 210.54 65.27C210.497 63.1675 210.973 61.0868 211.925 59.2119C212.877 57.3369 214.277 55.7255 216 54.52C219.26 52.17 223.73 51.02 229.66 51.02C232.142 51.0148 234.622 51.1852 237.08 51.53C238.885 51.7465 240.666 52.1315 242.4 52.68L246.4 54.15V72.23C247.519 74.9051 247.685 77.8831 246.871 80.6662C246.058 83.4492 244.313 85.8687 241.93 87.52C238.73 89.66 234.27 90.69 228.26 90.69Z" fill="#DBC2FF"/>
<path d="M10 10.45H25.32V29.78H29.87V41.23H10V10.45Z" fill="#6E3BC8"/>
<path d="M48 10H51.7C57.0333 10 60.9233 11.2633 63.37 13.79C65.8167 16.3167 67.0333 20.28 67.02 25.68C67.02 31.08 65.7967 35.08 63.35 37.68C60.9033 40.28 57.0333 41.61 51.74 41.67H48C42.6667 41.67 38.7767 40.3567 36.33 37.73C33.8833 35.1033 32.65 31.1033 32.63 25.73C32.63 20.33 33.8567 16.3667 36.31 13.84C38.7633 11.3133 42.66 10.0333 48 10ZM48.58 24.66V29.82C48.5641 30.1643 48.6824 30.5013 48.91 30.76C49.0249 30.8783 49.1638 30.9706 49.3173 31.031C49.4707 31.0913 49.6353 31.1183 49.8 31.11C49.972 31.1163 50.1435 31.0886 50.3048 31.0285C50.4661 30.9685 50.614 30.8772 50.74 30.76C50.866 30.6389 50.965 30.4926 51.0305 30.3306C51.096 30.1686 51.1265 29.9946 51.12 29.82V24.66C51.1233 24.4917 51.0912 24.3246 51.0257 24.1696C50.9603 24.0145 50.8629 23.875 50.74 23.76C50.4832 23.5269 50.1467 23.4016 49.8 23.41C49.6356 23.4042 49.4717 23.4323 49.3186 23.4925C49.1655 23.5527 49.0264 23.6438 48.91 23.76C48.702 24.012 48.5983 24.334 48.62 24.66H48.58Z" fill="#6E3BC8"/>
<path d="M84.25 28.49H85.19L86.19 10.49H100.09L94.59 41.23H73.7L68 10.45H83.1L84.25 28.49Z" fill="#6E3BC8"/>
<path d="M103 10.45H128V23.45H118.38V25.23H128V28H118.38V29.78H128.38V41.23H103V10.45Z" fill="#6E3BC8"/>
<path d="M170.22 41.23H153.52V34L151.78 33.25C151.234 32.9703 150.706 32.6563 150.2 32.31C149.569 31.931 149.018 31.4315 148.58 30.84C147.544 29.3799 146.896 27.6797 146.7 25.9L144.79 10.49H160.56L161.67 25.72H162.67L163.61 10.49H179L177 25.86C176.802 27.6378 176.159 29.3369 175.13 30.8C174.685 31.3893 174.132 31.8882 173.5 32.27C172.995 32.6185 172.467 32.9325 171.92 33.21L170.18 33.96L170.22 41.23Z" fill="#6E3BC8"/>
<path d="M195.88 10H199.58C204.913 10 208.803 11.2633 211.25 13.79C213.697 16.3167 214.913 20.28 214.9 25.68C214.9 31.08 213.677 35.08 211.23 37.68C208.783 40.28 204.9 41.5933 199.58 41.62H195.88C190.547 41.62 186.657 40.3067 184.21 37.68C181.763 35.0533 180.53 31.0533 180.51 25.68C180.51 20.28 181.737 16.3167 184.19 13.79C186.643 11.2633 190.54 10 195.88 10ZM196.46 24.66V29.82C196.444 30.1643 196.562 30.5013 196.79 30.76C196.905 30.8783 197.044 30.9706 197.197 31.031C197.351 31.0913 197.515 31.1183 197.68 31.11C197.852 31.1174 198.024 31.0902 198.185 31.0301C198.347 30.97 198.495 30.8782 198.62 30.76C198.746 30.6389 198.845 30.4926 198.91 30.3306C198.976 30.1686 199.006 29.9946 199 29.82V24.66C199.003 24.4917 198.971 24.3246 198.906 24.1696C198.84 24.0145 198.743 23.875 198.62 23.76C198.364 23.5251 198.027 23.3995 197.68 23.41C197.516 23.4042 197.352 23.4323 197.199 23.4925C197.046 23.5527 196.906 23.6438 196.79 23.76C196.568 24.0059 196.449 24.3286 196.46 24.66Z" fill="#6E3BC8"/>
<path d="M235 10.45H249.66V27.55C249.66 32.3633 248.433 35.92 245.98 38.22C243.527 40.52 239.63 41.67 234.29 41.67H233.13C227.797 41.67 223.913 40.5133 221.48 38.2C219.047 35.8867 217.82 32.3367 217.8 27.55V10.45H232.41V29.2C232.402 29.3677 232.429 29.5352 232.489 29.6918C232.55 29.8485 232.642 29.9909 232.76 30.11C233.01 30.3391 233.341 30.4611 233.68 30.45C233.851 30.4547 234.022 30.4253 234.181 30.3635C234.341 30.3017 234.487 30.2087 234.61 30.09C234.732 29.9766 234.829 29.8387 234.895 29.6854C234.96 29.5321 234.993 29.3667 234.99 29.2L235 10.45Z" fill="#6E3BC8"/>
<path d="M30.54 68.43V55.43H58V68.43H52.54V86.25H35.88V68.43H30.54Z" fill="#6E3BC8"/>
<path d="M61.49 86.25V55.47H76.82V86.25H61.49Z" fill="#6E3BC8"/>
<path d="M80.33 55.47H95.66V74.8H100.2V86.25H80.33V55.47Z" fill="#6E3BC8"/>
<path d="M103.68 55.47H119V74.8H123.54V86.25H103.68V55.47Z" fill="#6E3BC8"/>
<path d="M141 69.81V55.47H166V68.61L159.41 86.25H141.14L147.73 69.81H141Z" fill="#6E3BC8"/>
<path d="M168.84 70.7C168.84 65.3266 170.037 61.3867 172.43 58.88C174.823 56.3733 178.58 55.1167 183.7 55.11C188.82 55.11 192.613 56.3566 195.08 58.85C197.547 61.3433 198.78 65.28 198.78 70.66C198.78 76.0333 197.56 80.0333 195.12 82.66C192.68 85.2867 188.893 86.62 183.76 86.66C178.633 86.66 174.863 85.3467 172.45 82.72C170.037 80.0933 168.833 76.0866 168.84 70.7ZM182.25 71.91H185.19C185.522 71.91 185.839 71.7783 186.074 71.5439C186.308 71.3094 186.44 70.9915 186.44 70.66C186.44 70.3285 186.308 70.0105 186.074 69.7761C185.839 69.5417 185.522 69.41 185.19 69.41H182.25C181.918 69.41 181.601 69.5417 181.366 69.7761C181.132 70.0105 181 70.3285 181 70.66C181 70.9915 181.132 71.3094 181.366 71.5439C181.601 71.7783 181.918 71.91 182.25 71.91Z" fill="#6E3BC8"/>
<path d="M202.56 67.76L201.89 53.24H211.34L210.71 67.76H202.56Z" fill="#6E3BC8"/>
<path d="M229.64 55C231.928 54.9911 234.214 55.1481 236.48 55.47C238.03 55.6674 239.559 56.002 241.05 56.47L242.38 56.96V69.68C239.24 68.4367 235.874 67.8645 232.5 68V69.16C236.36 69.46 239.13 70.23 240.83 71.47C241.684 72.1329 242.362 72.9961 242.803 73.9834C243.245 74.9706 243.436 76.0513 243.36 77.13C243.405 78.5166 243.088 79.8909 242.441 81.1182C241.794 82.3454 240.839 83.3833 239.67 84.13C237.197 85.79 233.393 86.62 228.26 86.62C225.654 86.6428 223.05 86.4723 220.47 86.11C218.923 85.9366 217.398 85.6014 215.92 85.11L214.72 84.58V73.55C214.99 73.67 215.39 73.84 215.92 74.04C217.094 74.4007 218.295 74.6715 219.51 74.85C221.492 75.1841 223.5 75.348 225.51 75.34V74.27C221.89 74.0033 219.16 73.23 217.32 71.95C215.47 70.67 214.55 68.45 214.55 65.27C214.504 63.8012 214.826 62.3441 215.488 61.0322C216.15 59.7202 217.131 58.5952 218.34 57.76C220.85 55.94 224.63 55 229.64 55Z" fill="#6E3BC8"/>
</g>
<defs>
<clipPath id="clip0_0_7833">
<rect width="259.65" height="96.69" fill="white"/>
</clipPath>
</defs>
</svg>
