<svg width="269" height="159" viewBox="0 0 269 159" fill="none" xmlns="http://www.w3.org/2000/svg">
<g clip-path="url(#clip0_0_7898)">
<path d="M268.6 0H0V158.93H268.6V0Z" fill="#4FBE94"/>
<path d="M134.3 158.92C208.472 158.92 268.6 123.345 268.6 79.46C268.6 35.5755 208.472 0 134.3 0C60.1282 0 0 35.5755 0 79.46C0 123.345 60.1282 158.92 134.3 158.92Z" fill="#FBFAF7"/>
<path d="M134.3 152.13C127.633 152.13 120.967 151.83 114.3 151.23C107.66 150.64 101.06 149.7 94.51 148.48C81.3887 146.129 68.5812 142.277 56.34 137C50.2029 134.356 44.2815 131.236 38.63 127.67C32.937 124.12 27.6489 119.959 22.86 115.26L21.09 113.46C20.5 112.86 19.97 112.21 19.41 111.58C18.85 110.95 18.28 110.34 17.77 109.67L16.22 107.67C15.6953 107.009 15.2047 106.321 14.75 105.61C14.28 104.91 13.8 104.22 13.34 103.51L12.07 101.32C11.86 100.95 11.63 100.59 11.44 100.22L10.88 99.08C7.76241 93.0037 6.09224 86.2888 6 79.46C6.02764 76.049 6.43345 72.6516 7.21 69.33C8.02522 66.0236 9.19534 62.815 10.7 59.76L11.25 58.61C11.44 58.23 11.66 57.87 11.87 57.5L13.12 55.29C13.58 54.57 14.06 53.87 14.52 53.16C14.9776 52.4419 15.4716 51.7477 16 51.08L17.53 49.08C18.04 48.4 18.62 47.79 19.16 47.14C19.7 46.49 20.25 45.85 20.83 45.24L22.6 43.42C27.3547 38.6358 32.6195 34.3871 38.3 30.75C43.9406 27.0847 49.8586 23.8649 56 21.12C62.1304 18.3853 68.4221 16.0275 74.84 14.06C81.2402 12.0803 87.7472 10.4644 94.33 9.22001C100.92 8.00001 107.56 7.00001 114.23 6.38001C120.9 5.76001 127.6 5.45001 134.3 5.38001C141 5.31001 147.71 5.64001 154.39 6.19001C161.07 6.74001 167.73 7.67001 174.33 8.87001C180.947 10.0547 187.491 11.6173 193.93 13.55C200.399 15.4691 206.744 17.7834 212.93 20.48C219.111 23.1868 225.072 26.3697 230.76 30C236.519 33.6333 241.861 37.8888 246.69 42.69L248.47 44.53C249.07 45.15 249.6 45.82 250.17 46.46C250.74 47.1 251.31 47.74 251.83 48.46L253.39 50.46C253.93 51.13 254.39 51.86 254.87 52.58C255.35 53.3 255.87 54.01 256.29 54.73L257.58 57C257.79 57.37 258.01 57.74 258.21 58.13L258.77 59.3C260.31 62.4143 261.507 65.6868 262.34 69.06C263.148 72.4549 263.571 75.9303 263.6 79.42C263.54 82.9092 263.091 86.3807 262.26 89.77C261.399 93.1279 260.178 96.3834 258.62 99.48C257.91 101.06 256.95 102.48 256.1 103.99C255.63 104.71 255.1 105.41 254.66 106.12C254.22 106.83 253.66 107.54 253.16 108.2L251.58 110.2C251.06 110.88 250.46 111.49 249.9 112.14C249.34 112.79 248.79 113.43 248.19 114.03L246.39 115.84C241.53 120.559 236.164 124.728 230.39 128.27C224.683 131.82 218.708 134.919 212.52 137.54C200.179 142.729 187.28 146.477 174.08 148.71C160.948 151.027 147.635 152.171 134.3 152.13ZM134.3 151.73C140.967 151.663 147.603 151.33 154.21 150.73C160.83 150.1 167.4 149.08 173.91 147.8C180.42 146.515 186.848 144.846 193.16 142.8C199.466 140.797 205.642 138.402 211.65 135.63C217.647 132.878 223.418 129.658 228.91 126C234.371 122.406 239.43 118.235 244 113.56C248.577 108.98 252.371 103.68 255.23 97.87C256.638 94.9984 257.725 91.9801 258.47 88.87C259.185 85.7771 259.554 82.6144 259.57 79.44C259.505 73.0657 257.969 66.7926 255.08 61.11L254.56 60.04C254.37 59.68 254.16 59.34 253.97 58.99L252.77 56.91L251.44 54.91C251 54.24 250.56 53.57 250.05 52.91L248.58 51C248.1 50.36 247.53 49.77 247.01 49.16C246.49 48.55 246.01 47.92 245.41 47.35L243.71 45.61C239.095 41.0142 234.003 36.9244 228.52 33.41C223.015 29.849 217.241 26.7228 211.25 24.06C205.251 21.3742 199.093 19.0598 192.81 17.13C186.516 15.1753 180.116 13.5827 173.64 12.36C167.16 11.12 160.64 10.15 154.06 9.54001C147.48 8.93001 140.88 8.61001 134.27 8.54001C127.66 8.47001 121.06 8.81001 114.47 9.36001C107.88 9.91001 101.34 10.83 94.84 12.01C88.3408 13.1832 81.9137 14.7257 75.59 16.63C69.2601 18.5379 63.052 20.8288 57 23.49C50.9588 26.132 45.1314 29.2379 39.57 32.78C34.0225 36.2849 28.8723 40.3823 24.21 45L22.49 46.75C21.91 47.34 21.4 47.97 20.85 48.58C20.3 49.19 19.75 49.8 19.26 50.45L17.76 52.39C17.25 53.03 16.76 53.71 16.35 54.39C15.94 55.07 15.43 55.74 14.99 56.39L13.77 58.51C13.57 58.86 13.35 59.21 13.16 59.57L12.63 60.67C11.171 63.5785 10.031 66.6363 9.23 69.79C8.46311 72.9578 8.05058 76.2011 8 79.46C8.01514 82.7121 8.39416 85.9522 9.13 89.12C9.90035 92.2946 11.0136 95.376 12.45 98.31L13 99.42C13.19 99.78 13.4 100.13 13.6 100.49L14.8 102.63C15.24 103.32 15.7 104 16.15 104.69C16.6 105.38 17.04 106.06 17.55 106.69L19.04 108.69C19.52 109.35 20.04 109.95 20.62 110.58C21.2 111.21 21.67 111.85 22.24 112.44L23.95 114.22C28.5971 118.926 33.7443 123.111 39.3 126.7C44.8456 130.335 50.6666 133.532 56.71 136.26C62.7705 138.973 68.9923 141.311 75.34 143.26C81.6813 145.251 88.1362 146.861 94.67 148.08C101.2 149.3 107.79 150.24 114.41 150.83C121.03 151.42 127.65 151.7 134.3 151.73Z" fill="#4FBE94"/>
<path d="M85.58 50.83C85.2036 51.6348 85.0057 52.5115 85 53.4L90.79 53.48L90.37 60.25L85.26 60.17L85.82 73.44H78.12L77.97 60.06H74.09L73.38 53.29L77.89 53.37V50.77C77.79 48.2433 78.5 46.3533 80.02 45.1C81.7256 43.7768 83.8429 43.097 86 43.18C87.2322 43.1712 88.4578 43.3602 89.63 43.74C90.6842 44.0846 91.6525 44.6506 92.47 45.4L92.2 50.73L91 50C90.1785 49.5663 89.2586 49.3527 88.33 49.38C87.8858 49.3702 87.4431 49.4344 87.02 49.57C86.7077 49.6727 86.4193 49.8372 86.1719 50.0536C85.9245 50.2701 85.7232 50.5341 85.58 50.83Z" fill="#4FBE94"/>
<path d="M112.82 53.44V73.33H105.67V71.49C105.01 72.2349 104.189 72.8197 103.27 73.2C102.269 73.6161 101.194 73.8269 100.11 73.82C99.0019 73.8948 97.8922 73.699 96.8765 73.2496C95.8609 72.8001 94.9698 72.1105 94.28 71.24C93 69.53 92.35 67 92.4 63.7L92.51 53.37H99.51V63.37C99.4527 64.2449 99.7276 65.1091 100.28 65.79C100.599 66.0889 100.977 66.3179 101.39 66.4623C101.803 66.6067 102.241 66.6632 102.677 66.6284C103.113 66.5936 103.536 66.4681 103.921 66.26C104.306 66.0519 104.642 65.7658 104.91 65.42C105.526 64.5068 105.834 63.4207 105.79 62.32V53.45L112.82 53.44Z" fill="#4FBE94"/>
<path d="M122.44 73.82C121.414 73.861 120.391 73.6844 119.437 73.3017C118.484 72.9191 117.623 72.3392 116.91 71.6C116.173 70.7463 115.612 69.7557 115.259 68.685C114.905 67.6143 114.767 66.4845 114.85 65.36L114.92 46.86L122.03 44.76V63.25C121.995 63.6674 122.052 64.0874 122.195 64.481C122.338 64.8746 122.565 65.2325 122.86 65.53C123.384 66.0087 124.07 66.2697 124.78 66.26C125.232 66.2822 125.679 66.1633 126.06 65.92L127.71 72.58C126.058 73.3538 124.264 73.7761 122.44 73.82Z" fill="#4FBE94"/>
<path d="M135.9 73.82C134.874 73.861 133.851 73.6844 132.897 73.3017C131.944 72.9191 131.083 72.3392 130.37 71.6C128.883 69.8751 128.139 67.6318 128.3 65.36L128.38 46.86L135.49 44.76V63.25C135.456 63.6674 135.512 64.0874 135.655 64.481C135.798 64.8746 136.025 65.2325 136.32 65.53C136.844 66.0087 137.53 66.2697 138.24 66.26C138.691 66.2808 139.138 66.1621 139.52 65.92L141.17 72.58C139.518 73.3538 137.724 73.7761 135.9 73.82Z" fill="#4FBE94"/>
<path d="M159.06 72.2C157.454 71.2467 156.124 69.8924 155.2 68.27C154.269 66.6705 153.782 64.851 153.79 63C153.745 61.0955 154.305 59.2258 155.39 57.66C156.411 56.1989 157.788 55.0219 159.39 54.24C160.917 53.4825 162.596 53.0824 164.3 53.07C166.273 53.025 168.227 53.4536 170 54.32C171.551 55.0947 172.844 56.3038 173.72 57.8C174.612 59.4101 175.054 61.2303 175 63.07C175.02 64.9578 174.54 66.8172 173.61 68.46C172.705 70.055 171.385 71.3751 169.79 72.28C168.157 73.2078 166.308 73.6874 164.43 73.67C162.539 73.6859 160.68 73.177 159.06 72.2ZM167.27 66.26C167.618 65.8895 167.886 65.4516 168.058 64.9735C168.23 64.4954 168.302 63.9871 168.27 63.48C168.293 62.4372 167.938 61.4213 167.27 60.62C166.905 60.2207 166.455 59.9089 165.953 59.7081C165.451 59.5072 164.91 59.4224 164.37 59.46C163.851 59.4433 163.335 59.5342 162.853 59.727C162.371 59.9197 161.934 60.2102 161.57 60.58C161.207 60.9463 160.921 61.3822 160.73 61.8617C160.539 62.3411 160.448 62.8541 160.46 63.37C160.447 63.8928 160.544 64.4125 160.746 64.8951C160.947 65.3776 161.249 65.8121 161.63 66.17C162.031 66.5447 162.503 66.8359 163.018 67.0264C163.534 67.217 164.081 67.3032 164.63 67.28C165.116 67.2989 165.601 67.2182 166.055 67.0428C166.509 66.8674 166.923 66.601 167.27 66.26Z" fill="#4FBE94"/>
<path d="M187.57 50.83C187.202 51.6371 187.008 52.5128 187 53.4L192.79 53.48L192.38 60.25L187.27 60.17L187.83 73.44H180.12L179.97 60.06H176.1L175.39 53.29L179.9 53.37V50.77C179.8 48.2433 180.507 46.3533 182.02 45.1C183.727 43.7791 185.843 43.0996 188 43.18C189.229 43.1703 190.451 43.3594 191.62 43.74C192.675 44.0823 193.644 44.6485 194.46 45.4L194.2 50.73L193 50C192.178 49.5663 191.259 49.3527 190.33 49.38C189.882 49.369 189.436 49.4332 189.01 49.57C188.698 49.6727 188.409 49.8371 188.162 50.0536C187.915 50.2701 187.713 50.5341 187.57 50.83Z" fill="#4FBE94"/>
<path d="M73.21 107.88C71.7348 106.926 70.5514 105.583 69.79 104C69.0046 102.383 68.6827 100.579 68.86 98.79C69.0078 96.9689 69.6207 95.2163 70.64 93.7C71.6297 92.1655 72.9787 90.8955 74.57 90C76.1317 89.1072 77.9011 88.6416 79.7 88.65C81.333 88.6485 82.9432 89.0322 84.4 89.77C85.8201 90.4504 87.0423 91.4833 87.95 92.77C88.8146 94.0013 89.2053 95.5035 89.05 97L82.69 97.57C82.55 96.8791 82.1712 96.2595 81.62 95.82C81.0762 95.3836 80.3973 95.1502 79.7 95.16C78.6677 95.1722 77.6768 95.5679 76.92 96.27C76.527 96.5775 76.1997 96.9608 75.9576 97.3971C75.7154 97.8334 75.5632 98.3138 75.51 98.81C75.4606 99.4493 75.5997 100.089 75.91 100.65C76.2342 101.245 76.7016 101.751 77.27 102.12C77.8195 102.482 78.4621 102.676 79.12 102.68C79.7959 102.671 80.4564 102.478 81.03 102.12C81.6141 101.781 82.092 101.286 82.41 100.69L88.6 101.29C88.4437 102.751 87.8314 104.126 86.85 105.22C85.7695 106.489 84.4294 107.512 82.92 108.22C81.4521 108.948 79.8384 109.334 78.2 109.35C76.4288 109.358 74.6941 108.847 73.21 107.88Z" fill="#4FBE94"/>
<path d="M103.71 109.06L104.63 98.54C104.702 98.0991 104.675 97.6476 104.551 97.2186C104.426 96.7895 104.207 96.3937 103.91 96.06C103.584 95.7421 103.195 95.4967 102.767 95.3399C102.34 95.1831 101.884 95.1183 101.43 95.15C100.566 95.1466 99.722 95.4138 99.0172 95.9142C98.3124 96.4145 97.7819 97.1229 97.5 97.94L96.68 109L89.63 108.88L91.74 78.73H98.88L98 91.36C98.8805 90.4601 99.94 89.7549 101.11 89.29C102.284 88.7776 103.549 88.5088 104.83 88.5C105.844 88.4486 106.854 88.6502 107.771 89.0867C108.687 89.5231 109.481 90.1806 110.08 91C111.382 93.0123 111.911 95.4278 111.57 97.8L110.67 109.04L103.71 109.06Z" fill="#4FBE94"/>
<path d="M126.68 109.06L126.8 107.3C126.004 107.908 125.112 108.378 124.16 108.69C123.152 109.034 122.095 109.21 121.03 109.21C119.434 109.23 117.871 108.751 116.56 107.84C115.235 106.911 114.195 105.629 113.56 104.14C112.859 102.534 112.587 100.773 112.77 99.03C112.917 97.1946 113.511 95.423 114.5 93.87C115.451 92.3493 116.768 91.091 118.33 90.21C119.87 89.3269 121.615 88.8647 123.39 88.87C124.319 88.8636 125.241 89.0298 126.11 89.36C126.885 89.6294 127.575 90.0985 128.11 90.72L128.25 89.1H134.49L133.61 109.1L126.68 109.06ZM124.78 102.41C125.422 102.008 125.96 101.46 126.35 100.81C126.754 100.171 126.998 99.4436 127.06 98.69C127.121 98.23 127.084 97.7623 126.951 97.3176C126.818 96.873 126.593 96.4614 126.29 96.11C125.99 95.7726 125.617 95.5074 125.199 95.3343C124.782 95.1611 124.331 95.0844 123.88 95.11C122.771 95.111 121.701 95.5245 120.88 96.27C120.047 96.95 119.515 97.9308 119.4 99C119.343 99.6598 119.475 100.322 119.78 100.91C120.072 101.519 120.521 102.041 121.08 102.42C121.6 102.782 122.217 102.977 122.85 102.98C123.535 102.978 124.204 102.781 124.78 102.41Z" fill="#4FBE94"/>
<path d="M155.26 90.55C156.3 92.0848 156.688 93.9692 156.34 95.79L155 109.06H148.12L148.93 100.23C149.154 98.9153 149.019 97.5646 148.54 96.32C148.347 95.9463 148.049 95.6368 147.684 95.4291C147.318 95.2214 146.9 95.1244 146.48 95.15C145.734 95.1435 145.007 95.3824 144.41 95.83C143.734 96.4177 143.297 97.2322 143.18 98.12L142.26 109.06H135.4L137.16 89.06L143.9 88.95L143.73 90.87C144.818 90.207 145.988 89.6893 147.21 89.33C148.443 88.9417 149.727 88.7394 151.02 88.73C151.821 88.6747 152.623 88.8109 153.36 89.1274C154.097 89.4439 154.749 89.9316 155.26 90.55Z" fill="#4FBE94"/>
<path d="M180.2 89.06L178.34 107.78C178.139 109.235 177.728 110.653 177.12 111.99C176.356 113.705 175.173 115.201 173.68 116.34C171.84 117.7 169.586 118.382 167.3 118.27C165.275 118.322 163.274 117.825 161.51 116.83C159.901 115.883 158.62 114.466 157.84 112.77C157.006 110.887 156.689 108.816 156.92 106.77L163.68 109.06C163.64 109.464 163.712 109.871 163.888 110.236C164.065 110.601 164.339 110.911 164.68 111.13C165.677 111.759 166.869 112.005 168.033 111.821C169.198 111.637 170.256 111.036 171.01 110.13C171.774 108.968 172.222 107.628 172.31 106.24V105.72C171.32 106.332 170.254 106.813 169.14 107.15C168.067 107.5 166.948 107.688 165.82 107.71C164.225 107.733 162.653 107.337 161.26 106.56C159.936 105.838 158.855 104.743 158.15 103.41C157.433 102.026 157.14 100.46 157.31 98.91C157.466 97.1603 158.046 95.4751 159 94C159.968 92.4521 161.27 91.1401 162.81 90.16C164.22 89.2271 165.869 88.7202 167.56 88.7C168.747 88.6936 169.93 88.838 171.08 89.13C172.074 89.3685 173.023 89.7671 173.89 90.31L174.03 89.07L180.2 89.06ZM170 100.87C170.757 100.159 171.227 99.1945 171.32 98.16C171.383 97.6884 171.342 97.2087 171.2 96.7544C171.059 96.3002 170.82 95.8823 170.5 95.53C170.18 95.1933 169.791 94.9297 169.359 94.7571C168.928 94.5845 168.464 94.507 168 94.53C167.528 94.5147 167.057 94.5955 166.617 94.7674C166.177 94.9393 165.777 95.1987 165.44 95.53C164.725 96.2574 164.302 97.2216 164.25 98.24C164.182 98.7185 164.211 99.2057 164.335 99.6728C164.459 100.14 164.675 100.578 164.97 100.96C165.24 101.307 165.588 101.584 165.986 101.77C166.384 101.956 166.821 102.045 167.26 102.03C167.771 102.029 168.276 101.925 168.747 101.726C169.217 101.527 169.643 101.236 170 100.87Z" fill="#4FBE94"/>
<path d="M198.7 91.62C200.27 93.45 200.91 95.94 200.64 99.1C200.593 99.6333 200.543 100.033 200.49 100.3L187.17 100.45C187.372 101.191 187.741 101.875 188.25 102.45C188.479 102.711 188.758 102.925 189.071 103.077C189.383 103.23 189.723 103.319 190.07 103.34C190.913 103.469 191.774 103.373 192.568 103.063C193.362 102.752 194.059 102.237 194.59 101.57L199.83 103.11C199.375 104.328 198.634 105.418 197.67 106.29C195.598 108.195 192.894 109.264 190.08 109.29C189.83 109.304 189.58 109.304 189.33 109.29C187.654 109.178 186.045 108.592 184.69 107.6C183.304 106.591 182.216 105.226 181.54 103.65C180.806 101.972 180.52 100.132 180.71 98.31C180.731 98.0215 180.767 97.7344 180.82 97.45C181.045 95.8218 181.704 94.2844 182.73 93C183.77 91.7132 185.095 90.6862 186.6 90C188.168 89.2781 189.874 88.9061 191.6 88.91C194.767 88.8833 197.133 89.7867 198.7 91.62ZM187.61 95.87H193.96C193.96 95.5519 193.896 95.2371 193.77 94.9448C193.645 94.6525 193.461 94.3889 193.23 94.17C192.778 93.7753 192.209 93.5399 191.61 93.5C190.774 93.3911 189.926 93.5654 189.201 93.995C188.476 94.4246 187.916 95.0847 187.61 95.87Z" fill="#4FBE94"/>
</g>
<defs>
<clipPath id="clip0_0_7898">
<rect width="268.6" height="158.93" fill="white"/>
</clipPath>
</defs>
</svg>
