<svg width="185" height="184" viewBox="0 0 185 184" fill="none" xmlns="http://www.w3.org/2000/svg">
<g clip-path="url(#clip0_0_7917)">
<path d="M100.93 4.29C102.148 2.65817 103.808 1.40911 105.714 0.690352C107.619 -0.0284046 109.691 -0.186836 111.683 0.23377C113.676 0.654376 115.507 1.63645 116.959 3.064C118.411 4.49155 119.425 6.30494 119.88 8.29C120.24 9.91147 120.974 11.4264 122.023 12.714C123.072 14.0016 124.407 15.0263 125.923 15.7063C127.438 16.3862 129.091 16.7027 130.751 16.6304C132.41 16.5581 134.029 16.0991 135.48 15.29C137.259 14.2963 139.285 13.8327 141.319 13.954C143.352 14.0752 145.309 14.7762 146.957 15.9742C148.605 17.1721 149.876 18.8169 150.619 20.714C151.362 22.6112 151.546 24.6814 151.15 26.68C150.827 28.3064 150.888 29.9857 151.329 31.5843C151.769 33.1829 152.576 34.6568 153.685 35.8888C154.795 37.1209 156.177 38.077 157.721 38.6814C159.265 39.2857 160.929 39.5215 162.58 39.37C164.608 39.1855 166.647 39.5854 168.455 40.5225C170.264 41.4595 171.766 42.8945 172.785 44.6579C173.804 46.4214 174.297 48.4396 174.206 50.4742C174.114 52.5088 173.443 54.4748 172.27 56.14C171.312 57.4947 170.684 59.0543 170.434 60.6947C170.185 62.3351 170.323 64.0109 170.835 65.5889C171.348 67.1669 172.222 68.6034 173.388 69.7841C174.554 70.9648 175.979 71.8571 177.55 72.39C179.479 73.0469 181.179 74.2428 182.449 75.836C183.719 77.4293 184.506 79.3531 184.716 81.3797C184.926 83.4063 184.552 85.4508 183.636 87.2709C182.721 89.0911 181.303 90.6108 179.55 91.65C178.124 92.4988 176.915 93.6685 176.021 95.0662C175.126 96.464 174.57 98.0511 174.396 99.7015C174.222 101.352 174.436 103.02 175.02 104.574C175.604 106.127 176.542 107.523 177.76 108.65C179.254 110.035 180.32 111.82 180.832 113.792C181.345 115.764 181.282 117.841 180.65 119.779C180.019 121.716 178.847 123.432 177.271 124.724C175.696 126.016 173.783 126.83 171.76 127.07C170.112 127.265 168.533 127.842 167.147 128.755C165.761 129.668 164.608 130.891 163.779 132.328C162.949 133.766 162.467 135.377 162.37 137.033C162.273 138.69 162.564 140.346 163.22 141.87C164.025 143.746 164.276 145.814 163.941 147.828C163.607 149.842 162.702 151.718 161.333 153.232C159.964 154.747 158.19 155.838 156.22 156.375C154.25 156.911 152.168 156.871 150.22 156.26C148.639 155.769 146.966 155.653 145.332 155.921C143.699 156.189 142.15 156.834 140.809 157.804C139.468 158.775 138.372 160.044 137.606 161.512C136.841 162.979 136.428 164.605 136.4 166.26C136.372 168.298 135.761 170.285 134.64 171.987C133.518 173.688 131.932 175.033 130.071 175.862C128.209 176.691 126.149 176.969 124.133 176.664C122.118 176.359 120.233 175.483 118.7 174.14C117.453 173.046 115.968 172.258 114.363 171.839C112.758 171.42 111.078 171.382 109.455 171.726C107.833 172.071 106.313 172.79 105.017 173.825C103.721 174.86 102.685 176.184 101.99 177.69C101.137 179.54 99.7719 181.106 98.0564 182.204C96.3409 183.302 94.3468 183.885 92.31 183.885C90.2732 183.885 88.2791 183.302 86.5636 182.204C84.8481 181.106 83.4831 179.54 82.63 177.69C81.9324 176.197 80.8982 174.887 79.6087 173.861C78.3192 172.835 76.8095 172.122 75.1981 171.778C73.5867 171.434 71.9175 171.469 70.3215 171.878C68.7256 172.288 67.2464 173.062 66 174.14C64.467 175.483 62.5816 176.359 60.5665 176.664C58.5515 176.969 56.4912 176.691 54.6294 175.862C52.7676 175.033 51.182 173.688 50.0604 171.987C48.9387 170.285 48.3279 168.298 48.3 166.26C48.272 164.605 47.859 162.979 47.0936 161.512C46.3283 160.044 45.2316 158.775 43.8906 157.804C42.5496 156.834 41.001 156.189 39.3676 155.921C37.7342 155.653 36.0608 155.769 34.48 156.26C32.5316 156.876 30.4473 156.919 28.4752 156.384C26.5031 155.849 24.7263 154.758 23.3565 153.242C21.9867 151.726 21.0815 149.848 20.7488 147.831C20.4162 145.815 20.67 143.746 21.48 141.87C22.1469 140.347 22.4484 138.688 22.3606 137.028C22.2728 135.367 21.7981 133.75 20.9743 132.305C20.1505 130.861 19.0004 129.629 17.6159 128.708C16.2314 127.787 14.6507 127.202 13 127C10.9766 126.76 9.06412 125.946 7.48865 124.654C5.91317 123.362 4.74059 121.646 4.10953 119.709C3.47847 117.771 3.41532 115.694 3.92754 113.722C4.43975 111.75 5.50593 109.965 7.00001 108.58C8.21803 107.453 9.15633 106.057 9.74033 104.504C10.3243 102.95 10.5379 101.282 10.3641 99.6315C10.1904 97.9811 9.63399 96.394 8.73925 94.9962C7.84452 93.5985 6.63609 92.4288 5.21001 91.58C3.45745 90.5408 2.03941 89.0211 1.12384 87.2009C0.208267 85.3808 -0.166487 83.3363 0.0439586 81.3097C0.254405 79.2831 1.04123 77.3593 2.31126 75.766C3.5813 74.1728 5.28132 72.9769 7.21001 72.32C8.78129 71.7871 10.2065 70.8948 11.3722 69.7141C12.5378 68.5334 13.4118 67.0969 13.9246 65.5189C14.4373 63.9409 14.5746 62.2651 14.3255 60.6247C14.0765 58.9843 13.448 57.4247 12.49 56.07C11.3279 54.4035 10.6658 52.4398 10.5814 50.4098C10.4971 48.3799 10.9941 46.3681 12.0139 44.6109C13.0338 42.8537 14.5341 41.4242 16.3386 40.4905C18.143 39.5568 20.1765 39.1576 22.2 39.34C23.8507 39.4893 25.5134 39.2521 27.0565 38.6471C28.5995 38.042 29.9803 37.0859 31.0896 35.8544C32.1988 34.6229 33.0059 33.1499 33.4469 31.5522C33.8878 29.9545 33.9505 28.2761 33.63 26.65C33.2338 24.6514 33.4181 22.5812 34.1611 20.684C34.9041 18.7869 36.1747 17.1421 37.8228 15.9442C39.4709 14.7462 41.4275 14.0452 43.4614 13.924C45.4952 13.8027 47.5213 14.2663 49.3 15.26C50.7471 16.0693 52.3631 16.5299 54.0194 16.6051C55.6757 16.6803 57.3267 16.3682 58.8413 15.6934C60.3558 15.0187 61.6921 14 62.7438 12.7182C63.7956 11.4365 64.5339 9.9271 64.9 8.31C65.355 6.32494 66.3685 4.51155 67.821 3.084C69.2734 1.65645 71.104 0.674376 73.0966 0.25377C75.0893 -0.166836 77.1606 -0.00840461 79.0661 0.710352C80.9716 1.42911 82.6316 2.67817 83.85 4.31C84.8453 5.63553 86.1357 6.71095 87.6189 7.45098C89.1022 8.191 90.7374 8.57528 92.395 8.57334C94.0526 8.5714 95.6869 8.18329 97.1684 7.4398C98.6499 6.6963 99.9378 5.61786 100.93 4.29Z" fill="#F3C3B4"/>
<path d="M111.8 75.81V77.75C111.801 78.2703 111.692 78.7849 111.48 79.26C111.285 79.7166 111.003 80.131 110.65 80.48C110.292 80.8419 109.865 81.1277 109.395 81.3202C108.924 81.5126 108.419 81.6078 107.91 81.6H98.22C97.702 81.6092 97.1877 81.5105 96.71 81.31C96.2503 81.1153 95.8326 80.8334 95.48 80.48C95.1265 80.1292 94.8416 79.7154 94.64 79.26C94.4359 78.7827 94.3305 78.2691 94.33 77.75V75.81H111.8Z" fill="#F0372E"/>
<path d="M115.68 68V70C115.688 70.5199 115.582 71.0352 115.37 71.51C115.168 71.9657 114.887 72.3821 114.54 72.74C114.185 73.0933 113.768 73.378 113.31 73.58C112.833 73.7841 112.319 73.8895 111.8 73.89H94.33V68H115.68Z" fill="#F0372E"/>
<path d="M115.68 64.14V66.14H94.33V60.28H111.8C112.318 60.2813 112.831 60.3832 113.31 60.58C113.772 60.771 114.19 61.0533 114.54 61.41C114.887 61.7679 115.168 62.1843 115.37 62.64C115.581 63.1117 115.686 63.6235 115.68 64.14Z" fill="#F0372E"/>
<path d="M111.8 56.39V58.39H94.33V56.39C94.3322 55.79 94.437 55.1947 94.64 54.63C94.8463 54.0647 95.19 53.5595 95.64 53.16C95.828 52.9886 96.0362 52.8409 96.26 52.72C96.4774 52.5979 96.7208 52.5294 96.97 52.52H107.9C108.419 52.5121 108.934 52.6144 109.41 52.82C109.868 53.022 110.285 53.3067 110.64 53.66C110.993 54.009 111.275 54.4234 111.47 54.88C111.685 55.3544 111.798 55.869 111.8 56.39Z" fill="#F0372E"/>
<path d="M100.16 37V46.72C100.165 47.0871 100.108 47.4523 99.99 47.8C99.8756 48.1499 99.7212 48.4854 99.53 48.8C99.33 49.1 99.14 49.41 98.92 49.72L98.3 50.61C97.5148 50.5826 96.7323 50.7153 96 51C95.2971 51.2853 94.6555 51.7029 94.11 52.23C93.5771 52.76 93.1466 53.3838 92.84 54.07C92.5366 54.7985 92.3836 55.5808 92.39 56.37V77.75C92.3897 78.4602 92.529 79.1635 92.8 79.82C93.0563 80.4748 93.429 81.0779 93.9 81.6H69.12V60.28H79.78L92.39 43.47V37C92.3856 36.4804 92.4912 35.9658 92.7 35.49C92.9019 35.0318 93.1867 34.6148 93.54 34.26C93.8917 33.9101 94.3054 33.6286 94.76 33.43C95.2348 33.2169 95.7496 33.1078 96.27 33.11C96.7906 33.1056 97.3059 33.2148 97.78 33.43C98.2382 33.6275 98.6553 33.909 99.01 34.26C99.3663 34.6144 99.6544 35.0314 99.86 35.49C100.061 35.9679 100.163 36.4816 100.16 37Z" fill="#F0372E"/>
<path d="M112.52 32.26C112.52 34.2475 113.307 36.1542 114.708 37.5634C116.11 38.9725 118.013 39.7694 120 39.78C118.008 39.78 116.098 40.5712 114.69 41.9796C113.281 43.388 112.49 45.2982 112.49 47.29C112.487 45.3025 111.698 43.3969 110.295 41.9896C108.891 40.5824 106.987 39.7879 105 39.78C106.994 39.78 108.907 38.9877 110.317 37.5775C111.728 36.1672 112.52 34.2544 112.52 32.26Z" fill="#F0372E"/>
<path d="M119.07 30.69C119.073 31.4265 119.366 32.1321 119.887 32.6528C120.408 33.1736 121.114 33.4674 121.85 33.47C121.114 33.4726 120.408 33.7664 119.887 34.2872C119.366 34.8079 119.073 35.5135 119.07 36.25C119.067 35.5135 118.774 34.8079 118.253 34.2872C117.732 33.7664 117.027 33.4726 116.29 33.47C117.027 33.4674 117.732 33.1736 118.253 32.6528C118.774 32.1321 119.067 31.4265 119.07 30.69Z" fill="#F0372E"/>
<path d="M118.06 42.57C118.06 42.9351 118.132 43.2966 118.272 43.6339C118.411 43.9712 118.616 44.2776 118.874 44.5358C119.132 44.7939 119.439 44.9987 119.776 45.1384C120.113 45.2781 120.475 45.35 120.84 45.35C120.102 45.3527 119.395 45.6478 118.874 46.1707C118.353 46.6936 118.06 47.4018 118.06 48.14C118.06 47.4018 117.767 46.6936 117.246 46.1707C116.725 45.6478 116.018 45.3527 115.28 45.35C115.645 45.35 116.007 45.2781 116.344 45.1384C116.681 44.9987 116.988 44.7939 117.246 44.5358C117.504 44.2776 117.709 43.9712 117.848 43.6339C117.988 43.2966 118.06 42.9351 118.06 42.57Z" fill="#F0372E"/>
<path d="M51.06 95.07H56.56V100H59.66V95.07H65.15V109.85H59.66V104.91H56.56V109.85H51.06V95.07Z" fill="#F0372E"/>
<path d="M83.65 109.85H77.76L74.45 100.67L72.86 104.93H75.59L77.36 109.85H65.36L71.15 95.07H77.78L83.65 109.85Z" fill="#F0372E"/>
<path d="M90 105.44H90.32L89.48 103.12L92.48 95.07H98.48L92.74 109.85H85.89L80.13 95.07H86.06L90 105.44Z" fill="#F0372E"/>
<path d="M104.08 100.35H111.08V104.57H104.08V105H111.08V109.9H98.59V95.07H111.11V100H104.11L104.08 100.35Z" fill="#F0372E"/>
<path d="M133.88 109.85H128L124.68 100.67L123.1 104.93H125.82L127.6 109.85H115.6L121.39 95.07H128L133.88 109.85Z" fill="#F0372E"/>
<path d="M50.82 128V135.2H43C38 135.2 35 131.88 35 127.58C35.0602 125.53 35.9246 123.585 37.4066 122.167C38.8885 120.749 40.8689 119.97 42.92 120C43.9447 119.96 44.967 120.127 45.9253 120.492C46.8836 120.857 47.7582 121.412 48.4962 122.124C49.2343 122.836 49.8207 123.69 50.2201 124.634C50.6194 125.579 50.8235 126.595 50.82 127.62H45C44.952 127.103 44.7096 126.623 44.3216 126.278C43.9337 125.933 43.4292 125.748 42.91 125.76C42.353 125.76 41.8189 125.981 41.4251 126.375C41.0312 126.769 40.81 127.303 40.81 127.86C40.81 128.417 41.0312 128.951 41.4251 129.345C41.8189 129.739 42.353 129.96 42.91 129.96H45V128.38H43.45V128H50.82Z" fill="#F0372E"/>
<path d="M49.26 127.81C49.2062 126.202 49.6338 124.614 50.4879 123.251C51.342 121.887 52.5837 120.81 54.054 120.156C55.5243 119.503 57.1562 119.303 58.7406 119.583C60.325 119.863 61.7899 120.609 62.9474 121.727C64.105 122.844 64.9026 124.282 65.238 125.856C65.5734 127.429 65.4314 129.067 64.8301 130.56C64.2288 132.052 63.1957 133.331 61.8631 134.232C60.5304 135.134 58.959 135.617 57.35 135.62C55.2453 135.644 53.2157 134.838 51.7014 133.376C50.187 131.914 49.3099 129.914 49.26 127.81ZM57.33 129.9C57.7462 129.902 58.1536 129.78 58.5005 129.55C58.8473 129.32 59.118 128.992 59.2782 128.608C59.4384 128.224 59.4808 127.801 59.4001 127.393C59.3194 126.985 59.1192 126.609 58.8249 126.315C58.5306 126.021 58.1555 125.821 57.7472 125.74C57.3389 125.659 56.9159 125.702 56.5317 125.862C56.1476 126.022 55.8197 126.293 55.5898 126.64C55.3598 126.986 55.238 127.394 55.24 127.81C55.2387 128.085 55.2918 128.357 55.3964 128.611C55.501 128.866 55.6549 129.096 55.8492 129.291C56.0435 129.485 56.2745 129.639 56.5286 129.744C56.7828 129.848 57.0552 129.901 57.33 129.9Z" fill="#F0372E"/>
<path d="M65.86 127.81C65.8063 126.204 66.2327 124.619 67.0847 123.256C67.9366 121.894 69.1754 120.816 70.6427 120.162C72.11 119.507 73.7393 119.304 75.3223 119.58C76.9052 119.856 78.37 120.597 79.5295 121.71C80.6889 122.822 81.4904 124.255 81.8314 125.825C82.1724 127.396 82.0375 129.032 81.444 130.525C80.8504 132.018 79.8251 133.3 78.4992 134.208C77.1732 135.116 75.6067 135.607 74 135.62C71.8866 135.658 69.8443 134.857 68.3191 133.394C66.7939 131.931 65.9098 129.923 65.86 127.81ZM73.93 129.9C74.3462 129.902 74.7536 129.78 75.1004 129.55C75.4473 129.32 75.718 128.992 75.8782 128.608C76.0384 128.224 76.0808 127.801 76.0001 127.393C75.9194 126.985 75.7192 126.609 75.4249 126.315C75.1306 126.021 74.7555 125.821 74.3472 125.74C73.9389 125.659 73.5158 125.702 73.1317 125.862C72.7476 126.022 72.4197 126.293 72.1897 126.64C71.9597 126.986 71.838 127.394 71.84 127.81C71.8426 128.364 72.0636 128.894 72.455 129.285C72.8464 129.676 73.3765 129.897 73.93 129.9Z" fill="#F0372E"/>
<path d="M82.63 120.42H89.63C99.18 120.42 99.18 135.2 89.63 135.2H82.63V120.42ZM89.75 126.08H88.1V129.48H89.75C91.65 129.48 91.63 126.08 89.75 126.08Z" fill="#F0372E"/>
<path d="M101.52 120.42H108.52C118.06 120.42 118.06 135.2 108.52 135.2H101.52V120.42ZM108.63 126.08H107V129.48H108.64C110.53 129.48 110.51 126.08 108.63 126.08Z" fill="#F0372E"/>
<path d="M132.35 135.2H126.46L123.14 126L121.56 130.27H124.28L126.06 135.19H114L119.79 120.41H126.42L132.35 135.2Z" fill="#F0372E"/>
<path d="M142.41 126.29L141.29 124.29L143.53 120.39H150L143.89 130.39V135.14H138.4V130.43L132.28 120.36H138.72L142.14 126.23L142.41 126.29Z" fill="#F0372E"/>
</g>
<defs>
<clipPath id="clip0_0_7917">
<rect width="184.78" height="183.89" fill="white"/>
</clipPath>
</defs>
</svg>
