<svg width="318" height="110" viewBox="0 0 318 110" fill="none" xmlns="http://www.w3.org/2000/svg">
<g clip-path="url(#clip0_0_7942)">
<path d="M265.2 109.06H56.35C42.4975 108.869 29.2771 103.232 19.5486 93.369C9.8202 83.5057 4.36603 70.2088 4.36603 56.355C4.36603 42.5012 9.8202 29.2043 19.5486 19.341C29.2771 9.47761 42.4975 3.84081 56.35 3.64999H265.2C279.053 3.84081 292.273 9.47761 302.001 19.341C311.73 29.2043 317.184 42.5012 317.184 56.355C317.184 70.2088 311.73 83.5057 302.001 93.369C292.273 103.232 279.053 108.869 265.2 109.06ZM56.35 5.64999C43.0256 5.83712 30.3102 11.2616 20.9539 20.7503C11.5975 30.2389 6.35212 43.0292 6.35212 56.355C6.35212 69.6808 11.5975 82.471 20.9539 91.9597C30.3102 101.448 43.0256 106.873 56.35 107.06H265.2C278.525 106.873 291.24 101.448 300.596 91.9597C309.953 82.471 315.198 69.6808 315.198 56.355C315.198 43.0292 309.953 30.2389 300.596 20.7503C291.24 11.2616 278.525 5.83712 265.2 5.64999H56.35Z" fill="#4329B5"/>
<path d="M260.55 0H51.71C23.1514 0 0 23.1514 0 51.71C0 80.2686 23.1514 103.42 51.71 103.42H260.55C289.109 103.42 312.26 80.2686 312.26 51.71C312.26 23.1514 289.109 0 260.55 0Z" fill="#F5F5F5"/>
<path d="M46.33 66.56L46.05 35.69L54.22 36.02L65.74 51.13L65.85 36.13L74.26 35.82L74 66.31H65.86L54.6 51.11L54.74 66.25L46.33 66.56ZM47.06 36.73L47.32 65.52L53.73 65.29L53.57 48L66.37 65.27H73L73.22 36.8L66.81 37.03L66.69 54.03L53.71 37L47.06 36.73Z" fill="#4329B5"/>
<path d="M90.26 66.58C87.5533 66.5794 84.8992 65.8319 82.59 64.42C80.2418 63.0312 78.2735 61.0834 76.86 58.75C75.4552 56.4896 74.7104 53.8814 74.71 51.22C74.7064 48.5675 75.4516 45.9678 76.86 43.72C78.2756 41.4137 80.2498 39.5015 82.6 38.16C84.9248 36.8035 87.5683 36.0891 90.26 36.09C92.9261 36.0908 95.5435 36.8056 97.84 38.16C100.161 39.5032 102.107 41.4082 103.5 43.7C104.887 45.9627 105.617 48.5662 105.61 51.22C105.615 53.9018 104.885 56.5337 103.5 58.83C102.122 61.1535 100.178 63.0904 97.85 64.46C95.5615 65.8476 92.9363 66.5809 90.26 66.58ZM90.26 37.09C87.7456 37.0759 85.2733 37.7354 83.1 39C80.8945 40.2567 79.0408 42.0484 77.71 44.21C76.3973 46.3084 75.7041 48.7349 75.71 51.21C75.711 53.6842 76.4038 56.1087 77.71 58.21C79.0409 60.3996 80.8881 62.2296 83.09 63.54C85.2492 64.8481 87.7254 65.5398 90.25 65.54C92.7451 65.5315 95.1902 64.8398 97.32 63.54C99.5091 62.2544 101.336 60.4343 102.63 58.25C103.935 56.1152 104.627 53.6622 104.63 51.16C104.628 48.6859 103.936 46.2615 102.63 44.16C101.331 42.0206 99.511 40.2454 97.34 39C95.1944 37.7388 92.7487 37.079 90.26 37.09ZM90 58.94C88.6215 58.9598 87.2622 58.6148 86.06 57.94C84.9112 57.2749 83.9642 56.3107 83.32 55.15C82.6389 53.9285 82.2938 52.5483 82.32 51.15C82.308 49.8104 82.6532 48.4919 83.32 47.33C83.9649 46.2042 84.9101 45.2798 86.05 44.66C87.2258 44.0008 88.552 43.6564 89.9 43.66C91.2943 43.6668 92.6665 44.0099 93.9 44.66C95.0977 45.2767 96.1092 46.2019 96.83 47.34C97.5865 48.4932 97.9929 49.8408 98 51.22C98.013 52.6064 97.6353 53.9684 96.91 55.15C96.1914 56.3058 95.1898 57.2592 94 57.92C92.7773 58.6002 91.3991 58.9516 90 58.94ZM89.88 44.73C88.7076 44.7163 87.5511 45.002 86.52 45.56C85.5412 46.0975 84.7284 46.893 84.17 47.86C83.5929 48.87 83.2992 50.017 83.32 51.18C83.3028 52.3959 83.6026 53.5953 84.19 54.66C84.7461 55.6639 85.5655 56.4971 86.56 57.07C87.6089 57.6607 88.7964 57.961 90 57.94C91.2173 57.9479 92.4159 57.6413 93.48 57.05C94.5138 56.4686 95.3814 55.632 96 54.62C96.6261 53.5973 96.9519 52.4191 96.94 51.22C96.9501 50.0431 96.624 48.8878 96 47.89C95.3755 46.9039 94.4985 46.1028 93.46 45.57C92.362 45.0071 91.1438 44.7188 89.91 44.73H89.88Z" fill="#4329B5"/>
<path d="M105.54 66.56L105.26 35.69L113.43 36.02L125 51.13L125.1 36.13L133.51 35.82L133.28 66.33H125.12L113.8 51.11L114 66.25L105.54 66.56ZM106.27 36.73L106.53 65.52L112.94 65.29L112.77 48L125.57 65.27H132.24L132.46 36.8L126.05 37.03L125.93 54.03L112.92 37L106.27 36.73Z" fill="#4329B5"/>
<path d="M134.16 66.32L133.16 36.32L154.31 35.63L154.92 44.28L142 44.42L142.1 46.42L152.83 46.19L153.26 54.83L142.61 55.06L142.75 57.68L155.34 57.18V65.83L134.16 66.32ZM134.16 37.26L135.16 65.26L154.35 64.82V58.23L141.81 58.73L141.56 54.09L152.22 53.86L151.89 47.22L141.16 47.45L140.95 43.45L153.86 43.3L153.39 36.67L134.16 37.26Z" fill="#4329B5"/>
<path d="M181.05 66.58C178.344 66.5768 175.69 65.8296 173.38 64.42C171.037 63.0282 169.072 61.0809 167.66 58.75C166.252 56.4904 165.504 53.8823 165.5 51.22C165.5 48.5666 166.249 45.967 167.66 43.72C169.069 41.4122 171.041 39.4993 173.39 38.16C175.715 36.8035 178.358 36.0891 181.05 36.09C183.72 36.0895 186.34 36.8043 188.64 38.16C190.957 39.5045 192.9 41.4094 194.29 43.7C195.684 45.9598 196.419 48.5646 196.41 51.22C196.415 53.9018 195.685 56.5337 194.3 58.83C192.914 61.1507 190.968 63.0866 188.64 64.46C186.352 65.849 183.726 66.5824 181.05 66.58ZM181.05 37.09C178.536 37.0783 176.064 37.7377 173.89 39C171.69 40.2601 169.84 42.0513 168.51 44.21C167.198 46.3086 166.505 48.7349 166.51 51.21C166.516 53.6835 167.208 56.1068 168.51 58.21C169.845 60.4 171.695 62.2299 173.9 63.54C176.044 64.8443 178.505 65.5341 181.015 65.5341C183.525 65.5341 185.986 64.8443 188.13 63.54C190.316 62.2506 192.142 60.4313 193.44 58.25C194.745 56.1152 195.437 53.6622 195.44 51.16C195.438 48.6859 194.746 46.2615 193.44 44.16C192.132 42.0212 190.305 40.2465 188.13 39C185.985 37.7374 183.539 37.0775 181.05 37.09ZM180.82 58.94C179.445 58.9599 178.089 58.6149 176.89 57.94C175.738 57.2751 174.788 56.3111 174.14 55.15C173.463 53.9269 173.118 52.5478 173.14 51.15C173.128 49.8104 173.473 48.4919 174.14 47.33C174.792 46.2061 175.74 45.2825 176.88 44.66C178.055 43.9995 179.382 43.655 180.73 43.66C182.124 43.668 183.496 44.011 184.73 44.66C185.925 45.2769 186.933 46.2023 187.65 47.34C188.375 48.4961 188.753 49.8356 188.74 51.2C188.753 52.5864 188.375 53.9484 187.65 55.13C186.94 56.2856 185.945 57.2394 184.76 57.9C183.557 58.5784 182.201 58.9365 180.82 58.94ZM180.71 44.73C179.534 44.715 178.374 45.0007 177.34 45.56C176.361 46.0975 175.548 46.893 174.99 47.86C174.417 48.8718 174.124 50.0176 174.14 51.18C174.123 52.3959 174.423 53.5953 175.01 54.66C175.572 55.6625 176.395 56.495 177.39 57.07C178.435 57.6621 179.619 57.9626 180.82 57.94C182.038 57.9511 183.237 57.6443 184.3 57.05C185.338 56.47 186.209 55.6333 186.83 54.62C187.456 53.5973 187.782 52.4191 187.77 51.22C187.785 50.0425 187.459 48.8858 186.83 47.89C186.208 46.9016 185.331 46.1 184.29 45.57C183.184 45.0008 181.954 44.7123 180.71 44.73Z" fill="#4329B5"/>
<path d="M204.71 66.35H196.06V36.63L216.23 36.27V44.91L204.07 45.21L204.15 47.58L213.15 47.47L213.84 56.1L204.38 56.22L204.71 66.35ZM197.06 65.35H203.68L203.38 55.23L212.79 55.12L212.25 48.48L203.18 48.59L203 44.24L215.2 43.93V37.29L197.03 37.61L197.06 65.35Z" fill="#4329B5"/>
<path d="M234.83 66.31H226.42L226.66 36.31H235.07L234.83 66.31ZM227.43 65.31H233.84L234.06 37.31H227.65L227.43 65.31Z" fill="#4329B5"/>
<path d="M243.69 66.6L243.61 44.74L235.7 44.93L235.1 36.29L260.1 35.7L260.79 44.33L252.2 44.53L252.27 66.21L243.69 66.6ZM244.61 43.72L244.69 65.55L251.25 65.26L251.17 43.55L259.69 43.36L259.16 36.72L236.16 37.27L236.62 43.91L244.61 43.72Z" fill="#4329B5"/>
<path d="M265.43 66.46C264.548 66.4623 263.683 66.22 262.93 65.76C262.171 65.3063 261.541 64.666 261.1 63.9C260.651 63.1362 260.417 62.2658 260.42 61.38C260.404 60.7323 260.528 60.0887 260.783 59.4933C261.038 58.8979 261.419 58.3646 261.9 57.93C262.925 57.0283 264.256 56.5525 265.62 56.6C266.871 56.5436 268.094 56.9859 269.02 57.83C269.456 58.262 269.797 58.7806 270.021 59.3524C270.245 59.9242 270.347 60.5365 270.32 61.15C270.349 62.5376 269.844 63.8834 268.91 64.91C268.476 65.4035 267.94 65.7974 267.339 66.0649C266.739 66.3324 266.087 66.4672 265.43 66.46ZM265.62 57.6C264.503 57.5486 263.41 57.9321 262.57 58.67C262.193 59.0111 261.895 59.4302 261.696 59.8982C261.498 60.3662 261.403 60.8719 261.42 61.38C261.421 62.0825 261.607 62.7723 261.96 63.38C262.318 64.0011 262.831 64.5181 263.45 64.88C264.052 65.2483 264.744 65.4422 265.45 65.44C265.969 65.4477 266.483 65.3415 266.956 65.129C267.43 64.9165 267.851 64.6028 268.19 64.21C268.961 63.3727 269.373 62.2674 269.34 61.13C269.364 60.6508 269.288 60.1718 269.116 59.7239C268.944 59.2761 268.679 58.8693 268.34 58.53C267.97 58.2037 267.539 57.9536 267.073 57.794C266.606 57.6344 266.112 57.5685 265.62 57.6ZM261.35 56.6L260.63 36.25H270L269.84 56.25L261.35 56.6ZM261.67 37.25L262.32 55.56L268.86 55.29L269.01 37.29L261.67 37.25Z" fill="#4329B5"/>
<path d="M71.45 34L71.22 63.49H63.81L51.81 47.25L51.96 63.45L44.55 63.72L44.26 33.9L51.67 34.21L63.93 50.29L64.04 34.29L71.45 34Z" fill="#4329B5"/>
<path d="M80.54 61.69C78.2691 60.3402 76.3662 58.4511 75 56.19C73.6351 54.0071 72.9109 51.4845 72.91 48.91C72.9084 46.3508 73.6331 43.8436 75 41.68C76.3647 39.4431 78.2742 37.5887 80.55 36.29C82.7969 34.9731 85.3557 34.2824 87.96 34.29C90.5425 34.2812 93.079 34.9723 95.3 36.29C97.5502 37.5894 99.4353 39.4366 100.78 41.66C102.108 43.8434 102.801 46.3543 102.78 48.91C102.802 51.5004 102.11 54.0468 100.78 56.27C99.4445 58.5242 97.5591 60.4028 95.3 61.73C93.0761 63.0777 90.5254 63.7903 87.925 63.7903C85.3246 63.7903 82.7739 63.0777 80.55 61.73L80.54 61.69ZM91.45 55.18C92.5633 54.5626 93.4971 53.6667 94.16 52.58C94.8367 51.4772 95.1837 50.2037 95.16 48.91C95.1823 47.6448 94.8347 46.4006 94.16 45.33C93.4922 44.2631 92.5491 43.396 91.43 42.82C90.2486 42.2156 88.937 41.9101 87.61 41.93C86.3502 41.911 85.1067 42.2176 84 42.82C82.9396 43.3994 82.0604 44.2613 81.46 45.31C80.8399 46.3964 80.5222 47.6292 80.54 48.88C80.5255 50.1805 80.8495 51.4625 81.48 52.6C82.0667 53.6806 82.9383 54.5798 84 55.2C85.1227 55.8304 86.3927 56.1513 87.68 56.13C88.9986 56.1526 90.2996 55.8248 91.45 55.18Z" fill="#4329B5"/>
<path d="M130.66 34L130.43 63.49H123L111 47.27L111.15 63.47L103.74 63.74L103.47 33.9L110.88 34.21L123.14 50.29L123.26 34.29L130.66 34Z" fill="#4329B5"/>
<path d="M152.51 55.41V63.05L132.34 63.51L131.34 34.51L151.5 33.86L152.04 41.5L139.13 41.65L139.28 44.65L150 44.41L150.39 52.05L139.73 52.28L139.92 55.91L152.51 55.41Z" fill="#4329B5"/>
<path d="M171.34 61.69C169.063 60.3418 167.153 58.4527 165.78 56.19C164.418 54.0062 163.697 51.4836 163.7 48.91C163.695 46.3517 164.416 43.8444 165.78 41.68C167.148 39.4427 169.061 37.5884 171.34 36.29C173.586 34.9708 176.145 34.28 178.75 34.29C181.329 34.2815 183.862 34.9727 186.08 36.29C188.33 37.5894 190.215 39.4366 191.56 41.66C192.905 43.8384 193.616 46.3495 193.61 48.91C193.616 51.5051 192.907 54.0517 191.56 56.27C190.224 58.5242 188.339 60.4027 186.08 61.73C183.858 63.0779 181.309 63.7906 178.71 63.7906C176.111 63.7906 173.562 63.0779 171.34 61.73V61.69ZM182.24 55.18C183.355 54.5653 184.29 53.6688 184.95 52.58C185.627 51.4771 185.974 50.2037 185.95 48.91C185.972 47.6448 185.625 46.4005 184.95 45.33C184.282 44.2631 183.339 43.396 182.22 42.82C181.039 42.2145 179.727 41.9088 178.4 41.93C177.14 41.9119 175.897 42.2184 174.79 42.82C173.73 43.3994 172.85 44.2613 172.25 45.31C171.633 46.3974 171.319 47.6301 171.34 48.88C171.322 50.1796 171.643 51.4615 172.27 52.6C172.871 53.6837 173.756 54.5827 174.83 55.2C175.956 55.8317 177.229 56.1526 178.52 56.13C179.822 56.1456 181.105 55.818 182.24 55.18Z" fill="#4329B5"/>
<path d="M201.25 42.42L201.36 45.78L210.36 45.67L210.97 53.31L201.54 53.42L201.85 63.54H194.21V34.82L213.38 34.48V42.12L201.25 42.42Z" fill="#4329B5"/>
<path d="M224.85 34.48H232.26L232.03 63.48H224.62L224.85 34.48Z" fill="#4329B5"/>
<path d="M249.37 41.73L249.45 63.43L241.89 63.77L241.81 41.93L233.86 42.12L233.33 34.48L257.33 33.9L257.94 41.54L249.37 41.73Z" fill="#4329B5"/>
<path d="M260.89 63C260.2 62.5937 259.628 62.0147 259.23 61.32C258.826 60.6323 258.615 59.8479 258.62 59.05C258.607 58.4775 258.718 57.9089 258.944 57.3827C259.17 56.8565 259.506 56.385 259.93 56C260.861 55.1819 262.071 54.7524 263.31 54.8C263.867 54.7711 264.424 54.8525 264.949 55.0396C265.474 55.2266 265.957 55.5157 266.37 55.89C266.764 56.2793 267.071 56.7484 267.269 57.2657C267.468 57.7831 267.553 58.3369 267.52 58.89C267.551 60.1525 267.092 61.3781 266.24 62.31C265.851 62.7534 265.371 63.1073 264.832 63.3472C264.294 63.5872 263.71 63.7075 263.12 63.7C262.326 63.6791 261.554 63.4367 260.89 63ZM258.89 34.45H267.25L267.1 53.45L259.57 53.75L258.89 34.45Z" fill="#4329B5"/>
</g>
<defs>
<clipPath id="clip0_0_7942">
<rect width="317.9" height="109.06" fill="white"/>
</clipPath>
</defs>
</svg>
