<svg width="251" height="195" viewBox="0 0 251 195" fill="none" xmlns="http://www.w3.org/2000/svg">
<g clip-path="url(#clip0_0_177)">
<path d="M141.061 191.12C136.847 191.166 132.64 190.764 128.511 189.92L48.3207 171.92C39.0807 169.82 31.8607 160.68 31.8607 151.12V39.3201C31.9801 34.564 33.6585 29.9788 36.6378 26.2696C39.6171 22.5604 43.7323 19.9325 48.3507 18.7901L128.551 1.16009C136.812 -0.388648 145.289 -0.388648 153.551 1.16009L233.751 18.7901C238.367 19.9356 242.481 22.5643 245.46 26.2728C248.438 29.9814 250.118 34.5649 250.241 39.3201V151.07C250.241 160.63 243.011 169.77 233.801 171.87L153.581 189.87C149.464 190.73 145.267 191.149 141.061 191.12ZM141.061 14.0001C137.881 13.9599 134.705 14.2379 131.581 14.8301L51.3607 32.4701C49.8599 32.9236 48.5314 33.8206 47.5497 35.0432C46.5681 36.2658 45.9793 37.7567 45.8607 39.3201V151.07C45.8607 154.07 48.5607 157.57 51.4107 158.22L131.591 176.22C137.842 177.37 144.25 177.37 150.501 176.22L230.711 158.22C233.551 157.58 236.251 154.1 236.251 151.08V39.3201C236.131 37.7545 235.54 36.2618 234.557 35.0377C233.574 33.8135 232.244 32.915 230.741 32.4601L150.551 14.8301C147.419 14.2388 144.237 13.9607 141.051 14.0001H141.061Z" fill="#4070D9"/>
<path d="M232.251 25.6301L152.051 8.00013C144.779 6.65897 137.323 6.65897 130.051 8.00013L49.8607 25.6301C46.7981 26.4244 44.0734 28.1855 42.0917 30.6519C40.1099 33.1183 38.9768 36.1583 38.8607 39.3201V151.07C38.8607 157.39 43.8607 163.67 49.8607 165.07L130.061 183.12C137.33 184.491 144.791 184.491 152.061 183.12L232.251 165C238.251 163.63 243.251 157.35 243.251 151V39.3201C243.135 36.1583 242.002 33.1183 240.02 30.6519C238.038 28.1855 235.313 26.4244 232.251 25.6301Z" fill="#F9F2E8"/>
<path d="M121.881 115.63C121.741 113.17 120.881 111.47 119.241 110.43C115.641 108.15 108.351 108.88 99.7507 112.37C97.7926 113.142 95.7888 113.794 93.7507 114.32C94.0632 114.217 94.3929 114.178 94.7209 114.203C95.0488 114.229 95.3685 114.319 95.6613 114.468C95.9542 114.618 96.2146 114.824 96.4273 115.075C96.64 115.326 96.8009 115.617 96.9007 115.93C98.6007 121.13 98.7907 124.76 98.4107 127.26C99.6707 127.17 100.881 127.1 101.991 127.08C110.141 126.92 116.811 124.88 119.831 121.61C120.575 120.814 121.142 119.87 121.495 118.839C121.848 117.809 121.98 116.715 121.881 115.63ZM118.351 120.25C115.741 123.08 109.451 124.93 101.951 125.08C101.521 125.08 101.061 125.08 100.561 125.08C100.506 121.737 99.9113 118.424 98.8007 115.27L98.6507 114.87C99.3107 114.64 99.9307 114.41 100.501 114.17C104.632 112.338 109.067 111.287 113.581 111.07C115.173 110.983 116.759 111.328 118.171 112.07C118.901 112.53 119.751 113.36 119.881 115.69C119.971 116.516 119.882 117.351 119.617 118.138C119.353 118.926 118.921 119.646 118.351 120.25ZM55.0007 132C55.9387 132.908 56.7768 133.914 57.5007 135C58.3238 136.228 59.0303 137.53 59.6107 138.89V138.95C59.8507 139.27 60.8707 140.54 63.8107 141.55C64.3742 141.739 64.8519 142.123 65.1581 142.632C65.4642 143.142 65.5788 143.744 65.4813 144.33C65.3838 144.917 65.0805 145.449 64.6259 145.832C64.1713 146.215 63.5951 146.423 63.0007 146.42C62.7249 146.417 62.4514 146.37 62.1907 146.28C61.7607 146.13 61.3507 145.97 60.9607 145.81C60.9293 146.37 60.8456 146.926 60.7107 147.47C60.3792 148.762 59.6918 149.936 58.7266 150.857C57.7614 151.778 56.5571 152.409 55.2507 152.68C53.8272 153.029 52.3665 153.204 50.9007 153.2C49.7912 153.196 48.684 153.099 47.5907 152.91C47.2097 154.92 47.5646 157 48.5907 158.77C50.4107 161.77 54.4007 163.39 60.1307 163.46H60.4907C74.0407 163.46 79.2107 153.94 79.7207 152.93C80.1107 151.72 83.0307 141.43 72.1007 135.71C71.1007 135.52 67.4607 134.98 65.4607 137.52C65.2222 137.82 64.9176 138.061 64.5707 138.224C64.2238 138.387 63.8439 138.468 63.4607 138.46C62.9375 138.466 62.4261 138.305 62.0007 138C61.4812 137.589 61.1461 136.988 61.0693 136.33C60.9924 135.672 61.1799 135.01 61.5907 134.49C65.2907 129.81 71.1507 130.49 73.0707 130.88C74.3607 130.63 77.9207 129.97 82.3407 129.27C82.3739 128.355 82.3304 127.438 82.2107 126.53C82.1648 126.202 82.1839 125.868 82.2671 125.547C82.3503 125.226 82.4958 124.924 82.6955 124.66C82.8951 124.395 83.1449 124.172 83.4307 124.004C83.7164 123.836 84.0324 123.726 84.3607 123.68C84.689 123.634 85.0232 123.653 85.3441 123.736C85.665 123.82 85.9664 123.965 86.231 124.165C86.4957 124.364 86.7184 124.614 86.8865 124.9C87.0546 125.186 87.1648 125.502 87.2107 125.83C87.3306 126.718 87.394 127.614 87.4007 128.51C89.3007 128.24 91.2507 127.99 93.1607 127.77C93.6107 126.7 94.2307 123.77 92.1607 117.49C91.9557 116.86 92.009 116.175 92.309 115.584C92.609 114.993 93.1311 114.546 93.7607 114.34C80.3107 117.9 58.3707 120 47.7607 120.34C49.7307 124.33 52.7007 129.77 55.0007 132ZM67.0507 138.82C67.4508 138.382 67.9473 138.043 68.5009 137.829C69.0544 137.616 69.6501 137.534 70.2407 137.59C70.6489 137.593 71.0565 137.623 71.4607 137.68C80.2107 142.44 78.4607 150.31 77.8807 152.23C77.1207 153.67 72.3907 161.52 60.5107 161.52H60.1807C56.6907 161.52 52.1807 160.8 50.3207 157.8C49.8587 157.009 49.5818 156.123 49.5107 155.21C50.0007 155.21 50.5107 155.21 50.9407 155.21C52.5685 155.217 54.1908 155.022 55.7707 154.63C57.3534 154.285 58.8165 153.526 60.0109 152.432C61.2053 151.338 62.0886 149.947 62.5707 148.4C62.7272 148.41 62.8842 148.41 63.0407 148.4C64.0243 148.402 64.9815 148.082 65.7659 147.489C66.5503 146.895 67.1187 146.061 67.3841 145.114C67.6495 144.167 67.5973 143.159 67.2355 142.245C66.8737 141.33 66.2222 140.559 65.3807 140.05C66.0378 139.777 66.623 139.356 67.0907 138.82H67.0507ZM90.2007 118.09C91.5507 122.24 91.6207 124.67 91.4807 125.93L89.2007 126.21L89.1107 125.52C88.9532 124.453 88.419 123.477 87.6047 122.769C86.7904 122.061 85.7497 121.668 84.6707 121.66C84.4577 121.644 84.2438 121.644 84.0307 121.66C83.4437 121.74 82.8783 121.935 82.3672 122.235C81.8562 122.534 81.4096 122.932 81.0534 123.406C80.6973 123.879 80.4385 124.418 80.2921 124.992C80.1457 125.567 80.1147 126.164 80.2007 126.75C80.2007 127 80.2607 127.25 80.2807 127.5C76.7107 128.09 74.0207 128.59 73.0307 128.78C72.0964 128.616 71.1493 128.536 70.2007 128.54C68.2544 128.478 66.3203 128.869 64.5504 129.681C62.7806 130.493 61.2232 131.704 60.0007 133.22C59.7516 133.525 59.5432 133.861 59.3807 134.22L59.1607 133.9C58.3585 132.677 57.4264 131.543 56.3807 130.52C55.0007 129.21 53.0607 126.23 50.9207 122.18C61.4207 121.61 77.8707 119.9 90.0107 117.23C90.0603 117.523 90.1373 117.811 90.2407 118.09H90.2007ZM66.2007 180.68C64.415 180.688 62.6405 180.398 60.9507 179.82C59.0871 179.179 57.278 178.39 55.5407 177.46C55.1939 178.672 55.1629 179.953 55.4507 181.18C60.7107 182.42 71.8207 184.24 77.2207 181.67C80.5207 180.11 82.5707 178.18 82.8607 176.38C82.9429 175.814 82.8559 175.237 82.6107 174.72C79.3907 176.92 72.9207 180.68 66.1907 180.68H66.2007ZM60.5807 168.52H60.1407C57.5358 168.524 54.9445 168.143 52.4507 167.39C53.7307 170.63 56.4507 172.94 62.6107 175.1C69.9407 177.67 79.2007 171.1 81.1607 169.61C81.9107 168.1 84.2607 162.78 82.2607 158.36C79.1907 162.37 72.5407 168.52 60.5707 168.52H60.5807ZM79.5807 168.3C77.7007 169.67 71.6907 173.69 66.2607 173.69C65.2407 173.701 64.2263 173.539 63.2607 173.21C61.1677 172.536 59.1761 171.581 57.3407 170.37C58.2407 170.457 59.1707 170.507 60.1307 170.52H60.5707C70.5707 170.52 77.1307 166.45 81.0307 162.71C80.89 164.648 80.3916 166.543 79.5607 168.3H79.5807ZM47.3407 167.77H45.9007C43.3054 167.803 40.7122 167.609 38.1507 167.19C37.4996 167.057 36.9279 166.672 36.5612 166.117C36.1946 165.563 36.0631 164.886 36.1957 164.235C36.3283 163.584 36.7142 163.012 37.2683 162.646C37.8225 162.279 38.4996 162.147 39.1507 162.28C41.2137 162.614 43.3008 162.778 45.3907 162.77C45.0288 162.342 44.6948 161.891 44.3907 161.42C42.6381 158.432 42.0909 154.888 42.8607 151.51C37.8511 149.224 33.7477 145.332 31.2007 140.45C30.8758 139.871 30.7945 139.186 30.9745 138.546C31.1545 137.907 31.5812 137.365 32.1607 137.04C32.7402 136.715 33.425 136.634 34.0645 136.814C34.704 136.994 35.2458 137.421 35.5707 138C40.4407 146.8 48.4007 149.29 54.1207 147.86C54.561 147.82 54.9781 147.645 55.3147 147.358C55.6513 147.072 55.891 146.688 56.0007 146.26C56.2642 144.521 55.9958 142.744 55.2307 141.16L55.1107 140.91C54.2986 138.939 53.1136 137.142 51.6207 135.62C47.9507 132.12 43.9107 123.92 42.2807 120.43C37.0107 120.64 28.2107 122.5 22.3407 128.5C18.1507 132.78 16.2007 138.5 16.5207 145.57C16.5406 145.739 16.5406 145.911 16.5207 146.08C16.5207 146.34 16.0107 153.01 29.1707 161.49C29.6243 161.783 29.9708 162.215 30.1585 162.721C30.3461 163.228 30.3648 163.781 30.2117 164.299C30.0586 164.817 29.742 165.271 29.3092 165.594C28.8764 165.917 28.3507 166.091 27.8107 166.09C27.3313 166.092 26.8619 165.953 26.4607 165.69C17.0707 159.69 13.5107 154.08 12.2107 150.26C9.03072 153.26 5.01072 158.83 8.28072 166.12C13.9307 178.71 21.5507 185.73 23.7707 186.54C25.7707 187.26 29.7707 187.87 31.9407 186.41C32.4073 186.082 32.8016 185.661 33.0992 185.174C33.3968 184.688 33.5913 184.145 33.6707 183.58C32.1407 182.24 29.6707 179.5 25.7507 173.87C25.5192 173.607 25.3457 173.298 25.2413 172.963C25.137 172.628 25.1043 172.275 25.1453 171.927C25.1862 171.579 25.3 171.243 25.4791 170.942C25.6582 170.64 25.8988 170.38 26.185 170.178C26.4713 169.975 26.797 169.835 27.1409 169.767C27.4848 169.699 27.8392 169.704 28.1811 169.781C28.523 169.859 28.8448 170.007 29.1255 170.217C29.4063 170.427 29.6397 170.694 29.8107 171C34.1807 177.34 36.4207 179.42 37.1507 180C37.594 180.168 37.9723 180.473 38.2307 180.87C38.2307 180.87 41.2307 183.87 50.4307 181.5C49.9807 179.127 50.3068 176.673 51.3607 174.5C49.4285 172.665 48.032 170.338 47.3207 167.77H47.3407ZM25.2207 168.77C24.2411 169.442 23.5679 170.476 23.3486 171.643C23.1293 172.811 23.3818 174.018 24.0507 175C26.2052 178.252 28.6341 181.313 31.3107 184.15C31.185 184.384 31.0029 184.584 30.7807 184.73C29.9835 185.146 29.0887 185.34 28.1907 185.29C26.901 185.284 25.621 185.068 24.4007 184.65C23.0207 184.15 15.6507 177.77 10.0507 165.29C9.18137 163.44 8.86243 161.378 9.13193 159.352C9.40143 157.325 10.248 155.419 11.5707 153.86C13.5707 157.59 17.5707 162.36 25.3007 167.35C25.8183 167.678 26.3964 167.899 27.0007 168C26.3526 168.114 25.7377 168.37 25.2007 168.75L25.2207 168.77ZM48.2607 180C46.873 180.296 45.4594 180.453 44.0407 180.47C42.5246 180.563 41.0138 180.216 39.6907 179.47C39.2955 178.971 38.7931 178.568 38.2207 178.29C37.4807 177.65 35.4007 175.59 31.4607 169.86C30.7729 168.882 29.7275 168.214 28.5507 168C29.1448 167.894 29.7115 167.669 30.2168 167.34C30.7221 167.01 31.1558 166.581 31.4918 166.08C31.8278 165.579 32.0594 165.015 32.1726 164.422C32.2858 163.829 32.2784 163.22 32.1507 162.63C32.0264 162.046 31.7851 161.493 31.4414 161.005C31.0977 160.517 30.6586 160.104 30.1507 159.79C18.7507 152.44 18.4207 146.79 18.4207 146.25C18.4407 146 18.4407 145.75 18.4207 145.5V145.45C18.2007 139 20.0007 133.76 23.7407 129.9C28.4107 125.12 35.5007 123 41.0007 122.51C43.1607 126.99 46.7607 133.8 50.1907 137.07C51.117 138.002 51.899 139.067 52.5107 140.23L53.3307 141.97C53.9026 143.161 54.1344 144.486 54.0007 145.8C53.8788 145.869 53.7474 145.92 53.6107 145.95C52.737 146.165 51.8404 146.272 50.9407 146.27C45.5907 146.27 40.4807 142.83 37.2907 137.07C36.6872 136.078 35.7237 135.358 34.6016 135.06C33.4795 134.762 32.2857 134.909 31.2695 135.471C30.2534 136.032 29.4937 136.965 29.1491 138.074C28.8046 139.182 28.9019 140.381 29.4207 141.42C31.9485 146.196 35.8403 150.112 40.6007 152.67C40.2617 155.387 40.641 158.145 41.7007 160.67C40.8407 160.59 40.0807 160.5 39.4507 160.38C39.1713 160.32 38.8864 160.29 38.6007 160.29C37.556 160.289 36.5436 160.652 35.7371 161.316C34.9306 161.981 34.3804 162.905 34.1807 163.93C34.0635 164.51 34.0633 165.108 34.1801 165.689C34.2968 166.269 34.5282 166.82 34.8607 167.31C35.533 168.304 36.5724 168.991 37.7507 169.22C40.4315 169.656 43.1449 169.86 45.8607 169.83C46.5691 171.725 47.6199 173.475 48.9607 174.99C48.4016 176.598 48.1637 178.3 48.2607 180Z" fill="#4070D9"/>
<path d="M128.871 115.24C128.531 109.24 125.481 106.1 122.981 104.52C120.139 102.843 116.878 102.01 113.581 102.12C107.581 102.12 101.341 104.12 97.1207 105.89C85.7607 110.5 54.8307 113.42 44.8107 113.42H43.3707C35.9407 113.42 24.6607 116.09 17.3007 123.62C12.2507 128.78 9.62072 135.42 9.47072 143.35C2.71072 148.5 -3.07928 158 1.84072 169C8.15072 183.05 17.0007 191.57 21.3207 193.13C23.5226 193.901 25.8377 194.3 28.1707 194.31C30.8327 194.403 33.4627 193.707 35.7307 192.31C37.0667 191.434 38.1851 190.264 39.0007 188.89C40.6354 189.3 42.3154 189.502 44.0007 189.49C47.2554 189.43 50.4848 188.905 53.5907 187.93C58.7602 189.162 64.0474 189.832 69.3607 189.93C71.3944 189.943 73.4255 189.779 75.4307 189.44C77.08 189.17 78.6869 188.686 80.2107 188C87.2707 184.65 89.3007 180.42 89.7707 177.47C90.1298 175.084 89.6264 172.648 88.3507 170.6C89.8407 166.7 91.7407 159.07 87.0707 152.77C87.6341 149.9 87.5981 146.945 86.9648 144.09C86.3315 141.235 85.1147 138.542 83.3907 136.18C89.5868 135.109 95.8412 134.408 102.121 134.08C108.121 133.96 118.991 132.81 124.961 126.37C126.351 124.889 127.417 123.134 128.09 121.218C128.763 119.301 129.029 117.265 128.871 115.24ZM55.4407 181.18C55.1529 179.953 55.1839 178.672 55.5307 177.46C57.268 178.39 59.0771 179.179 60.9407 179.82C62.6305 180.398 64.405 180.688 66.1907 180.68C72.9207 180.68 79.3907 176.92 82.6007 174.68C82.8459 175.197 82.9329 175.774 82.8507 176.34C82.5607 178.14 80.5107 180.07 77.2107 181.63C71.8107 184.24 60.7007 182.42 55.4407 181.18ZM81.1507 169.61C79.1507 171.09 69.9307 177.67 62.6007 175.1C56.4607 172.94 53.7207 170.63 52.4407 167.39C54.9345 168.143 57.5258 168.524 60.1307 168.52H60.5707C72.5707 168.52 79.1907 162.37 82.2507 158.36C84.2507 162.78 81.9007 168.1 81.1507 169.61ZM38.2307 180.91C37.9723 180.513 37.594 180.208 37.1507 180.04C36.4207 179.46 34.1507 177.38 29.8107 171.04C29.6242 170.77 29.3863 170.538 29.1105 170.36C28.8347 170.181 28.5264 170.059 28.2033 169.999C27.8801 169.94 27.5484 169.945 27.2271 170.013C26.9058 170.082 26.6012 170.214 26.3307 170.4C26.0602 170.587 25.8291 170.824 25.6505 171.1C25.4719 171.376 25.3494 171.684 25.29 172.007C25.2306 172.331 25.2354 172.662 25.3041 172.984C25.3729 173.305 25.5042 173.61 25.6907 173.88C29.5807 179.51 32.0807 182.25 33.6107 183.59C33.5313 184.155 33.3368 184.698 33.0392 185.184C32.7416 185.671 32.3473 186.092 31.8807 186.42C29.6707 187.88 25.6907 187.27 23.7107 186.55C21.4907 185.74 13.8707 178.72 8.22072 166.13C5.00072 158.84 9.00072 153.27 12.1507 150.27C13.4507 154.09 17.0107 159.65 26.4007 165.7C26.8019 165.963 27.2713 166.102 27.7507 166.1C28.2907 166.101 28.8164 165.927 29.2492 165.604C29.682 165.281 29.9986 164.827 30.1517 164.309C30.3048 163.791 30.2861 163.238 30.0984 162.731C29.9108 162.225 29.5643 161.793 29.1107 161.5C16.0007 153 16.4407 146.35 16.4607 146.09C16.4806 145.921 16.4806 145.749 16.4607 145.58C16.1407 138.58 18.0907 132.79 22.2807 128.51C28.1507 122.51 36.9507 120.65 42.2207 120.44C43.8507 123.93 47.8907 132.13 51.5607 135.63C53.0536 137.152 54.2386 138.949 55.0507 140.92L55.1707 141.17C55.9358 142.754 56.2042 144.531 55.9407 146.27C55.8393 146.696 55.6094 147.081 55.2821 147.373C54.9549 147.664 54.546 147.848 54.1107 147.9C48.3907 149.33 40.4307 146.84 35.5607 138.04C35.2245 137.49 34.689 137.092 34.066 136.927C33.443 136.763 32.7806 136.845 32.2169 137.158C31.6533 137.47 31.2319 137.987 31.0407 138.603C30.8495 139.218 30.9032 139.883 31.1907 140.46C33.7334 145.344 37.8333 149.24 42.8407 151.53C42.0709 154.908 42.6181 158.452 44.3707 161.44C44.6748 161.911 45.0088 162.362 45.3707 162.79C43.2808 162.798 41.1937 162.634 39.1307 162.3C38.8083 162.234 38.4762 162.233 38.1532 162.296C37.8302 162.358 37.5227 162.484 37.2483 162.666C36.6942 163.032 36.3083 163.604 36.1757 164.255C36.1101 164.577 36.1085 164.91 36.1712 165.233C36.234 165.556 36.3597 165.863 36.5412 166.137C36.7228 166.412 36.9566 166.648 37.2293 166.832C37.502 167.016 37.8083 167.144 38.1307 167.21C40.6922 167.629 43.2854 167.823 45.8807 167.79H47.3007C47.9991 170.357 49.3816 172.687 51.3007 174.53C50.2468 176.703 49.9207 179.157 50.3707 181.53C41.2607 184 38.2407 180.91 38.2307 180.91ZM98.4007 127.26C98.7807 124.76 98.5907 121.13 96.8907 115.93C96.8028 115.603 96.6492 115.296 96.4393 115.03C96.2293 114.764 95.9673 114.543 95.6693 114.381C95.3713 114.219 95.0435 114.12 94.7059 114.089C94.3682 114.057 94.0277 114.095 93.7051 114.2C93.3825 114.304 93.0846 114.474 92.8294 114.697C92.5743 114.92 92.3672 115.193 92.2209 115.499C92.0746 115.805 91.992 116.138 91.9782 116.476C91.9644 116.815 92.0197 117.153 92.1407 117.47C94.1407 123.77 93.5707 126.68 93.1407 127.75C91.2307 127.97 89.2807 128.22 87.3807 128.49C87.374 127.594 87.3105 126.698 87.1907 125.81C87.0979 125.147 86.7455 124.548 86.211 124.145C85.6765 123.742 85.0038 123.567 84.3407 123.66C83.6777 123.753 83.0787 124.105 82.6755 124.64C82.2723 125.174 82.0979 125.847 82.1907 126.51C82.3104 127.418 82.3539 128.335 82.3207 129.25C77.9007 129.95 74.3207 130.61 73.0507 130.86C71.1307 130.48 65.2707 129.79 61.5707 134.47C61.3653 134.729 61.2134 135.027 61.1238 135.345C61.0342 135.664 61.0086 135.997 61.0486 136.325C61.0886 136.653 61.1933 136.97 61.3568 137.258C61.5202 137.545 61.7391 137.798 62.0007 138C62.4403 138.352 62.9875 138.543 63.5507 138.54C63.9339 138.548 64.3138 138.467 64.6607 138.304C65.0076 138.141 65.3122 137.9 65.5507 137.6C67.5507 135.06 71.2207 135.6 72.1907 135.79C83.1207 141.51 80.1907 151.79 79.8107 153.01C79.3007 154.01 74.1307 163.54 60.5807 163.54H60.2207C54.4907 163.47 50.5007 161.85 48.6807 158.85C47.6546 157.08 47.2997 155 47.6807 152.99C48.774 153.179 49.8812 153.276 50.9907 153.28C52.4564 153.284 53.9172 153.109 55.3407 152.76C56.6471 152.489 57.8513 151.858 58.8166 150.937C59.7818 150.016 60.4692 148.842 60.8007 147.55C60.9356 147.006 61.0193 146.45 61.0507 145.89C61.4407 146.05 61.8507 146.21 62.2807 146.36C62.5414 146.45 62.8149 146.497 63.0907 146.5C63.6851 146.503 64.2613 146.295 64.7159 145.912C65.1705 145.529 65.4738 144.997 65.5713 144.41C65.6688 143.824 65.5542 143.222 65.2481 142.712C64.9419 142.203 64.4642 141.819 63.9007 141.63C60.9607 140.63 59.9007 139.35 59.7007 139.03V138.97C59.1088 137.581 58.3855 136.252 57.5407 135C56.8168 133.914 55.9787 132.908 55.0407 132C52.7007 129.77 49.7307 124.33 47.7707 120.35C58.3507 119.98 80.2907 117.88 93.7707 114.35C95.8088 113.824 97.8125 113.172 99.7707 112.4C108.371 108.91 115.661 108.18 119.261 110.46C120.901 111.46 121.761 113.2 121.901 115.66C122.001 116.749 121.87 117.847 121.515 118.881C121.159 119.915 120.589 120.863 119.841 121.66C116.841 124.93 110.151 126.97 102.001 127.13C100.871 127.1 99.6607 127.17 98.4007 127.26Z" fill="#4070D9"/>
<path d="M119.821 121.61C116.821 124.88 110.131 126.92 101.981 127.08C100.871 127.08 99.6607 127.17 98.4007 127.26C98.7807 124.76 98.5907 121.13 96.8907 115.93C96.7909 115.617 96.63 115.326 96.4173 115.075C96.2046 114.824 95.9442 114.618 95.6513 114.468C95.3585 114.319 95.0388 114.229 94.7109 114.203C94.3829 114.178 94.0532 114.217 93.7407 114.32C95.7788 113.794 97.7826 113.142 99.7407 112.37C108.341 108.88 115.631 108.15 119.231 110.43C120.871 111.43 121.731 113.17 121.871 115.63C121.97 116.715 121.838 117.809 121.485 118.839C121.132 119.87 120.565 120.814 119.821 121.61Z" fill="#F9F2E8"/>
<path d="M82.8507 176.38C82.5607 178.18 80.5107 180.11 77.2107 181.67C71.8107 184.24 60.7007 182.42 55.4407 181.18C55.1529 179.953 55.1839 178.672 55.5307 177.46C57.268 178.39 59.0771 179.179 60.9407 179.82C62.6305 180.398 64.405 180.688 66.1907 180.68C72.9207 180.68 79.3907 176.92 82.6007 174.68C82.8539 175.208 82.941 175.801 82.8507 176.38Z" fill="#F9F2E8"/>
<path d="M81.1507 169.61C79.1507 171.09 69.9307 177.67 62.6007 175.1C56.4607 172.94 53.7207 170.63 52.4407 167.39C54.9345 168.143 57.5257 168.524 60.1307 168.52H60.5707C72.5707 168.52 79.1907 162.37 82.2507 158.36C84.2507 162.78 81.9007 168.1 81.1507 169.61Z" fill="#F9F2E8"/>
<path d="M92.1407 117.47C94.1407 123.77 93.5707 126.68 93.1407 127.75C91.2307 127.97 89.2807 128.22 87.3807 128.49C87.374 127.594 87.3105 126.699 87.1907 125.81C87.0979 125.147 86.7455 124.548 86.211 124.145C85.6765 123.742 85.0037 123.567 84.3407 123.66C83.6777 123.753 83.0787 124.105 82.6755 124.64C82.2723 125.174 82.0979 125.847 82.1907 126.51C82.3104 127.418 82.3539 128.335 82.3207 129.25C77.9007 129.95 74.3207 130.61 73.0507 130.86C71.1307 130.48 65.2707 129.79 61.5707 134.47C61.3653 134.729 61.2134 135.027 61.1238 135.345C61.0341 135.664 61.0086 135.997 61.0486 136.325C61.0886 136.653 61.1933 136.97 61.3568 137.258C61.5202 137.545 61.7391 137.798 62.0007 138C62.4403 138.352 62.9875 138.543 63.5507 138.54C63.9339 138.548 64.3138 138.467 64.6607 138.304C65.0076 138.141 65.3122 137.9 65.5507 137.6C67.5507 135.06 71.2207 135.6 72.1907 135.79C83.1207 141.51 80.1907 151.79 79.8107 153.01C79.3007 154.01 74.1307 163.54 60.5807 163.54H60.2207C54.4907 163.47 50.5007 161.85 48.6807 158.85C47.6546 157.08 47.2997 155 47.6807 152.99C48.774 153.179 49.8812 153.276 50.9907 153.28C52.4564 153.284 53.9172 153.109 55.3407 152.76C56.6471 152.489 57.8513 151.858 58.8165 150.937C59.7818 150.016 60.4692 148.842 60.8007 147.55C60.9356 147.006 61.0193 146.45 61.0507 145.89C61.4407 146.05 61.8507 146.21 62.2807 146.36C62.5414 146.45 62.8149 146.497 63.0907 146.5C63.6851 146.504 64.2613 146.295 64.7159 145.912C65.1705 145.529 65.4738 144.997 65.5713 144.41C65.6688 143.824 65.5542 143.222 65.2481 142.713C64.9419 142.203 64.4642 141.819 63.9007 141.63C60.9607 140.63 59.9007 139.35 59.7007 139.03V138.97C59.1088 137.581 58.3855 136.252 57.5407 135C56.8168 133.914 55.9787 132.908 55.0407 132C52.7007 129.77 49.7307 124.33 47.7707 120.35C58.3507 119.98 80.2907 117.88 93.7707 114.35C93.1425 114.55 92.6188 114.99 92.3135 115.575C92.0082 116.159 91.9461 116.84 92.1407 117.47Z" fill="#F9F2E8"/>
<path d="M56.0007 146.26C55.8993 146.686 55.6694 147.071 55.3421 147.363C55.0149 147.654 54.606 147.838 54.1707 147.89C48.4507 149.32 40.4907 146.83 35.6207 138.03C35.2845 137.48 34.749 137.082 34.126 136.917C33.503 136.753 32.8406 136.835 32.2769 137.148C31.7133 137.46 31.2919 137.977 31.1007 138.593C30.9095 139.208 30.9632 139.873 31.2507 140.45C33.7934 145.334 37.8933 149.23 42.9007 151.52C42.1309 154.898 42.6781 158.442 44.4307 161.43C44.7348 161.901 45.0688 162.352 45.4307 162.78C43.3408 162.788 41.2537 162.624 39.1907 162.29C38.8683 162.224 38.5362 162.223 38.2132 162.286C37.8902 162.348 37.5827 162.474 37.3083 162.656C37.0339 162.837 36.798 163.071 36.6139 163.344C36.4299 163.616 36.3014 163.923 36.2357 164.245C36.1701 164.567 36.1685 164.9 36.2313 165.223C36.294 165.546 36.4197 165.853 36.6012 166.127C36.7828 166.402 37.0166 166.638 37.2893 166.822C37.562 167.006 37.8683 167.134 38.1907 167.2C40.7522 167.619 43.3454 167.813 45.9407 167.78H47.3607C48.0591 170.348 49.4416 172.677 51.3607 174.52C50.3068 176.693 49.9807 179.147 50.4307 181.52C41.2607 183.93 38.2407 180.89 38.2307 180.89C37.9723 180.493 37.594 180.188 37.1507 180.02C36.4207 179.44 34.1507 177.36 29.8107 171.02C29.4341 170.474 28.8559 170.099 28.2033 169.979C27.5506 169.859 26.8771 170.003 26.3307 170.38C25.7844 170.757 25.41 171.335 25.29 171.988C25.17 172.64 25.3141 173.314 25.6907 173.86C29.5807 179.49 32.0807 182.23 33.6107 183.57C33.5313 184.135 33.3368 184.678 33.0392 185.164C32.7416 185.651 32.3473 186.072 31.8807 186.4C29.6707 187.86 25.6907 187.25 23.7107 186.53C21.4907 185.72 13.8707 178.7 8.22072 166.11C5.00072 158.84 9.00072 153.27 12.1507 150.27C13.4507 154.09 17.0107 159.65 26.4007 165.7C26.8019 165.963 27.2713 166.102 27.7507 166.1C28.2907 166.101 28.8164 165.927 29.2492 165.604C29.682 165.281 29.9986 164.827 30.1517 164.309C30.3048 163.791 30.2861 163.238 30.0984 162.731C29.9108 162.225 29.5643 161.793 29.1107 161.5C16.0007 153 16.4407 146.35 16.4607 146.09C16.4806 145.921 16.4806 145.749 16.4607 145.58C16.1407 138.58 18.0907 132.79 22.2807 128.51C28.1507 122.51 36.9507 120.65 42.2207 120.44C43.8507 123.93 47.8907 132.13 51.5607 135.63C53.0536 137.152 54.2386 138.949 55.0507 140.92L55.1707 141.17C55.9543 142.744 56.2436 144.519 56.0007 146.26Z" fill="#F9F2E8"/>
<path d="M59.6307 91.5001V85.2701H61.5307V68.1701H59.6307V61.9401H74.0707V68.1701H72.1707V85.2701H74.0707V91.5001H59.6307Z" fill="#4070D9"/>
<path d="M119.461 61.9401H131.621V68.1701H130.101L124.441 91.5001H113.081L109.621 75.0801H109.241L105.601 91.5001H94.2407L88.2407 68.1701H86.6807V61.9401H100.681V68.1701H99.2907L100.771 77.8601H101.151L104.761 61.9401H115.701L119.001 77.8601H119.381L120.871 68.1701H119.421L119.461 61.9401Z" fill="#4070D9"/>
<path d="M156.161 85.2701H157.681V91.5001H142.791V85.2701H145.071L144.461 82.2701H139.291L138.681 85.2701H141.001V91.5001H128.001V85.2701H129.521L135.941 61.9401H149.771L156.161 85.2701ZM140.161 78.2001H143.651L142.091 70.6401H141.711L140.161 78.2001Z" fill="#4070D9"/>
<path d="M180.771 61.9401H193.231V68.1701H191.341V91.5001H180.661L169.531 74.3601V85.2701H171.351V91.5001H158.891V85.2701H160.791V68.1701H158.891V61.9401H172.611L182.611 77.1701V68.1701H180.781L180.771 61.9401Z" fill="#4070D9"/>
<path d="M223.001 71.1301H216.461V68.1301H214.031V85.2301H216.691V91.5001H200.691V85.2701H203.341V68.1701H201.001V71.1701H194.471V61.9401H223.001V71.1301Z" fill="#4070D9"/>
<path d="M149.141 104.31H160.801V110.54H159.281L152.001 123.69V127.69H153.901V133.92H139.411V127.69H141.311V123.69L133.751 110.54H132.231V104.31H146.931V110.54H145.611L147.851 116.43H148.231L150.471 110.54H149.141V104.31Z" fill="#4070D9"/>
<path d="M164.431 130.75C161.911 128.317 160.651 124.43 160.651 119.09C160.651 113.75 161.911 109.863 164.431 107.43C166.951 104.997 170.527 103.78 175.161 103.78C179.794 103.78 183.371 104.997 185.891 107.43C188.411 109.857 189.671 113.743 189.671 119.09C189.671 124.437 188.411 128.323 185.891 130.75C183.371 133.183 179.794 134.4 175.161 134.4C170.527 134.4 166.951 133.183 164.431 130.75ZM177.101 127C177.577 126.401 177.806 125.642 177.741 124.88V113.35C177.806 112.588 177.577 111.829 177.101 111.23C176.553 110.783 175.868 110.539 175.161 110.539C174.454 110.539 173.769 110.783 173.221 111.23C172.745 111.829 172.516 112.588 172.581 113.35V124.83C172.511 125.599 172.74 126.366 173.221 126.97C173.481 127.209 173.787 127.392 174.121 127.507C174.455 127.622 174.809 127.668 175.161 127.64C175.511 127.673 175.864 127.634 176.198 127.524C176.532 127.413 176.839 127.235 177.101 127Z" fill="#4070D9"/>
<path d="M196.001 131.78C193.831 130.03 192.751 127.2 192.751 123.27V110.54H190.851V104.31H204.911V110.54H203.391V125.21C203.334 125.871 203.53 126.529 203.941 127.05C204.406 127.432 204.989 127.641 205.591 127.641C206.192 127.641 206.776 127.432 207.241 127.05C207.651 126.529 207.848 125.871 207.791 125.21V110.54H206.271V104.31H219.271V110.54H217.371V123.27C217.371 127.2 216.321 130.03 214.221 131.78C212.121 133.53 209.111 134.4 205.221 134.4C201.331 134.4 198.121 133.53 196.001 131.78Z" fill="#4070D9"/>
</g>
<defs>
<clipPath id="clip0_0_177">
<rect width="250.25" height="194.31" fill="white"/>
</clipPath>
</defs>
</svg>
