<svg width="239" height="121" viewBox="0 0 239 121" fill="none" xmlns="http://www.w3.org/2000/svg">
<g clip-path="url(#clip0_0_7966)">
<path d="M185.75 0H64.49C50.5917 -2.52989e-07 37.2626 5.52038 27.4341 15.347C17.6056 25.1736 12.0827 38.5017 12.08 52.4C12.0634 63.7063 15.7203 74.712 22.5 83.76L0 120.18L37.25 97.18C45.4536 102.184 54.8804 104.825 64.49 104.81H185.75C199.648 104.81 212.977 99.2896 222.806 89.463C232.634 79.6364 238.157 66.3083 238.16 52.41C238.16 45.5274 236.804 38.7122 234.171 32.3536C231.537 25.9949 227.676 20.2173 222.809 15.3505C217.943 10.4838 212.165 6.62332 205.806 3.98947C199.448 1.35562 192.633 0 185.75 0Z" fill="#4329B5"/>
<path d="M59.73 30.48L55.73 30.05V35.41H52.1V21.78H55.7V26.47L59.7 26.89V21.83L63.3 21.76L63.39 35.56H59.79L59.73 30.48Z" fill="white"/>
<path d="M71 35.43V34.59C70.6394 34.8806 70.2295 35.1042 69.79 35.25C69.3179 35.4169 68.8207 35.5015 68.32 35.5C67.5389 35.5028 66.7741 35.2768 66.12 34.85C65.4462 34.4041 64.8958 33.7953 64.52 33.08C64.1262 32.3238 63.9236 31.4826 63.93 30.63C63.9192 29.7681 64.1292 28.9178 64.54 28.16C64.9302 27.4388 65.5077 26.8361 66.2116 26.4155C66.9156 25.9949 67.7199 25.7719 68.54 25.77C68.9901 25.7681 69.437 25.846 69.86 26C70.2393 26.1359 70.5817 26.3585 70.86 26.65V25.88H73.86L74.27 35.43H71ZM69.81 32.25C70.0998 32.0569 70.3342 31.7915 70.49 31.48C70.6582 31.1734 70.7475 30.8297 70.75 30.48C70.7574 30.2517 70.7187 30.0242 70.6362 29.8111C70.5538 29.5981 70.4292 29.4038 70.27 29.24C70.1152 29.0791 69.9285 28.9524 69.7218 28.868C69.5151 28.7836 69.2931 28.7434 69.07 28.75C68.8144 28.7478 68.5609 28.7962 68.3241 28.8923C68.0873 28.9884 67.8718 29.1303 67.69 29.31C67.4996 29.475 67.3474 29.6794 67.2438 29.9091C67.1402 30.1387 67.0877 30.3881 67.09 30.64C67.0941 30.9656 67.1875 31.2838 67.36 31.56C67.5269 31.8501 67.7599 32.0968 68.04 32.28C68.298 32.4505 68.6007 32.5409 68.91 32.54C69.2185 32.5278 69.517 32.4271 69.77 32.25H69.81Z" fill="white"/>
<path d="M83.05 25.84L80.46 35.43H76.08L74.08 25.83H77.54L78.54 31.31L79.65 25.84H83.05Z" fill="white"/>
<path d="M90.7499 27.08C91.6205 28.0629 92.0695 29.3488 91.9999 30.66C91.9999 30.92 91.9999 31.11 91.9999 31.24L85.6299 31.31C85.7575 31.6818 85.962 32.0225 86.2299 32.31C86.4699 32.5591 86.7947 32.709 87.1399 32.73C87.5321 32.8017 87.9365 32.7609 88.3064 32.6122C88.6763 32.4636 88.9965 32.2132 89.2299 31.89L91.7999 32.63C91.6404 33.2077 91.3298 33.7324 90.8999 34.15C90.4444 34.5892 89.9031 34.9296 89.3099 35.15C88.7037 35.3987 88.0552 35.5277 87.3999 35.53H87.0299C86.2077 35.4706 85.4167 35.1908 84.7399 34.72C84.0114 34.2492 83.4131 33.6027 82.9999 32.84C82.5824 32.0556 82.3691 31.1786 82.3799 30.29C82.3678 30.1503 82.3678 30.0097 82.3799 29.87C82.4132 29.1092 82.663 28.3737 83.0999 27.75C83.5447 27.1257 84.1397 26.6235 84.8299 26.29C85.5705 25.9398 86.3808 25.762 87.1999 25.77C87.8508 25.7235 88.5041 25.8163 89.1162 26.0422C89.7284 26.2681 90.2853 26.6219 90.7499 27.08ZM85.6199 29.08H88.6199C88.5865 28.7697 88.4364 28.4837 88.1999 28.28C87.9741 28.0895 87.6945 27.9741 87.3999 27.95C87.0125 27.9012 86.6204 27.9922 86.2941 28.2067C85.9678 28.4212 85.7288 28.745 85.6199 29.12V29.08Z" fill="white"/>
<path d="M107.8 25.63L105.28 35C104.935 36.3379 104.246 37.5619 103.28 38.55C102.889 38.9486 102.422 39.2646 101.907 39.4793C101.391 39.694 100.838 39.8031 100.28 39.8C99.7591 39.7964 99.241 39.7224 98.74 39.58C98.2076 39.446 97.6913 39.2549 97.2 39.01L98.01 35.64C98.3107 35.8674 98.6493 36.0401 99.01 36.15C99.378 36.2739 99.7619 36.3446 100.15 36.36C100.399 36.368 100.645 36.3091 100.863 36.1895C101.081 36.0699 101.263 35.8939 101.39 35.68L97.39 25.87L100.91 25.79L102.75 31.11L104.13 25.75L107.8 25.63Z" fill="white"/>
<path d="M109.76 34.8C108.993 34.345 108.358 33.6968 107.92 32.92C107.476 32.1579 107.241 31.292 107.24 30.41C107.22 29.4999 107.49 28.6071 108.01 27.86C108.499 27.1581 109.16 26.5934 109.93 26.22C110.661 25.8596 111.465 25.6682 112.28 25.66C113.214 25.6401 114.139 25.8423 114.98 26.25C115.724 26.6155 116.344 27.1931 116.76 27.91C117.192 28.6782 117.41 29.5487 117.39 30.43C117.404 31.3348 117.173 32.2265 116.72 33.01C116.287 33.7711 115.659 34.4028 114.9 34.84C114.116 35.282 113.23 35.5097 112.33 35.5C111.425 35.509 110.535 35.2666 109.76 34.8ZM113.69 32C113.86 31.8245 113.992 31.6159 114.078 31.387C114.165 31.1582 114.202 30.9141 114.19 30.67C114.203 30.1716 114.037 29.6852 113.72 29.3C113.546 29.1072 113.33 28.9566 113.09 28.8596C112.849 28.7626 112.589 28.7217 112.33 28.74C112.082 28.7338 111.835 28.7785 111.604 28.8713C111.374 28.9642 111.165 29.1033 110.99 29.28C110.818 29.4554 110.682 29.6633 110.591 29.8916C110.5 30.12 110.456 30.3642 110.46 30.61C110.453 30.8603 110.5 31.1091 110.596 31.3401C110.693 31.5711 110.837 31.7789 111.02 31.95C111.404 32.3098 111.914 32.5038 112.44 32.49C112.671 32.4963 112.9 32.4562 113.115 32.372C113.33 32.2878 113.525 32.1613 113.69 32Z" fill="white"/>
<path d="M127.55 25.83V35.34H124.14V34.46C123.824 34.8174 123.431 35.0979 122.99 35.28C122.509 35.482 121.992 35.584 121.47 35.58C120.941 35.6134 120.412 35.518 119.927 35.302C119.443 35.0861 119.019 34.756 118.69 34.34C117.993 33.2756 117.676 32.0071 117.79 30.74V25.79H121.12V30.56C121.091 30.9797 121.223 31.3946 121.49 31.72C121.643 31.8609 121.824 31.9686 122.021 32.0363C122.218 32.1039 122.427 32.1301 122.634 32.1132C122.842 32.0963 123.044 32.0367 123.227 31.938C123.411 31.8394 123.572 31.7039 123.7 31.54C123.994 31.1003 124.141 30.5786 124.12 30.05V25.81L127.55 25.83Z" fill="white"/>
<path d="M139.82 35.43V30.43C139.833 30.2127 139.799 29.9951 139.721 29.7917C139.644 29.5883 139.524 29.4037 139.37 29.25C139.205 29.1008 139.013 28.9859 138.803 28.9121C138.594 28.8382 138.372 28.8069 138.15 28.82C137.749 28.8097 137.357 28.9357 137.037 29.1773C136.718 29.4189 136.489 29.7618 136.39 30.15L136.46 35.45H133.08L132.83 21.02H136.24L136.33 27.02C136.719 26.5851 137.201 26.2434 137.74 26.02C138.287 25.7733 138.88 25.6438 139.48 25.64C139.984 25.6208 140.486 25.7203 140.944 25.9305C141.403 26.1406 141.805 26.4556 142.12 26.85C142.812 27.7885 143.165 28.9346 143.12 30.1V35.48L139.82 35.43Z" fill="white"/>
<path d="M150.44 35.43V34.59C150.079 34.8806 149.67 35.1042 149.23 35.25C148.758 35.4177 148.261 35.5023 147.76 35.5C146.979 35.5028 146.214 35.2768 145.56 34.85C144.886 34.4041 144.336 33.7953 143.96 33.08C143.566 32.3238 143.364 31.4826 143.37 30.63C143.359 29.7681 143.569 28.9178 143.98 28.16C144.37 27.4388 144.948 26.8361 145.652 26.4155C146.356 25.9949 147.16 25.7719 147.98 25.77C148.43 25.7681 148.877 25.846 149.3 26C149.679 26.1359 150.022 26.3585 150.3 26.65V25.88H153.3L153.71 35.43H150.44ZM149.25 32.25C149.54 32.0569 149.774 31.7915 149.93 31.48C150.098 31.1734 150.188 30.8297 150.19 30.48C150.197 30.2517 150.159 30.0242 150.076 29.8111C149.994 29.5981 149.869 29.4038 149.71 29.24C149.555 29.0791 149.369 28.9524 149.162 28.868C148.955 28.7836 148.733 28.7434 148.51 28.75C147.995 28.752 147.501 28.9526 147.13 29.31C146.94 29.475 146.787 29.6794 146.684 29.9091C146.58 30.1387 146.528 30.3881 146.53 30.64C146.534 30.9656 146.628 31.2838 146.8 31.56C146.967 31.8501 147.2 32.0968 147.48 32.28C147.738 32.4505 148.041 32.5409 148.35 32.54C148.672 32.5356 148.986 32.4346 149.25 32.25Z" fill="white"/>
<path d="M164.36 21.22V35.47H160.85V34.47C160.436 34.8175 159.961 35.0853 159.45 35.26C158.902 35.4612 158.324 35.5661 157.74 35.57C157.017 35.5708 156.313 35.3317 155.74 34.89C155.112 34.4142 154.614 33.7884 154.29 33.07C153.928 32.2902 153.744 31.4397 153.75 30.58C153.749 29.7646 153.937 28.9601 154.3 28.23C154.645 27.5109 155.148 26.8787 155.77 26.38C156.308 25.9383 156.975 25.6822 157.67 25.65C158.776 25.5754 159.874 25.8825 160.78 26.52V20.94L164.36 21.22ZM159.81 32.22C160.108 32.0337 160.358 31.7803 160.54 31.48C160.722 31.2 160.819 30.8737 160.82 30.54C160.821 30.2907 160.769 30.0442 160.667 29.8166C160.565 29.5891 160.416 29.3857 160.23 29.22C160.055 29.0395 159.845 28.896 159.613 28.7981C159.381 28.7001 159.132 28.6498 158.88 28.65C158.547 28.648 158.22 28.7348 157.932 28.9014C157.644 29.068 157.406 29.3084 157.242 29.5977C157.078 29.8871 156.994 30.2151 156.999 30.5477C157.004 30.8803 157.097 31.2056 157.27 31.49C157.437 31.7893 157.678 32.0407 157.97 32.22C158.238 32.4024 158.556 32.4999 158.88 32.5C159.211 32.4985 159.534 32.4013 159.81 32.22Z" fill="white"/>
<path d="M59.26 50.74C58.801 50.4768 58.319 50.2558 57.82 50.08C57.4325 49.9525 57.0278 49.8851 56.62 49.88C56.3151 49.8674 56.0113 49.922 55.73 50.04C55.49 50.15 55.38 50.29 55.38 50.45C55.38 50.61 55.8 50.9 56.64 50.9C57.6444 50.8432 58.6422 51.0944 59.5 51.62C59.8216 51.8421 60.082 52.1419 60.2568 52.4916C60.4316 52.8412 60.5153 53.2294 60.5 53.62C60.4978 54.2657 60.2874 54.8934 59.9 55.41C59.4798 55.9746 58.9221 56.4221 58.28 56.71C57.5874 57.0416 56.8278 57.2093 56.06 57.2C55.2819 57.2019 54.5109 57.0524 53.79 56.76C53.133 56.5105 52.5463 56.1057 52.08 55.58L53.9 53.58C54.1957 53.8344 54.5343 54.0342 54.9 54.17C55.2626 54.3 55.6447 54.3676 56.03 54.37C56.3739 54.39 56.7174 54.3248 57.03 54.18C57.29 54.06 57.41 53.9 57.41 53.72C57.409 53.6489 57.3836 53.5803 57.3381 53.5257C57.2926 53.4711 57.2297 53.4337 57.16 53.42C56.8862 53.3474 56.6029 53.317 56.32 53.33H55.99C55.3989 53.3296 54.8163 53.1891 54.29 52.92C53.7719 52.6622 53.328 52.2767 53 51.8C52.6806 51.3766 52.5085 50.8603 52.51 50.33C52.4961 49.7732 52.6685 49.2276 53 48.78C53.3969 48.28 53.9078 47.8822 54.49 47.62C55.1161 47.3278 55.799 47.1775 56.49 47.18C57.2093 47.1855 57.9214 47.3245 58.59 47.59C59.2859 47.865 59.9313 48.2536 60.5 48.74L59.26 50.74Z" fill="white"/>
<path d="M70.62 47.41V56.93H67.1999V56.05C66.8841 56.4074 66.4908 56.6879 66.05 56.87C65.5681 57.0685 65.051 57.1672 64.53 57.16C64.0016 57.1954 63.4726 57.1019 62.9883 56.8877C62.5041 56.6734 62.0791 56.3448 61.75 55.93C61.0532 54.8656 60.7361 53.5971 60.85 52.33V47.38H64.18V52.15C64.1509 52.5697 64.2832 52.9846 64.55 53.31C64.7033 53.4509 64.8841 53.5586 65.081 53.6263C65.278 53.6939 65.4868 53.7201 65.6943 53.7032C65.9019 53.6863 66.1037 53.6267 66.2871 53.528C66.4705 53.4294 66.6315 53.2939 66.76 53.13C67.0576 52.6915 67.2082 52.1697 67.19 51.64V47.41H70.62Z" fill="white"/>
<path d="M73.41 56.45C72.6605 55.999 72.0404 55.3616 71.61 54.6C71.1661 53.8457 70.9346 52.9853 70.94 52.11C70.93 51.2539 71.1511 50.411 71.58 49.67C71.9906 48.9431 72.5879 48.339 73.31 47.92C74.0352 47.4871 74.8655 47.2622 75.71 47.27C76.5045 47.2737 77.2876 47.4584 78 47.81C78.717 48.145 79.3442 48.6454 79.83 49.27C80.2816 49.839 80.5282 50.5436 80.53 51.27L77.53 51.54C77.4283 51.2041 77.2215 50.9097 76.94 50.7C76.6703 50.4931 76.34 50.3807 76 50.38C75.5176 50.3827 75.055 50.5727 74.71 50.91C74.4084 51.1604 74.2106 51.5141 74.1552 51.9022C74.0997 52.2903 74.1906 52.6851 74.41 53.01C74.5899 53.2981 74.8369 53.5383 75.13 53.71C75.3875 53.8855 75.6887 53.9859 76 54C76.3166 53.9983 76.6259 53.9045 76.89 53.73C77.1583 53.5712 77.3712 53.3338 77.5 53.05L80.5 53.34C80.4923 54.0238 80.2565 54.6854 79.83 55.22C79.3606 55.8252 78.7585 56.3144 78.07 56.65C77.3863 57.002 76.629 57.187 75.86 57.19C74.9891 57.1845 74.1383 56.9276 73.41 56.45Z" fill="white"/>
<path d="M87.67 57V52C87.6827 51.7827 87.6491 51.5652 87.5716 51.3618C87.494 51.1584 87.3742 50.9737 87.22 50.82C87.0573 50.6664 86.8656 50.5466 86.6562 50.4676C86.4468 50.3887 86.2237 50.3521 86 50.36C85.5973 50.3516 85.2034 50.4793 84.8822 50.7225C84.561 50.9656 84.3312 51.3101 84.23 51.7L84.31 57H80.92L80.67 42.57H84.09L84.18 48.57C84.5671 48.1374 85.0453 47.7958 85.58 47.57C86.131 47.3242 86.7268 47.1948 87.33 47.19C87.8374 47.1637 88.3438 47.2577 88.8079 47.4646C89.2719 47.6714 89.6804 47.9851 90 48.38C90.7013 49.3179 91.0548 50.4703 91 51.64V57H87.67Z" fill="white"/>
<path d="M103.36 57V56.15C103.002 56.4476 102.592 56.6749 102.15 56.82C101.678 56.9877 101.181 57.0723 100.68 57.07C99.8989 57.0728 99.1341 56.8468 98.4799 56.42C97.8037 55.9726 97.253 55.3599 96.8799 54.64C96.4862 53.8874 96.2836 53.0494 96.2899 52.2C96.2792 51.3381 96.4891 50.4878 96.8999 49.73C97.2942 49.0013 97.8795 48.3938 98.5931 47.9727C99.3066 47.5516 100.121 47.3329 100.95 47.34C101.4 47.3381 101.847 47.416 102.27 47.57C102.649 47.7059 102.992 47.9285 103.27 48.22V47.45H106.27L106.68 57H103.36ZM102.17 53.82C102.46 53.6269 102.694 53.3615 102.85 53.05C103.017 52.7428 103.106 52.3995 103.11 52.05C103.116 51.8233 103.077 51.5977 102.994 51.3865C102.912 51.1753 102.788 50.9827 102.63 50.82C102.475 50.6591 102.288 50.5324 102.082 50.4481C101.875 50.3637 101.653 50.3235 101.43 50.33C101.174 50.3267 100.92 50.3746 100.683 50.4708C100.446 50.5669 100.231 50.7095 100.05 50.89C99.7349 51.1614 99.5282 51.5372 99.4676 51.9485C99.407 52.3599 99.4966 52.7793 99.7199 53.13C99.8827 53.4232 100.117 53.6708 100.4 53.85C100.657 54.0229 100.96 54.1168 101.27 54.12C101.591 54.1186 101.905 54.021 102.17 53.84V53.82Z" fill="white"/>
<path d="M122.46 47.45L122.36 56.45C122.32 57.133 122.182 57.8066 121.95 58.45C121.659 59.2617 121.154 59.9801 120.49 60.53C119.638 61.1985 118.57 61.5296 117.49 61.46C116.5 61.4798 115.521 61.2421 114.65 60.77C113.832 60.3007 113.166 59.6066 112.73 58.77C112.258 57.8884 112.02 56.9 112.04 55.9L115.36 57C115.362 57.1991 115.414 57.3945 115.51 57.5689C115.606 57.7434 115.743 57.8914 115.91 58C116.274 58.2411 116.703 58.3666 117.14 58.36C117.483 58.399 117.829 58.3409 118.14 58.1924C118.452 58.0438 118.715 57.8109 118.9 57.52C119.221 56.9539 119.38 56.3105 119.36 55.66V55.41C118.908 55.7055 118.417 55.9345 117.9 56.09C117.397 56.2596 116.871 56.3506 116.34 56.36C115.559 56.3681 114.788 56.179 114.1 55.81C113.436 55.4629 112.879 54.9407 112.49 54.3C112.09 53.6548 111.882 52.9091 111.89 52.15C111.894 51.3268 112.108 50.5182 112.51 49.8C112.923 49.0717 113.506 48.4541 114.21 48C114.858 47.5458 115.629 47.3014 116.42 47.3C116.993 47.2984 117.564 47.369 118.12 47.51C118.611 47.6201 119.08 47.8093 119.51 48.07V47.48L122.46 47.45ZM118.06 53.1C118.394 52.7498 118.581 52.2841 118.58 51.8C118.59 51.5653 118.551 51.3311 118.467 51.1117C118.383 50.8924 118.256 50.6924 118.092 50.5239C117.928 50.3555 117.732 50.2222 117.515 50.1321C117.298 50.0421 117.065 49.9971 116.83 50C116.609 49.9944 116.389 50.0361 116.186 50.1223C115.982 50.2086 115.8 50.3374 115.65 50.5C115.358 50.8704 115.199 51.3284 115.199 51.8C115.199 52.2717 115.358 52.7296 115.65 53.1C115.791 53.2666 115.967 53.3998 116.166 53.4897C116.365 53.5797 116.582 53.6242 116.8 53.62C117.035 53.6262 117.268 53.5831 117.485 53.4935C117.702 53.404 117.898 53.2699 118.06 53.1Z" fill="white"/>
<path d="M125.23 56.39C124.463 55.935 123.828 55.2868 123.39 54.51C122.947 53.7481 122.715 52.8815 122.72 52C122.697 51.0909 122.963 50.198 123.48 49.45C123.97 48.7446 124.635 48.1793 125.41 47.81C126.138 47.4484 126.938 47.2569 127.75 47.25C128.684 47.2301 129.609 47.4323 130.45 47.84C131.194 48.2055 131.814 48.7831 132.23 49.5C132.662 50.2682 132.88 51.1387 132.86 52.02C132.872 52.9232 132.644 53.8134 132.2 54.6C131.761 55.36 131.13 55.9912 130.37 56.43C129.59 56.8716 128.707 57.0993 127.81 57.09C126.902 57.1003 126.009 56.8579 125.23 56.39ZM129.16 53.55C129.329 53.3738 129.461 53.1651 129.547 52.9364C129.633 52.7078 129.671 52.464 129.66 52.22C129.673 51.7216 129.507 51.2352 129.19 50.85C129.018 50.658 128.804 50.5079 128.565 50.4108C128.326 50.3138 128.067 50.2725 127.81 50.29C127.563 50.2845 127.317 50.3292 127.088 50.4212C126.859 50.5133 126.65 50.6508 126.476 50.8255C126.301 51.0003 126.163 51.2086 126.071 51.438C125.979 51.6673 125.935 51.9129 125.94 52.16C125.931 52.4096 125.976 52.6582 126.071 52.8892C126.166 53.1202 126.309 53.3284 126.49 53.5C126.876 53.8561 127.386 54.0465 127.91 54.03C128.14 54.0382 128.369 53.9999 128.584 53.9174C128.799 53.8349 128.995 53.71 129.16 53.55Z" fill="white"/>
<path d="M135.63 56.39C134.863 55.935 134.228 55.2868 133.79 54.51C133.346 53.7479 133.111 52.882 133.11 52C133.09 51.0899 133.36 50.1971 133.88 49.45C134.369 48.7481 135.03 48.1834 135.8 47.81C136.531 47.4496 137.335 47.2582 138.15 47.25C139.084 47.2301 140.009 47.4323 140.85 47.84C141.594 48.2055 142.214 48.7831 142.63 49.5C143.062 50.2682 143.28 51.1387 143.26 52.02C143.274 52.9248 143.043 53.8165 142.59 54.6C142.157 55.3611 141.529 55.9928 140.77 56.43C139.986 56.872 139.1 57.0997 138.2 57.09C137.295 57.099 136.405 56.8566 135.63 56.39ZM139.56 53.55C139.729 53.3738 139.861 53.1651 139.947 52.9364C140.033 52.7078 140.071 52.464 140.06 52.22C140.073 51.7216 139.907 51.2352 139.59 50.85C139.416 50.6572 139.2 50.5066 138.96 50.4096C138.719 50.3126 138.459 50.2717 138.2 50.29C137.953 50.2834 137.707 50.3279 137.479 50.4208C137.25 50.5138 137.042 50.6531 136.87 50.83C136.695 51.0035 136.556 51.2109 136.463 51.4395C136.371 51.6681 136.325 51.9133 136.33 52.16C136.323 52.4102 136.37 52.6591 136.466 52.8901C136.563 53.1211 136.707 53.3289 136.89 53.5C137.275 53.8561 137.785 54.0465 138.31 54.03C138.54 54.0382 138.769 53.9999 138.984 53.9174C139.199 53.8349 139.395 53.71 139.56 53.55Z" fill="white"/>
<path d="M154.11 42.81V57.06H150.6V56.06C150.186 56.4074 149.711 56.6753 149.2 56.85C148.652 57.0495 148.073 57.1543 147.49 57.16C146.766 57.1608 146.063 56.9217 145.49 56.48C144.859 56.0048 144.357 55.3791 144.03 54.66C143.668 53.8802 143.484 53.0297 143.49 52.17C143.499 51.3668 143.682 50.5751 144.028 49.8499C144.373 49.1247 144.872 48.4832 145.49 47.97C146.028 47.5283 146.695 47.2722 147.39 47.24C148.499 47.1663 149.599 47.4733 150.51 48.11V42.53L154.11 42.81ZM149.56 53.81C149.857 53.6261 150.104 53.372 150.28 53.07C150.462 52.79 150.559 52.4637 150.56 52.13C150.564 51.8816 150.516 51.635 150.42 51.4061C150.324 51.1771 150.181 50.9707 150 50.8C149.822 50.6214 149.61 50.48 149.376 50.3838C149.143 50.2877 148.892 50.2388 148.64 50.24C148.397 50.2406 148.156 50.2906 147.933 50.3869C147.709 50.4831 147.508 50.6236 147.34 50.8C147.158 50.9743 147.014 51.184 146.916 51.4162C146.818 51.6483 146.768 51.898 146.77 52.15C146.774 52.4774 146.863 52.7981 147.03 53.08C147.201 53.376 147.441 53.6264 147.73 53.81C148.002 53.9852 148.317 54.082 148.64 54.09C148.966 54.0804 149.284 53.9837 149.56 53.81Z" fill="white"/>
<path d="M62.7001 64.4V78.64H59.1901V77.64C58.7736 77.9838 58.2997 78.2512 57.7901 78.43C57.2419 78.6289 56.6632 78.7305 56.0801 78.73C55.3576 78.7345 54.6541 78.4988 54.0801 78.06C53.4465 77.5832 52.9442 76.9536 52.6201 76.23C52.2569 75.4541 52.0724 74.6066 52.0801 73.75C52.0836 72.9308 52.2752 72.1234 52.6401 71.39C52.982 70.6717 53.485 70.0421 54.1101 69.55C54.6448 69.1024 55.3132 68.8456 56.0101 68.82C57.116 68.7429 58.2146 69.0502 59.1201 69.69V64.11L62.7001 64.4ZM58.1501 75.4C58.4478 75.2137 58.6978 74.9603 58.8801 74.66C59.0659 74.3598 59.163 74.0131 59.1601 73.66C59.1583 73.4111 59.105 73.1653 59.0034 72.9381C58.9019 72.7109 58.7543 72.5073 58.5701 72.34C58.393 72.1596 58.1812 72.0169 57.9474 71.9207C57.7137 71.8244 57.4628 71.7766 57.2101 71.78C56.9665 71.7789 56.7253 71.828 56.5016 71.9244C56.278 72.0207 56.0766 72.1622 55.9101 72.34C55.7289 72.5128 55.5849 72.7208 55.4869 72.9512C55.3888 73.1816 55.3389 73.4296 55.3401 73.68C55.3425 74.0107 55.4322 74.335 55.6001 74.62C55.7741 74.9139 56.0137 75.1637 56.3001 75.35C56.5719 75.5251 56.8868 75.622 57.2101 75.63C57.5385 75.6406 57.8636 75.561 58.1501 75.4Z" fill="white"/>
<path d="M70.1801 78.61V77.76C69.8211 78.0555 69.411 78.2826 68.9701 78.43C68.498 78.5969 68.0008 78.6815 67.5001 78.68C66.7173 78.6846 65.951 78.4547 65.3001 78.02C64.6239 77.5768 64.073 76.9673 63.7001 76.25C63.3003 75.496 63.0974 74.6533 63.1101 73.8C63.0987 72.9412 63.3088 72.094 63.7201 71.34C64.1118 70.6157 64.6923 70.0109 65.4001 69.59C66.1172 69.1794 66.934 68.9752 67.7601 69C68.21 68.9999 68.6566 69.0778 69.0801 69.23C69.4588 69.3672 69.8009 69.5896 70.0801 69.88V69.11H73.0801L73.5001 78.66L70.1801 78.61ZM69.0001 75.42C69.286 75.2267 69.5196 74.9656 69.6801 74.66C69.8436 74.352 69.9294 74.0087 69.9301 73.66C69.9416 73.2041 69.7727 72.762 69.4601 72.43C69.3053 72.2691 69.1186 72.1424 68.9119 72.058C68.7052 71.9737 68.4832 71.9334 68.2601 71.94C67.7431 71.9368 67.2449 72.1339 66.8701 72.49C66.6846 72.6584 66.5363 72.8637 66.4347 73.0927C66.3331 73.3217 66.2804 73.5695 66.2801 73.82C66.2837 74.1443 66.3734 74.4618 66.5401 74.74C66.7079 75.0326 66.9448 75.2798 67.2301 75.46C67.4875 75.6329 67.7899 75.7268 68.1001 75.73C68.4251 75.7236 68.74 75.6152 69.0001 75.42Z" fill="white"/>
<path d="M83.8 68.8L81.28 78.21C80.9377 79.5518 80.2478 80.7797 79.28 81.77C78.889 82.1685 78.4221 82.4846 77.9067 82.6993C77.3914 82.914 76.8382 83.0231 76.28 83.02C75.7594 83.0114 75.2421 82.9375 74.74 82.8C74.2073 82.6626 73.6909 82.4681 73.2 82.22L74.01 78.86C74.309 79.0878 74.6482 79.2575 75.01 79.36C75.3728 79.4918 75.7541 79.5661 76.14 79.58C76.3886 79.588 76.6348 79.5291 76.8529 79.4095C77.071 79.2899 77.253 79.1139 77.38 78.9L73.38 69.09L77 69L78.84 74.33L80.2 69L83.8 68.8Z" fill="white"/>
<path d="M97.26 77.1C96.8975 77.6516 96.3978 78.0996 95.81 78.4C95.1581 78.6977 94.4464 78.8415 93.73 78.82C93.2888 78.8579 92.8446 78.8046 92.4248 78.6636C92.0051 78.5225 91.6188 78.2966 91.29 78C90.6845 77.2407 90.3944 76.2774 90.48 75.31C90.4867 74.8521 90.5167 74.3948 90.57 73.94L90.82 71.87H89.4L89.27 69H91.18L91.43 66.9L94.63 66.74L94.38 69H96.38L96.72 71.93H94L93.82 73.55C93.8098 73.7065 93.8098 73.8635 93.82 74.02C93.7962 74.4151 93.8902 74.8083 94.09 75.15C94.1615 75.278 94.266 75.3844 94.3927 75.4583C94.5193 75.5322 94.6634 75.5707 94.81 75.57C95.0865 75.5755 95.3594 75.5064 95.6 75.37C95.8905 75.1805 96.1474 74.9439 96.36 74.67L97.26 77.1Z" fill="white"/>
<path d="M99.56 78C98.7952 77.5421 98.1614 76.8946 97.72 76.12C97.2585 75.3561 97.0099 74.4825 97 73.59C96.9855 72.6622 97.2695 71.7543 97.81 71C98.2985 70.2999 98.96 69.7383 99.73 69.37C100.462 69.0096 101.265 68.8182 102.08 68.81C103.013 68.787 103.939 68.9858 104.78 69.39C105.525 69.7597 106.144 70.3405 106.56 71.06C106.992 71.8282 107.21 72.6987 107.19 73.58C107.201 74.4844 106.969 75.3752 106.52 76.16C106.092 76.9278 105.463 77.5641 104.7 78C103.919 78.451 103.031 78.6825 102.13 78.67C101.228 78.6881 100.338 78.4562 99.56 78ZM103.49 75.16C103.661 74.9827 103.793 74.7723 103.879 74.5418C103.965 74.3113 104.003 74.0657 103.99 73.82C104.002 73.3249 103.835 72.8421 103.52 72.46C103.346 72.2673 103.13 72.1167 102.89 72.0196C102.649 71.9226 102.389 71.8817 102.13 71.9C101.882 71.8932 101.634 71.9376 101.404 72.0305C101.173 72.1234 100.964 72.2628 100.79 72.44C100.617 72.6147 100.481 72.8225 100.39 73.051C100.299 73.2796 100.254 73.5241 100.26 73.77C100.253 74.0203 100.3 74.2691 100.396 74.5001C100.493 74.7311 100.637 74.939 100.82 75.11C101.206 75.4661 101.716 75.6565 102.24 75.64C102.471 75.6456 102.701 75.6042 102.916 75.5182C103.131 75.4323 103.326 75.3036 103.49 75.14V75.16Z" fill="white"/>
<path d="M118 64.4V78.64H114.49V77.64C114.074 77.9838 113.6 78.2512 113.09 78.43C112.541 78.6262 111.963 78.7277 111.38 78.73C110.657 78.7345 109.954 78.4988 109.38 78.06C108.776 77.5735 108.302 76.9447 108 76.23C107.637 75.4541 107.452 74.6066 107.46 73.75C107.463 72.9308 107.655 72.1234 108.02 71.39C108.362 70.6744 108.861 70.0454 109.48 69.55C110.016 69.1044 110.684 68.8478 111.38 68.82C112.489 68.7414 113.591 69.0488 114.5 69.69V64.11L118 64.4ZM113.45 75.4C113.745 75.2133 113.991 74.9598 114.17 74.66C114.395 74.3068 114.488 73.8855 114.433 73.4703C114.379 73.0552 114.179 72.6726 113.87 72.39C113.693 72.2096 113.481 72.0669 113.247 71.9707C113.014 71.8744 112.763 71.8266 112.51 71.83C112.266 71.8283 112.025 71.8771 111.801 71.9735C111.577 72.0699 111.376 72.2117 111.21 72.39C111.029 72.5628 110.885 72.7708 110.787 73.0012C110.689 73.2316 110.639 73.4796 110.64 73.73C110.642 74.0607 110.732 74.385 110.9 74.67C111.071 74.966 111.311 75.2164 111.6 75.4C111.872 75.5752 112.187 75.672 112.51 75.68C112.857 75.6813 113.196 75.5842 113.49 75.4H113.45Z" fill="white"/>
<path d="M125.52 78.61V77.76C125.166 78.0575 124.759 78.2849 124.32 78.43C123.845 78.5979 123.344 78.6824 122.84 78.68C122.061 78.6832 121.298 78.4534 120.65 78.02C119.969 77.5824 119.417 76.9715 119.05 76.25C118.652 75.4928 118.445 74.6503 118.445 73.795C118.445 72.9397 118.652 72.0972 119.05 71.34C119.443 70.6208 120.021 70.0199 120.724 69.5997C121.428 69.1794 122.231 68.9551 123.05 68.95C123.5 68.9481 123.947 69.0259 124.37 69.18C124.751 69.3121 125.095 69.5352 125.37 69.83V69.06H128.37L128.78 78.61H125.52ZM124.33 75.42C124.622 75.231 124.86 74.969 125.02 74.66C125.179 74.3504 125.265 74.0081 125.27 73.66C125.276 73.4333 125.237 73.2077 125.154 72.9965C125.072 72.7852 124.948 72.5926 124.79 72.43C124.637 72.2699 124.452 72.1436 124.247 72.0592C124.042 71.9748 123.822 71.9342 123.6 71.94C123.083 71.9368 122.585 72.1339 122.21 72.49C122.023 72.6568 121.873 72.8618 121.771 73.0912C121.669 73.3206 121.618 73.5691 121.62 73.82C121.619 74.1449 121.709 74.4636 121.88 74.74C122.043 75.0332 122.277 75.2808 122.56 75.46C122.817 75.6329 123.12 75.7268 123.43 75.73C123.755 75.7236 124.07 75.6152 124.33 75.42Z" fill="white"/>
<path d="M139.14 68.8L136.62 78.21C136.278 79.5518 135.588 80.7797 134.62 81.77C134.228 82.1676 133.761 82.483 133.246 82.6977C132.731 82.9124 132.178 83.0219 131.62 83.02C131.103 83.0114 130.589 82.9375 130.09 82.8C129.557 82.6626 129.041 82.4681 128.55 82.22L129.36 78.86C129.658 79.0893 129.998 79.2591 130.36 79.36C130.727 79.4911 131.111 79.5653 131.5 79.58C131.749 79.588 131.995 79.5291 132.213 79.4095C132.431 79.2899 132.613 79.1139 132.74 78.9L128.74 69.09L132.27 69L134.11 74.33L135.54 69L139.14 68.8Z" fill="white"/>
<path d="M144.32 74.34L141.48 74.11V70.53C141.891 70.6621 142.319 70.7361 142.75 70.75C143.242 70.778 143.729 70.6369 144.13 70.35C144.287 70.2346 144.415 70.0841 144.504 69.9105C144.592 69.7368 144.639 69.5449 144.64 69.35C144.647 69.1655 144.616 68.9816 144.549 68.8096C144.482 68.6376 144.38 68.4811 144.25 68.35C144.118 68.221 143.962 68.12 143.79 68.053C143.618 67.986 143.434 67.9543 143.25 67.96C142.84 67.9623 142.447 68.1227 142.153 68.4077C141.858 68.6928 141.686 69.0805 141.67 69.49L139.29 68.49C139.346 67.8231 139.588 67.1853 139.99 66.65C140.4 66.0918 140.934 65.6365 141.55 65.32C142.169 65.0031 142.855 64.8386 143.55 64.84C144.384 64.8202 145.208 65.0313 145.93 65.45C146.609 65.855 147.154 66.4493 147.5 67.16C147.877 67.9314 148.066 68.7814 148.05 69.64C148.045 70.2713 147.854 70.8872 147.5 71.41C147.142 71.9751 146.655 72.4479 146.08 72.79C145.537 73.1283 144.91 73.3084 144.27 73.31L144.32 74.34ZM141.48 78.05C141.102 77.6548 140.894 77.127 140.9 76.58C140.899 76.2055 141.003 75.8383 141.2 75.52C141.389 75.2111 141.654 74.9562 141.97 74.78C142.274 74.6037 142.619 74.5106 142.97 74.51C143.215 74.5059 143.459 74.5517 143.685 74.6445C143.912 74.7373 144.118 74.8753 144.29 75.05C144.478 75.2402 144.623 75.4673 144.718 75.717C144.813 75.9667 144.854 76.2333 144.84 76.5C144.859 77.0676 144.662 77.6212 144.29 78.05C144.12 78.2526 143.908 78.4144 143.667 78.5235C143.426 78.6326 143.164 78.686 142.9 78.68C142.632 78.6835 142.366 78.6291 142.121 78.5203C141.876 78.4116 141.657 78.2512 141.48 78.05Z" fill="white"/>
<path d="M195.47 69.91C192.461 69.9111 189.507 69.1102 186.91 67.59C185.663 66.8541 184.514 65.9637 183.49 64.94C182.464 63.9144 181.573 62.7617 180.84 61.51C180.097 60.2577 179.522 58.9128 179.13 57.51C178.315 54.5654 178.315 51.4547 179.13 48.51C179.523 47.1076 180.097 45.7628 180.84 44.51C181.57 43.2319 182.461 42.0523 183.49 41C184.511 39.9671 185.66 39.0697 186.91 38.33C188.194 37.5869 189.569 37.0121 191 36.62C193.947 35.8217 197.053 35.8217 200 36.62C201.4 37.0193 202.744 37.5939 204 38.33C205.257 39.0683 206.413 39.9657 207.44 41C208.464 42.0275 209.354 43.1799 210.09 44.43C210.832 45.6845 211.41 47.0287 211.81 48.43C212.612 51.3764 212.612 54.4836 211.81 57.43C211.02 60.2573 209.515 62.8334 207.44 64.91C206.412 65.9456 205.256 66.8461 204 67.59C201.406 69.1085 198.455 69.9093 195.45 69.91H195.47ZM205.09 55.61H204.85C204.595 55.6078 204.346 55.6885 204.14 55.84C203.923 55.9868 203.772 56.2131 203.72 56.47C203.385 57.8304 202.714 59.085 201.769 60.1192C200.824 61.1534 199.635 61.9341 198.31 62.39C197.41 62.7029 196.463 62.8618 195.51 62.86C193.609 62.8574 191.763 62.2244 190.26 61.06C189.531 60.5034 188.902 59.8272 188.4 59.06C187.881 58.2554 187.499 57.37 187.27 56.44C187.228 56.1842 187.088 55.9547 186.88 55.8C186.681 55.6429 186.433 55.5614 186.18 55.57C186.097 55.5585 186.013 55.5585 185.93 55.57C185.676 55.6096 185.447 55.7457 185.29 55.95C185.133 56.1494 185.048 56.3962 185.05 56.65V56.79C185.045 56.8299 185.045 56.8702 185.05 56.91C185.603 59.2744 186.93 61.3862 188.82 62.91C190.718 64.3973 193.059 65.2056 195.47 65.2056C197.881 65.2056 200.222 64.3973 202.12 62.91C203.042 62.1809 203.84 61.306 204.48 60.32C205.146 59.3037 205.633 58.1808 205.92 57C205.926 56.9001 205.926 56.7999 205.92 56.7C205.922 56.4582 205.837 56.2238 205.68 56.04C205.532 55.8393 205.326 55.6892 205.09 55.61ZM187.49 46.13C187.212 46.1281 186.937 46.1841 186.683 46.2942C186.428 46.4044 186.199 46.5665 186.01 46.77C185.795 47.0077 185.63 47.2857 185.524 47.5878C185.417 47.89 185.372 48.2102 185.39 48.53V49.24C185.389 49.4548 185.409 49.6692 185.45 49.88C185.489 50.0824 185.578 50.2716 185.71 50.43C185.768 50.3454 185.853 50.2822 185.95 50.25C186.093 50.193 186.24 50.1462 186.39 50.11C186.568 50.0679 186.748 50.0378 186.93 50.02H187.49H188.04C188.228 50.0378 188.416 50.0679 188.6 50.11C188.75 50.1448 188.897 50.1916 189.04 50.25C189.142 50.2795 189.23 50.3431 189.29 50.43C189.407 50.2898 189.483 50.1203 189.51 49.94C189.521 49.7468 189.521 49.5532 189.51 49.36V48.53C189.549 47.8873 189.334 47.255 188.91 46.77C188.732 46.5686 188.514 46.4073 188.269 46.2969C188.024 46.1866 187.759 46.1297 187.49 46.13ZM203.44 46.13C203.162 46.1281 202.887 46.1841 202.633 46.2942C202.378 46.4044 202.149 46.5665 201.96 46.77C201.745 47.0077 201.58 47.2857 201.474 47.5878C201.367 47.89 201.322 48.2102 201.34 48.53V49.22C201.329 49.4399 201.329 49.6602 201.34 49.88C201.365 50.0793 201.44 50.2688 201.56 50.43C201.624 50.3429 201.716 50.2796 201.82 50.25C201.97 50.1932 202.124 50.1465 202.28 50.11C202.465 50.0694 202.652 50.0394 202.84 50.02H203.4H203.96C204.142 50.037 204.322 50.067 204.5 50.11C204.65 50.1462 204.797 50.193 204.94 50.25C205.038 50.2822 205.122 50.3454 205.18 50.43C205.295 50.2926 205.371 50.1268 205.4 49.95C205.416 49.767 205.416 49.583 205.4 49.4V48.53C205.437 47.8894 205.225 47.2592 204.81 46.77C204.638 46.5752 204.427 46.4179 204.191 46.3078C203.956 46.1978 203.7 46.1372 203.44 46.13Z" fill="white"/>
</g>
<defs>
<clipPath id="clip0_0_7966">
<rect width="238.16" height="120.18" fill="white"/>
</clipPath>
</defs>
</svg>
