<svg width="214" height="214" viewBox="0 0 214 214" fill="none" xmlns="http://www.w3.org/2000/svg">
<g clip-path="url(#clip0_0_8000)">
<path d="M90.8703 6.55074L6.56201 90.8591C-2.17012 99.5912 -2.17012 113.749 6.56201 122.481L90.8703 206.789C99.6025 215.521 113.76 215.521 122.492 206.789L206.8 122.481C215.533 113.749 215.533 99.5912 206.8 90.8591L122.492 6.55074C113.76 -2.18138 99.6025 -2.18139 90.8703 6.55074Z" fill="#FEC305"/>
<path d="M34.72 92.27L35.24 90.81L36.76 91.81L35.64 92.9L36.39 93.38L36.91 92.87L38.91 94.14L36.21 98.33L34.21 97.05L34.48 96.38L31.66 94.56L31.16 95.08L29.16 93.81L32.9 88L35.45 89.65L34.91 90.48C34.645 90.5323 34.3932 90.6377 34.17 90.79C33.8932 90.9687 33.6606 91.2081 33.49 91.49L34.72 92.27Z" fill="#FFF4D4"/>
<path d="M40.11 86.13L41 84.72L42.19 85.91L40.78 86.82L41.71 87.75C41.8737 87.589 42.0242 87.4151 42.16 87.23C42.284 87.0569 42.3975 86.8766 42.5 86.69C42.5859 86.5257 42.6594 86.3552 42.72 86.18C42.7676 86.0261 42.8043 85.8691 42.83 85.71L43.4 85.14L45.54 87.28L40.37 92.45L38.7 90.78L39.11 90.18L36.73 87.81L36.13 88.22L34.5 86.56L39.67 81.39L41.81 83.53L41.24 84.1C41.081 84.1257 40.9239 84.1625 40.77 84.21C40.5944 84.2737 40.4239 84.3506 40.26 84.44C40.0727 84.5375 39.8922 84.6478 39.72 84.77C39.5349 84.9059 39.361 85.0563 39.2 85.22L40.11 86.13Z" fill="#FFF4D4"/>
<path d="M46 80.29L46.91 78.88L48.11 80.07L46.65 81L47.57 81.93C47.7336 81.769 47.8841 81.5951 48.02 81.41C48.1439 81.2369 48.2575 81.0566 48.36 80.87C48.4458 80.7057 48.5194 80.5352 48.58 80.36C48.6275 80.2061 48.6643 80.0491 48.69 79.89L49.26 79.32L51.4 81.46L46.23 86.63L44.56 84.96L44.97 84.36L42.59 82L41.99 82.41L40.34 80.75L45.51 75.58L47.65 77.72L47.08 78.29C46.924 78.3145 46.7702 78.3513 46.62 78.4C46.4404 78.4616 46.2664 78.5386 46.1 78.63C45.9139 78.7298 45.7336 78.84 45.56 78.96C45.3749 79.0959 45.201 79.2463 45.04 79.41L46 80.29Z" fill="#FFF4D4"/>
<path d="M53.4801 76.15C53.5939 76.0337 53.6915 75.9025 53.7701 75.76C53.8395 75.6255 53.8964 75.4849 53.9401 75.34C53.9783 75.2029 54.0017 75.0621 54.0101 74.92C54.0101 74.79 54.0101 74.66 54.0101 74.54L54.7101 73.84L56.8601 76L52.0701 80.79L50.4001 79.1L50.8101 78.5L48.4301 76.12L47.8301 76.53L46.1801 74.88L49.7001 71.35L51.3501 73L50.9401 73.6L53.4801 76.15Z" fill="#FFF4D4"/>
<path d="M57.07 67.1C56.9389 67.2296 56.8277 67.3779 56.74 67.54C56.6754 67.676 56.6315 67.8209 56.61 67.97C56.5846 68.0886 56.5846 68.2113 56.61 68.33C56.6305 68.4234 56.6753 68.5096 56.74 68.58L56.04 69.28L53.9 67.14L59.61 61.43L61.75 63.57L61.05 64.27C60.9797 64.2053 60.8934 64.1604 60.8 64.14C60.6814 64.114 60.5586 64.114 60.44 64.14C60.2905 64.1595 60.1453 64.2035 60.01 64.27C59.8452 64.3534 59.6963 64.4651 59.57 64.6L62.14 67.17L62.74 66.76L64.41 68.43L60.9 71.94L59.23 70.27L59.64 69.67L57.07 67.1Z" fill="#FFF4D4"/>
<path d="M60.2001 60.86L63.7201 57.33L65.3801 59L64.9701 59.6L65.6601 60.29L67.6601 58.29L67.0001 57.58L66.4001 57.98L64.7101 56.3L68.2301 52.78L69.9101 54.46L69.5101 55.06L71.8801 57.43L72.4801 57.02L74.1501 58.69L70.6201 62.22L69.0001 60.55L69.4101 59.95L68.7101 59.25L66.7101 61.25L67.4101 61.95L68.0001 61.55L69.6701 63.22L66.1501 66.74L64.4801 65.07L64.8901 64.47L62.5101 62.1L61.9101 62.51L60.2001 60.86Z" fill="#FFF4D4"/>
<path d="M74.66 51.57L75.58 50.17L76.77 51.36L75.36 52.27L76.28 53.19C76.4437 53.029 76.5942 52.8551 76.73 52.67C76.8586 52.5036 76.9724 52.3263 77.07 52.14C77.1584 51.9734 77.232 51.7994 77.29 51.62C77.3481 51.4691 77.3851 51.311 77.4 51.15L77.98 50.58L80.12 52.72L74.94 57.9L73.27 56.23L73.68 55.63L71.31 53.25L70.71 53.66L69.05 52L74.23 46.83L76.37 49L75.79 49.58C75.6334 49.601 75.4793 49.6378 75.33 49.69C75.1532 49.7463 74.9824 49.82 74.82 49.91C74.6292 50.0051 74.4483 50.119 74.28 50.25C74.0954 50.3828 73.9215 50.5299 73.76 50.69L74.66 51.57Z" fill="#FFF4D4"/>
<path d="M80.24 46.55C79.7669 46.1133 79.3861 45.5863 79.12 45C78.9028 44.4892 78.8135 43.9331 78.86 43.38C78.9082 42.8152 79.0825 42.2685 79.37 41.78C79.6948 41.2006 80.1025 40.6717 80.58 40.21C80.8573 39.9294 81.1512 39.6656 81.46 39.42C81.7133 39.2196 81.977 39.0326 82.25 38.86C82.4717 38.7218 82.7022 38.5982 82.94 38.49C83.15 38.39 83.34 38.32 83.51 38.25L85.33 40L84.14 41.19C83.9986 41.1597 83.8546 41.1429 83.71 41.14C83.5875 41.1199 83.4625 41.1199 83.34 41.14C83.2199 41.1729 83.1053 41.2235 83 41.29C82.8711 41.367 82.7534 41.4612 82.65 41.57C82.5057 41.714 82.3843 41.8793 82.29 42.06C82.1993 42.2405 82.1482 42.4382 82.14 42.64C82.1326 42.8638 82.1771 43.0863 82.27 43.29C82.3898 43.548 82.5559 43.7818 82.76 43.98C82.9837 44.208 83.2358 44.4063 83.51 44.57C83.7091 44.6813 83.932 44.7431 84.16 44.75C84.3642 44.7501 84.5647 44.6948 84.74 44.59C84.9476 44.4721 85.1364 44.3238 85.3 44.15C85.4043 44.047 85.5012 43.9367 85.59 43.82C85.6937 43.6857 85.7841 43.5417 85.86 43.39L85.39 43L84.55 43.84L83.55 42.84L86 40.32L88.78 43.1C88.66 43.4 88.52 43.69 88.37 44C88.22 44.31 88.05 44.61 87.87 44.9C87.6962 45.1771 87.5024 45.4412 87.29 45.69C87.09 45.93 86.89 46.14 86.7 46.33C86.2634 46.7742 85.7689 47.1577 85.23 47.47C84.7336 47.7544 84.1803 47.9251 83.61 47.97C83.0358 48.0086 82.4606 47.9127 81.93 47.69C81.2905 47.4374 80.7138 47.0483 80.24 46.55Z" fill="#FFF4D4"/>
<path d="M96.5 36.77L93.86 39.12L93.17 38.86C92.9182 38.7695 92.6712 38.666 92.43 38.55C92.18 38.44 91.93 38.31 91.67 38.18C91.4187 38.0397 91.175 37.8862 90.94 37.72L90.79 37.85L92.79 40.08L89.6 42.93L88 41.16L88.44 40.59L86.2 38.08L85.58 38.45L84.03 36.71L87.64 33.48C88.0548 33.1232 88.4888 32.7893 88.94 32.48C89.2723 32.2278 89.6271 32.0068 90 31.82C90.2702 31.7011 90.5568 31.6235 90.85 31.59C91.0824 31.5616 91.3181 31.5855 91.54 31.66C91.7577 31.7223 91.9591 31.8315 92.13 31.98C92.3234 32.128 92.501 32.2955 92.66 32.48C92.8227 32.6558 92.9637 32.8506 93.08 33.06C93.1835 33.2486 93.2481 33.456 93.27 33.67C93.2984 33.9082 93.278 34.1498 93.21 34.38C93.131 34.6837 93.0134 34.9761 92.86 35.25C93.0496 35.3189 93.2433 35.3756 93.44 35.42L94.18 35.56L94.94 35.67L95.58 35.75L96.5 36.77ZM89.73 36.65C89.8764 36.5234 90.0135 36.3864 90.14 36.24C90.2483 36.1202 90.3331 35.9811 90.39 35.83C90.4351 35.6902 90.4351 35.5397 90.39 35.4C90.3292 35.2127 90.2266 35.0418 90.09 34.9C89.9633 34.7519 89.8065 34.6326 89.63 34.55C89.4951 34.4902 89.3462 34.4694 89.2 34.49C89.0452 34.5233 88.8989 34.5879 88.77 34.68C88.6034 34.79 88.4462 34.9138 88.3 35.05L89.73 36.65Z" fill="#FFF4D4"/>
<path d="M99.4 31.07L100.85 30.23L101.38 31.83L99.71 32L100.12 33.24C100.341 33.1683 100.555 33.0779 100.76 32.97C100.949 32.8797 101.13 32.7726 101.3 32.65C101.449 32.5375 101.593 32.4173 101.73 32.29C101.845 32.1768 101.949 32.0529 102.04 31.92L102.81 31.66L103.81 34.54L96.81 36.84L96.07 34.6L96.7 34.25L95.7 31.06L94.98 31.15L94.24 28.93L101.24 26.63L102.24 29.51L101.47 29.76C101.319 29.7141 101.165 29.6774 101.01 29.65C100.823 29.6398 100.637 29.6398 100.45 29.65C100.239 29.651 100.028 29.6711 99.82 29.71C99.5935 29.7491 99.3697 29.8025 99.15 29.87L99.4 31.07Z" fill="#FFF4D4"/>
<path d="M109.73 34.86L109.54 33.44L107.22 33.26L106.82 34.64L103.66 34.39L103.88 31.65L104.57 31.57L106.63 26.26L111.21 26.62L112.43 32.18L113.1 32.37L112.89 35.11L109.73 34.86ZM107.73 31.43L109.33 31.55L108.78 28.22L107.73 31.43Z" fill="#FFF4D4"/>
<path d="M116.91 30.53C116.744 30.4433 116.565 30.3858 116.38 30.36C116.234 30.3346 116.086 30.3346 115.94 30.36C115.82 30.3821 115.704 30.4262 115.6 30.49C115.519 30.5414 115.453 30.614 115.41 30.7L114.52 30.26L115.86 27.54L123.1 31.12L121.76 33.84L120.87 33.4C120.893 33.308 120.893 33.212 120.87 33.12C120.858 32.9982 120.825 32.8795 120.77 32.77C120.7 32.6363 120.609 32.5147 120.5 32.41C120.371 32.2787 120.219 32.1734 120.05 32.1L118.44 35.35L119.02 35.79L118.02 37.91L113.55 35.7L114.55 33.58L115.25 33.77L116.91 30.53Z" fill="#FFF4D4"/>
<path d="M125.3 45C124.836 44.5385 124.427 44.0251 124.08 43.47C123.773 42.9633 123.575 42.3978 123.5 41.81C123.444 41.2234 123.522 40.6316 123.73 40.08C123.991 39.4372 124.387 38.8576 124.89 38.38C125.353 37.8873 125.92 37.5045 126.55 37.26C127.09 37.0629 127.67 37.0011 128.24 37.08C128.823 37.1615 129.384 37.3587 129.89 37.66C131.017 38.3435 131.961 39.2907 132.64 40.42C132.944 40.9254 133.145 41.4863 133.23 42.07C133.309 42.6396 133.247 43.2198 133.05 43.76C132.807 44.394 132.425 44.965 131.93 45.43C131.599 45.7732 131.222 46.0693 130.81 46.31C130.447 46.5128 130.056 46.661 129.65 46.75C129.272 46.8298 128.884 46.85 128.5 46.81C127.698 46.7049 126.938 46.3872 126.3 45.89C125.95 45.6128 125.616 45.3157 125.3 45ZM129.65 40.66C129.512 40.5134 129.349 40.3917 129.17 40.3C129.033 40.232 128.883 40.1945 128.73 40.19C128.594 40.165 128.456 40.165 128.32 40.19C128.197 40.2357 128.079 40.2962 127.97 40.37C127.863 40.441 127.759 40.5178 127.66 40.6C127.57 40.69 127.49 40.76 127.43 40.83C127.37 40.9 127.29 40.97 127.2 41.06C127.11 41.1552 127.03 41.2591 126.96 41.37C126.876 41.485 126.806 41.6091 126.75 41.74C126.691 41.8809 126.66 42.0322 126.66 42.185C126.66 42.3378 126.691 42.4891 126.75 42.63C126.838 42.8175 126.96 42.987 127.11 43.13C127.253 43.2734 127.418 43.3917 127.6 43.48C127.742 43.5529 127.9 43.5907 128.06 43.59C128.206 43.592 128.352 43.5683 128.49 43.52C128.616 43.4691 128.737 43.4054 128.85 43.33C128.959 43.2574 129.062 43.1772 129.16 43.09L129.4 42.86C129.481 42.7847 129.558 42.7046 129.63 42.62C129.715 42.5263 129.791 42.426 129.86 42.32C129.936 42.2085 129.996 42.0875 130.04 41.96C130.088 41.829 130.109 41.6894 130.1 41.55C130.095 41.3941 130.057 41.2409 129.99 41.1C129.91 40.9161 129.794 40.7496 129.65 40.61V40.66Z" fill="#FFF4D4"/>
<path d="M135.69 48.83L137.01 49.66L135.73 50.93L134.91 49.61L134.28 50.24L134.67 50.85L133 52.51L129.49 49L131.16 47.33L131.76 47.73L134.13 45.36L133.73 44.76L135.38 43.1L140.25 48L138.11 50.14L137.41 49.44C137.405 49.17 137.354 48.9029 137.26 48.65C137.147 48.3407 136.962 48.063 136.72 47.84L135.69 48.83Z" fill="#FFF4D4"/>
<path d="M144.54 60.32C144.311 60.5602 144.04 60.7568 143.74 60.9C143.482 61.023 143.204 61.0975 142.92 61.12C142.643 61.1401 142.366 61.1096 142.1 61.03C141.821 60.9557 141.553 60.8482 141.3 60.71C141.033 60.5642 140.784 60.3862 140.56 60.18L139.89 59.54C139.59 59.24 139.33 58.96 139.1 58.7C138.888 58.4739 138.7 58.2259 138.54 57.96C138.412 57.7461 138.295 57.5259 138.19 57.3C138.1 57.09 138.03 56.91 137.97 56.74L139.43 55.29L140.61 56.47C140.54 56.7354 140.54 57.0146 140.61 57.28C140.662 57.5066 140.777 57.7143 140.94 57.88L141.11 58.02C141.184 58.072 141.27 58.1031 141.36 58.11C141.474 58.1024 141.585 58.0753 141.69 58.03C141.858 57.9392 142.01 57.8209 142.14 57.68C141.93 57.44 141.74 57.19 141.55 56.93C141.375 56.6758 141.215 56.412 141.07 56.14C140.933 55.8828 140.826 55.6111 140.75 55.33C140.681 55.0659 140.65 54.793 140.66 54.52C140.673 54.2428 140.741 53.9708 140.86 53.72C140.996 53.4329 141.183 53.1722 141.41 52.95C141.662 52.6937 141.952 52.4778 142.27 52.31C142.533 52.1769 142.817 52.0922 143.11 52.06C143.389 52.0331 143.67 52.0568 143.94 52.13C144.215 52.1992 144.481 52.3034 144.73 52.44C144.994 52.5844 145.245 52.7517 145.48 52.94C145.71 53.13 145.94 53.33 146.16 53.55C146.434 53.8207 146.691 54.1079 146.93 54.41C147.123 54.6548 147.3 54.9121 147.46 55.18C147.588 55.3939 147.705 55.6142 147.81 55.84C147.9 56.05 147.97 56.23 148.03 56.4L146.57 57.86L145.3 56.6C145.392 56.3406 145.42 56.0625 145.38 55.79C145.341 55.5809 145.244 55.3869 145.1 55.23L144.91 55.09C144.827 55.0458 144.734 55.0218 144.64 55.02C144.51 55.0278 144.383 55.0655 144.27 55.13C144.091 55.2178 143.931 55.3402 143.8 55.49C144.194 55.9105 144.548 56.3657 144.86 56.85C145.107 57.2237 145.28 57.6412 145.37 58.08C145.441 58.4646 145.41 58.8611 145.28 59.23C145.114 59.642 144.862 60.0137 144.54 60.32Z" fill="#FFF4D4"/>
<path d="M154 65.16L153.75 65.4L153.52 65.63L152.87 66.28C152.396 66.7797 151.833 67.1867 151.21 67.48C150.71 67.7154 150.163 67.835 149.61 67.83C149.099 67.8298 148.596 67.6989 148.15 67.45C147.679 67.1779 147.248 66.8413 146.87 66.45C146.421 66.0176 146.028 65.5304 145.7 65C145.416 64.5215 145.245 63.9845 145.2 63.43C145.166 62.8551 145.265 62.2801 145.49 61.75C145.765 61.1179 146.162 60.5468 146.66 60.07L147.79 59L147.38 58.4L149 56.74L152.3 60L150.65 61.65L150.05 61.24L149.55 61.74L149.35 61.94L149.16 62.13L149.01 62.29L148.92 62.38L148.7 62.6C148.62 62.69 148.55 62.79 148.47 62.9C148.397 63.0118 148.34 63.1329 148.3 63.26C148.251 63.391 148.227 63.5301 148.23 63.67C148.24 63.8252 148.277 63.9775 148.34 64.12C148.432 64.2994 148.553 64.4618 148.7 64.6C148.84 64.7493 149.006 64.8714 149.19 64.96C149.331 65.0271 149.484 65.0645 149.64 65.07C149.782 65.076 149.925 65.0556 150.06 65.01C150.186 64.9622 150.306 64.9019 150.42 64.83C150.526 64.7614 150.626 64.6845 150.72 64.6L150.95 64.38L151.04 64.29L151.19 64.13L151.37 63.95L151.56 63.75L152.06 63.25L151.66 62.66L153.31 61L156.21 63.9L154.56 65.55L154 65.16Z" fill="#FFF4D4"/>
<path d="M156.88 70.61L154 73.49L151 70.49L152.67 68.82L153.27 69.22L155.65 66.84L155.24 66.24L156.89 64.59L159.89 67.59L158.89 71.11L162.39 70.11L165.39 73.11L163.74 74.76L163.14 74.36L160.76 76.74L161.17 77.34L159.54 79L156.54 76L159.42 73.11L156 74L156.88 70.61Z" fill="#FFF4D4"/>
<path d="M166.25 80L163.36 82.88L160.36 79.88L162 78.17L162.59 78.58L165 76.2L164.6 75.6L166.24 74L169.24 77L168.24 80.52L171.75 79.52L174.75 82.52L173.1 84.17L172.5 83.76L170.12 86.14L170.52 86.74L168.9 88.4L165.9 85.4L168.78 82.52L165.4 83.39L166.25 80Z" fill="#FFF4D4"/>
<path d="M176.05 88.94L177.46 89.86L176.26 91.05L175.36 89.64L174.43 90.56C174.607 90.7223 174.798 90.8695 175 91C175.168 91.131 175.349 91.2448 175.54 91.34C175.702 91.43 175.873 91.5037 176.05 91.56C176.202 91.6133 176.36 91.6502 176.52 91.67L177.09 92.24L174.9 94.4L169.73 89.22L171.4 87.55L172 88L174.38 85.63L174 85L175.66 83.34L180.83 88.51L178.69 90.66L178.12 90.08C178.095 89.9231 178.055 89.769 178 89.62C177.942 89.4405 177.868 89.2665 177.78 89.1C177.682 88.9159 177.572 88.7388 177.45 88.57C177.313 88.3703 177.162 88.1798 177 88L176.05 88.94Z" fill="#FFF4D4"/>
<path d="M178.86 102.94L177.47 99.68L177.94 99.11C178.1 98.91 178.28 98.71 178.47 98.51C178.66 98.31 178.86 98.11 179.07 97.92C179.278 97.723 179.499 97.5394 179.73 97.37L179.66 97.19L176.91 98.36L175.23 94.42L177.41 93.5L177.81 94.1L180.91 92.78L180.76 92.07L182.9 91.16L184.8 95.62C185.05 96.21 185.24 96.74 185.38 97.19C185.497 97.5782 185.578 97.9766 185.62 98.38C185.651 98.6741 185.634 98.9713 185.57 99.26C185.515 99.4866 185.416 99.7005 185.28 99.89C185.147 100.073 184.981 100.229 184.79 100.35C184.583 100.481 184.366 100.595 184.14 100.69C183.922 100.784 183.694 100.855 183.46 100.9C183.249 100.945 183.031 100.945 182.82 100.9C182.588 100.848 182.367 100.753 182.17 100.62C181.913 100.442 181.675 100.237 181.46 100.01C181.329 100.162 181.212 100.326 181.11 100.5L180.74 101.16C180.62 101.39 180.51 101.62 180.4 101.84C180.29 102.06 180.19 102.26 180.11 102.42L178.86 102.94ZM181.13 96.56C181.22 96.76 181.31 96.93 181.4 97.09C181.475 97.2285 181.577 97.3508 181.7 97.45C181.82 97.5346 181.963 97.5801 182.11 97.58C182.308 97.5835 182.503 97.5389 182.68 97.45C182.861 97.3826 183.024 97.2769 183.16 97.14C183.264 97.0303 183.331 96.8901 183.35 96.74C183.384 96.5851 183.384 96.4248 183.35 96.27C183.302 96.0818 183.238 95.8979 183.16 95.72L181.13 96.56Z" fill="#FFF4D4"/>
<path d="M106.67 74.88C108.43 74.862 110.179 75.1496 111.84 75.73C113.345 76.259 114.734 77.0739 115.93 78.13C117.096 79.1769 118.025 80.4607 118.654 81.8956C119.284 83.3305 119.599 84.8832 119.58 86.45C119.578 87.4376 119.478 88.4225 119.28 89.39C119.031 90.5144 118.641 91.603 118.12 92.63C120.626 90.3043 123.921 89.0175 127.34 89.03C128.929 89.021 130.507 89.3093 131.99 89.88C133.461 90.443 134.801 91.3026 135.926 92.4053C137.051 93.508 137.938 94.8303 138.53 96.29C139.219 97.9846 139.559 99.8009 139.53 101.63C139.6 103.67 139.15 105.693 138.22 107.51C137.387 109.036 136.197 110.336 134.75 111.3C133.246 112.268 131.574 112.946 129.82 113.3C127.968 113.7 126.074 113.871 124.18 113.81C126.798 114.867 129.075 116.625 130.76 118.89C132.238 120.964 133.022 123.453 133 126C133.012 127.701 132.735 129.392 132.18 131C131.666 132.481 130.825 133.828 129.72 134.94C128.547 136.087 127.142 136.97 125.6 137.53C123.738 138.199 121.768 138.521 119.79 138.48C117.779 138.543 115.78 138.153 113.94 137.34C112.448 136.652 111.117 135.661 110.03 134.43C109.027 133.249 108.251 131.893 107.74 130.43C107.251 129.017 106.916 127.555 106.74 126.07C106.584 127.558 106.249 129.023 105.74 130.43C105.227 131.944 104.409 133.337 103.338 134.524C102.266 135.71 100.964 136.665 99.51 137.33C97.666 138.142 95.6639 138.531 93.65 138.47C91.6716 138.51 89.7025 138.188 87.84 137.52C86.3041 136.965 84.9082 136.081 83.75 134.93C82.6338 133.821 81.7767 132.479 81.24 131C80.6885 129.391 80.4146 127.701 80.43 126C80.4048 123.473 81.1782 121.002 82.64 118.94C84.3232 116.673 86.6004 114.915 89.22 113.86C87.3129 113.924 85.4052 113.752 83.54 113.35C81.7909 113.002 80.1243 112.323 78.63 111.35C77.1867 110.38 75.9941 109.081 75.15 107.56C74.2128 105.746 73.7582 103.721 73.83 101.68C73.8008 99.8509 74.1409 98.0346 74.83 96.34C75.4224 94.8803 76.3087 93.558 77.4338 92.4553C78.5589 91.3526 79.8987 90.493 81.37 89.93C82.8701 89.3566 84.4641 89.0683 86.07 89.08C89.4886 89.0675 92.7843 90.3543 95.29 92.68C94.7632 91.6534 94.3668 90.565 94.11 89.44C93.8928 88.475 93.7821 87.4891 93.78 86.5C93.7607 84.9333 94.0764 83.3804 94.7059 81.9456C95.3354 80.5107 96.2641 79.2269 97.43 78.18C98.6259 77.1239 100.015 76.309 101.52 75.78C103.172 75.1848 104.914 74.8803 106.67 74.88ZM118 106.65C118.013 105.146 117.706 103.657 117.1 102.28C116.523 100.933 115.695 99.7078 114.66 98.67C113.621 97.6408 112.401 96.8135 111.06 96.23C109.665 95.6257 108.16 95.3191 106.64 95.33C105.136 95.322 103.648 95.6286 102.27 96.23C99.5823 97.398 97.438 99.5423 96.27 102.23C95.6685 103.608 95.362 105.097 95.37 106.6C95.3614 108.12 95.6679 109.625 96.27 111.02C96.8533 112.363 97.6845 113.585 98.72 114.62C99.7497 115.655 100.973 116.477 102.32 117.04C103.701 117.63 105.188 117.93 106.69 117.92C108.208 117.933 109.713 117.633 111.11 117.04C112.456 116.475 113.679 115.653 114.71 114.62C115.742 113.584 116.57 112.363 117.15 111.02C117.734 109.638 118.024 108.15 118 106.65Z" fill="#F98410"/>
<path d="M178.63 121.07L178.1 122.54L176.58 121.54L177.7 120.46L177 120L176.49 120.52L174.49 119.25L177.19 115.06L179.19 116.34L178.92 117.01L181.74 118.83L182.24 118.3L184.24 119.57L180.51 125.36L177.96 123.72L178.5 122.89C178.768 122.832 179.022 122.723 179.25 122.57C179.524 122.392 179.756 122.157 179.93 121.88L178.63 121.07Z" fill="#FFF4D4"/>
<path d="M173.23 127.22L172.32 128.62L171.13 127.43L172.54 126.52L171.61 125.6C171.45 125.764 171.299 125.938 171.16 126.12C171.038 126.289 170.928 126.466 170.83 126.65C170.742 126.817 170.668 126.991 170.61 127.17C170.551 127.321 170.514 127.479 170.5 127.64L169.92 128.21L167.78 126.07L172.95 120.89L174.62 122.56L174.22 123.16L176.59 125.53L177.19 125.13L178.85 126.79L173.67 132L171.53 129.86L172.11 129.28C172.267 129.259 172.421 129.222 172.57 129.17C172.745 129.109 172.916 129.036 173.08 128.95C173.267 128.848 173.447 128.734 173.62 128.61C173.807 128.477 173.981 128.326 174.14 128.16L173.23 127.22Z" fill="#FFF4D4"/>
<path d="M167.4 133.06L166.48 134.46L165.29 133.27L166.7 132.36L165.77 131.44C165.61 131.601 165.463 131.775 165.33 131.96C165.201 132.126 165.088 132.304 164.99 132.49C164.902 132.657 164.828 132.831 164.77 133.01C164.711 133.161 164.674 133.319 164.66 133.48L164.08 134.05L161.94 131.91L167.11 126.73L168.78 128.4L168.38 129L170.75 131.37L171.35 130.97L173.01 132.63L167.83 137.8L165.69 135.66L166.27 135.08C166.427 135.059 166.581 135.022 166.73 134.97C166.905 134.909 167.076 134.836 167.24 134.75C167.429 134.651 167.609 134.538 167.78 134.41C167.965 134.277 168.139 134.13 168.3 133.97L167.4 133.06Z" fill="#FFF4D4"/>
<path d="M159.85 137.21C159.733 137.324 159.635 137.455 159.56 137.6C159.491 137.734 159.434 137.875 159.39 138.02C159.352 138.157 159.328 138.298 159.32 138.44C159.305 138.566 159.305 138.694 159.32 138.82L158.62 139.52L156.48 137.38L161.27 132.59L162.94 134.26L162.53 134.86L164.91 137.24L165.51 136.83L167.16 138.48L163.63 142L162 140.36L162.41 139.76L159.85 137.21Z" fill="#FFF4D4"/>
<path d="M156.27 146.25C156.405 146.12 156.517 145.968 156.6 145.8C156.668 145.669 156.712 145.527 156.73 145.38C156.756 145.258 156.756 145.132 156.73 145.01C156.712 144.916 156.666 144.829 156.6 144.76L157.3 144.06L159.44 146.21L153.74 151.92L151.59 149.77L152.29 149.07C152.36 149.138 152.446 149.186 152.54 149.21C152.659 149.231 152.781 149.231 152.9 149.21C153.049 149.185 153.194 149.138 153.33 149.07C153.494 148.989 153.643 148.881 153.77 148.75L151.2 146.18L150.6 146.58L148.93 144.91L152.46 141.39L154.13 143.06L153.72 143.66L156.27 146.25Z" fill="#FFF4D4"/>
<path d="M153.15 152.49L149.62 156L148 154.35L148.4 153.75L147.71 153.06L145.71 155.06L146.4 155.75L147 155.34L148.68 157.02L145.15 160.54L143.47 158.87L143.88 158.27L141.51 155.89L140.91 156.3L139.24 154.63L142.76 151.11L144.43 152.78L144.03 153.37L144.72 154.07L146.72 152.07L146.02 151.37L145.42 151.78L143.75 150.11L147.27 146.58L148.94 148.25L148.54 148.85L150.91 151.22L151.51 150.82L153.15 152.49Z" fill="#FFF4D4"/>
<path d="M138.68 161.77L137.77 163.18L136.57 161.99L137.98 161.08L137.06 160.15C136.896 160.311 136.746 160.485 136.61 160.67C136.486 160.843 136.372 161.023 136.27 161.21C136.184 161.374 136.111 161.545 136.05 161.72C136.002 161.874 135.966 162.031 135.94 162.19L135.37 162.76L133.23 160.62L138.4 155.45L140.07 157.12L139.66 157.72L142.04 160.09L142.64 159.68L144.29 161.34L139.12 166.51L137 164.37L137.57 163.8C137.726 163.775 137.88 163.739 138.03 163.69C138.21 163.628 138.384 163.551 138.55 163.46C138.735 163.365 138.913 163.254 139.08 163.13C139.27 162.997 139.448 162.846 139.61 162.68L138.68 161.77Z" fill="#FFF4D4"/>
<path d="M133.11 166.79C133.58 167.249 133.96 167.791 134.23 168.39C134.447 168.901 134.536 169.457 134.49 170.01C134.432 170.576 134.259 171.124 133.98 171.62C133.649 172.192 133.242 172.717 132.77 173.18C132.489 173.464 132.192 173.731 131.88 173.98C131.628 174.18 131.365 174.363 131.09 174.53C130.874 174.672 130.646 174.796 130.41 174.9C130.224 174.99 130.034 175.07 129.84 175.14L128 173.32L129.18 172.14C129.322 172.165 129.466 172.181 129.61 172.19C129.733 172.206 129.857 172.206 129.98 172.19C130.1 172.163 130.215 172.115 130.32 172.05C130.448 171.972 130.566 171.878 130.67 171.77C130.816 171.627 130.937 171.462 131.03 171.28C131.127 171.101 131.182 170.903 131.19 170.7C131.189 170.477 131.145 170.256 131.06 170.05C130.941 169.789 130.771 169.554 130.56 169.36C130.343 169.125 130.09 168.925 129.81 168.77C129.617 168.652 129.396 168.586 129.17 168.58C128.965 168.577 128.764 168.633 128.59 168.74C128.381 168.865 128.19 169.016 128.02 169.19C127.916 169.293 127.819 169.403 127.73 169.52C127.629 169.656 127.539 169.8 127.46 169.95L127.94 170.42L128.78 169.58L129.78 170.58L127.38 173L124.6 170.22C124.72 169.927 124.86 169.627 125.02 169.32C125.17 169.02 125.34 168.72 125.52 168.43C125.688 168.151 125.879 167.887 126.09 167.64C126.3 167.4 126.5 167.18 126.69 166.99C127.128 166.547 127.622 166.164 128.16 165.85C128.653 165.566 129.203 165.395 129.77 165.35C130.344 165.322 130.917 165.417 131.45 165.63C132.075 165.903 132.639 166.297 133.11 166.79Z" fill="#FFF4D4"/>
<path d="M116.85 176.58L119.49 174.22L120.18 174.48C120.42 174.57 120.67 174.68 120.92 174.79C121.17 174.9 121.42 175.03 121.67 175.17C121.923 175.304 122.166 175.455 122.4 175.62L122.55 175.49L120.55 173.26L123.74 170.42L125.31 172.18L124.87 172.75L127.11 175.27L127.73 174.9L129.29 176.64L125.67 179.86C125.257 180.219 124.823 180.553 124.37 180.86C124.057 181.095 123.722 181.3 123.37 181.47C123.102 181.597 122.815 181.678 122.52 181.71C122.288 181.733 122.053 181.71 121.83 181.64C121.617 181.567 121.417 181.459 121.24 181.32C121.049 181.166 120.871 180.995 120.71 180.81C120.551 180.635 120.41 180.444 120.29 180.24C120.188 180.047 120.123 179.837 120.1 179.62C120.082 179.382 120.102 179.142 120.16 178.91C120.245 178.612 120.363 178.323 120.51 178.05C120.325 177.978 120.134 177.921 119.94 177.88L119.2 177.74L118.44 177.63L117.8 177.55L116.85 176.58ZM123.62 176.69C123.47 176.82 123.33 176.96 123.2 177.11C123.09 177.223 123.007 177.36 122.96 177.51C122.915 177.65 122.915 177.8 122.96 177.94C123.025 178.128 123.131 178.298 123.27 178.44C123.393 178.59 123.546 178.713 123.72 178.8C123.86 178.844 124.01 178.844 124.15 178.8C124.308 178.767 124.458 178.702 124.59 178.61C124.751 178.5 124.905 178.38 125.05 178.25L123.62 176.69Z" fill="#FFF4D4"/>
<path d="M113.94 182.27L112.5 183.12L111.97 181.52L113.63 181.34L113.22 180.1C113.004 180.17 112.793 180.257 112.59 180.36C112.403 180.454 112.222 180.561 112.05 180.68C111.899 180.79 111.755 180.91 111.62 181.04C111.505 181.153 111.401 181.277 111.31 181.41L110.54 181.67L109.54 178.79L116.48 176.49L117.22 178.74L116.59 179.09L117.65 182.27L118.36 182.18L119.1 184.4L112.16 186.7L111.16 183.83L111.93 183.57C112.083 183.621 112.24 183.657 112.4 183.68C112.586 183.696 112.774 183.696 112.96 183.68C113.171 183.679 113.382 183.659 113.59 183.62C113.817 183.585 114.041 183.531 114.26 183.46L113.94 182.27Z" fill="#FFF4D4"/>
<path d="M103.61 178.48L103.8 179.9L106.12 180.08L106.52 178.71L109.68 178.95L109.47 181.69L108.77 181.77L106.77 187.08L102.19 186.72L100.96 181.16L100.29 180.97L100.51 178.23L103.61 178.48ZM105.61 181.92L104.02 181.79L104.56 185.12L105.61 181.92Z" fill="#FFF4D4"/>
<path d="M96.44 182.82C96.6135 182.915 96.8036 182.976 97 183C97.1489 183.026 97.3011 183.026 97.45 183C97.5682 182.981 97.6808 182.937 97.78 182.87C97.8633 182.822 97.9323 182.753 97.98 182.67L98.86 183.1L97.52 185.82L90.28 182.24L91.63 179.52L92.51 179.96C92.4883 180.052 92.4883 180.148 92.51 180.24C92.5217 180.362 92.5556 180.48 92.61 180.59C92.6764 180.723 92.7642 180.845 92.87 180.95C93.0018 181.08 93.1538 181.188 93.32 181.27L94.85 178L94.28 177.56L95.28 175.45L99.75 177.65L98.7 179.77L98.01 179.58L96.44 182.82Z" fill="#FFF4D4"/>
<path d="M88 168.39C88.4672 168.852 88.8768 169.369 89.22 169.93C89.5388 170.431 89.7373 170.999 89.8 171.59C89.8615 172.173 89.7826 172.763 89.57 173.31C89.3154 173.954 88.9229 174.534 88.42 175.01C87.9549 175.504 87.384 175.887 86.75 176.13C86.2095 176.326 85.6304 176.391 85.06 176.32C84.4806 176.23 83.9238 176.03 83.42 175.73C82.8546 175.393 82.3339 174.987 81.87 174.52C81.4035 174.062 81 173.544 80.67 172.98C80.3626 172.475 80.1587 171.914 80.07 171.33C79.9996 170.756 80.0647 170.174 80.26 169.63C80.5147 169.006 80.908 168.449 81.41 168C81.7447 167.656 82.1249 167.36 82.54 167.12C82.8971 166.91 83.2853 166.758 83.69 166.67C84.0706 166.605 84.4593 166.605 84.84 166.67C85.2316 166.713 85.6153 166.811 85.98 166.96C86.3598 167.122 86.7163 167.334 87.04 167.59C87.3743 167.839 87.6948 168.106 88 168.39ZM83.66 172.74C83.797 172.885 83.9598 173.004 84.14 173.09C84.2781 173.156 84.4272 173.197 84.58 173.21C84.7159 173.215 84.8516 173.195 84.98 173.15C85.107 173.11 85.2281 173.052 85.34 172.98L85.64 172.74L85.88 172.52L86.1 172.28C86.1911 172.187 86.2746 172.086 86.35 171.98C86.4301 171.864 86.4972 171.74 86.55 171.61C86.6094 171.474 86.64 171.328 86.64 171.18C86.6393 171.021 86.6052 170.865 86.54 170.72C86.4542 170.531 86.3318 170.361 86.18 170.22C86.0369 170.07 85.8674 169.948 85.68 169.86C85.536 169.792 85.3793 169.754 85.22 169.75C85.0762 169.75 84.9338 169.778 84.8 169.83C84.668 169.875 84.5434 169.939 84.43 170.02C84.3201 170.091 84.2164 170.171 84.12 170.26L83.89 170.48L83.66 170.72L83.42 171.02C83.348 171.134 83.2877 171.254 83.24 171.38C83.1997 171.513 83.1795 171.651 83.18 171.79C83.1881 171.95 83.2289 172.106 83.3 172.25C83.4005 172.438 83.5363 172.604 83.7 172.74H83.66Z" fill="#FFF4D4"/>
<path d="M77.66 164.51L76.34 163.69L77.61 162.41L78.44 163.73L79.07 163.1L78.67 162.49L80.33 160.83L83.86 164.36L82.19 166L81.59 165.59L79.21 168L79.62 168.6L78 170.25L73.13 165.38L75.28 163.24L75.98 163.94C75.9769 164.213 76.0243 164.484 76.12 164.74C76.245 165.043 76.4285 165.318 76.66 165.55L77.66 164.51Z" fill="#FFF4D4"/>
<path d="M68.81 153C69.0402 152.761 69.3111 152.564 69.61 152.42C69.8673 152.298 70.1457 152.226 70.43 152.21C70.706 152.187 70.9838 152.214 71.25 152.29C71.5273 152.372 71.7954 152.483 72.05 152.62C72.314 152.762 72.5593 152.937 72.78 153.14L73.45 153.78C73.75 154.08 74.02 154.36 74.25 154.62C74.4541 154.851 74.6381 155.098 74.8 155.36C74.934 155.574 75.051 155.798 75.15 156.03C75.2337 156.209 75.3072 156.393 75.37 156.58L73.92 158.04L72.73 156.85C72.7949 156.584 72.7949 156.306 72.73 156.04C72.6674 155.818 72.5505 155.615 72.39 155.45C72.3402 155.393 72.2831 155.342 72.22 155.3C72.1515 155.247 72.0668 155.218 71.98 155.22C71.8617 155.217 71.7446 155.245 71.64 155.3C71.4767 155.39 71.3282 155.505 71.2 155.64C71.4 155.89 71.6 156.14 71.78 156.4C71.9636 156.65 72.1274 156.914 72.27 157.19C72.4024 157.448 72.5064 157.72 72.58 158C72.6586 158.259 72.689 158.53 72.67 158.8C72.6557 159.076 72.5913 159.347 72.48 159.6C72.3426 159.886 72.1565 160.147 71.93 160.37C71.6788 160.627 71.3886 160.843 71.07 161.01C70.8034 161.142 70.5158 161.227 70.22 161.26C69.942 161.29 69.6609 161.27 69.39 161.2C69.1148 161.125 68.8495 161.018 68.6 160.88C68.3384 160.737 68.0907 160.569 67.86 160.38C67.622 160.193 67.395 159.993 67.18 159.78C66.9082 159.504 66.6512 159.213 66.41 158.91C66.2193 158.667 66.0424 158.413 65.88 158.15C65.7461 157.936 65.6291 157.712 65.53 157.48C65.44 157.28 65.36 157.09 65.3 156.93L66.76 155.46L68 156.75C67.9108 157.007 67.8867 157.282 67.93 157.55C67.961 157.762 68.0592 157.958 68.21 158.11C68.2662 158.161 68.3264 158.208 68.39 158.25C68.4747 158.3 68.5719 158.324 68.67 158.32C68.7987 158.311 68.9243 158.277 69.04 158.22C69.2151 158.122 69.3737 157.997 69.51 157.85C69.1139 157.433 68.7558 156.981 68.44 156.5C68.1994 156.119 68.0268 155.7 67.93 155.26C67.8579 154.875 67.8925 154.477 68.03 154.11C68.2019 153.685 68.4687 153.306 68.81 153Z" fill="#FFF4D4"/>
<path d="M59.3901 148.18C59.4701 148.1 59.5601 148.02 59.6301 147.94L59.8601 147.72L60.5101 147.07C60.9881 146.568 61.5541 146.158 62.1801 145.86C62.6816 145.628 63.2277 145.509 63.7801 145.51C64.2882 145.518 64.7863 145.652 65.2301 145.9C65.7053 146.166 66.1369 146.503 66.5101 146.9C66.9496 147.323 67.3297 147.805 67.6401 148.33C67.9298 148.81 68.1012 149.351 68.1401 149.91C68.1786 150.481 68.0827 151.053 67.8601 151.58C67.5844 152.217 67.1831 152.792 66.6801 153.27L65.5601 154.39L65.9701 154.99L64.3201 156.63L61.0501 153.37L62.7001 151.72L63.2901 152.12L63.7901 151.63L64.0001 151.42L64.1801 151.23L64.3301 151.07L64.4201 150.99L64.6401 150.76C64.7246 150.666 64.8015 150.566 64.8701 150.46C64.9399 150.349 65.0002 150.232 65.0501 150.11C65.0985 149.979 65.1189 149.839 65.1101 149.7C65.107 149.544 65.0695 149.39 65.0001 149.25C64.9118 149.068 64.7934 148.903 64.6501 148.76C64.5105 148.611 64.3443 148.489 64.1601 148.4C64.0226 148.341 63.8746 148.311 63.7251 148.311C63.5756 148.311 63.4276 148.341 63.2901 148.4C63.1601 148.438 63.0381 148.499 62.9301 148.58C62.8241 148.649 62.7238 148.725 62.6301 148.81L62.4001 149.02L62.3101 149.12C62.2552 149.165 62.2049 149.215 62.1601 149.27L61.9701 149.46L61.7801 149.65L61.2801 150.15L61.6901 150.75L60.0001 152.33L57.0901 149.42L58.7401 147.77L59.3901 148.18Z" fill="#FFF4D4"/>
<path d="M56.4601 142.73L59.3501 139.85L62.3501 142.85L60.6801 144.52L60.0901 144.11L57.7001 146.49L58.1101 147.09L56.4601 148.74L53.4601 145.74L54.4601 142.22L50.9501 143.22L47.9501 140.22L49.6001 138.57L50.2001 138.98L52.5801 136.6L52.1801 136L53.8501 134.33L56.8501 137.33L53.9701 140.21L57.3501 139.34L56.4601 142.73Z" fill="#FFF4D4"/>
<path d="M47.1 133.37L50 130.48L53 133.48L51.33 135.15L50.73 134.75L48.35 137.13L48.76 137.73L47.11 139.38L44.11 136.38L45.11 132.86L41.6 133.86L38.6 130.86L40.25 129.21L40.84 129.61L43.23 127.23L42.82 126.63L44.49 124.96L47.49 127.96L44.6 130.84L48 130L47.1 133.37Z" fill="#FFF4D4"/>
<path d="M37.2901 124.4L35.89 123.49L37.0801 122.3L37.9901 123.71L38.91 122.78C38.7513 122.614 38.5772 122.463 38.39 122.33C38.21 122.2 38.0301 122.09 37.8601 121.99C37.6915 121.906 37.5178 121.832 37.34 121.77C37.1867 121.72 37.0295 121.683 36.87 121.66L36.3 121.09L38.44 119L43.62 124.17L42 125.79L41.4001 125.38L39 127.76L39.4001 128.36L37.7201 130L32.55 124.83L34.69 122.69L35.2701 123.26C35.2899 123.417 35.3268 123.571 35.3801 123.72C35.4424 123.898 35.5159 124.071 35.6 124.24C35.7012 124.427 35.8148 124.608 35.94 124.78C36.0759 124.965 36.2264 125.139 36.39 125.3L37.2901 124.4Z" fill="#FFF4D4"/>
<path d="M34.49 110.44L35.88 113.69C35.74 113.88 35.58 114.07 35.42 114.27L34.89 114.87C34.7 115.07 34.5 115.27 34.29 115.46C34.0779 115.656 33.8541 115.84 33.62 116.01L33.7 116.19L36.45 115L38.13 119L35.96 119.92L35.55 119.32L32.46 120.65L32.61 121.35L30.46 122.27L28.56 117.81C28.3418 117.285 28.1548 116.747 28 116.2C27.8826 115.812 27.8022 115.413 27.76 115.01C27.7126 114.719 27.7126 114.421 27.76 114.13C27.8135 113.9 27.912 113.682 28.05 113.49C28.1859 113.313 28.3518 113.16 28.54 113.04C28.7458 112.907 28.9634 112.793 29.19 112.7C29.4055 112.598 29.6345 112.527 29.87 112.49C30.081 112.445 30.2991 112.445 30.51 112.49C30.7451 112.543 30.9687 112.638 31.17 112.77C31.427 112.948 31.6649 113.153 31.88 113.38C32.002 113.223 32.1155 113.059 32.22 112.89C32.34 112.68 32.47 112.46 32.59 112.23L32.94 111.55L33.22 110.97L34.49 110.44ZM32.23 116.82C32.1503 116.638 32.0601 116.461 31.96 116.29C31.8847 116.151 31.7827 116.029 31.66 115.93C31.5393 115.847 31.3966 115.802 31.25 115.8C31.0529 115.802 30.8584 115.846 30.68 115.93C30.4968 115.997 30.3322 116.106 30.2 116.25C30.0946 116.355 30.0276 116.492 30.01 116.64C29.9765 116.795 29.9765 116.955 30.01 117.11C30.0599 117.301 30.1234 117.488 30.2 117.67L32.23 116.82Z" fill="#FFF4D4"/>
</g>
<defs>
<clipPath id="clip0_0_8000">
<rect width="213.34" height="213.34" fill="white"/>
</clipPath>
</defs>
</svg>
