<svg width="273" height="102" viewBox="0 0 273 102" fill="none" xmlns="http://www.w3.org/2000/svg">
<g clip-path="url(#clip0_0_8046)">
<path d="M47.39 56.16C46.0567 63.76 44.7233 71.3533 43.39 78.94C40.89 93.01 29.39 99.52 19.19 98.27C8.98999 97.02 -0.0700078 88.27 2.41999 74.6C3.75333 67.2 5.08666 59.7933 6.41999 52.38C11.73 53.26 17.04 53.96 22.35 54.52C21.0167 62.02 19.6833 69.5067 18.35 76.98C17.75 80.34 19.71 82.3 21.92 82.53C24.13 82.76 26.69 81.29 27.3 77.91C28.6333 70.4033 29.9667 62.8767 31.3 55.33C36.6733 55.7433 42.0367 56.02 47.39 56.16Z" fill="black"/>
<path d="M75.48 74.57L73 69.08C73.78 64.7334 74.5533 60.3734 75.32 56C80.6533 55.8067 85.9633 55.5467 91.25 55.22C88.73 69.6667 86.21 84.1034 83.69 98.53C78.32 98.79 72.95 98.99 67.57 99.09C64.9033 93.2167 62.2367 87.3267 59.57 81.42H58.57C59.4 83.3 60.23 85.17 61.07 87.05C60.3567 91.1034 59.6467 95.1534 58.94 99.2C53.6067 99.2 48.2967 99.1 43.01 98.9C45.53 84.7 48.05 70.48 50.57 56.24C55.67 56.34 60.7767 56.34 65.89 56.24C68.7767 62.38 71.6667 68.4967 74.56 74.59L75.48 74.57Z" fill="black"/>
<path d="M129.85 65C129.297 68.0982 127.655 70.8966 125.22 72.89C128.89 74.34 130.06 78.03 129.37 82.02C127.7 91.66 119.37 96.02 107.82 97.02C100.94 97.56 94.06 98.02 87.17 98.42C89.69 83.9534 92.2133 69.48 94.74 55C101.113 54.5867 107.483 54.1067 113.85 53.56C124.39 52.69 131.44 55.82 129.85 65ZM113.23 64.5L108.75 64.86C107.583 71.7267 106.39 78.5967 105.17 85.47L110.17 85.07C114.17 84.74 115.01 79.83 110.96 80.16L107.04 80.48L109 69.42L112.43 69.14C116.27 68.82 117.08 64.15 113.23 64.48V64.5Z" fill="black"/>
<path d="M132.73 73.36C134.94 60.67 147.27 49.36 160.2 48.25C173.13 47.14 181.8 56.87 179.6 69.5C177.4 82.13 165.13 93.11 152.2 94.27C139.27 95.43 130.53 86.06 132.73 73.36ZM155.07 77.42C156.814 77.1957 158.444 76.4324 159.733 75.2366C161.022 74.0408 161.906 72.4722 162.26 70.75C162.86 67.33 160.59 64.75 157.26 65.04C155.516 65.2856 153.891 66.067 152.61 67.2762C151.329 68.4855 150.455 70.0628 150.11 71.79C149.48 75.21 151.7 77.71 155.07 77.42Z" fill="black"/>
<path d="M186 47.68C191.86 47.3667 197.723 47.1434 203.59 47.01C220.68 46.72 224.77 54.85 223 63.73C222.15 68.19 219.31 72.73 214.25 74.34C216.143 79.4867 218.033 84.65 219.92 89.83C214.36 89.74 208.81 89.83 203.25 89.9L198.33 73.8C198.683 71.8 199.017 69.83 199.33 67.89L202.89 67.79C203.813 67.8301 204.72 67.5432 205.452 66.9797C206.184 66.4162 206.693 65.6124 206.89 64.71C207.16 63.18 206.31 61.71 203.98 61.76L199.33 61.88C197.67 71.3134 196.003 80.7467 194.33 90.18C188.997 90.3867 183.687 90.6634 178.4 91.01C180.953 76.5634 183.487 62.12 186 47.68Z" fill="black"/>
<path d="M254.41 67.78C253.6 65.78 252.78 63.87 251.97 61.92C252.73 57.6734 253.493 53.4334 254.26 49.2C259.593 49.8667 264.903 50.67 270.19 51.61C267.663 65.4367 265.14 79.31 262.62 93.23C257.247 92.41 251.877 91.7434 246.51 91.23C243.843 85.05 241.177 78.91 238.51 72.81L237.51 72.74C238.35 74.68 239.18 76.61 240.01 78.55C239.303 82.55 238.59 86.55 237.87 90.55C232.537 90.2034 227.227 89.9767 221.94 89.87C224.46 75.63 226.983 61.4134 229.51 47.22C234.61 47.43 239.72 47.75 244.82 48.22C247.713 54.66 250.607 61.1467 253.5 67.68L254.41 67.78Z" fill="black"/>
<path d="M21.63 100.42C20.7209 100.422 19.8125 100.369 18.91 100.26C15.9942 99.9451 13.1734 99.0386 10.62 97.5959C8.06666 96.1533 5.83446 94.205 4.05997 91.87C0.479966 87 -0.770034 80.94 0.459966 74.24C1.79997 66.84 4.84997 50.09 4.84997 50.09L6.78997 50.41C11.92 51.25 17.24 51.97 22.6 52.54L24.74 52.76L20.32 77.34C20.2146 77.7463 20.194 78.1699 20.2594 78.5845C20.3248 78.9991 20.4747 79.3959 20.7 79.75C20.8693 79.9749 21.0842 80.1616 21.3306 80.2977C21.577 80.4338 21.8494 80.5164 22.13 80.54H22.4C23.55 80.54 24.93 79.75 25.33 77.54L29.69 53.2L31.49 53.34C36.63 53.73 42 54.01 47.49 54.16L49.8 54.23L45.32 79.29C42.73 93.89 31.56 100.42 21.63 100.42Z" fill="#1C191A"/>
<path d="M58.62 101.2C53.25 101.2 47.97 101.1 42.93 100.89L40.64 100.8L41.04 98.55C43.56 84.35 46.08 70.13 48.6 55.89L48.9 54.2H50.61C53.26 54.2 55.99 54.28 58.71 54.28C61.09 54.28 63.47 54.26 65.85 54.22H67.15L71.85 64.22L73.63 54.07H75.25C80.35 53.89 85.54 53.64 91.13 53.3L93.65 53.14L85.38 100.51L83.79 100.59C78.08 100.88 72.79 101.06 67.61 101.16H66.3L62.21 92.16L60.61 101.16L58.62 101.2Z" fill="#1C191A"/>
<path d="M93 53.13L94.57 53.03C100.4 52.65 106.64 52.18 113.64 51.59C114.84 51.49 116 51.44 117.09 51.44C123.09 51.44 127.31 52.92 129.77 55.84C131.77 58.23 132.46 61.42 131.77 65.32C131.308 67.9715 130.145 70.4508 128.4 72.5C130.92 74.66 132.01 78.2 131.29 82.34C130.16 89.16 125.14 97.58 108 99C100.4 99.6 93.63 100.06 87.3 100.41L84.79 100.55L93 53.13ZM107.54 83.27L109.99 83.08C110.312 83.085 110.63 83.0019 110.908 82.8398C111.186 82.6777 111.415 82.4426 111.57 82.16H111.11L107.68 82.43L107.54 83.27ZM110.32 67.27L112.21 67.12C112.478 67.1139 112.742 67.0489 112.982 66.9296C113.222 66.8104 113.433 66.6398 113.6 66.43H113.35L110.42 66.67L110.32 67.27Z" fill="#1C191A"/>
<path d="M150.09 96.36C143.81 96.36 138.35 94 134.74 89.7C131.13 85.4 129.65 79.41 130.74 73.01C133.11 59.41 146.24 47.4 160.01 46.26C160.71 46.2 161.42 46.17 162.11 46.17C165.012 46.0881 167.896 46.65 170.556 47.8154C173.215 48.9807 175.583 50.7206 177.49 52.91C181.23 57.37 182.68 63.38 181.55 69.84C179.2 83.41 166.38 95 152.38 96.26C151.61 96.33 150.84 96.36 150.09 96.36ZM157.72 67H157.38C156.064 67.1956 154.84 67.7935 153.877 68.712C152.913 69.6304 152.258 70.8243 152 72.13C151.898 72.5581 151.89 73.0032 151.976 73.4348C152.063 73.8663 152.241 74.274 152.5 74.63C152.753 74.9047 153.063 75.1198 153.409 75.2599C153.755 75.4 154.127 75.4615 154.5 75.44H154.86C156.16 75.2534 157.373 74.6749 158.336 73.7815C159.299 72.8882 159.966 71.7226 160.25 70.44C160.356 70.0055 160.363 69.5527 160.271 69.115C160.18 68.6772 159.991 68.2655 159.72 67.91C159.476 67.6188 159.169 67.386 158.823 67.2285C158.477 67.0711 158.1 66.993 157.72 67Z" fill="#1C191A"/>
<path d="M184.32 45.77L185.91 45.68C192.15 45.35 197.91 45.13 203.55 45.01H204.45C212.99 45.01 219.03 47.11 222.45 51.24C225.12 54.51 226 59 225 64.12C224.621 66.5205 223.685 68.7987 222.266 70.7716C220.847 72.7445 218.985 74.3572 216.83 75.48C218.497 80.02 220.163 84.5767 221.83 89.15L222.83 91.88H219.92C217.81 91.88 215.69 91.88 213.58 91.88C210.26 91.88 206.82 91.88 203.34 92H201.82C201.82 92 199.27 83.62 198.21 80.16L196.1 92.16L194.49 92.23C189.43 92.43 184.24 92.7 178.61 93.06L176.07 93.22L184.32 45.77ZM200.67 65.85L202.89 65.79C203.334 65.809 203.771 65.6797 204.133 65.4226C204.495 65.1655 204.762 64.7952 204.89 64.37C204.944 64.2318 204.944 64.0782 204.89 63.94C204.89 63.94 204.63 63.76 204.1 63.76L201.03 63.83L200.67 65.85Z" fill="#1C191A"/>
<path d="M262.32 95.21C257.14 94.41 251.76 93.75 246.32 93.21L245.15 93.1C245.15 93.1 242.3 86.52 241.15 83.79L239.57 92.64L237.78 92.52C232.66 92.18 227.33 91.95 221.94 91.84L219.61 91.79L220.01 89.49C222.53 75.25 225.053 61.0333 227.58 46.84L227.88 45.12L229.63 45.19C234.86 45.41 240.04 45.74 245.04 46.19L246.21 46.29L246.69 47.36L250.9 56.77L252.62 47L254.5 47.23C259.93 47.89 265.33 48.71 270.5 49.66L272.5 50.02L272.14 52.02C269.62 65.8533 267.1 79.7233 264.58 93.63L264.23 95.55L262.32 95.21Z" fill="#1C191A"/>
<path d="M47.39 56.16C46.0567 63.76 44.7233 71.3533 43.39 78.94C40.89 93.01 29.39 99.52 19.19 98.27C8.98999 97.02 -0.0700078 88.27 2.41999 74.6C3.75333 67.2 5.08666 59.7933 6.41999 52.38C11.73 53.26 17.04 53.96 22.35 54.52C21.0167 62.02 19.6833 69.5067 18.35 76.98C17.75 80.34 19.71 82.3 21.92 82.53C24.13 82.76 26.69 81.29 27.3 77.91C28.6333 70.4033 29.9667 62.8767 31.3 55.33C36.6733 55.7433 42.0367 56.02 47.39 56.16Z" fill="#37669D"/>
<path d="M75.48 74.57L73 69.08C73.78 64.7334 74.5533 60.3734 75.32 56C80.6533 55.8067 85.9633 55.5467 91.25 55.22C88.73 69.6667 86.21 84.1034 83.69 98.53C78.32 98.79 72.95 98.99 67.57 99.09C64.9033 93.2167 62.2367 87.3267 59.57 81.42H58.57C59.4 83.3 60.23 85.17 61.07 87.05C60.3567 91.1034 59.6467 95.1534 58.94 99.2C53.6067 99.2 48.2967 99.1 43.01 98.9C45.53 84.7 48.05 70.48 50.57 56.24C55.67 56.34 60.7767 56.34 65.89 56.24C68.7767 62.38 71.6667 68.4967 74.56 74.59L75.48 74.57Z" fill="#37669D"/>
<path d="M129.85 65C129.297 68.0982 127.655 70.8966 125.22 72.89C128.89 74.34 130.06 78.03 129.37 82.02C127.7 91.66 119.37 96.02 107.82 97.02C100.94 97.56 94.06 98.02 87.17 98.42C89.69 83.9534 92.2133 69.48 94.74 55C101.113 54.5867 107.483 54.1067 113.85 53.56C124.39 52.69 131.44 55.82 129.85 65ZM113.23 64.5L108.75 64.86C107.583 71.7267 106.39 78.5967 105.17 85.47L110.17 85.07C114.17 84.74 115.01 79.83 110.96 80.16L107.04 80.48L109 69.42L112.43 69.14C116.27 68.82 117.08 64.15 113.23 64.48V64.5Z" fill="#37669D"/>
<path d="M132.73 73.36C134.94 60.67 147.27 49.36 160.2 48.25C173.13 47.14 181.8 56.87 179.6 69.5C177.4 82.13 165.13 93.11 152.2 94.27C139.27 95.43 130.53 86.06 132.73 73.36ZM155.07 77.42C156.814 77.1957 158.444 76.4324 159.733 75.2366C161.022 74.0408 161.906 72.4722 162.26 70.75C162.86 67.33 160.59 64.75 157.26 65.04C155.516 65.2856 153.891 66.067 152.61 67.2762C151.329 68.4855 150.455 70.0628 150.11 71.79C149.48 75.21 151.7 77.71 155.07 77.42Z" fill="#37669D"/>
<path d="M186 47.68C191.86 47.3667 197.723 47.1434 203.59 47.01C220.68 46.72 224.77 54.85 223 63.73C222.15 68.19 219.31 72.73 214.25 74.34C216.143 79.4867 218.033 84.65 219.92 89.83C214.36 89.74 208.81 89.83 203.25 89.9L198.33 73.8C198.683 71.8 199.017 69.83 199.33 67.89L202.89 67.79C203.813 67.8301 204.72 67.5432 205.452 66.9797C206.184 66.4162 206.693 65.6124 206.89 64.71C207.16 63.18 206.31 61.71 203.98 61.76L199.33 61.88C197.67 71.3134 196.003 80.7467 194.33 90.18C188.997 90.3867 183.687 90.6634 178.4 91.01C180.953 76.5634 183.487 62.12 186 47.68Z" fill="#37669D"/>
<path d="M254.41 67.78C253.6 65.78 252.78 63.87 251.97 61.92C252.73 57.6734 253.493 53.4334 254.26 49.2C259.593 49.8667 264.903 50.67 270.19 51.61C267.663 65.4367 265.14 79.31 262.62 93.23C257.247 92.41 251.877 91.7434 246.51 91.23C243.843 85.05 241.177 78.91 238.51 72.81L237.51 72.74C238.35 74.68 239.18 76.61 240.01 78.55C239.303 82.55 238.59 86.55 237.87 90.55C232.537 90.2034 227.227 89.9767 221.94 89.87C224.46 75.63 226.983 61.4134 229.51 47.22C234.61 47.43 239.72 47.75 244.82 48.22C247.713 54.66 250.607 61.1467 253.5 67.68L254.41 67.78Z" fill="#37669D"/>
<path d="M47.39 47.16C46.0567 54.76 44.7233 62.3533 43.39 69.94C40.89 84.01 29.39 90.52 19.19 89.27C8.98999 88.02 -0.0700078 79.28 2.41999 65.6C3.75333 58.2 5.08666 50.7933 6.41999 43.38C11.73 44.26 17.04 44.96 22.35 45.52C21.0167 53.02 19.6833 60.5067 18.35 67.98C17.75 71.34 19.71 73.3 21.92 73.53C24.13 73.76 26.69 72.29 27.3 68.91C28.6333 61.4033 29.9667 53.8767 31.3 46.33C36.6733 46.7433 42.0367 47.02 47.39 47.16Z" fill="black"/>
<path d="M75.48 65.57L73 60.08C73.78 55.7267 74.5533 51.3667 75.32 47C80.6533 46.8067 85.9633 46.5467 91.25 46.22C88.73 60.6667 86.21 75.1034 83.69 89.53C78.32 89.79 72.95 89.99 67.57 90.09C64.9033 84.2167 62.2367 78.3267 59.57 72.42H58.57C59.4 74.3 60.23 76.17 61.07 78.05C60.3567 82.1034 59.6467 86.1534 58.94 90.2C53.6067 90.2 48.2967 90.1 43.01 89.9C45.53 75.7 48.05 61.48 50.57 47.24C55.67 47.34 60.7767 47.34 65.89 47.24C68.7767 53.38 71.6667 59.4967 74.56 65.59L75.48 65.57Z" fill="black"/>
<path d="M129.85 56C129.297 59.0982 127.655 61.8966 125.22 63.89C128.89 65.34 130.06 69.03 129.37 73.02C127.7 82.66 119.37 87.02 107.82 88.02C100.94 88.56 94.06 89.02 87.17 89.42C89.69 74.9534 92.2133 60.48 94.74 46C101.113 45.5867 107.483 45.1067 113.85 44.56C124.39 43.69 131.44 46.82 129.85 56ZM113.23 55.5L108.75 55.86C107.583 62.7267 106.39 69.5967 105.17 76.47L110.17 76.07C114.17 75.74 115.01 70.83 110.96 71.16L107.04 71.48L109 60.42L112.43 60.14C116.27 59.82 117.08 55.15 113.23 55.48V55.5Z" fill="black"/>
<path d="M132.73 64.36C134.94 51.67 147.27 40.36 160.2 39.25C173.13 38.14 181.8 47.87 179.6 60.5C177.4 73.13 165.13 84.11 152.2 85.27C139.27 86.43 130.53 77.07 132.73 64.36ZM155.07 68.42C156.814 68.1957 158.444 67.4324 159.733 66.2366C161.022 65.0408 161.906 63.4722 162.26 61.75C162.86 58.33 160.59 55.75 157.26 56.04C155.516 56.2856 153.891 57.067 152.61 58.2762C151.329 59.4855 150.455 61.0628 150.11 62.79C149.48 66.21 151.7 68.71 155.07 68.42Z" fill="black"/>
<path d="M186 38.68C191.86 38.3666 197.723 38.1433 203.59 38.01C220.68 37.72 224.77 45.84 223 54.73C222.15 59.18 219.31 63.73 214.25 65.34C216.143 70.4866 218.033 75.65 219.92 80.83C214.36 80.74 208.81 80.83 203.25 80.9L198.33 64.8C198.683 62.8 199.017 60.83 199.33 58.89L202.89 58.79C203.813 58.8301 204.72 58.5431 205.452 57.9796C206.184 57.4161 206.693 56.6123 206.89 55.71C207.16 54.18 206.31 52.71 203.98 52.71L199.33 52.83C197.67 62.2633 196.003 71.6966 194.33 81.13C188.997 81.3366 183.687 81.6133 178.4 81.96C180.953 67.5466 183.487 53.12 186 38.68Z" fill="black"/>
<path d="M254.41 58.78C253.6 56.78 252.78 54.87 251.97 52.92C252.73 48.6734 253.493 44.4334 254.26 40.2C259.593 40.8667 264.903 41.67 270.19 42.61C267.663 56.4367 265.14 70.31 262.62 84.23C257.247 83.41 251.877 82.7434 246.51 82.23C243.843 76.05 241.177 69.91 238.51 63.81L237.51 63.74C238.35 65.68 239.18 67.61 240.01 69.55C239.303 73.55 238.59 77.55 237.87 81.55C232.537 81.2034 227.227 80.9767 221.94 80.87C224.46 66.63 226.983 52.4134 229.51 38.22C234.61 38.43 239.72 38.75 244.82 39.22C247.713 45.66 250.607 52.1467 253.5 58.68L254.41 58.78Z" fill="black"/>
<path d="M21.64 91.42C20.7276 91.4224 19.8158 91.369 18.91 91.26C15.9936 90.9474 13.172 90.0418 10.6183 88.599C8.0646 87.1563 5.83281 85.2067 4.05997 82.87C0.479966 78 -0.770034 71.94 0.459966 65.24C1.79997 57.84 4.84997 41.09 4.84997 41.09L6.78997 41.41C11.92 42.25 17.24 42.97 22.6 43.54L24.74 43.76L20.32 68.34C20.215 68.748 20.1946 69.1731 20.2599 69.5893C20.3253 70.0055 20.475 70.4039 20.7 70.76C20.8703 70.9831 21.0856 71.1678 21.332 71.3022C21.5783 71.4366 21.8502 71.5176 22.13 71.54H22.4C23.56 71.54 24.93 70.75 25.33 68.54L29.69 44.2L31.49 44.34C36.63 44.73 42 45.01 47.49 45.16L49.8 45.23L45.32 70.29C42.73 84.89 31.56 91.42 21.64 91.42Z" fill="#1C191A"/>
<path d="M58.62 92.2C53.25 92.2 47.97 92.1 42.93 91.89L40.64 91.8L41.04 89.55C43.56 75.35 46.08 61.13 48.6 46.89L48.9 45.2H50.61C53.26 45.2 55.99 45.28 58.71 45.28C61.09 45.28 63.47 45.26 65.85 45.22H67.15L71.85 55.22L73.63 45.07H75.25C80.35 44.89 85.54 44.64 91.13 44.3L93.65 44.14L85.38 91.46L83.79 91.54C78.08 91.83 72.79 92.01 67.61 92.11H66.3L62.21 83.11L60.61 92.11L58.62 92.2Z" fill="#1C191A"/>
<path d="M93 44.13L94.57 44.03C100.4 43.65 106.64 43.18 113.64 42.59C114.84 42.49 116 42.44 117.09 42.44C123.09 42.44 127.31 43.92 129.77 46.84C131.77 49.23 132.46 52.42 131.77 56.32C131.308 58.9715 130.145 61.4508 128.4 63.5C130.91 65.66 132.01 69.2 131.29 73.34C130.16 80.16 125.14 88.58 108 90C100.4 90.6 93.63 91.06 87.3 91.41L84.79 91.55L93 44.13ZM107.54 74.27L109.99 74.08C110.312 74.085 110.63 74.0019 110.908 73.8398C111.186 73.6777 111.415 73.4426 111.57 73.16H111.11L107.68 73.43L107.54 74.27ZM110.32 58.27L112.21 58.12C112.478 58.1139 112.742 58.0489 112.982 57.9296C113.222 57.8104 113.433 57.6398 113.6 57.43H113.35L110.42 57.67L110.32 58.27Z" fill="#1C191A"/>
<path d="M150.09 87.36C143.81 87.36 138.35 85 134.74 80.7C131.13 76.4 129.65 70.41 130.74 64.01C133.11 50.41 146.24 38.41 160.01 37.26C160.71 37.2 161.42 37.17 162.11 37.17C165.012 37.0881 167.896 37.65 170.556 38.8154C173.215 39.9807 175.583 41.7206 177.49 43.91C181.23 48.37 182.68 54.38 181.55 60.84C179.2 74.41 166.38 86 152.38 87.26C151.61 87.33 150.84 87.36 150.09 87.36ZM157.72 58H157.39C156.072 58.1936 154.846 58.7908 153.881 59.7094C152.915 60.628 152.258 61.8229 152 63.13C151.898 63.5581 151.89 64.0032 151.976 64.4348C152.063 64.8663 152.241 65.274 152.5 65.63C152.753 65.9047 153.063 66.1198 153.409 66.2599C153.755 66.4 154.127 66.4615 154.5 66.44H154.86C156.161 66.2548 157.374 65.6767 158.337 64.7831C159.3 63.8896 159.968 62.7232 160.25 61.44C160.356 61.0054 160.363 60.5527 160.271 60.115C160.18 59.6772 159.991 59.2655 159.72 58.91C159.476 58.6188 159.169 58.386 158.823 58.2285C158.477 58.0711 158.1 57.993 157.72 58Z" fill="#1C191A"/>
<path d="M184.32 36.77L185.91 36.68C192.15 36.35 197.91 36.13 203.55 36.01H204.45C212.99 36.01 219.03 38.11 222.45 42.24C225.12 45.51 226 50 225 55.12C224.623 57.521 223.687 59.7999 222.268 61.773C220.849 63.7462 218.986 65.3584 216.83 66.48C218.497 71.02 220.163 75.5767 221.83 80.15L222.83 82.88H219.92C217.81 82.88 215.69 82.88 213.58 82.88C210.26 82.88 206.82 82.88 203.34 83H201.82C201.82 83 199.27 74.62 198.21 71.16L196.1 83.16L194.49 83.23C189.43 83.43 184.24 83.7 178.61 84.06L176.07 84.22L184.32 36.77ZM200.67 56.85L202.89 56.79C203.334 56.809 203.771 56.6797 204.133 56.4226C204.495 56.1655 204.762 55.7952 204.89 55.37C204.944 55.2318 204.944 55.0782 204.89 54.94C204.89 54.94 204.63 54.76 204.1 54.76L201.03 54.83L200.67 56.85Z" fill="#1C191A"/>
<path d="M262.32 86.21C257.14 85.41 251.76 84.75 246.32 84.21L245.15 84.1C245.15 84.1 242.3 77.52 241.15 74.79L239.57 83.64L237.78 83.52C232.66 83.18 227.33 82.95 221.94 82.84L219.61 82.79L220.01 80.49C222.53 66.25 225.053 52.0333 227.58 37.84L227.88 36.12L229.63 36.19C234.86 36.41 240.04 36.74 245.04 37.19L246.21 37.29L246.69 38.36L250.9 47.77L252.62 38L254.5 38.23C259.93 38.89 265.33 39.71 270.5 40.66L272.5 41.02L272.14 43.02C269.62 56.8467 267.1 70.7167 264.58 84.63L264.23 86.55L262.32 86.21Z" fill="#1C191A"/>
<path d="M47.39 47.16C46.0567 54.76 44.7233 62.3533 43.39 69.94C40.89 84.01 29.39 90.52 19.19 89.27C8.98999 88.02 -0.0700078 79.28 2.41999 65.6C3.75333 58.2 5.08666 50.7933 6.41999 43.38C11.73 44.26 17.04 44.96 22.35 45.52C21.0167 53.02 19.6833 60.5067 18.35 67.98C17.75 71.34 19.71 73.3 21.92 73.53C24.13 73.76 26.69 72.29 27.3 68.91C28.6333 61.4033 29.9667 53.8767 31.3 46.33C36.6733 46.7433 42.0367 47.02 47.39 47.16Z" fill="#37669D"/>
<path d="M75.48 65.57L73 60.08C73.78 55.7267 74.5533 51.3667 75.32 47C80.6533 46.8067 85.9633 46.5467 91.25 46.22C88.73 60.6667 86.21 75.1034 83.69 89.53C78.32 89.79 72.95 89.99 67.57 90.09C64.9033 84.2167 62.2367 78.3267 59.57 72.42H58.57C59.4 74.3 60.23 76.17 61.07 78.05C60.3567 82.1034 59.6467 86.1534 58.94 90.2C53.6067 90.2 48.2967 90.1 43.01 89.9C45.53 75.7 48.05 61.48 50.57 47.24C55.67 47.34 60.7767 47.34 65.89 47.24C68.7767 53.38 71.6667 59.4967 74.56 65.59L75.48 65.57Z" fill="#37669D"/>
<path d="M129.85 56C129.297 59.0982 127.655 61.8966 125.22 63.89C128.89 65.34 130.06 69.03 129.37 73.02C127.7 82.66 119.37 87.02 107.82 88.02C100.94 88.56 94.06 89.02 87.17 89.42C89.69 74.9534 92.2133 60.48 94.74 46C101.113 45.5867 107.483 45.1067 113.85 44.56C124.39 43.69 131.44 46.82 129.85 56ZM113.23 55.5L108.75 55.86C107.583 62.7267 106.39 69.5967 105.17 76.47L110.17 76.07C114.17 75.74 115.01 70.83 110.96 71.16L107.04 71.48L109 60.42L112.43 60.14C116.27 59.82 117.08 55.15 113.23 55.48V55.5Z" fill="#37669D"/>
<path d="M132.73 64.36C134.94 51.67 147.27 40.36 160.2 39.25C173.13 38.14 181.8 47.87 179.6 60.5C177.4 73.13 165.13 84.11 152.2 85.27C139.27 86.43 130.53 77.07 132.73 64.36ZM155.07 68.42C156.814 68.1957 158.444 67.4324 159.733 66.2366C161.022 65.0408 161.906 63.4722 162.26 61.75C162.86 58.33 160.59 55.75 157.26 56.04C155.516 56.2856 153.891 57.067 152.61 58.2762C151.329 59.4855 150.455 61.0628 150.11 62.79C149.48 66.21 151.7 68.71 155.07 68.42Z" fill="#37669D"/>
<path d="M186 38.68C191.86 38.3666 197.723 38.1433 203.59 38.01C220.68 37.72 224.77 45.84 223 54.73C222.15 59.18 219.31 63.73 214.25 65.34C216.143 70.4866 218.033 75.65 219.92 80.83C214.36 80.74 208.81 80.83 203.25 80.9L198.33 64.8C198.683 62.8 199.017 60.83 199.33 58.89L202.89 58.79C203.813 58.8301 204.72 58.5431 205.452 57.9796C206.184 57.4161 206.693 56.6123 206.89 55.71C207.16 54.18 206.31 52.71 203.98 52.71L199.33 52.83C197.67 62.2633 196.003 71.6966 194.33 81.13C188.997 81.3366 183.687 81.6133 178.4 81.96C180.953 67.5466 183.487 53.12 186 38.68Z" fill="#37669D"/>
<path d="M254.41 58.78C253.6 56.78 252.78 54.87 251.97 52.92C252.73 48.6734 253.493 44.4334 254.26 40.2C259.593 40.8667 264.903 41.67 270.19 42.61C267.663 56.4367 265.14 70.31 262.62 84.23C257.247 83.41 251.877 82.7434 246.51 82.23C243.843 76.05 241.177 69.91 238.51 63.81L237.51 63.74C238.35 65.68 239.18 67.61 240.01 69.55C239.303 73.55 238.59 77.55 237.87 81.55C232.537 81.2034 227.227 80.9767 221.94 80.87C224.46 66.63 226.983 52.4134 229.51 38.22C234.61 38.43 239.72 38.75 244.82 39.22C247.713 45.66 250.607 52.1467 253.5 58.68L254.41 58.78Z" fill="#37669D"/>
<path d="M47.39 38.16C46.0567 45.76 44.7233 53.3533 43.39 60.94C40.89 75.01 29.39 81.52 19.19 80.27C8.98999 79.02 -0.0700078 70.28 2.41999 56.6C3.75333 49.2 5.08666 41.7933 6.41999 34.38C11.73 35.26 17.04 35.96 22.35 36.52C21.0167 44.02 19.6833 51.5067 18.35 58.98C17.75 62.34 19.71 64.3 21.92 64.53C24.13 64.76 26.69 63.29 27.3 59.91C28.6333 52.4033 29.9667 44.8767 31.3 37.33C36.6733 37.7433 42.0367 38.02 47.39 38.16Z" fill="black"/>
<path d="M75.48 56.57L73 51.08C73.78 46.7267 74.5533 42.3667 75.32 38C80.6533 37.8067 85.9633 37.5467 91.25 37.22C88.73 51.6667 86.21 66.1034 83.69 80.53C78.32 80.79 72.95 80.99 67.57 81.09C64.9033 75.2167 62.2367 69.3267 59.57 63.42H58.57C59.4 65.3 60.23 67.17 61.07 69.05C60.3567 73.1034 59.6467 77.1534 58.94 81.2C53.6067 81.2 48.2967 81.1 43.01 80.9C45.53 66.7 48.05 52.48 50.57 38.24C55.67 38.34 60.7767 38.34 65.89 38.24C68.7767 44.38 71.6667 50.4967 74.56 56.59L75.48 56.57Z" fill="black"/>
<path d="M129.85 47C129.297 50.0982 127.655 52.8966 125.22 54.89C128.89 56.34 130.06 60.03 129.37 64.02C127.7 73.66 119.37 78.02 107.82 79.02C100.94 79.56 94.06 80.02 87.17 80.42C89.69 65.9534 92.2133 51.48 94.74 37C101.113 36.5867 107.483 36.1067 113.85 35.56C124.39 34.69 131.44 37.82 129.85 47ZM113.23 46.5L108.75 46.86C107.583 53.7267 106.39 60.5967 105.17 67.47L110.17 67.07C114.17 66.74 115.01 61.83 110.96 62.16L107.04 62.48L109 51.42L112.43 51.14C116.27 50.82 117.08 46.15 113.23 46.48V46.5Z" fill="black"/>
<path d="M132.73 55.36C134.94 42.67 147.27 31.36 160.2 30.25C173.13 29.14 181.8 38.87 179.6 51.5C177.4 64.13 165.13 75.11 152.2 76.27C139.27 77.43 130.53 68.06 132.73 55.36ZM155.07 59.42C156.814 59.1957 158.444 58.4323 159.733 57.2365C161.022 56.0407 161.906 54.4722 162.26 52.75C162.86 49.33 160.59 46.75 157.26 47.04C155.516 47.2856 153.891 48.067 152.61 49.2762C151.329 50.4855 150.455 52.0628 150.11 53.79C149.48 57.21 151.7 59.71 155.07 59.42Z" fill="black"/>
<path d="M186 29.68C191.86 29.3734 197.723 29.15 203.59 29.01C220.68 28.72 224.77 36.85 223 45.73C222.15 50.19 219.31 54.73 214.25 56.34C216.143 61.4867 218.033 66.65 219.92 71.83C214.36 71.74 208.81 71.83 203.25 71.9L198.33 55.8C198.683 53.8 199.017 51.83 199.33 49.89L202.89 49.79C203.813 49.8301 204.72 49.5432 205.452 48.9797C206.184 48.4162 206.693 47.6124 206.89 46.71C207.16 45.18 206.31 43.71 203.98 43.71L199.33 43.83C197.67 53.2634 196.003 62.6967 194.33 72.13C188.997 72.3367 183.687 72.6134 178.4 72.96C180.953 58.5467 183.487 44.12 186 29.68Z" fill="black"/>
<path d="M254.41 49.78C253.6 47.78 252.78 45.87 251.97 43.92C252.73 39.6734 253.493 35.4334 254.26 31.2C259.593 31.8667 264.903 32.67 270.19 33.61C267.663 47.4367 265.14 61.31 262.62 75.23C257.247 74.41 251.877 73.7434 246.51 73.23C243.843 67.05 241.177 60.91 238.51 54.81L237.51 54.74C238.35 56.68 239.18 58.61 240.01 60.55C239.303 64.55 238.59 68.55 237.87 72.55C232.537 72.2034 227.227 71.9767 221.94 71.87C224.46 57.63 226.983 43.4134 229.51 29.22C234.61 29.43 239.72 29.75 244.82 30.22C247.713 36.66 250.607 43.1467 253.5 49.68L254.41 49.78Z" fill="black"/>
<path d="M21.63 82.42C20.7209 82.4221 19.8125 82.3687 18.91 82.26C15.9936 81.9474 13.172 81.0418 10.6183 79.599C8.0646 78.1563 5.83281 76.2067 4.05997 73.87C0.479966 69 -0.770034 62.94 0.459966 56.24C1.79997 48.84 4.84997 32.09 4.84997 32.09L6.78997 32.41C11.92 33.25 17.24 33.97 22.6 34.54L24.74 34.76L20.32 59.34C20.2146 59.7463 20.194 60.1699 20.2594 60.5845C20.3248 60.9991 20.4747 61.3959 20.7 61.75C20.8693 61.9749 21.0842 62.1616 21.3306 62.2977C21.577 62.4338 21.8494 62.5164 22.13 62.54H22.4C23.56 62.54 24.93 61.75 25.33 59.54L29.69 35.2L31.49 35.34C36.63 35.73 42 36.01 47.49 36.16L49.8 36.23L45.32 61.29C42.73 75.89 31.56 82.42 21.63 82.42Z" fill="#1C191A"/>
<path d="M58.62 83.2C53.25 83.2 47.97 83.1 42.93 82.89L40.64 82.8L41.04 80.55C43.56 66.35 46.08 52.13 48.6 37.89L48.9 36.2H50.61C53.26 36.2 55.99 36.28 58.71 36.28C61.09 36.28 63.47 36.26 65.85 36.22H67.15L71.85 46.22L73.63 36.07H75.25C80.35 35.89 85.54 35.64 91.13 35.3L93.65 35.14L85.38 82.46L83.79 82.54C78.08 82.83 72.79 83.01 67.61 83.11H66.3L62.21 74.11L60.61 83.11L58.62 83.2Z" fill="#1C191A"/>
<path d="M93 35.13L94.57 35.03C100.4 34.65 106.64 34.18 113.64 33.59C114.84 33.49 116 33.44 117.09 33.44C123.09 33.44 127.31 34.92 129.77 37.84C131.77 40.23 132.46 43.42 131.77 47.32C131.308 49.9715 130.145 52.4508 128.4 54.5C130.91 56.66 132.01 60.2 131.29 64.34C130.16 71.16 125.14 79.58 108 81C100.4 81.6 93.63 82.06 87.3 82.41L84.79 82.55L93 35.13ZM107.54 65.27L109.99 65.08C110.312 65.085 110.63 65.0019 110.908 64.8398C111.186 64.6777 111.415 64.4426 111.57 64.16H111.11L107.68 64.43L107.54 65.27ZM110.32 49.27L112.21 49.12C112.477 49.1159 112.74 49.0517 112.979 48.9323C113.218 48.8129 113.426 48.6412 113.59 48.43H113.35L110.42 48.67L110.32 49.27Z" fill="#1C191A"/>
<path d="M150.09 78.36C143.8 78.36 138.35 76 134.74 71.7C131.13 67.4 129.65 61.41 130.74 55.01C133.11 41.41 146.24 29.4 160.01 28.26C160.71 28.2 161.42 28.17 162.11 28.17C165.012 28.0881 167.896 28.65 170.556 29.8154C173.215 30.9807 175.583 32.7206 177.49 34.91C181.23 39.37 182.68 45.38 181.55 51.84C179.2 65.41 166.38 77 152.38 78.26C151.61 78.33 150.84 78.36 150.09 78.36ZM157.72 49H157.38C156.064 49.1955 154.84 49.7935 153.877 50.712C152.913 51.6304 152.258 52.8243 152 54.13C151.898 54.5581 151.89 55.0032 151.976 55.4347C152.063 55.8663 152.241 56.274 152.5 56.63C152.753 56.9047 153.063 57.1198 153.409 57.2599C153.755 57.4 154.127 57.4615 154.5 57.44H154.86C156.161 57.2547 157.374 56.6767 158.337 55.7831C159.3 54.8896 159.968 53.7232 160.25 52.44C160.356 52.0054 160.363 51.5527 160.271 51.115C160.18 50.6772 159.991 50.2655 159.72 49.91C159.476 49.6188 159.169 49.386 158.823 49.2285C158.477 49.0711 158.1 48.993 157.72 49Z" fill="#1C191A"/>
<path d="M184.32 27.77L185.91 27.68C192.15 27.35 197.91 27.13 203.55 27.01H204.46C212.99 27.01 219.03 29.11 222.46 33.24C225.12 36.51 226 41 225 46.12C224.623 48.521 223.687 50.7999 222.268 52.773C220.849 54.7462 218.986 56.3584 216.83 57.48C218.497 62.02 220.163 66.5767 221.83 71.15L222.83 73.88H219.92C217.81 73.88 215.69 73.88 213.58 73.88C210.26 73.88 206.82 73.88 203.34 74H201.82C201.82 74 199.27 65.62 198.21 62.16L196.1 74.16L194.49 74.23C189.43 74.43 184.24 74.7 178.61 75.06L176.07 75.22L184.32 27.77ZM200.67 47.85L202.89 47.79C203.334 47.809 203.771 47.6797 204.133 47.4226C204.495 47.1655 204.762 46.7952 204.89 46.37C204.944 46.2318 204.944 46.0782 204.89 45.94C204.89 45.94 204.63 45.76 204.1 45.76L201.03 45.83L200.67 47.85Z" fill="#1C191A"/>
<path d="M262.32 77.21C257.14 76.41 251.76 75.75 246.32 75.21L245.15 75.1C245.15 75.1 242.3 68.52 241.15 65.79L239.57 74.64L237.78 74.52C232.66 74.18 227.33 73.95 221.94 73.84L219.61 73.79L220.01 71.49C222.53 57.25 225.053 43.0333 227.58 28.84L227.88 27.12L229.63 27.19C234.86 27.41 240.04 27.74 245.04 28.19L246.21 28.29L246.69 29.36L250.9 38.77L252.62 29L254.5 29.23C259.93 29.89 265.33 30.71 270.5 31.66L272.5 32.02L272.14 34.02C269.62 47.8467 267.1 61.7167 264.58 75.63L264.23 77.55L262.32 77.21Z" fill="#1C191A"/>
<path d="M47.39 38.16C46.0567 45.76 44.7233 53.3533 43.39 60.94C40.89 75.01 29.39 81.52 19.19 80.27C8.98999 79.02 -0.0700078 70.28 2.41999 56.6C3.75333 49.2 5.08666 41.7933 6.41999 34.38C11.73 35.26 17.04 35.96 22.35 36.52C21.0167 44.02 19.6833 51.5067 18.35 58.98C17.75 62.34 19.71 64.3 21.92 64.53C24.13 64.76 26.69 63.29 27.3 59.91C28.6333 52.4033 29.9667 44.8767 31.3 37.33C36.6733 37.7433 42.0367 38.02 47.39 38.16Z" fill="#37669D"/>
<path d="M75.48 56.57L73 51.08C73.78 46.7267 74.5533 42.3667 75.32 38C80.6533 37.8067 85.9633 37.5467 91.25 37.22C88.73 51.6667 86.21 66.1034 83.69 80.53C78.32 80.79 72.95 80.99 67.57 81.09C64.9033 75.2167 62.2367 69.3267 59.57 63.42H58.57C59.4 65.3 60.23 67.17 61.07 69.05C60.3567 73.1034 59.6467 77.1534 58.94 81.2C53.6067 81.2 48.2967 81.1 43.01 80.9C45.53 66.7 48.05 52.48 50.57 38.24C55.67 38.34 60.7767 38.34 65.89 38.24C68.7767 44.38 71.6667 50.4967 74.56 56.59L75.48 56.57Z" fill="#37669D"/>
<path d="M129.85 47C129.297 50.0982 127.655 52.8966 125.22 54.89C128.89 56.34 130.06 60.03 129.37 64.02C127.7 73.66 119.37 78.02 107.82 79.02C100.94 79.56 94.06 80.02 87.17 80.42C89.69 65.9534 92.2133 51.48 94.74 37C101.113 36.5867 107.483 36.1067 113.85 35.56C124.39 34.69 131.44 37.82 129.85 47ZM113.23 46.5L108.75 46.86C107.583 53.7267 106.39 60.5967 105.17 67.47L110.17 67.07C114.17 66.74 115.01 61.83 110.96 62.16L107.04 62.48L109 51.42L112.43 51.14C116.27 50.82 117.08 46.15 113.23 46.48V46.5Z" fill="#37669D"/>
<path d="M132.73 55.36C134.94 42.67 147.27 31.36 160.2 30.25C173.13 29.14 181.8 38.87 179.6 51.5C177.4 64.13 165.13 75.11 152.2 76.27C139.27 77.43 130.53 68.06 132.73 55.36ZM155.07 59.42C156.814 59.1957 158.444 58.4323 159.733 57.2365C161.022 56.0407 161.906 54.4722 162.26 52.75C162.86 49.33 160.59 46.75 157.26 47.04C155.516 47.2856 153.891 48.067 152.61 49.2762C151.329 50.4855 150.455 52.0628 150.11 53.79C149.48 57.21 151.7 59.71 155.07 59.42Z" fill="#37669D"/>
<path d="M186 29.68C191.86 29.3734 197.723 29.15 203.59 29.01C220.68 28.72 224.77 36.85 223 45.73C222.15 50.19 219.31 54.73 214.25 56.34C216.143 61.4867 218.033 66.65 219.92 71.83C214.36 71.74 208.81 71.83 203.25 71.9L198.33 55.8C198.683 53.8 199.017 51.83 199.33 49.89L202.89 49.79C203.813 49.8301 204.72 49.5432 205.452 48.9797C206.184 48.4162 206.693 47.6124 206.89 46.71C207.16 45.18 206.31 43.71 203.98 43.71L199.33 43.83C197.67 53.2634 196.003 62.6967 194.33 72.13C188.997 72.3367 183.687 72.6134 178.4 72.96C180.953 58.5467 183.487 44.12 186 29.68Z" fill="#37669D"/>
<path d="M254.41 49.78C253.6 47.78 252.78 45.87 251.97 43.92C252.73 39.6734 253.493 35.4334 254.26 31.2C259.593 31.8667 264.903 32.67 270.19 33.61C267.663 47.4367 265.14 61.31 262.62 75.23C257.247 74.41 251.877 73.7434 246.51 73.23C243.843 67.05 241.177 60.91 238.51 54.81L237.51 54.74C238.35 56.68 239.18 58.61 240.01 60.55C239.303 64.55 238.59 68.55 237.87 72.55C232.537 72.2034 227.227 71.9767 221.94 71.87C224.46 57.63 226.983 43.4134 229.51 29.22C234.61 29.43 239.72 29.75 244.82 30.22C247.713 36.66 250.607 43.1467 253.5 49.68L254.41 49.78Z" fill="#37669D"/>
<path d="M47.39 29.16C46.0567 36.76 44.7233 44.3533 43.39 51.94C40.89 66.01 29.39 72.52 19.19 71.27C8.98999 70.02 -0.0700078 61.28 2.41999 47.6C3.75333 40.2 5.08666 32.7933 6.41999 25.38C11.73 26.26 17.04 26.96 22.35 27.52C21.0167 35.02 19.6833 42.5067 18.35 49.98C17.75 53.34 19.71 55.3 21.92 55.53C24.13 55.76 26.69 54.29 27.3 50.91C28.6333 43.4033 29.9667 35.8767 31.3 28.33C36.6733 28.7433 42.0367 29.02 47.39 29.16Z" fill="black"/>
<path d="M75.48 47.57L73 42.08C73.78 37.7267 74.5533 33.3667 75.32 29C80.6533 28.8067 85.9633 28.5467 91.25 28.22C88.73 42.6667 86.21 57.1034 83.69 71.53C78.32 71.79 72.95 71.99 67.57 72.09C64.9033 66.2167 62.2367 60.3267 59.57 54.42H58.57C59.4 56.3 60.23 58.17 61.07 60.05C60.3567 64.1034 59.6467 68.1534 58.94 72.2C53.6067 72.2 48.2967 72.1 43.01 71.9C45.53 57.7 48.05 43.48 50.57 29.24C55.67 29.34 60.7767 29.34 65.89 29.24C68.7767 35.38 71.6667 41.4967 74.56 47.59L75.48 47.57Z" fill="black"/>
<path d="M129.85 38C129.297 41.0981 127.655 43.8965 125.22 45.89C128.89 47.34 130.06 51.03 129.37 55.02C127.7 64.66 119.37 69.02 107.82 70.02C100.94 70.56 94.06 71.02 87.17 71.42C89.69 56.9533 92.2133 42.48 94.74 28C101.113 27.5933 107.483 27.1133 113.85 26.56C124.39 25.69 131.44 28.82 129.85 38ZM113.23 37.5L108.75 37.86C107.583 44.7266 106.39 51.5966 105.17 58.47L110.17 58.07C114.17 57.74 115.01 52.83 110.96 53.16L107.04 53.48L109 42.42L112.43 42.14C116.27 41.82 117.08 37.15 113.23 37.48V37.5Z" fill="black"/>
<path d="M132.73 46.36C134.94 33.67 147.27 22.36 160.2 21.25C173.13 20.14 181.8 29.87 179.6 42.5C177.4 55.13 165.13 66.11 152.2 67.27C139.27 68.43 130.53 59.06 132.73 46.36ZM155.07 50.42C156.814 50.1957 158.444 49.4323 159.733 48.2365C161.022 47.0407 161.906 45.4722 162.26 43.75C162.86 40.33 160.59 37.75 157.26 38.04C155.516 38.2856 153.891 39.067 152.61 40.2762C151.329 41.4855 150.455 43.0628 150.11 44.79C149.48 48.21 151.7 50.71 155.07 50.42Z" fill="black"/>
<path d="M186 20.68C191.86 20.3734 197.723 20.15 203.59 20.01C220.68 19.73 224.77 27.85 223 36.73C222.15 41.19 219.31 45.73 214.25 47.34C216.143 52.4867 218.033 57.65 219.92 62.83C214.36 62.74 208.81 62.83 203.25 62.9L198.33 46.8C198.683 44.8 199.017 42.83 199.33 40.89L202.89 40.79C203.813 40.8301 204.72 40.5431 205.452 39.9797C206.184 39.4162 206.693 38.6124 206.89 37.71C207.16 36.18 206.31 34.71 203.98 34.71L199.33 34.83C197.67 44.2634 196.003 53.6967 194.33 63.13C188.997 63.3434 183.687 63.62 178.4 63.96C180.953 49.5467 183.487 35.12 186 20.68Z" fill="black"/>
<path d="M254.41 40.78C253.6 38.78 252.78 36.87 251.97 34.92C252.73 30.6734 253.493 26.4334 254.26 22.2C259.593 22.8667 264.903 23.67 270.19 24.61C267.663 38.4367 265.14 52.31 262.62 66.23C257.247 65.41 251.877 64.7434 246.51 64.23C243.843 58.05 241.177 51.91 238.51 45.81L237.51 45.74C238.35 47.68 239.18 49.61 240.01 51.55C239.303 55.55 238.59 59.55 237.87 63.55C232.537 63.2034 227.227 62.9767 221.94 62.87C224.46 48.63 226.983 34.4134 229.51 20.22C234.61 20.43 239.72 20.75 244.82 21.22C247.713 27.66 250.607 34.1467 253.5 40.68L254.41 40.78Z" fill="black"/>
<path d="M21.63 73.42C20.7209 73.4221 19.8125 73.3687 18.91 73.26C15.9936 72.9474 13.172 72.0418 10.6183 70.599C8.0646 69.1563 5.83281 67.2067 4.05997 64.87C0.479966 60 -0.770034 53.94 0.459966 47.24C1.79997 39.84 4.84997 23.09 4.84997 23.09L6.78997 23.41C11.92 24.25 17.24 24.97 22.6 25.54L24.74 25.76L20.32 50.34C20.215 50.748 20.1946 51.1731 20.2599 51.5893C20.3253 52.0055 20.475 52.4039 20.7 52.76C20.8703 52.9831 21.0856 53.1678 21.332 53.3022C21.5783 53.4366 21.8502 53.5176 22.13 53.54H22.4C23.56 53.54 24.93 52.75 25.33 50.54L29.69 26.2L31.49 26.34C36.63 26.73 42 27.01 47.49 27.16L49.8 27.23L45.32 52.29C42.73 66.89 31.56 73.42 21.63 73.42Z" fill="#1C191A"/>
<path d="M58.62 74.2C53.25 74.2 47.97 74.1 42.93 73.89L40.64 73.8L41.04 71.55C43.56 57.35 46.08 43.13 48.6 28.89L48.9 27.2H50.61C53.26 27.25 55.99 27.28 58.71 27.28C61.09 27.28 63.47 27.26 65.85 27.22H67.15L71.85 37.22L73.63 27.07L75.25 27C80.35 26.82 85.54 26.57 91.13 26.23L93.65 26.07L85.38 73.46L83.79 73.54C78.08 73.83 72.79 74.01 67.61 74.11H66.3L62.21 65.11L60.61 74.11L58.62 74.2Z" fill="#1C191A"/>
<path d="M93 26.13L94.57 26.03C100.4 25.65 106.64 25.18 113.64 24.59C114.84 24.49 116 24.44 117.09 24.44C123.09 24.44 127.31 25.92 129.77 28.84C131.77 31.23 132.46 34.42 131.77 38.32C131.308 40.9715 130.145 43.4508 128.4 45.5C130.92 47.66 132.01 51.2 131.29 55.34C130.16 62.16 125.14 70.58 108 72C100.4 72.6 93.63 73.06 87.3 73.41L84.79 73.55L93 26.13ZM107.54 56.27L109.99 56.08C110.312 56.0861 110.63 56.0035 110.909 55.8413C111.187 55.679 111.416 55.4434 111.57 55.16H111.11L107.68 55.43L107.54 56.27ZM110.32 40.27L112.21 40.12C112.477 40.1159 112.74 40.0517 112.979 39.9323C113.218 39.8129 113.426 39.6412 113.59 39.43H113.35L110.42 39.67L110.32 40.27Z" fill="#1C191A"/>
<path d="M150.09 69.36C143.8 69.36 138.35 67 134.74 62.7C131.13 58.4 129.65 52.41 130.74 46.01C133.11 32.41 146.24 20.41 160.01 19.26C160.71 19.2 161.42 19.17 162.11 19.17C165.012 19.0881 167.896 19.65 170.556 20.8154C173.215 21.9807 175.583 23.7206 177.49 25.91C181.23 30.37 182.68 36.38 181.55 42.84C179.2 56.4 166.38 68 152.38 69.26C151.61 69.33 150.84 69.36 150.09 69.36ZM157.72 40H157.39C156.072 40.195 154.847 40.7927 153.882 41.711C152.917 42.6294 152.26 43.8235 152 45.13C151.898 45.5581 151.89 46.0032 151.976 46.4347C152.063 46.8663 152.241 47.274 152.5 47.63C152.753 47.9047 153.063 48.1198 153.409 48.2599C153.755 48.4 154.127 48.4615 154.5 48.44H154.86C156.161 48.2547 157.374 47.6767 158.337 46.7831C159.3 45.8896 159.968 44.7232 160.25 43.44C160.353 43.0036 160.359 42.55 160.267 42.111C160.176 41.6721 159.989 41.2587 159.72 40.9C159.473 40.6123 159.166 40.3825 158.82 40.2269C158.475 40.0713 158.099 39.9939 157.72 40Z" fill="#1C191A"/>
<path d="M184.32 18.77L185.91 18.68C192.15 18.35 197.91 18.13 203.55 18.01H204.45C212.98 18.01 219.03 20.11 222.45 24.25C225.12 27.51 226 32 225 37.12C224.623 39.521 223.687 41.7999 222.268 43.773C220.849 45.7462 218.986 47.3584 216.83 48.48C218.497 53.02 220.163 57.5767 221.83 62.15L222.83 64.88H219.92C217.81 64.88 215.69 64.88 213.58 64.88C210.26 64.88 206.82 64.88 203.34 65H201.82C201.82 65 199.27 56.62 198.21 53.16L196.1 65.16L194.49 65.23C189.43 65.43 184.24 65.7 178.61 66.06L176.07 66.22L184.32 18.77ZM200.67 38.85L202.89 38.79C203.334 38.809 203.771 38.6797 204.133 38.4226C204.495 38.1655 204.762 37.7952 204.89 37.37C204.944 37.2318 204.944 37.0782 204.89 36.94C204.89 36.94 204.63 36.76 204.1 36.76L201.03 36.83L200.67 38.85Z" fill="#1C191A"/>
<path d="M262.32 68.21C257.14 67.41 251.76 66.75 246.32 66.21L245.15 66.1C245.15 66.1 242.3 59.52 241.15 56.79L239.57 65.64L237.78 65.52C232.66 65.18 227.33 64.95 221.94 64.84L219.61 64.79L220.01 62.49C222.53 48.25 225.053 34.0333 227.58 19.84L227.88 18.12L229.63 18.19C234.86 18.41 240.04 18.74 245.04 19.19L246.21 19.29L246.69 20.36L250.9 29.77L252.62 20L254.5 20.23C259.93 20.89 265.33 21.71 270.5 22.66L272.5 23.02L272.14 25.02C269.62 38.8467 267.1 52.7167 264.58 66.63L264.23 68.55L262.32 68.21Z" fill="#1C191A"/>
<path d="M47.39 29.16C46.0567 36.76 44.7233 44.3533 43.39 51.94C40.89 66.01 29.39 72.52 19.19 71.27C8.98999 70.02 -0.0700078 61.28 2.41999 47.6C3.75333 40.2 5.08666 32.7933 6.41999 25.38C11.73 26.26 17.04 26.96 22.35 27.52C21.0167 35.02 19.6833 42.5067 18.35 49.98C17.75 53.34 19.71 55.3 21.92 55.53C24.13 55.76 26.69 54.29 27.3 50.91C28.6333 43.4033 29.9667 35.8767 31.3 28.33C36.6733 28.7433 42.0367 29.02 47.39 29.16Z" fill="#37669D"/>
<path d="M75.48 47.57L73 42.08C73.78 37.7267 74.5533 33.3667 75.32 29C80.6533 28.8067 85.9633 28.5467 91.25 28.22C88.73 42.6667 86.21 57.1034 83.69 71.53C78.32 71.79 72.95 71.99 67.57 72.09C64.9033 66.2167 62.2367 60.3267 59.57 54.42H58.57C59.4 56.3 60.23 58.17 61.07 60.05C60.3567 64.1034 59.6467 68.1534 58.94 72.2C53.6067 72.2 48.2967 72.1 43.01 71.9C45.53 57.7 48.05 43.48 50.57 29.24C55.67 29.34 60.7767 29.34 65.89 29.24C68.7767 35.38 71.6667 41.4967 74.56 47.59L75.48 47.57Z" fill="#37669D"/>
<path d="M129.85 38C129.297 41.0981 127.655 43.8965 125.22 45.89C128.89 47.34 130.06 51.03 129.37 55.02C127.7 64.66 119.37 69.02 107.82 70.02C100.94 70.56 94.06 71.02 87.17 71.42C89.69 56.9533 92.2133 42.48 94.74 28C101.113 27.5933 107.483 27.1133 113.85 26.56C124.39 25.69 131.44 28.82 129.85 38ZM113.23 37.5L108.75 37.86C107.583 44.7266 106.39 51.5966 105.17 58.47L110.17 58.07C114.17 57.74 115.01 52.83 110.96 53.16L107.04 53.48L109 42.42L112.43 42.14C116.27 41.82 117.08 37.15 113.23 37.48V37.5Z" fill="#37669D"/>
<path d="M132.73 46.36C134.94 33.67 147.27 22.36 160.2 21.25C173.13 20.14 181.8 29.87 179.6 42.5C177.4 55.13 165.13 66.11 152.2 67.27C139.27 68.43 130.53 59.06 132.73 46.36ZM155.07 50.42C156.814 50.1957 158.444 49.4323 159.733 48.2365C161.022 47.0407 161.906 45.4722 162.26 43.75C162.86 40.33 160.59 37.75 157.26 38.04C155.516 38.2856 153.891 39.067 152.61 40.2762C151.329 41.4855 150.455 43.0628 150.11 44.79C149.48 48.21 151.7 50.71 155.07 50.42Z" fill="#37669D"/>
<path d="M186 20.68C191.86 20.3734 197.723 20.15 203.59 20.01C220.68 19.73 224.77 27.85 223 36.73C222.15 41.19 219.31 45.73 214.25 47.34C216.143 52.4867 218.033 57.65 219.92 62.83C214.36 62.74 208.81 62.83 203.25 62.9L198.33 46.8C198.683 44.8 199.017 42.83 199.33 40.89L202.89 40.79C203.813 40.8301 204.72 40.5431 205.452 39.9797C206.184 39.4162 206.693 38.6124 206.89 37.71C207.16 36.18 206.31 34.71 203.98 34.71L199.33 34.83C197.67 44.2634 196.003 53.6967 194.33 63.13C188.997 63.3434 183.687 63.62 178.4 63.96C180.953 49.5467 183.487 35.12 186 20.68Z" fill="#37669D"/>
<path d="M254.41 40.78C253.6 38.78 252.78 36.87 251.97 34.92C252.73 30.6734 253.493 26.4334 254.26 22.2C259.593 22.8667 264.903 23.67 270.19 24.61C267.663 38.4367 265.14 52.31 262.62 66.23C257.247 65.41 251.877 64.7434 246.51 64.23C243.843 58.05 241.177 51.91 238.51 45.81L237.51 45.74C238.35 47.68 239.18 49.61 240.01 51.55C239.303 55.55 238.59 59.55 237.87 63.55C232.537 63.2034 227.227 62.9767 221.94 62.87C224.46 48.63 226.983 34.4134 229.51 20.22C234.61 20.43 239.72 20.75 244.82 21.22C247.713 27.66 250.607 34.1467 253.5 40.68L254.41 40.78Z" fill="#37669D"/>
<path d="M47.39 20.16C46.0567 27.76 44.7233 35.3533 43.39 42.94C40.89 57.01 29.39 63.52 19.19 62.27C8.98999 61.02 -0.0700078 52.28 2.41999 38.6C3.75333 31.2 5.08666 23.7933 6.41999 16.38C11.73 17.26 17.04 17.96 22.35 18.52C21.0167 26.02 19.6833 33.5067 18.35 40.98C17.75 44.34 19.71 46.3 21.92 46.53C24.13 46.76 26.69 45.29 27.3 41.91C28.6333 34.4033 29.9667 26.8767 31.3 19.33C36.6733 19.7433 42.0367 20.02 47.39 20.16Z" fill="black"/>
<path d="M75.48 38.57L73 33.08C73.78 28.7334 74.5533 24.3734 75.32 20C80.6533 19.8067 85.9633 19.5467 91.25 19.22C88.73 33.6667 86.21 48.1034 83.69 62.53C78.32 62.79 72.95 62.99 67.57 63.09C64.9033 57.2234 62.2367 51.3334 59.57 45.42H58.57C59.4 47.3 60.23 49.17 61.07 51.05C60.3567 55.1034 59.6467 59.1534 58.94 63.2C53.6067 63.2 48.2967 63.1 43.01 62.9C45.53 48.7 48.05 34.48 50.57 20.24C55.67 20.34 60.7767 20.34 65.89 20.24C68.7767 26.38 71.6667 32.4967 74.56 38.59L75.48 38.57Z" fill="black"/>
<path d="M129.85 29C129.297 32.0981 127.655 34.8965 125.22 36.89C128.89 38.34 130.06 42.03 129.37 46.02C127.7 55.66 119.37 60.02 107.82 61.02C100.94 61.56 94.06 62.02 87.17 62.42C89.69 47.9533 92.2133 33.48 94.74 19C101.113 18.5933 107.483 18.1133 113.85 17.56C124.39 16.69 131.44 19.82 129.85 29ZM113.23 28.5L108.75 28.86C107.583 35.7266 106.39 42.5966 105.17 49.47L110.17 49.07C114.17 48.74 115.01 43.83 110.96 44.16L107.04 44.48L109 33.42L112.43 33.14C116.27 32.82 117.08 28.15 113.23 28.48V28.5Z" fill="black"/>
<path d="M132.73 37.36C134.94 24.67 147.27 13.36 160.2 12.25C173.13 11.14 181.8 20.87 179.6 33.5C177.4 46.13 165.13 57.11 152.2 58.27C139.27 59.43 130.53 50.06 132.73 37.36ZM155.07 41.42C156.814 41.1957 158.444 40.4323 159.733 39.2365C161.022 38.0407 161.906 36.4722 162.26 34.75C162.86 31.33 160.59 28.75 157.26 29.04C155.516 29.2856 153.891 30.067 152.61 31.2762C151.329 32.4855 150.455 34.0628 150.11 35.79C149.48 39.21 151.7 41.71 155.07 41.42Z" fill="black"/>
<path d="M186 11.68C191.86 11.3734 197.723 11.15 203.59 11.01C220.68 10.73 224.77 18.85 223 27.73C222.15 32.19 219.31 36.73 214.25 38.34C216.143 43.4867 218.033 48.65 219.92 53.83C214.36 53.74 208.81 53.83 203.25 53.9L198.33 37.8C198.683 35.8 199.017 33.83 199.33 31.89L202.89 31.79C203.813 31.8301 204.72 31.5431 205.452 30.9797C206.184 30.4162 206.693 29.6124 206.89 28.71C207.16 27.18 206.31 25.71 203.98 25.76L199.33 25.88C197.67 35.3134 196.003 44.7467 194.33 54.18C188.997 54.3934 183.687 54.67 178.4 55.01C180.953 40.5634 183.487 26.12 186 11.68Z" fill="black"/>
<path d="M254.41 31.78C253.6 29.78 252.78 27.87 251.97 25.92C252.73 21.6734 253.493 17.4334 254.26 13.2C259.593 13.8667 264.903 14.67 270.19 15.61C267.663 29.4434 265.14 43.3167 262.62 57.23C257.247 56.41 251.877 55.7434 246.51 55.23C243.843 49.05 241.177 42.91 238.51 36.81L237.51 36.74C238.35 38.68 239.18 40.61 240.01 42.55C239.303 46.55 238.59 50.55 237.87 54.55C232.537 54.2034 227.227 53.9767 221.94 53.87C224.46 39.63 226.983 25.4134 229.51 11.22C234.61 11.43 239.72 11.75 244.82 12.22C247.713 18.66 250.607 25.1467 253.5 31.68L254.41 31.78Z" fill="black"/>
<path d="M21.63 64.42C20.7209 64.4221 19.8125 64.3687 18.91 64.26C15.9942 63.9451 13.1734 63.0386 10.62 61.5959C8.06666 60.1533 5.83446 58.205 4.05997 55.87C0.479966 51 -0.770034 44.94 0.459966 38.24C1.79997 30.84 4.84997 14.09 4.84997 14.09L6.78997 14.41C11.92 15.25 17.24 15.97 22.6 16.54L24.74 16.76L20.32 41.34C20.215 41.748 20.1946 42.1731 20.2599 42.5893C20.3253 43.0055 20.475 43.4039 20.7 43.76C20.8703 43.9831 21.0856 44.1678 21.332 44.3022C21.5783 44.4366 21.8502 44.5176 22.13 44.54H22.4C23.56 44.54 24.93 43.75 25.33 41.54L29.69 17.2L31.49 17.34C36.63 17.73 42 18.01 47.49 18.16L49.8 18.23L45.32 43.29C42.73 57.89 31.56 64.42 21.63 64.42Z" fill="#1C191A"/>
<path d="M58.62 65.2C53.25 65.2 47.97 65.1 42.93 64.89L40.64 64.8L41.04 62.55C43.56 48.35 46.08 34.13 48.6 19.89L48.9 18.2H50.61C53.26 18.25 55.99 18.28 58.71 18.28C61.09 18.28 63.47 18.26 65.85 18.22H67.15L71.85 28.22L73.63 18.07L75.25 18C80.35 17.82 85.54 17.57 91.13 17.23L93.65 17.07L85.38 64.46L83.79 64.54C78.08 64.83 72.79 65.01 67.61 65.11H66.3L62.21 56.11L60.61 65.16L58.62 65.2Z" fill="#1C191A"/>
<path d="M93 17.13L94.57 17.03C100.4 16.65 106.64 16.18 113.64 15.59C114.84 15.49 116 15.44 117.09 15.44C123.09 15.44 127.31 16.92 129.77 19.84C131.77 22.23 132.46 25.42 131.77 29.32C131.308 31.9715 130.145 34.4508 128.4 36.5C130.92 38.66 132.01 42.2 131.29 46.34C130.16 53.16 125.14 61.58 108 63C100.4 63.6 93.63 64.06 87.3 64.41L84.79 64.55L93 17.13ZM107.54 47.27L109.99 47.08C110.312 47.085 110.63 47.0019 110.908 46.8398C111.186 46.6777 111.415 46.4426 111.57 46.16H111.11L107.68 46.43L107.54 47.27ZM110.32 31.27L112.21 31.12C112.477 31.1159 112.74 31.0517 112.979 30.9323C113.218 30.8128 113.426 30.6412 113.59 30.43H113.35L110.42 30.67L110.32 31.27Z" fill="#1C191A"/>
<path d="M150.09 60.36C143.8 60.36 138.35 58 134.74 53.7C131.13 49.4 129.65 43.41 130.74 37.01C133.11 23.41 146.24 11.41 160.01 10.26C160.71 10.2 161.42 10.17 162.11 10.17C165.012 10.0881 167.896 10.65 170.556 11.8154C173.215 12.9807 175.583 14.7206 177.49 16.91C181.23 21.37 182.68 27.38 181.55 33.84C179.2 47.4 166.38 59 152.38 60.26C151.61 60.33 150.84 60.36 150.09 60.36ZM157.72 31H157.39C156.072 31.195 154.847 31.7927 153.882 32.711C152.917 33.6294 152.26 34.8235 152 36.13C151.898 36.5581 151.89 37.0032 151.976 37.4347C152.063 37.8663 152.241 38.274 152.5 38.63C152.753 38.9047 153.063 39.1198 153.409 39.2599C153.755 39.4 154.127 39.4615 154.5 39.44H154.86C156.16 39.2534 157.373 38.6749 158.336 37.7815C159.299 36.8882 159.966 35.7226 160.25 34.44C160.356 34.0054 160.363 33.5527 160.271 33.115C160.18 32.6772 159.991 32.2655 159.72 31.91C159.476 31.6188 159.169 31.386 158.823 31.2285C158.477 31.0711 158.1 30.993 157.72 31Z" fill="#1C191A"/>
<path d="M184.32 9.77001L185.91 9.68001C192.15 9.35001 197.91 9.13001 203.55 9.01001H204.45C212.98 9.01001 219.03 11.11 222.45 15.24C225.12 18.51 226 23 225 28.12C224.621 30.5205 223.685 32.7987 222.266 34.7716C220.847 36.7445 218.985 38.3572 216.83 39.48C218.497 44.02 220.163 48.5767 221.83 53.15L222.83 55.88L219.92 55.83C217.81 55.83 215.69 55.83 213.58 55.83C210.26 55.83 206.82 55.83 203.34 55.95H201.82C201.82 55.95 199.27 47.57 198.21 44.11L196.1 56.11L194.49 56.18C189.43 56.38 184.24 56.65 178.61 57.01L176.07 57.17L184.32 9.77001ZM200.67 29.85L202.89 29.79C203.334 29.809 203.771 29.6797 204.133 29.4226C204.495 29.1655 204.762 28.7952 204.89 28.37C204.944 28.2318 204.944 28.0782 204.89 27.94C204.89 27.89 204.63 27.76 204.1 27.76L201.03 27.83L200.67 29.85Z" fill="#1C191A"/>
<path d="M262.32 59.21C257.14 58.41 251.76 57.75 246.32 57.21L245.15 57.1C245.15 57.1 242.3 50.52 241.15 47.79L239.57 56.64L237.78 56.52C232.66 56.18 227.33 55.95 221.94 55.84H219.61L220.01 53.54C222.53 39.3 225.053 25.0833 227.58 10.89L227.88 9.16998L229.63 9.23998C234.86 9.45998 240.04 9.78998 245.04 10.24L246.21 10.34L246.69 11.41L250.9 20.82L252.62 11L254.5 11.23C259.93 11.89 265.33 12.71 270.5 13.66L272.5 14.02L272.14 16.02C269.62 29.8533 267.1 43.7233 264.58 57.63L264.23 59.55L262.32 59.21Z" fill="#1C191A"/>
<path d="M47.39 20.16C46.0567 27.76 44.7233 35.3533 43.39 42.94C40.89 57.01 29.39 63.52 19.19 62.27C8.98999 61.02 -0.0700078 52.28 2.41999 38.6C3.75333 31.2 5.08666 23.7933 6.41999 16.38C11.73 17.26 17.04 17.96 22.35 18.52C21.0167 26.02 19.6833 33.5067 18.35 40.98C17.75 44.34 19.71 46.3 21.92 46.53C24.13 46.76 26.69 45.29 27.3 41.91C28.6333 34.4033 29.9667 26.8767 31.3 19.33C36.6733 19.7433 42.0367 20.02 47.39 20.16Z" fill="#37669D"/>
<path d="M75.48 38.57L73 33.08C73.78 28.7334 74.5533 24.3734 75.32 20C80.6533 19.8067 85.9633 19.5467 91.25 19.22C88.73 33.6667 86.21 48.1034 83.69 62.53C78.32 62.79 72.95 62.99 67.57 63.09C64.9033 57.2234 62.2367 51.3334 59.57 45.42H58.57C59.4 47.3 60.23 49.17 61.07 51.05C60.3567 55.1034 59.6467 59.1534 58.94 63.2C53.6067 63.2 48.2967 63.1 43.01 62.9C45.53 48.7 48.05 34.48 50.57 20.24C55.67 20.34 60.7767 20.34 65.89 20.24C68.7767 26.38 71.6667 32.4967 74.56 38.59L75.48 38.57Z" fill="#37669D"/>
<path d="M129.85 29C129.297 32.0981 127.655 34.8965 125.22 36.89C128.89 38.34 130.06 42.03 129.37 46.02C127.7 55.66 119.37 60.02 107.82 61.02C100.94 61.56 94.06 62.02 87.17 62.42C89.69 47.9533 92.2133 33.48 94.74 19C101.113 18.5933 107.483 18.1133 113.85 17.56C124.39 16.69 131.44 19.82 129.85 29ZM113.23 28.5L108.75 28.86C107.583 35.7266 106.39 42.5966 105.17 49.47L110.17 49.07C114.17 48.74 115.01 43.83 110.96 44.16L107.04 44.48L109 33.42L112.43 33.14C116.27 32.82 117.08 28.15 113.23 28.48V28.5Z" fill="#37669D"/>
<path d="M132.73 37.36C134.94 24.67 147.27 13.36 160.2 12.25C173.13 11.14 181.8 20.87 179.6 33.5C177.4 46.13 165.13 57.11 152.2 58.27C139.27 59.43 130.53 50.06 132.73 37.36ZM155.07 41.42C156.814 41.1957 158.444 40.4323 159.733 39.2365C161.022 38.0407 161.906 36.4722 162.26 34.75C162.86 31.33 160.59 28.75 157.26 29.04C155.516 29.2856 153.891 30.067 152.61 31.2762C151.329 32.4855 150.455 34.0628 150.11 35.79C149.48 39.21 151.7 41.71 155.07 41.42Z" fill="#37669D"/>
<path d="M186 11.68C191.86 11.3734 197.723 11.15 203.59 11.01C220.68 10.73 224.77 18.85 223 27.73C222.15 32.19 219.31 36.73 214.25 38.34C216.143 43.4867 218.033 48.65 219.92 53.83C214.36 53.74 208.81 53.83 203.25 53.9L198.33 37.8C198.683 35.8 199.017 33.83 199.33 31.89L202.89 31.79C203.813 31.8301 204.72 31.5431 205.452 30.9797C206.184 30.4162 206.693 29.6124 206.89 28.71C207.16 27.18 206.31 25.71 203.98 25.76L199.33 25.88C197.67 35.3134 196.003 44.7467 194.33 54.18C188.997 54.3934 183.687 54.67 178.4 55.01C180.953 40.5634 183.487 26.12 186 11.68Z" fill="#37669D"/>
<path d="M254.41 31.78C253.6 29.78 252.78 27.87 251.97 25.92C252.73 21.6734 253.493 17.4334 254.26 13.2C259.593 13.8667 264.903 14.67 270.19 15.61C267.663 29.4434 265.14 43.3167 262.62 57.23C257.247 56.41 251.877 55.7434 246.51 55.23C243.843 49.05 241.177 42.91 238.51 36.81L237.51 36.74C238.35 38.68 239.18 40.61 240.01 42.55C239.303 46.55 238.59 50.55 237.87 54.55C232.537 54.2034 227.227 53.9767 221.94 53.87C224.46 39.63 226.983 25.4134 229.51 11.22C234.61 11.43 239.72 11.75 244.82 12.22C247.713 18.66 250.607 25.1467 253.5 31.68L254.41 31.78Z" fill="#37669D"/>
<path d="M47.39 11.16C46.0567 18.76 44.7233 26.3533 43.39 33.94C40.89 48.01 29.39 54.52 19.19 53.27C8.98999 52.02 -0.0700078 43.28 2.41999 29.6C3.75333 22.2 5.08666 14.7933 6.41999 7.38C11.77 8.26 17.08 9.00001 22.39 9.52001C21.0567 17.02 19.7233 24.5067 18.39 31.98C17.79 35.34 19.75 37.3 21.96 37.53C24.17 37.76 26.73 36.29 27.34 32.91C28.6733 25.4033 30.0067 17.8767 31.34 10.33C36.6867 10.7433 42.0367 11.02 47.39 11.16Z" fill="black"/>
<path d="M75.48 29.57L73 24.08C73.78 19.7334 74.5533 15.3734 75.32 11C80.6533 10.8067 85.9633 10.5467 91.25 10.22C88.73 24.6667 86.21 39.1034 83.69 53.53C78.32 53.79 72.95 53.99 67.57 54.09C64.9033 48.2234 62.2367 42.3334 59.57 36.42H58.57C59.4 38.3 60.23 40.17 61.07 42.05C60.3567 46.1034 59.6467 50.1534 58.94 54.2C53.6067 54.2 48.2967 54.1 43.01 53.9C45.53 39.7 48.05 25.48 50.57 11.24C55.67 11.34 60.7767 11.34 65.89 11.24C68.7767 17.38 71.6667 23.4967 74.56 29.59L75.48 29.57Z" fill="black"/>
<path d="M129.85 20C129.297 23.0982 127.655 25.8966 125.22 27.89C128.89 29.34 130.06 33.03 129.37 37.02C127.7 46.65 119.37 51.02 107.82 52.02C100.94 52.56 94.06 53.02 87.17 53.42C89.69 38.9534 92.2133 24.48 94.74 10C101.113 9.58671 107.483 9.10671 113.85 8.56004C124.39 7.69004 131.44 10.82 129.85 20ZM113.23 19.5L108.75 19.86C107.583 26.7267 106.39 33.5967 105.17 40.47L110.17 40.07C114.17 39.74 115.01 34.83 110.96 35.16L107.04 35.48L109 24.42L112.43 24.14C116.27 23.82 117.08 19.15 113.23 19.48V19.5Z" fill="black"/>
<path d="M132.73 28.36C134.94 15.67 147.27 4.36004 160.2 3.25004C173.13 2.14004 181.8 11.87 179.6 24.5C177.4 37.13 165.13 48.11 152.2 49.27C139.27 50.43 130.53 41.06 132.73 28.36ZM155.07 32.42C156.814 32.1957 158.444 31.4323 159.733 30.2365C161.022 29.0408 161.906 27.4722 162.26 25.75C162.86 22.33 160.59 19.75 157.26 20.04C155.516 20.2856 153.891 21.067 152.61 22.2762C151.329 23.4855 150.455 25.0628 150.11 26.79C149.48 30.21 151.7 32.71 155.07 32.42Z" fill="black"/>
<path d="M186 2.68002C191.867 2.37335 197.733 2.14668 203.6 2.00002C220.69 1.72002 224.78 9.84002 223.01 18.72C222.16 23.18 219.32 27.72 214.26 29.33C216.153 34.4833 218.043 39.6467 219.93 44.82C214.37 44.73 208.82 44.82 203.26 44.89L198.34 28.79C198.693 26.79 199.027 24.82 199.34 22.88L202.9 22.78C203.823 22.8201 204.73 22.5331 205.462 21.9696C206.194 21.4062 206.703 20.6024 206.9 19.7C207.17 18.17 206.32 16.7 203.99 16.75L199.34 16.87C197.68 26.3034 196.013 35.7367 194.34 45.17C189.007 45.3833 183.697 45.66 178.41 46C180.957 31.56 183.487 17.12 186 2.68002Z" fill="black"/>
<path d="M254.41 22.78C253.6 20.78 252.78 18.87 251.97 16.92C252.73 12.6667 253.493 8.4267 254.26 4.20003C259.593 4.8667 264.903 5.67003 270.19 6.61003C267.663 20.4434 265.14 34.3167 262.62 48.23C257.247 47.41 251.877 46.7434 246.51 46.23C243.843 40.05 241.177 33.91 238.51 27.81L237.51 27.74C238.35 29.68 239.18 31.61 240.01 33.55C239.303 37.55 238.59 41.55 237.87 45.55C232.537 45.2034 227.227 44.9767 221.94 44.87C224.46 30.63 226.983 16.4134 229.51 2.22003C234.61 2.43003 239.72 2.75003 244.82 3.22003C247.713 9.66003 250.607 16.1467 253.5 22.68L254.41 22.78Z" fill="black"/>
<path d="M21.63 55.42C20.7209 55.4221 19.8125 55.3687 18.91 55.26C15.9936 54.9474 13.172 54.0418 10.6183 52.599C8.0646 51.1563 5.83281 49.2067 4.05997 46.87C0.479966 42 -0.770034 35.94 0.459966 29.24C1.79997 21.84 4.84997 5.09003 4.84997 5.09003L6.78997 5.41003C11.92 6.25003 17.24 7.00003 22.6 7.54003L24.74 7.76003L20.32 32.34C20.215 32.748 20.1946 33.1731 20.2599 33.5893C20.3253 34.0055 20.475 34.4039 20.7 34.76C20.8703 34.9831 21.0856 35.1678 21.332 35.3022C21.5783 35.4366 21.8502 35.5176 22.13 35.54H22.4C23.56 35.54 24.93 34.75 25.33 32.54L29.69 8.20003L31.49 8.34003C36.63 8.73003 42 9.01003 47.49 9.16003L49.8 9.23003L45.32 34.29C42.73 48.89 31.56 55.42 21.63 55.42Z" fill="#1C191A"/>
<path d="M58.62 56.2C53.25 56.2 47.97 56.1 42.93 55.89L40.64 55.8L41.04 53.55C43.56 39.35 46.08 25.13 48.6 10.89L48.9 9.20001H50.61C53.26 9.20001 55.99 9.28001 58.71 9.28001C61.09 9.28001 63.47 9.26001 65.85 9.22001H67.15L71.85 19.22L73.63 9.07001L75.25 9.00001C80.35 8.82001 85.54 8.57001 91.13 8.23001L93.65 8.07001L85.38 55.46L83.79 55.54C78.08 55.83 72.79 56.01 67.61 56.11H66.3L62.21 47.11L60.61 56.16L58.62 56.2Z" fill="#1C191A"/>
<path d="M93 8.13003L94.61 8.00003C100.44 7.62003 106.68 7.15003 113.68 6.56003C114.88 6.46003 116.04 6.41003 117.13 6.41003C123.13 6.41003 127.35 7.89003 129.81 10.81C131.81 13.2 132.5 16.39 131.81 20.29C131.348 22.9415 130.185 25.4208 128.44 27.47C130.96 29.63 132.05 33.17 131.33 37.31C130.16 44.16 125.14 52.58 108 54C100.4 54.6 93.63 55.06 87.3 55.41L84.79 55.55L93 8.13003ZM107.54 38.27L109.99 38.08C110.312 38.085 110.63 38.002 110.908 37.8398C111.186 37.6777 111.415 37.4427 111.57 37.16H111.11L107.68 37.43L107.54 38.27ZM110.32 22.27L112.21 22.12C112.478 22.1139 112.742 22.0489 112.982 21.9297C113.222 21.8104 113.433 21.6399 113.6 21.43H113.35L110.42 21.67L110.32 22.27Z" fill="#1C191A"/>
<path d="M150.09 51.36C143.81 51.36 138.35 49 134.74 44.7C131.13 40.4 129.65 34.41 130.74 28.01C133.11 14.41 146.24 2.41 160.01 1.26C160.71 1.2 161.42 1.17 162.11 1.17C165.012 1.08809 167.896 1.65 170.556 2.81536C173.215 3.98072 175.583 5.7206 177.49 7.91C181.23 12.37 182.68 18.38 181.55 24.84C179.2 38.4 166.38 50 152.38 51.26C151.61 51.33 150.84 51.36 150.09 51.36ZM157.72 22H157.38C156.064 22.1955 154.84 22.7935 153.877 23.712C152.913 24.6304 152.258 25.8243 152 27.13C151.898 27.5581 151.89 28.0032 151.976 28.4347C152.063 28.8663 152.241 29.274 152.5 29.63C152.753 29.9047 153.063 30.1198 153.409 30.2599C153.755 30.4 154.127 30.4615 154.5 30.44H154.86C156.161 30.2547 157.374 29.6767 158.337 28.7831C159.3 27.8896 159.968 26.7232 160.25 25.44C160.356 25.0054 160.363 24.5527 160.271 24.115C160.18 23.6772 159.991 23.2655 159.72 22.91C159.476 22.6188 159.169 22.386 158.823 22.2285C158.477 22.0711 158.1 21.993 157.72 22Z" fill="#1C191A"/>
<path d="M184.32 0.77001L185.91 0.68001C192.15 0.35001 197.91 0.13001 203.55 0.0100098H204.45C212.98 0.0100098 219.03 2.11001 222.45 6.25001C225.12 9.51001 226 14 225 19.12C224.621 21.5205 223.685 23.7987 222.266 25.7716C220.847 27.7445 218.985 29.3572 216.83 30.48C218.497 35.02 220.163 39.5767 221.83 44.15L222.83 46.88L219.92 46.83C217.81 46.83 215.69 46.83 213.58 46.83C210.26 46.83 206.82 46.83 203.34 46.95H201.82C201.82 46.95 199.27 38.57 198.21 35.11L196.1 47.11L194.49 47.18C189.43 47.38 184.24 47.65 178.61 48.01L176.07 48.17L184.32 0.77001ZM200.67 20.85L202.89 20.79C203.334 20.809 203.771 20.6797 204.133 20.4226C204.495 20.1655 204.762 19.7952 204.89 19.37C204.944 19.2318 204.944 19.0782 204.89 18.94C204.89 18.89 204.63 18.76 204.1 18.76L201.03 18.83L200.67 20.85Z" fill="#1C191A"/>
<path d="M262.32 50.21C257.14 49.41 251.76 48.75 246.32 48.21L245.15 48.1C245.15 48.1 242.3 41.52 241.15 38.79L239.57 47.64L237.78 47.52C232.66 47.18 227.33 46.95 221.94 46.84H219.61L220.01 44.54C222.53 30.3 225.053 16.0833 227.58 1.88998L227.88 0.169983L229.63 0.239983C234.86 0.459983 240.04 0.789983 245.04 1.23998L246.21 1.33998L246.69 2.40998L250.9 11.82L252.62 1.99998L254.5 2.22998C259.93 2.88998 265.33 3.70998 270.5 4.65998L272.5 5.01998L272.14 7.01998C269.62 20.8533 267.1 34.7233 264.58 48.63L264.23 50.55L262.32 50.21Z" fill="#1C191A"/>
<path d="M47.39 11.16C46.0567 18.76 44.7233 26.3533 43.39 33.94C40.89 48.01 29.39 54.52 19.19 53.27C8.98999 52.02 -0.0700078 43.28 2.41999 29.6C3.75333 22.2 5.08666 14.7933 6.41999 7.38C11.77 8.26 17.08 9.00001 22.39 9.52001C21.0567 17.02 19.7233 24.5067 18.39 31.98C17.79 35.34 19.75 37.3 21.96 37.53C24.17 37.76 26.73 36.29 27.34 32.91C28.6733 25.4033 30.0067 17.8767 31.34 10.33C36.6867 10.7433 42.0367 11.02 47.39 11.16Z" fill="#F6D4E1"/>
<path d="M75.48 29.57L73 24.08C73.78 19.7334 74.5533 15.3734 75.32 11C80.6533 10.8067 85.9633 10.5467 91.25 10.22C88.73 24.6667 86.21 39.1034 83.69 53.53C78.32 53.79 72.95 53.99 67.57 54.09C64.9033 48.2234 62.2367 42.3334 59.57 36.42H58.57C59.4 38.3 60.23 40.17 61.07 42.05C60.3567 46.1034 59.6467 50.1534 58.94 54.2C53.6067 54.2 48.2967 54.1 43.01 53.9C45.53 39.7 48.05 25.48 50.57 11.24C55.67 11.34 60.7767 11.34 65.89 11.24C68.7767 17.38 71.6667 23.4967 74.56 29.59L75.48 29.57Z" fill="#F6D4E1"/>
<path d="M129.85 20C129.297 23.0982 127.655 25.8966 125.22 27.89C128.89 29.34 130.06 33.03 129.37 37.02C127.7 46.65 119.37 51.02 107.82 52.02C100.94 52.56 94.06 53.02 87.17 53.42C89.69 38.9534 92.2133 24.48 94.74 10C101.113 9.58671 107.483 9.10671 113.85 8.56004C124.39 7.69004 131.44 10.82 129.85 20ZM113.23 19.5L108.75 19.86C107.583 26.7267 106.39 33.5967 105.17 40.47L110.17 40.07C114.17 39.74 115.01 34.83 110.96 35.16L107.04 35.48L109 24.42L112.43 24.14C116.27 23.82 117.08 19.15 113.23 19.48V19.5Z" fill="#F6D4E1"/>
<path d="M132.73 28.36C134.94 15.67 147.27 4.36004 160.2 3.25004C173.13 2.14004 181.8 11.87 179.6 24.5C177.4 37.13 165.13 48.11 152.2 49.27C139.27 50.43 130.53 41.06 132.73 28.36ZM155.07 32.42C156.814 32.1957 158.444 31.4323 159.733 30.2365C161.022 29.0408 161.906 27.4722 162.26 25.75C162.86 22.33 160.59 19.75 157.26 20.04C155.516 20.2856 153.891 21.067 152.61 22.2762C151.329 23.4855 150.455 25.0628 150.11 26.79C149.48 30.21 151.7 32.71 155.07 32.42Z" fill="#F6D4E1"/>
<path d="M186 2.68002C191.867 2.37335 197.733 2.14668 203.6 2.00002C220.69 1.72002 224.78 9.84002 223.01 18.72C222.16 23.18 219.32 27.72 214.26 29.33C216.153 34.4833 218.043 39.6467 219.93 44.82C214.37 44.73 208.82 44.82 203.26 44.89L198.34 28.79C198.693 26.79 199.027 24.82 199.34 22.88L202.9 22.78C203.823 22.8201 204.73 22.5331 205.462 21.9696C206.194 21.4062 206.703 20.6024 206.9 19.7C207.17 18.17 206.32 16.7 203.99 16.75L199.34 16.87C197.68 26.3034 196.013 35.7367 194.34 45.17C189.007 45.3833 183.697 45.66 178.41 46C180.957 31.56 183.487 17.12 186 2.68002Z" fill="#F6D4E1"/>
<path d="M254.41 22.78C253.6 20.78 252.78 18.87 251.97 16.92C252.73 12.6667 253.493 8.4267 254.26 4.20003C259.593 4.8667 264.903 5.67003 270.19 6.61003C267.663 20.4434 265.14 34.3167 262.62 48.23C257.247 47.41 251.877 46.7434 246.51 46.23C243.843 40.05 241.177 33.91 238.51 27.81L237.51 27.74C238.35 29.68 239.18 31.61 240.01 33.55C239.303 37.55 238.59 41.55 237.87 45.55C232.537 45.2034 227.227 44.9767 221.94 44.87C224.46 30.63 226.983 16.4134 229.51 2.22003C234.61 2.43003 239.72 2.75003 244.82 3.22003C247.713 9.66003 250.607 16.1467 253.5 22.68L254.41 22.78Z" fill="#F6D4E1"/>
</g>
<defs>
<clipPath id="clip0_0_8046">
<rect width="272.51" height="101.2" fill="white"/>
</clipPath>
</defs>
</svg>
