<svg width="254" height="129" viewBox="0 0 254 129" fill="none" xmlns="http://www.w3.org/2000/svg">
<g clip-path="url(#clip0_0_8158)">
<path d="M126.8 128.1C196.83 128.1 253.6 99.4238 253.6 64.05C253.6 28.6762 196.83 0 126.8 0C56.7703 0 0 28.6762 0 64.05C0 99.4238 56.7703 128.1 126.8 128.1Z" fill="#4FBE94"/>
<path d="M35.62 65.62V75.13H25.88V69.62L27.5 69.3V61.45L25.88 61.13V55.61H35.62L39.71 63.11L43.77 55.61H53.53V61.13L51.9 61.45V69.3L53.53 69.62V75.13H43.77V65.62L39.71 72.62L35.62 65.62Z" fill="#3A9B73"/>
<path d="M66 75.36C64.5897 75.368 63.1834 75.2103 61.81 74.89C60.5733 74.5989 59.4158 74.039 58.42 73.25C57.439 72.439 56.6587 71.4123 56.14 70.25C55.5564 68.9099 55.2633 67.4615 55.28 66C55.2409 64.546 55.5244 63.1014 56.11 61.77C56.6351 60.651 57.4203 59.6738 58.4 58.92C59.4125 58.1668 60.5649 57.6229 61.79 57.32C64.5318 56.6398 67.3982 56.6398 70.14 57.32C71.3705 57.6246 72.5292 58.1683 73.55 58.92C74.5297 59.6738 75.3149 60.651 75.84 61.77C76.4338 63.0991 76.7209 64.5448 76.68 66C76.6859 67.0124 76.5581 68.0211 76.3 69C76.0703 69.8602 75.7094 70.6798 75.23 71.43C74.7706 72.1221 74.2073 72.7394 73.56 73.26C72.8982 73.7753 72.1721 74.2022 71.4 74.53C70.5776 74.8688 69.7131 75.0942 68.83 75.2C67.891 75.3139 66.9458 75.3673 66 75.36ZM66 62.17C65.5691 62.1629 65.14 62.2271 64.73 62.36C64.4176 62.4714 64.1291 62.641 63.88 62.86C63.6596 63.0544 63.4824 63.2928 63.36 63.56C63.2342 63.8142 63.1402 64.0829 63.08 64.36C63.0276 64.6307 62.9942 64.9047 62.98 65.18C62.98 65.44 62.98 65.68 62.98 65.88C62.98 66.08 62.98 66.31 62.98 66.58C62.9918 66.8583 63.0218 67.1356 63.07 67.41C63.1215 67.7094 63.2088 68.0015 63.33 68.28C63.4498 68.5695 63.6228 68.8341 63.84 69.06C64.0878 69.3029 64.3843 69.4903 64.71 69.61C65.1261 69.7616 65.5673 69.8329 66.01 69.82C66.4484 69.8299 66.8851 69.7622 67.3 69.62C67.6202 69.5 67.9128 69.3163 68.16 69.08C68.3806 68.8603 68.5601 68.6029 68.69 68.32C68.8159 68.0528 68.9066 67.7705 68.96 67.48C69.0173 67.2034 69.0508 66.9223 69.06 66.64C69.06 66.37 69.06 66.14 69.06 65.95C69.06 65.76 69.06 65.51 69.06 65.24C69.0507 64.9643 69.0173 64.6899 68.96 64.42C68.908 64.1356 68.8172 63.8596 68.69 63.6C68.5592 63.3294 68.3795 63.0853 68.16 62.88C67.9109 62.6534 67.6183 62.4798 67.3 62.37C66.882 62.2266 66.4418 62.1589 66 62.17Z" fill="#3A9B73"/>
<path d="M82.78 62C82.3826 61.9933 81.987 62.0542 81.61 62.18C81.3049 62.2802 81.018 62.4288 80.76 62.62C80.5503 62.7774 80.3736 62.9744 80.24 63.2C80.1304 63.3743 80.0684 63.5743 80.06 63.78H77.94V57.24H95.27V63.75H93.15C93.1416 63.5443 93.0796 63.3443 92.97 63.17C92.8364 62.9444 92.6597 62.7474 92.45 62.59C92.192 62.3988 91.9051 62.2502 91.6 62.15C91.2213 62.0343 90.8257 61.9836 90.43 62V69.8L91.96 70.09V75.16H81.26V70.06L82.78 69.77V62Z" fill="#3A9B73"/>
<path d="M107.23 75.36C105.82 75.368 104.413 75.2103 103.04 74.89C101.803 74.5989 100.646 74.039 99.65 73.25C98.6692 72.4412 97.8917 71.4137 97.38 70.25C96.7989 68.9098 96.5124 67.4605 96.54 66C96.499 64.5448 96.7861 63.0991 97.38 61.77C97.8982 60.6495 98.6806 59.6716 99.66 58.92C100.672 58.1668 101.825 57.6229 103.05 57.32C105.792 56.6398 108.658 56.6398 111.4 57.32C112.631 57.6227 113.79 58.1665 114.81 58.92C115.792 59.6712 116.578 60.6491 117.1 61.77C117.694 63.0991 117.981 64.5448 117.94 66C117.951 67.0126 117.823 68.022 117.56 69C117.33 69.8602 116.969 70.6798 116.49 71.43C116.033 72.1243 115.47 72.742 114.82 73.26C114.16 73.7774 113.433 74.2045 112.66 74.53C111.838 74.8688 110.973 75.0942 110.09 75.2C109.141 75.3151 108.186 75.3686 107.23 75.36ZM107.23 62.17C106.802 62.162 106.376 62.2262 105.97 62.36C105.653 62.4691 105.361 62.6389 105.11 62.86C104.89 63.0544 104.712 63.2928 104.59 63.56C104.464 63.8142 104.37 64.0829 104.31 64.36C104.263 64.6314 104.229 64.9051 104.21 65.18C104.21 65.44 104.21 65.68 104.21 65.88C104.21 66.08 104.21 66.31 104.21 66.58C104.212 66.859 104.242 67.1371 104.3 67.41C104.348 67.709 104.432 68.0011 104.55 68.28C104.67 68.5695 104.843 68.8341 105.06 69.06C105.309 69.3008 105.605 69.488 105.93 69.61C106.346 69.7616 106.787 69.8329 107.23 69.82C107.668 69.8299 108.105 69.7622 108.52 69.62C108.84 69.5 109.133 69.3163 109.38 69.08C109.601 68.8603 109.78 68.6029 109.91 68.32C110.034 68.0512 110.128 67.7695 110.19 67.48C110.237 67.2019 110.271 66.9215 110.29 66.64C110.29 66.37 110.29 66.14 110.29 65.95C110.29 65.76 110.29 65.51 110.29 65.24C110.271 64.9651 110.237 64.6914 110.19 64.42C110.13 64.1364 110.036 63.8611 109.91 63.6C109.779 63.3294 109.599 63.0853 109.38 62.88C109.131 62.6534 108.838 62.4798 108.52 62.37C108.105 62.2278 107.668 62.1601 107.23 62.17Z" fill="#3A9B73"/>
<path d="M139.61 75.13H132C131.76 74.69 131.52 74.23 131.26 73.73C131 73.23 130.76 72.73 130.53 72.17C130.3 71.61 130.07 71.07 129.86 70.5C129.652 69.9165 129.475 69.3223 129.33 68.72H128.91V75.13H119.74V70.06L121.26 69.77V62.54L119.74 62.25V57.25H130.15C131.342 57.2401 132.535 57.3002 133.72 57.43C134.588 57.5193 135.446 57.6935 136.28 57.95C136.884 58.1346 137.455 58.4148 137.97 58.78C138.374 59.0792 138.714 59.4567 138.97 59.89C139.215 60.3058 139.382 60.7636 139.46 61.24C139.55 61.755 139.594 62.2771 139.59 62.8C139.597 63.3145 139.543 63.828 139.43 64.33C139.331 64.7838 139.141 65.2125 138.87 65.59C138.555 65.9832 138.176 66.3211 137.75 66.59C137.186 66.9481 136.586 67.2464 135.96 67.48C136.153 67.8634 136.38 68.2283 136.64 68.57C136.94 68.99 137.26 69.42 137.64 69.85L138.7 71.12L139.61 72.12V75.13ZM128.92 65.27C129.344 65.2742 129.769 65.2508 130.19 65.2C130.541 65.1724 130.882 65.0701 131.19 64.9C131.463 64.7392 131.679 64.4983 131.81 64.21C131.956 63.824 132.021 63.4121 132 63C132.012 62.5825 131.937 62.1669 131.78 61.78C131.649 61.4891 131.433 61.245 131.16 61.08C130.856 60.8948 130.514 60.7819 130.16 60.75C129.739 60.6992 129.314 60.6758 128.89 60.68L128.92 65.27Z" fill="#3A9B73"/>
<path d="M148.85 66C148.798 66.533 148.861 67.0708 149.033 67.5778C149.206 68.0847 149.484 68.5491 149.85 68.94C150.675 69.5997 151.716 69.9277 152.77 69.86C153.65 69.8481 154.527 69.7544 155.39 69.58C156.538 69.3571 157.672 69.0734 158.79 68.73V74.26C156.417 75.0028 153.947 75.3903 151.46 75.41C150.087 75.4206 148.718 75.2491 147.39 74.9C146.191 74.581 145.078 74.0005 144.13 73.2C143.182 72.3808 142.436 71.3543 141.95 70.2C141.396 68.8637 141.127 67.4264 141.16 65.98C141.124 64.5651 141.372 63.1572 141.89 61.84C142.348 60.7338 143.073 59.7582 144 59C144.943 58.2233 146.04 57.6573 147.22 57.34C148.586 56.9735 149.996 56.7952 151.41 56.81C152.262 56.8017 153.114 56.8485 153.96 56.95C154.649 57.0298 155.333 57.1466 156.01 57.3C156.551 57.4314 157.086 57.5916 157.61 57.78C158.07 57.95 158.48 58.12 158.83 58.28V63.81H155.24C154.886 63.3028 154.425 62.8794 153.89 62.57C153.42 62.3063 152.889 62.1685 152.35 62.17C151.908 62.1737 151.471 62.2585 151.06 62.42C150.64 62.5913 150.258 62.8465 149.94 63.17C149.604 63.515 149.339 63.9227 149.16 64.37C148.948 64.887 148.843 65.4414 148.85 66Z" fill="#3A9B73"/>
<path d="M165.8 75.13V70.13L167.32 69.75L162.08 62.57L160.15 62.29V57.29H170.35V62.29L169.15 62.57L171.58 66.24L174 62.53L172.8 62.25V57.25H183V62.25L181.08 62.53L175.84 69.71L177.37 70.09V75.09L165.8 75.13Z" fill="#3A9B73"/>
<path d="M191.43 66C191.378 66.533 191.441 67.0708 191.613 67.5778C191.786 68.0847 192.064 68.5491 192.43 68.94C193.256 69.5979 194.296 69.9258 195.35 69.86C196.233 69.8476 197.114 69.7539 197.98 69.58C199.127 69.3559 200.262 69.0722 201.38 68.73V74.26C199.003 75.0029 196.53 75.3904 194.04 75.41C192.67 75.4207 191.305 75.2492 189.98 74.9C188.778 74.5812 187.661 74.0007 186.71 73.2C185.765 72.3782 185.02 71.3523 184.53 70.2C183.976 68.8637 183.707 67.4264 183.74 65.98C183.704 64.5651 183.952 63.1572 184.47 61.84C184.933 60.7389 185.653 59.7649 186.57 59C187.514 58.2254 188.611 57.6596 189.79 57.34C191.159 56.9736 192.572 56.7953 193.99 56.81C194.839 56.8014 195.687 56.8482 196.53 56.95C197.219 57.0298 197.903 57.1466 198.58 57.3C199.122 57.43 199.656 57.5902 200.18 57.78C200.64 57.95 201.05 58.12 201.41 58.28V63.81H197.81C197.459 63.3006 196.997 62.8767 196.46 62.57C195.993 62.3075 195.466 62.1697 194.93 62.17C194.488 62.1737 194.051 62.2585 193.64 62.42C193.218 62.589 192.837 62.8445 192.52 63.17C192.177 63.5116 191.908 63.9201 191.73 64.37C191.522 64.8877 191.42 65.4421 191.43 66Z" fill="#3A9B73"/>
<path d="M212.92 70.25C213.258 70.2534 213.596 70.2062 213.92 70.11C214.522 69.9242 215.08 69.618 215.56 69.21C215.769 69.0293 215.966 68.8356 216.15 68.63H218.28V75.13H203.76V70.06L205.28 69.77V62.54L203.76 62.25V57.25H214.46V62.25L212.92 62.54V70.25Z" fill="#3A9B73"/>
<path d="M229.17 65.11L232.69 64.36V68L229.17 67.24V70C229.665 69.9993 230.16 69.9626 230.65 69.89C231.097 69.8252 231.539 69.7249 231.97 69.59C232.355 69.4696 232.729 69.3191 233.09 69.14C233.398 68.9903 233.689 68.8093 233.96 68.6H235.71V75.1H220V70.06L221.52 69.77V62.57L220 62.27V57.27H235.71V63.78H234C233.729 63.5707 233.438 63.3898 233.13 63.24C232.769 63.0643 232.394 62.9172 232.01 62.8C231.578 62.6664 231.137 62.5628 230.69 62.49C230.2 62.4175 229.705 62.3807 229.21 62.38L229.17 65.11Z" fill="#3A9B73"/>
<path d="M115.26 41.08C115.693 41.1945 116.144 41.2284 116.59 41.18C117.32 41.18 117.81 41.12 118.06 41.18C117.418 42.4706 116.491 43.5989 115.35 44.48C113.89 45.4252 112.143 45.8223 110.418 45.6008C108.694 45.3792 107.103 44.5534 105.93 43.27C105.251 42.5298 104.736 41.6546 104.419 40.7016C104.102 39.7486 103.99 38.7393 104.09 37.74C104.195 36.0336 104.929 34.4267 106.15 33.23C107.356 31.9898 108.975 31.2354 110.7 31.11C112.363 30.9969 114.018 31.4325 115.41 32.35C115.311 32.3957 115.23 32.4731 115.18 32.57C115.14 32.6196 115.119 32.6814 115.119 32.745C115.119 32.8086 115.14 32.8703 115.18 32.92C115.18 32.92 115.05 32.97 114.9 32.97C114.75 32.97 114.68 32.97 114.66 33.08C114.615 33.1409 114.591 33.2144 114.59 33.29C114.59 33.41 114.59 33.47 114.66 33.5C114.565 33.5275 114.465 33.5275 114.37 33.5C114.24 33.5 114.16 33.5 114.14 33.6C114.12 33.7 114.08 33.72 114.14 33.85C114.2 33.98 114.14 34.06 114.14 34.07C113.695 34.0355 113.257 33.9379 112.84 33.78C112.361 33.6101 111.858 33.5156 111.35 33.5C110.73 33.4855 110.114 33.5967 109.538 33.827C108.962 34.0573 108.439 34.4019 108 34.84C107.154 35.6593 106.644 36.7647 106.57 37.94C106.468 39.1574 106.832 40.3681 107.59 41.3265C108.348 42.2848 109.442 42.9189 110.65 43.1C111.536 43.2373 112.443 43.1225 113.267 42.7689C114.091 42.4152 114.799 41.8369 115.31 41.1L115.26 41.08ZM107.14 38.66C107.067 37.936 107.206 37.2065 107.54 36.56C107.853 35.9163 108.32 35.3599 108.9 34.94C109.521 34.4669 110.263 34.1808 111.041 34.1152C111.819 34.0497 112.599 34.2075 113.29 34.57C113.27 34.6247 113.235 34.673 113.19 34.71L113.08 34.84C113.062 34.8636 113.049 34.8909 113.042 34.9199C113.035 34.949 113.034 34.9792 113.04 35.0086C113.045 35.0379 113.057 35.0657 113.075 35.0901C113.092 35.1145 113.114 35.1349 113.14 35.15C112.75 35.26 112.54 35.36 112.52 35.47C112.5 35.58 112.52 35.77 112.67 35.82C112.202 35.6019 111.685 35.5085 111.17 35.5488C110.655 35.5891 110.159 35.7617 109.73 36.05C109.289 36.3345 108.943 36.745 108.738 37.2282C108.533 37.7114 108.478 38.245 108.58 38.76C108.658 39.3917 108.973 39.9705 109.46 40.38C109.928 40.7648 110.505 40.9923 111.11 41.03C111.712 41.0991 112.319 40.9691 112.84 40.66C113.118 40.5102 113.364 40.3066 113.563 40.0612C113.762 39.8157 113.911 39.5332 114 39.23C114.076 39.2459 114.154 39.2459 114.23 39.23C114.302 39.2077 114.378 39.2077 114.45 39.23C114.297 39.5144 114.244 39.8419 114.3 40.16C114.34 40.5666 114.48 40.8066 114.72 40.88C114.349 41.4649 113.824 41.9371 113.204 42.2455C112.583 42.554 111.891 42.6869 111.2 42.63C110.174 42.5981 109.197 42.1845 108.46 41.47C107.678 40.7357 107.206 39.7306 107.14 38.66ZM109.31 28.94C108.937 29.1028 108.548 29.2268 108.15 29.31C107.958 29.3135 107.769 29.273 107.595 29.1915C107.422 29.11 107.27 28.9897 107.15 28.84C108.151 28.1518 109.346 27.8014 110.56 27.84C110.65 27.89 110.85 28.02 111.17 28.24C111.368 28.3876 111.583 28.5118 111.81 28.61C110.966 28.6121 110.126 28.723 109.31 28.94ZM119.18 35.57C119.383 35.9944 119.525 36.4456 119.6 36.91L117.26 37.52L114.94 38.14C114.912 38.2876 114.839 38.4232 114.732 38.5286C114.625 38.634 114.488 38.7042 114.34 38.73L113.87 38.85C113.711 38.8777 113.554 38.9145 113.4 38.96C113.26 39.4155 112.953 39.8013 112.54 40.04C112.139 40.2773 111.675 40.3888 111.21 40.36C110.752 40.3536 110.309 40.1953 109.95 39.91C109.756 39.7597 109.594 39.5713 109.476 39.3563C109.357 39.1414 109.284 38.9044 109.26 38.66C109.202 38.3107 109.235 37.9523 109.356 37.6195C109.477 37.2867 109.681 36.9907 109.95 36.76C110.224 36.4981 110.567 36.3196 110.939 36.2452C111.311 36.1709 111.696 36.2037 112.05 36.34C111.962 36.4331 111.902 36.5492 111.878 36.6748C111.853 36.8004 111.864 36.9305 111.91 37.05C111.955 37.148 112.022 37.2348 112.105 37.3039C112.188 37.3731 112.285 37.423 112.39 37.45C112.489 37.4839 112.594 37.4951 112.698 37.483C112.802 37.4709 112.902 37.4357 112.99 37.38C113.094 37.311 113.177 37.2149 113.23 37.102C113.283 36.9891 113.303 36.8639 113.29 36.74C113.505 36.6338 113.74 36.5725 113.98 36.56C114.093 36.5354 114.211 36.5441 114.319 36.5849C114.427 36.6257 114.521 36.6969 114.59 36.79C115.32 36.58 116.85 36.17 119.18 35.57ZM110.85 27.76C110.5 27.52 110.36 27.44 110.43 27.49C110.362 27.4519 110.311 27.3895 110.287 27.3154C110.263 27.2413 110.267 27.1608 110.3 27.09H110.37C110.843 27.0343 111.321 27.1141 111.75 27.32L113.16 27.91C116.019 28.6992 119.04 28.6819 121.89 27.86C121.928 27.9628 121.944 28.0729 121.935 28.1823C121.926 28.2917 121.893 28.3979 121.839 28.4932C121.784 28.5886 121.71 28.6709 121.62 28.7343C121.531 28.7976 121.428 28.8405 121.32 28.86C120.776 28.9587 120.223 28.999 119.67 28.98L117.54 29.08C116.61 29.08 115.87 29.14 115.32 29.13C114.061 29.2163 112.802 28.9679 111.67 28.41L111.25 28.14L110.85 27.76ZM121.92 27.76C120.072 28.2065 118.166 28.365 116.27 28.23C114.529 28.2182 112.815 27.7933 111.27 26.99C111.27 26.86 111.27 26.79 111.38 26.77C111.424 26.7571 111.471 26.7549 111.516 26.7636C111.561 26.7723 111.604 26.7916 111.64 26.82C112.397 26.7374 113.163 26.7711 113.91 26.92C113.938 27.0079 113.938 27.1021 113.91 27.19C113.999 27.1295 114.103 27.0949 114.21 27.09C114.224 27.1214 114.232 27.1555 114.232 27.19C114.232 27.2245 114.224 27.2586 114.21 27.29C114.279 27.2367 114.363 27.2085 114.45 27.21C114.55 27.21 114.59 27.27 114.58 27.39C114.619 27.3757 114.653 27.3515 114.68 27.32C114.702 27.3058 114.728 27.2982 114.755 27.2982C114.782 27.2982 114.808 27.3058 114.83 27.32C114.83 27.32 114.83 27.38 114.9 27.4C114.97 27.42 114.96 27.48 114.9 27.52L115.07 27.42C115.183 27.42 115.233 27.47 115.22 27.57C117.206 27.7456 119.208 27.6276 121.16 27.22C121.247 27.3389 121.375 27.421 121.52 27.45L121.78 27.57L121.92 27.76ZM112.2 36.49C112.525 36.3296 112.811 36.1011 113.04 35.82L112.81 35.67C112.795 35.6578 112.783 35.6425 112.775 35.6252C112.767 35.6079 112.763 35.5891 112.763 35.57C112.763 35.5509 112.767 35.532 112.775 35.5147C112.783 35.4975 112.795 35.4822 112.81 35.47C113.075 35.439 113.344 35.4781 113.59 35.5834C113.836 35.6887 114.049 35.8564 114.21 36.07C114.189 36.1074 114.155 36.136 114.115 36.1506C114.074 36.1653 114.03 36.1651 113.99 36.15H113.87H113.74C113.534 36.2702 113.356 36.4349 113.222 36.6321C113.087 36.8293 112.997 37.054 112.96 37.29C112.914 37.3341 112.86 37.368 112.8 37.3896C112.741 37.4112 112.677 37.4199 112.614 37.4151C112.551 37.4104 112.489 37.3924 112.433 37.3622C112.377 37.332 112.329 37.2904 112.29 37.24L111.99 36.94L112.2 36.49ZM113.29 34.89C113.559 34.8558 113.832 34.8965 114.079 35.0077C114.326 35.1189 114.537 35.2962 114.69 35.52C114.76 35.52 114.29 35.34 113.29 35.09V34.89ZM113.82 34.32C114.086 34.2899 114.355 34.3316 114.599 34.4406C114.844 34.5496 115.055 34.722 115.21 34.94C114.769 34.7341 114.301 34.5927 113.82 34.52V34.32ZM114.94 36.32C114.73 36.3084 114.523 36.2749 114.32 36.22C114.306 36.0803 114.306 35.9396 114.32 35.8C114.466 35.7882 114.611 35.8321 114.726 35.923C114.841 36.014 114.918 36.1451 114.94 36.29V36.32ZM114.32 33.78C114.588 33.747 114.859 33.7872 115.106 33.8964C115.352 34.0056 115.565 34.1796 115.72 34.4C115.82 34.4 115.35 34.22 114.32 33.98V33.78ZM132.2 35.18C133.59 35.25 134.32 35.82 134.39 36.87C134.41 37.3101 134.33 37.7491 134.157 38.1542C133.984 38.5593 133.722 38.9202 133.39 39.21C132.764 39.82 131.95 40.2005 131.08 40.29C129.936 40.3869 128.787 40.4103 127.64 40.36C126.02 40.3 124.84 40.29 124.1 40.36C118.873 40.7266 115.997 40.9 115.47 40.88C115.07 40.63 114.85 40.49 114.82 40.46C114.724 40.3694 114.653 40.2554 114.615 40.1291C114.576 40.0029 114.571 39.8688 114.6 39.74C114.611 39.639 114.646 39.542 114.702 39.4569C114.757 39.3718 114.832 39.3009 114.92 39.25L115.47 38.91L123.85 39.54H128.19C129.511 39.6404 130.839 39.5015 132.11 39.13C132.45 38.9548 132.748 38.7075 132.983 38.4052C133.218 38.103 133.384 37.7531 133.47 37.38C133.69 36.52 133.25 36.05 132.16 35.97V35.3C132.15 35.21 132.17 35.16 132.2 35.15V35.18ZM114.84 33.18C115.108 33.1349 115.384 33.1696 115.633 33.2798C115.882 33.3901 116.093 33.5709 116.24 33.8C115.999 33.8556 115.746 33.8199 115.53 33.7L115.18 33.51L114.84 33.33V33.18ZM116.39 33.5H116.81C117.277 34.1206 117.672 34.7915 117.99 35.5C117.585 35.5779 117.184 35.678 116.79 35.8C116.28 35.94 115.87 36.04 115.57 36.1C115.45 35.8085 115.27 35.5459 115.04 35.33C115.088 35.2636 115.154 35.2117 115.23 35.18C115.33 35.18 115.39 35.08 115.41 35.02C115.431 34.9617 115.431 34.8982 115.41 34.84C115.388 34.7786 115.388 34.7114 115.41 34.65C115.65 34.78 115.84 34.71 115.99 34.45C116.14 34.19 115.99 34.18 115.87 34.15C116.043 34.1743 116.218 34.1313 116.36 34.03C116.433 33.963 116.477 33.8701 116.483 33.7711C116.488 33.6721 116.455 33.5748 116.39 33.5ZM115.51 38.56C115.458 38.5408 115.402 38.5408 115.35 38.56H115.21C115.206 38.5435 115.205 38.5263 115.208 38.5094C115.21 38.4926 115.217 38.4765 115.226 38.4624C115.236 38.4482 115.248 38.4361 115.262 38.4271C115.277 38.4181 115.293 38.4122 115.31 38.41H115.41C115.443 38.403 115.477 38.403 115.51 38.41V38.56ZM116.51 30.08C116.87 30.58 117.04 30.81 117.02 30.77C117.14 31.02 117.02 31.2 116.78 31.33C116.573 30.9449 116.336 30.577 116.07 30.23C115.68 29.71 115.43 29.36 115.33 29.23H115.89C116.109 29.4998 116.309 29.7837 116.49 30.08H116.51ZM115.38 32.61C115.649 32.5594 115.926 32.5916 116.176 32.7023C116.426 32.813 116.637 32.997 116.78 33.23C116.503 33.252 116.224 33.2038 115.97 33.09C115.841 33.0547 115.721 32.994 115.617 32.9116C115.512 32.8292 115.425 32.7266 115.36 32.61H115.38ZM119.2 30.23C118.737 30.4632 118.339 30.8066 118.04 31.23C117.739 31.6279 117.404 31.9992 117.04 32.34C117.04 32.34 117.11 32.43 117.21 32.49C117.249 32.5094 117.279 32.5431 117.294 32.584C117.309 32.625 117.307 32.67 117.29 32.71C117.019 32.7124 116.751 32.6614 116.5 32.56C116.246 32.4887 116.03 32.3197 115.9 32.09C115.9 32.01 116.11 32.03 116.37 32.14C116.731 31.8353 117.065 31.5008 117.37 31.14C117.677 30.7563 118.011 30.3953 118.37 30.06C118.352 29.9662 118.361 29.8694 118.397 29.7808C118.432 29.6922 118.492 29.6155 118.57 29.56C118.634 29.5231 118.706 29.5037 118.78 29.5037C118.854 29.5037 118.926 29.5231 118.99 29.56C119.066 29.5828 119.137 29.6225 119.195 29.6762C119.254 29.7298 119.3 29.7961 119.33 29.87C119.332 29.9372 119.32 30.0042 119.294 30.0663C119.268 30.1284 119.229 30.1842 119.18 30.23H119.2ZM116.2 38.46C116.2 38.28 116.35 38.16 116.6 38.11C116.704 38.0744 116.811 38.0509 116.92 38.04C117.02 38.0536 117.12 38.0536 117.22 38.04C117.661 37.9251 118.095 37.7848 118.52 37.62C118.582 37.6868 118.629 37.7658 118.658 37.8519C118.687 37.9381 118.698 38.0294 118.69 38.12C118.705 38.3193 118.681 38.5197 118.62 38.71C118.43 38.71 118.01 38.71 117.37 38.64C116.954 38.6382 116.539 38.5776 116.14 38.46H116.2ZM135.58 27.19C135.333 27.482 135.035 27.7261 134.7 27.91C133.52 31.91 132.853 34.22 132.7 34.84C132.475 34.8127 132.251 34.7726 132.03 34.72C132.31 33.72 132.83 31.94 133.58 29.41C132.37 29.98 130.3 30.24 127.39 30.18C127.39 29.92 127.39 29.77 127.22 29.71C127.05 29.65 127.07 29.79 127.03 29.9C126.99 30.01 126.97 30.19 126.97 30.18C126.533 30.1131 126.092 30.0697 125.65 30.05C124.98 30.05 124.54 29.99 124.33 29.96C123.948 29.971 123.569 29.8936 123.222 29.7341C122.875 29.5745 122.57 29.337 122.33 29.04C120.877 29.7066 120.21 31.7066 120.33 35.04C120.296 35.5172 120.368 35.996 120.541 36.4421C120.714 36.8882 120.983 37.2904 121.33 37.62C121.229 37.6873 121.148 37.7802 121.096 37.8892C121.043 37.9982 121.02 38.1193 121.03 38.24C120.657 38.005 120.372 37.6534 120.22 37.24C120.22 37.24 120.08 36.82 119.78 35.93C119.633 35.5678 119.43 35.2305 119.18 34.93C118.915 34.6107 118.668 34.2769 118.44 33.93L118.14 33.43C117.99 33.18 117.88 33.01 117.82 32.9C117.6 32.56 117.5 32.39 117.51 32.42C117.486 32.3784 117.471 32.3322 117.465 32.2844C117.46 32.2367 117.464 32.1883 117.478 32.1423C117.492 32.0963 117.516 32.0538 117.547 32.0172C117.578 31.9807 117.617 31.951 117.66 31.93C117.951 32.284 118.212 32.662 118.44 33.06C118.86 33.72 119.16 34.06 119.31 34.06C119.46 34.06 119.63 33.92 119.68 33.67C119.68 33.73 119.68 33.48 119.68 32.91C119.84 30.97 120.31 29.68 121.08 29.03C121.152 29.05 121.228 29.05 121.3 29.03C121.357 29.0043 121.418 28.9875 121.48 28.98C121.637 28.9117 121.772 28.8009 121.87 28.66C121.968 28.529 122.082 28.4114 122.21 28.31C122.21 28.22 122.37 27.89 122.56 27.31C122.69 26.93 122.81 26.63 122.91 26.4C123.164 25.8319 123.573 25.3468 124.09 25C124.733 24.7121 125.403 24.4877 126.09 24.33C127.257 24.0283 128.455 23.8672 129.66 23.85C129.766 23.7543 129.892 23.6824 130.028 23.6393C130.164 23.5962 130.308 23.5828 130.45 23.6C130.607 23.5902 130.763 23.5902 130.92 23.6H131.41C131.453 23.5994 131.495 23.6142 131.528 23.6417C131.561 23.6692 131.583 23.7076 131.59 23.75C131.59 23.88 131.67 23.94 131.73 23.96C132.448 23.9349 133.152 24.1535 133.73 24.58C133.73 24.58 133.82 24.58 133.88 24.58C133.905 24.552 133.936 24.5302 133.971 24.5163C134.005 24.5024 134.043 24.4968 134.08 24.5C135 26.13 135.43 27 135.52 27.19H135.58ZM119.7 30.91C119.492 31.7421 119.368 32.593 119.33 33.45C119.16 32.6479 119.076 31.8299 119.08 31.01C119.276 30.9276 119.488 30.8933 119.7 30.91ZM120.58 29.11C120.12 29.96 119.89 30.37 119.91 30.33C119.839 30.3284 119.771 30.2998 119.72 30.25C119.691 30.2228 119.656 30.2024 119.618 30.1903C119.58 30.1782 119.54 30.1747 119.5 30.18C119.5 29.8 119.5 29.58 119.38 29.51C119.531 29.3489 119.72 29.228 119.929 29.1582C120.139 29.0884 120.362 29.0718 120.58 29.11ZM121.1 36.74C121.204 36.7743 121.316 36.7743 121.42 36.74C121.553 36.7266 121.687 36.7266 121.82 36.74C121.89 36.74 121.62 36.74 121 36.69C120.981 36.6127 120.95 36.5387 120.91 36.47C120.874 36.3985 120.853 36.3201 120.85 36.24C121.68 36.17 122.05 36.15 121.97 36.19H120.85C120.781 36.0423 120.74 35.8828 120.73 35.72C121.182 35.726 121.634 35.6926 122.08 35.62C121.871 35.5979 121.659 35.5979 121.45 35.62H120.68V35.2C120.922 35.1421 121.172 35.1252 121.42 35.15H122.23C122.007 35.0279 121.749 34.9889 121.5 35.04C121.229 35.0837 120.954 35.1004 120.68 35.09C120.662 34.9495 120.677 34.8067 120.724 34.673C120.771 34.5393 120.848 34.4185 120.95 34.32C121.452 34.2953 121.953 34.2453 122.45 34.17C122.6 34.5017 122.815 34.8005 123.081 35.0493C123.347 35.2981 123.659 35.4921 124 35.62C124 35.99 123.95 36.15 123.95 36.12C124.092 36.2846 124.28 36.4031 124.49 36.46C124.711 36.5642 124.961 36.5923 125.2 36.54C125.248 36.5265 125.291 36.501 125.326 36.466C125.361 36.431 125.387 36.3876 125.4 36.34C125.428 36.2394 125.479 36.1468 125.55 36.07C125.85 36.96 126.7 37.49 128.09 37.69C127.441 37.6419 126.789 37.6419 126.14 37.69C125.06 37.76 124.37 37.79 124.05 37.79C122.48 37.84 121.48 37.48 121.1 36.74ZM121.1 30.91C121.224 31.3887 121.308 31.8771 121.35 32.37C121.43 33.21 121.48 33.72 121.5 33.9C121.388 33.9946 121.256 34.0633 121.115 34.1013C120.973 34.1393 120.824 34.1457 120.68 34.12C120.651 33.0346 120.793 31.9515 121.1 30.91ZM122.28 38C122.28 38.22 122.22 38.36 122.02 38.4C121.841 38.4435 121.652 38.4185 121.49 38.33C121.28 38.23 121.18 38.12 121.17 38C121.16 37.88 121.31 37.76 121.62 37.7C121.93 37.64 122.25 37.74 122.28 38ZM122.28 31.12C122.676 31.024 123.083 30.9837 123.49 31C123.951 31.0093 124.413 30.9825 124.87 30.92C124.885 31.3586 124.925 31.796 124.99 32.23C125.064 32.6267 125.023 33.0363 124.87 33.41C124.781 33.3873 124.688 33.3873 124.598 33.41C124.509 33.4327 124.427 33.4774 124.36 33.54C124.288 33.5981 124.204 33.6391 124.114 33.6599C124.024 33.6806 123.93 33.6807 123.84 33.66C123.88 33.4408 123.846 33.2144 123.742 33.017C123.639 32.8195 123.473 32.6622 123.27 32.57C123.43 32.5 123.63 32.57 123.89 32.72C124.101 32.8649 124.325 32.9889 124.56 33.09C124.56 32.96 124.41 32.84 124.18 32.72C124.079 32.6586 123.972 32.6083 123.86 32.57C123.759 32.5258 123.661 32.4722 123.57 32.41C123.67 32.2217 123.814 32.0604 123.99 31.94C124.16 31.8237 124.3 31.6697 124.4 31.49C124.26 31.49 124.09 31.6 123.87 31.83C123.726 32.0178 123.537 32.1658 123.32 32.26C122.97 32.0307 122.606 31.8236 122.23 31.64C122.23 31.77 122.39 31.91 122.65 32.04C122.846 32.1669 123.053 32.274 123.27 32.36C123.169 32.4701 123.055 32.5675 122.93 32.65L122.61 32.92C122.508 33.0422 122.444 33.1911 122.424 33.3488C122.405 33.5066 122.431 33.6667 122.5 33.81C122.411 33.7914 122.319 33.7914 122.23 33.81C122.144 33.8293 122.056 33.8293 121.97 33.81C121.966 33.5382 121.939 33.2673 121.89 33C121.82 32.57 121.78 32.29 121.77 32.18C121.697 31.6266 121.85 31.2866 122.23 31.16L122.28 31.12ZM131.48 36.35H131.88C132.04 36.35 132.13 36.35 132.15 36.25C131.84 37.64 130.54 38.45 128.27 38.69C127.232 38.7616 126.19 38.7783 125.15 38.74L122 38.71C122.214 38.5388 122.394 38.3284 122.53 38.09C123.04 38.09 123.9 38.09 125.1 38.09C126.3 38.09 127.17 38.09 127.76 38.09C129.77 38 131 37.4 131.43 36.39L131.48 36.35ZM123.12 34.85C122.934 34.6438 122.798 34.3979 122.721 34.131C122.645 33.8641 122.631 33.5832 122.68 33.31C122.68 33.05 122.81 32.88 122.98 32.82C123.15 32.76 123.39 32.82 123.67 33.04C123.618 33.1781 123.598 33.3259 123.61 33.4728C123.622 33.6198 123.666 33.7622 123.74 33.89C123.89 34.084 124.072 34.2499 124.28 34.38C124.51 34.55 124.65 34.68 124.68 34.79C124.71 34.9 124.68 35.17 124.4 35.43C124.152 35.4475 123.903 35.4079 123.672 35.3143C123.442 35.2207 123.236 35.0755 123.07 34.89L123.12 34.85ZM132.52 28.9C133.06 28.67 133.4 28.02 133.52 26.9C133.631 26.503 133.639 26.0843 133.542 25.6836C133.446 25.2828 133.249 24.9133 132.97 24.61C132.195 24.2555 131.333 24.1339 130.49 24.26C128.551 24.2343 126.624 24.5735 124.81 25.26C126.736 24.6781 128.738 24.3849 130.75 24.39C131.423 24.3236 132.103 24.3916 132.75 24.59C133.33 24.94 133.56 25.66 133.46 26.78C133.36 27.9 133.02 28.55 132.46 28.78C131.695 28.9157 130.917 28.966 130.14 28.93C126.21 28.93 123.89 28.93 123.14 28.93C123.873 29.0542 124.616 29.1112 125.36 29.1H130.12C130.907 29.1498 131.697 29.096 132.47 28.94L132.52 28.9ZM124.25 34.23C124.11 34.06 124.04 33.99 124.04 34.03H124.25V34.23ZM124.4 34.13C124.4 33.67 124.55 33.48 124.99 33.56C125.184 33.6004 125.375 33.6572 125.56 33.73C125.724 33.7837 125.891 33.8271 126.06 33.86C126.06 34.11 126.06 34.25 126.01 34.3C125.998 34.3596 125.963 34.412 125.912 34.4457C125.862 34.4794 125.8 34.4918 125.74 34.48C125.48 35.68 125.35 36.31 125.34 36.35C124.942 36.3447 124.549 36.2525 124.19 36.08C124.19 36.08 124.19 35.97 124.19 35.86C124.22 35.769 124.24 35.6751 124.25 35.58C124.63 35.58 124.82 35.34 124.83 34.92C124.836 34.7609 124.793 34.6038 124.708 34.4698C124.622 34.3357 124.497 34.2311 124.35 34.17L124.4 34.13ZM125.91 31L125.61 31.3C125.765 31.2027 125.934 31.1286 126.11 31.08C126.293 31.0285 126.469 30.951 126.63 30.85C126.775 30.7275 126.87 30.5572 126.9 30.37C126.942 30.18 127.006 29.9954 127.09 29.82C127.32 30.02 127.31 30.33 127.09 30.74C126.923 30.9293 126.709 31.0708 126.47 31.15C126.224 31.2333 125.994 31.3585 125.79 31.52C125.615 31.8438 125.552 32.2165 125.61 32.58C125.646 32.7601 125.636 32.9465 125.58 33.1215C125.524 33.2965 125.424 33.4543 125.29 33.58C125.471 32.8741 125.565 32.1487 125.57 31.42C125.47 31.5275 125.376 31.6411 125.29 31.76C125.19 31.33 125.42 31.09 125.91 31ZM126.99 30.9C127.41 30.9 127.99 30.83 128.75 30.74C129.51 30.65 130.11 30.6 130.5 30.59C130.57 30.95 130.68 31.59 130.84 32.53C131 33.47 131.07 34.01 131.18 34.46C130.588 34.0116 129.906 33.6977 129.18 33.54C128.118 33.3924 127.04 33.669 126.18 34.31C126.234 34.2237 126.255 34.121 126.241 34.0203C126.226 33.9196 126.176 33.8274 126.1 33.76C125.931 33.6335 125.721 33.5731 125.51 33.59C125.632 33.3564 125.684 33.0925 125.66 32.83C125.66 32.39 125.66 32.15 125.66 32.09C125.691 31.9332 125.758 31.786 125.857 31.6607C125.957 31.5354 126.084 31.4357 126.23 31.37C126.505 31.2497 126.764 31.0952 127 30.91L126.99 30.9ZM127.99 33.74C128.827 33.598 129.687 33.765 130.41 34.21C130.723 34.3921 130.968 34.671 131.109 35.0047C131.25 35.3384 131.278 35.7087 131.19 36.06C131.093 36.3219 130.936 36.5571 130.731 36.7466C130.526 36.936 130.279 37.0742 130.01 37.15C129.374 37.3963 128.689 37.4888 128.01 37.42C127.378 37.3917 126.768 37.1835 126.25 36.82C126.022 36.6549 125.848 36.4268 125.748 36.1638C125.649 35.9008 125.629 35.6144 125.69 35.34C125.752 35.1135 125.858 34.9014 126.002 34.716C126.146 34.5307 126.326 34.3757 126.53 34.26C126.971 33.9735 127.476 33.7984 128 33.75L127.99 33.74ZM130.31 35.91C130.522 35.9441 130.739 35.909 130.93 35.81C130.47 35.73 130.27 35.71 130.31 35.81C130.35 35.91 130.44 35.81 130.72 35.76C130.72 35.67 130.72 35.63 130.55 35.66C130.38 35.69 130.32 35.66 130.31 35.66C130.3 35.66 130.31 35.59 130.43 35.59C130.55 35.59 130.55 35.59 130.51 35.49C130.47 35.39 130.32 35.49 130.29 35.49C130.26 35.49 130.29 35.39 130.36 35.33C129.924 34.8958 129.366 34.6061 128.76 34.5C128.428 34.467 128.092 34.5004 127.773 34.5983C127.453 34.6961 127.157 34.8565 126.9 35.07C126.835 35.2044 126.747 35.3263 126.64 35.43C126.517 35.4414 126.393 35.4414 126.27 35.43C126.12 35.43 126.03 35.43 126.02 35.53C126.47 35.63 126.68 35.65 126.64 35.6C126.6 35.55 126.5 35.6 126.17 35.65C126.17 35.75 126.27 35.77 126.43 35.73C126.59 35.69 126.64 35.73 126.64 35.8C126.64 35.87 126.58 35.8 126.48 35.8C126.38 35.8 126.36 35.8 126.38 35.92C126.4 36.04 126.63 36 126.64 35.92C126.646 35.9429 126.646 35.9671 126.64 35.99C126.634 36.0024 126.631 36.0161 126.631 36.03C126.631 36.0439 126.634 36.0575 126.64 36.07C126.7 36.0803 126.757 36.1036 126.807 36.1381C126.857 36.1726 126.899 36.2176 126.93 36.27C126.991 36.369 127.065 36.4598 127.15 36.54C127.413 36.7206 127.712 36.8411 128.027 36.893C128.341 36.9448 128.663 36.9267 128.97 36.84C129.252 36.7943 129.522 36.6885 129.76 36.5298C129.998 36.3711 130.199 36.1631 130.35 35.92L130.31 35.91ZM128.81 35.46C129.01 35.5078 129.215 35.5247 129.42 35.51C129.649 35.4876 129.881 35.4876 130.11 35.51C129.911 35.6051 129.689 35.6398 129.47 35.61C129.245 35.5667 129.012 35.602 128.81 35.71C128.996 35.7314 129.184 35.7314 129.37 35.71H130.06C129.853 35.8352 129.61 35.8879 129.37 35.86C129.112 35.8503 128.854 35.867 128.6 35.91C128.806 35.929 129.014 35.929 129.22 35.91C129.46 35.8919 129.7 35.8919 129.94 35.91C129.77 36.35 129.29 36.58 128.49 36.6C127.69 36.62 127.19 36.41 127 35.96H128.39C128.163 35.8391 127.898 35.8104 127.65 35.88C127.387 35.9464 127.113 35.9464 126.85 35.88C126.78 35.95 127.21 35.88 128.14 35.78C128.04 35.67 127.83 35.64 127.52 35.69C127.3 35.7463 127.07 35.7463 126.85 35.69C126.92 35.59 127.13 35.55 127.45 35.57C127.677 35.6205 127.913 35.6205 128.14 35.57H126.85C126.92 35.43 127.15 35.37 127.54 35.4C127.807 35.4331 128.079 35.4162 128.34 35.35C128.142 35.3124 127.938 35.3124 127.74 35.35H127.05C126.99 35.18 127.18 35 127.62 34.82C128.046 34.6648 128.506 34.6302 128.95 34.72C129.151 34.7282 129.347 34.7853 129.522 34.8863C129.696 34.9874 129.843 35.1294 129.95 35.3C129.504 35.2746 129.056 35.2746 128.61 35.3C128.84 35.3473 129.075 35.3675 129.31 35.36H130.07C129.895 35.4708 129.683 35.5102 129.48 35.47C129.272 35.429 129.058 35.429 128.85 35.47L128.81 35.46ZM128.55 35.76C128.57 35.7405 128.585 35.7171 128.596 35.6913C128.606 35.6655 128.611 35.6378 128.61 35.61C128.61 35.53 128.59 35.48 128.55 35.46C128.519 35.4475 128.486 35.4433 128.453 35.4477C128.42 35.4522 128.389 35.4652 128.363 35.4854C128.336 35.5056 128.316 35.5324 128.303 35.563C128.29 35.5936 128.286 35.6271 128.29 35.66C128.29 35.66 128.35 35.66 128.39 35.72C128.415 35.7467 128.447 35.7656 128.483 35.7745C128.518 35.7833 128.555 35.7818 128.59 35.77L128.55 35.76ZM129.17 38.95C130.094 38.8182 130.95 38.3901 131.61 37.73C131.698 38.0824 131.764 38.4397 131.81 38.8C131.418 38.9975 130.988 39.1067 130.55 39.12C130.101 39.2053 129.637 39.1637 129.21 39L129.17 38.95ZM130.46 25.95C130.591 26.0774 130.749 26.174 130.922 26.2328C131.095 26.2916 131.279 26.3111 131.46 26.29C131.94 26.29 132.25 26.17 132.38 25.9C132.29 25.6 131.97 25.45 131.38 25.47C130.79 25.49 130.56 25.68 130.5 26L130.46 25.95ZM130.67 30.51C130.75 30.51 130.81 30.51 130.82 30.65C130.83 30.79 130.82 30.73 130.82 30.92C130.88 30.92 130.89 30.8 130.82 30.68C130.75 30.56 130.82 30.48 130.82 30.45C131.72 30.37 132.29 30.59 132.52 31.12C132.16 32.34 131.827 33.51 131.52 34.63C131.52 34.56 131.44 34.52 131.43 34.53C131.42 34.54 131.43 34.53 131.35 34.68C131.021 33.3237 130.807 31.9421 130.71 30.55L130.67 30.51ZM131.29 34.95C131.29 34.84 131.44 34.79 131.66 34.79C131.88 34.79 131.97 34.86 131.96 35C131.853 35.0562 131.729 35.0739 131.61 35.05C131.48 35.09 131.37 35.06 131.33 35L131.29 34.95ZM131.29 35.11L131.91 35.16C131.896 35.2199 131.861 35.2728 131.812 35.3095C131.762 35.3461 131.701 35.364 131.64 35.36L131.24 35.26C131.295 35.2353 131.343 35.1975 131.38 35.15L131.29 35.11ZM131.29 35.73C131.411 35.6696 131.546 35.6453 131.68 35.66C131.85 35.66 131.93 35.76 131.91 35.88C131.815 35.9308 131.708 35.9573 131.6 35.9573C131.492 35.9573 131.385 35.9308 131.29 35.88C131.29 35.88 131.36 35.85 131.38 35.77L131.29 35.73ZM131.29 35.43L131.91 35.48C131.91 35.58 131.85 35.63 131.69 35.63H131.29V35.43ZM131.29 35.98H131.91C131.91 36.09 131.85 36.15 131.69 36.15H131.29V35.98ZM132.43 36.3C133.07 36.45 133.26 36.84 133 37.49C132.92 37.7432 132.79 37.978 132.619 38.1806C132.447 38.3832 132.237 38.5495 132 38.67C131.75 38.06 131.7 37.62 131.85 37.38C131.85 37.38 131.85 37.38 131.85 37.53C131.922 37.3159 132.019 37.1111 132.14 36.92C132.289 36.742 132.416 36.5473 132.52 36.34L132.43 36.3ZM133.63 22.54C133.63 22.85 133.54 23.04 133.36 23.09C133.269 23.1101 133.175 23.1088 133.085 23.0863C132.994 23.0637 132.911 23.0205 132.84 22.96C132.758 22.9083 132.688 22.8396 132.634 22.7586C132.581 22.6775 132.545 22.5859 132.53 22.49C132.53 22.3 132.66 22.16 132.95 22.08C133.028 22.0536 133.11 22.0453 133.192 22.0557C133.273 22.0661 133.351 22.0949 133.42 22.14C133.509 22.1744 133.585 22.2348 133.638 22.3134C133.692 22.3919 133.72 22.4849 133.72 22.58L133.63 22.54ZM133.55 35C133.55 34.9 133.4 34.87 132.93 34.9C132.93 34.82 133.01 34.64 133.11 34.35C133.169 34.1564 133.216 33.9594 133.25 33.76C133.349 33.9451 133.403 34.1504 133.41 34.36C133.431 34.5782 133.478 34.793 133.55 35ZM133.72 23C133.75 22.8282 133.767 22.6544 133.77 22.48C134.021 22.5961 134.241 22.7683 134.415 22.9833C134.588 23.1984 134.71 23.4504 134.77 23.72C134.62 23.7622 134.478 23.8299 134.35 23.92C134.11 23.6346 133.899 23.3265 133.72 23ZM135 25.74L134.37 24.5C134.26 24.09 134.52 23.85 135.12 23.77C135.18 23.93 135.36 24.02 135.68 24.04H136.62C136.898 24.024 137.176 24.0613 137.44 24.15C137.552 24.2134 137.635 24.3165 137.674 24.4389C137.713 24.5612 137.704 24.6937 137.65 24.81C137.65 25 137.4 25.19 137.04 25.37C136.756 25.4922 136.49 25.6538 136.25 25.85C136.46 26.241 136.719 26.6038 137.02 26.93C136.87 27.27 136.46 27.51 135.8 27.65C135.649 26.9709 135.378 26.3242 135 25.74ZM142.51 31.06C144.381 31.1522 146.156 31.9155 147.51 33.21C148.768 34.4916 149.49 36.2045 149.53 38C149.578 39.0223 149.409 40.0432 149.033 40.9951C148.657 41.9471 148.083 42.8084 147.35 43.522C146.616 44.2357 145.74 44.7856 144.778 45.1352C143.816 45.4847 142.791 45.6261 141.77 45.55C140.037 45.4709 138.393 44.7594 137.15 43.55C135.894 42.3523 135.128 40.7307 135 39C134.911 37.2067 135.402 35.4325 136.4 33.94C136.809 33.9259 137.199 33.7581 137.49 33.47C138 32.99 138.27 32.74 138.32 32.71C138.37 32.68 138.59 33.22 139.32 34.46C138.831 34.9294 138.389 35.4452 138 36C137.651 36.6118 137.449 37.2966 137.41 38C137.347 39.0315 137.614 40.0563 138.174 40.925C138.734 41.7937 139.557 42.4609 140.522 42.8293C141.488 43.1976 142.546 43.248 143.542 42.9729C144.538 42.6978 145.42 42.1117 146.06 41.3C146.449 40.811 146.737 40.2501 146.909 39.6496C147.08 39.049 147.132 38.4205 147.06 37.8C147.015 37.1111 146.811 36.442 146.464 35.8452C146.117 35.2483 145.636 34.74 145.06 34.36C144.441 33.9416 143.734 33.6701 142.994 33.5662C142.254 33.4622 141.5 33.5285 140.79 33.76C140.79 33.68 140.59 33.38 140.3 32.85C140.123 32.5319 139.979 32.1969 139.87 31.85C140.323 31.6736 140.797 31.556 141.28 31.5C141.719 31.4656 142.14 31.3136 142.5 31.06H142.51ZM137.85 24.8C137.909 24.6393 137.904 24.4619 137.835 24.3051C137.766 24.1484 137.639 24.0246 137.48 23.96C137.041 23.7887 136.564 23.7403 136.1 23.82C136.192 23.3591 136.459 22.9518 136.845 22.6834C137.231 22.415 137.706 22.3063 138.17 22.38C138.496 23.7576 138.496 25.1924 138.17 26.57C137.37 26.57 136.85 26.38 136.62 25.89C136.62 25.89 136.9 25.7 137.36 25.42C137.588 25.2766 137.758 25.0569 137.84 24.8H137.85ZM138.64 30.8C138.527 30.8344 138.419 30.885 138.32 30.95C138.228 31.0141 138.127 31.0646 138.02 31.1C137.84 30.73 137.53 30.1 137.11 29.35C136.776 28.7761 136.473 28.1853 136.2 27.58C136.311 27.5388 136.418 27.4886 136.52 27.43C136.627 27.3602 136.746 27.3094 136.87 27.28C137.04 27.68 137.33 28.28 137.75 29.03C138.17 29.78 138.45 30.38 138.63 30.81L138.64 30.8ZM138.27 32.49C138.27 32.49 137.98 32.77 137.43 33.28C137.285 33.4359 137.11 33.5613 136.916 33.6489C136.722 33.7364 136.513 33.7844 136.3 33.79C136.732 33.1324 137.277 32.5568 137.91 32.09C137.99 32.09 138.06 32.16 138.12 32.28C138.18 32.4 138.21 32.48 138.26 32.5L138.27 32.49ZM139.04 30.74C139.077 30.7661 139.104 30.8041 139.117 30.8477C139.13 30.8913 139.127 30.938 139.11 30.98C139.087 31.0584 139.087 31.1416 139.11 31.22C141.41 35.5933 142.5 37.6566 142.38 37.41C143.03 37.63 143.28 38.03 143.15 38.6C143.08 38.7845 142.953 38.9419 142.787 39.0494C142.621 39.1568 142.426 39.2087 142.228 39.1976C142.031 39.1864 141.843 39.1128 141.69 38.9874C141.538 38.862 141.429 38.6913 141.38 38.5C141.358 38.4012 141.358 38.2988 141.38 38.2C141.394 38.1105 141.394 38.0194 141.38 37.93C141.38 37.93 141.12 37.42 140.56 36.38L139.35 34C138.82 33 138.43 32.21 138.16 31.71C138.108 31.6542 138.043 31.6129 137.97 31.59C137.932 31.5829 137.897 31.5676 137.865 31.5452C137.834 31.5227 137.809 31.4936 137.79 31.46C137.935 31.2675 138.116 31.1056 138.324 30.9837C138.532 30.8618 138.761 30.7824 139 30.75L139.04 30.74ZM139.66 35.14C139.91 35.64 140.12 36.04 140.29 36.33C139.898 36.7836 139.65 37.3444 139.58 37.94C139.505 38.4884 139.599 39.0465 139.85 39.54C140.076 40.0378 140.454 40.451 140.93 40.72C141.459 41.0036 142.066 41.1088 142.66 41.02C143.246 40.9354 143.789 40.6654 144.21 40.2497C144.631 39.8341 144.908 39.2945 145 38.71C145.07 38.2954 145.04 37.8699 144.911 37.4696C144.782 37.0693 144.559 36.7058 144.26 36.41C143.934 36.089 143.536 35.8501 143.1 35.7127C142.664 35.5754 142.201 35.5436 141.75 35.62C141.71 35.52 141.6 35.31 141.42 34.99C141.289 34.7832 141.191 34.5571 141.13 34.32C141.683 34.1549 142.265 34.1088 142.837 34.1846C143.409 34.2604 143.959 34.4565 144.45 34.76C145.294 35.3012 145.905 36.14 146.16 37.11C146.441 38.0631 146.384 39.0837 146 40C145.814 40.4923 145.524 40.9386 145.15 41.308C144.775 41.6775 144.325 41.9613 143.83 42.14C143.195 42.4163 142.498 42.5229 141.81 42.4493C141.121 42.3757 140.463 42.1244 139.9 41.72C139.34 41.3602 138.881 40.8639 138.567 40.2779C138.252 39.6918 138.091 39.0352 138.1 38.37C138.091 37.7498 138.226 37.1361 138.495 36.5773C138.764 36.0184 139.16 35.5298 139.65 35.15L139.66 35.14ZM139 26.31C138.904 26.3428 138.81 26.3829 138.72 26.43C138.615 26.4842 138.499 26.5149 138.38 26.52C138.642 25.1524 138.642 23.7475 138.38 22.38C138.615 22.4186 138.832 22.5306 139 22.7C139.147 23.8989 139.147 25.1111 139 26.31ZM142.32 30.86C141.973 31.1813 141.523 31.3691 141.05 31.39C140.556 31.4456 140.074 31.5772 139.62 31.78C139.597 31.6977 139.559 31.6199 139.51 31.55C139.478 31.5131 139.453 31.4703 139.438 31.424C139.423 31.3776 139.416 31.3287 139.42 31.28C140.339 30.8724 141.353 30.727 142.35 30.86H142.32Z" fill="#DCFFF1"/>
<path d="M34 64V73.5H24.24V68L25.87 67.68V59.81L24.24 59.49V54H34L38.09 61.5L42.13 54H51.89V59.51L50.27 59.83V67.68L51.89 68V73.5H42.13V64L38.08 71L34 64Z" fill="#DCFFF1"/>
<path d="M64.33 73.73C62.9224 73.74 61.5187 73.5788 60.15 73.25C58.9094 72.9612 57.7482 72.4011 56.75 71.61C55.7656 70.8047 54.9874 69.7762 54.48 68.61C53.89 67.2447 53.6067 65.7667 53.65 64.28C53.6069 62.8257 53.8905 61.3802 54.48 60.05C54.9958 58.9308 55.7788 57.9555 56.76 57.21C57.7694 56.4495 58.9227 55.9018 60.15 55.6C62.8952 54.9198 65.7648 54.9198 68.51 55.6C69.7396 55.9039 70.8957 56.4514 71.91 57.21C72.8946 57.9572 73.6837 58.9316 74.21 60.05C74.7902 61.3926 75.0602 62.8487 75 64.31C75.012 65.3227 74.8842 66.3323 74.62 67.31C74.3904 68.1702 74.0295 68.9898 73.55 69.74C73.0995 70.4359 72.5388 71.054 71.89 71.57C70.5187 72.6406 68.8785 73.312 67.15 73.51C66.2157 73.6437 65.2737 73.7172 64.33 73.73ZM64.33 60.54C63.902 60.527 63.4752 60.5914 63.07 60.73C62.7561 60.8333 62.4667 61.0001 62.22 61.22C61.9989 61.4161 61.8188 61.654 61.69 61.92C61.5618 62.1757 61.4709 62.4485 61.42 62.73C61.3637 62.997 61.327 63.2677 61.31 63.54C61.31 63.81 61.31 64.04 61.31 64.25C61.31 64.46 61.31 64.67 61.31 64.94C61.3218 65.2216 61.3518 65.5022 61.4 65.78C61.4507 66.0784 61.5346 66.3702 61.65 66.65C61.7699 66.939 61.9467 67.2008 62.17 67.42C62.4027 67.6697 62.6855 67.8673 63 68C63.8407 68.2798 64.7493 68.2798 65.59 68C65.9157 67.8852 66.2126 67.701 66.46 67.46C66.6774 67.2436 66.8536 66.9894 66.98 66.71C67.1048 66.438 67.1988 66.1529 67.26 65.86C67.3124 65.586 67.3458 65.3086 67.36 65.03C67.36 64.76 67.36 64.52 67.36 64.33C67.36 64.14 67.36 63.89 67.36 63.62C67.3452 63.3447 67.3118 63.0707 67.26 62.8C67.2048 62.5241 67.1175 62.2556 67 62C66.8727 61.7328 66.6963 61.492 66.48 61.29C66.2262 61.0623 65.9308 60.8857 65.61 60.77C65.2 60.6192 64.7668 60.5413 64.33 60.54Z" fill="#DCFFF1"/>
<path d="M81.14 60.33C80.7458 60.3225 80.3533 60.3834 79.98 60.51C79.6732 60.6135 79.3834 60.7618 79.12 60.95C78.9151 61.1125 78.7392 61.3086 78.6 61.53C78.4926 61.7047 78.4339 61.9049 78.43 62.11H76.3V55.6H93.64V62.11H91.51C91.5008 61.9058 91.4425 61.7068 91.34 61.53C91.1999 61.3061 91.0203 61.1096 90.81 60.95C90.5514 60.7598 90.2646 60.6113 89.96 60.51C89.583 60.3842 89.1874 60.3233 88.79 60.33V68.13L90.32 68.43V73.5H79.62V68.43L81.14 68.13V60.33Z" fill="#DCFFF1"/>
<path d="M105.59 73.73C104.182 73.7394 102.779 73.5782 101.41 73.25C100.167 72.9583 99.0036 72.3986 98 71.61C97.0156 70.8047 96.2374 69.7762 95.73 68.61C95.14 67.2447 94.8567 65.7667 94.9 64.28C94.8569 62.8257 95.1405 61.3802 95.73 60.05C96.2471 58.9428 97.0263 57.9783 98 57.24C99.0117 56.4833 100.164 55.9359 101.39 55.63C104.135 54.9498 107.005 54.9498 109.75 55.63C110.98 55.9339 112.136 56.4814 113.15 57.24C114.135 57.9873 114.924 58.9617 115.45 60.08C116.043 61.4094 116.33 62.8549 116.29 64.31C116.297 65.3224 116.169 66.3312 115.91 67.31C115.672 68.169 115.308 68.988 114.83 69.74C114.379 70.4359 113.819 71.054 113.17 71.57C112.511 72.1051 111.781 72.546 111 72.88C110.18 73.2246 109.314 73.4502 108.43 73.55C107.488 73.6717 106.54 73.7318 105.59 73.73ZM105.59 60.54C105.162 60.5271 104.735 60.5914 104.33 60.73C104.017 60.8356 103.728 61.0021 103.48 61.22C103.259 61.4161 103.079 61.654 102.95 61.92C102.822 62.1758 102.731 62.4485 102.68 62.73C102.622 62.9964 102.589 63.2675 102.58 63.54C102.58 63.81 102.58 64.04 102.58 64.25C102.58 64.46 102.58 64.67 102.58 64.94C102.592 65.2217 102.622 65.5023 102.67 65.78C102.721 66.0784 102.805 66.3702 102.92 66.65C103.04 66.939 103.217 67.2009 103.44 67.42C103.683 67.666 103.977 67.857 104.3 67.98C104.716 68.1307 105.157 68.2019 105.6 68.19C106.039 68.2021 106.477 68.1309 106.89 67.98C107.216 67.8653 107.513 67.681 107.76 67.44C107.977 67.2236 108.154 66.9695 108.28 66.69C108.405 66.4181 108.499 66.1329 108.56 65.84C108.612 65.566 108.646 65.2887 108.66 65.01C108.66 64.74 108.66 64.5 108.66 64.31C108.66 64.12 108.66 63.87 108.66 63.6C108.645 63.3247 108.612 63.0508 108.56 62.78C108.5 62.4964 108.406 62.2211 108.28 61.96C108.153 61.6928 107.976 61.452 107.76 61.25C107.506 61.0223 107.211 60.8458 106.89 60.73C106.471 60.5905 106.031 60.5261 105.59 60.54Z" fill="#DCFFF1"/>
<path d="M138 73.5H130.4C130.17 73.06 129.92 72.59 129.67 72.09C129.42 71.59 129.17 71.09 128.93 70.54C128.69 69.99 128.47 69.43 128.26 68.86C128.051 68.2778 127.877 67.6834 127.74 67.08H127.32V73.5H118.14V68.43L119.67 68.13V60.9L118.14 60.61V55.61H128.55C129.746 55.6004 130.941 55.6605 132.13 55.79C132.995 55.8802 133.849 56.0544 134.68 56.31C135.289 56.4958 135.863 56.7796 136.38 57.15C136.784 57.4461 137.124 57.8201 137.38 58.25C137.621 58.6678 137.787 59.1248 137.87 59.6C137.952 60.1193 137.992 60.6443 137.99 61.17C137.997 61.6812 137.943 62.1915 137.83 62.69C137.731 63.1437 137.541 63.5725 137.27 63.95C136.961 64.3453 136.585 64.6837 136.16 64.95C135.598 65.3177 134.994 65.6165 134.36 65.84C134.54 66.2439 134.755 66.6319 135 67C135.3 67.42 135.63 67.85 136 68.28L137.06 69.55L137.97 70.55L138 73.5ZM127.32 63.64C127.741 63.6388 128.162 63.6154 128.58 63.57C128.931 63.5378 129.272 63.4322 129.58 63.26C129.847 63.0957 130.06 62.8555 130.19 62.57C130.353 62.1813 130.429 61.7612 130.41 61.34C130.43 60.9219 130.355 60.5048 130.19 60.12C130.06 59.8291 129.848 59.5824 129.58 59.41C129.273 59.2343 128.932 59.1253 128.58 59.09C128.162 59.0359 127.741 59.0092 127.32 59.01V63.64Z" fill="#DCFFF1"/>
<path d="M147.21 64.31C147.156 64.8431 147.218 65.3815 147.39 65.8887C147.563 66.3959 147.842 66.8602 148.21 67.25C149.033 67.9122 150.076 68.2406 151.13 68.17C152.013 68.1576 152.894 68.0639 153.76 67.89C154.908 67.6695 156.043 67.3858 157.16 67.04V72.57C154.784 73.3158 152.31 73.7067 149.82 73.73C148.45 73.7374 147.084 73.5625 145.76 73.21C144.554 72.902 143.435 72.3205 142.49 71.5107C141.545 70.7009 140.799 69.6844 140.31 68.54C139.755 67.2005 139.486 65.7597 139.52 64.31C139.484 62.8951 139.733 61.4874 140.25 60.17C140.704 59.0663 141.413 58.0861 142.32 57.31C143.262 56.5348 144.36 55.972 145.54 55.66C146.908 55.2852 148.322 55.1034 149.74 55.12C150.589 55.1164 151.437 55.1631 152.28 55.26C152.97 55.338 153.655 55.4582 154.33 55.62C154.872 55.7437 155.407 55.9006 155.93 56.09C156.39 56.27 156.8 56.43 157.16 56.6V62.12H153.56C153.206 61.6127 152.745 61.1894 152.21 60.88C151.741 60.6219 151.215 60.4845 150.68 60.48C150.237 60.4823 149.799 60.5706 149.39 60.74C148.971 60.9091 148.59 61.1607 148.27 61.48C147.932 61.8252 147.663 62.2327 147.48 62.68C147.283 63.2 147.191 63.7541 147.21 64.31Z" fill="#DCFFF1"/>
<path d="M164.16 73.5V68.5L165.69 68.12L160.44 60.94L158.51 60.66V55.66H168.71V60.66L167.52 60.94L170 64.56L172.41 60.89L171.22 60.61V55.61H181.41V60.61L179.49 60.89L174.24 68.07L175.78 68.45V73.45L164.16 73.5Z" fill="#DCFFF1"/>
<path d="M189.79 64.31C189.738 64.8429 189.801 65.3808 189.973 65.8877C190.146 66.3947 190.424 66.8591 190.79 67.25C191.616 67.9138 192.662 68.2422 193.72 68.17C194.6 68.1575 195.477 68.0638 196.34 67.89C197.489 67.6718 198.624 67.388 199.74 67.04V72.57C197.367 73.3151 194.897 73.706 192.41 73.73C191.036 73.7374 189.668 73.5626 188.34 73.21C187.14 72.8951 186.025 72.3141 185.08 71.51C184.131 70.6918 183.385 69.6649 182.9 68.51C182.341 67.1712 182.069 65.7303 182.1 64.28C182.07 62.8655 182.318 61.4588 182.83 60.14C183.284 59.0363 183.993 58.0561 184.9 57.28C185.846 56.5045 186.947 55.9418 188.13 55.63C189.495 55.255 190.905 55.0733 192.32 55.09C193.172 55.0867 194.023 55.1334 194.87 55.23C195.543 55.3094 196.211 55.4297 196.87 55.59C197.413 55.7122 197.947 55.8692 198.47 56.06C198.94 56.24 199.34 56.4 199.7 56.57V62.09H196.1C195.752 61.5812 195.294 61.1573 194.76 60.85C194.287 60.5919 193.758 60.4545 193.22 60.45C192.777 60.4523 192.339 60.5406 191.93 60.71C191.512 60.8814 191.132 61.1328 190.81 61.45C190.475 61.7978 190.207 62.2046 190.02 62.65C189.832 63.1822 189.754 63.7468 189.79 64.31Z" fill="#DCFFF1"/>
<path d="M211.28 68.62C211.619 68.6201 211.956 68.5696 212.28 68.47C212.593 68.3764 212.895 68.2489 213.18 68.09C213.443 67.9364 213.694 67.7626 213.93 67.57C214.141 67.392 214.338 67.1981 214.52 66.99H216.64V73.5H202.12V68.43L203.65 68.13V60.9L202.12 60.61V55.61H212.82V60.61L211.28 60.9V68.62Z" fill="#DCFFF1"/>
<path d="M227.54 63.47L231.06 62.72V66.34L227.54 65.58V68.39C228.032 68.3896 228.523 68.3528 229.01 68.28C229.458 68.2175 229.899 68.1171 230.33 67.98C230.714 67.8628 231.089 67.7157 231.45 67.54C231.762 67.3883 232.057 67.2039 232.33 66.99H234.07V73.5H218.36V68.43L219.89 68.13V60.93L218.36 60.64V55.64H234.07V62.15H232.33C232.054 61.9464 231.759 61.769 231.45 61.62C231.089 61.4409 230.715 61.2904 230.33 61.17C229.899 61.0329 229.458 60.9325 229.01 60.87C228.524 60.7887 228.032 60.7486 227.54 60.75V63.47Z" fill="#DCFFF1"/>
<path d="M187.77 36H158.63C158.232 36 157.851 35.842 157.569 35.5607C157.288 35.2794 157.13 34.8978 157.13 34.5C157.13 34.1022 157.288 33.7206 157.569 33.4393C157.851 33.158 158.232 33 158.63 33H187.77C188.168 33 188.549 33.158 188.831 33.4393C189.112 33.7206 189.27 34.1022 189.27 34.5C189.27 34.8978 189.112 35.2794 188.831 35.5607C188.549 35.842 188.168 36 187.77 36Z" fill="#DCFFF1"/>
<path d="M95 36H65.84C65.4421 36 65.0606 35.842 64.7793 35.5607C64.498 35.2794 64.34 34.8978 64.34 34.5C64.34 34.1022 64.498 33.7206 64.7793 33.4393C65.0606 33.158 65.4421 33 65.84 33H95C95.3978 33 95.7793 33.158 96.0606 33.4393C96.3419 33.7206 96.5 34.1022 96.5 34.5C96.5 34.8978 96.3419 35.2794 96.0606 35.5607C95.7793 35.842 95.3978 36 95 36Z" fill="#DCFFF1"/>
<path d="M133.88 103.66C133.683 103.66 133.488 103.622 133.306 103.546C133.124 103.471 132.959 103.36 132.82 103.22L119.57 90C119.43 89.8614 119.318 89.6964 119.242 89.5144C119.166 89.3325 119.127 89.1372 119.127 88.94C119.127 88.7428 119.166 88.5476 119.242 88.3656C119.318 88.1837 119.43 88.0186 119.57 87.88C119.853 87.6015 120.233 87.4454 120.63 87.4454C121.027 87.4454 121.407 87.6015 121.69 87.88L134.94 101.13C135.218 101.413 135.375 101.793 135.375 102.19C135.375 102.587 135.218 102.968 134.94 103.25C134.652 103.518 134.273 103.665 133.88 103.66Z" fill="#DCFFF1"/>
<path d="M120.63 103.66C120.233 103.659 119.852 103.5 119.57 103.22C119.43 103.081 119.318 102.916 119.242 102.734C119.166 102.552 119.127 102.357 119.127 102.16C119.127 101.963 119.166 101.768 119.242 101.586C119.318 101.404 119.43 101.239 119.57 101.1L132.82 87.85C133.105 87.5689 133.49 87.4125 133.891 87.4153C134.291 87.4181 134.674 87.5799 134.955 87.865C135.236 88.1501 135.392 88.5352 135.39 88.9356C135.387 89.336 135.225 89.7189 134.94 90L121.69 103.25C121.404 103.519 121.023 103.667 120.63 103.66Z" fill="#DCFFF1"/>
<path d="M106.45 92.18L109.45 91.88V96.22L109.95 96.32V97.88H106.45V96.32L106.95 96.22V93.88H106.45V92.18Z" fill="#DCFFF1"/>
<path d="M113.11 96.46C113.209 96.4774 113.311 96.4774 113.41 96.46C113.498 96.4313 113.575 96.3752 113.63 96.3C113.698 96.2025 113.748 96.0943 113.78 95.98C113.818 95.809 113.841 95.635 113.85 95.46C113.685 95.494 113.518 95.5141 113.35 95.52H112.84C112.589 95.5224 112.338 95.5023 112.09 95.46C111.891 95.4238 111.694 95.377 111.5 95.32C111.347 95.2687 111.196 95.2086 111.05 95.14C110.953 95.0879 110.862 95.0241 110.78 94.95C110.642 94.8276 110.527 94.6821 110.44 94.52C110.353 94.3288 110.312 94.1199 110.32 93.91C110.298 93.6029 110.355 93.2951 110.486 93.0166C110.618 92.7381 110.819 92.4981 111.07 92.32C111.757 91.9308 112.543 91.7533 113.33 91.81C113.783 91.8019 114.235 91.8626 114.67 91.99C115.031 92.0948 115.36 92.289 115.625 92.5548C115.891 92.8205 116.085 93.1491 116.19 93.51C116.322 93.958 116.386 94.4231 116.38 94.89C116.388 95.3644 116.321 95.837 116.18 96.29C116.067 96.666 115.864 97.009 115.59 97.29C115.302 97.551 114.961 97.7456 114.59 97.86C114.128 97.9878 113.65 98.0484 113.17 98.04C112.835 98.0474 112.5 98.024 112.17 97.97C111.9 97.97 111.66 97.86 111.45 97.8L111.13 97.68C111.028 97.6489 110.931 97.6052 110.84 97.55V95.91H112.01C112.144 96.085 112.315 96.2284 112.51 96.33C112.696 96.423 112.902 96.4677 113.11 96.46ZM113.19 94.39C113.416 94.3988 113.641 94.3753 113.86 94.32C113.85 94.1385 113.827 93.958 113.79 93.78C113.767 93.6564 113.73 93.5357 113.68 93.42C113.639 93.3355 113.572 93.2657 113.49 93.22C113.41 93.1782 113.32 93.1575 113.23 93.16H112.93C112.85 93.1749 112.774 93.2092 112.71 93.26C112.652 93.3222 112.611 93.3978 112.59 93.48C112.572 93.6094 112.572 93.7406 112.59 93.87C112.572 93.9557 112.572 94.0443 112.59 94.13C112.619 94.1909 112.664 94.2428 112.72 94.28C112.781 94.3168 112.849 94.3407 112.92 94.35L113.19 94.39Z" fill="#DCFFF1"/>
<path d="M138.08 95.87L138.45 95.75L138.97 95.58C139.157 95.5133 139.347 95.4333 139.54 95.34C139.727 95.2586 139.904 95.1581 140.07 95.04C140.222 94.931 140.357 94.7995 140.47 94.65C140.57 94.5137 140.622 94.3488 140.62 94.18C140.623 94.08 140.602 93.9807 140.56 93.89C140.531 93.8124 140.483 93.7435 140.42 93.69C140.357 93.6384 140.286 93.5979 140.21 93.57C140.105 93.5311 139.992 93.5199 139.882 93.5374C139.772 93.5549 139.668 93.6006 139.58 93.67C139.439 93.776 139.329 93.9175 139.26 94.08H138.08V92.28L138.44 92.11C138.593 92.0476 138.75 91.9942 138.91 91.95C139.11 91.8956 139.314 91.8555 139.52 91.83C139.773 91.8134 140.027 91.8134 140.28 91.83C140.667 91.8242 141.054 91.8679 141.43 91.96C141.751 92.0403 142.055 92.1756 142.33 92.36C142.574 92.5296 142.773 92.7561 142.91 93.02C143.054 93.2977 143.126 93.6071 143.12 93.92C143.124 94.1342 143.09 94.3476 143.02 94.55C142.958 94.7316 142.871 94.9033 142.76 95.06C142.659 95.2089 142.537 95.3435 142.4 95.46C142.273 95.5751 142.135 95.6788 141.99 95.77C141.642 95.9878 141.26 96.1466 140.86 96.24H143.08V97.92H138.08V95.87Z" fill="#DCFFF1"/>
<path d="M143.83 92.18L146.83 91.88V96.22L147.33 96.32V97.88H143.83V96.32L144.33 96.22V93.88H143.83V92.18Z" fill="#DCFFF1"/>
<path d="M85.71 93.88L89.33 93.97L86.44 96.15L87.47 99.62L84.5 97.54L81.52 99.6L82.58 96.14L79.7 93.93L83.33 93.87L84.53 90.45L85.71 93.88Z" fill="#3A9B73"/>
<path d="M85.31 93.48L88.93 93.57L86.03 95.75L87.07 99.22L84.1 97.14L81.12 99.2L82.18 95.73L79.3 93.53L82.93 93.47L84.13 90.05L85.31 93.48Z" fill="#DCFFF1"/>
<path d="M170.68 93.88L174.31 93.97L171.41 96.15L172.45 99.62L169.48 97.54L166.5 99.6L167.56 96.14L164.68 93.93L168.3 93.87L169.5 90.45L170.68 93.88Z" fill="#3A9B73"/>
<path d="M170.28 93.48L173.9 93.57L171.01 95.75L172.04 99.22L169.08 97.14L166.09 99.2L167.16 95.73L164.28 93.53L167.9 93.47L169.1 90.05L170.28 93.48Z" fill="#DCFFF1"/>
</g>
<defs>
<clipPath id="clip0_0_8158">
<rect width="253.61" height="128.1" fill="white"/>
</clipPath>
</defs>
</svg>
