<svg width="183" height="228" viewBox="0 0 183 228" fill="none" xmlns="http://www.w3.org/2000/svg">
<g clip-path="url(#clip0_0_8636)">
<path d="M91.05 227.04C141.336 227.04 182.1 176.215 182.1 113.52C182.1 50.8246 141.336 0 91.05 0C40.7645 0 0 50.8246 0 113.52C0 176.215 40.7645 227.04 91.05 227.04Z" fill="#B32D38"/>
<path d="M91.05 222.75C138.961 222.75 177.8 173.846 177.8 113.52C177.8 53.1939 138.961 4.28998 91.05 4.28998C43.1393 4.28998 4.3 53.1939 4.3 113.52C4.3 173.846 43.1393 222.75 91.05 222.75Z" fill="#FDEABF"/>
<path d="M104.41 50.84C103.64 52.09 102.41 52.49 100.62 52.05C100.53 52.37 100.62 52.58 100.89 52.67C101.153 52.7274 101.421 52.7575 101.69 52.76C100.737 54.671 100.235 56.7747 100.22 58.91C100.23 61.0003 99.7248 63.0609 98.75 64.91C98.75 65.09 98.93 65.21 99.19 65.27H99.86C98.8521 67.8253 98.2645 70.5269 98.12 73.27C98.0428 75.8258 97.5147 78.3479 96.56 80.72C96.56 80.9 96.72 81 96.96 81.03H97.32C97.4398 81.0408 97.5602 81.0408 97.68 81.03C96.9755 82.0838 96.3472 83.1866 95.8 84.33C95.86 84.33 99.6367 84.85 107.13 85.89C111.65 86.51 114.623 87.8433 116.05 89.89C114.47 92.15 111.47 93.6666 107.05 94.44C105.32 94.73 101.2 95.05 94.69 95.37C78.49 96.23 67.95 94.52 63.07 90.24C64.5567 88.1 67.4267 86.69 71.68 86.01C72.8067 85.83 74.65 85.62 77.21 85.38C79.62 85.15 81.4 84.92 82.56 84.71C82.56 84.71 82.32 82.77 81.85 78.96C81.6767 76.89 81.1631 74.8628 80.33 72.96C80.87 71.68 80.7833 69.4933 80.07 66.4C79.29 63.0666 79.02 60.8366 79.26 59.71C78.9977 59.4653 78.7169 59.2413 78.42 59.04C78.03 58.77 77.75 58.57 77.57 58.42C77.279 58.0994 77.0763 57.7088 76.9816 57.2863C76.887 56.8639 76.9036 56.4241 77.03 56.01C75.6367 56.7833 75.04 58.78 75.24 62C73.7467 60.9266 73.05 59.2 73.15 56.82C73.1269 55.8723 73.4266 54.9449 74 54.19C74.3381 53.815 74.7625 53.528 75.2364 53.3538C75.7103 53.1796 76.2195 53.1233 76.72 53.19C76.0282 53.0299 75.3067 53.0527 74.6264 53.2561C73.946 53.4595 73.3304 53.8365 72.84 54.35C71.6828 55.3758 70.9663 56.8087 70.84 58.35C70.189 57.1027 69.9409 55.6842 70.13 54.29C70.2946 52.9744 70.8364 51.7345 71.69 50.72C72.4684 49.7137 73.5706 49.0072 74.81 48.72C76.2236 48.4611 77.6831 48.7316 78.91 49.48C79.09 47.904 79.6464 46.3945 80.5323 45.0787C81.4181 43.763 82.6075 42.6796 84 41.92C87.0333 40.26 90.4667 40.0833 94.3 41.39C92.22 39.39 89.22 38.75 85.3 39.47C81.53 40.18 79.03 41.69 77.81 43.97C77.7392 42.7132 77.9193 41.4549 78.34 40.2686C78.7606 39.0822 79.4133 37.9914 80.26 37.06C81.971 35.0306 84.1898 33.4915 86.69 32.6C89.0334 31.6634 91.6261 31.554 94.04 32.29C95.307 32.7019 96.46 33.4049 97.4064 34.3427C98.3528 35.2804 99.0664 36.4268 99.49 37.69C101.52 35.5673 104.254 34.2558 107.18 34C109.69 33.8502 112.162 34.6659 114.09 36.28C116.188 37.964 117.688 40.2779 118.37 42.88C119.231 45.8895 119.186 49.086 118.24 52.07C117.189 49.2538 115.545 46.6962 113.42 44.57C111.04 42.4633 107.873 41.5266 103.92 41.76C106.069 41.4733 108.246 42.0247 110 43.3C111.476 44.4852 112.494 46.1467 112.88 48C113.297 49.9485 113.239 51.9688 112.71 53.89C112.226 55.8165 111.223 57.5734 109.81 58.97C109.857 56.5136 109.54 54.0637 108.87 51.7C108.549 50.7427 108.042 49.8585 107.378 49.0981C106.714 48.3378 105.905 47.7165 105 47.27C105.233 48.4923 105.024 49.7578 104.41 50.84ZM88.41 52.31C89.0148 52.6257 89.5486 53.0618 89.9785 53.5914C90.4085 54.1211 90.7255 54.7332 90.91 55.39C91.3818 56.7839 91.475 58.2782 91.18 59.72C90.953 61.1447 90.2476 62.4496 89.18 63.42C89.4467 59.9666 88.4667 57.5133 86.24 56.06C86.3471 56.4851 86.3326 56.9317 86.1982 57.3489C86.0639 57.7662 85.815 58.1373 85.48 58.42C84.8524 58.8403 84.3566 59.4297 84.05 60.12C84.1984 60.1513 84.3516 60.1513 84.5 60.12C84.6493 60.099 84.8007 60.099 84.95 60.12C85.27 60.12 85.47 60.23 85.53 60.43C85.4043 60.5866 85.2708 60.7368 85.13 60.88C84.95 61.09 84.81 61.24 84.72 61.33C84.448 61.7163 84.3368 62.1932 84.41 62.66H85.3C85.63 62.66 85.82 62.81 85.88 63.02C85.2694 63.6614 84.7723 64.4019 84.41 65.21C84.5593 65.2309 84.7107 65.2309 84.86 65.21H85.3C85.63 65.21 85.82 65.36 85.88 65.57C85.6106 65.8424 85.445 66.2007 85.4121 66.5824C85.3793 66.9642 85.4811 67.3455 85.7 67.66C85.9171 68.0161 86.0175 68.4312 85.987 68.8472C85.9565 69.2632 85.7967 69.6593 85.53 69.98H85.84C85.959 69.9582 86.081 69.9582 86.2 69.98C86.46 69.98 86.6 70.11 86.6 70.29C86.5782 70.7222 86.4047 71.133 86.11 71.45C85.8298 71.7247 85.6294 72.0703 85.53 72.45C85.6733 72.4889 85.8216 72.5058 85.97 72.5H86.42C86.74 72.5 86.94 72.65 87 72.86C86.605 73.2682 86.3676 73.8032 86.33 74.37C86.33 74.91 86.67 75.25 87.33 75.37C87.21 75.6366 87.03 76.0066 86.79 76.48C86.52 76.96 86.33 77.33 86.21 77.6H87.1C87.46 77.6 87.65 77.75 87.68 77.95C87.24 79.62 87 80.35 86.97 80.14C87.68 80.26 88.04 80.39 88.04 80.54C87.59 82.21 87.35 82.93 87.33 82.73C88.07 82.64 88.41 82.79 88.33 83.17C88.12 84.04 88.02 84.5 88.02 84.55H90.61C90.6174 83.9194 90.4013 83.3065 90 82.82C89.5661 82.3314 89.2845 81.7266 89.19 81.08H91C90.9406 80.4617 90.7084 79.8726 90.33 79.38C89.9693 78.8991 89.6983 78.3571 89.53 77.78H91.4C91.3142 77.265 91.0816 76.7858 90.73 76.4C90.5505 76.1839 90.4186 75.9324 90.3427 75.6618C90.2669 75.3913 90.249 75.1079 90.29 74.83H91.76C91.6457 74.2553 91.4505 73.6998 91.18 73.18C90.8849 72.6753 90.704 72.1121 90.65 71.53C90.7752 71.6396 90.9273 71.7141 91.0907 71.7457C91.2541 71.7773 91.4229 71.765 91.58 71.71C91.9351 71.6259 92.2497 71.4208 92.47 71.13C91.88 70.84 91.39 69.99 91 68.59H92.88C92.7 68.12 92.46 67.59 92.16 66.9C91.72 66 91.46 65.45 91.4 65.25H93.23C93.1647 64.7309 92.9647 64.2379 92.65 63.82C92.3666 63.3753 92.1856 62.8732 92.12 62.35H93.59C93.5234 61.7533 93.3399 61.1757 93.05 60.65C92.7914 60.128 92.6063 59.5727 92.5 59H94C94.0213 58.4382 93.8789 57.8823 93.59 57.4C93.315 56.9825 93.0933 56.5324 92.93 56.06H94.75C94.5902 55.4918 94.3182 54.9613 93.95 54.5C93.576 53.9898 93.3448 53.3892 93.28 52.76H95.11C94.99 52.64 94.56 52.28 93.82 51.69C93.3174 51.3007 92.852 50.8655 92.43 50.39C92.2036 50.1536 92.0262 49.8747 91.9081 49.5694C91.79 49.2641 91.7335 48.9385 91.7419 48.6112C91.7503 48.284 91.8233 47.9617 91.9569 47.6628C92.0904 47.364 92.2818 47.0945 92.52 46.87C91.8427 46.847 91.1682 46.9659 90.5396 47.2191C89.911 47.4722 89.3423 47.854 88.87 48.34C90.5988 49.5747 91.7816 51.4314 92.17 53.52C91.75 52.42 90.3067 51.69 87.84 51.33C85.4 51.01 84.02 51.33 83.69 52.4C84.4198 52.0384 85.2206 51.8429 86.0349 51.8273C86.8492 51.8117 87.6569 51.9766 88.4 52.31H88.41Z" fill="#B32D38"/>
<path d="M58.2 112.56C57.51 112.56 56.9 112.67 56.07 112.67C55.9362 112.672 55.8083 112.725 55.7118 112.818C55.6154 112.911 55.5576 113.036 55.55 113.17V124C55.55 124.51 55.6 125 55.6 125.57C55.6 126.87 55.15 127.5 53.76 127.5C51.76 127.5 51.89 126.15 51.89 124.63C51.89 123.48 51.96 123.5 51.96 122.36V112.74C51.9589 112.674 51.9442 112.61 51.9171 112.55C51.8899 112.49 51.8507 112.436 51.8019 112.392C51.7532 112.348 51.6959 112.315 51.6336 112.294C51.5714 112.273 51.5055 112.264 51.44 112.27C50.81 112.27 51.02 112.34 50.44 112.34C49.65 112.34 47.25 112.34 47.25 111.13C47.25 109.92 48.25 109.74 49.2 109.74C51.07 109.74 52.1 109.67 53.96 109.67C55.18 109.67 60.21 109.4 60.21 111.31C60.16 112.16 59 112.56 58.2 112.56Z" fill="#B32D38"/>
<path d="M70.08 112.27C72.62 114.58 73.34 119.19 74.46 122.27C74.5647 122.542 74.6254 122.829 74.64 123.12C74.6319 123.341 74.578 123.558 74.4817 123.758C74.3855 123.957 74.2489 124.134 74.0807 124.278C73.9124 124.422 73.7162 124.529 73.5044 124.593C73.2925 124.657 73.0697 124.676 72.85 124.65C70.94 124.65 71 123.26 70.67 121.84C70.58 121.48 70.49 121.12 70.38 120.84C70.38 120.68 70.31 120.54 70.11 120.54H67.25C67.12 120.54 67.01 120.54 66.89 120.54C66.77 120.54 66.67 120.63 66.62 120.79C66.53 121.2 66.44 121.58 66.35 121.98C66.06 123.31 66.49 124.98 64.35 124.98C63.56 124.98 62.6 124.64 62.6 123.7C62.7617 121.524 63.2331 119.383 64 117.34C64.34 116.2 64.7 115.03 65 113.89C65.22 113.12 65.27 111.89 66 111.44C66.3824 111.198 66.8273 111.073 67.28 111.08C68.3255 111.129 69.3188 111.552 70.08 112.27ZM68.08 115.57C68.01 115.77 67.47 117.57 67.47 117.68C67.4699 117.729 67.4799 117.778 67.4992 117.823C67.5185 117.868 67.5468 117.908 67.5824 117.942C67.618 117.976 67.6601 118.002 67.7061 118.019C67.7521 118.035 67.8011 118.043 67.85 118.04H69C69.0463 118.043 69.0927 118.036 69.1363 118.02C69.1798 118.004 69.2197 117.98 69.2535 117.948C69.2872 117.916 69.314 117.878 69.3323 117.835C69.3507 117.792 69.3601 117.746 69.36 117.7C69.1288 116.947 68.8275 116.217 68.46 115.52C68.46 115.46 68.37 115.35 68.28 115.35C68.19 115.35 68.13 115.48 68.11 115.57H68.08Z" fill="#B32D38"/>
<path d="M81.6 124.64C81.6 126.42 78.17 126.94 77.99 125.05C77.83 123.34 77.72 118.38 77.72 117.05C77.72 115.57 77.72 114.05 77.72 112.56C77.72 111.07 78.08 110.05 79.72 110.05C80.61 110.05 81.51 110.45 81.51 111.48C81.51 112.36 81.38 113.24 81.38 114.13C81.38 114.25 81.38 114.4 81.56 114.4C82.01 114.4 85.67 110.4 87.69 110.4C88.43 110.4 89.49 110.99 89.49 111.82C89.4764 111.99 89.4197 112.153 89.3252 112.295C89.2307 112.437 89.1016 112.552 88.95 112.63C88.43 112.96 85.4 115.21 85.4 115.68C85.4175 115.807 85.4733 115.926 85.56 116.02C86.48 117.66 88.25 120.94 89.69 123.72C90.9 126.06 87.11 127.29 85.98 124.72C85.0556 122.35 83.9593 120.05 82.7 117.84C82.48 117.53 81.6 118.43 81.6 118.84C81.58 121 81.6 122.56 81.6 124.64Z" fill="#B32D38"/>
<path d="M93.37 124.58C93.31 123.7 93.28 122.82 93.28 121.93C93.28 119.75 93.46 117.55 93.58 115.37C93.64 113.89 93.64 112.63 93.78 111.15C93.85 110.29 94.7 110.04 95.44 110.04H99.64C100.54 110.04 102.02 109.84 102.02 111.28C102.02 112.47 100.94 112.56 100.11 112.56C99.28 112.56 98.49 112.45 97.69 112.45C97.39 112.45 97.19 112.58 97.17 112.9C97.1 114 96.99 115.39 96.99 116.47C96.99 116.65 97.08 116.81 97.28 116.81C97.66 116.81 98.11 116.56 98.56 116.56C99.19 116.56 100.18 117.01 100.18 117.73C100.18 118.73 97.84 119.41 97.06 119.73C96.83 119.82 96.79 119.91 96.79 120.16C96.79 120.99 96.79 121.8 96.79 122.63C96.79 123.46 96.79 123.41 97.73 123.41H100.2C101.01 123.41 101.7 123.53 101.7 124.63C101.7 125.73 101.03 125.86 100.2 125.86H95.64C94.74 125.81 93.49 125.72 93.37 124.58Z" fill="#B32D38"/>
<path d="M127.27 111.53C127.27 114.13 127.27 116.76 127.33 119.37C127.321 120 127.368 120.629 127.47 121.25C127.56 121.66 127.87 122.04 127.87 122.44C127.87 123.34 126.68 123.88 125.87 123.88C123.58 123.88 123.8 121.3 123.73 119.7C123.73 118.58 123.73 117.43 123.64 116.31C123.64 116.24 123.64 116.06 123.53 116.06C123.24 116.06 121.85 119.16 119.78 119.16C118.05 119.16 116.01 115.73 115.4 115.73C115.09 115.73 115.02 116.9 115 117.14C114.738 119.464 114.601 121.801 114.59 124.14C114.59 125.37 114.08 125.98 112.8 125.98C112.547 126.016 112.289 125.992 112.047 125.91C111.805 125.828 111.585 125.691 111.406 125.509C111.226 125.328 111.091 125.107 111.012 124.864C110.933 124.621 110.912 124.363 110.95 124.11C110.95 122.27 111.52 113.11 112.59 112.11C112.933 111.811 113.375 111.651 113.83 111.66C115.42 111.66 117.63 113.35 118.68 114.49C118.95 114.78 119.29 115.37 119.68 115.37C120.68 115.37 122.96 109.8 125.48 109.8C125.719 109.76 125.963 109.777 126.194 109.849C126.425 109.921 126.636 110.046 126.81 110.215C126.984 110.383 127.116 110.589 127.196 110.818C127.276 111.046 127.301 111.29 127.27 111.53Z" fill="#B32D38"/>
<path d="M139.48 124.49C138.72 125.9 135.93 126.06 134.48 126.06H133.48C131.25 126.06 131.41 123.16 131.3 121.61C131.23 120.71 131.21 119.81 131.21 118.92C131.22 116.579 131.377 114.241 131.68 111.92C131.714 111.54 131.86 111.179 132.101 110.883C132.341 110.587 132.665 110.37 133.03 110.26C133.453 110.142 133.891 110.088 134.33 110.1C134.74 110.1 135.16 110.1 135.59 110.1C136.49 110.1 137.39 110.1 138.35 110.1C139.05 110.1 139.92 110.39 139.92 111.25C139.92 112.77 136.67 112.53 135.63 112.59C135.494 112.597 135.364 112.651 135.262 112.742C135.16 112.832 135.093 112.955 135.07 113.09C134.98 113.63 134.85 115.29 134.85 115.85C134.846 115.914 134.855 115.979 134.877 116.039C134.899 116.1 134.933 116.155 134.977 116.202C135.021 116.249 135.074 116.286 135.133 116.312C135.192 116.337 135.256 116.35 135.32 116.35H136.49C136.94 116.35 137.39 116.35 137.86 116.35C138.6 116.35 139.52 116.69 139.52 117.59C139.52 118.82 137.84 118.91 136.96 118.91H136.13C135.68 118.91 134.76 118.73 134.76 119.43C134.771 120.516 134.838 121.601 134.96 122.68V122.82C134.96 123.11 134.89 123.49 135.3 123.49C136.2 123.49 136.94 122.73 137.84 122.73C138.51 122.73 139.59 123.13 139.59 123.94C139.607 124.13 139.568 124.321 139.48 124.49Z" fill="#B32D38"/>
<path d="M64.2 139.51C63.5 139.51 62.9 139.62 62.07 139.62C61.9362 139.622 61.8083 139.675 61.7118 139.768C61.6154 139.861 61.5576 139.986 61.55 140.12V150.9C61.55 151.42 61.55 151.9 61.55 152.47C61.55 153.77 61.1 154.4 59.71 154.4C57.71 154.4 57.85 153.06 57.85 151.53C57.85 150.38 57.92 150.4 57.92 149.26V139.65C57.9202 139.583 57.9066 139.518 57.88 139.457C57.8535 139.396 57.8145 139.341 57.7656 139.296C57.7167 139.25 57.6589 139.216 57.596 139.194C57.5331 139.173 57.4663 139.164 57.4 139.17C56.77 139.17 56.97 139.24 56.34 139.24C55.56 139.24 53.15 139.24 53.15 138.03C53.15 136.82 54.21 136.64 55.15 136.64C57.01 136.64 58.05 136.57 59.91 136.57C61.12 136.57 66.15 136.3 66.15 138.21C66.15 139.11 65 139.51 64.2 139.51Z" fill="#B32D38"/>
<path d="M74.17 138.07C75.1663 138.105 76.1542 138.267 77.11 138.55C78.4476 138.844 79.6392 139.6 80.4764 140.684C81.3136 141.768 81.7431 143.111 81.69 144.48C81.69 148.29 78.84 151.84 74.87 151.84C70.9 151.84 68.62 148.63 68.62 144.9C68.62 141.62 70.49 138.07 74.17 138.07ZM76.26 141.07C75.8194 140.919 75.3555 140.848 74.89 140.86C74.6 140.86 74.33 140.77 74.04 140.77C73.9002 140.765 73.7627 140.807 73.65 140.89C72.53 141.7 72.19 143.58 72.19 144.89C72.184 145.386 72.2242 145.881 72.31 146.37C72.53 147.52 73.56 149.47 74.91 149.47C75.2693 149.465 75.6185 149.35 75.91 149.14C76.6392 148.614 77.2277 147.916 77.6236 147.109C78.0195 146.301 78.2106 145.409 78.18 144.51C78.2614 143.798 78.1205 143.079 77.7768 142.45C77.433 141.822 76.9032 141.315 76.26 141V141.07Z" fill="#B32D38"/>
<path d="M100.79 139.51C100.09 139.51 99.48 139.62 98.65 139.62C98.5172 139.622 98.3904 139.676 98.2956 139.769C98.2007 139.862 98.1451 139.987 98.14 140.12V150.9C98.14 151.42 98.14 151.9 98.14 152.47C98.14 153.77 97.69 154.4 96.3 154.4C94.3 154.4 94.43 153.06 94.43 151.53C94.43 150.38 94.5 150.4 94.5 149.26V139.65C94.5018 139.583 94.4893 139.516 94.4632 139.455C94.4372 139.393 94.3982 139.337 94.349 139.292C94.2997 139.246 94.2413 139.212 94.1777 139.191C94.114 139.17 94.0466 139.163 93.98 139.17C93.36 139.17 93.56 139.24 92.98 139.24C92.19 139.24 89.79 139.24 89.79 138.03C89.79 136.82 90.85 136.64 91.79 136.64C93.66 136.64 94.69 136.57 96.56 136.57C97.77 136.57 102.8 136.3 102.8 138.21C102.74 139.11 101.55 139.51 100.79 139.51Z" fill="#B32D38"/>
<path d="M109.25 150.94C109.06 151.276 108.781 151.555 108.445 151.745C108.108 151.935 107.726 152.03 107.34 152.02C107.113 152.053 106.881 152.035 106.662 151.967C106.442 151.9 106.24 151.784 106.071 151.629C105.902 151.474 105.769 151.284 105.682 151.071C105.596 150.858 105.557 150.629 105.57 150.4C105.57 150.07 105.57 149.73 105.57 149.4V142.75C105.57 141.88 105.51 140.98 105.51 140.1C105.51 139.65 105.51 139.2 105.57 138.78C105.68 137.92 106.57 137.61 107.28 137.61C108.49 137.61 109.14 138.1 109.14 139.34C109.14 139.74 109.14 140.13 109.14 140.51V144.08C109.138 144.147 109.151 144.214 109.177 144.277C109.203 144.339 109.242 144.395 109.291 144.441C109.34 144.487 109.398 144.523 109.462 144.545C109.525 144.567 109.593 144.576 109.66 144.57C110.536 144.585 111.412 144.535 112.28 144.42C112.404 144.403 112.516 144.34 112.596 144.243C112.676 144.147 112.716 144.025 112.71 143.9C112.712 142.594 112.639 141.288 112.49 139.99C112.396 139.554 112.326 139.113 112.28 138.67C112.28 137.72 113.28 137.39 114.08 137.39C114.41 137.365 114.74 137.435 115.031 137.593C115.322 137.751 115.561 137.99 115.72 138.28C116.005 139.196 116.14 140.151 116.12 141.11C116.21 142.11 116.24 143.11 116.26 144.11C116.33 146.38 116.35 148.65 116.35 150.92C116.35 152.22 115.92 152.92 114.53 152.92C113.29 152.92 112.73 152.33 112.73 151.1C112.73 150.65 112.8 150.18 112.8 149.7V147.4C112.796 147.336 112.78 147.273 112.751 147.216C112.723 147.158 112.683 147.107 112.635 147.065C112.586 147.023 112.53 146.992 112.469 146.972C112.408 146.952 112.344 146.945 112.28 146.95C112.06 146.95 111.79 146.95 111.56 147.01C111.03 147.06 110.46 147.08 109.93 147.08H109.54C109.41 147.08 109.14 147.15 109.14 147.33V148.86C109.14 149.26 109.41 149.57 109.41 150.18C109.437 150.444 109.381 150.71 109.25 150.94Z" fill="#B32D38"/>
<path d="M127.49 152.94C125.721 153.657 123.846 154.076 121.94 154.18C119.49 154.18 119.74 152.81 119.74 150.88C119.74 146.99 120.37 143.11 120.48 139.22C120.456 138.827 120.585 138.44 120.84 138.14C121.617 137.528 122.593 137.225 123.58 137.29C124.23 137.29 124.86 137.13 125.49 137.13H125.62C125.921 137.004 126.244 136.943 126.57 136.95C127.29 136.95 128.34 137.4 128.34 138.25C128.34 139.56 125.56 139.85 124.61 139.85C124.37 139.85 124.1 139.71 124.1 140.1C124.1 140.49 124.1 140.7 124.1 141.02C124.1 141.69 124.03 142.36 123.96 143.02C123.96 143.49 123.83 144.02 123.83 144.46C123.83 144.61 123.83 144.77 124.03 144.77C124.37 144.77 124.75 144.54 125.15 144.54C125.85 144.54 126.93 145.02 126.93 145.85C126.93 146.95 124.93 147.69 124.05 147.91C123.905 147.942 123.774 148.017 123.674 148.126C123.573 148.236 123.509 148.373 123.49 148.52C123.42 149.26 123.42 150.03 123.42 150.77C123.416 150.827 123.423 150.884 123.442 150.938C123.461 150.991 123.49 151.041 123.528 151.083C123.567 151.125 123.613 151.159 123.665 151.182C123.717 151.206 123.773 151.219 123.83 151.22C124.77 151.22 125.49 150.43 126.41 150.43C127.15 150.43 128.27 150.79 128.27 151.69C128.25 151.946 128.168 152.193 128.032 152.41C127.897 152.628 127.711 152.809 127.49 152.94Z" fill="#B32D38"/>
<path d="M64.74 171.27C64.74 171.34 64.65 171.38 64.65 171.45C64.65 171.52 64.78 171.65 64.92 171.7C65.26 171.83 65.59 171.9 65.92 172.06C66.5819 172.272 67.1709 172.666 67.62 173.196C68.069 173.726 68.3601 174.372 68.46 175.06C68.4705 175.173 68.4705 175.287 68.46 175.4C68.46 178.55 65.12 180.93 62.13 181.74C61.5256 181.939 60.8959 182.05 60.26 182.07C59.7458 182.089 59.2408 181.93 58.83 181.62C58.26 181.2 57.83 181.02 57.83 180.25C57.83 180.03 57.83 179.8 57.83 179.6V166.35C57.83 165.54 57.71 164.82 58.7 164.46C59.9798 163.972 61.3312 163.699 62.7 163.65C64.7 163.65 66.79 164.53 66.79 166.65C66.87 168.37 65.79 169.94 64.74 171.27ZM62 179.36C63.35 178.7 65 176.97 65 175.47C65 173.97 63.87 173.54 62.48 173.54C62.23 173.54 61.99 173.54 61.74 173.54C61.49 173.54 61.45 173.83 61.45 174.03C61.45 174.23 61.45 174.48 61.45 174.71V179.11C61.45 179.182 61.4784 179.25 61.5291 179.301C61.5797 179.352 61.6484 179.38 61.72 179.38C61.8137 179.394 61.9092 179.387 62 179.36ZM61.85 170.06C62.7241 169.138 63.2691 167.954 63.4 166.69C63.4 166.31 63.31 165.81 62.81 165.81C62.31 165.81 61.53 165.88 61.53 166.44V169.94C61.53 170.01 61.53 170.17 61.67 170.17C61.81 170.17 61.75 170.08 61.8 170.06H61.85Z" fill="#B32D38"/>
<path d="M80.12 178.39C79.36 179.8 76.57 179.96 75.12 179.96H74.12C71.9 179.96 72.05 177.06 71.94 175.51C71.87 174.62 71.85 173.72 71.85 172.82C71.8598 170.479 72.0168 168.141 72.32 165.82C72.3517 165.438 72.4974 165.075 72.7381 164.777C72.9788 164.479 73.3035 164.261 73.67 164.15C74.103 164.032 74.5516 163.981 75 164H76.26C77.16 164 78.06 164 79.02 164C79.72 164 80.6 164.3 80.6 165.15C80.6 166.68 77.34 166.43 76.31 166.5C76.1723 166.501 76.0393 166.55 75.9349 166.64C75.8305 166.73 75.7614 166.854 75.74 166.99C75.65 167.53 75.52 169.19 75.52 169.75C75.5159 169.814 75.525 169.879 75.5468 169.939C75.5686 170 75.6025 170.055 75.6466 170.102C75.6906 170.149 75.7439 170.186 75.8029 170.212C75.862 170.237 75.9257 170.25 75.99 170.25H77.16C77.61 170.25 78.06 170.25 78.53 170.25C79.27 170.25 80.19 170.59 80.19 171.49C80.19 172.72 78.51 172.81 77.63 172.81H76.8C76.35 172.81 75.43 172.63 75.43 173.33C75.4412 174.419 75.508 175.507 75.63 176.59V176.72C75.63 177.01 75.56 177.4 75.97 177.4C76.87 177.4 77.61 176.63 78.51 176.63C79.18 176.63 80.26 177.04 80.26 177.85C80.2655 178.04 80.2169 178.227 80.12 178.39Z" fill="#B32D38"/>
<path d="M94 169.2C94.47 172.01 94.74 174.86 95.35 177.65C95.5742 178.299 95.7317 178.969 95.82 179.65C95.82 180.65 94.82 181.02 93.96 181.02C90.96 181.02 92.47 177.14 90.96 177.14H88.72C87.58 177.14 87.72 180.26 85.49 180.26C84.73 180.26 83.63 179.86 83.63 178.94C83.63 178.02 84.63 177.07 84.63 176.15C84.63 175.7 84.56 175.57 84.87 175.15C85.2892 174.501 85.581 173.778 85.73 173.02C86.36 171.02 88.15 164.93 90.15 164.21C90.4201 164.095 90.7072 164.024 91 164C93.17 164 93.71 167.59 94 169.2ZM89.55 172.91C89.393 173.301 89.2724 173.706 89.19 174.12C89.1898 174.173 89.2006 174.225 89.2215 174.273C89.2425 174.321 89.2732 174.364 89.3117 174.4C89.3502 174.436 89.3957 174.463 89.4454 174.48C89.495 174.497 89.5476 174.504 89.6 174.5H90.6C90.6555 174.501 90.7108 174.491 90.7623 174.471C90.8139 174.45 90.8608 174.419 90.9 174.38C90.9393 174.341 90.9702 174.294 90.9908 174.242C91.0114 174.191 91.0214 174.136 91.02 174.08C90.8914 172.88 90.6978 171.689 90.44 170.51C90.0709 171.283 89.7665 172.086 89.53 172.91H89.55Z" fill="#B32D38"/>
<path d="M104.85 178.84C100.92 178.84 98.85 174.95 98.85 171.43C98.85 167.91 100.96 164.55 104.85 164.55C105.93 164.55 108.56 164.98 108.56 166.33C108.56 167.14 108.11 167.86 107.43 167.86C106.51 167.86 105.84 167.11 104.92 167.11C103.01 167.11 102.54 170.19 102.54 171.63C102.54 173.07 102.94 175.22 104.36 176.08C104.568 176.208 104.806 176.277 105.05 176.28C106.13 176.28 107.14 175.2 108.24 175.2C109.05 175.2 109.36 176.14 109.36 177.06C109.36 178.43 106 178.84 104.85 178.84Z" fill="#B32D38"/>
<path d="M119.85 170.77C120.41 170.77 120.41 170.77 120.41 170.21C120.41 169.11 120.41 167.99 120.41 166.89C120.41 166.53 120.41 166.15 120.41 165.79C120.41 164.79 121.41 164.49 122.27 164.49C123.53 164.49 124.02 165.05 124.02 166.28C124.02 167.51 124.02 168.53 124.02 169.65C124.02 171.74 124.15 173.85 124.15 175.94C124.15 177.56 124.47 179.49 122.22 179.49C121.777 179.523 121.338 179.382 120.998 179.096C120.658 178.81 120.443 178.402 120.4 177.96C120.4 177.72 120.49 177.47 120.49 177.22V173.81C120.482 173.673 120.422 173.544 120.321 173.451C120.22 173.358 120.087 173.307 119.95 173.31L117.23 173.45C116.43 173.45 116.43 173.54 116.4 174.32C116.4 175.32 116.4 176.39 116.4 177.42C116.4 178.21 116.47 179.02 116.47 179.8C116.47 180.86 115.57 181.31 114.62 181.31C112.49 181.31 112.81 179.53 112.81 177.96C112.81 174.5 113.01 171.07 113.01 167.61C113.01 165.97 112.72 164.22 115.01 164.22C115.86 164.22 116.67 164.62 116.67 165.59C116.67 167.2 116.53 168.8 116.53 170.42C116.524 170.487 116.532 170.554 116.555 170.617C116.578 170.68 116.615 170.737 116.663 170.784C116.711 170.831 116.769 170.867 116.832 170.889C116.896 170.91 116.963 170.918 117.03 170.91C117.94 170.91 118.89 170.82 119.85 170.77Z" fill="#B32D38"/>
</g>
<defs>
<clipPath id="clip0_0_8636">
<rect width="182.1" height="227.05" fill="white"/>
</clipPath>
</defs>
</svg>
