<svg width="268" height="162" viewBox="0 0 268 162" fill="none" xmlns="http://www.w3.org/2000/svg">
<g clip-path="url(#clip0_0_8659)">
<path d="M133.91 161.8C98.98 161.8 66.01 153.89 41.07 139.52C14.59 124.27 0 103.45 0 80.9C0 58.35 14.59 37.53 41.07 22.28C66 7.91 99 0 133.91 0C168.82 0 201.8 7.91 226.74 22.28C253.23 37.53 267.82 58.35 267.82 80.9C267.82 103.45 253.23 124.27 226.74 139.52C201.8 153.89 168.83 161.8 133.91 161.8Z" fill="#37669D"/>
<path d="M133.91 158.83C99.49 158.83 67.05 151.06 42.55 136.95C17 122.25 3 102.34 3 80.9C3 59.46 17 39.55 42.55 24.85C67.05 10.74 99.49 3 133.91 3C168.33 3 200.77 10.77 225.26 24.88C250.79 39.58 264.85 59.49 264.85 80.93C264.85 102.37 250.79 122.28 225.26 136.93C200.77 151.06 168.32 158.83 133.91 158.83Z" fill="#F6D4E1"/>
<path d="M222.81 30.28C200.15 43.48 168.68 51.66 133.91 51.66C99.14 51.66 67.66 43.48 45 30.28C67.66 17.07 99.13 8.89001 133.91 8.89001C168.69 8.89001 200.15 17.07 222.81 30.28Z" fill="#37669D"/>
<path d="M222.81 131.52C200.15 118.32 168.68 110.14 133.91 110.14C99.14 110.14 67.66 118.32 45 131.52C67.66 144.72 99.13 152.9 133.91 152.9C168.69 152.9 200.15 144.72 222.81 131.52Z" fill="#37669D"/>
<path d="M118 76C117.982 76.5723 117.932 77.1432 117.85 77.71C117.71 78.82 117.61 79.55 117.57 79.9C117.336 81.3397 117.484 82.8156 118 84.18C116.52 83.98 114.52 82.7033 112 80.35C112.599 79.2429 113.569 78.3824 114.74 77.92C115.903 77.4187 116.998 76.7737 118 76ZM119.37 88.8C121.039 91.0672 122.925 93.167 125 95.07C123.778 95.1752 122.57 95.3962 121.39 95.73C120.268 96.0884 119.071 96.1436 117.92 95.89C117.699 94.6956 117.814 93.4635 118.25 92.33C118.94 90.26 119.29 89.09 119.33 88.8H119.37ZM126.18 66.18C122.91 68.64 120.92 70.63 120.18 72.18C119.709 71.2161 119.411 70.177 119.3 69.11C119.175 68.0201 118.92 66.9491 118.54 65.92C119.02 64.75 120.15 64.41 121.91 64.92L126.18 66.18ZM133 68.37C134.702 68.1739 136.427 68.3397 138.061 68.8567C139.694 69.3737 141.2 70.2302 142.48 71.37C143.837 72.4484 144.938 73.8157 145.7 75.3725C146.463 76.9293 146.87 78.6365 146.89 80.37C146.99 84.59 145.58 87.8933 142.66 90.28C140.004 92.4574 136.6 93.5059 133.18 93.2C131.487 93.1798 129.815 92.8147 128.268 92.127C126.721 91.4392 125.33 90.4433 124.18 89.2C121.647 86.4 120.767 82.7333 121.54 78.2C121.938 75.6733 123.204 73.3642 125.12 71.67C127.327 69.7576 130.089 68.6013 133 68.37ZM125.91 75.46C124.605 77.3475 124.062 79.6588 124.39 81.93C124.716 84.0556 125.719 86.0194 127.25 87.53C128.716 89.069 130.65 90.0813 132.75 90.41C135.046 90.732 137.378 90.1553 139.26 88.8C135.26 88.68 132.11 87.4033 129.81 84.97C127.542 82.4382 126.341 79.1271 126.46 75.73C126.35 75.51 126.17 75.42 125.86 75.46H125.91ZM129.15 97C129.31 97 130.63 97.06 133.1 97.24C134.593 97.398 136.102 97.317 137.57 97C135.623 100.22 134.263 102.127 133.49 102.72C132.93 102.477 132.425 102.121 132.007 101.676C131.59 101.231 131.267 100.705 131.06 100.13C130.604 98.9866 129.958 97.9284 129.15 97ZM138.66 65.11C135.948 64.1012 132.981 64.0063 130.21 64.84C130.29 64.78 130.97 63.64 132.21 61.43C132.512 60.8189 132.957 60.2897 133.507 59.8875C134.057 59.4853 134.696 59.222 135.37 59.12C137.38 62.53 138.46 64.52 138.66 65.09V65.11ZM142 95.61C142.38 95.27 142.92 94.81 143.61 94.24C144.3 93.67 144.97 93.14 145.25 92.88C146.354 91.9693 147.283 90.8645 147.99 89.62C148.99 93.37 149.36 95.83 149.08 96.98C147.903 97.1044 146.714 96.9467 145.61 96.52C144.44 96.0986 143.23 95.7938 142 95.61ZM148.76 73C148.57 72.78 148.14 72.22 147.45 71.33C146.9 70.62 146.45 70.07 146.11 69.66C145.183 68.5614 144.048 67.6574 142.77 67L144.62 66.42C145.49 66.15 146.21 65.96 146.78 65.84C148.5 65.45 149.71 65.57 150.4 66.17C150.226 67.3283 149.952 68.4692 149.58 69.58C149.208 70.6941 148.934 71.8384 148.76 73ZM150.12 77.11C151.205 77.9374 152.379 78.6417 153.62 79.21C155.18 79.9967 155.92 80.8367 155.84 81.73C155.78 82.4833 154.97 83.1833 153.41 83.83C152.175 84.2889 150.983 84.8579 149.85 85.53C150.625 82.7838 150.717 79.8901 150.12 77.1V77.11Z" fill="#37669D"/>
<path d="M31.36 84.46H35.46C35.3672 84.2934 35.2636 84.1331 35.15 83.98H32.83C32.1141 82.9917 31.6818 81.8267 31.5795 80.6107C31.4773 79.3947 31.7091 78.1739 32.25 77.08C33.92 73.8 37.17 73.22 41.07 73.22H50.81V80.94H41.07C40.7909 80.9283 40.5127 80.9794 40.2559 81.0894C39.9991 81.1994 39.7702 81.3655 39.586 81.5756C39.4018 81.7857 39.2671 82.0343 39.1916 82.3033C39.1162 82.5723 39.102 82.8548 39.15 83.13C39.2352 83.5959 39.483 84.0164 39.8492 84.3168C40.2155 84.6171 40.6764 84.7777 41.15 84.77C41.5527 84.7822 41.9476 84.6567 42.2693 84.4142C42.591 84.1717 42.8204 83.8266 42.9194 83.4361C43.0185 83.0456 42.9814 82.6329 42.8143 82.2664C42.6471 81.8998 42.3598 81.6012 42 81.42H48.84C49.7616 82.365 50.3679 83.5723 50.5756 84.8758C50.7834 86.1794 50.5823 87.5153 50 88.7C48.29 91.95 45 92.43 41.12 92.43H31.36V84.46Z" fill="#37669D"/>
<path d="M71.66 73.25V83.06C71.66 89.66 66.66 92.97 61.71 92.97C56.76 92.97 51.71 89.66 51.71 83.06V73.25H60.19V82.72C60.1655 82.9315 60.1861 83.1458 60.2503 83.3489C60.3145 83.5519 60.4209 83.739 60.5626 83.898C60.7042 84.057 60.8779 84.1842 61.0722 84.2713C61.2665 84.3585 61.4771 84.4035 61.69 84.4035C61.9029 84.4035 62.1135 84.3585 62.3078 84.2713C62.5021 84.1842 62.6757 84.057 62.8174 83.898C62.959 83.739 63.0655 83.5519 63.1297 83.3489C63.1939 83.1458 63.2145 82.9315 63.19 82.72V73.25H71.66Z" fill="#37669D"/>
<path d="M72.55 92.43V82.58C72.55 75.85 77.55 72.58 82.43 72.58C87.31 72.58 92.3 75.86 92.3 82.58V92.43H83.9V82.58C83.9094 82.3792 83.8786 82.1786 83.8094 81.9899C83.7402 81.8012 83.6341 81.6281 83.4972 81.481C83.3603 81.3338 83.1953 81.2155 83.0121 81.1329C82.8288 81.0503 82.6309 81.0051 82.43 81C82.033 81.0258 81.6617 81.2052 81.3947 81.5001C81.1277 81.7951 80.9862 82.1824 81 82.58V92.43H72.55Z" fill="#37669D"/>
<path d="M177.06 84.46H181.16C181.06 84.29 180.95 84.12 180.85 83.98H178.53C177.814 82.9917 177.382 81.8267 177.28 80.6107C177.177 79.3947 177.409 78.1739 177.95 77.08C179.62 73.8 182.87 73.22 186.77 73.22H196.51V80.94H186.77C186.491 80.9283 186.213 80.9794 185.956 81.0894C185.699 81.1994 185.47 81.3655 185.286 81.5756C185.102 81.7857 184.967 82.0343 184.892 82.3033C184.816 82.5723 184.802 82.8548 184.85 83.13C184.935 83.5959 185.183 84.0164 185.549 84.3168C185.915 84.6171 186.376 84.7777 186.85 84.77C187.254 84.7847 187.65 84.6609 187.974 84.4192C188.297 84.1776 188.529 83.8325 188.629 83.4413C188.729 83.0501 188.693 82.6363 188.526 82.2686C188.359 81.9009 188.071 81.6015 187.71 81.42H194.54C195.469 82.3597 196.084 83.5648 196.299 84.8689C196.514 86.173 196.319 87.5117 195.74 88.7C194.03 91.95 190.74 92.43 186.85 92.43H177.08L177.06 84.46Z" fill="#37669D"/>
<path d="M217.36 73.25V83.06C217.36 89.66 212.36 92.97 207.36 92.97C202.36 92.97 197.36 89.66 197.36 83.06V73.25H205.84V82.72C205.816 82.9315 205.836 83.1458 205.9 83.3489C205.964 83.5519 206.071 83.739 206.213 83.898C206.354 84.057 206.528 84.1842 206.722 84.2713C206.917 84.3585 207.127 84.4035 207.34 84.4035C207.553 84.4035 207.763 84.3585 207.958 84.2713C208.152 84.1842 208.326 84.057 208.467 83.898C208.609 83.739 208.715 83.5519 208.78 83.3489C208.844 83.1458 208.864 82.9315 208.84 82.72V73.25H217.36Z" fill="#37669D"/>
<path d="M218.25 92.43V82.58C218.25 75.85 223.2 72.58 228.12 72.58C233.04 72.58 238 75.86 238 82.58V92.43H229.59V82.58C229.602 82.3776 229.573 82.1748 229.505 81.9838C229.438 81.7927 229.332 81.6173 229.195 81.4679C229.057 81.3186 228.892 81.1985 228.707 81.1146C228.522 81.0308 228.323 80.985 228.12 80.98C227.713 80.9982 227.33 81.1767 227.055 81.4766C226.779 81.7764 226.634 82.1732 226.65 82.58V92.43H218.25Z" fill="#37669D"/>
<path d="M100.57 24.39C102.158 24.3926 103.739 24.6078 105.27 25.03L105.4 27.03C103.859 26.4978 102.24 26.2242 100.61 26.22C98.55 26.22 97.69 26.63 97.69 27.38C97.69 29.62 105.91 27.75 105.91 32.28C105.91 34.4 104.16 35.58 100.91 35.58C99.0799 35.5844 97.271 35.1885 95.61 34.42L95.47 32.24C97.1549 33.1314 99.0244 33.6176 100.93 33.66C102.79 33.66 103.66 33.15 103.66 32.32C103.66 29.86 95.44 31.84 95.49 27.32C95.5 25.39 97.14 24.39 100.57 24.39Z" fill="#F6D4E1"/>
<path d="M107.45 24.65H109.73V30.94C109.73 32.62 111.01 33.7 113 33.7C114.99 33.7 116.22 32.62 116.22 30.94V24.65H118.5V30.79C118.5 33.79 116.39 35.58 112.99 35.58C109.59 35.58 107.45 33.8 107.45 31.07V24.65Z" fill="#F6D4E1"/>
<path d="M120.49 24.65H123.25L126.94 33L130.61 24.61H133.39V35.33H131.18V27.75L128 35.33H125.9L122.7 27.78V35.33H120.49V24.65Z" fill="#F6D4E1"/>
<path d="M135.39 24.65H138.15L141.84 33L145.51 24.61H148.29V35.33H146.08V27.75L142.88 35.33H140.8L137.59 27.78V35.33H135.39V24.65Z" fill="#F6D4E1"/>
<path d="M150.28 24.65H159.89V26.5H152.56V29H159.12V30.8H152.56V33.48H160V35.33H150.27L150.28 24.65Z" fill="#F6D4E1"/>
<path d="M161.65 24.65H168.65C171.16 24.65 172.56 25.99 172.56 27.88C172.56 29.77 171.29 30.83 169.17 30.93L172.71 35.33H169.92L166.68 31.13H163.91V35.33H161.64L161.65 24.65ZM168.28 29.28C169.7 29.28 170.28 28.86 170.28 27.9C170.28 26.94 169.65 26.5 168.17 26.5H163.91V29.28H168.28Z" fill="#F6D4E1"/>
<path d="M100.57 125.93C102.158 125.933 103.739 126.148 105.27 126.57L105.4 128.57C103.861 128.029 102.241 127.752 100.61 127.75C98.55 127.75 97.69 128.17 97.69 128.92C97.69 131.16 105.91 129.29 105.91 133.82C105.91 135.94 104.16 137.12 100.91 137.12C99.0786 137.126 97.2686 136.727 95.61 135.95L95.47 133.78C97.1549 134.671 99.0244 135.158 100.93 135.2C102.79 135.2 103.66 134.69 103.66 133.86C103.66 131.4 95.44 133.38 95.49 128.86C95.5 126.93 97.14 125.93 100.57 125.93Z" fill="#F6D4E1"/>
<path d="M107.45 126.19H109.73V132.48C109.73 134.16 111.01 135.24 113 135.24C114.99 135.24 116.22 134.16 116.22 132.48V126.19H118.5V132.32C118.5 135.32 116.39 137.12 112.99 137.12C109.59 137.12 107.45 135.34 107.45 132.61V126.19Z" fill="#F6D4E1"/>
<path d="M120.49 126.19H123.25L126.94 134.57L130.61 126.19H133.39V136.87H131.18V129.29L127.98 136.87H125.9L122.7 129.32V136.87H120.49V126.19Z" fill="#F6D4E1"/>
<path d="M135.39 126.19H138.15L141.84 134.57L145.51 126.19H148.29V136.87H146.08V129.29L142.88 136.87H140.8L137.59 129.32V136.87H135.39V126.19Z" fill="#F6D4E1"/>
<path d="M150.28 126.19H159.89V128H152.56V130.5H159.12V132.3H152.56V135H160V136.86H150.27L150.28 126.19Z" fill="#F6D4E1"/>
<path d="M161.65 126.19H168.65C171.16 126.19 172.56 127.53 172.56 129.42C172.56 131.31 171.29 132.42 169.17 132.47L172.71 136.87H169.92L166.68 132.67H163.91V136.87H161.64L161.65 126.19ZM168.28 130.81C169.7 130.81 170.28 130.4 170.28 129.43C170.28 128.46 169.65 128.04 168.17 128.04H163.91V130.81H168.28Z" fill="#F6D4E1"/>
</g>
<defs>
<clipPath id="clip0_0_8659">
<rect width="267.82" height="161.8" fill="white"/>
</clipPath>
</defs>
</svg>
