<svg width="128" height="126" viewBox="0 0 128 126" fill="none" xmlns="http://www.w3.org/2000/svg">
<g clip-path="url(#clip0_0_8808)">
<path d="M95.63 -2.95904e-06C99.756 -0.00721557 103.847 0.759366 107.69 2.26C111.581 3.77135 115.099 6.10835 118 9.11C121.153 12.4228 123.593 16.3469 125.17 20.64C127.065 25.9056 127.973 31.4752 127.85 37.07C127.908 43.7686 126.767 50.4236 124.48 56.72C122.244 62.7633 119.275 68.5095 115.64 73.83C111.965 79.1864 107.822 84.206 103.26 88.83C98.66 93.4967 93.9934 97.9567 89.26 102.21C84.5267 106.463 80 110.537 75.68 114.43C71.6422 117.972 67.8563 121.791 64.35 125.86H63.41C59.9149 121.801 56.1497 117.982 52.14 114.43C47.78 110.537 43.25 106.467 38.55 102.22C33.85 97.9733 29.1834 93.5133 24.55 88.84C19.9881 84.2185 15.8483 79.1985 12.18 73.84C8.55121 68.5169 5.59224 62.7669 3.37003 56.72C1.08313 50.4236 -0.0582078 43.7686 3.01339e-05 37.07C-0.120292 31.4746 0.791604 25.9049 2.69003 20.64C4.26346 16.3476 6.70031 12.4235 9.85003 9.11C12.7541 6.10716 16.2751 3.77008 20.17 2.26C24.0142 0.762097 28.1044 -0.00438701 32.23 -2.95904e-06C35.881 -0.0458967 39.5161 0.487391 43 1.58C46.0698 2.5697 48.9775 4.00502 51.63 5.84C54.1426 7.5932 56.4181 9.66367 58.4 12C60.259 14.1898 61.9315 16.5313 63.4 19H64.34C65.8159 16.5213 67.5093 14.1788 69.4 12C71.401 9.67117 73.6854 7.60178 76.2 5.84C78.855 4.00302 81.7663 2.56758 84.84 1.58C88.3299 0.483469 91.9723 -0.0498862 95.63 -2.95904e-06Z" fill="#F0372E"/>
<path d="M52.63 67.67C58.5119 67.67 63.28 59.7902 63.28 50.07C63.28 40.3498 58.5119 32.47 52.63 32.47C46.7482 32.47 41.98 40.3498 41.98 50.07C41.98 59.7902 46.7482 67.67 52.63 67.67Z" fill="#F1FFFF"/>
<path d="M56.33 60.28C60.1684 60.28 63.28 55.57 63.28 49.76C63.28 43.95 60.1684 39.24 56.33 39.24C52.4916 39.24 49.38 43.95 49.38 49.76C49.38 55.57 52.4916 60.28 56.33 60.28Z" fill="#2C191F"/>
<path d="M54.7301 46.51C56.0003 46.51 57.0301 45.4802 57.0301 44.21C57.0301 42.9397 56.0003 41.91 54.7301 41.91C53.4598 41.91 52.4301 42.9397 52.4301 44.21C52.4301 45.4802 53.4598 46.51 54.7301 46.51Z" fill="#F1FFFF"/>
<path d="M75.24 67.67C81.1219 67.67 85.89 59.7902 85.89 50.07C85.89 40.3498 81.1219 32.47 75.24 32.47C69.3582 32.47 64.59 40.3498 64.59 50.07C64.59 59.7902 69.3582 67.67 75.24 67.67Z" fill="#F1FFFF"/>
<path d="M78.93 60.28C82.7684 60.28 85.88 55.57 85.88 49.76C85.88 43.95 82.7684 39.24 78.93 39.24C75.0917 39.24 71.98 43.95 71.98 49.76C71.98 55.57 75.0917 60.28 78.93 60.28Z" fill="#2C191F"/>
<path d="M77.34 46.51C78.6103 46.51 79.64 45.4802 79.64 44.21C79.64 42.9397 78.6103 41.91 77.34 41.91C76.0698 41.91 75.04 42.9397 75.04 44.21C75.04 45.4802 76.0698 46.51 77.34 46.51Z" fill="#F1FFFF"/>
<path d="M95.83 80.85C99.8672 80.85 103.14 77.5772 103.14 73.54C103.14 69.5028 99.8672 66.23 95.83 66.23C91.7928 66.23 88.52 69.5028 88.52 73.54C88.52 77.5772 91.7928 80.85 95.83 80.85Z" fill="#FC8DEC"/>
<path d="M32.03 80.85C36.0672 80.85 39.34 77.5772 39.34 73.54C39.34 69.5028 36.0672 66.23 32.03 66.23C27.9928 66.23 24.72 69.5028 24.72 73.54C24.72 77.5772 27.9928 80.85 32.03 80.85Z" fill="#FC8DEC"/>
</g>
<defs>
<clipPath id="clip0_0_8808">
<rect width="127.86" height="125.86" fill="white"/>
</clipPath>
</defs>
</svg>
