<svg width="197" height="197" viewBox="0 0 197 197" fill="none" xmlns="http://www.w3.org/2000/svg">
<g clip-path="url(#clip0_0_198)">
<path d="M98.44 196.88C152.807 196.88 196.88 152.807 196.88 98.44C196.88 44.0731 152.807 0 98.44 0C44.0731 0 0 44.0731 0 98.44C0 152.807 44.0731 196.88 98.44 196.88Z" fill="#F8442E"/>
<path d="M136.37 77.91C136.375 77.8434 136.375 77.7766 136.37 77.71C136.375 77.6434 136.375 77.5766 136.37 77.51C136.375 77.4501 136.375 77.3899 136.37 77.33V77.27L136.3 77.11L136.21 76.95L136.08 76.8C136.035 76.7483 135.985 76.7014 135.93 76.66L114.93 60.66C114.745 60.5218 114.529 60.4305 114.301 60.3939C114.073 60.3573 113.839 60.3766 113.62 60.45L90.78 67.93L79.78 71.63L70 74.91C69.7943 74.9789 69.6071 75.0941 69.4529 75.2467C69.2986 75.3992 69.1813 75.5851 69.11 75.79L60.55 100.64C60.5241 100.705 60.504 100.772 60.49 100.84C60.4851 100.91 60.4851 100.98 60.49 101.05C60.4856 101.117 60.4856 101.183 60.49 101.25C60.4854 101.31 60.4854 101.37 60.49 101.43C60.49 101.43 60.49 101.51 60.49 101.54C60.4883 101.577 60.4883 101.613 60.49 101.65C60.49 101.65 60.49 101.65 60.49 101.73C60.5142 101.768 60.5409 101.805 60.57 101.84V101.9L60.67 102.01L60.74 102.07L60.85 102.16L113 136.42L113.12 136.49H113.18H113.27H113.39H113.97H114.09H114.18L114.27 136.44L114.36 136.37L114.45 136.28C114.479 136.251 114.503 136.217 114.52 136.18L114.58 136.03L135.78 78.43C135.811 78.3669 135.831 78.2994 135.84 78.23L136.37 77.91ZM90.37 71.06L96.37 88.56L75.42 95.27L81.42 74.08L90.37 71.06ZM103.11 66.78L120.47 80.78L99 87.7L93 70.16L103.11 66.78ZM100 90.37L121.63 83.43L113.4 129.6L100 90.37ZM110.66 130.37L76.07 98L97.25 91.2L110.66 130.37ZM73 99L100.7 124.89L65.15 101.54L73 99ZM124.65 82.42L132.65 79.85L118 119.72L124.65 82.42ZM113.7 63.22L132 77.13L123.72 79.78L106.32 65.71L113.7 63.22ZM71.57 77.37L78.14 75.17L72.14 96.31L64.14 98.89L71.57 77.37Z" fill="#FFDFD7"/>
<path d="M52.06 60.26C51.704 60.6897 51.2739 61.0521 50.79 61.33C50.3258 61.6059 49.7997 61.7607 49.26 61.78L48.94 60.54C49.3575 60.4847 49.7649 60.3703 50.15 60.2C50.478 60.0489 50.7683 59.8269 51 59.55C51.1536 59.3647 51.2814 59.1595 51.38 58.94C51.4676 58.7494 51.4988 58.5377 51.47 58.33C51.4257 58.1173 51.3091 57.9264 51.14 57.79C51.0453 57.7032 50.9325 57.6384 50.8097 57.6003C50.6869 57.5623 50.5573 57.5519 50.43 57.57C50.1648 57.6213 49.9108 57.7195 49.68 57.86C49.42 58.01 49.15 58.19 48.87 58.39C48.3788 58.7199 47.8102 58.9164 47.22 58.96C46.7044 58.9847 46.1992 58.8092 45.81 58.47C45.4872 58.2071 45.2418 57.8614 45.1 57.47C44.9444 57.0514 44.9098 56.5974 45 56.16C45.1127 55.6372 45.3571 55.1519 45.71 54.75C46.0237 54.3627 46.3946 54.0254 46.81 53.75C47.2071 53.4919 47.653 53.3183 48.12 53.24L48.52 54.5C48.189 54.5178 47.8669 54.6138 47.58 54.78C47.3175 54.9141 47.0833 55.0974 46.89 55.32C46.756 55.4914 46.6451 55.6797 46.56 55.88C46.4938 56.0622 46.4699 56.2571 46.49 56.45C46.5213 56.6334 46.6215 56.7979 46.77 56.91C46.8536 56.998 46.9575 57.064 47.0725 57.1024C47.1876 57.1408 47.3104 57.1502 47.43 57.13C47.694 57.0743 47.9472 56.9763 48.18 56.84L48.97 56.37C49.2759 56.1508 49.613 55.9789 49.97 55.86C50.2921 55.7539 50.632 55.7131 50.97 55.74C51.3408 55.7936 51.6881 55.9533 51.97 56.2C52.3233 56.495 52.5982 56.8729 52.77 57.3C52.9412 57.7467 52.9726 58.235 52.86 58.7C52.7169 59.2746 52.4431 59.8084 52.06 60.26Z" fill="white"/>
<path d="M55.28 56.27L45.28 45.27L46.59 44.09L52.46 50.59L52.22 50.37C52.0505 49.7819 52.0505 49.158 52.22 48.57C52.4274 47.9018 52.8191 47.3056 53.35 46.85C53.8332 46.3832 54.4782 46.1216 55.15 46.12C55.4742 46.1203 55.7946 46.1901 56.0895 46.3247C56.3845 46.4592 56.6472 46.6554 56.86 46.9L60.8 51.26L59.46 52.47L56 48.52C55.7386 48.2339 55.3843 48.0497 55 48C54.7963 47.9858 54.5919 48.017 54.4017 48.0913C54.2115 48.1657 54.0401 48.2814 53.9 48.43C53.5705 48.731 53.3403 49.1251 53.24 49.56C53.1405 50.0174 53.1611 50.4929 53.3 50.94C53.4635 51.4436 53.7368 51.9047 54.1 52.29L56.6 55.06L55.28 56.27Z" fill="white"/>
<path d="M56.77 40.86C56.6889 40.7512 56.634 40.625 56.6097 40.4915C56.5854 40.3579 56.5924 40.2205 56.63 40.09C56.6913 39.8237 56.8478 39.589 57.07 39.43C57.2933 39.2713 57.5685 39.2034 57.84 39.24C57.9744 39.2529 58.1042 39.2954 58.2201 39.3646C58.336 39.4338 58.435 39.5279 58.51 39.64C58.5915 39.7487 58.6474 39.8745 58.6733 40.0078C58.6993 40.1412 58.6948 40.2787 58.66 40.41C58.6001 40.6742 58.443 40.9062 58.22 41.06C57.9996 41.2172 57.7293 41.2883 57.46 41.26C57.3218 41.2516 57.1875 41.2111 57.0677 41.1417C56.9479 41.0722 56.846 40.9758 56.77 40.86ZM58.52 43.15L60 42.15L64.57 48.65L63.1 49.65L58.52 43.15Z" fill="white"/>
<path d="M64.45 39.28L65.45 40.93L65.25 40.69C65.1906 40.0507 65.3378 39.4093 65.67 38.86C66.0368 38.2551 66.5672 37.7663 67.2 37.45C67.7805 37.1043 68.4735 37.0002 69.13 37.16C69.442 37.244 69.7335 37.3911 69.9864 37.5924C70.2393 37.7937 70.4481 38.0447 70.6 38.33L73.37 43.52L71.77 44.37L69.29 39.73C69.115 39.39 68.8241 39.124 68.47 38.98C68.2754 38.9177 68.0693 38.8998 67.8668 38.9274C67.6644 38.9551 67.4707 39.0277 67.3 39.14C66.9086 39.3449 66.5906 39.6664 66.39 40.06C66.17 40.4744 66.0696 40.9418 66.1 41.41C66.1408 41.9441 66.2978 42.4628 66.56 42.93L68.32 46.22L66.72 47.07L62.97 40.07L64.45 39.28Z" fill="white"/>
<path d="M79.38 41.5C78.6134 41.7831 77.7864 41.8624 76.98 41.73C76.2665 41.603 75.602 41.2811 75.06 40.8C74.5015 40.284 74.0849 39.6332 73.85 38.91C73.5994 38.1962 73.5611 37.4251 73.74 36.69C73.9046 35.9515 74.2479 35.2647 74.74 34.69C75.2523 34.1018 75.9165 33.6659 76.66 33.43C77.5499 33.0785 78.5401 33.0785 79.43 33.43C80.3393 33.8334 81.0961 34.5165 81.59 35.38L76.11 39.67L75.37 38.81L79.81 35.21L79.55 35.58C79.2645 35.2276 78.8923 34.9554 78.47 34.79C77.9965 34.6102 77.4735 34.6102 77 34.79C76.5634 34.9241 76.1746 35.181 75.88 35.53C75.5993 35.8728 75.4131 36.283 75.34 36.72C75.2647 37.2041 75.3129 37.6994 75.48 38.16C75.6382 38.6351 75.9053 39.0666 76.26 39.42C76.5952 39.7408 77.015 39.9593 77.47 40.05C77.9437 40.1458 78.4345 40.1112 78.89 39.95C79.2182 39.842 79.521 39.6685 79.78 39.44C80.0531 39.2133 80.2982 38.9548 80.51 38.67L81.7 39.67C81.3925 40.0488 81.0361 40.3851 80.64 40.67C80.269 41.0147 79.8432 41.2952 79.38 41.5Z" fill="white"/>
<path d="M89 23.93L90.79 23.72L92.47 38.5L90.67 38.7L89 23.93Z" fill="white"/>
<path d="M94.77 27.46C94.7633 27.3243 94.7877 27.1888 94.8415 27.064C94.8952 26.9392 94.9768 26.8284 95.08 26.74C95.2723 26.5481 95.5287 26.4341 95.8 26.42C95.9352 26.4125 96.0705 26.4326 96.1977 26.479C96.3249 26.5254 96.4414 26.5972 96.54 26.69C96.6489 26.7697 96.738 26.8734 96.8004 26.993C96.8629 27.1127 96.8969 27.2451 96.9 27.38C96.9081 27.5178 96.8854 27.6558 96.8335 27.7838C96.7816 27.9118 96.7018 28.0266 96.6 28.12C96.4023 28.3043 96.1445 28.4109 95.8744 28.4201C95.6042 28.4293 95.3398 28.3404 95.13 28.17C95.019 28.0877 94.9287 27.9807 94.8662 27.8575C94.8037 27.7342 94.7708 27.5981 94.77 27.46ZM95 30.34L96.8 30.27L97.1 38.27L95.29 38.34L95 30.34Z" fill="white"/>
<path d="M99.81 38.1401L100.93 23.3101L102.73 23.4501L101.61 38.2801L99.81 38.1401ZM101.25 35.7101V33.9701L106.36 30.4801L107.36 31.4801L101.25 35.7101ZM103.94 33.1601L107.17 38.7001L105.08 38.5401L102.66 34.0801L103.94 33.1601Z" fill="white"/>
<path d="M112 39.94C111.203 39.797 110.456 39.4528 109.83 38.94C109.288 38.4577 108.89 37.8347 108.68 37.14C108.484 36.4062 108.484 35.6338 108.68 34.9C108.833 34.1452 109.201 33.4507 109.74 32.9C110.272 32.3675 110.929 31.9758 111.65 31.76C112.396 31.5262 113.191 31.5019 113.95 31.69C114.887 31.8681 115.723 32.393 116.29 33.16C116.853 33.9797 117.144 34.9559 117.12 35.95L110.2 36.75L110 35.62L115.67 34.88L115.25 35.06C115.198 34.6074 115.022 34.1782 114.74 33.82C114.427 33.4209 113.979 33.1505 113.48 33.06C113.042 32.9339 112.578 32.9339 112.14 33.06C111.72 33.205 111.344 33.4565 111.05 33.79C110.736 34.1684 110.519 34.6183 110.42 35.1C110.305 35.5866 110.305 36.0934 110.42 36.58C110.541 37.0271 110.783 37.4321 111.12 37.75C111.429 38.0247 111.793 38.2287 112.189 38.3478C112.584 38.467 113.001 38.4985 113.41 38.44C113.752 38.3807 114.087 38.2869 114.41 38.16L114.91 39.63C114.444 39.8075 113.956 39.9219 113.46 39.97C112.975 40.0403 112.482 40.0302 112 39.94Z" fill="white"/>
<path d="M125.85 45C125.225 44.6793 124.689 44.2086 124.29 43.63C123.898 43.0616 123.682 42.3903 123.67 41.7C123.695 40.9113 123.903 40.1392 124.278 39.4449C124.653 38.7506 125.184 38.1532 125.83 37.7C126.429 37.3205 127.121 37.113 127.83 37.1C128.549 37.0823 129.259 37.2547 129.89 37.6C130.488 37.8961 130.986 38.3623 131.32 38.94C131.606 39.4267 131.767 39.9762 131.79 40.54L131.55 40.74L132.49 39.35L133.95 40.12L130.22 47.12L128.64 46.28L129.64 44.45V44.96C129.469 45.0698 129.284 45.1572 129.09 45.22C128.801 45.3189 128.503 45.3893 128.2 45.43C127.839 45.485 127.471 45.485 127.11 45.43C126.667 45.364 126.241 45.2183 125.85 45ZM127 43.93C127.366 44.1329 127.772 44.2524 128.19 44.28C128.575 44.3017 128.959 44.2297 129.31 44.07C129.673 43.9028 129.994 43.6568 130.25 43.35L131 42C131.095 41.626 131.095 41.234 131 40.86C130.909 40.4957 130.742 40.1549 130.51 39.86C130.256 39.5445 129.94 39.2857 129.58 39.1C129.177 38.8743 128.719 38.7633 128.257 38.7792C127.796 38.7951 127.347 38.9371 126.96 39.19C126.548 39.4659 126.211 39.8396 125.979 40.2776C125.747 40.7156 125.627 41.2043 125.63 41.7C125.644 42.1573 125.771 42.604 126 43C126.244 43.3942 126.589 43.7154 127 43.93Z" fill="white"/>
<path d="M139.18 54.3401C138.663 53.8664 138.289 53.2577 138.1 52.5826C137.911 51.9076 137.915 51.1932 138.11 50.5201C138.321 49.766 138.72 49.0779 139.27 48.5201C139.808 47.9239 140.5 47.4879 141.27 47.2601C141.95 47.0702 142.67 47.0702 143.35 47.2601C144.053 47.4709 144.694 47.8483 145.22 48.3601C145.667 48.786 146.009 49.3097 146.22 49.8901C146.447 50.4367 146.516 51.036 146.42 51.6201L145.91 52.0101L151.91 45.6801L153.2 46.9201L143 57.6901L141.71 56.4501L143 55.0001L142.81 55.5101C142.176 55.5936 141.532 55.5425 140.92 55.3601C140.266 55.1657 139.669 54.8157 139.18 54.3401ZM140.63 53.6201C140.94 53.9275 141.316 54.16 141.73 54.3001C142.104 54.421 142.5 54.4586 142.89 54.4101C143.287 54.3623 143.667 54.2219 144 54.0001L145.05 52.9001C145.239 52.56 145.342 52.179 145.35 51.7901C145.371 51.3988 145.299 51.008 145.14 50.6501C144.975 50.2688 144.729 49.9278 144.42 49.6501C144.084 49.3299 143.67 49.1026 143.22 48.9904C142.769 48.8782 142.297 48.885 141.85 49.0101C141.372 49.1436 140.942 49.4107 140.61 49.7801C140.259 50.1326 140.013 50.5758 139.9 51.0601C139.78 51.519 139.78 52.0011 139.9 52.4601C140.029 52.9081 140.282 53.3103 140.63 53.6201Z" fill="white"/>
<path d="M150.83 54.8001L152 56.2001L145.82 61.2001L144.68 59.8001L150.83 54.8001ZM153 52.9001C153.104 52.8132 153.227 52.7509 153.358 52.718C153.49 52.6851 153.627 52.6824 153.76 52.7101C154.03 52.7474 154.277 52.8857 154.449 53.0972C154.622 53.3087 154.708 53.5777 154.69 53.8501C154.687 53.9854 154.655 54.1185 154.594 54.2396C154.534 54.3607 154.447 54.4668 154.34 54.5501C154.237 54.6393 154.115 54.7038 153.983 54.7385C153.852 54.7732 153.714 54.7771 153.58 54.7501C153.312 54.7108 153.069 54.5714 152.9 54.3601C152.731 54.1475 152.642 53.8818 152.65 53.6101C152.648 53.4725 152.679 53.3364 152.74 53.2129C152.8 53.0895 152.89 52.9823 153 52.9001Z" fill="white"/>
<path d="M149.09 66.19C148.708 65.5882 148.481 64.901 148.43 64.19C148.378 63.4947 148.531 62.7992 148.87 62.19C149.261 61.4988 149.831 60.9254 150.52 60.53C151.191 60.0873 151.967 59.8318 152.77 59.79C153.47 59.7708 154.162 59.9437 154.77 60.29C155.394 60.642 155.917 61.1481 156.29 61.76C156.633 62.2735 156.829 62.8709 156.857 63.4878C156.885 64.1046 156.745 64.7174 156.45 65.26H156.14L157.66 64.53L158.53 65.93L151.76 70.13L150.82 68.61L152.59 67.51L152.31 67.93C152.108 67.9612 151.902 67.9612 151.7 67.93C151.397 67.8784 151.102 67.7911 150.82 67.67C150.481 67.5346 150.164 67.3492 149.88 67.12C149.567 66.8555 149.3 66.5413 149.09 66.19ZM150.6 65.82C150.816 66.177 151.106 66.4838 151.45 66.72C151.772 66.9373 152.143 67.0713 152.53 67.11C152.923 67.1556 153.322 67.1182 153.7 67L155.02 66.18C155.288 65.8959 155.486 65.5537 155.6 65.18C155.707 64.8099 155.734 64.4214 155.68 64.04C155.625 63.6386 155.485 63.2534 155.27 62.91C155.025 62.5143 154.68 62.1901 154.27 61.97C153.87 61.7504 153.416 61.6465 152.96 61.67C152.455 61.6886 151.964 61.8441 151.54 62.12C151.128 62.3647 150.785 62.7085 150.54 63.12C150.314 63.5371 150.2 64.0058 150.21 64.48C150.213 64.9543 150.348 65.4183 150.6 65.82Z" fill="white"/>
<path d="M161.14 71.2L159.5 71.94L159.62 71.8C160.264 71.8703 160.876 72.1159 161.39 72.51C161.917 72.9236 162.31 73.4837 162.52 74.12C162.655 74.4948 162.716 74.8921 162.7 75.29C162.681 75.6412 162.582 75.9834 162.41 76.29C162.225 76.5932 161.963 76.8418 161.65 77.01L161.55 76.95C162.167 77.029 162.751 77.2759 163.238 77.6638C163.724 78.0518 164.095 78.5658 164.31 79.15C164.446 79.4659 164.516 79.8061 164.516 80.15C164.516 80.4939 164.446 80.8341 164.31 81.15C164.175 81.4382 163.985 81.697 163.749 81.9115C163.514 82.126 163.239 82.292 162.94 82.4L157.38 84.4L156.77 82.7L161.72 80.95C162.064 80.8266 162.365 80.6081 162.59 80.32C162.683 80.1722 162.739 80.004 162.753 79.8299C162.767 79.6557 162.739 79.4807 162.67 79.32C162.52 78.908 162.239 78.5567 161.87 78.32C161.481 78.0678 161.033 77.9197 160.57 77.89C160.073 77.852 159.573 77.9132 159.1 78.07L155.55 79.33L154.95 77.63L159.89 75.87C160.238 75.7502 160.542 75.5269 160.76 75.23C160.855 75.0696 160.91 74.8892 160.922 74.7033C160.934 74.5175 160.903 74.3314 160.83 74.16C160.68 73.748 160.399 73.3967 160.03 73.16C159.638 72.9124 159.192 72.7648 158.73 72.73C158.228 72.6878 157.723 72.7561 157.25 72.93L153.7 74L153.09 72.29L160.59 69.64L161.14 71.2Z" fill="white"/>
<path d="M161.58 85.58C162.321 85.468 163.078 85.5617 163.77 85.851C164.461 86.1402 165.06 86.6137 165.5 87.22C165.97 87.867 166.263 88.6252 166.35 89.42C166.475 90.2018 166.389 91.0029 166.1 91.74C165.829 92.4227 165.376 93.0178 164.79 93.46C164.183 93.9003 163.475 94.1821 162.731 94.2799C161.987 94.3777 161.231 94.2883 160.53 94.02C159.847 93.7495 159.252 93.2962 158.81 92.71C158.332 92.0701 158.035 91.3138 157.95 90.52C157.83 89.7363 157.909 88.935 158.18 88.19C158.432 87.5023 158.868 86.897 159.44 86.44C160.06 85.9611 160.801 85.6634 161.58 85.58ZM161.8 87.37C161.315 87.4281 160.853 87.6106 160.46 87.9C160.095 88.1568 159.799 88.5004 159.6 88.9C159.411 89.3195 159.345 89.7843 159.41 90.24C159.466 90.7059 159.653 91.1463 159.95 91.51C160.243 91.8608 160.622 92.1296 161.05 92.29C161.505 92.4513 161.991 92.5027 162.47 92.44C162.953 92.3827 163.414 92.2038 163.81 91.92C164.18 91.6657 164.479 91.3216 164.68 90.92C164.884 90.4976 164.954 90.0231 164.88 89.56C164.825 89.0979 164.634 88.6627 164.33 88.31C164.029 87.9567 163.644 87.6849 163.21 87.52C162.759 87.358 162.275 87.3066 161.8 87.37Z" fill="white"/>
<path d="M166.65 98.5701L164.71 98.6401H165.01C165.597 98.9001 166.082 99.3465 166.39 99.9101C166.72 100.524 166.878 101.214 166.85 101.91C166.848 102.585 166.586 103.233 166.12 103.72C165.894 103.95 165.623 104.129 165.323 104.246C165.023 104.364 164.702 104.416 164.38 104.4L158.5 104.21L158.56 102.4L163.83 102.57C164.213 102.588 164.589 102.467 164.89 102.23C165.041 102.093 165.159 101.924 165.235 101.735C165.311 101.547 165.344 101.343 165.33 101.14C165.347 100.698 165.228 100.262 164.99 99.8901C164.743 99.5014 164.398 99.1842 163.99 98.9701C163.511 98.7351 162.984 98.612 162.45 98.6101L158.72 98.4801L158.78 96.6801L166.73 96.9401L166.65 98.5701Z" fill="white"/>
<path d="M157.38 109.89C157.516 109.203 157.838 108.567 158.31 108.05C158.786 107.534 159.395 107.161 160.07 106.97C160.82 106.759 161.61 106.738 162.37 106.91C163.147 107.049 163.872 107.394 164.47 107.91C164.997 108.381 165.382 108.991 165.58 109.67C165.756 110.386 165.756 111.134 165.58 111.85C165.454 112.456 165.194 113.027 164.82 113.52C164.468 113.996 163.995 114.369 163.45 114.6L162.85 114.38L171.41 116.17L171.05 117.92L156.49 114.87L156.85 113.12L158.79 113.53L158.26 113.63C157.852 113.138 157.553 112.565 157.38 111.95C157.216 111.273 157.216 110.567 157.38 109.89ZM158.76 110.75C158.66 111.174 158.66 111.616 158.76 112.04C158.862 112.406 159.039 112.746 159.28 113.04C159.53 113.351 159.848 113.601 160.21 113.77L161.7 114.08C162.09 114.061 162.47 113.952 162.81 113.76C163.148 113.563 163.441 113.297 163.67 112.98C163.909 112.634 164.072 112.243 164.15 111.83C164.251 111.376 164.23 110.903 164.09 110.46C163.952 110.017 163.696 109.619 163.35 109.31C162.98 108.974 162.522 108.748 162.03 108.66C161.547 108.549 161.043 108.57 160.57 108.72C160.122 108.876 159.718 109.137 159.39 109.48C159.062 109.834 158.844 110.275 158.76 110.75Z" fill="white"/>
<path d="M159.56 126.79C159.79 127.151 159.928 127.563 159.96 127.99C159.992 128.429 159.902 128.869 159.7 129.26C159.511 129.666 159.213 130.012 158.84 130.26C158.475 130.489 158.06 130.623 157.63 130.65C157.188 130.678 156.746 130.589 156.35 130.39C155.959 130.198 155.63 129.9 155.4 129.53C155.164 129.168 155.026 128.751 155 128.32C154.981 127.872 155.081 127.427 155.29 127.03C155.474 126.648 155.762 126.326 156.12 126.1C156.479 125.866 156.892 125.728 157.32 125.7C157.756 125.671 158.191 125.761 158.58 125.96C158.973 126.147 159.311 126.433 159.56 126.79Z" fill="white"/>
<path d="M144.6 136.88C144.96 136.45 145.393 136.088 145.88 135.81C146.345 135.539 146.872 135.391 147.41 135.38L147.73 136.62C147.309 136.666 146.897 136.777 146.51 136.95C145.96 137.204 145.52 137.648 145.27 138.2C145.182 138.391 145.151 138.602 145.18 138.81C145.229 139.021 145.344 139.21 145.51 139.35C145.603 139.437 145.714 139.501 145.835 139.539C145.956 139.577 146.084 139.588 146.21 139.57C146.478 139.524 146.736 139.429 146.97 139.29C147.23 139.14 147.5 138.96 147.78 138.77C148.272 138.443 148.84 138.246 149.43 138.2C149.947 138.178 150.452 138.357 150.84 138.7C151.161 138.965 151.406 139.31 151.55 139.7C151.693 140.122 151.721 140.574 151.63 141.01C151.517 141.535 151.269 142.021 150.91 142.42C150.597 142.808 150.226 143.146 149.81 143.42C149.412 143.676 148.966 143.85 148.5 143.93L148.1 142.67C148.431 142.652 148.753 142.556 149.04 142.39C149.301 142.258 149.535 142.079 149.73 141.86C149.873 141.691 149.985 141.498 150.06 141.29C150.135 141.113 150.162 140.92 150.14 140.73C150.109 140.544 150.009 140.376 149.86 140.26C149.774 140.175 149.67 140.112 149.555 140.075C149.441 140.039 149.319 140.03 149.2 140.05C148.935 140.098 148.681 140.192 148.45 140.33L147.66 140.8C147.347 141.005 147.012 141.173 146.66 141.3C146.338 141.407 145.997 141.444 145.66 141.41C145.287 141.356 144.939 141.193 144.66 140.94C144.304 140.649 144.032 140.27 143.87 139.84C143.699 139.393 143.667 138.905 143.78 138.44C143.923 137.861 144.204 137.326 144.6 136.88Z" fill="white"/>
<path d="M141.34 140.86L151.25 151.96L149.93 153.14L144.1 146.6L144.34 146.82C144.488 147.413 144.471 148.036 144.29 148.62C144.077 149.285 143.682 149.878 143.15 150.33C142.662 150.796 142.014 151.057 141.34 151.06C141.017 151.053 140.7 150.979 140.407 150.843C140.114 150.708 139.853 150.512 139.64 150.27L135.73 145.88L137.07 144.68L140.58 148.6C140.838 148.893 141.193 149.085 141.58 149.14C141.783 149.151 141.987 149.118 142.176 149.044C142.366 148.97 142.538 148.856 142.68 148.71C143.009 148.413 143.24 148.022 143.34 147.59C143.459 147.134 143.459 146.656 143.34 146.2C143.178 145.698 142.909 145.237 142.55 144.85L140 142.07L141.34 140.86Z" fill="white"/>
<path d="M138 154L136.52 155L132 148.44L133.48 147.44L138 154ZM139.74 156.3C139.822 156.409 139.876 156.535 139.899 156.669C139.921 156.803 139.911 156.941 139.87 157.07C139.813 157.338 139.656 157.574 139.43 157.73C139.322 157.809 139.199 157.866 139.068 157.897C138.938 157.928 138.802 157.933 138.67 157.91C138.535 157.897 138.404 157.855 138.287 157.786C138.17 157.718 138.068 157.625 137.991 157.514C137.913 157.403 137.86 157.276 137.835 157.142C137.811 157.009 137.816 156.871 137.85 156.74C137.91 156.476 138.067 156.244 138.29 156.09C138.515 155.936 138.789 155.868 139.06 155.9C139.2 155.893 139.339 155.921 139.465 155.982C139.591 156.044 139.699 156.136 139.78 156.25L139.74 156.3Z" fill="white"/>
<path d="M132.06 157.8L131.06 156.14L131.26 156.39C131.311 157.027 131.16 157.663 130.83 158.21C130.457 158.813 129.924 159.301 129.29 159.62C128.7 159.951 128.008 160.047 127.35 159.89C127.039 159.806 126.749 159.658 126.499 159.455C126.249 159.251 126.045 158.998 125.9 158.71L123.16 153.51L124.76 152.66L127.21 157.32C127.388 157.66 127.677 157.928 128.03 158.08C128.224 158.142 128.43 158.16 128.632 158.134C128.834 158.108 129.028 158.039 129.2 157.93C129.592 157.723 129.913 157.402 130.12 157.01C130.335 156.594 130.435 156.128 130.41 155.66C130.373 155.127 130.219 154.608 129.96 154.14L128.22 150.84L129.82 150L133.53 157L132.06 157.8Z" fill="white"/>
<path d="M117.19 155.48C117.957 155.2 118.784 155.124 119.59 155.26C120.303 155.387 120.965 155.712 121.5 156.2C122.065 156.715 122.483 157.37 122.71 158.1C122.952 158.816 122.987 159.585 122.81 160.32C122.644 161.058 122.301 161.744 121.81 162.32C121.289 162.901 120.623 163.333 119.88 163.57C118.99 163.922 118 163.922 117.11 163.57C116.198 163.146 115.443 162.446 114.95 161.57L120.46 157.3L121.2 158.17L116.73 161.74L117 161.37C117.278 161.728 117.648 162.004 118.07 162.17C118.545 162.359 119.075 162.359 119.55 162.17C119.983 162.033 120.37 161.781 120.67 161.44C120.958 161.1 121.148 160.689 121.22 160.25C121.295 159.766 121.247 159.271 121.08 158.81C120.929 158.334 120.665 157.901 120.31 157.55C119.975 157.225 119.556 157 119.1 156.9C118.695 156.823 118.277 156.837 117.878 156.941C117.478 157.044 117.107 157.235 116.79 157.5C116.519 157.729 116.274 157.987 116.06 158.27L114.88 157.27C115.185 156.889 115.542 156.552 115.94 156.27C116.308 155.936 116.731 155.669 117.19 155.48Z" fill="white"/>
<path d="M107.47 173L105.67 173.2L104.08 158.41L105.87 158.21L107.47 173Z" fill="white"/>
<path d="M101.51 166.55L99.7 166.61L99.45 158.61L101.26 158.55L101.51 166.55ZM101.71 169.43C101.717 169.566 101.692 169.701 101.639 169.826C101.585 169.951 101.503 170.062 101.4 170.15C101.205 170.343 100.944 170.454 100.67 170.46C100.399 170.469 100.135 170.376 99.93 170.2C99.8248 170.115 99.7391 170.009 99.6787 169.888C99.6183 169.767 99.5846 169.635 99.58 169.5C99.5705 169.363 99.5926 169.227 99.6447 169.1C99.6967 168.973 99.7772 168.86 99.88 168.77C100.08 168.587 100.339 168.481 100.61 168.47C100.879 168.461 101.142 168.55 101.35 168.72C101.46 168.803 101.55 168.91 101.613 169.033C101.675 169.156 101.708 169.292 101.71 169.43Z" fill="white"/>
<path d="M95.28 161.15V162.89L90.16 166.35L89.16 165.35L95.28 161.15ZM92.57 163.69L89.38 158.12L91.46 158.29L93.86 162.77L92.57 163.69ZM96.73 158.69L95.53 173.52L93.73 173.37L94.93 158.55L96.73 158.69Z" fill="white"/>
<path d="M84.55 156.85C85.3496 157.016 86.0932 157.385 86.71 157.92C87.2493 158.403 87.6439 159.026 87.85 159.72C88.0409 160.458 88.0409 161.232 87.85 161.97C87.6839 162.707 87.309 163.381 86.77 163.91C86.2428 164.423 85.5969 164.797 84.89 165C84.1425 165.226 83.3482 165.246 82.59 165.06C81.6505 164.875 80.815 164.343 80.25 163.57C79.7006 162.745 79.4179 161.771 79.44 160.78L86.37 160.02L86.54 161.14L80.87 161.86L81.29 161.68C81.3443 162.13 81.5168 162.558 81.79 162.92C82.1017 163.322 82.5499 163.596 83.05 163.69C83.4878 163.816 83.9521 163.816 84.39 163.69C84.8099 163.549 85.1856 163.301 85.48 162.97C85.7952 162.596 86.0118 162.149 86.11 161.67C86.2403 161.185 86.2403 160.675 86.11 160.19C85.9998 159.738 85.76 159.328 85.42 159.01C85.0657 158.683 84.6309 158.455 84.16 158.35C83.8296 158.288 83.4904 158.288 83.16 158.35C82.8165 158.402 82.4807 158.496 82.16 158.63L81.68 157.15C82.1464 156.976 82.6341 156.865 83.13 156.82C83.6021 156.759 84.0808 156.769 84.55 156.85Z" fill="white"/>
<path d="M70.74 151.72C71.3678 152.041 71.9044 152.516 72.3 153.1C72.6842 153.671 72.896 154.341 72.91 155.03C72.9107 155.823 72.7039 156.602 72.31 157.29C71.9444 158.009 71.396 158.62 70.72 159.06C70.1201 159.436 69.4281 159.641 68.72 159.65C68.0011 159.658 67.292 159.483 66.66 159.14C66.1048 158.856 65.6368 158.428 65.3058 157.9C64.9748 157.371 64.7931 156.763 64.78 156.14L65 156L64.06 157.39L62.6 156.61L66.37 149.61L67.94 150.46L66.94 152.29V151.78C67.1125 151.672 67.2971 151.585 67.49 151.52C67.7794 151.422 68.0774 151.352 68.38 151.31C68.745 151.26 69.115 151.26 69.48 151.31C69.9213 151.369 70.3482 151.508 70.74 151.72ZM69.62 152.79C69.2539 152.587 68.8476 152.468 68.43 152.44C68.046 152.415 67.6616 152.484 67.31 152.64C66.9454 152.804 66.6238 153.051 66.37 153.36L65.63 154.73C65.54 155.105 65.54 155.495 65.63 155.87C65.7206 156.234 65.8877 156.575 66.12 156.87C66.3694 157.188 66.6828 157.45 67.04 157.64C67.4457 157.866 67.9057 157.977 68.37 157.96C68.8297 157.945 69.2777 157.81 69.67 157.57C70.0964 157.296 70.4417 156.913 70.67 156.46C70.9088 156.029 71.0264 155.542 71.01 155.05C71.0025 154.576 70.8678 154.114 70.62 153.71C70.3776 153.317 70.0316 152.999 69.62 152.79Z" fill="white"/>
<path d="M57.45 142.31C57.9644 142.785 58.3351 143.395 58.52 144.07C58.7097 144.744 58.7097 145.456 58.52 146.13C58.3058 146.885 57.9032 147.573 57.35 148.13C56.8088 148.72 56.1176 149.152 55.35 149.38C54.6696 149.57 53.9503 149.57 53.27 149.38C52.5667 149.165 51.9254 148.784 51.4 148.27C50.9542 147.839 50.6123 147.313 50.4 146.73C50.1772 146.182 50.108 145.584 50.2 145L50.71 144.61L44.64 150.91L43.36 149.67L53.68 138.96L55 140.18L53.63 141.6L53.83 141.1C54.4635 141.017 55.1075 141.068 55.72 141.25C56.3739 141.458 56.9676 141.822 57.45 142.31ZM56 143C55.6856 142.698 55.3106 142.466 54.9 142.32C54.5257 142.201 54.1308 142.16 53.74 142.2C53.3406 142.251 52.9578 142.391 52.62 142.61L51.56 143.7C51.374 144.042 51.268 144.421 51.25 144.81C51.2392 145.204 51.3107 145.595 51.46 145.96C51.63 146.336 51.8711 146.676 52.17 146.96C52.5045 147.279 52.9136 147.51 53.36 147.63C53.8115 147.755 54.2885 147.755 54.74 147.63C55.22 147.494 55.6528 147.228 55.99 146.86C56.3368 146.508 56.5821 146.07 56.7 145.59C56.8199 145.131 56.8199 144.649 56.7 144.19C56.582 143.736 56.3395 143.324 56 143Z" fill="white"/>
<path d="M43.64 143.69C43.5358 143.777 43.4134 143.839 43.2818 143.872C43.1501 143.905 43.0128 143.908 42.88 143.88C42.6096 143.833 42.3649 143.691 42.19 143.48C42.1031 143.377 42.0379 143.257 41.9984 143.129C41.9589 143 41.9458 142.864 41.96 142.73C41.9626 142.595 41.9954 142.462 42.0559 142.34C42.1165 142.219 42.2033 142.113 42.31 142.03C42.414 141.943 42.5362 141.879 42.6676 141.845C42.799 141.81 42.9364 141.805 43.07 141.83C43.3364 141.88 43.577 142.021 43.75 142.23C43.9247 142.447 44.0137 142.721 44 143C43.9977 143.135 43.9639 143.268 43.9015 143.388C43.839 143.507 43.7495 143.611 43.64 143.69ZM45.82 141.8L44.69 140.39L50.89 135.39L52 136.82L45.82 141.8Z" fill="white"/>
<path d="M47.61 130.39C47.9831 130.995 48.2028 131.681 48.25 132.39C48.3024 133.085 48.1494 133.781 47.81 134.39C47.3902 135.067 46.8163 135.636 46.1351 136.05C45.4539 136.463 44.6846 136.71 43.89 136.77C43.1902 136.778 42.5006 136.602 41.89 136.26C41.2687 135.904 40.7489 135.394 40.38 134.78C40.0402 134.265 39.8476 133.666 39.8229 133.049C39.7982 132.433 39.9424 131.821 40.24 131.28L40.55 131.23L39.03 131.95L38.17 130.54L44.95 126.39L45.89 127.91L44.07 129L44.35 128.57C44.555 128.566 44.7598 128.586 44.96 128.63C45.258 128.692 45.5494 128.782 45.83 128.9C46.1713 129.035 46.4886 129.224 46.77 129.46C47.1011 129.72 47.3852 130.034 47.61 130.39ZM46.09 130.76C45.8858 130.397 45.5977 130.089 45.25 129.86C44.9262 129.644 44.5563 129.507 44.17 129.46C43.7737 129.422 43.3739 129.473 43 129.61L41.67 130.42C41.4046 130.706 41.2065 131.048 41.09 131.42C40.9804 131.786 40.9497 132.171 41 132.55C41.0551 132.951 41.1948 133.337 41.41 133.68C41.6406 134.102 41.9877 134.449 42.41 134.68C42.8112 134.898 43.2635 135.005 43.72 134.99C44.2151 134.961 44.6953 134.81 45.1176 134.55C45.5399 134.29 45.8912 133.929 46.14 133.5C46.3747 133.086 46.4923 132.616 46.48 132.14C46.4905 131.651 46.3547 131.171 46.09 130.76Z" fill="white"/>
<path d="M35.59 125.34L37.23 124.61L37.12 124.75C36.4643 124.684 35.842 124.428 35.3289 124.014C34.8158 123.601 34.434 123.047 34.23 122.42C34.0958 122.042 34.0347 121.641 34.05 121.24C34.0751 120.889 34.1775 120.547 34.35 120.24C34.5349 119.937 34.7972 119.688 35.11 119.52L35.21 119.58C34.5819 119.492 33.9902 119.232 33.5 118.83C33.0392 118.44 32.6935 117.932 32.5 117.36C32.3641 117.044 32.294 116.704 32.294 116.36C32.294 116.016 32.3641 115.676 32.5 115.36C32.7797 114.782 33.2752 114.337 33.88 114.12L39.45 112.18L40.05 113.88L35.05 115.61C34.7069 115.73 34.4051 115.945 34.18 116.23C34.0783 116.385 34.0168 116.564 34.0011 116.749C33.9854 116.934 34.0159 117.12 34.09 117.29C34.2398 117.702 34.5209 118.053 34.89 118.29C35.2749 118.547 35.7188 118.702 36.18 118.74C36.6804 118.779 37.1834 118.717 37.66 118.56L41.21 117.32L41.81 119.03L36.81 120.75C36.465 120.871 36.165 121.094 35.95 121.39C35.849 121.549 35.7881 121.731 35.7724 121.919C35.7567 122.107 35.7868 122.296 35.86 122.47C36.0098 122.882 36.2909 123.233 36.66 123.47C37.0509 123.764 37.5138 123.947 38 124C38.5014 124.051 39.0076 123.986 39.48 123.81L43.02 122.58L43.61 124.29L36.1 126.9L35.59 125.34Z" fill="white"/>
<path d="M35.23 111C34.4873 111.108 33.7294 111.01 33.0383 110.717C32.3473 110.424 31.7496 109.948 31.31 109.34C30.8494 108.685 30.5605 107.925 30.47 107.13C30.3616 106.346 30.4545 105.548 30.74 104.81C31.0149 104.13 31.4715 103.538 32.06 103.1C32.6624 102.652 33.3735 102.372 34.12 102.29C34.8676 102.185 35.6296 102.278 36.33 102.56C37.0066 102.836 37.5946 103.293 38.03 103.88C38.5043 104.524 38.7978 105.284 38.88 106.08C38.9952 106.864 38.9162 107.664 38.65 108.41C38.391 109.096 37.9482 109.698 37.37 110.15C36.749 110.626 36.0082 110.92 35.23 111ZM35 109.16C35.483 109.101 35.9436 108.922 36.34 108.64C36.7052 108.383 37.0008 108.04 37.2 107.64C37.3974 107.223 37.4669 106.757 37.4 106.3C37.3517 105.834 37.1674 105.392 36.87 105.03C36.5826 104.671 36.2021 104.398 35.77 104.24C35.3175 104.069 34.8284 104.017 34.35 104.09C33.8686 104.142 33.4079 104.314 33.01 104.59C32.6394 104.846 32.3373 105.19 32.13 105.59C31.9446 106.036 31.8993 106.528 32 107C32.0524 107.466 32.2441 107.905 32.55 108.26C32.8488 108.609 33.2305 108.877 33.66 109.04C34.0911 109.184 34.5501 109.226 35 109.16Z" fill="white"/>
<path d="M30.23 97.92L32.17 97.86H31.86C31.2805 97.5863 30.8039 97.1342 30.5 96.57C30.1677 95.9579 30.0119 95.2655 30.05 94.57C30.048 93.8946 30.31 93.2451 30.78 92.76C31.0076 92.5307 31.2813 92.3524 31.583 92.2369C31.8847 92.1214 32.2075 92.0713 32.53 92.09L38.4 92.31L38.34 94.12L33.07 93.91C32.6878 93.8963 32.3129 94.0165 32.01 94.25C31.8597 94.3876 31.7415 94.5565 31.6637 94.7449C31.5859 94.9333 31.5505 95.1364 31.56 95.34C31.5385 95.7807 31.6538 96.2173 31.89 96.59C32.1344 96.9811 32.4799 97.299 32.89 97.51C33.368 97.7515 33.8945 97.8814 34.43 97.89L38.16 98.03L38.09 99.84L30.14 99.53L30.23 97.92Z" fill="white"/>
<path d="M39.56 86.6399C39.4221 87.3282 39.0968 87.9649 38.62 88.4799C38.1407 88.9891 37.5325 89.3588 36.86 89.5499C36.1059 89.746 35.3141 89.746 34.56 89.5499C33.7817 89.4149 33.0554 89.069 32.46 88.5499C31.938 88.0738 31.5603 87.4604 31.37 86.7799C31.1728 86.0721 31.1556 85.3261 31.32 84.6099C31.4613 84.0235 31.7274 83.4744 32.1 82.9999C32.4492 82.5237 32.9233 82.1534 33.47 81.9299L34.07 82.1499L25.52 80.3099L25.89 78.5699L40.44 81.6999L40.06 83.4399L38.12 82.9999L38.66 82.8999C39.0632 83.396 39.3563 83.972 39.52 84.5899C39.7025 85.2595 39.7162 85.9638 39.56 86.6399ZM38.19 85.7699C38.285 85.3486 38.285 84.9113 38.19 84.4899C38.0964 84.1047 37.9226 83.7435 37.68 83.4299C37.4217 83.1204 37.1015 82.8684 36.74 82.6899L35.26 82.3699C34.8701 82.3889 34.4901 82.4984 34.15 82.6899C33.8089 82.8866 33.5126 83.1523 33.28 83.4699C33.0434 83.8141 32.8769 84.2015 32.79 84.6099C32.6891 85.0712 32.7132 85.5511 32.86 85.9999C32.9943 86.4454 33.2465 86.8462 33.59 87.16C33.9592 87.4996 34.4167 87.7283 34.91 87.8199C35.3933 87.931 35.8975 87.9103 36.37 87.7599C36.8207 87.6093 37.2264 87.348 37.55 86.9999C37.8755 86.6588 38.0974 86.2323 38.19 85.7699Z" fill="white"/>
<path d="M37.49 69.72C37.2611 69.3555 37.127 68.9396 37.1 68.51C37.0714 68.0731 37.1648 67.6368 37.37 67.25C37.559 66.8438 37.8566 66.4977 38.23 66.25C38.594 66.0215 39.0107 65.8906 39.44 65.87C39.8834 65.8403 40.3264 65.9337 40.72 66.14C41.1295 66.3239 41.4769 66.6226 41.72 67C41.9486 67.364 42.0794 67.7807 42.1 68.21C42.1266 68.6587 42.026 69.1058 41.81 69.5C41.6189 69.8801 41.3287 70.2014 40.97 70.43C40.6097 70.6601 40.1967 70.7943 39.77 70.82C39.3329 70.8508 38.8961 70.7572 38.51 70.55C38.1015 70.3702 37.7491 70.0834 37.49 69.72Z" fill="white"/>
</g>
<defs>
<clipPath id="clip0_0_198">
<rect width="196.88" height="196.88" fill="white"/>
</clipPath>
</defs>
</svg>
