<svg width="230" height="57" viewBox="0 0 230 57" fill="none" xmlns="http://www.w3.org/2000/svg">
<g clip-path="url(#clip0_0_8821)">
<path d="M225.86 56.8C207.58 56.8 197.61 45.8 191.65 39.25C186.14 33.19 184.79 32.25 181.33 32.25C177.87 32.25 176.52 33.16 171.01 39.25C165.01 45.82 155.08 56.8 136.8 56.8C118.52 56.8 108.55 45.8 102.59 39.25C97.09 33.19 95.74 32.25 92.28 32.25C88.82 32.25 87.46 33.16 81.96 39.25C76 45.81 66 56.8 47.75 56.8C29.5 56.8 19.5 45.8 13.54 39.25C8.04 33.19 6.69 32.25 3.23 32.25H0V0H3.23C21.51 0 31.48 11 37.44 17.56C42.94 23.62 44.29 24.56 47.75 24.56C51.21 24.56 52.56 23.65 58.06 17.56C64 11 74 0 92.28 0C110.56 0 120.53 11 126.49 17.56C131.99 23.62 133.34 24.56 136.8 24.56C140.26 24.56 141.62 23.65 147.12 17.56C153.08 11 163.05 0 181.33 0C199.61 0 209.58 11 215.54 17.55C221.04 23.62 222.39 24.55 225.86 24.55H229.09V56.8H225.86Z" fill="#F5F5F5"/>
<path d="M225.86 53.58C209 53.58 200 43.65 194 37.08C188.5 31.01 186.29 29.08 181.3 29.08C176.31 29.08 174.1 31.08 168.59 37.08C162.59 43.65 153.59 53.58 136.77 53.58C119.95 53.58 110.94 43.65 105 37.08C99.49 31.01 97.29 29.08 92.3 29.08C87.31 29.08 85.1 31.08 79.59 37.08C73.59 43.65 64.59 53.58 47.77 53.58C30.95 53.58 21.91 43.65 15.95 37.08C10.44 31.01 8.24 29.08 3.25 29.08V3.22998C20.1 3.22998 29.11 13.16 35.07 19.73C40.58 25.79 42.78 27.73 47.77 27.73C52.76 27.73 54.96 25.73 60.47 19.73C66.47 13.16 75.47 3.22998 92.3 3.22998C109.13 3.22998 118.16 13.16 124.12 19.73C129.63 25.79 131.83 27.73 136.82 27.73C141.81 27.73 144.02 25.73 149.53 19.73C155.53 13.16 164.53 3.22998 181.35 3.22998C198.17 3.22998 207.21 13.16 213.17 19.73C218.68 25.79 220.88 27.73 225.88 27.73L225.86 53.58Z" fill="#EA8938"/>
</g>
<defs>
<clipPath id="clip0_0_8821">
<rect width="229.09" height="56.8" fill="white"/>
</clipPath>
</defs>
</svg>
