<svg width="170" height="170" viewBox="0 0 170 170" fill="none" xmlns="http://www.w3.org/2000/svg">
<g clip-path="url(#clip0_0_8851)">
<path d="M85 169.92C68.1886 169.92 51.7547 164.935 37.7766 155.595C23.7984 146.255 12.9037 132.98 6.47028 117.448C0.036829 101.916 -1.64645 84.8257 1.63329 68.3373C4.91303 51.849 13.0085 36.7034 24.896 24.8159C36.7834 12.9285 51.929 4.83302 68.4174 1.55327C84.9057 -1.72647 101.996 -0.0431881 117.528 6.39026C133.06 12.8237 146.335 23.7184 155.675 37.6966C165.015 51.6747 170 68.1086 170 84.92C169.987 107.459 161.027 129.072 145.089 145.009C129.152 160.947 107.539 169.907 85 169.92Z" fill="#37669D"/>
<path d="M84.9701 8.09003H84.9601C42.506 8.09003 8.09009 42.5059 8.09009 84.96V84.97C8.09009 127.424 42.506 161.84 84.9601 161.84H84.9701C127.424 161.84 161.84 127.424 161.84 84.97V84.96C161.84 42.5059 127.424 8.09003 84.9701 8.09003Z" fill="#F6D4E1"/>
<path d="M122 103.14H77.7401C77.4748 103.14 77.2205 103.035 77.0329 102.847C76.8454 102.66 76.7401 102.405 76.7401 102.14V50.14C76.7401 36.49 87.9101 25.48 101.52 26.43C107.359 26.8617 112.819 29.4861 116.803 33.7764C120.787 38.0666 123.001 43.7051 123 49.56V102.13C123.001 102.262 122.976 102.393 122.927 102.516C122.877 102.638 122.804 102.75 122.711 102.844C122.618 102.937 122.507 103.012 122.385 103.063C122.263 103.114 122.132 103.14 122 103.14ZM78.7101 101.2H121.05V50.2C121.05 38.69 112.11 28.85 100.61 28.44C97.7605 28.3366 94.9193 28.8082 92.256 29.8269C89.5927 30.8455 87.1619 32.3902 85.1087 34.3688C83.0554 36.3474 81.4218 38.7193 80.3053 41.343C79.1887 43.9668 78.6122 46.7886 78.6101 49.64V101.23L78.7101 101.2Z" fill="#37669D"/>
<path d="M122 111.91H77.7401C77.4748 111.91 77.2205 111.805 77.0329 111.617C76.8454 111.43 76.7401 111.175 76.7401 110.91V102.23C76.7401 101.965 76.8454 101.71 77.0329 101.523C77.2205 101.335 77.4748 101.23 77.7401 101.23H122C122.265 101.23 122.52 101.335 122.707 101.523C122.895 101.71 123 101.965 123 102.23V110.91C123 111.175 122.895 111.43 122.707 111.617C122.52 111.805 122.265 111.91 122 111.91ZM78.6801 109.91H121.02V103.19H78.7101V109.91V110L78.6801 109.91Z" fill="#37669D"/>
<path d="M122 120.67H68.86C68.5948 120.67 68.3404 120.565 68.1529 120.377C67.9653 120.19 67.86 119.935 67.86 119.67V111C67.86 110.735 67.9653 110.48 68.1529 110.293C68.3404 110.105 68.5948 110 68.86 110H122C122.265 110 122.52 110.105 122.707 110.293C122.895 110.48 123 110.735 123 111V119.67C123 119.935 122.895 120.19 122.707 120.377C122.52 120.565 122.265 120.67 122 120.67ZM69.81 118.67H121.02V112H69.84V118.73V118.72L69.81 118.67Z" fill="#37669D"/>
<path d="M122 129.43H60.14C59.8748 129.43 59.6204 129.325 59.4329 129.137C59.2454 128.95 59.14 128.695 59.14 128.43V119.75C59.14 119.485 59.2454 119.23 59.4329 119.043C59.6204 118.855 59.8748 118.75 60.14 118.75H122C122.265 118.75 122.52 118.855 122.707 119.043C122.895 119.23 123 119.485 123 119.75V128.43C123 128.695 122.895 128.95 122.707 129.137C122.52 129.325 122.265 129.43 122 129.43ZM61.09 127.49H121.02V120.76H61.12V127.49H61.09Z" fill="#37669D"/>
<path d="M122 138.2H51.8501C51.5849 138.2 51.3305 138.095 51.143 137.907C50.9555 137.72 50.8501 137.465 50.8501 137.2V128.5C50.8501 128.235 50.9555 127.98 51.143 127.793C51.3305 127.605 51.5849 127.5 51.8501 127.5H122C122.265 127.5 122.52 127.605 122.707 127.793C122.895 127.98 123 128.235 123 128.5V137.18C123.003 137.313 122.979 137.445 122.93 137.569C122.881 137.692 122.807 137.805 122.714 137.9C122.621 137.995 122.51 138.071 122.387 138.122C122.265 138.174 122.133 138.2 122 138.2ZM52.7901 136.25H121.02V136.2V129.48H52.8201V136.2V136.25H52.7901Z" fill="#37669D"/>
<path d="M122 129.43H105.21C104.945 129.43 104.69 129.325 104.503 129.137C104.315 128.95 104.21 128.695 104.21 128.43V119.75C104.21 119.485 104.315 119.23 104.503 119.043C104.69 118.855 104.945 118.75 105.21 118.75H122C122.265 118.75 122.52 118.855 122.707 119.043C122.895 119.23 123 119.485 123 119.75V128.43C123 128.695 122.895 128.95 122.707 129.137C122.52 129.325 122.265 129.43 122 129.43ZM106.16 127.49H121.02V120.76H106.19V127.49H106.16Z" fill="#37669D"/>
<path d="M122 138.2H96.45C96.1848 138.2 95.9304 138.095 95.7429 137.907C95.5554 137.72 95.45 137.465 95.45 137.2V128.5C95.45 128.235 95.5554 127.98 95.7429 127.793C95.9304 127.605 96.1848 127.5 96.45 127.5H122C122.265 127.5 122.52 127.605 122.707 127.793C122.895 127.98 123 128.235 123 128.5V137.18C123.003 137.313 122.979 137.445 122.93 137.569C122.881 137.692 122.807 137.805 122.714 137.9C122.621 137.995 122.51 138.071 122.387 138.122C122.265 138.174 122.133 138.2 122 138.2ZM97.39 136.25H121.02V136.2V129.48H97.42V136.2V136.25H97.39Z" fill="#37669D"/>
<path d="M122 120.67H113.63C113.365 120.67 113.11 120.565 112.923 120.377C112.735 120.19 112.63 119.935 112.63 119.67V111C112.63 110.735 112.735 110.48 112.923 110.293C113.11 110.105 113.365 110 113.63 110H122C122.265 110 122.52 110.105 122.707 110.293C122.895 110.48 123 110.735 123 111V119.67C123 119.935 122.895 120.19 122.707 120.377C122.52 120.565 122.265 120.67 122 120.67ZM114.61 118.67H121.02V112H114.61V118.73L114.64 118.72L114.61 118.67Z" fill="#37669D"/>
<path d="M93.7726 36.1421C96.8415 32.1751 101.143 29.3422 106 28.09C110.824 29.3745 115.087 32.2214 118.121 36.1857C121.155 40.1499 122.79 45.0079 122.77 50V102.12H89.05V99.77C89.0493 98.6507 89.4541 97.569 90.1895 96.7251C90.9249 95.8812 91.9411 95.3323 93.05 95.18C93.1 95.18 93.1 95.1 93.05 95.1C91.9411 94.952 90.9238 94.4057 90.1878 93.563C89.4518 92.7204 89.0475 91.6388 89.05 90.52V50C89.0422 44.9845 90.7036 40.109 93.7726 36.1421Z" fill="#37669D"/>
<path d="M38.31 106.06L39.07 107.78L34.23 109.93L33.47 108.2C33.2607 107.768 33.1676 107.289 33.2 106.81C33.2292 106.377 33.3936 105.964 33.67 105.63C33.9786 105.251 34.3775 104.955 34.83 104.77C35.2766 104.56 35.767 104.461 36.26 104.48C36.6941 104.508 37.111 104.66 37.46 104.92C37.8336 105.224 38.1257 105.615 38.31 106.06ZM37.74 107.14L37.45 106.49C37.3424 106.223 37.1707 105.986 36.95 105.8C36.7483 105.64 36.4974 105.555 36.24 105.56C35.8933 105.558 35.5508 105.636 35.24 105.79C34.9329 105.912 34.6564 106.099 34.43 106.34C34.2534 106.528 34.1505 106.773 34.14 107.03C34.1275 107.318 34.1895 107.603 34.32 107.86L34.61 108.51L37.74 107.14Z" fill="#37669D"/>
<path d="M33.0001 99.23C33.4807 99.0595 33.9962 99.0114 34.5001 99.09C34.9322 99.1624 35.3346 99.3567 35.6601 99.65C35.9799 99.9551 36.218 100.336 36.3526 100.757C36.4871 101.178 36.5137 101.626 36.4301 102.06C36.3366 102.486 36.1252 102.878 35.8201 103.19C35.4555 103.546 35.0091 103.807 34.5201 103.95C34.0384 104.116 33.5241 104.164 33.0201 104.09C32.5903 104.02 32.1905 103.825 31.8701 103.53C31.5439 103.227 31.3026 102.845 31.1701 102.42C31.0298 102.005 31.0022 101.56 31.0901 101.13C31.1813 100.7 31.3928 100.305 31.7001 99.99C32.0646 99.634 32.511 99.373 33.0001 99.23ZM33.3501 100.31C33.0387 100.4 32.7493 100.553 32.5001 100.76C32.3005 100.922 32.157 101.142 32.0901 101.39C32.0108 101.627 32.0108 101.883 32.0901 102.12C32.1603 102.358 32.2995 102.571 32.4901 102.73C32.6924 102.886 32.9355 102.98 33.1901 103C33.5123 103.022 33.8355 102.977 34.1401 102.87C34.4498 102.776 34.7384 102.623 34.9901 102.42C35.1876 102.257 35.3307 102.037 35.4001 101.79C35.4746 101.552 35.4746 101.298 35.4001 101.06C35.3241 100.819 35.1821 100.604 34.9901 100.44C34.789 100.283 34.5446 100.193 34.2901 100.18C33.9679 100.158 33.6446 100.203 33.3401 100.31H33.3501Z" fill="#37669D"/>
<path d="M31.76 93.52C32.2554 93.3939 32.7746 93.3939 33.27 93.52C33.6924 93.6398 34.0711 93.8794 34.36 94.21C34.6452 94.546 34.8413 94.9483 34.9304 95.3799C35.0195 95.8115 34.9988 96.2586 34.87 96.68C34.732 97.0954 34.4789 97.463 34.14 97.74C33.7306 98.0395 33.2613 98.2473 32.7644 98.3491C32.2674 98.4509 31.7543 98.4444 31.26 98.33C30.8374 98.2163 30.458 97.9796 30.17 97.65C29.8849 97.314 29.6887 96.9117 29.5996 96.4801C29.5105 96.0486 29.5313 95.6015 29.66 95.18C29.7917 94.7615 30.046 94.3923 30.39 94.12C30.7887 93.8076 31.26 93.6012 31.76 93.52ZM32 94.63C31.6817 94.6872 31.3786 94.8098 31.11 94.99C30.8978 95.1291 30.731 95.3273 30.63 95.56C30.5342 95.8017 30.5096 96.0658 30.5592 96.321C30.6088 96.5762 30.7306 96.8119 30.91 97C31.0924 97.1805 31.3267 97.2993 31.58 97.34C31.909 97.4164 32.2511 97.4164 32.58 97.34C32.9012 97.2878 33.2079 97.1685 33.48 96.99C33.695 96.8496 33.8623 96.6474 33.96 96.41C34.0548 96.1503 34.0687 95.8679 34 95.6C33.9506 95.3526 33.8328 95.1239 33.66 94.94C33.4777 94.7649 33.2484 94.6468 33 94.6C32.6678 94.5462 32.3284 94.5564 32 94.63Z" fill="#37669D"/>
<path d="M34.27 92.25L29 92.8L28.78 90.72C28.7386 90.3827 28.7762 90.0403 28.89 89.72C28.9889 89.4369 29.1743 89.192 29.42 89.02C29.6797 88.8372 29.9835 88.7267 30.3 88.7C30.6161 88.6583 30.9375 88.7033 31.23 88.83C31.4991 88.9608 31.7222 89.17 31.87 89.43C32.0498 89.7347 32.156 90.0771 32.18 90.43L32.33 91.82L31.43 91.91L31.31 90.7C31.2931 90.5188 31.2422 90.3424 31.16 90.18C31.0985 90.0561 30.9961 89.9571 30.87 89.9C30.7285 89.8386 30.5727 89.8178 30.42 89.84C30.2677 89.8527 30.1221 89.9082 30 90C29.8871 90.0904 29.8036 90.2122 29.76 90.35C29.7228 90.5281 29.7228 90.712 29.76 90.89L29.84 91.64L34.19 91.19L34.27 92.25ZM31.58 89.66L33.84 88.1L34 89.33L31.7 90.86L31.58 89.66Z" fill="#37669D"/>
<path d="M33.7601 86L28.4301 87.4V86.18L32.1301 85.38L28.4701 84.38V83.38L32.1801 82.49L28.5201 81.49V80.27L33.7801 81.9V82.99L30.2901 83.92L33.7301 85L33.7601 86Z" fill="#37669D"/>
<path d="M34.08 79.38L33.92 80.57L28.92 78.04L29.11 76.62L34.6 75.52L34.44 76.71L30.21 77.47L34.08 79.38ZM32 79.17L32.38 76.37L33.24 76.49L32.86 79.29L32 79.17Z" fill="#37669D"/>
<path d="M29.4 74.62L29.68 73.39L32.17 72.73L30.24 71L30.52 69.78L33.42 72.43L35.24 72.86L35 73.93L33.18 73.51L29.4 74.62Z" fill="#37669D"/>
<path d="M32.16 67.59L31.29 67.27L32.82 63.19L33.68 63.52L33.11 65L37.21 66.53L36.82 67.53L32.73 66L32.16 67.59Z" fill="#37669D"/>
<path d="M37.67 59.16C38.144 59.3845 38.5509 59.7292 38.85 60.16C39.1122 60.5085 39.2684 60.9251 39.3 61.36C39.3 61.7849 39.1971 62.2035 39 62.58C38.8125 62.9842 38.5187 63.3298 38.15 63.58C37.8119 63.8218 37.4144 63.967 37 64C36.4916 64.009 35.9892 63.8885 35.54 63.65C35.0768 63.4362 34.672 63.1137 34.36 62.71C34.0994 62.3607 33.9433 61.9445 33.91 61.51C33.886 61.0648 33.9731 60.6206 34.1634 60.2174C34.3536 59.8141 34.6411 59.4645 35 59.2C35.3658 58.9583 35.7918 58.8232 36.23 58.81C36.7314 58.8069 37.2259 58.9271 37.67 59.16ZM37.17 60.16C36.8845 60.0109 36.5713 59.9224 36.25 59.9C35.9964 59.883 35.7433 59.9385 35.52 60.06C35.3074 60.1927 35.1374 60.3836 35.03 60.61C34.911 60.8338 34.8654 61.0894 34.8995 61.3406C34.9336 61.5918 35.0457 61.8259 35.22 62.01C35.4371 62.2526 35.7029 62.4468 36 62.58C36.2855 62.7291 36.5987 62.8176 36.92 62.84C37.1068 62.8498 37.2936 62.8189 37.4673 62.7494C37.641 62.6798 37.7974 62.5734 37.9259 62.4373C38.0543 62.3013 38.1516 62.1389 38.211 61.9615C38.2705 61.7841 38.2906 61.5959 38.27 61.41C38.2332 61.1566 38.1218 60.9199 37.95 60.73C37.731 60.4946 37.4653 60.3073 37.17 60.18V60.16Z" fill="#37669D"/>
<path d="M37.5 56.05L36.73 55.54L39.14 51.92L39.9 52.43L39 53.78L42.64 56.2L42.02 57.13L38.39 54.7L37.5 56.05Z" fill="#37669D"/>
<path d="M43.9001 54.36L39.8 51L40.51 50.14L42.2001 51.52L43.64 49.76L42 48.39L42.71 47.52L46.8101 50.87L46.1 51.74L44.4001 50.35L42.9701 52.11L44.66 53.49L43.9001 54.36Z" fill="#37669D"/>
<path d="M47.32 50.28L43.55 46.56L46.0601 44L46.71 44.65L45 46.41L45.9001 47.3L47.4901 45.68L48.1501 46.33L46.5601 47.94L47.46 48.83L49.18 47.08L49.84 47.73L47.32 50.28Z" fill="#37669D"/>
<path d="M51.53 41.37C51.4656 41.2998 51.3865 41.2445 51.2984 41.2083C51.2103 41.172 51.1152 41.1555 51.02 41.16C50.793 41.1748 50.5779 41.2665 50.41 41.42C50.2829 41.5123 50.1744 41.6276 50.09 41.76C50.029 41.8664 49.9979 41.9874 50 42.11C50.0013 42.2197 50.0402 42.3255 50.11 42.41C50.1589 42.4824 50.2286 42.5383 50.31 42.57C50.396 42.5854 50.484 42.5854 50.57 42.57C50.6696 42.5685 50.768 42.5481 50.86 42.51C50.9674 42.4771 51.0713 42.4336 51.17 42.38L51.62 42.17C51.8186 42.0732 52.0263 41.9961 52.24 41.94C52.4361 41.8914 52.6382 41.8712 52.84 41.88C53.0248 41.8876 53.2056 41.9353 53.37 42.02C53.5496 42.1111 53.7067 42.2409 53.83 42.4C54.0186 42.6309 54.1335 42.9131 54.16 43.21C54.1765 43.5143 54.1035 43.8168 53.95 44.08C53.7703 44.4126 53.5172 44.6998 53.21 44.92C52.9174 45.167 52.577 45.3508 52.21 45.46C51.9005 45.555 51.5696 45.555 51.26 45.46C50.9379 45.3525 50.6556 45.1504 50.45 44.88L51.3 44.21C51.404 44.3283 51.5391 44.4149 51.69 44.46C51.8367 44.5048 51.9934 44.5048 52.14 44.46C52.3109 44.4068 52.4704 44.322 52.61 44.21C52.7439 44.1063 52.856 43.9771 52.94 43.83C53.013 43.7168 53.0512 43.5847 53.05 43.45C53.0501 43.3263 53.0078 43.2063 52.93 43.11C52.8644 43.0216 52.7681 42.9609 52.66 42.94C52.5417 42.9116 52.4183 42.9116 52.3 42.94C52.1345 42.9883 51.9738 43.0519 51.82 43.13L51.28 43.37C50.925 43.553 50.5292 43.6425 50.13 43.63C49.9561 43.619 49.7868 43.5693 49.6346 43.4846C49.4823 43.3998 49.3509 43.2821 49.25 43.14C49.0574 42.9124 48.945 42.6278 48.93 42.33C48.9131 42.0194 48.986 41.7104 49.14 41.44C49.3082 41.1287 49.5399 40.8562 49.82 40.64C50.089 40.4107 50.4072 40.2464 50.75 40.16C51.0405 40.0747 51.3495 40.0747 51.64 40.16C51.9243 40.2463 52.1754 40.4173 52.36 40.65L51.53 41.37Z" fill="#37669D"/>
<path d="M55.29 43.23L52.39 38.8L53.33 38.19L54.6 40.19H54.66L54.98 37.19L56.1 36.46L55.76 39.52L59 40.79L57.88 41.53L55.47 40.53L55.38 41.39L56.2 42.65L55.29 43.23Z" fill="#37669D"/>
<path d="M56.6901 36L57.8001 35.42L59.9301 36.89V34.3101L61.0401 33.7401L61.0001 37.6501L61.8701 39.3101L60.8701 39.82L60.0001 38.17L56.6901 36Z" fill="#37669D"/>
</g>
<defs>
<clipPath id="clip0_0_8851">
<rect width="169.92" height="169.92" fill="white"/>
</clipPath>
</defs>
</svg>
