<svg width="255" height="120" viewBox="0 0 255 120" fill="none" xmlns="http://www.w3.org/2000/svg">
<g clip-path="url(#clip0_0_9302)">
<path d="M27.85 33.61L254.79 24L250.95 109.57L24 119.18L27.85 33.61Z" fill="#2655AF"/>
<path d="M27.75 33.51L254.69 23.9L250.85 109.47L23.9 119.08L27.75 33.51Z" fill="#2655AF"/>
<path d="M27.65 33.41L254.59 23.8L250.75 109.37L23.8 118.98L27.65 33.41Z" fill="#2655AF"/>
<path d="M27.55 33.31L254.5 23.7L250.65 109.27L23.7 118.88L27.55 33.31Z" fill="#2655AF"/>
<path d="M27.45 33.21L254.4 23.6L250.55 109.17L23.6 118.78L27.45 33.21Z" fill="#2655AF"/>
<path d="M27.35 33.11L254.29 23.5L250.45 109.07L23.5 118.68L27.35 33.11Z" fill="#2655AF"/>
<path d="M27.25 33.01L254.19 23.4L250.35 108.97L23.4 118.58L27.25 33.01Z" fill="#2655AF"/>
<path d="M27.15 32.91L254.09 23.3L250.25 108.87L23.3 118.48L27.15 32.91Z" fill="#2655AF"/>
<path d="M27.05 32.81L254 23.2L250.15 108.77L23.2 118.38L27.05 32.81Z" fill="#2655AF"/>
<path d="M26.95 32.71L253.9 23.1L250.05 108.67L23.1 118.28L26.95 32.71Z" fill="#2655AF"/>
<path d="M26.85 32.61L253.79 23L249.95 108.57L23 118.18L26.85 32.61Z" fill="#2655AF"/>
<path d="M26.75 32.51L253.69 22.9L249.85 108.47L22.9 118.08L26.75 32.51Z" fill="#2655AF"/>
<path d="M26.65 32.41L253.59 22.8L249.75 108.37L22.8 117.98L26.65 32.41Z" fill="#2655AF"/>
<path d="M26.55 32.31L253.5 22.7L249.65 108.27L22.7 117.88L26.55 32.31Z" fill="#2655AF"/>
<path d="M26.45 32.21L253.4 22.6L249.55 108.17L22.6 117.78L26.45 32.21Z" fill="#2655AF"/>
<path d="M26.35 32.11L253.29 22.5L249.45 108.07L22.5 117.68L26.35 32.11Z" fill="#2655AF"/>
<path d="M26.25 32.01L253.19 22.4L249.35 107.97L22.4 117.58L26.25 32.01Z" fill="#2655AF"/>
<path d="M26.15 31.91L253.09 22.3L249.25 107.87L22.3 117.48L26.15 31.91Z" fill="#2655AF"/>
<path d="M26.05 31.81L253 22.2L249.15 107.77L22.2 117.38L26.05 31.81Z" fill="#2655AF"/>
<path d="M25.95 31.71L252.9 22.1L249.05 107.67L22.1 117.28L25.95 31.71Z" fill="#2655AF"/>
<path d="M25.85 31.61L252.79 22L248.95 107.57L22 117.18L25.85 31.61Z" fill="#2655AF"/>
<path d="M25.75 31.51L252.69 21.9L248.85 107.47L21.9 117.08L25.75 31.51Z" fill="#2655AF"/>
<path d="M25.65 31.41L252.59 21.8L248.75 107.37L21.8 116.98L25.65 31.41Z" fill="#2655AF"/>
<path d="M25.55 31.31L252.5 21.7L248.65 107.27L21.7 116.88L25.55 31.31Z" fill="#2655AF"/>
<path d="M25.45 31.21L252.4 21.6L248.55 107.17L21.6 116.78L25.45 31.21Z" fill="#2655AF"/>
<path d="M25.35 31.11L252.29 21.5L248.45 107.07L21.5 116.68L25.35 31.11Z" fill="#2655AF"/>
<path d="M25.25 31.01L252.19 21.4L248.35 106.97L21.4 116.58L25.25 31.01Z" fill="#2655AF"/>
<path d="M25.15 30.91L252.09 21.3L248.25 106.87L21.3 116.48L25.15 30.91Z" fill="#2655AF"/>
<path d="M25.05 30.81L252 21.2L248.15 106.77L21.2 116.38L25.05 30.81Z" fill="#2655AF"/>
<path d="M24.95 30.71L251.9 21.1L248.05 106.67L21.1 116.28L24.95 30.71Z" fill="#2655AF"/>
<path d="M24.85 30.61L251.79 21L247.95 106.57L21 116.18L24.85 30.61Z" fill="#2655AF"/>
<path d="M24.75 30.51L251.69 20.9L247.85 106.47L20.9 116.08L24.75 30.51Z" fill="#2655AF"/>
<path d="M24.65 30.41L251.59 20.8L247.75 106.37L20.8 115.98L24.65 30.41Z" fill="#2655AF"/>
<path d="M24.55 30.31L251.5 20.7L247.65 106.27L20.7 115.88L24.55 30.31Z" fill="#2655AF"/>
<path d="M24.45 30.21L251.4 20.6L247.55 106.17L20.6 115.78L24.45 30.21Z" fill="#2655AF"/>
<path d="M24.35 30.11L251.29 20.5L247.45 106.07L20.5 115.68L24.35 30.11Z" fill="#2655AF"/>
<path d="M24.25 30.01L251.19 20.4L247.35 105.97L20.4 115.58L24.25 30.01Z" fill="#2655AF"/>
<path d="M24.15 29.91L251.09 20.3L247.25 105.87L20.3 115.48L24.15 29.91Z" fill="#2655AF"/>
<path d="M24.05 29.81L251 20.2L247.15 105.77L20.2 115.38L24.05 29.81Z" fill="#2655AF"/>
<path d="M23.95 29.71L250.9 20.1L247.05 105.67L20.1 115.28L23.95 29.71Z" fill="#2655AF"/>
<path d="M23.85 29.61L250.79 20L246.95 105.57L20 115.18L23.85 29.61Z" fill="#2655AF"/>
<path d="M23.75 29.51L250.69 19.9L246.85 105.47L19.9 115.08L23.75 29.51Z" fill="#2655AF"/>
<path d="M23.65 29.41L250.59 19.8L246.75 105.37L19.8 114.98L23.65 29.41Z" fill="#2655AF"/>
<path d="M23.55 29.31L250.5 19.7L246.65 105.27L19.7 114.88L23.55 29.31Z" fill="#2655AF"/>
<path d="M23.45 29.21L250.4 19.6L246.55 105.17L19.6 114.78L23.45 29.21Z" fill="#2655AF"/>
<path d="M23.35 29.11L250.29 19.5L246.45 105.07L19.5 114.68L23.35 29.11Z" fill="#2655AF"/>
<path d="M23.25 29.01L250.19 19.4L246.35 104.97L19.4 114.58L23.25 29.01Z" fill="#2655AF"/>
<path d="M23.15 28.91L250.09 19.3L246.25 104.87L19.3 114.48L23.15 28.91Z" fill="#2655AF"/>
<path d="M23.05 28.81L250 19.2L246.15 104.77L19.2 114.38L23.05 28.81Z" fill="#2655AF"/>
<path d="M22.95 28.71L249.9 19.1L246.05 104.67L19.1 114.28L22.95 28.71Z" fill="#2655AF"/>
<path d="M22.85 28.61L249.79 19L245.95 104.57L19 114.18L22.85 28.61Z" fill="#2655AF"/>
<path d="M22.75 28.51L249.69 18.9L245.85 104.47L18.9 114.08L22.75 28.51Z" fill="#2655AF"/>
<path d="M22.65 28.41L249.59 18.8L245.75 104.37L18.8 113.98L22.65 28.41Z" fill="#2655AF"/>
<path d="M22.55 28.31L249.5 18.7L245.65 104.27L18.7 113.88L22.55 28.31Z" fill="#2655AF"/>
<path d="M22.45 28.21L249.4 18.6L245.55 104.17L18.6 113.78L22.45 28.21Z" fill="#2655AF"/>
<path d="M22.35 28.11L249.29 18.5L245.45 104.07L18.5 113.68L22.35 28.11Z" fill="#2655AF"/>
<path d="M22.25 28.01L249.19 18.4L245.35 103.97L18.4 113.58L22.25 28.01Z" fill="#2655AF"/>
<path d="M22.15 27.91L249.09 18.3L245.25 103.87L18.3 113.48L22.15 27.91Z" fill="#2655AF"/>
<path d="M22.05 27.81L249 18.2L245.15 103.77L18.2 113.38L22.05 27.81Z" fill="#2655AF"/>
<path d="M21.95 27.71L248.9 18.1L245.05 103.67L18.1 113.28L21.95 27.71Z" fill="#2655AF"/>
<path d="M21.85 27.61L248.79 18L244.95 103.57L18 113.18L21.85 27.61Z" fill="#2655AF"/>
<path d="M21.75 27.51L248.69 17.9L244.85 103.47L17.9 113.08L21.75 27.51Z" fill="#2655AF"/>
<path d="M21.65 27.41L248.59 17.8L244.75 103.37L17.8 112.98L21.65 27.41Z" fill="#2655AF"/>
<path d="M21.55 27.31L248.5 17.7L244.65 103.27L17.7 112.88L21.55 27.31Z" fill="#2655AF"/>
<path d="M21.45 27.21L248.4 17.6L244.55 103.17L17.6 112.78L21.45 27.21Z" fill="#2655AF"/>
<path d="M21.35 27.11L248.29 17.5L244.45 103.07L17.5 112.68L21.35 27.11Z" fill="#2655AF"/>
<path d="M21.25 27.01L248.19 17.4L244.35 102.97L17.4 112.58L21.25 27.01Z" fill="#2655AF"/>
<path d="M21.15 26.91L248.09 17.3L244.25 102.87L17.3 112.48L21.15 26.91Z" fill="#2655AF"/>
<path d="M21.05 26.81L248 17.2L244.15 102.77L17.2 112.38L21.05 26.81Z" fill="#2655AF"/>
<path d="M20.95 26.71L247.9 17.1L244.05 102.67L17.1 112.28L20.95 26.71Z" fill="#2655AF"/>
<path d="M20.85 26.61L247.79 17L243.95 102.57L17 112.18L20.85 26.61Z" fill="#2655AF"/>
<path d="M20.75 26.51L247.69 16.9L243.85 102.47L16.9 112.08L20.75 26.51Z" fill="#2655AF"/>
<path d="M20.65 26.41L247.59 16.8L243.75 102.37L16.8 111.98L20.65 26.41Z" fill="#2655AF"/>
<path d="M20.55 26.31L247.5 16.7L243.65 102.27L16.7 111.88L20.55 26.31Z" fill="#2655AF"/>
<path d="M20.45 26.21L247.4 16.6L243.55 102.17L16.6 111.78L20.45 26.21Z" fill="#2655AF"/>
<path d="M20.35 26.11L247.29 16.5L243.45 102.07L16.5 111.68L20.35 26.11Z" fill="#2655AF"/>
<path d="M20.25 26.01L247.19 16.4L243.35 101.97L16.4 111.58L20.25 26.01Z" fill="#2655AF"/>
<path d="M20.15 25.91L247.09 16.3L243.25 101.87L16.3 111.48L20.15 25.91Z" fill="#2655AF"/>
<path d="M20.05 25.81L247 16.2L243.15 101.77L16.2 111.38L20.05 25.81Z" fill="#2655AF"/>
<path d="M19.95 25.71L246.9 16.1L243.05 101.67L16.1 111.28L19.95 25.71Z" fill="#2655AF"/>
<path d="M19.85 25.61L246.79 16L242.95 101.57L16 111.18L19.85 25.61Z" fill="#2655AF"/>
<path d="M19.75 25.51L246.69 15.9L242.85 101.47L15.9 111.08L19.75 25.51Z" fill="#2655AF"/>
<path d="M19.65 25.41L246.59 15.8L242.75 101.37L15.8 110.98L19.65 25.41Z" fill="#2655AF"/>
<path d="M19.55 25.31L246.5 15.7L242.65 101.27L15.7 110.88L19.55 25.31Z" fill="#2655AF"/>
<path d="M19.45 25.21L246.4 15.6L242.55 101.17L15.6 110.78L19.45 25.21Z" fill="#2655AF"/>
<path d="M19.35 25.11L246.29 15.5L242.45 101.07L15.5 110.68L19.35 25.11Z" fill="#2655AF"/>
<path d="M19.25 25.01L246.19 15.4L242.35 100.97L15.4 110.58L19.25 25.01Z" fill="#2655AF"/>
<path d="M19.15 24.91L246.09 15.3L242.25 100.87L15.3 110.48L19.15 24.91Z" fill="#2655AF"/>
<path d="M19.05 24.81L246 15.2L242.15 100.77L15.2 110.38L19.05 24.81Z" fill="#2655AF"/>
<path d="M18.95 24.71L245.9 15.1L242.05 100.67L15.1 110.28L18.95 24.71Z" fill="#2655AF"/>
<path d="M18.85 24.61L245.79 15L241.95 100.57L15 110.18L18.85 24.61Z" fill="#2655AF"/>
<path d="M18.75 24.51L245.69 14.9L241.85 100.47L14.9 110.08L18.75 24.51Z" fill="#2655AF"/>
<path d="M18.65 24.41L245.59 14.8L241.75 100.37L14.8 109.98L18.65 24.41Z" fill="#2655AF"/>
<path d="M18.55 24.31L245.5 14.7L241.65 100.27L14.7 109.88L18.55 24.31Z" fill="#2655AF"/>
<path d="M18.45 24.21L245.4 14.6L241.55 100.17L14.6 109.78L18.45 24.21Z" fill="#2655AF"/>
<path d="M18.35 24.11L245.29 14.5L241.45 100.07L14.5 109.68L18.35 24.11Z" fill="#2655AF"/>
<path d="M18.25 24.01L245.19 14.4L241.35 99.97L14.4 109.58L18.25 24.01Z" fill="#2655AF"/>
<path d="M18.15 23.91L245.09 14.3L241.25 99.87L14.3 109.48L18.15 23.91Z" fill="#2655AF"/>
<path d="M18.05 23.81L245 14.2L241.15 99.77L14.2 109.38L18.05 23.81Z" fill="#2655AF"/>
<path d="M17.95 23.71L244.9 14.1L241.05 99.67L14.1 109.28L17.95 23.71Z" fill="#2655AF"/>
<path d="M17.85 23.61L244.79 14L240.95 99.57L14 109.18L17.85 23.61Z" fill="#2655AF"/>
<path d="M17.75 23.51L244.69 13.9L240.85 99.47L13.9 109.08L17.75 23.51Z" fill="#2655AF"/>
<path d="M17.65 23.41L244.59 13.8L240.75 99.37L13.8 108.98L17.65 23.41Z" fill="#2655AF"/>
<path d="M17.55 23.31L244.5 13.7L240.65 99.27L13.7 108.88L17.55 23.31Z" fill="#2655AF"/>
<path d="M17.45 23.21L244.4 13.6L240.55 99.17L13.6 108.78L17.45 23.21Z" fill="#2655AF"/>
<path d="M17.35 23.11L244.29 13.5L240.45 99.07L13.5 108.68L17.35 23.11Z" fill="#2655AF"/>
<path d="M17.25 23.01L244.19 13.4L240.35 98.97L13.4 108.58L17.25 23.01Z" fill="#2655AF"/>
<path d="M17.15 22.91L244.09 13.3L240.25 98.87L13.3 108.48L17.15 22.91Z" fill="#2655AF"/>
<path d="M17.05 22.81L244 13.2L240.15 98.77L13.2 108.38L17.05 22.81Z" fill="#2655AF"/>
<path d="M16.95 22.71L243.9 13.1L240.05 98.67L13.1 108.28L16.95 22.71Z" fill="#2655AF"/>
<path d="M16.85 22.61L243.79 13L239.95 98.57L13 108.18L16.85 22.61Z" fill="#2655AF"/>
<path d="M16.75 22.51L243.69 12.9L239.85 98.47L12.9 108.08L16.75 22.51Z" fill="#2655AF"/>
<path d="M16.65 22.41L243.59 12.8L239.75 98.37L12.8 107.98L16.65 22.41Z" fill="#2655AF"/>
<path d="M16.55 22.31L243.5 12.7L239.65 98.27L12.7 107.88L16.55 22.31Z" fill="#2655AF"/>
<path d="M16.45 22.21L243.4 12.6L239.55 98.17L12.6 107.78L16.45 22.21Z" fill="#2655AF"/>
<path d="M16.35 22.11L243.29 12.5L239.45 98.07L12.5 107.68L16.35 22.11Z" fill="#2655AF"/>
<path d="M16.25 22.01L243.19 12.4L239.35 97.97L12.4 107.58L16.25 22.01Z" fill="#2655AF"/>
<path d="M16.15 21.91L243.09 12.3L239.25 97.87L12.3 107.48L16.15 21.91Z" fill="#2655AF"/>
<path d="M16.05 21.81L243 12.2L239.15 97.77L12.2 107.38L16.05 21.81Z" fill="#2655AF"/>
<path d="M15.95 21.71L242.9 12.1L239.05 97.67L12.1 107.28L15.95 21.71Z" fill="#2655AF"/>
<path d="M15.85 21.61L242.79 12L238.95 97.57L12 107.18L15.85 21.61Z" fill="#2655AF"/>
<path d="M15.75 21.51L242.69 11.9L238.85 97.47L11.9 107.08L15.75 21.51Z" fill="#2655AF"/>
<path d="M15.65 21.41L242.59 11.8L238.75 97.37L11.8 106.98L15.65 21.41Z" fill="#2655AF"/>
<path d="M15.55 21.31L242.5 11.7L238.65 97.27L11.7 106.88L15.55 21.31Z" fill="#2655AF"/>
<path d="M15.45 21.21L242.4 11.6L238.55 97.17L11.6 106.78L15.45 21.21Z" fill="#2655AF"/>
<path d="M15.35 21.11L242.29 11.5L238.45 97.07L11.5 106.68L15.35 21.11Z" fill="#2655AF"/>
<path d="M15.25 21.01L242.19 11.4L238.35 96.97L11.4 106.58L15.25 21.01Z" fill="#2655AF"/>
<path d="M15.15 20.91L242.09 11.3L238.25 96.87L11.3 106.48L15.15 20.91Z" fill="#2655AF"/>
<path d="M15.05 20.81L242 11.2L238.15 96.77L11.2 106.38L15.05 20.81Z" fill="#2655AF"/>
<path d="M14.95 20.71L241.9 11.1L238.05 96.67L11.1 106.28L14.95 20.71Z" fill="#2655AF"/>
<path d="M14.85 20.61L241.79 11L237.95 96.57L11 106.18L14.85 20.61Z" fill="#2655AF"/>
<path d="M14.75 20.51L241.69 10.9L237.85 96.47L10.9 106.08L14.75 20.51Z" fill="#2655AF"/>
<path d="M14.65 20.41L241.59 10.8L237.75 96.37L10.8 105.98L14.65 20.41Z" fill="#2655AF"/>
<path d="M14.55 20.31L241.5 10.7L237.65 96.27L10.7 105.88L14.55 20.31Z" fill="#2655AF"/>
<path d="M14.45 20.21L241.4 10.6L237.55 96.17L10.6 105.78L14.45 20.21Z" fill="#2655AF"/>
<path d="M14.35 20.11L241.29 10.5L237.45 96.07L10.5 105.68L14.35 20.11Z" fill="#2655AF"/>
<path d="M14.25 20.01L241.19 10.4L237.35 95.97L10.4 105.58L14.25 20.01Z" fill="#2655AF"/>
<path d="M14.15 19.91L241.09 10.3L237.25 95.87L10.3 105.48L14.15 19.91Z" fill="#2655AF"/>
<path d="M14.05 19.81L241 10.2L237.15 95.77L10.2 105.38L14.05 19.81Z" fill="#2655AF"/>
<path d="M13.95 19.71L240.9 10.1L237.05 95.67L10.1 105.28L13.95 19.71Z" fill="#2655AF"/>
<path d="M13.85 19.61L240.79 10L236.95 95.57L10 105.18L13.85 19.61Z" fill="#2655AF"/>
<path d="M13.75 19.51L240.69 9.90002L236.85 95.47L9.90002 105.08L13.75 19.51Z" fill="#2655AF"/>
<path d="M13.65 19.41L240.59 9.79999L236.75 95.37L9.79999 104.98L13.65 19.41Z" fill="#2655AF"/>
<path d="M13.55 19.31L240.5 9.70001L236.65 95.27L9.70001 104.88L13.55 19.31Z" fill="#2655AF"/>
<path d="M13.45 19.21L240.4 9.59998L236.55 95.17L9.59998 104.78L13.45 19.21Z" fill="#2655AF"/>
<path d="M13.35 19.11L240.29 9.5L236.45 95.07L9.5 104.68L13.35 19.11Z" fill="#2655AF"/>
<path d="M13.25 19.01L240.19 9.40002L236.35 94.97L9.40002 104.58L13.25 19.01Z" fill="#2655AF"/>
<path d="M13.15 18.91L240.09 9.29999L236.25 94.87L9.29999 104.48L13.15 18.91Z" fill="#2655AF"/>
<path d="M13.05 18.81L240 9.20001L236.15 94.77L9.20001 104.38L13.05 18.81Z" fill="#2655AF"/>
<path d="M12.95 18.71L239.9 9.09998L236.05 94.67L9.09998 104.28L12.95 18.71Z" fill="#2655AF"/>
<path d="M12.85 18.61L239.79 9L235.95 94.57L9 104.18L12.85 18.61Z" fill="#2655AF"/>
<path d="M12.75 18.51L239.69 8.90002L235.85 94.47L8.90002 104.08L12.75 18.51Z" fill="#2655AF"/>
<path d="M12.65 18.41L239.59 8.79999L235.75 94.37L8.79999 103.98L12.65 18.41Z" fill="#2655AF"/>
<path d="M12.55 18.31L239.5 8.70001L235.65 94.27L8.70001 103.88L12.55 18.31Z" fill="#2655AF"/>
<path d="M12.45 18.21L239.4 8.59998L235.55 94.17L8.59998 103.78L12.45 18.21Z" fill="#2655AF"/>
<path d="M12.35 18.11L239.29 8.5L235.45 94.07L8.5 103.68L12.35 18.11Z" fill="#2655AF"/>
<path d="M12.25 18.01L239.19 8.40002L235.35 93.97L8.40002 103.58L12.25 18.01Z" fill="#2655AF"/>
<path d="M12.15 17.91L239.09 8.29999L235.25 93.87L8.29999 103.48L12.15 17.91Z" fill="#2655AF"/>
<path d="M12.05 17.81L239 8.20001L235.15 93.77L8.20001 103.38L12.05 17.81Z" fill="#2655AF"/>
<path d="M11.95 17.71L238.9 8.09998L235.05 93.67L8.09998 103.28L11.95 17.71Z" fill="#2655AF"/>
<path d="M11.85 17.61L238.79 8L234.95 93.57L8 103.18L11.85 17.61Z" fill="#2655AF"/>
<path d="M11.75 17.51L238.69 7.90002L234.85 93.47L7.90002 103.08L11.75 17.51Z" fill="#2655AF"/>
<path d="M11.65 17.41L238.59 7.79999L234.75 93.37L7.79999 102.98L11.65 17.41Z" fill="#2655AF"/>
<path d="M11.55 17.31L238.5 7.70001L234.65 93.27L7.70001 102.88L11.55 17.31Z" fill="#2655AF"/>
<path d="M11.45 17.21L238.4 7.59998L234.55 93.17L7.59998 102.78L11.45 17.21Z" fill="#2655AF"/>
<path d="M11.35 17.11L238.29 7.5L234.45 93.07L7.5 102.68L11.35 17.11Z" fill="#2655AF"/>
<path d="M11.25 17.01L238.19 7.40002L234.35 92.97L7.40002 102.58L11.25 17.01Z" fill="#2655AF"/>
<path d="M11.15 16.91L238.09 7.29999L234.25 92.87L7.29999 102.48L11.15 16.91Z" fill="#2655AF"/>
<path d="M11.05 16.81L238 7.20001L234.15 92.77L7.20001 102.38L11.05 16.81Z" fill="#2655AF"/>
<path d="M10.95 16.71L237.9 7.09998L234.05 92.67L7.09998 102.28L10.95 16.71Z" fill="#2655AF"/>
<path d="M10.85 16.61L237.79 7L233.95 92.57L7 102.18L10.85 16.61Z" fill="#2655AF"/>
<path d="M10.75 16.51L237.69 6.90002L233.85 92.47L6.90002 102.08L10.75 16.51Z" fill="#2655AF"/>
<path d="M10.65 16.41L237.59 6.79999L233.75 92.37L6.79999 101.98L10.65 16.41Z" fill="#2655AF"/>
<path d="M10.55 16.31L237.5 6.70001L233.65 92.27L6.70001 101.88L10.55 16.31Z" fill="#2655AF"/>
<path d="M10.45 16.21L237.4 6.59998L233.55 92.17L6.59998 101.78L10.45 16.21Z" fill="#2655AF"/>
<path d="M10.35 16.11L237.29 6.5L233.45 92.07L6.5 101.68L10.35 16.11Z" fill="#2655AF"/>
<path d="M10.25 16.01L237.19 6.40002L233.35 91.97L6.40002 101.58L10.25 16.01Z" fill="#2655AF"/>
<path d="M10.15 15.91L237.09 6.29999L233.25 91.87L6.29999 101.48L10.15 15.91Z" fill="#2655AF"/>
<path d="M10.05 15.81L237 6.20001L233.15 91.77L6.20001 101.38L10.05 15.81Z" fill="#2655AF"/>
<path d="M9.94998 15.71L236.9 6.09998L233.05 91.67L6.09998 101.28L9.94998 15.71Z" fill="#2655AF"/>
<path d="M9.85 15.61L236.79 6L232.95 91.57L6 101.18L9.85 15.61Z" fill="#2655AF"/>
<path d="M9.75002 15.51L236.69 5.90002L232.85 91.47L5.90002 101.08L9.75002 15.51Z" fill="#2655AF"/>
<path d="M9.64999 15.41L236.59 5.79999L232.75 91.37L5.79999 100.98L9.64999 15.41Z" fill="#2655AF"/>
<path d="M9.55001 15.31L236.5 5.70001L232.65 91.27L5.70001 100.88L9.55001 15.31Z" fill="#2655AF"/>
<path d="M9.44998 15.21L236.4 5.59998L232.55 91.17L5.59998 100.78L9.44998 15.21Z" fill="#2655AF"/>
<path d="M9.35 15.11L236.29 5.5L232.45 91.07L5.5 100.68L9.35 15.11Z" fill="#2655AF"/>
<path d="M9.25002 15.01L236.19 5.40002L232.35 90.97L5.40002 100.58L9.25002 15.01Z" fill="#2655AF"/>
<path d="M9.14999 14.91L236.09 5.29999L232.25 90.87L5.29999 100.48L9.14999 14.91Z" fill="#2655AF"/>
<path d="M9.05001 14.81L236 5.20001L232.15 90.77L5.20001 100.38L9.05001 14.81Z" fill="#2655AF"/>
<path d="M8.94998 14.71L235.9 5.09998L232.05 90.67L5.09998 100.28L8.94998 14.71Z" fill="#2655AF"/>
<path d="M8.85 14.61L235.79 5L231.95 90.57L5 100.18L8.85 14.61Z" fill="#2655AF"/>
<path d="M8.75002 14.51L235.69 4.90002L231.85 90.47L4.90002 100.08L8.75002 14.51Z" fill="#2655AF"/>
<path d="M8.64999 14.41L235.59 4.79999L231.75 90.37L4.79999 99.98L8.64999 14.41Z" fill="#2655AF"/>
<path d="M8.55001 14.31L235.5 4.70001L231.65 90.27L4.70001 99.88L8.55001 14.31Z" fill="#2655AF"/>
<path d="M8.44998 14.21L235.4 4.59998L231.55 90.17L4.59998 99.78L8.44998 14.21Z" fill="#2655AF"/>
<path d="M8.35 14.11L235.29 4.5L231.45 90.07L4.5 99.68L8.35 14.11Z" fill="#2655AF"/>
<path d="M8.25002 14.01L235.19 4.40002L231.35 89.97L4.40002 99.58L8.25002 14.01Z" fill="#2655AF"/>
<path d="M8.14999 13.91L235.09 4.29999L231.25 89.87L4.29999 99.48L8.14999 13.91Z" fill="#2655AF"/>
<path d="M8.05001 13.81L235 4.20001L231.15 89.77L4.20001 99.38L8.05001 13.81Z" fill="#2655AF"/>
<path d="M7.94998 13.71L234.9 4.09998L231.05 89.67L4.09998 99.28L7.94998 13.71Z" fill="#2655AF"/>
<path d="M7.85 13.61L234.79 4L230.95 89.57L4 99.18L7.85 13.61Z" fill="#2655AF"/>
<path d="M7.75002 13.51L234.69 3.90002L230.85 89.47L3.90002 99.08L7.75002 13.51Z" fill="#2655AF"/>
<path d="M7.64999 13.41L234.59 3.79999L230.75 89.37L3.79999 98.98L7.64999 13.41Z" fill="#2655AF"/>
<path d="M7.55001 13.31L234.5 3.70001L230.65 89.27L3.70001 98.88L7.55001 13.31Z" fill="#2655AF"/>
<path d="M7.44998 13.21L234.4 3.59998L230.55 89.17L3.59998 98.78L7.44998 13.21Z" fill="#2655AF"/>
<path d="M7.35 13.11L234.29 3.5L230.45 89.07L3.5 98.68L7.35 13.11Z" fill="#2655AF"/>
<path d="M7.25002 13.01L234.19 3.40002L230.35 88.97L3.40002 98.58L7.25002 13.01Z" fill="#2655AF"/>
<path d="M7.14999 12.91L234.09 3.29999L230.25 88.87L3.29999 98.48L7.14999 12.91Z" fill="#2655AF"/>
<path d="M7.05001 12.81L234 3.20001L230.15 88.77L3.20001 98.38L7.05001 12.81Z" fill="#2655AF"/>
<path d="M6.94998 12.71L233.9 3.09998L230.05 88.67L3.09998 98.28L6.94998 12.71Z" fill="#2655AF"/>
<path d="M6.85 12.61L233.79 3L229.95 88.57L3 98.18L6.85 12.61Z" fill="#2655AF"/>
<path d="M6.75002 12.51L233.69 2.90002L229.85 88.47L2.90002 98.08L6.75002 12.51Z" fill="#2655AF"/>
<path d="M6.64999 12.41L233.59 2.79999L229.75 88.37L2.79999 97.98L6.64999 12.41Z" fill="#2655AF"/>
<path d="M6.55001 12.31L233.5 2.70001L229.65 88.27L2.70001 97.88L6.55001 12.31Z" fill="#2655AF"/>
<path d="M6.44998 12.21L233.4 2.59998L229.55 88.17L2.59998 97.78L6.44998 12.21Z" fill="#2655AF"/>
<path d="M6.35 12.11L233.29 2.5L229.45 88.07L2.5 97.68L6.35 12.11Z" fill="#2655AF"/>
<path d="M6.25002 12.01L233.19 2.40002L229.35 87.97L2.40002 97.58L6.25002 12.01Z" fill="#2655AF"/>
<path d="M6.14999 11.91L233.09 2.29999L229.25 87.87L2.29999 97.48L6.14999 11.91Z" fill="#2655AF"/>
<path d="M6.05001 11.81L233 2.20001L229.15 87.77L2.20001 97.38L6.05001 11.81Z" fill="#2655AF"/>
<path d="M5.94998 11.71L232.9 2.09998L229.05 87.67L2.09998 97.28L5.94998 11.71Z" fill="#2655AF"/>
<path d="M5.85 11.61L232.79 2L228.95 87.57L2 97.18L5.85 11.61Z" fill="#2655AF"/>
<path d="M5.75002 11.51L232.69 1.90002L228.85 87.47L1.90002 97.08L5.75002 11.51Z" fill="#2655AF"/>
<path d="M5.64999 11.41L232.59 1.79999L228.75 87.37L1.79999 96.98L5.64999 11.41Z" fill="#2655AF"/>
<path d="M5.55001 11.31L232.5 1.70001L228.65 87.27L1.70001 96.88L5.55001 11.31Z" fill="#2655AF"/>
<path d="M5.44998 11.21L232.4 1.59998L228.55 87.17L1.59998 96.78L5.44998 11.21Z" fill="#2655AF"/>
<path d="M5.35 11.11L232.29 1.5L228.45 87.07L1.5 96.68L5.35 11.11Z" fill="#2655AF"/>
<path d="M5.25002 11.01L232.19 1.40002L228.35 86.97L1.40002 96.58L5.25002 11.01Z" fill="#2655AF"/>
<path d="M5.14999 10.91L232.09 1.29999L228.25 86.87L1.29999 96.48L5.14999 10.91Z" fill="#2655AF"/>
<path d="M5.05001 10.81L232 1.20001L228.15 86.77L1.20001 96.38L5.05001 10.81Z" fill="#2655AF"/>
<path d="M4.94998 10.71L231.9 1.09998L228.05 86.67L1.09998 96.28L4.94998 10.71Z" fill="#2655AF"/>
<path d="M4.85 10.61L231.79 1L227.95 86.57L1 96.18L4.85 10.61Z" fill="#2655AF"/>
<path d="M4.75002 10.51L231.69 0.900024L227.85 86.47L0.900024 96.08L4.75002 10.51Z" fill="#2655AF"/>
<path d="M4.64999 10.41L231.59 0.799988L227.75 86.37L0.799988 95.98L4.64999 10.41Z" fill="#2655AF"/>
<path d="M4.55001 10.31L231.5 0.700012L227.65 86.27L0.700012 95.88L4.55001 10.31Z" fill="#2655AF"/>
<path d="M4.44998 10.21L231.4 0.599976L227.55 86.17L0.599976 95.78L4.44998 10.21Z" fill="#2655AF"/>
<path d="M4.35 10.11L231.29 0.5L227.45 86.07L0.5 95.68L4.35 10.11Z" fill="#2655AF"/>
<path d="M4.25002 10.01L231.19 0.400024L227.35 85.97L0.400024 95.58L4.25002 10.01Z" fill="#2655AF"/>
<path d="M4.14999 9.90999L231.09 0.299988L227.25 85.87L0.299988 95.48L4.14999 9.90999Z" fill="#2655AF"/>
<path d="M4.05001 9.81001L231 0.200012L227.15 85.77L0.200012 95.38L4.05001 9.81001Z" fill="#2655AF"/>
<path d="M3.94998 9.70998L230.9 0.0999756L227.05 85.67L0.0999756 95.28L3.94998 9.70998Z" fill="#2655AF"/>
<path d="M3.85 9.61L230.79 0L226.95 85.57L0 95.18L3.85 9.61Z" fill="#2655AF"/>
<path d="M3.85 9.61L230.79 0L226.95 85.57L0 95.18L3.85 9.61Z" fill="#153260"/>
<path d="M225.99 84.61L1.04999 94.14L4.79999 10.57L229.75 1.03998L225.99 84.61Z" fill="#2655AF"/>
<path d="M19 34.93L25.87 34.68L26.61 61.68L19.74 61.93L19 34.93Z" fill="#F5F5F5"/>
<path d="M52.48 33.32L53.24 60.69L46.36 60.93L34.66 46.26L35.34 61.26L28.47 61.75L27.24 34.11H34.13L46 48.67L45.58 33.81L52.48 33.32Z" fill="#F5F5F5"/>
<path d="M67.75 34.94C70.2912 36.0764 72.5057 37.8337 74.19 40.05C75.8362 42.1921 76.7637 44.7995 76.84 47.5C76.9867 51.7267 75.56 54.9367 72.56 57.13C69.56 59.3234 65.4633 60.51 60.27 60.69C58.209 60.7638 56.1455 60.717 54.09 60.55L53.46 34.84C54.421 34.367 55.4257 33.9885 56.46 33.71C57.4415 33.4586 58.4474 33.3144 59.46 33.28C62.3162 33.1642 65.1586 33.7334 67.75 34.94ZM69.1 46.68C69.094 45.546 68.7066 44.447 68 43.56C67.2949 42.6683 66.367 41.9784 65.31 41.56C64.2587 41.1414 63.1305 40.9505 62 41C61.4977 41.0065 60.9978 41.0703 60.51 41.19L60.94 53.19C66.5333 53.1034 69.2533 50.9334 69.1 46.68Z" fill="#F5F5F5"/>
<path d="M97.28 51.6L97.54 58.69L78.83 59.78L77 32.87L95.69 31.61L96.44 38.68L84.44 39.25L84.66 42L94.66 41.44L95.26 48.51L85.38 49.08L85.68 52.44L97.28 51.6Z" fill="#F5F5F5"/>
<path d="M112.87 48.82L104.87 48.25L105.25 58.81L98.16 59.06L97.16 32.19L104.25 31.94L104.58 41.19L112.52 41.73L112.09 31.73L119.18 31.33L120.32 58.52L113.23 58.73L112.87 48.82Z" fill="#F5F5F5"/>
<path d="M128.4 56.34C126.24 55.1672 124.405 53.4766 123.06 51.42C121.737 49.4501 120.991 47.1497 120.907 44.7785C120.822 42.4072 121.401 40.0594 122.58 38C123.783 35.8794 125.503 34.0975 127.58 32.82C129.625 31.5215 131.979 30.793 134.4 30.71C136.794 30.6264 139.166 31.1858 141.27 32.33C143.398 33.4634 145.207 35.1141 146.53 37.13C147.85 39.1109 148.591 41.4209 148.67 43.8C148.746 46.1895 148.169 48.5544 147 50.64C145.834 52.7775 144.145 54.5839 142.09 55.89C140.078 57.1962 137.747 57.926 135.35 58C132.925 58.0931 130.521 57.5189 128.4 56.34ZM138.31 49.94C139.32 49.3274 140.156 48.4668 140.74 47.44C141.33 46.3927 141.614 45.2008 141.56 44C141.528 42.8215 141.16 41.6766 140.5 40.7C139.844 39.7339 138.939 38.9633 137.88 38.47C136.765 37.9465 135.54 37.7028 134.31 37.76C133.136 37.804 131.993 38.1483 130.99 38.76C130.024 39.3314 129.235 40.1585 128.71 41.15C128.175 42.1826 127.923 43.3385 127.98 44.5C128.005 45.7084 128.35 46.8886 128.98 47.92C129.573 48.9058 130.424 49.7113 131.44 50.25C132.505 50.7976 133.694 51.0562 134.89 51C136.102 50.9442 137.279 50.5793 138.31 49.94Z" fill="#F5F5F5"/>
<path d="M154.88 55.49C152.991 54.099 151.543 52.1928 150.71 50C149.627 47.256 149.048 44.3394 149 41.39C148.838 37.6587 149.174 33.9224 150 30.28L157.69 31.86C157.477 33.0678 157.33 34.2863 157.25 35.51C157.15 36.83 157.06 38.51 156.97 40.51L156.9 41.51C157.1 47.3233 158.397 50.1867 160.79 50.1C163.183 50.0133 164.25 47.1233 163.99 41.43C163.889 39.9471 163.682 38.4733 163.37 37.02C163.016 35.1199 162.558 33.2404 162 31.39L169.49 29C170.956 32.8896 171.738 37.0037 171.8 41.16C171.964 43.9805 171.594 46.8066 170.71 49.49C170.024 51.6709 168.738 53.6149 167 55.1C165.324 56.4443 163.248 57.1904 161.1 57.22C158.892 57.3554 156.701 56.7462 154.88 55.49Z" fill="#F5F5F5"/>
<path d="M176.6 55.34C174.776 54.6471 173.127 53.5614 171.77 52.16L176.37 46.74C177.142 47.5588 178.075 48.2091 179.11 48.65C180.095 49.0843 181.164 49.296 182.24 49.27C183.045 49.2739 183.837 49.0596 184.53 48.65C184.771 48.5326 184.975 48.3528 185.123 48.1295C185.271 47.9062 185.356 47.6474 185.37 47.38C185.37 46.91 185.06 46.58 184.48 46.38C183.763 46.1729 183.015 46.0917 182.27 46.14C180.594 46.2118 178.925 45.897 177.39 45.22C175.944 44.5792 174.687 43.577 173.74 42.31C172.813 41.0607 172.296 39.5551 172.26 38C172.186 36.403 172.612 34.8227 173.48 33.48C174.381 32.1015 175.625 30.9814 177.09 30.23C178.659 29.4124 180.392 28.9611 182.16 28.91C184.034 28.8483 185.901 29.1506 187.66 29.8C189.437 30.4508 191.065 31.4504 192.45 32.74L188.63 38.3C186.791 36.8973 184.552 36.1194 182.24 36.08C181.456 36.0869 180.683 36.2715 179.98 36.62C179.36 36.95 179.05 37.33 179.07 37.75C179.09 38.17 179.47 38.53 180.24 38.75C181.123 38.9616 182.033 39.0424 182.94 38.99C184.67 38.9037 186.4 39.1445 188.04 39.7C189.455 40.1716 190.704 41.0393 191.64 42.2C192.56 43.3962 193.062 44.861 193.07 46.37C193.142 48.1107 192.678 49.8316 191.74 51.3C190.766 52.8215 189.425 54.0733 187.84 54.94C186.177 55.8548 184.318 56.3556 182.42 56.4C180.427 56.4577 178.445 56.0966 176.6 55.34Z" fill="#F5F5F5"/>
<path d="M213.41 47.49L213.66 54.58L195 55.67L193.12 28.76L211.82 27.49L212.57 34.56L200.57 35.13L200.81 37.93L210.81 37.36L211.42 44.44L201.54 45L201.83 48.36L213.41 47.49Z" fill="#F5F5F5"/>
<path d="M18.01 33.96L26.88 33.65L27.68 62.6L18.81 62.91L18.01 33.96Z" fill="#153260"/>
<path d="M26.19 33.1L34.6 33.15L44.95 45.77L44.59 32.88L53.45 32.25L54.27 61.65L45.9 61.95L35.8 49.29L36.38 62.22L27.52 62.85L26.19 33.1Z" fill="#153260"/>
<path d="M58.33 61.72C56.89 61.72 55.43 61.72 54.01 61.55L53.11 61.48L52.44 34.22L53.03 33.94C54.0595 33.4392 55.1344 33.0374 56.24 32.74C57.3092 32.464 58.4061 32.3096 59.51 32.28H60.2C62.9627 32.2797 65.6925 32.8802 68.2 34.04C70.8808 35.2507 73.2178 37.11 75 39.45C76.7601 41.7547 77.7565 44.5516 77.85 47.45C78 52 76.42 55.55 73.15 57.94C69.88 60.33 65.68 61.5 60.3 61.69C59.64 61.71 59 61.72 58.33 61.72ZM61.85 52.14C64.25 52 66 51.37 67 50.32C67.4273 49.8286 67.7491 49.2545 67.9452 48.6335C68.1413 48.0125 68.2076 47.3578 68.14 46.71C68.1289 45.7885 67.8084 44.8975 67.23 44.18C66.6222 43.4342 65.8339 42.8559 64.94 42.5C64.0752 42.1557 63.1508 41.9857 62.22 42H62C61.8368 41.9895 61.6732 41.9895 61.51 42L61.85 52.14Z" fill="#153260"/>
<path d="M75.89 31.95L96.55 30.55L97.5 39.63L85.51 40.2L85.58 40.99L95.53 40.42L96.31 49.49L86.43 50.06L86.55 51.41L98.25 50.53L98.57 59.63L77.9 60.84L75.89 31.95Z" fill="#153260"/>
<path d="M96.2 31.23L105.29 30.91L105.62 40.25L111.54 40.65L111.12 30.83L120.2 30.32L121.43 59.53L112.34 59.8L111.91 49.75L105.94 49.32L106.31 59.77L97.22 60.1L96.2 31.23Z" fill="#153260"/>
<path d="M134.86 59C132.428 58.9943 130.038 58.3642 127.92 57.17C125.627 55.9404 123.673 54.1647 122.23 52C120.796 49.8643 119.985 47.3709 119.89 44.8C119.799 42.2376 120.429 39.7012 121.71 37.48C122.985 35.2163 124.803 33.3055 127 31.92C129.192 30.5284 131.715 29.7481 134.31 29.66H134.84C137.233 29.6633 139.588 30.2649 141.69 31.41C143.966 32.6226 145.902 34.3864 147.32 36.54C148.733 38.6759 149.529 41.1605 149.62 43.72C149.715 46.3062 149.099 48.869 147.84 51.13C146.591 53.4098 144.789 55.3389 142.6 56.74C140.435 58.1471 137.93 58.9419 135.35 59.04L134.86 59ZM134.34 38.72C133.339 38.7404 132.361 39.0194 131.5 39.53C130.691 40.008 130.03 40.7001 129.59 41.53C129.14 42.4063 128.93 43.3861 128.98 44.37C129.001 45.4061 129.291 46.419 129.82 47.31C130.315 48.1565 131.035 48.8489 131.9 49.31C132.729 49.7448 133.654 49.9648 134.59 49.95H134.85C135.889 49.9195 136.902 49.6197 137.79 49.08C138.659 48.5614 139.376 47.8234 139.87 46.94C140.368 46.0572 140.607 45.0522 140.56 44.04C140.54 43.0495 140.231 42.0865 139.67 41.27C139.116 40.4474 138.348 39.7907 137.45 39.37C136.565 38.9558 135.597 38.7473 134.62 38.76L134.34 38.72Z" fill="#153260"/>
<path d="M160.64 58.23C158.381 58.2652 156.168 57.5939 154.31 56.31C152.269 54.813 150.7 52.7618 149.79 50.4C148.668 47.53 148.072 44.4813 148.03 41.4C147.87 37.5768 148.223 33.7493 149.08 30.02L149.3 29.08L158.89 31.08L158.72 32.08C158.519 33.2553 158.379 34.4403 158.3 35.63C158.2 36.94 158.11 38.63 158.01 40.63L157.95 41.63C158.05 44.49 158.56 49.21 160.73 49.21C161.1 49.21 161.88 49.21 162.45 47.64C163.01 45.6447 163.196 43.5631 163 41.5C162.902 40.0675 162.701 38.6439 162.4 37.24C162.047 35.3744 161.596 33.5286 161.05 31.71L160.77 30.77L170.03 27.77L170.38 28.64C171.879 32.6373 172.684 36.8615 172.76 41.13C172.922 44.0756 172.536 47.0257 171.62 49.83C170.867 52.1616 169.483 54.2386 167.62 55.83C165.775 57.3142 163.488 58.1411 161.12 58.18L160.64 58.23Z" fill="#153260"/>
<path d="M182 57.4C180.039 57.3878 178.098 57.0044 176.28 56.27C174.288 55.5363 172.484 54.368 171 52.85L170.38 52.19L176 45.62C174.806 44.9351 173.764 44.0128 172.94 42.91C171.891 41.5026 171.304 39.8047 171.26 38.05C171.187 36.2644 171.669 34.5001 172.64 33C173.639 31.4741 175.018 30.2336 176.64 29.4C178.337 28.5112 180.215 28.022 182.13 27.97H182.68C184.501 27.99 186.305 28.3284 188.01 28.97C189.9 29.6314 191.641 30.6613 193.13 32L193.76 32.59L189.29 39.11C190.513 39.6659 191.589 40.5017 192.43 41.55C193.475 42.9188 194.05 44.5882 194.07 46.31C194.146 48.2493 193.626 50.1654 192.58 51.8C191.525 53.4756 190.059 54.8527 188.32 55.8C186.521 56.788 184.512 57.333 182.46 57.39L182 57.4ZM177.3 46.27C177.942 46.8868 178.691 47.3815 179.51 47.73C180.294 48.079 181.142 48.2629 182 48.27H182.21C182.831 48.2787 183.442 48.1197 183.98 47.81C184.25 47.64 184.37 47.49 184.37 47.42C184.304 47.382 184.233 47.3519 184.16 47.33C183.666 47.1873 183.153 47.1232 182.64 47.14H181.83C180.278 47.149 178.739 46.8534 177.3 46.27ZM183.56 37.97C184.587 37.9675 185.612 38.0646 186.62 38.26C185.361 37.5443 183.947 37.1461 182.5 37.1H182.27C181.638 37.1015 181.016 37.2487 180.45 37.53L180.19 37.68L180.49 37.78C181.146 37.9315 181.817 38.002 182.49 37.99H182.93L183.56 37.97Z" fill="#153260"/>
<path d="M192.02 27.83L212.67 26.43L213.63 35.51L201.64 36.08L201.7 36.87L211.66 36.31L212.43 45.38L202.56 45.94L202.67 47.29L214.37 46.41L214.7 55.52L194.03 56.72L192.02 27.83Z" fill="#153260"/>
<path d="M19 34.93L25.87 34.68L26.61 61.68L19.74 61.93L19 34.93Z" fill="#F5F5F5"/>
<path d="M52.48 33.32L53.24 60.69L46.36 60.93L34.66 46.26L35.34 61.26L28.47 61.75L27.24 34.11H34.13L46 48.67L45.58 33.81L52.48 33.32Z" fill="#F5F5F5"/>
<path d="M67.75 34.94C70.2912 36.0764 72.5057 37.8337 74.19 40.05C75.8362 42.1921 76.7637 44.7995 76.84 47.5C76.9867 51.7267 75.56 54.9367 72.56 57.13C69.56 59.3234 65.4633 60.51 60.27 60.69C58.209 60.7638 56.1455 60.717 54.09 60.55L53.46 34.84C54.421 34.367 55.4257 33.9885 56.46 33.71C57.4415 33.4586 58.4474 33.3144 59.46 33.28C62.3162 33.1642 65.1586 33.7334 67.75 34.94ZM69.1 46.68C69.094 45.546 68.7066 44.447 68 43.56C67.2949 42.6683 66.367 41.9784 65.31 41.56C64.2587 41.1414 63.1305 40.9505 62 41C61.4977 41.0065 60.9978 41.0703 60.51 41.19L60.94 53.19C66.5333 53.1034 69.2533 50.9334 69.1 46.68Z" fill="#F5F5F5"/>
<path d="M97.28 51.6L97.54 58.69L78.83 59.78L77 32.87L95.69 31.61L96.44 38.68L84.44 39.25L84.66 42L94.66 41.44L95.26 48.51L85.38 49.08L85.68 52.44L97.28 51.6Z" fill="#F5F5F5"/>
<path d="M112.87 48.82L104.87 48.25L105.25 58.81L98.16 59.06L97.16 32.19L104.25 31.94L104.58 41.19L112.52 41.73L112.09 31.73L119.18 31.33L120.32 58.52L113.23 58.73L112.87 48.82Z" fill="#F5F5F5"/>
<path d="M128.4 56.34C126.24 55.1672 124.405 53.4766 123.06 51.42C121.737 49.4501 120.991 47.1497 120.907 44.7785C120.822 42.4072 121.401 40.0594 122.58 38C123.783 35.8794 125.503 34.0975 127.58 32.82C129.625 31.5215 131.979 30.793 134.4 30.71C136.794 30.6264 139.166 31.1858 141.27 32.33C143.398 33.4634 145.207 35.1141 146.53 37.13C147.85 39.1109 148.591 41.4209 148.67 43.8C148.746 46.1895 148.169 48.5544 147 50.64C145.834 52.7775 144.145 54.5839 142.09 55.89C140.078 57.1962 137.747 57.926 135.35 58C132.925 58.0931 130.521 57.5189 128.4 56.34ZM138.31 49.94C139.32 49.3274 140.156 48.4668 140.74 47.44C141.33 46.3927 141.614 45.2008 141.56 44C141.528 42.8215 141.16 41.6766 140.5 40.7C139.844 39.7339 138.939 38.9633 137.88 38.47C136.765 37.9465 135.54 37.7028 134.31 37.76C133.136 37.804 131.993 38.1483 130.99 38.76C130.024 39.3314 129.235 40.1585 128.71 41.15C128.175 42.1826 127.923 43.3385 127.98 44.5C128.005 45.7084 128.35 46.8886 128.98 47.92C129.573 48.9058 130.424 49.7113 131.44 50.25C132.505 50.7976 133.694 51.0562 134.89 51C136.102 50.9442 137.279 50.5793 138.31 49.94Z" fill="#F5F5F5"/>
<path d="M154.88 55.49C152.991 54.099 151.543 52.1928 150.71 50C149.627 47.256 149.048 44.3394 149 41.39C148.838 37.6587 149.174 33.9224 150 30.28L157.69 31.86C157.477 33.0678 157.33 34.2863 157.25 35.51C157.15 36.83 157.06 38.51 156.97 40.51L156.9 41.51C157.1 47.3233 158.397 50.1867 160.79 50.1C163.183 50.0133 164.25 47.1233 163.99 41.43C163.889 39.9471 163.682 38.4733 163.37 37.02C163.016 35.1199 162.558 33.2404 162 31.39L169.49 29C170.956 32.8896 171.738 37.0037 171.8 41.16C171.964 43.9805 171.594 46.8066 170.71 49.49C170.024 51.6709 168.738 53.6149 167 55.1C165.324 56.4443 163.248 57.1904 161.1 57.22C158.892 57.3554 156.701 56.7462 154.88 55.49Z" fill="#F5F5F5"/>
<path d="M176.6 55.34C174.776 54.6471 173.127 53.5614 171.77 52.16L176.37 46.74C177.142 47.5588 178.075 48.2091 179.11 48.65C180.095 49.0843 181.164 49.296 182.24 49.27C183.045 49.2739 183.837 49.0596 184.53 48.65C184.771 48.5326 184.975 48.3528 185.123 48.1295C185.271 47.9062 185.356 47.6474 185.37 47.38C185.37 46.91 185.06 46.58 184.48 46.38C183.763 46.1729 183.015 46.0917 182.27 46.14C180.594 46.2118 178.925 45.897 177.39 45.22C175.944 44.5792 174.687 43.577 173.74 42.31C172.813 41.0607 172.296 39.5551 172.26 38C172.186 36.403 172.612 34.8227 173.48 33.48C174.381 32.1015 175.625 30.9814 177.09 30.23C178.659 29.4124 180.392 28.9611 182.16 28.91C184.034 28.8483 185.901 29.1506 187.66 29.8C189.437 30.4508 191.065 31.4504 192.45 32.74L188.63 38.3C186.791 36.8973 184.552 36.1194 182.24 36.08C181.456 36.0869 180.683 36.2715 179.98 36.62C179.36 36.95 179.05 37.33 179.07 37.75C179.09 38.17 179.47 38.53 180.24 38.75C181.123 38.9616 182.033 39.0424 182.94 38.99C184.67 38.9037 186.4 39.1445 188.04 39.7C189.455 40.1716 190.704 41.0393 191.64 42.2C192.56 43.3962 193.062 44.861 193.07 46.37C193.142 48.1107 192.678 49.8316 191.74 51.3C190.766 52.8215 189.425 54.0733 187.84 54.94C186.177 55.8548 184.318 56.3556 182.42 56.4C180.427 56.4577 178.445 56.0966 176.6 55.34Z" fill="#F5F5F5"/>
<path d="M213.41 47.49L213.66 54.58L195 55.67L193.12 28.76L211.82 27.49L212.57 34.56L200.57 35.13L200.81 37.93L210.81 37.36L211.42 44.44L201.54 45L201.83 48.36L213.41 47.49Z" fill="#F5F5F5"/>
</g>
<defs>
<clipPath id="clip0_0_9302">
<rect width="254.79" height="119.18" fill="white"/>
</clipPath>
</defs>
</svg>
