<svg width="162" height="162" viewBox="0 0 162 162" fill="none" xmlns="http://www.w3.org/2000/svg">
<g clip-path="url(#clip0_0_9576)">
<path d="M161.48 80.74C161.48 96.7089 156.745 112.319 147.873 125.597C139.001 138.874 126.391 149.223 111.638 155.334C96.8846 161.445 80.6505 163.044 64.9884 159.929C49.3264 156.813 34.9399 149.123 23.6482 137.832C12.3565 126.54 4.6668 112.154 1.55143 96.4916C-1.56394 80.8296 0.0349832 64.5954 6.146 49.8421C12.257 35.0888 22.6057 22.479 35.8833 13.6071C49.1609 4.73532 64.7712 0 80.74 0C102.146 0.0238215 122.669 8.53798 137.806 23.6745C152.942 38.811 161.456 59.3337 161.48 80.74Z" fill="#EF5A22"/>
<path d="M80.74 8C100.035 8 118.539 15.6647 132.182 29.308C145.825 42.9513 153.49 61.4555 153.49 80.75C153.49 100.045 145.825 118.549 132.182 132.192C118.539 145.835 100.035 153.5 80.74 153.5C68.83 141.94 59.44 128.16 60.74 113.38C62.94 87.38 96.27 78.9 99.74 51.92C101.15 40.51 97.26 26 80.74 8Z" fill="#EF5A22"/>
<path d="M80.74 8C97.26 26 101.15 40.52 99.74 51.92C96.28 78.92 62.95 87.41 60.74 113.38C59.48 128.16 68.87 141.94 80.74 153.5C61.4455 153.5 42.9412 145.835 29.298 132.192C15.6547 118.549 7.98999 100.045 7.98999 80.75C7.98999 61.4555 15.6547 42.9513 29.298 29.308C42.9412 15.6647 61.4455 8 80.74 8Z" fill="#F9B75C"/>
<path d="M103.15 127.67C107.712 127.67 111.41 123.972 111.41 119.41C111.41 114.848 107.712 111.15 103.15 111.15C98.5881 111.15 94.89 114.848 94.89 119.41C94.89 123.972 98.5881 127.67 103.15 127.67Z" fill="#F9B75C"/>
<path d="M53.98 51.98C58.5419 51.98 62.24 48.2819 62.24 43.72C62.24 39.1582 58.5419 35.46 53.98 35.46C49.4181 35.46 45.72 39.1582 45.72 43.72C45.72 48.2819 49.4181 51.98 53.98 51.98Z" fill="#EF5A22"/>
</g>
<defs>
<clipPath id="clip0_0_9576">
<rect width="161.48" height="161.48" fill="white"/>
</clipPath>
</defs>
</svg>
