<svg width="113" height="158" viewBox="0 0 113 158" fill="none" xmlns="http://www.w3.org/2000/svg">
<g clip-path="url(#clip0_0_9585)">
<path d="M56.47 157.63L110.87 14.09H2.06999L56.47 157.63Z" fill="#FFC02E"/>
<path d="M6.78 23.24C3.47 23.24 0.569999 20 0.069999 15.43C-0.480001 10.43 2.07 5.78001 5.79 5.04001C22.1817 1.7568 38.8529 0.068915 55.57 1.23011e-05H56.45C73.4733 -0.00523696 90.4556 1.66955 107.15 5.00001C110.86 5.74001 113.41 10.39 112.87 15.39C112.33 20.39 108.87 23.84 105.16 23.1C73.021 16.6446 39.919 16.6446 7.78 23.1C7.45143 23.176 7.1168 23.2228 6.78 23.24Z" fill="#EE5A1E"/>
<path d="M37.85 56.26C43.8036 56.26 48.63 51.4336 48.63 45.48C48.63 39.5264 43.8036 34.7 37.85 34.7C31.8964 34.7 27.07 39.5264 27.07 45.48C27.07 51.4336 31.8964 56.26 37.85 56.26Z" fill="#EE5A1E"/>
<path d="M76.08 72.71C82.0336 72.71 86.86 67.8837 86.86 61.93C86.86 55.9764 82.0336 51.15 76.08 51.15C70.1264 51.15 65.3 55.9764 65.3 61.93C65.3 67.8837 70.1264 72.71 76.08 72.71Z" fill="#EE5A1E"/>
<path d="M54.51 104.89C60.4636 104.89 65.29 100.064 65.29 94.11C65.29 88.1564 60.4636 83.33 54.51 83.33C48.5564 83.33 43.73 88.1564 43.73 94.11C43.73 100.064 48.5564 104.89 54.51 104.89Z" fill="#EE5A1E"/>
</g>
<defs>
<clipPath id="clip0_0_9585">
<rect width="112.94" height="157.63" fill="white"/>
</clipPath>
</defs>
</svg>
