<svg width="205" height="142" viewBox="0 0 205 142" fill="none" xmlns="http://www.w3.org/2000/svg">
<g clip-path="url(#clip0_0_9594)">
<path d="M3.49 24.16L16.37 6.25002L48.01 29.01L84.07 3.08002L120.13 29.01L156.19 3.08002L200.72 35.1L187.84 53.01L156.19 30.25L120.13 56.18L84.07 30.25L48.01 56.18L3.49 24.16Z" fill="#DE6F1E"/>
<path d="M156.19 6.16L197.19 35.67L187.19 49.52L156.19 27.17L120.13 53.1L84.07 27.17L48 53.1L7 23.59L17 9.74L48 32.09L84.07 6.16L120.13 32.09L156.19 6.16ZM84.07 0L81.15 2.1L48 25.93L19.86 5.68L15.8 2.76L12.88 6.82L2.88 20.67L0 24.73L4.06 27.65L45.06 57.16L48 59.26L50.92 57.16L84.07 33.33L117.21 57.16L120.13 59.26L123.05 57.16L156.19 33.33L184.35 53.58L188.41 56.5L191.33 52.44L201.33 38.59L204.25 34.53L200.19 31.61L159.19 2.1L156.19 0L153.27 2.1L120.13 25.93L87 2.1L84.07 0Z" fill="#F5F5F5"/>
<path d="M3.49 65.17L16.37 47.26L48.01 70.02L84.07 44.09L120.13 70.02L156.19 44.09L200.72 76.11L187.84 94.02L156.19 71.26L120.13 97.19L84.07 71.26L48.01 97.19L3.49 65.17Z" fill="#ECB117"/>
<path d="M156.19 47.17L197.19 76.68L187.19 90.53L156.19 68.18L120.13 94.11L84.07 68.18L48 94.11L7 64.6L17 50.75L48 73.1L84.07 47.17L120.13 73.1L156.19 47.17ZM84.07 41L81.15 43.1L48 66.94L19.86 46.69L15.8 43.77L12.88 47.83L2.88 61.68L0 65.74L4.06 68.66L45.06 98.17L47.98 100.27L50.9 98.17L84.07 74.34L117.21 98.17L120.13 100.27L123.05 98.17L156.19 74.34L184.35 94.59L188.41 97.51L191.33 93.45L201.33 79.6L204.25 75.54L200.19 72.62L159.19 43.11L156.19 41L153.27 43.1L120.13 66.94L87 43.11L84.07 41Z" fill="#F5F5F5"/>
<path d="M3.49 106.18L16.37 88.27L48.01 111.03L84.07 85.1L120.13 111.03L156.19 85.1L200.72 117.12L187.84 135.03L156.19 112.27L120.13 138.2L84.07 112.27L48.01 138.2L3.49 106.18Z" fill="#DE6F1E"/>
<path d="M156.19 88.18L197.19 117.69L187.19 131.54L156.11 109.19L120.05 135.12L84.07 109.19L48 135.12L7 105.61L17 91.76L48 114.11L84.07 88.18L120.13 114.11L156.19 88.18ZM84.07 82L81.15 84.1L48 108L19.86 87.7L15.8 84.78L12.88 88.84L2.88 102.69L0 106.75L4.06 109.67L45.06 139.18L47.98 141.28L50.9 139.18L84.04 115.35L117.18 139.18L120.1 141.28L123.02 139.18L156.16 115.35L184.32 135.6L188.38 138.52L191.3 134.46L201.3 120.61L204.22 116.55L200.16 113.63L159.16 84.12L156.19 82L153.27 84.1L120.13 108L87 84.12L84.07 82Z" fill="#F5F5F5"/>
</g>
<defs>
<clipPath id="clip0_0_9594">
<rect width="204.21" height="141.28" fill="white"/>
</clipPath>
</defs>
</svg>
