<svg width="176" height="176" viewBox="0 0 176 176" fill="none" xmlns="http://www.w3.org/2000/svg">
<g clip-path="url(#clip0_0_9604)">
<path d="M23.92 175.09C17.5825 175.069 11.5106 172.542 7.0293 168.061C2.548 163.579 0.02109 157.507 0 151.17L0 87.54C0.246422 64.4837 9.5784 42.4554 25.9695 26.2385C42.3606 10.0217 64.4874 0.925659 87.545 0.925659C110.603 0.925659 132.729 10.0217 149.12 26.2385C165.512 42.4554 174.844 64.4837 175.09 87.54V151.17C175.069 157.507 172.542 163.579 168.061 168.061C163.579 172.542 157.507 175.069 151.17 175.09H23.92Z" fill="#F9B75C"/>
<path d="M23.92 172.75C18.1982 172.745 12.7124 170.469 8.66648 166.423C4.62059 162.378 2.34529 156.892 2.34 151.17V87.54C2.58308 65.1021 11.6671 43.6657 27.6197 27.885C43.5723 12.1043 65.1058 3.25305 87.545 3.25305C109.984 3.25305 131.518 12.1043 147.47 27.885C163.423 43.6657 172.507 65.1021 172.75 87.54V151.17C172.745 156.892 170.469 162.378 166.424 166.423C162.378 170.469 156.892 172.745 151.17 172.75H23.92Z" fill="#EA5A42"/>
<path d="M87.54 4.69C109.516 4.69 130.592 13.4199 146.131 28.9591C161.67 44.4984 170.4 65.5742 170.4 87.55V151.17C170.4 156.27 168.374 161.161 164.768 164.768C161.161 168.374 156.27 170.4 151.17 170.4H23.92C18.8199 170.4 13.9287 168.374 10.3223 164.768C6.71601 161.161 4.69 156.27 4.69 151.17V87.55C4.69 65.5759 13.4185 44.5016 28.9556 28.9627C44.4927 13.4237 65.5659 4.69265 87.54 4.69Z" fill="#F9B75C"/>
<path d="M41.54 56.36L46.87 59.7L44.79 63L39.17 59.48L30.86 60.24L31.61 55.87L37.1 55.66L34.89 50.66L37.78 47.86L41.54 56.36Z" fill="#EA5A42"/>
<path d="M50.36 53.62C49.0397 53.9208 47.6654 53.8898 46.36 53.53C45.0902 53.1998 43.9388 52.5194 43.037 51.5664C42.1353 50.6134 41.5195 49.4261 41.26 48.14C40.9741 46.814 41.0326 45.4369 41.43 44.14C41.7929 42.868 42.4824 41.713 43.43 40.79C44.4103 39.8891 45.6163 39.2705 46.92 39C48.2117 38.6927 49.5601 38.7168 50.84 39.07C52.1092 39.4126 53.2564 40.1057 54.15 41.07C55.0694 42.0222 55.7094 43.2087 56 44.5C56.3076 45.8212 56.2662 47.1997 55.88 48.5C55.5266 49.7811 54.8274 50.9403 53.8591 51.8504C52.8907 52.7606 51.6905 53.3866 50.39 53.66L50.36 53.62ZM52.13 47.37C52.3197 46.7475 52.3506 46.0875 52.22 45.45C52.0823 44.8033 51.7672 44.2077 51.31 43.73C50.8715 43.2451 50.3019 42.8977 49.67 42.73C49.0521 42.5551 48.3979 42.5551 47.78 42.73C47.1244 42.9101 46.5256 43.2542 46.04 43.73C45.5743 44.1722 45.23 44.7266 45.04 45.34C44.8439 45.9239 44.8162 46.5511 44.96 47.15C45.1134 47.7725 45.4311 48.3423 45.88 48.8C46.3299 49.2892 46.8981 49.6542 47.53 49.86C48.1363 50.0493 48.7828 50.0701 49.4 49.92C50.0387 49.7597 50.6246 49.4357 51.1 48.98C51.5719 48.5374 51.9259 47.984 52.13 47.37Z" fill="#EA5A42"/>
<path d="M61.09 44.81C59.8198 44.5756 58.6434 43.9822 57.7 43.1C56.5026 42.0032 55.5133 40.6989 54.78 39.25C53.8023 37.4382 53.0692 35.5046 52.6 33.5L56.78 32.42C56.96 33.02 57.18 33.66 57.45 34.33C57.72 35 58.08 35.86 58.52 36.88L58.73 37.4C60.24 40.23 61.57 41.33 62.73 40.72C63.89 40.11 63.73 38.42 62.23 35.65C61.8192 34.9507 61.358 34.2822 60.85 33.65C60.2298 32.7933 59.5621 31.972 58.85 31.19L61.96 28.19C63.6108 29.7602 64.9776 31.604 66 33.64C66.7553 34.9908 67.2569 36.4685 67.48 38C67.6596 39.2428 67.4863 40.511 66.98 41.66C66.4791 42.7347 65.6299 43.6086 64.57 44.14C63.5176 44.7462 62.2923 44.9821 61.09 44.81Z" fill="#EA5A42"/>
<path d="M77.59 38.21C76.4146 37.6572 75.3967 36.8182 74.6297 35.7699C73.8627 34.7216 73.3711 33.4976 73.2 32.21C73.0138 30.9009 73.1902 29.5658 73.71 28.35C74.216 27.1664 75.0185 26.1332 76.04 25.35C77.0626 24.5175 78.2939 23.9814 79.6 23.8C80.5631 23.6729 81.5419 23.7375 82.48 23.99C83.4136 24.2481 84.2757 24.7168 85 25.36C85.7774 26.061 86.3743 26.9392 86.74 27.92L83.51 29.38C83.2024 28.8112 82.7277 28.3505 82.15 28.06C81.5018 27.7005 80.7525 27.5668 80.02 27.68C79.111 27.7668 78.2716 28.2044 77.68 28.9C77.3848 29.283 77.1749 29.7248 77.0645 30.1957C76.9541 30.6666 76.9458 31.1556 77.04 31.63C77.1136 32.3237 77.3612 32.9876 77.76 33.56C78.1151 34.0587 78.6039 34.4469 79.17 34.68C79.7218 34.9004 80.3216 34.9728 80.91 34.89C81.4323 34.8271 81.9325 34.6421 82.37 34.35C82.7636 34.0829 83.1029 33.7436 83.37 33.35C83.6012 33.0358 83.7585 32.6734 83.83 32.29L87.13 32.97C87.084 33.9202 86.7798 34.8399 86.25 35.63C85.6881 36.4849 84.9478 37.2082 84.08 37.75C83.2051 38.2909 82.2218 38.6323 81.2 38.75C79.9698 38.9157 78.7179 38.7284 77.59 38.21Z" fill="#EA5A42"/>
<path d="M96.69 35.72L91.77 35.09L90.14 38L86.46 36L94.46 23.82L98.33 24.34L101.18 38.67L97.18 39.12L96.69 35.72ZM96.12 31.72L95.62 28.12L93.8 31.42L96.12 31.72Z" fill="#EA5A42"/>
<path d="M119.26 31.11L113.2 44.92L109.72 43.43L107.34 33.37L104.14 41L100.61 39.63L106.5 25.56L109.92 27.2L112.44 37.2L115.72 29.7L119.26 31.11Z" fill="#EA5A42"/>
<path d="M128.51 47.21C128.918 47.5884 129.198 48.0848 129.31 48.63C129.428 49.2135 129.387 49.818 129.19 50.38C128.984 51.0127 128.643 51.5929 128.19 52.08C127.738 52.5964 127.147 52.9712 126.487 53.1593C125.827 53.3473 125.126 53.3406 124.47 53.14C122.49 52.4413 120.705 51.2829 119.26 49.76L117.09 47.76L126.84 37.41C127.568 37.602 128.249 37.9425 128.84 38.41C129.585 38.9567 130.296 39.5477 130.97 40.18C131.556 40.723 132.026 41.3797 132.35 42.11C132.672 42.7836 132.829 43.5238 132.81 44.27C132.802 44.9278 132.549 45.5591 132.1 46.04C131.591 46.6038 130.926 47.004 130.19 47.19C129.858 47.2938 129.508 47.3252 129.163 47.2821C128.818 47.239 128.486 47.1223 128.19 46.94C128.302 47.0232 128.409 47.1134 128.51 47.21ZM124.14 49.28C124.383 49.3191 124.632 49.2986 124.865 49.2202C125.099 49.1418 125.31 49.0079 125.48 48.83C125.614 48.69 125.712 48.5191 125.764 48.3325C125.816 48.1459 125.822 47.9492 125.78 47.76C125.688 47.3222 125.452 46.9279 125.11 46.64C124.767 46.3288 124.351 46.1087 123.9 46L122.12 47.92C122.236 48.1687 122.399 48.3928 122.6 48.58C123.023 48.9753 123.564 49.2211 124.14 49.28ZM129.28 43.13C129.216 42.7413 129.018 42.3874 128.72 42.13C128.49 41.9078 128.208 41.7463 127.9 41.66L126.38 43.29C126.478 43.4535 126.599 43.6018 126.74 43.73C127.07 44.0505 127.494 44.2572 127.95 44.32C128.128 44.3567 128.313 44.3485 128.488 44.2962C128.662 44.2438 128.821 44.1489 128.95 44.02C129.074 43.9106 129.17 43.772 129.227 43.6166C129.285 43.4613 129.303 43.294 129.28 43.13Z" fill="#EA5A42"/>
<path d="M134.48 61.46L131.27 63.7L125.18 55.37L137.06 46.46L143.24 54.72L140.19 57.19L136.35 51.82L135.13 52.76L138.37 57.2L135.27 59.6L132.06 55.19L130.59 56.34L134.48 61.46Z" fill="#EA5A42"/>
<path d="M32.31 138.61H27.31L26.1 141.7L22.19 140.09L28.6 127H32.51L37.1 140.88L33.19 141.81L32.31 138.61ZM31.26 134.7L30.32 131.19L28.91 134.68L31.26 134.7Z" fill="#EA5A42"/>
<path d="M57 135.35C56.9933 136.32 56.7605 137.275 56.32 138.14C55.8757 139.045 55.2413 139.843 54.46 140.48C53.6804 141.112 52.762 141.551 51.78 141.76C51.3129 141.857 50.8372 141.907 50.36 141.91C49.2259 141.913 48.1065 141.653 47.09 141.15C46.0649 140.637 45.1666 139.903 44.46 139C43.7376 138.106 43.2372 137.054 43 135.93C42.9051 135.463 42.8582 134.987 42.86 134.51C42.8631 133.385 43.1159 132.275 43.6 131.26C44.0746 130.231 44.7794 129.324 45.66 128.61C46.5267 127.885 47.556 127.381 48.66 127.14C49.1943 127.041 49.7366 126.99 50.28 126.99C51.161 126.984 52.0377 127.112 52.88 127.37C53.6433 127.578 54.3506 127.954 54.95 128.47L52.88 131.67C52.5536 131.38 52.168 131.165 51.75 131.04C51.2951 130.889 50.8192 130.812 50.34 130.81C50.0441 130.814 49.7493 130.848 49.46 130.91C48.7426 131.079 48.1126 131.506 47.69 132.11C47.2376 132.717 46.9922 133.453 46.99 134.21C46.9906 134.428 47.0107 134.646 47.05 134.86C47.2199 135.635 47.6333 136.336 48.23 136.86C48.7761 137.361 49.4886 137.643 50.23 137.65C50.4182 137.649 50.6059 137.629 50.79 137.59C51.238 137.494 51.6649 137.318 52.05 137.07C52.4023 136.879 52.6727 136.566 52.81 136.19L49.33 135.52L50.13 132.03L56.6 133.32C56.8696 133.963 57.0056 134.653 57 135.35Z" fill="#EA5A42"/>
<path d="M61.07 141C59.906 140.308 58.9305 139.339 58.23 138.18C57.5308 137.065 57.1599 135.776 57.16 134.46C57.1593 133.15 57.5304 131.867 58.23 130.76C58.9304 129.617 59.907 128.667 61.07 128C62.2225 127.337 63.5304 126.992 64.86 127C66.1771 126.991 67.4724 127.336 68.61 128C69.7609 128.669 70.7267 129.614 71.42 130.75C72.0929 131.869 72.4393 133.154 72.42 134.46C72.4345 135.781 72.0887 137.081 71.42 138.22C70.7337 139.37 69.7668 140.326 68.61 141C67.4755 141.671 66.1781 142.017 64.86 142C63.5289 142.02 62.2178 141.675 61.07 141ZM66.65 137.66C67.2115 137.328 67.6768 136.856 68 136.29C68.3415 135.723 68.5181 135.072 68.51 134.41C68.5181 133.761 68.3412 133.122 68 132.57C67.6532 132.028 67.1705 131.587 66.6 131.29C65.9809 130.976 65.2942 130.818 64.6 130.83C63.9543 130.824 63.3177 130.982 62.75 131.29C62.2089 131.587 61.7593 132.026 61.45 132.56C61.1337 133.117 60.9714 133.749 60.98 134.39C60.9702 135.055 61.1358 135.71 61.46 136.29C61.7678 136.844 62.2207 137.304 62.77 137.62C63.3424 137.945 63.9917 138.111 64.65 138.1C65.3491 138.124 66.0411 137.954 66.65 137.61V137.66Z" fill="#EA5A42"/>
<path d="M76.92 141C75.751 140.311 74.7717 139.342 74.07 138.18C73.3617 137.051 72.9904 135.743 73 134.41C72.9958 133.101 73.3634 131.818 74.06 130.71C74.7705 129.581 75.7541 128.649 76.92 128C78.0716 127.335 79.3801 126.99 80.71 127C82.0269 126.992 83.3218 127.338 84.46 128C85.609 128.668 86.5718 129.613 87.26 130.75C87.9329 131.869 88.2792 133.154 88.26 134.46C88.2786 135.781 87.9325 137.082 87.26 138.22C86.5789 139.373 85.6152 140.333 84.46 141.01C83.3237 141.7 82.0196 142.066 80.69 142.066C79.3604 142.066 78.0563 141.7 76.92 141.01V141ZM82.49 137.66C83.0621 137.351 83.5418 136.895 83.88 136.34C84.229 135.776 84.4094 135.123 84.4 134.46C84.4097 133.809 84.2289 133.17 83.88 132.62C83.5358 132.076 83.0524 131.634 82.48 131.34C81.8618 131.023 81.1745 130.865 80.48 130.88C79.8345 130.875 79.1982 131.034 78.63 131.34C78.0916 131.637 77.6453 132.076 77.34 132.61C77.019 133.166 76.8565 133.798 76.87 134.44C76.8617 135.103 77.0235 135.757 77.34 136.34C77.6478 136.894 78.1007 137.354 78.65 137.67C79.2308 137.989 79.8825 138.156 80.545 138.156C81.2074 138.156 81.8592 137.989 82.44 137.67L82.49 137.66Z" fill="#EA5A42"/>
<path d="M96.66 128C98.0363 128.678 99.2219 129.689 100.11 130.94C100.97 132.152 101.429 133.604 101.42 135.09C101.484 136.106 101.284 137.12 100.839 138.035C100.394 138.95 99.7189 139.734 98.88 140.31C96.809 141.553 94.4112 142.142 92 142C90.8638 141.999 89.7285 141.932 88.6 141.8L88.76 127.64C89.3039 127.397 89.8698 127.206 90.45 127.07C91.0059 126.955 91.5723 126.898 92.14 126.9C93.7122 126.906 95.2608 127.283 96.66 128ZM97.18 134.49C97.1925 133.864 96.9954 133.251 96.62 132.75C96.2477 132.247 95.7468 131.853 95.17 131.61C94.5996 131.346 93.9785 131.21 93.35 131.21C93.0749 131.204 92.8 131.227 92.53 131.28V137.91C95.63 137.97 97.18 136.823 97.18 134.47V134.49Z" fill="#EA5A42"/>
<path d="M119.7 141.91L119.29 133.14L117.42 141.91H113.51L111.34 133.71L111.24 141.71H107.34V126.91L110.15 127.08L113.15 127.18L115.34 135.04L116.82 127.04H122.94L123.62 141.76L119.7 141.91Z" fill="#EA5A42"/>
<path d="M133.85 138.61H128.85L127.6 141.72L123.69 140.11L130.14 127H134.04L138.64 140.88L134.73 141.81L133.85 138.61ZM132.79 134.7L131.86 131.19L130.45 134.68L132.79 134.7Z" fill="#EA5A42"/>
<path d="M152.9 126.79L152.78 141.87H149L142.85 133.57L142.92 141.85L139.13 141.99L139 126.73L142.79 126.89L149.06 135.11L149.12 126.93L152.9 126.79Z" fill="#EA5A42"/>
<path d="M87.54 66.82C88.6873 66.8097 89.8277 66.9992 90.91 67.38C91.8994 67.7359 92.8073 68.2868 93.58 69C94.3272 69.6627 94.9238 70.4776 95.33 71.39C95.7526 72.3333 95.9675 73.3564 95.96 74.39C95.9573 75.0317 95.8903 75.6716 95.76 76.3C95.5958 77.0259 95.3404 77.7281 95 78.39C96.6292 76.8747 98.7751 76.0378 101 76.05C102.025 76.0478 103.042 76.2342 104 76.6C104.941 76.9654 105.8 77.5125 106.53 78.21C107.272 78.9425 107.861 79.8164 108.26 80.78C108.704 81.8854 108.922 83.0688 108.9 84.26C108.948 85.5883 108.656 86.9069 108.05 88.09C107.507 89.087 106.728 89.9353 105.78 90.56C104.804 91.2032 103.715 91.6546 102.57 91.89C101.364 92.1485 100.132 92.2626 98.9 92.23C100.609 92.9143 102.095 94.0603 103.19 95.54C104.141 96.8804 104.645 98.4866 104.63 100.13C104.641 101.24 104.458 102.343 104.09 103.39C103.756 104.356 103.209 105.234 102.49 105.96C101.727 106.707 100.813 107.283 99.81 107.65C98.5947 108.085 97.3105 108.295 96.02 108.27C94.7077 108.308 93.4033 108.055 92.2 107.53C91.2311 107.079 90.3662 106.432 89.66 105.63C89.004 104.865 88.4985 103.983 88.17 103.03C87.8433 102.11 87.6154 101.158 87.49 100.19C87.4071 101.147 87.209 102.09 86.9 103C86.5629 103.986 86.0292 104.893 85.3314 105.666C84.6335 106.44 83.786 107.064 82.84 107.5C81.6367 108.025 80.3323 108.278 79.02 108.24C77.7295 108.265 76.4453 108.055 75.23 107.62C74.2367 107.278 73.3292 106.726 72.57 106C71.8556 105.27 71.3095 104.393 70.97 103.43C70.6098 102.381 70.4306 101.279 70.44 100.17C70.4251 98.5266 70.929 96.9204 71.88 95.58C72.9755 94.1003 74.4608 92.9543 76.17 92.27C74.9275 92.3041 73.6854 92.1899 72.47 91.93C71.3278 91.6964 70.2413 91.2449 69.27 90.6C68.3247 89.9555 67.5465 89.0951 67 88.09C66.3907 86.9078 66.0946 85.5892 66.14 84.26C66.118 83.0688 66.3356 81.8854 66.78 80.78C67.1793 79.8164 67.7675 78.9425 68.51 78.21C69.2277 77.5169 70.0734 76.97 71 76.6C71.9771 76.2285 73.0147 76.042 74.06 76.05C76.2849 76.0378 78.4308 76.8747 80.06 78.39C79.7202 77.7198 79.4617 77.0115 79.29 76.28C79.1516 75.6527 79.0812 75.0123 79.08 74.37C79.0725 73.3364 79.2874 72.3133 79.71 71.37C80.1332 70.4601 80.7471 69.6518 81.51 69C82.2871 68.3047 83.1947 67.771 84.18 67.43C85.2561 67.033 86.3931 66.8265 87.54 66.82ZM95 87.53C95.0034 86.5493 94.8025 85.5787 94.41 84.68C94.0318 83.804 93.4925 83.0069 92.82 82.33C92.145 81.6553 91.3474 81.1156 90.47 80.74C89.565 80.3507 88.5902 80.1499 87.605 80.1499C86.6198 80.1499 85.645 80.3507 84.74 80.74C83.8671 81.1184 83.0733 81.6578 82.4 82.33C81.7277 83.0091 81.1855 83.8056 80.8 84.68C80.4107 85.5793 80.2132 86.55 80.22 87.53C80.2113 88.5198 80.4088 89.5006 80.8 90.41C81.1855 91.2844 81.7277 92.0808 82.4 92.76C83.0737 93.4291 83.8676 93.9651 84.74 94.34C86.5745 95.0994 88.6355 95.0994 90.47 94.34C91.3468 93.9677 92.1444 93.4315 92.82 92.76C93.4925 92.0831 94.0318 91.2859 94.41 90.41C94.8046 89.5014 95.0055 88.5205 95 87.53Z" fill="#04915C"/>
</g>
<defs>
<clipPath id="clip0_0_9604">
<rect width="175.09" height="175.09" fill="white"/>
</clipPath>
</defs>
</svg>
