<svg width="200" height="195" viewBox="0 0 200 195" fill="none" xmlns="http://www.w3.org/2000/svg">
<g clip-path="url(#clip0_0_9628)">
<path d="M135.16 194.67L135.77 169.78L116.72 182.88L100.33 158.31L121.43 145.78L100.43 132.66L116.72 108.23L135.76 121.33L135.16 97.22H164.54L163.94 121.05L181.86 108.33L199.56 132.47L178.26 145.78L199.67 158.49L181.86 182.78L163.93 170.06L164.53 194.67H135.16Z" fill="#F5F5F5"/>
<path d="M140.29 189.67L141.01 160.11L118.06 175.89L107.42 159.89L131.04 145.89L107.45 131.15L118.06 115.23L141 131L140.28 102.22H159.41L158.69 130.91L180.74 115.26L192.34 131.08L168.65 145.89L192.38 160L180.74 175.87L158.69 160.23L159.41 189.69L140.29 189.67Z" fill="#EF5A22"/>
<path d="M85.38 97.44L85.99 72.56L66.94 85.66L50.56 61.09L71.65 48.56L50.65 35.43L66.94 11.01L85.98 24.1L85.38 0H114.76L114.16 23.83L132.08 11.11L149.78 35.25L128.48 48.56L149.89 61.27L132.08 85.56L114.15 72.83L114.75 97.44H85.38Z" fill="#F5F5F5"/>
<path d="M90.51 92.44L91.23 62.89L68.28 78.66L57.64 62.7L81.26 48.67L57.67 33.92L68.28 18L91.22 33.77L90.5 5H109.63L108.92 33.68L130.96 18.04L142.57 33.86L118.87 48.67L142.6 62.76L130.96 78.63L108.91 62.98L109.63 92.44H90.51Z" fill="#2655AF"/>
<path d="M34.83 194.67L35.44 169.78L16.38 182.88L0 158.31L21.1 145.78L0.1 132.66L16.38 108.23L35.42 121.33L34.82 97.22H64.2L63.61 121.05L81.53 108.33L99.23 132.47L77.93 145.78L99.34 158.49L81.53 182.78L63.6 170.06L64.2 194.67H34.83Z" fill="#F5F5F5"/>
<path d="M39.95 189.67L40.67 160.11L17.73 175.89L7.07999 159.92L30.71 145.89L7.11999 131.15L17.73 115.23L40.67 131L39.95 102.22H59.08L58.36 130.91L80.41 115.26L92.01 131.08L68.32 145.89L92.05 159.98L80.41 175.85L58.35 160.21L59.07 189.67H39.95Z" fill="#EF99C0"/>
</g>
<defs>
<clipPath id="clip0_0_9628">
<rect width="199.67" height="194.67" fill="white"/>
</clipPath>
</defs>
</svg>
