<svg width="199" height="199" viewBox="0 0 199 199" fill="none" xmlns="http://www.w3.org/2000/svg">
<g clip-path="url(#clip0_0_240)">
<path d="M195.11 99C195.11 88.66 200.27 77.69 197.11 68.39C193.86 58.73 182.84 52.79 176.78 44.75C170.72 36.71 168.1 24.75 159.66 18.9C151.22 13.05 138.82 14.38 128.79 11.21C119.08 8.24 109.84 0 99.1 0C88.36 0 79.1 8.19 69.42 11.24C59.42 14.37 46.88 13.07 38.52 18.93C30.16 24.79 27.52 36.67 21.4 44.78C15.28 52.89 4.32001 58.76 1.00001 68.42C-2.09999 77.72 3.00001 88.69 3.00001 99C3.00001 109.31 -2.14999 120.3 1.00001 129.6C4.25001 139.27 15.27 145.2 21.33 153.24C27.39 161.28 30 173.24 38.45 179.1C46.9 184.96 59.29 183.65 69.36 186.78C79.06 189.78 88.29 198.02 99.03 198.02C109.77 198.02 119.03 189.83 128.71 186.78C138.71 183.65 151.26 184.96 159.62 179.1C167.98 173.24 170.62 161.36 176.74 153.24C182.86 145.12 193.82 139.24 197.07 129.6C200.27 120.29 195.11 109.32 195.11 99Z" fill="#F9B75C"/>
<path d="M74.79 138.02L70.5 141.81L68.11 139.69V136.97L73.46 135.43L74.79 138.02Z" fill="#EA5A42"/>
<path d="M124.16 83.78L123.86 83.68H123.76L123.53 83.61H123.4H123.2H123.05H122.84H122.7H122.46H122.34H121.98H120.36H120.2H119.78H119.66L119.34 83.66H119.16H118.88L118.69 83.71L118.41 83.78H118.21L117.91 83.87H117.73L117.3 84.01H117.24C117.24 83.8 117.17 83.6 117.14 83.4L117.05 82.8399V82.6699C117.05 82.5399 117.05 82.41 116.98 82.28V82.1C116.98 81.93 116.92 81.75 116.88 81.58V81.5C116.88 81.5 116.88 81.4399 116.88 81.4199L116.67 80.0899C118.799 79.9903 120.903 80.5794 122.67 81.7699C123.318 82.313 123.829 83.0018 124.16 83.78Z" fill="#EA5A42"/>
<path d="M123 116C121.12 118.9 121 123.28 121.07 126.06C118.35 123.79 116.95 121.44 116.7 118.79C116.43 115.79 117.58 112.79 118.8 109.56C119.603 107.581 120.271 105.549 120.8 103.48C121.93 98.48 120.65 95.48 119.38 93.78C118.6 92.7528 117.566 91.9464 116.38 91.44L116.24 91.31L116 91.1H115.94L115.76 90.96L115.51 90.79H115.45L115.22 90.64H115.15L114.82 90.46L114.48 90.3H114.38L114 90H113.93L113.49 89.82H113.42L113.02 89.69H112.9L112.38 89.55L112.78 89.24L112.9 89.16L113.61 88.65L113.79 88.53L114.36 88.16L114.52 88.05L115.22 87.63L115.34 87.57L115.92 87.25L116.1 87.15L116.78 86.83C119.88 85.42 122.56 85.36 124.78 86.65L125.21 86.93C126.189 87.6368 127.018 88.5307 127.65 89.56C128.423 90.8074 129.025 92.1527 129.44 93.56C132.09 102.11 125.28 112.57 123 116Z" fill="#EA5A42"/>
<path d="M114.62 92.92C114.33 107.49 110.18 118.78 102.27 126.47C92.62 135.85 80.13 137 77 137.13C84.7087 133.784 91.7023 128.987 97.6 123C101.887 118.557 105.185 113.258 107.28 107.45C109.143 102.304 109.847 96.8096 109.34 91.36H109.63H110.17H110.36H110.71H110.9L111.22 91.41H111.4L111.71 91.47H111.85L112.25 91.58L112.63 91.71H112.75L113 92H113.12L113.32 92.09H113.43L113.63 92.18H113.71L113.96 92.32L114.18 92.46H114.24L114.37 92.55C114.37 92.55 114.37 92.55 114.43 92.55L114.53 92.63L114.62 92.92Z" fill="#EA5A42"/>
<path d="M105.08 106.79C100.89 118.57 90.8 128.35 75.87 135.13L75.6 134.61C81.6 131.51 85.37 123.45 86.34 121.17H86.46H86.75H87.12H87.4H87.76H88.05H88.4H88.68L89.03 121.11H89.3L89.65 121.04L89.92 120.97L90.26 120.88L90.53 120.81L90.86 120.71L91.13 120.62L91.45 120.51L91.72 120.41L92 120L92.26 119.89L92.58 119.75C92.66 119.75 92.75 119.68 92.83 119.63L93.15 119.47L93.39 119.36L93.71 119.18C93.7899 119.143 93.8668 119.099 93.94 119.05L94.27 118.85L94.49 118.72L94.84 118.49L95.02 118.38L95.54 118C101.44 113.61 101.46 106.32 101.46 102C101.4 100.959 101.467 99.9147 101.66 98.89C101.77 98.62 101.89 98.35 102.02 98.07L102.11 97.88L102.41 97.27C102.41 97.19 102.49 97.13 102.52 97.06C102.55 96.99 102.73 96.67 102.84 96.47L103 96.2C103.09 96.04 103.18 95.88 103.28 95.73L103.77 95.1L104.17 94.6L104.33 94.4L104.57 94.1C104.64 94.03 104.7 93.95 104.76 93.88L104.97 93.62L105.16 93.39L105.36 93.15L105.54 92.92C105.61 92.85 105.67 92.77 105.74 92.69L105.92 92.47C105.98 92.4 106.05 92.33 106.11 92.25L106.29 92.03L106.47 91.83L106.66 91.61L106.73 91.52H106.99C107.484 96.6885 106.832 101.903 105.08 106.79Z" fill="#EA5A42"/>
<path d="M104.5 90.4999C104.29 90.7099 104.08 90.9299 103.88 91.1499L103.73 91.3199C103.56 91.5299 103.38 91.7299 103.22 91.9399L103.13 92.0399C102.94 92.2699 102.76 92.4999 102.58 92.7399C102.58 92.8099 102.48 92.8799 102.44 92.9499C102.26 93.1899 102.09 93.4299 101.92 93.6799L101.85 93.7699L101.67 94.0399L101.2 94.7499C100.586 95.7919 100.052 96.8782 99.6 97.9999C99.2438 99.3014 99.1153 100.655 99.22 102V102.39C99.22 106.3 99.07 111.84 95.1 115.48C94.82 115.73 94.53 115.97 94.22 116.2C91.742 118.049 88.7105 119.004 85.62 118.91C84.0521 118.879 82.4952 118.64 80.99 118.2C84.3851 115.079 86.8993 111.12 88.28 106.72L88.36 106.57V106.45C88.7836 104.85 89.012 103.205 89.04 101.55C89.04 101.26 89.04 100.99 89.04 100.75C89.04 100.51 89.04 100.31 89.04 100.12C89.04 99.9299 89.39 91.8599 95.04 88.3199C95.7378 87.88 96.5363 87.6253 97.36 87.5799H98C98.1298 87.57 98.2602 87.57 98.39 87.5799H98.48L98.93 87.6599H99.06L99.42 87.7399H99.54L99.99 87.8699H100.08L100.45 87.9999H100.56L101 88.1799L101.41 88.3699C101.44 88.3645 101.47 88.3645 101.5 88.3699C101.79 88.5099 102.07 88.6599 102.34 88.8099H102.4L102.78 89.0399L103.17 89.2799L103.52 89.5199C103.76 89.6799 103.98 89.8499 104.18 89.9899L104.5 90.4999Z" fill="#EA5A42"/>
<path d="M96.05 85.46L95.53 85.6H95.47L94.95 85.79C94.7746 85.8579 94.6041 85.9381 94.44 86.03C94.2645 86.1203 94.0942 86.2205 93.93 86.33C88.64 89.66 87.02 96.47 86.93 99.97C86.93 100.17 86.93 100.4 86.93 100.65C86.93 100.73 86.93 100.8 86.93 100.88V101.2C86.93 101.26 86.93 101.32 86.93 101.39V101.5C86.935 101.553 86.935 101.607 86.93 101.66V101.78C86.93 101.84 86.93 101.89 86.93 101.95C86.935 101.993 86.935 102.037 86.93 102.08C86.9348 102.137 86.9348 102.193 86.93 102.25C86.9346 102.297 86.9346 102.343 86.93 102.39V102.56C86.93 102.56 86.93 102.66 86.93 102.71C86.93 102.76 86.93 102.82 86.93 102.88C86.93 102.94 86.93 102.99 86.93 103.04C86.93 103.09 86.93 103.16 86.93 103.22C86.93 103.28 86.93 103.33 86.93 103.38C86.93 103.43 86.93 103.5 86.93 103.57C86.9245 103.627 86.9245 103.683 86.93 103.74V103.92V104.1V104.29C86.9347 104.353 86.9347 104.417 86.93 104.48V104.67C86.9253 104.737 86.9253 104.803 86.93 104.87C86.9253 104.933 86.9253 104.997 86.93 105.06C86.9254 105.13 86.9254 105.2 86.93 105.27C86.93 105.33 86.93 105.4 86.93 105.46C86.9254 105.53 86.9254 105.6 86.93 105.67V105.83L86.8 106.08C83.5278 107.95 79.6662 108.505 76 107.63C82.26 104.39 83.67 97.78 84.83 92.35C85.1301 90.7379 85.5377 89.1477 86.05 87.59C87.49 83.59 93.86 83.2 96.56 83.21C96.56 83.21 96.56 83.3 96.56 83.33C96.56 83.36 96.56 83.43 96.56 83.49V83.68C96.56 83.73 96.56 83.77 96.56 83.82C96.56 83.87 96.56 83.96 96.56 84.02C96.56 84.08 96.56 84.1 96.56 84.14C96.56 84.18 96.56 84.33 96.56 84.43C96.5551 84.4799 96.5551 84.5301 96.56 84.58C96.56 84.58 96.56 84.67 96.56 84.71C96.56 84.75 96.56 84.82 96.56 84.87C96.56 84.92 96.56 84.94 96.56 84.97V85.13C96.56 85.13 96.56 85.13 96.56 85.22C96.56 85.31 96.56 85.32 96.56 85.37L96.05 85.46Z" fill="#EA5A42"/>
<path d="M115.05 85L114.43 85.34L114.31 85.4L113.68 85.77L113.59 85.83C113.38 85.95 113.18 86.08 112.98 86.21H112.92C112.7 86.34 112.49 86.49 112.27 86.64L112.15 86.73C111.94 86.87 111.73 87.03 111.51 87.19L111.41 87.26L110.77 87.74L110.11 88.27L109.98 88.37L109.33 88.92H108.82H107.98L107.18 89H106.95H106.68L106.57 88.91C106.531 88.8681 106.488 88.8311 106.44 88.8L106.27 88.66L106.1 88.54H106.04L105.9 88.43H105.83L105.68 88.31H105.61L105.42 88.17L105.17 88H105.11L104.92 87.87L104.83 87.8L104.65 87.69L104.55 87.63L104.37 87.51L104.27 87.45L104.01 87.29L103.71 87.12C103.677 87.1145 103.643 87.1145 103.61 87.12L103.4 87L103.28 86.94L103.08 86.83L102.95 86.77L102.73 86.66H102.62L102.29 86.51L101.98 86.38L101.86 86.33L101.64 86.24H101.5L101.27 86.15H101.13L100.88 86.07H100.77L100.4 85.97H100.33L100.03 85.9H99.9H99.65H99.5H99.26H99.12H98.83H98.75V85.82V85.61V85C98.7549 84.91 98.7549 84.8199 98.75 84.73V84.66C98.75 84.55 98.75 84.43 98.75 84.31L98.69 83.9C98.69 83.77 98.69 83.65 98.64 83.52V83.42C98.64 83.31 98.64 83.21 98.64 83.1C98.64 82.99 98.64 83.01 98.64 82.97C98.64 82.93 98.64 82.74 98.64 82.62C98.64 82.5 98.64 82.55 98.64 82.51C98.64 82.47 98.64 82.19 98.57 82.03L98.42 81.12C97.48 75.93 95.42 68.87 90.66 62.97C88.53 60.31 88.04 57.97 89.34 56.6C91.1 54.8 95.82 55.15 100.66 58.85C110.35 66.26 112.86 69.28 115.23 81.85V81.92V82L115.05 85Z" fill="#EA5A42"/>
<path d="M40.27 98.2L25.33 95.84L22.52 96L21 95.15L22.47 85.88C22.6613 84.1486 23.3294 82.5042 24.4 81.13C24.8878 80.5741 25.5182 80.1619 26.2232 79.9381C26.9281 79.7143 27.6808 79.6873 28.4 79.86C29.1951 79.9771 29.9595 80.2489 30.65 80.66C31.2327 81.0268 31.7006 81.55 32 82.17C32.472 81.1353 33.2644 80.2798 34.26 79.73C35.2122 79.2773 36.2822 79.1339 37.32 79.32C38.144 79.3837 38.9422 79.6359 39.6532 80.0572C40.3641 80.4786 40.9686 81.0578 41.42 81.75C42.2021 83.3839 42.4066 85.2348 42 87L40.27 98.2ZM29.27 91.43L29.95 87.12C30.0111 86.8819 30.0222 86.6336 29.9827 86.3909C29.9431 86.1483 29.8536 85.9164 29.72 85.71C29.5869 85.5471 29.4231 85.412 29.2378 85.3125C29.0524 85.213 28.8493 85.151 28.64 85.13C28.4047 85.0637 28.1554 85.0662 27.9215 85.137C27.6876 85.2079 27.4789 85.3443 27.32 85.53C27.0254 85.9338 26.8364 86.4047 26.77 86.9L26.13 90.9L29.27 91.43ZM36.71 92.61L37.57 87.15C37.6785 86.6593 37.6785 86.1508 37.57 85.66C37.4895 85.3596 37.3007 85.0996 37.04 84.93C36.8029 84.7917 36.5415 84.7001 36.27 84.66C36.0463 84.6272 35.8183 84.6405 35.5999 84.6989C35.3815 84.7574 35.1774 84.8599 35 85C34.7902 85.1685 34.6165 85.3775 34.4893 85.6146C34.3622 85.8517 34.2842 86.1121 34.26 86.38L33.36 92.1L36.71 92.61Z" fill="#EA5A42"/>
<path d="M45.76 76.17C45.4368 76.8462 45.0043 77.4645 44.48 78C43.9982 78.4918 43.3703 78.8145 42.69 78.92C41.8574 79.0086 41.0179 78.8338 40.29 78.42C39.5393 78.0899 38.9225 77.5154 38.54 76.79C38.1949 76.0828 38.0596 75.2917 38.15 74.51C38.2588 73.6082 38.5227 72.7319 38.93 71.92C39.222 71.2449 39.6432 70.6334 40.17 70.12C40.5254 69.8199 40.8995 69.5427 41.29 69.29L41.23 69C40.8192 68.7823 40.3823 68.6176 39.93 68.51C39.7585 68.4736 39.5813 68.4726 39.4094 68.507C39.2375 68.5414 39.0743 68.6105 38.93 68.71C38.5173 69.0558 38.1976 69.4992 38 70C37.6902 70.6474 37.4262 71.3157 37.21 72C37.0002 72.6837 36.8267 73.378 36.69 74.08C36.5789 74.5723 36.5219 75.0753 36.52 75.58L32.8 73.75C32.9222 72.9223 33.1128 72.1062 33.37 71.31C33.768 70.0665 34.2629 68.8562 34.85 67.69C35.3914 66.4633 36.1696 65.3554 37.14 64.43C37.836 63.7928 38.7284 63.4119 39.67 63.35C40.641 63.3287 41.6014 63.5559 42.46 64.01L45.76 65.63L48.5 66.36L49.72 67.57L47.6 71.85L46.38 71.25L46.14 71.44C46.2 71.64 46.28 71.96 46.37 72.44C46.4426 72.9876 46.4426 73.5424 46.37 74.09C46.2862 74.8129 46.0799 75.5163 45.76 76.17ZM43.54 72.47C43.7466 72.089 43.9013 71.682 44 71.26C44.0648 70.9905 44.1083 70.7163 44.13 70.44L43.65 70.21C43.5076 70.1658 43.3565 70.1573 43.21 70.1852C43.0636 70.2131 42.9262 70.2766 42.81 70.37C42.3653 70.6966 42.0193 71.1395 41.81 71.65C41.38 72.54 41.47 73.14 42.1 73.45C42.2118 73.517 42.3397 73.5524 42.47 73.5524C42.6003 73.5524 42.7282 73.517 42.84 73.45C43.1599 73.1948 43.4024 72.8554 43.54 72.47Z" fill="#EA5A42"/>
<path d="M50.81 65.81L44.56 60.34L41.91 58.75L41.21 57L43.92 53.91L44.81 54.69L45.1 54.61C45.0984 54.2554 45.1218 53.9012 45.17 53.55C45.2256 53.0604 45.3432 52.5799 45.52 52.12C45.7273 51.5624 46.0396 51.0498 46.44 50.61C46.8576 50.053 47.3935 49.5955 48.009 49.2705C48.6246 48.9454 49.3046 48.7608 50 48.73C51.4258 48.8013 52.7753 49.3959 53.79 50.4L56.43 52.71L58.88 54.09L59.77 55.63L56.5 59.37L51 54.61C50.5894 54.205 50.0535 53.9512 49.48 53.89C49.2155 53.8927 48.9552 53.9563 48.7194 54.076C48.4835 54.1957 48.2784 54.3681 48.12 54.58L47.39 56.22L54.07 62.07L50.81 65.81Z" fill="#EA5A42"/>
<path d="M64.4 52.54C63.7873 52.9572 63.1122 53.2745 62.4 53.48C61.7397 53.6608 61.039 53.6257 60.4 53.38C59.6345 53.0415 58.9944 52.4714 58.57 51.75C58.0836 51.0877 57.8336 50.2813 57.86 49.46C57.9153 48.6737 58.1965 47.9201 58.67 47.29C59.2227 46.5577 59.8996 45.9282 60.67 45.43C61.2682 44.99 61.9481 44.6738 62.67 44.5C63.1322 44.4128 63.6001 44.3593 64.07 44.34L64 44.1C63.7684 43.6988 63.486 43.3291 63.16 43C63.0272 42.8747 62.8696 42.7788 62.6973 42.7185C62.525 42.6582 62.3419 42.6348 62.16 42.65C61.6359 42.7398 61.1416 42.956 60.72 43.28C60.114 43.6977 59.5391 44.1589 59 44.66C58.475 45.1451 57.9776 45.6593 57.51 46.2C57.1687 46.5745 56.8671 46.9833 56.61 47.42L54.32 44C54.8279 43.3379 55.3898 42.7191 56 42.15C56.9685 41.2695 58.005 40.467 59.1 39.75C60.1831 38.9614 61.4092 38.3908 62.71 38.07C63.6311 37.8665 64.594 37.9829 65.44 38.4C66.2944 38.8794 67.0134 39.5675 67.53 40.4L69.53 43.45L71.53 45.45L71.98 47.11L68.06 49.75L67.31 48.62H67C66.9304 48.9595 66.8368 49.2937 66.72 49.62C66.2584 50.839 65.4124 51.8745 64.31 52.57L64.4 52.54ZM64.33 48.23C64.6955 47.9946 65.0313 47.7159 65.33 47.4C65.5176 47.1978 65.6882 46.9803 65.84 46.75L65.55 46.32C65.4511 46.2064 65.3247 46.12 65.1829 46.0692C65.041 46.0185 64.8886 46.0049 64.74 46.03C64.1935 46.092 63.6746 46.303 63.24 46.64C62.41 47.2 62.24 47.76 62.59 48.34C62.6541 48.453 62.7472 48.5469 62.8597 48.612C62.9722 48.677 63.1001 48.7109 63.23 48.71C63.6336 48.6535 64.0141 48.4875 64.33 48.23Z" fill="#EA5A42"/>
<path d="M73.93 46.1L71.26 38.23L69.76 35.54L70 33.67L73.9 32.34L74.28 33.47L74.57 33.54C74.7468 33.2338 74.9439 32.9398 75.16 32.66C75.4509 32.269 75.7865 31.9132 76.16 31.6C76.933 30.996 77.8538 30.6106 78.8266 30.484C79.7993 30.3573 80.7882 30.4941 81.69 30.88C82.888 31.6559 83.7597 32.8443 84.14 34.22L85.26 37.54L86.74 40V41.78L82 43.34L79.7 36.5C79.5423 35.9327 79.1878 35.4399 78.7 35.11C78.4767 34.9837 78.2282 34.9083 77.9723 34.8893C77.7165 34.8703 77.4596 34.9081 77.22 35L75.77 36.05L78.64 44.46L73.93 46.1Z" fill="#EA5A42"/>
<path d="M92.35 41.4201C91.6073 41.4775 90.8603 41.4098 90.14 41.2201C89.473 41.0505 88.8796 40.6677 88.45 40.1301C87.9591 39.452 87.6933 38.6371 87.69 37.8001C87.6056 36.9849 87.7956 36.1649 88.23 35.4701C88.6606 34.8149 89.2769 34.303 90 34.0001C90.836 33.6376 91.7301 33.4276 92.64 33.3801C93.3681 33.2975 94.1054 33.3587 94.81 33.5601C95.2519 33.7098 95.6801 33.8971 96.09 34.1201L96.27 33.9401C96.2525 33.4754 96.1752 33.0149 96.04 32.5701C95.989 32.3978 95.902 32.2383 95.7848 32.1021C95.6676 31.9659 95.5228 31.8561 95.36 31.7801C94.8644 31.5859 94.3277 31.5206 93.8 31.5901C93.0758 31.638 92.3568 31.745 91.65 31.9101C90.949 32.0618 90.2578 32.2555 89.58 32.4901C89.1024 32.6469 88.6404 32.8478 88.2 33.0901L87.93 29.0001C88.7084 28.6931 89.5112 28.4523 90.33 28.2801C91.6068 28.0003 92.9046 27.8263 94.21 27.7601C95.554 27.613 96.9139 27.7354 98.21 28.1201C99.1099 28.4033 99.8861 28.9855 100.41 29.7701C100.905 30.6049 101.184 31.5502 101.22 32.5201L101.47 36.1901L102.2 38.9301L101.76 40.5901L97 40.8601L96.91 39.5101L96.62 39.4001C96.3912 39.6418 96.1474 39.8689 95.89 40.0801C95.4664 40.4289 94.9949 40.7151 94.49 40.9301C93.8123 41.2219 93.0872 41.3879 92.35 41.4201ZM94.45 37.6601C94.8839 37.6378 95.3136 37.564 95.73 37.4401C95.9893 37.3558 96.2431 37.2556 96.49 37.1401V36.6101C96.49 36.3801 96.29 36.1601 95.94 35.9601C95.4348 35.7366 94.8776 35.657 94.33 35.7301C93.33 35.8001 92.87 36.1801 92.91 36.8801C92.9141 37.0102 92.9511 37.1371 93.0175 37.249C93.084 37.361 93.1777 37.4542 93.29 37.5201C93.6577 37.6676 94.0577 37.7159 94.45 37.6601Z" fill="#EA5A42"/>
<path d="M40.27 98.2L25.33 95.84L22.52 96L21 95.15L22.47 85.88C22.6613 84.1486 23.3294 82.5042 24.4 81.13C24.8878 80.5741 25.5182 80.1619 26.2232 79.9381C26.9281 79.7143 27.6808 79.6873 28.4 79.86C29.1951 79.9771 29.9595 80.2489 30.65 80.66C31.2327 81.0268 31.7006 81.55 32 82.17C32.472 81.1353 33.2644 80.2798 34.26 79.73C35.2122 79.2773 36.2822 79.1339 37.32 79.32C38.144 79.3837 38.9422 79.6359 39.6532 80.0572C40.3641 80.4786 40.9686 81.0578 41.42 81.75C42.2021 83.3839 42.4066 85.2348 42 87L40.27 98.2ZM29.27 91.43L29.95 87.12C30.0111 86.8819 30.0222 86.6336 29.9827 86.3909C29.9431 86.1483 29.8536 85.9164 29.72 85.71C29.5869 85.5471 29.4231 85.412 29.2378 85.3125C29.0524 85.213 28.8493 85.151 28.64 85.13C28.4047 85.0637 28.1554 85.0662 27.9215 85.137C27.6876 85.2079 27.4789 85.3443 27.32 85.53C27.0254 85.9338 26.8364 86.4047 26.77 86.9L26.13 90.9L29.27 91.43ZM36.71 92.61L37.57 87.15C37.6785 86.6593 37.6785 86.1508 37.57 85.66C37.4895 85.3596 37.3007 85.0996 37.04 84.93C36.8029 84.7917 36.5415 84.7001 36.27 84.66C36.0463 84.6272 35.8183 84.6405 35.5999 84.6989C35.3815 84.7574 35.1774 84.8599 35 85C34.7902 85.1685 34.6165 85.3775 34.4893 85.6146C34.3622 85.8517 34.2842 86.1121 34.26 86.38L33.36 92.1L36.71 92.61Z" fill="#EA5A42"/>
<path d="M45.76 76.17C45.4368 76.8462 45.0043 77.4645 44.48 78C43.9982 78.4918 43.3703 78.8145 42.69 78.92C41.8574 79.0086 41.0179 78.8338 40.29 78.42C39.5393 78.0899 38.9225 77.5154 38.54 76.79C38.1949 76.0828 38.0596 75.2917 38.15 74.51C38.2588 73.6082 38.5227 72.7319 38.93 71.92C39.222 71.2449 39.6432 70.6334 40.17 70.12C40.5254 69.8199 40.8995 69.5427 41.29 69.29L41.23 69C40.8192 68.7823 40.3823 68.6176 39.93 68.51C39.7585 68.4736 39.5813 68.4726 39.4094 68.507C39.2375 68.5414 39.0743 68.6105 38.93 68.71C38.5173 69.0558 38.1976 69.4992 38 70C37.6902 70.6474 37.4262 71.3157 37.21 72C37.0002 72.6837 36.8267 73.378 36.69 74.08C36.5789 74.5723 36.5219 75.0753 36.52 75.58L32.8 73.75C32.9222 72.9223 33.1128 72.1062 33.37 71.31C33.768 70.0665 34.2629 68.8562 34.85 67.69C35.3914 66.4633 36.1696 65.3554 37.14 64.43C37.836 63.7928 38.7284 63.4119 39.67 63.35C40.641 63.3287 41.6014 63.5559 42.46 64.01L45.76 65.63L48.5 66.36L49.72 67.57L47.6 71.85L46.38 71.25L46.14 71.44C46.2 71.64 46.28 71.96 46.37 72.44C46.4426 72.9876 46.4426 73.5424 46.37 74.09C46.2862 74.8129 46.0799 75.5163 45.76 76.17ZM43.54 72.47C43.7466 72.089 43.9013 71.682 44 71.26C44.0648 70.9905 44.1083 70.7163 44.13 70.44L43.65 70.21C43.5076 70.1658 43.3565 70.1573 43.21 70.1852C43.0636 70.2131 42.9262 70.2766 42.81 70.37C42.3653 70.6966 42.0193 71.1395 41.81 71.65C41.38 72.54 41.47 73.14 42.1 73.45C42.2118 73.517 42.3397 73.5524 42.47 73.5524C42.6003 73.5524 42.7282 73.517 42.84 73.45C43.1599 73.1948 43.4024 72.8554 43.54 72.47Z" fill="#EA5A42"/>
<path d="M50.81 65.81L44.56 60.34L41.91 58.75L41.21 57L43.92 53.91L44.81 54.69L45.1 54.61C45.0984 54.2554 45.1218 53.9012 45.17 53.55C45.2256 53.0604 45.3432 52.5799 45.52 52.12C45.7273 51.5624 46.0396 51.0498 46.44 50.61C46.8576 50.053 47.3935 49.5955 48.009 49.2705C48.6246 48.9454 49.3046 48.7608 50 48.73C51.4258 48.8013 52.7753 49.3959 53.79 50.4L56.43 52.71L58.88 54.09L59.77 55.63L56.5 59.37L51 54.61C50.5894 54.205 50.0535 53.9512 49.48 53.89C49.2155 53.8927 48.9552 53.9563 48.7194 54.076C48.4835 54.1957 48.2784 54.3681 48.12 54.58L47.39 56.22L54.07 62.07L50.81 65.81Z" fill="#EA5A42"/>
<path d="M64.4 52.54C63.7873 52.9572 63.1122 53.2745 62.4 53.48C61.7397 53.6608 61.039 53.6257 60.4 53.38C59.6345 53.0415 58.9944 52.4714 58.57 51.75C58.0836 51.0877 57.8336 50.2813 57.86 49.46C57.9153 48.6737 58.1965 47.9201 58.67 47.29C59.2227 46.5577 59.8996 45.9282 60.67 45.43C61.2682 44.99 61.9481 44.6738 62.67 44.5C63.1322 44.4128 63.6001 44.3593 64.07 44.34L64 44.1C63.7684 43.6988 63.486 43.3291 63.16 43C63.0272 42.8747 62.8696 42.7788 62.6973 42.7185C62.525 42.6582 62.3419 42.6348 62.16 42.65C61.6359 42.7398 61.1416 42.956 60.72 43.28C60.114 43.6977 59.5391 44.1589 59 44.66C58.475 45.1451 57.9776 45.6593 57.51 46.2C57.1687 46.5745 56.8671 46.9833 56.61 47.42L54.32 44C54.8279 43.3379 55.3898 42.7191 56 42.15C56.9685 41.2695 58.005 40.467 59.1 39.75C60.1831 38.9614 61.4092 38.3908 62.71 38.07C63.6311 37.8665 64.594 37.9829 65.44 38.4C66.2944 38.8794 67.0134 39.5675 67.53 40.4L69.53 43.45L71.53 45.45L71.98 47.11L68.06 49.75L67.31 48.62H67C66.9304 48.9595 66.8368 49.2937 66.72 49.62C66.2584 50.839 65.4124 51.8745 64.31 52.57L64.4 52.54ZM64.33 48.23C64.6955 47.9946 65.0313 47.7159 65.33 47.4C65.5176 47.1978 65.6882 46.9803 65.84 46.75L65.55 46.32C65.4511 46.2064 65.3247 46.12 65.1829 46.0692C65.041 46.0185 64.8886 46.0049 64.74 46.03C64.1935 46.092 63.6746 46.303 63.24 46.64C62.41 47.2 62.24 47.76 62.59 48.34C62.6541 48.453 62.7472 48.5469 62.8597 48.612C62.9722 48.677 63.1001 48.7109 63.23 48.71C63.6336 48.6535 64.0141 48.4875 64.33 48.23Z" fill="#EA5A42"/>
<path d="M73.93 46.1L71.26 38.23L69.76 35.54L70 33.67L73.9 32.34L74.28 33.47L74.57 33.54C74.7468 33.2338 74.9439 32.9398 75.16 32.66C75.4509 32.269 75.7865 31.9132 76.16 31.6C76.933 30.996 77.8538 30.6106 78.8266 30.484C79.7993 30.3573 80.7882 30.4941 81.69 30.88C82.888 31.6559 83.7597 32.8443 84.14 34.22L85.26 37.54L86.74 40V41.78L82 43.34L79.7 36.5C79.5423 35.9327 79.1878 35.4399 78.7 35.11C78.4767 34.9837 78.2282 34.9083 77.9723 34.8893C77.7165 34.8703 77.4596 34.9081 77.22 35L75.77 36.05L78.64 44.46L73.93 46.1Z" fill="#EA5A42"/>
<path d="M92.35 41.4201C91.6073 41.4775 90.8603 41.4098 90.14 41.2201C89.473 41.0505 88.8796 40.6677 88.45 40.1301C87.9591 39.452 87.6933 38.6371 87.69 37.8001C87.6056 36.9849 87.7956 36.1649 88.23 35.4701C88.6606 34.8149 89.2769 34.303 90 34.0001C90.836 33.6376 91.7301 33.4276 92.64 33.3801C93.3681 33.2975 94.1054 33.3587 94.81 33.5601C95.2519 33.7098 95.6801 33.8971 96.09 34.1201L96.27 33.9401C96.2525 33.4754 96.1752 33.0149 96.04 32.5701C95.989 32.3978 95.902 32.2383 95.7848 32.1021C95.6676 31.9659 95.5228 31.8561 95.36 31.7801C94.8644 31.5859 94.3277 31.5206 93.8 31.5901C93.0758 31.638 92.3568 31.745 91.65 31.9101C90.949 32.0618 90.2578 32.2555 89.58 32.4901C89.1024 32.6469 88.6404 32.8478 88.2 33.0901L87.93 29.0001C88.7084 28.6931 89.5112 28.4523 90.33 28.2801C91.6068 28.0003 92.9046 27.8263 94.21 27.7601C95.554 27.613 96.9139 27.7354 98.21 28.1201C99.1099 28.4033 99.8861 28.9855 100.41 29.7701C100.905 30.6049 101.184 31.5502 101.22 32.5201L101.47 36.1901L102.2 38.9301L101.76 40.5901L97 40.8601L96.91 39.5101L96.62 39.4001C96.3912 39.6418 96.1474 39.8689 95.89 40.0801C95.4664 40.4289 94.9949 40.7151 94.49 40.9301C93.8123 41.2219 93.0872 41.3879 92.35 41.4201ZM94.45 37.6601C94.8839 37.6378 95.3136 37.564 95.73 37.4401C95.9893 37.3558 96.2431 37.2556 96.49 37.1401V36.6101C96.49 36.3801 96.29 36.1601 95.94 35.9601C95.4348 35.7366 94.8776 35.657 94.33 35.7301C93.33 35.8001 92.87 36.1801 92.91 36.8801C92.9141 37.0102 92.9511 37.1371 93.0175 37.249C93.084 37.361 93.1777 37.4542 93.29 37.5201C93.6577 37.6676 94.0577 37.7159 94.45 37.6601Z" fill="#EA5A42"/>
<path d="M157.93 99.92L172.87 102.29L175.68 102.18L177.23 102.98L175.76 112.25C175.575 113.981 174.91 115.626 173.84 117C173.352 117.555 172.721 117.967 172.016 118.19C171.312 118.414 170.559 118.442 169.84 118.27C169.044 118.157 168.279 117.885 167.59 117.47C166.984 117.114 166.494 116.589 166.18 115.96C165.71 116.994 164.917 117.847 163.92 118.39C162.989 118.841 161.938 118.984 160.92 118.8C160.095 118.741 159.295 118.491 158.582 118.071C157.869 117.652 157.262 117.073 156.81 116.38C156.014 114.74 155.803 112.877 156.21 111.1L157.93 99.92ZM161.52 105.52L160.65 110.97C160.535 111.463 160.535 111.977 160.65 112.47C160.73 112.771 160.919 113.031 161.18 113.2C161.412 113.341 161.671 113.433 161.94 113.47C162.165 113.51 162.395 113.504 162.618 113.45C162.84 113.397 163.048 113.298 163.23 113.16C163.44 112.992 163.614 112.783 163.741 112.545C163.868 112.308 163.946 112.048 163.97 111.78L164.88 106.06L161.52 105.52ZM169 106.7L168.32 111.01C168.257 111.246 168.244 111.492 168.282 111.733C168.32 111.974 168.408 112.205 168.54 112.41C168.808 112.742 169.196 112.954 169.62 113C169.855 113.066 170.105 113.064 170.338 112.993C170.572 112.922 170.781 112.786 170.94 112.6C171.238 112.198 171.427 111.726 171.49 111.23L172.13 107.23L169 106.7Z" fill="#EA5A42"/>
<path d="M152.45 122C152.771 121.328 153.2 120.713 153.72 120.18C154.202 119.688 154.83 119.366 155.51 119.26C156.343 119.171 157.182 119.346 157.91 119.76C158.66 120.086 159.277 120.657 159.66 121.38C160.012 122.085 160.147 122.878 160.05 123.66C159.951 124.567 159.686 125.448 159.27 126.26C158.962 126.916 158.531 127.507 158 128C157.641 128.3 157.264 128.578 156.87 128.83L156.93 129.07C157.342 129.284 157.778 129.445 158.23 129.55C158.401 129.586 158.577 129.588 158.749 129.555C158.921 129.523 159.084 129.456 159.23 129.36C159.642 129.02 159.965 128.584 160.17 128.09C160.484 127.445 160.749 126.776 160.96 126.09C161.173 125.406 161.35 124.712 161.49 124.01C161.593 123.517 161.646 123.014 161.65 122.51L165.37 124.33C165.249 125.158 165.058 125.974 164.8 126.77C164.408 128.019 163.913 129.233 163.32 130.4C162.779 131.627 162 132.735 161.03 133.66C160.337 134.296 159.448 134.677 158.51 134.74C157.536 134.752 156.574 134.522 155.71 134.07L152.41 132.46L149.67 131.73L148.45 130.52L150.53 126.28L151.74 126.87L151.99 126.69C151.887 126.363 151.81 126.029 151.76 125.69C151.682 125.146 151.682 124.594 151.76 124.05C151.864 123.331 152.098 122.636 152.45 122ZM154.66 125.69C154.465 126.077 154.317 126.487 154.22 126.91C154.158 127.176 154.118 127.447 154.1 127.72L154.57 127.95C154.711 127.999 154.863 128.011 155.01 127.985C155.157 127.959 155.295 127.895 155.41 127.8C155.855 127.473 156.201 127.031 156.41 126.52C156.85 125.63 156.75 125.03 156.12 124.72C156.008 124.654 155.88 124.619 155.75 124.619C155.62 124.619 155.492 124.654 155.38 124.72C155.061 124.96 154.812 125.281 154.66 125.65V125.69Z" fill="#EA5A42"/>
<path d="M147.39 132.32L153.64 137.79L156.29 139.37L156.99 141.13L154.29 144.22L153.39 143.44L153.11 143.52C153.106 143.874 153.083 144.228 153.04 144.58C152.976 145.069 152.855 145.549 152.68 146.01C152.316 146.92 151.714 147.716 150.936 148.312C150.158 148.909 149.234 149.285 148.26 149.4C146.833 149.332 145.483 148.737 144.47 147.73L141.83 145.42L139.37 144L138.49 142.46L141.76 138.72L147.2 143.48C147.607 143.884 148.14 144.138 148.71 144.2C148.977 144.198 149.24 144.133 149.478 144.012C149.715 143.89 149.922 143.715 150.08 143.5L150.81 141.87L144.12 136.02L147.39 132.32Z" fill="#EA5A42"/>
<path d="M133.81 145.59C134.421 145.169 135.096 144.852 135.81 144.65C136.47 144.469 137.171 144.504 137.81 144.75C138.572 145.095 139.21 145.663 139.64 146.38C140.125 147.043 140.372 147.85 140.34 148.67C140.291 149.453 140.013 150.204 139.54 150.83C138.994 151.569 138.316 152.199 137.54 152.69C136.944 153.136 136.264 153.456 135.54 153.63C135.08 153.712 134.616 153.765 134.15 153.79L134.08 154.03C134.329 154.421 134.625 154.78 134.96 155.1C135.094 155.223 135.252 155.317 135.424 155.375C135.596 155.434 135.779 155.456 135.96 155.44C136.485 155.359 136.981 155.146 137.4 154.82C138.004 154.416 138.573 153.961 139.1 153.46C139.63 152.981 140.131 152.47 140.6 151.93C140.94 151.557 141.238 151.148 141.49 150.71L143.8 154.15C143.279 154.804 142.707 155.416 142.09 155.98C141.12 156.859 140.084 157.662 138.99 158.38C137.911 159.173 136.683 159.741 135.38 160.05C134.46 160.262 133.496 160.149 132.65 159.73C131.801 159.244 131.083 158.557 130.56 157.73L128.56 154.73L126.56 152.73L126.11 151.07L130.03 148.44L130.78 149.57H131.09C131.164 149.231 131.261 148.896 131.38 148.57C131.572 148.051 131.838 147.562 132.17 147.12C132.614 146.51 133.171 145.991 133.81 145.59ZM133.88 149.9C133.511 150.13 133.174 150.409 132.88 150.73C132.693 150.932 132.519 151.146 132.36 151.37L132.66 151.81C132.759 151.921 132.883 152.006 133.023 152.057C133.163 152.107 133.313 152.122 133.46 152.1C134.01 152.04 134.533 151.829 134.97 151.49C135.79 150.93 135.97 150.36 135.62 149.78C135.552 149.669 135.456 149.578 135.342 149.515C135.228 149.452 135.1 149.419 134.97 149.42C134.57 149.479 134.193 149.645 133.88 149.9Z" fill="#EA5A42"/>
<path d="M124.27 152L126.95 159.86L128.45 162.56L128.18 164.43L124.29 165.75L123.9 164.63L123.62 164.55C123.44 164.857 123.243 165.155 123.03 165.44C122.737 165.829 122.401 166.184 122.03 166.5C121.57 166.877 121.045 167.165 120.48 167.35C119.844 167.623 119.157 167.752 118.466 167.73C117.774 167.707 117.097 167.533 116.48 167.22C115.276 166.45 114.403 165.259 114.03 163.88L112.9 160.56L111.46 158.14V156.36L116.16 154.76L118.49 161.6C118.654 162.161 119.008 162.649 119.49 162.98C119.721 163.111 119.98 163.187 120.246 163.201C120.511 163.215 120.776 163.167 121.02 163.06L122.47 162.01L119.61 153.6L124.27 152Z" fill="#EA5A42"/>
<path d="M105.85 156.71C106.593 156.652 107.34 156.72 108.06 156.91C108.727 157.08 109.32 157.462 109.75 158C110.244 158.677 110.514 159.492 110.52 160.33C110.603 161.145 110.413 161.965 109.98 162.66C109.538 163.309 108.921 163.819 108.2 164.13C107.36 164.492 106.463 164.702 105.55 164.75C104.822 164.831 104.085 164.77 103.38 164.57C102.942 164.41 102.515 164.223 102.1 164.01L101.92 164.19C101.941 164.651 102.019 165.108 102.15 165.55C102.203 165.724 102.291 165.885 102.41 166.023C102.529 166.161 102.675 166.272 102.84 166.35C103.335 166.545 103.872 166.611 104.4 166.54C105.124 166.487 105.842 166.38 106.55 166.22C107.246 166.062 107.934 165.869 108.61 165.64C109.093 165.472 109.558 165.258 110 165L110.27 169.13C109.492 169.438 108.689 169.679 107.87 169.85C106.593 170.131 105.296 170.304 103.99 170.37C102.646 170.518 101.286 170.396 99.99 170.01C99.0871 169.733 98.3091 169.149 97.79 168.36C97.287 167.524 97.0048 166.575 96.97 165.6L96.77 162L96 159.24L96.45 157.58L101.16 157.26L101.25 158.61L101.53 158.73C101.761 158.491 102.005 158.264 102.26 158.05C102.688 157.7 103.163 157.41 103.67 157.19C104.362 156.901 105.1 156.738 105.85 156.71ZM103.75 160.47C103.319 160.491 102.893 160.565 102.48 160.69C102.218 160.775 101.961 160.875 101.71 160.99V161.51C101.71 161.75 101.92 161.97 102.27 162.17C102.772 162.392 103.326 162.471 103.87 162.4C104.87 162.33 105.34 161.95 105.29 161.25C105.29 161.12 105.256 160.993 105.191 160.881C105.126 160.768 105.032 160.675 104.92 160.61C104.549 160.462 104.146 160.414 103.75 160.47Z" fill="#EA5A42"/>
<path d="M157.93 99.92L172.87 102.29L175.68 102.18L177.23 102.98L175.76 112.25C175.575 113.981 174.91 115.626 173.84 117C173.352 117.555 172.721 117.967 172.016 118.19C171.312 118.414 170.559 118.442 169.84 118.27C169.044 118.157 168.279 117.885 167.59 117.47C166.984 117.114 166.494 116.589 166.18 115.96C165.71 116.994 164.917 117.847 163.92 118.39C162.989 118.841 161.938 118.984 160.92 118.8C160.095 118.741 159.295 118.491 158.582 118.071C157.869 117.652 157.262 117.073 156.81 116.38C156.014 114.74 155.803 112.877 156.21 111.1L157.93 99.92ZM161.52 105.52L160.65 110.97C160.535 111.463 160.535 111.977 160.65 112.47C160.73 112.771 160.919 113.031 161.18 113.2C161.412 113.341 161.671 113.433 161.94 113.47C162.165 113.51 162.395 113.504 162.618 113.45C162.84 113.397 163.048 113.298 163.23 113.16C163.44 112.992 163.614 112.783 163.741 112.545C163.868 112.308 163.946 112.048 163.97 111.78L164.88 106.06L161.52 105.52ZM169 106.7L168.32 111.01C168.257 111.246 168.244 111.492 168.282 111.733C168.32 111.974 168.408 112.205 168.54 112.41C168.808 112.742 169.196 112.954 169.62 113C169.855 113.066 170.105 113.064 170.338 112.993C170.572 112.922 170.781 112.786 170.94 112.6C171.238 112.198 171.427 111.726 171.49 111.23L172.13 107.23L169 106.7Z" fill="#EA5A42"/>
<path d="M152.45 122C152.771 121.328 153.2 120.713 153.72 120.18C154.202 119.688 154.83 119.366 155.51 119.26C156.343 119.171 157.182 119.346 157.91 119.76C158.66 120.086 159.277 120.657 159.66 121.38C160.012 122.085 160.147 122.878 160.05 123.66C159.951 124.567 159.686 125.448 159.27 126.26C158.962 126.916 158.531 127.507 158 128C157.641 128.3 157.264 128.578 156.87 128.83L156.93 129.07C157.342 129.284 157.778 129.445 158.23 129.55C158.401 129.586 158.577 129.588 158.749 129.555C158.921 129.523 159.084 129.456 159.23 129.36C159.642 129.02 159.965 128.584 160.17 128.09C160.484 127.445 160.749 126.776 160.96 126.09C161.173 125.406 161.35 124.712 161.49 124.01C161.593 123.517 161.646 123.014 161.65 122.51L165.37 124.33C165.249 125.158 165.058 125.974 164.8 126.77C164.408 128.019 163.913 129.233 163.32 130.4C162.779 131.627 162 132.735 161.03 133.66C160.337 134.296 159.448 134.677 158.51 134.74C157.536 134.752 156.574 134.522 155.71 134.07L152.41 132.46L149.67 131.73L148.45 130.52L150.53 126.28L151.74 126.87L151.99 126.69C151.887 126.363 151.81 126.029 151.76 125.69C151.682 125.146 151.682 124.594 151.76 124.05C151.864 123.331 152.098 122.636 152.45 122ZM154.66 125.69C154.465 126.077 154.317 126.487 154.22 126.91C154.158 127.176 154.118 127.447 154.1 127.72L154.57 127.95C154.711 127.999 154.863 128.011 155.01 127.985C155.157 127.959 155.295 127.895 155.41 127.8C155.855 127.473 156.201 127.031 156.41 126.52C156.85 125.63 156.75 125.03 156.12 124.72C156.008 124.654 155.88 124.619 155.75 124.619C155.62 124.619 155.492 124.654 155.38 124.72C155.061 124.96 154.812 125.281 154.66 125.65V125.69Z" fill="#EA5A42"/>
<path d="M147.39 132.32L153.64 137.79L156.29 139.37L156.99 141.13L154.29 144.22L153.39 143.44L153.11 143.52C153.106 143.874 153.083 144.228 153.04 144.58C152.976 145.069 152.855 145.549 152.68 146.01C152.316 146.92 151.714 147.716 150.936 148.312C150.158 148.909 149.234 149.285 148.26 149.4C146.833 149.332 145.483 148.737 144.47 147.73L141.83 145.42L139.37 144L138.49 142.46L141.76 138.72L147.2 143.48C147.607 143.884 148.14 144.138 148.71 144.2C148.977 144.198 149.24 144.133 149.478 144.012C149.715 143.89 149.922 143.715 150.08 143.5L150.81 141.87L144.12 136.02L147.39 132.32Z" fill="#EA5A42"/>
<path d="M133.81 145.59C134.421 145.169 135.096 144.852 135.81 144.65C136.47 144.469 137.171 144.504 137.81 144.75C138.572 145.095 139.21 145.663 139.64 146.38C140.125 147.043 140.372 147.85 140.34 148.67C140.291 149.453 140.013 150.204 139.54 150.83C138.994 151.569 138.316 152.199 137.54 152.69C136.944 153.136 136.264 153.456 135.54 153.63C135.08 153.712 134.616 153.765 134.15 153.79L134.08 154.03C134.329 154.421 134.625 154.78 134.96 155.1C135.094 155.223 135.252 155.317 135.424 155.375C135.596 155.434 135.779 155.456 135.96 155.44C136.485 155.359 136.981 155.146 137.4 154.82C138.004 154.416 138.573 153.961 139.1 153.46C139.63 152.981 140.131 152.47 140.6 151.93C140.94 151.557 141.238 151.148 141.49 150.71L143.8 154.15C143.279 154.804 142.707 155.416 142.09 155.98C141.12 156.859 140.084 157.662 138.99 158.38C137.911 159.173 136.683 159.741 135.38 160.05C134.46 160.262 133.496 160.149 132.65 159.73C131.801 159.244 131.083 158.557 130.56 157.73L128.56 154.73L126.56 152.73L126.11 151.07L130.03 148.44L130.78 149.57H131.09C131.164 149.231 131.261 148.896 131.38 148.57C131.572 148.051 131.838 147.562 132.17 147.12C132.614 146.51 133.171 145.991 133.81 145.59ZM133.88 149.9C133.511 150.13 133.174 150.409 132.88 150.73C132.693 150.932 132.519 151.146 132.36 151.37L132.66 151.81C132.759 151.921 132.883 152.006 133.023 152.057C133.163 152.107 133.313 152.122 133.46 152.1C134.01 152.04 134.533 151.829 134.97 151.49C135.79 150.93 135.97 150.36 135.62 149.78C135.552 149.669 135.456 149.578 135.342 149.515C135.228 149.452 135.1 149.419 134.97 149.42C134.57 149.479 134.193 149.645 133.88 149.9Z" fill="#EA5A42"/>
<path d="M124.27 152L126.95 159.86L128.45 162.56L128.18 164.43L124.29 165.75L123.9 164.63L123.62 164.55C123.44 164.857 123.243 165.155 123.03 165.44C122.737 165.829 122.401 166.184 122.03 166.5C121.57 166.877 121.045 167.165 120.48 167.35C119.844 167.623 119.157 167.752 118.466 167.73C117.774 167.707 117.097 167.533 116.48 167.22C115.276 166.45 114.403 165.259 114.03 163.88L112.9 160.56L111.46 158.14V156.36L116.16 154.76L118.49 161.6C118.654 162.161 119.008 162.649 119.49 162.98C119.721 163.111 119.98 163.187 120.246 163.201C120.511 163.215 120.776 163.167 121.02 163.06L122.47 162.01L119.61 153.6L124.27 152Z" fill="#EA5A42"/>
<path d="M105.85 156.71C106.593 156.652 107.34 156.72 108.06 156.91C108.727 157.08 109.32 157.462 109.75 158C110.244 158.677 110.514 159.492 110.52 160.33C110.603 161.145 110.413 161.965 109.98 162.66C109.538 163.309 108.921 163.819 108.2 164.13C107.36 164.492 106.463 164.702 105.55 164.75C104.822 164.831 104.085 164.77 103.38 164.57C102.942 164.41 102.515 164.223 102.1 164.01L101.92 164.19C101.941 164.651 102.019 165.108 102.15 165.55C102.203 165.724 102.291 165.885 102.41 166.023C102.529 166.161 102.675 166.272 102.84 166.35C103.335 166.545 103.872 166.611 104.4 166.54C105.124 166.487 105.842 166.38 106.55 166.22C107.246 166.062 107.934 165.869 108.61 165.64C109.093 165.472 109.558 165.258 110 165L110.27 169.13C109.492 169.438 108.689 169.679 107.87 169.85C106.593 170.131 105.296 170.304 103.99 170.37C102.646 170.518 101.286 170.396 99.99 170.01C99.0871 169.733 98.3091 169.149 97.79 168.36C97.287 167.524 97.0048 166.575 96.97 165.6L96.77 162L96 159.24L96.45 157.58L101.16 157.26L101.25 158.61L101.53 158.73C101.761 158.491 102.005 158.264 102.26 158.05C102.688 157.7 103.163 157.41 103.67 157.19C104.362 156.901 105.1 156.738 105.85 156.71ZM103.75 160.47C103.319 160.491 102.893 160.565 102.48 160.69C102.218 160.775 101.961 160.875 101.71 160.99V161.51C101.71 161.75 101.92 161.97 102.27 162.17C102.772 162.392 103.326 162.471 103.87 162.4C104.87 162.33 105.34 161.95 105.29 161.25C105.29 161.12 105.256 160.993 105.191 160.881C105.126 160.768 105.032 160.675 104.92 160.61C104.549 160.462 104.146 160.414 103.75 160.47Z" fill="#EA5A42"/>
<path d="M164.23 87.66C163.461 87.661 162.722 87.367 162.163 86.8386C161.605 86.3101 161.271 85.5875 161.23 84.82C160.558 73.5304 156.099 62.797 148.574 54.3541C141.05 45.9111 130.898 40.2516 119.76 38.29C118.975 38.1573 118.275 37.7183 117.813 37.0694C117.352 36.4206 117.167 35.615 117.3 34.83C117.433 34.0449 117.872 33.3447 118.521 32.8834C119.169 32.422 119.975 32.2373 120.76 32.3699C133.24 34.5673 144.614 40.9076 153.046 50.3666C161.478 59.8255 166.475 71.8508 167.23 84.5C167.274 85.2942 167 86.0733 166.469 86.6659C165.939 87.2585 165.194 87.6161 164.4 87.66H164.23Z" fill="#EA5A42"/>
<path d="M76 166.62C75.8289 166.618 75.6583 166.602 75.49 166.57C63.0133 164.37 51.6424 158.029 43.2141 148.57C34.7858 139.111 29.7922 127.087 29.04 114.44C28.9976 113.644 29.273 112.864 29.8056 112.272C30.3382 111.679 31.0844 111.322 31.88 111.28C32.6757 111.238 33.4556 111.513 34.0482 112.046C34.6408 112.578 34.9976 113.324 35.04 114.12C35.7094 125.41 40.1656 136.144 47.6887 144.589C55.2117 153.034 65.3621 158.696 76.5 160.66C77.2957 160.726 78.0324 161.106 78.5481 161.715C79.0639 162.325 79.3163 163.114 79.25 163.91C79.1837 164.706 78.8041 165.442 78.1946 165.958C77.5851 166.474 76.7957 166.726 76 166.66V166.62Z" fill="#EA5A42"/>
</g>
<defs>
<clipPath id="clip0_0_240">
<rect width="198.13" height="198.05" fill="white"/>
</clipPath>
</defs>
</svg>
