<svg width="154" height="154" viewBox="0 0 154 154" fill="none" xmlns="http://www.w3.org/2000/svg">
<g clip-path="url(#clip0_0_9638)">
<path d="M39 9.84L68.24 44.64L76.57 0H77.41L85.41 44.46L114.62 9.84L115.18 10.21L100 53.18L142.79 37.77L143.16 38.33L108.31 68L153.23 76V76.75L108.87 84.91L143.3 114.15L142.93 114.8L100 99.59L115.59 142.59L114.85 142.96L85.39 108.87L77.39 153.14H76.55L68.2 107.94L38.41 142.94L37.85 142.57L53 99.77L10.3 115L9.84 114.35L44.46 85.11L0 76.76V76L45 68L10.49 38.14L10.67 37.59L53.18 52.81L38.43 10.21L39 9.84Z" fill="#D26008"/>
<path d="M70.69 98.69L48.55 124.69L59.76 92.99L28.16 104.26L53.73 82.66L20.87 76.49L54.24 70.57L28.6 48.38L59.88 59.58L49 28.16L70.66 53.95L76.91 20.54L82.88 53.8L104.4 28.32L93.18 60L124.68 48.65L99.01 70.56L132.17 76.45L99.59 82.44L125.15 104.14L93.12 92.8L104.84 125.09L82.87 99.66L76.94 132.52L70.69 98.69Z" fill="#EA8938"/>
</g>
<defs>
<clipPath id="clip0_0_9638">
<rect width="153.23" height="153.14" fill="white"/>
</clipPath>
</defs>
</svg>
