<svg width="215" height="215" viewBox="0 0 215 215" fill="none" xmlns="http://www.w3.org/2000/svg">
<g clip-path="url(#clip0_0_9644)">
<path d="M182.759 182.763C224.568 140.953 224.568 73.1667 182.759 31.3572C140.949 -10.4523 73.1624 -10.4523 31.3529 31.3572C-10.4567 73.1667 -10.4567 140.953 31.3529 182.763C73.1624 224.572 140.949 224.572 182.759 182.763Z" fill="#DD7907"/>
<path d="M107.06 209.12C163.426 209.12 209.12 163.426 209.12 107.06C209.12 50.6938 163.426 5 107.06 5C50.6938 5 5 50.6938 5 107.06C5 163.426 50.6938 209.12 107.06 209.12Z" fill="#FFDD68"/>
<path d="M32 114.15C33.0406 128.809 35.2679 143.36 38.66 157.66C38.8627 157.795 39.0907 157.886 39.33 157.93C39.97 158.01 40.02 156.99 39.53 154.8C35.65 137.59 34.29 120.48 33.97 102.89C34.9193 100.881 36.2824 99.0954 37.97 97.65C39.397 96.2581 41.1004 95.1815 42.97 94.49C46.48 93.38 49.05 94.71 50.78 98.29C52.51 101.87 53.44 106.86 53.68 112.95C53.81 116.35 53.53 124.1 53.55 135.4C53.6378 149.55 54.603 163.68 56.44 177.71C57.28 183.36 57.16 186.85 56.03 188.15C55.03 189.27 53.28 188.89 50.71 187.15C48.8453 185.805 47.0989 184.303 45.49 182.66C43.62 180.82 41.79 178.88 40 176.87C33.8774 168.856 28.2021 160.51 23 151.87C17.21 142.26 12 131.76 9.66003 120.3C10.2278 117.289 11.3916 114.421 13.0831 111.866C14.7746 109.31 16.9597 107.119 19.51 105.42C25.9 101.47 29.72 104.67 32 114.15Z" fill="#DD7907"/>
<path d="M76.2001 110C76.5401 138.28 77.8201 166.48 81.1101 194.59C80.5923 196.171 79.618 197.562 78.3101 198.59C77.1101 199.48 75.5601 199.59 73.6401 198.91C71.7201 198.23 69.8701 196.41 68.0101 193.63C65.7404 190.137 64.165 186.239 63.3701 182.15C57.7301 155 55.4401 127.57 54.8101 99.9C55.7752 97.5459 57.1996 95.4077 59.0001 93.61C59.7964 92.742 60.773 92.0587 61.8612 91.6078C62.9495 91.1569 64.1232 90.9495 65.3001 91C68.1201 91 70.7101 92.73 72.8001 95.89C75.1301 99.45 76.1801 104.3 76.2001 110Z" fill="#DD7907"/>
<path d="M79 106.68C79.0679 105.142 79.5783 103.655 80.47 102.4C82.47 99.3 86.08 97.4 90.66 97.49C93.3753 97.6304 96.0122 98.4486 98.33 99.87C104.8 103.51 109.59 110.06 112.81 117.87C115.726 125.018 117.244 132.66 117.28 140.38C117.32 143.182 117.12 145.982 116.68 148.75C116.465 150.754 115.828 152.69 114.81 154.43C114.071 153.119 112.942 152.07 111.58 151.43C111.389 151.341 111.173 151.322 110.97 151.377C110.767 151.432 110.59 151.557 110.47 151.73C110.135 152.458 110 153.262 110.08 154.06C113.29 155.43 115.64 158.72 117.33 163.76C118.916 168.816 119.629 174.105 119.44 179.4C119.27 188.48 117.3 194.58 113.78 198.58C110.49 202.32 105.61 204.41 99.24 203.87C95.8737 203.712 92.5667 202.925 89.49 201.55C87.2035 200.247 85.469 198.157 84.61 195.67C83.1563 191.608 82.2974 187.358 82.06 183.05C80.08 157.6 79.12 132.22 79 106.68ZM98 145.68C98.08 145.87 98.34 146.04 98.75 146.19C99.16 146.34 99.49 146.05 99.75 145.33C100.009 144.074 100.11 142.791 100.05 141.51V141C100.08 139.567 99.9794 138.135 99.75 136.72C99.56 135.8 99.25 135.25 98.82 135.08C98.39 134.91 98.1 134.9 97.95 135.08C97.95 135.37 97.95 135.84 97.95 136.49C98 140.2 98 142 98.06 145.68H98ZM98.42 175.08C98.5 175.25 98.75 175.38 99.15 175.47C99.55 175.56 99.85 175.3 100.05 174.7C100.3 173.595 100.388 172.46 100.31 171.33C100.31 170.76 100.31 170.47 100.31 169.9C100.324 168.526 100.214 167.154 99.98 165.8C99.79 164.93 99.48 164.44 99.06 164.32C98.64 164.2 98.35 164.23 98.21 164.4C98.21 164.66 98.21 165.1 98.21 165.72C98.36 169.51 98.4 171.38 98.48 175.08H98.42Z" fill="#DD7907"/>
<path d="M135.23 122.6C142.48 125.484 150.198 127.009 158 127.1C158.82 129.122 159.4 131.233 159.73 133.39C160.052 135.373 160.189 137.382 160.14 139.39C160 143.31 159.3 146.24 158.19 148.25C157.792 149.131 157.161 149.886 156.364 150.432C155.567 150.979 154.635 151.296 153.67 151.35C148.669 151.546 143.662 151.187 138.74 150.28C137.87 150.14 137.44 150.67 137.43 151.89C137.43 152.09 137.43 152.19 137.43 152.4C137.416 152.573 137.44 152.747 137.5 152.91C143.285 153.982 149.184 154.302 155.05 153.86C155.488 155.249 155.75 156.686 155.83 158.14C155.938 159.785 155.877 161.437 155.65 163.07C155.237 166.595 154.158 170.009 152.47 173.13C149.47 173.62 148.04 173.81 145.16 174.05C142.861 174.136 140.577 174.472 138.35 175.05C137.54 175.295 136.781 175.684 136.11 176.2C135.795 176.573 135.619 177.042 135.61 177.53C135.577 177.751 135.59 177.976 135.649 178.191C135.707 178.406 135.81 178.607 135.95 178.78C137.064 178.103 138.274 177.601 139.54 177.29C141.291 176.911 143.065 176.644 144.85 176.49C147.979 176.209 151.086 175.718 154.15 175.02C154.81 177.62 154.53 180.79 153.37 184.53C152.721 186.61 151.912 188.636 150.95 190.59C150.123 192.306 149.146 193.946 148.03 195.49C141.649 198.42 134.917 200.514 128 201.72C126.953 201.978 125.85 201.874 124.87 201.425C123.89 200.977 123.09 200.21 122.6 199.25C121.18 196.97 120.49 193.25 120.6 188.1C121.15 166.18 121.1 144.31 120.6 122.39C120.53 120 121.6 118.87 123.91 119.02C126.22 119.17 129.82 120.58 135.23 122.6Z" fill="#DD7907"/>
<path d="M172.39 171.34C173.102 170.838 173.656 170.144 173.99 169.34C174.353 168.515 174.579 167.637 174.66 166.74C174.754 165.926 174.619 165.101 174.27 164.36C173.35 162.61 171.16 162.25 167.95 163.27C166.232 163.843 164.628 164.713 163.21 165.84C162.02 165.05 161.21 163.42 160.77 160.91C160.301 158.043 160.24 155.124 160.59 152.24C161.5 143.74 163.92 136.67 168.59 131.24C172.511 126.773 177.646 123.542 183.37 121.94C187.74 120.6 191.37 119.83 194.32 119.94C197.27 120.05 199.5 120.55 201.08 121.7C201.328 124.017 201.21 126.359 200.73 128.64C200.239 131.096 199.498 133.495 198.52 135.8C197.672 137.85 196.61 139.804 195.35 141.63C194.88 141.22 193.8 141.12 192.07 141.25C190.316 141.376 188.597 141.806 186.99 142.52C185.79 142.989 184.657 143.614 183.62 144.38C183.232 144.695 182.921 145.096 182.711 145.55C182.502 146.004 182.399 146.5 182.41 147C183.378 146.313 184.417 145.733 185.51 145.27C189.82 143.37 192.98 143.06 194.51 144.58C196.3 146.38 195.41 150.83 191.42 157.49C187.89 163.36 183.06 168.9 178 174.22C172.55 179.94 168 184.28 163.76 187.31C162.014 188.65 160.075 189.718 158.01 190.48C156.51 190.94 154.36 190.67 154.01 190.01C153.38 188.82 154.4 184.37 155.44 180.83C156.418 177.321 158.027 174.021 160.19 171.09C162.38 168.2 164.67 166.41 167.01 165.65C169.35 164.89 171.06 164.92 172.01 165.79C172.96 166.66 173.13 168.55 172.39 171.34Z" fill="#DD7907"/>
<path d="M42.8301 45.83C48.7017 42.8282 54.8855 40.4807 61.2701 38.83C61.9282 42.071 61.9993 45.4039 61.4801 48.67C61.1523 52.3209 60.3419 55.9122 59.0701 59.35L57.7801 59.59C57.4043 65.2491 57.3509 70.9249 57.6201 76.59C53.7201 83.76 48.4801 87.8 40.1001 90.67C35.3863 92.3894 30.3844 93.1806 25.3701 93C20.4601 92.67 16.5501 91 14.6501 87.37C12.5601 83.37 12.9901 77.05 16.4001 69.08C20.9501 58.45 28.2301 49.08 36.0701 40.55C42.7401 33.36 48.0001 28.32 53.1001 25C55.6101 23.34 57.7101 22.44 59.5701 22.4C60.3745 22.3208 61.1851 22.4656 61.9123 22.8186C62.6394 23.1716 63.2547 23.7189 63.6901 24.4C63.1301 26.1 62.3401 28.29 61.3601 31.02C60.3801 33.75 59.5401 36 58.7701 37.57C53.1589 39.2636 47.7265 41.5009 42.5501 44.25C41.2563 46.0037 40.0963 47.8522 39.0801 49.78C37.7538 52.1686 36.7453 54.7202 36.0801 57.37C35.1601 61.14 35.3601 63.89 36.4101 65.52C37.4601 67.15 38.8701 67.43 40.7501 66.72C41.0985 66.6174 41.4066 66.4095 41.6322 66.1248C41.8578 65.8402 41.9898 65.4927 42.0101 65.13C42.0101 64.64 42.0801 64.4 42.1301 63.91L41.7301 64.06C41.1147 64.3775 40.4003 64.4444 39.7366 64.2468C39.073 64.0492 38.5116 63.6024 38.1701 63C37.3801 61.68 37.3001 59.41 38.0401 56.24C38.9163 52.4818 40.5458 48.9404 42.8301 45.83Z" fill="#DD7907"/>
<path d="M87.26 90.5C82.5539 88.6453 78.2161 85.9668 74.45 82.59C70.0004 78.7268 66.468 73.9202 64.11 68.52C61.54 62.74 61.84 55.64 62.6 47.79C63.46 39.08 67.69 27.89 73.39 21.15C78.1 15.56 82.72 11.67 88.12 10.61C94 9.45999 98.72 12 102.28 19.33C107.05 29.14 108.08 40.87 108.17 51.65C108.26 62.91 107.87 76.17 102.32 86.07C99 92 94.12 93 87.26 90.5ZM87.62 44.5C87.7251 41.8101 87.6917 39.1165 87.52 36.43C87.37 34.99 87.03 34.28 86.52 34.27C86.3312 34.2766 86.1468 34.3293 85.983 34.4234C85.8192 34.5175 85.6808 34.6502 85.58 34.81C85.58 35.49 85.58 36.39 85.67 37.53C85.76 38.67 85.67 41.1 85.58 44.96C85.58 46.49 85.58 47.27 85.51 48.83C85.51 51.55 85.43 53.57 85.36 54.83C85.29 56.09 85.23 57.17 85.19 58.07C85.19 58.57 85.19 59.07 85.12 59.56C85.2221 59.7554 85.3637 59.9274 85.5359 60.0651C85.708 60.2028 85.9069 60.3033 86.12 60.36C86.7 60.46 87.12 59.75 87.28 58.22C87.5313 55.4039 87.6414 52.5771 87.61 49.75C87.57 47.62 87.59 46.57 87.62 44.49V44.5Z" fill="#DD7907"/>
<path d="M130.52 114.64C126.52 112.73 123.22 108.64 120.19 102.84C117.16 97.04 114.73 89.58 112.74 81C110.684 71.5073 109.645 61.8227 109.64 52.11C109.56 41.21 110.34 28.98 115.53 19.17C118.86 12.86 123.24 9.97997 128.59 11.17C134.4 12.47 139.34 18.01 144.15 27.85C150.07 39.97 152.76 52.68 154.32 65.85C155.91 79.19 154.48 94.85 147.82 106.6C143.23 114.68 136.93 117.72 130.52 114.64ZM132.77 56.39C132.731 52.8846 132.514 49.3834 132.12 45.9C131.84 43.98 131.44 42.95 130.91 42.79C130.59 42.7 130.3 42.85 130.06 43.26C130.14 44.16 130.25 45.36 130.39 46.88C130.53 48.4 130.7 51.58 130.81 56.58C130.81 58.58 130.87 59.58 130.9 61.58C130.96 65.1 130.9 67.68 130.9 69.29C130.9 70.9 130.78 72.29 130.74 73.43C130.74 74.06 130.69 74.69 130.67 75.32C130.819 75.8064 131.148 76.2176 131.59 76.47C132.14 76.68 132.52 75.81 132.73 73.88C132.987 70.2994 133.057 66.7078 132.94 63.12C132.87 60.41 132.84 59.06 132.77 56.39Z" fill="#DD7907"/>
<path d="M168.4 118.73C166.716 118.963 165.002 118.637 163.521 117.803C162.04 116.968 160.873 115.671 160.2 114.11C158.61 110.75 157.89 105.65 157.88 99.11C157.503 75.9922 155.202 52.9459 151 30.21C150.28 26.73 151.14 24.38 153.22 23.41C155.3 22.44 157.68 23.02 160.72 24.97C166.06 28.43 171.72 34.49 178.21 41.44C186 49.69 193.09 59 197.75 69.16C201.4 77.16 202.45 89.52 199.21 97.87C195.97 106.22 189.81 114.06 180.02 116.62C176.219 117.676 172.33 118.382 168.4 118.73ZM178.62 65.42C177.849 62.3099 176.867 59.2561 175.68 56.28C174.98 54.62 174.36 53.74 173.84 53.64C173.52 53.58 173.3 53.74 173.17 54.13C173.46 54.93 173.84 56 174.32 57.35C174.8 58.7 175.67 61.55 176.76 66.04C177.19 67.83 177.4 68.73 177.76 70.55C178.45 73.71 178.85 76.05 179.04 77.55C179.23 79.05 179.38 80.3 179.5 81.36C179.57 81.94 179.64 82.52 179.7 83.1C179.824 83.2934 179.994 83.453 180.194 83.5647C180.395 83.6764 180.62 83.7366 180.85 83.74C181.46 83.68 181.73 82.74 181.65 80.96C181.367 77.7226 180.829 74.5126 180.04 71.36C179.53 69 179.24 67.77 178.62 65.42Z" fill="#DD7907"/>
</g>
<defs>
<clipPath id="clip0_0_9644">
<rect width="214.12" height="214.12" fill="white"/>
</clipPath>
</defs>
</svg>
