<svg width="293" height="149" viewBox="0 0 293 149" fill="none" xmlns="http://www.w3.org/2000/svg">
<g clip-path="url(#clip0_0_9659)">
<path d="M148.44 148.44C129.537 148.441 110.819 144.719 93.355 137.486C75.8908 130.253 60.0224 119.65 46.6561 106.284C33.2898 92.9176 22.6873 77.0492 15.4541 59.585C8.22091 42.1208 4.49869 23.4028 4.5 4.5H292.38C292.381 23.4028 288.659 42.1208 281.426 59.585C274.193 77.0492 263.59 92.9176 250.224 106.284C236.858 119.65 220.989 130.253 203.525 137.486C186.061 144.719 167.343 148.441 148.44 148.44Z" fill="#F8442E"/>
<path d="M148.34 148.34C129.437 148.341 110.719 144.619 93.255 137.386C75.7908 130.153 59.9225 119.55 46.5561 106.184C33.1898 92.8176 22.5873 76.9492 15.3541 59.485C8.12093 42.0208 4.39871 23.3029 4.40002 4.40002H292.28C292.281 23.3029 288.559 42.0208 281.326 59.485C274.093 76.9492 263.49 92.8176 250.124 106.184C236.758 119.55 220.889 130.153 203.425 137.386C185.961 144.619 167.243 148.341 148.34 148.34Z" fill="#F8442E"/>
<path d="M148.24 148.24C129.337 148.241 110.619 144.519 93.155 137.286C75.6908 130.053 59.8225 119.45 46.4562 106.084C33.0898 92.7175 22.4874 76.8492 15.2542 59.385C8.02096 41.9208 4.29874 23.2028 4.30005 4.29999H292.18C292.181 23.2028 288.459 41.9208 281.226 59.385C273.993 76.8492 263.39 92.7175 250.024 106.084C236.658 119.45 220.789 130.053 203.325 137.286C185.861 144.519 167.143 148.241 148.24 148.24Z" fill="#F8442E"/>
<path d="M148.14 148.14C129.237 148.141 110.519 144.419 93.0549 137.186C75.5908 129.953 59.7224 119.35 46.3561 105.984C32.9897 92.6176 22.3873 76.7492 15.1541 59.285C7.92086 41.8208 4.19864 23.1029 4.19995 4.20001H292.08C292.081 23.1029 288.359 41.8208 281.126 59.285C273.893 76.7492 263.29 92.6176 249.924 105.984C236.557 119.35 220.689 129.953 203.225 137.186C185.761 144.419 167.043 148.141 148.14 148.14Z" fill="#F8442E"/>
<path d="M148 148C109.838 147.992 73.2409 132.829 46.2561 105.844C19.2713 78.8591 4.10793 42.2622 4.09998 4.09998H292C291.996 23.0045 288.268 41.7231 281.029 59.1866C273.789 76.6501 263.181 92.5163 249.809 105.879C236.436 119.242 220.563 129.84 203.094 137.067C185.626 144.294 166.904 148.009 148 148Z" fill="#F8442E"/>
<path d="M147.94 147.94C129.037 147.941 110.319 144.219 92.855 136.986C75.3908 129.753 59.5224 119.15 46.1561 105.784C32.7898 92.4176 22.1873 76.5492 14.9541 59.085C7.72091 41.6208 3.99869 22.9028 4 4H291.88C291.881 22.9028 288.159 41.6208 280.926 59.085C273.693 76.5492 263.09 92.4176 249.724 105.784C236.358 119.15 220.489 129.753 203.025 136.986C185.561 144.219 166.843 147.941 147.94 147.94Z" fill="#F8442E"/>
<path d="M147.84 147.84C128.937 147.841 110.219 144.119 92.755 136.886C75.2908 129.653 59.4225 119.05 46.0561 105.684C32.6898 92.3176 22.0873 76.4492 14.8541 58.985C7.62093 41.5208 3.89871 22.8029 3.90002 3.90002H291.78C291.781 22.8029 288.059 41.5208 280.826 58.985C273.593 76.4492 262.99 92.3176 249.624 105.684C236.258 119.05 220.389 129.653 202.925 136.886C185.461 144.119 166.743 147.841 147.84 147.84Z" fill="#F8442E"/>
<path d="M147.74 147.74C128.837 147.741 110.119 144.019 92.655 136.786C75.1908 129.553 59.3225 118.95 45.9562 105.584C32.5898 92.2175 21.9874 76.3492 14.7542 58.885C7.52096 41.4208 3.79874 22.7028 3.80005 3.79999H291.68C291.681 22.7028 287.959 41.4208 280.726 58.885C273.493 76.3492 262.89 92.2175 249.524 105.584C236.158 118.95 220.289 129.553 202.825 136.786C185.361 144.019 166.643 147.741 147.74 147.74Z" fill="#F8442E"/>
<path d="M147.64 147.64C128.737 147.641 110.019 143.919 92.5549 136.686C75.0908 129.453 59.2224 118.85 45.8561 105.484C32.4897 92.1176 21.8873 76.2492 14.6541 58.785C7.42086 41.3208 3.69864 22.6029 3.69995 3.70001H291.58C291.581 22.6029 287.859 41.3208 280.626 58.785C273.393 76.2492 262.79 92.1176 249.424 105.484C236.057 118.85 220.189 129.453 202.725 136.686C185.261 143.919 166.543 147.641 147.64 147.64Z" fill="#F8442E"/>
<path d="M147.54 147.54C128.637 147.541 109.919 143.819 92.455 136.586C74.9908 129.353 59.1224 118.75 45.7561 105.384C32.3898 92.0175 21.7873 76.1492 14.5541 58.685C7.32088 41.2208 3.59866 22.5028 3.59998 3.59998H291.48C291.481 22.5028 287.759 41.2208 280.526 58.685C273.293 76.1492 262.69 92.0175 249.324 105.384C235.958 118.75 220.089 129.353 202.625 136.586C185.161 143.819 166.443 147.541 147.54 147.54Z" fill="#F8442E"/>
<path d="M147.44 147.44C128.537 147.441 109.819 143.719 92.355 136.486C74.8908 129.253 59.0224 118.65 45.6561 105.284C32.2898 91.9176 21.6873 76.0492 14.4541 58.585C7.22091 41.1208 3.49869 22.4028 3.5 3.5H291.38C291.381 22.4028 287.659 41.1208 280.426 58.585C273.193 76.0492 262.59 91.9176 249.224 105.284C235.858 118.65 219.989 129.253 202.525 136.486C185.061 143.719 166.343 147.441 147.44 147.44Z" fill="#F8442E"/>
<path d="M147.34 147.34C128.437 147.341 109.719 143.619 92.255 136.386C74.7908 129.153 58.9225 118.55 45.5561 105.184C32.1898 91.8176 21.5873 75.9492 14.3541 58.485C7.12093 41.0208 3.39871 22.3029 3.40002 3.40002H291.28C291.281 22.3029 287.559 41.0208 280.326 58.485C273.093 75.9492 262.49 91.8176 249.124 105.184C235.758 118.55 219.889 129.153 202.425 136.386C184.961 143.619 166.243 147.341 147.34 147.34Z" fill="#F8442E"/>
<path d="M147.24 147.24C128.337 147.241 109.619 143.519 92.155 136.286C74.6908 129.053 58.8225 118.45 45.4562 105.084C32.0898 91.7175 21.4874 75.8492 14.2542 58.385C7.02096 40.9208 3.29874 22.2028 3.30005 3.29999H291.18C291.181 22.2028 287.459 40.9208 280.226 58.385C272.993 75.8492 262.39 91.7175 249.024 105.084C235.658 118.45 219.789 129.053 202.325 136.286C184.861 143.519 166.143 147.241 147.24 147.24Z" fill="#F8442E"/>
<path d="M147.14 147.14C128.237 147.141 109.519 143.419 92.0549 136.186C74.5908 128.953 58.7224 118.35 45.3561 104.984C31.9897 91.6176 21.3873 75.7492 14.1541 58.285C6.92086 40.8208 3.19864 22.1029 3.19995 3.20001H291.08C291.081 22.1029 287.359 40.8208 280.126 58.285C272.893 75.7492 262.29 91.6176 248.924 104.984C235.557 118.35 219.689 128.953 202.225 136.186C184.761 143.419 166.043 147.141 147.14 147.14Z" fill="#F8442E"/>
<path d="M147 147C108.838 146.992 72.2409 131.829 45.2561 104.844C18.2713 77.8591 3.10793 41.2622 3.09998 3.09998H291C290.996 22.0045 287.268 40.7231 280.029 58.1866C272.789 75.6501 262.181 91.5163 248.809 104.879C235.436 118.242 219.563 128.84 202.094 136.067C184.626 143.294 165.904 147.009 147 147Z" fill="#F8442E"/>
<path d="M146.94 146.94C128.037 146.941 109.319 143.219 91.855 135.986C74.3908 128.753 58.5224 118.15 45.1561 104.784C31.7898 91.4176 21.1873 75.5492 13.9541 58.085C6.72091 40.6208 2.99869 21.9028 3 3H290.88C290.881 21.9028 287.159 40.6208 279.926 58.085C272.693 75.5492 262.09 91.4176 248.724 104.784C235.358 118.15 219.489 128.753 202.025 135.986C184.561 143.219 165.843 146.941 146.94 146.94Z" fill="#F8442E"/>
<path d="M146.84 146.84C127.937 146.841 109.219 143.119 91.755 135.886C74.2908 128.653 58.4225 118.05 45.0561 104.684C31.6898 91.3176 21.0873 75.4492 13.8541 57.985C6.62093 40.5208 2.89871 21.8029 2.90002 2.90002H290.78C290.781 21.8029 287.059 40.5208 279.826 57.985C272.593 75.4492 261.99 91.3176 248.624 104.684C235.258 118.05 219.389 128.653 201.925 135.886C184.461 143.119 165.743 146.841 146.84 146.84Z" fill="#F8442E"/>
<path d="M146.74 146.74C127.837 146.741 109.119 143.019 91.655 135.786C74.1908 128.553 58.3225 117.95 44.9562 104.584C31.5898 91.2175 20.9874 75.3492 13.7542 57.885C6.52096 40.4208 2.79874 21.7028 2.80005 2.79999H290.68C290.681 21.7028 286.959 40.4208 279.726 57.885C272.493 75.3492 261.89 91.2175 248.524 104.584C235.158 117.95 219.289 128.553 201.825 135.786C184.361 143.019 165.643 146.741 146.74 146.74Z" fill="#F8442E"/>
<path d="M146.64 146.64C127.737 146.641 109.019 142.919 91.5549 135.686C74.0908 128.453 58.2224 117.85 44.8561 104.484C31.4897 91.1176 20.8873 75.2492 13.6541 57.785C6.42086 40.3208 2.69864 21.6029 2.69995 2.70001H290.58C290.581 21.6029 286.859 40.3208 279.626 57.785C272.393 75.2492 261.79 91.1176 248.424 104.484C235.057 117.85 219.189 128.453 201.725 135.686C184.261 142.919 165.543 146.641 146.64 146.64Z" fill="#F8442E"/>
<path d="M146.54 146.54C127.637 146.541 108.919 142.819 91.455 135.586C73.9908 128.353 58.1224 117.75 44.7561 104.384C31.3898 91.0175 20.7873 75.1492 13.5541 57.685C6.32088 40.2208 2.59866 21.5028 2.59998 2.59998H290.48C290.481 21.5028 286.759 40.2208 279.526 57.685C272.293 75.1492 261.69 91.0175 248.324 104.384C234.958 117.75 219.089 128.353 201.625 135.586C184.161 142.819 165.443 146.541 146.54 146.54Z" fill="#F8442E"/>
<path d="M146.44 146.44C127.537 146.441 108.819 142.719 91.355 135.486C73.8908 128.253 58.0224 117.65 44.6561 104.284C31.2898 90.9176 20.6873 75.0492 13.4541 57.585C6.22091 40.1208 2.49869 21.4028 2.5 2.5H290.38C290.381 21.4028 286.659 40.1208 279.426 57.585C272.193 75.0492 261.59 90.9176 248.224 104.284C234.858 117.65 218.989 128.253 201.525 135.486C184.061 142.719 165.343 146.441 146.44 146.44Z" fill="#F8442E"/>
<path d="M146.34 146.34C127.437 146.341 108.719 142.619 91.255 135.386C73.7908 128.153 57.9225 117.55 44.5561 104.184C31.1898 90.8176 20.5873 74.9492 13.3541 57.485C6.12093 40.0208 2.39871 21.3029 2.40002 2.40002H290.28C290.281 21.3029 286.559 40.0208 279.326 57.485C272.093 74.9492 261.49 90.8176 248.124 104.184C234.758 117.55 218.889 128.153 201.425 135.386C183.961 142.619 165.243 146.341 146.34 146.34Z" fill="#F8442E"/>
<path d="M146.24 146.24C127.337 146.241 108.619 142.519 91.155 135.286C73.6908 128.053 57.8225 117.45 44.4562 104.084C31.0898 90.7175 20.4874 74.8492 13.2542 57.385C6.02096 39.9208 2.29874 21.2028 2.30005 2.29999H290.18C290.181 21.2028 286.459 39.9208 279.226 57.385C271.993 74.8492 261.39 90.7175 248.024 104.084C234.658 117.45 218.789 128.053 201.325 135.286C183.861 142.519 165.143 146.241 146.24 146.24Z" fill="#F8442E"/>
<path d="M146.14 146.14C127.237 146.141 108.519 142.419 91.0549 135.186C73.5908 127.953 57.7224 117.35 44.3561 103.984C30.9897 90.6176 20.3873 74.7492 13.1541 57.285C5.92086 39.8208 2.19864 21.1029 2.19995 2.20001H290.08C290.081 21.1029 286.359 39.8208 279.126 57.285C271.893 74.7492 261.29 90.6176 247.924 103.984C234.557 117.35 218.689 127.953 201.225 135.186C183.761 142.419 165.043 146.141 146.14 146.14Z" fill="#F8442E"/>
<path d="M146 146C107.838 145.992 71.2409 130.829 44.2561 103.844C17.2713 76.8591 2.10793 40.2622 2.09998 2.09998H290C289.996 21.0045 286.268 39.7231 279.029 57.1866C271.789 74.6501 261.181 90.5163 247.809 103.879C234.436 117.242 218.563 127.84 201.094 135.067C183.626 142.294 164.904 146.009 146 146Z" fill="#F8442E"/>
<path d="M145.94 145.94C127.037 145.941 108.319 142.219 90.855 134.986C73.3908 127.753 57.5224 117.15 44.1561 103.784C30.7898 90.4176 20.1873 74.5492 12.9541 57.085C5.72091 39.6208 1.99869 20.9028 2 2H289.88C289.881 20.9028 286.159 39.6208 278.926 57.085C271.693 74.5492 261.09 90.4176 247.724 103.784C234.358 117.15 218.489 127.753 201.025 134.986C183.561 142.219 164.843 145.941 145.94 145.94Z" fill="#F8442E"/>
<path d="M145.84 145.84C126.937 145.841 108.219 142.119 90.755 134.886C73.2908 127.653 57.4225 117.05 44.0561 103.684C30.6898 90.3176 20.0873 74.4492 12.8541 56.985C5.62093 39.5208 1.89871 20.8029 1.90002 1.90002H289.78C289.781 20.8029 286.059 39.5208 278.826 56.985C271.593 74.4492 260.99 90.3176 247.624 103.684C234.258 117.05 218.389 127.653 200.925 134.886C183.461 142.119 164.743 145.841 145.84 145.84Z" fill="#F8442E"/>
<path d="M145.74 145.74C126.837 145.741 108.119 142.019 90.655 134.786C73.1908 127.553 57.3225 116.95 43.9562 103.584C30.5898 90.2175 19.9874 74.3492 12.7542 56.885C5.52096 39.4208 1.79874 20.7028 1.80005 1.79999H289.68C289.681 20.7028 285.959 39.4208 278.726 56.885C271.493 74.3492 260.89 90.2175 247.524 103.584C234.158 116.95 218.289 127.553 200.825 134.786C183.361 142.019 164.643 145.741 145.74 145.74Z" fill="#F8442E"/>
<path d="M145.64 145.64C126.737 145.641 108.019 141.919 90.5549 134.686C73.0908 127.453 57.2224 116.85 43.8561 103.484C30.4897 90.1176 19.8873 74.2492 12.6541 56.785C5.42086 39.3208 1.69864 20.6029 1.69995 1.70001H289.58C289.581 20.6029 285.859 39.3208 278.626 56.785C271.393 74.2492 260.79 90.1176 247.424 103.484C234.057 116.85 218.189 127.453 200.725 134.686C183.261 141.919 164.543 145.641 145.64 145.64Z" fill="#F8442E"/>
<path d="M145.54 145.54C126.637 145.541 107.919 141.819 90.455 134.586C72.9908 127.353 57.1224 116.75 43.7561 103.384C30.3898 90.0175 19.7873 74.1492 12.5541 56.685C5.32088 39.2208 1.59866 20.5028 1.59998 1.59998H289.48C289.481 20.5028 285.759 39.2208 278.526 56.685C271.293 74.1492 260.69 90.0175 247.324 103.384C233.958 116.75 218.089 127.353 200.625 134.586C183.161 141.819 164.443 145.541 145.54 145.54Z" fill="#F8442E"/>
<path d="M145.44 145.44C126.537 145.441 107.819 141.719 90.355 134.486C72.8908 127.253 57.0224 116.65 43.6561 103.284C30.2898 89.9176 19.6873 74.0492 12.4541 56.585C5.22091 39.1208 1.49869 20.4028 1.5 1.5H289.38C289.381 20.4028 285.659 39.1208 278.426 56.585C271.193 74.0492 260.59 89.9176 247.224 103.284C233.858 116.65 217.989 127.253 200.525 134.486C183.061 141.719 164.343 145.441 145.44 145.44Z" fill="#F8442E"/>
<path d="M145.34 145.34C126.437 145.341 107.719 141.619 90.255 134.386C72.7908 127.153 56.9225 116.55 43.5561 103.184C30.1898 89.8176 19.5873 73.9492 12.3541 56.485C5.12093 39.0208 1.39871 20.3029 1.40002 1.40002H289.28C289.281 20.3029 285.559 39.0208 278.326 56.485C271.093 73.9492 260.49 89.8176 247.124 103.184C233.758 116.55 217.889 127.153 200.425 134.386C182.961 141.619 164.243 145.341 145.34 145.34Z" fill="#F8442E"/>
<path d="M145.24 145.24C126.337 145.241 107.619 141.519 90.155 134.286C72.6908 127.053 56.8225 116.45 43.4562 103.084C30.0898 89.7175 19.4874 73.8492 12.2542 56.385C5.02096 38.9208 1.29874 20.2028 1.30005 1.29999H289.18C289.181 20.2028 285.459 38.9208 278.226 56.385C270.993 73.8492 260.39 89.7175 247.024 103.084C233.658 116.45 217.789 127.053 200.325 134.286C182.861 141.519 164.143 145.241 145.24 145.24Z" fill="#F8442E"/>
<path d="M145.14 145.14C126.237 145.141 107.519 141.419 90.0549 134.186C72.5908 126.953 56.7224 116.35 43.3561 102.984C29.9897 89.6176 19.3873 73.7492 12.1541 56.285C4.92086 38.8208 1.19864 20.1029 1.19995 1.20001H289.08C289.081 20.1029 285.359 38.8208 278.126 56.285C270.893 73.7492 260.29 89.6176 246.924 102.984C233.557 116.35 217.689 126.953 200.225 134.186C182.761 141.419 164.043 145.141 145.14 145.14Z" fill="#F8442E"/>
<path d="M145 145C106.838 144.992 70.2409 129.829 43.2561 102.844C16.2713 75.8591 1.10793 39.2622 1.09998 1.09998H289C288.996 20.0045 285.268 38.7231 278.029 56.1866C270.789 73.6501 260.181 89.5163 246.809 102.879C233.436 116.242 217.563 126.84 200.094 134.067C182.626 141.294 163.904 145.009 145 145Z" fill="#F8442E"/>
<path d="M144.94 144.94C126.037 144.941 107.319 141.219 89.855 133.986C72.3908 126.753 56.5224 116.15 43.1561 102.784C29.7898 89.4176 19.1873 73.5492 11.9541 56.085C4.72091 38.6208 0.998687 19.9028 1 1H288.88C288.881 19.9028 285.159 38.6208 277.926 56.085C270.693 73.5492 260.09 89.4176 246.724 102.784C233.358 116.15 217.489 126.753 200.025 133.986C182.561 141.219 163.843 144.941 144.94 144.94Z" fill="#F8442E"/>
<path d="M144.84 144.84C125.937 144.841 107.219 141.119 89.755 133.886C72.2908 126.653 56.4225 116.05 43.0561 102.684C29.6898 89.3176 19.0873 73.4492 11.8541 55.985C4.62093 38.5208 0.898711 19.8029 0.900025 0.900024H288.78C288.781 19.8029 285.059 38.5208 277.826 55.985C270.593 73.4492 259.99 89.3176 246.624 102.684C233.258 116.05 217.389 126.653 199.925 133.886C182.461 141.119 163.743 144.841 144.84 144.84Z" fill="#F8442E"/>
<path d="M144.74 144.74C125.837 144.741 107.119 141.019 89.655 133.786C72.1908 126.553 56.3225 115.95 42.9562 102.584C29.5898 89.2175 18.9874 73.3492 11.7542 55.885C4.52096 38.4208 0.798736 19.7028 0.800049 0.799988H288.68C288.681 19.7028 284.959 38.4208 277.726 55.885C270.493 73.3492 259.89 89.2175 246.524 102.584C233.158 115.95 217.289 126.553 199.825 133.786C182.361 141.019 163.643 144.741 144.74 144.74Z" fill="#F8442E"/>
<path d="M144.64 144.64C125.737 144.641 107.019 140.919 89.5549 133.686C72.0908 126.453 56.2224 115.85 42.8561 102.484C29.4897 89.1176 18.8873 73.2492 11.6541 55.785C4.42086 38.3208 0.698638 19.6029 0.699952 0.700012H288.58C288.581 19.6029 284.859 38.3208 277.626 55.785C270.393 73.2492 259.79 89.1176 246.424 102.484C233.057 115.85 217.189 126.453 199.725 133.686C182.261 140.919 163.543 144.641 144.64 144.64Z" fill="#F8442E"/>
<path d="M144.54 144.54C125.637 144.541 106.919 140.819 89.455 133.586C71.9908 126.353 56.1224 115.75 42.7561 102.384C29.3898 89.0175 18.7873 73.1492 11.5541 55.685C4.32088 38.2208 0.598663 19.5028 0.599976 0.599976H288.48C288.481 19.5028 284.759 38.2208 277.526 55.685C270.293 73.1492 259.69 89.0175 246.324 102.384C232.958 115.75 217.089 126.353 199.625 133.586C182.161 140.819 163.443 144.541 144.54 144.54Z" fill="#F8442E"/>
<path d="M144.44 144.44C125.537 144.441 106.819 140.719 89.355 133.486C71.8908 126.253 56.0224 115.65 42.6561 102.284C29.2898 88.9176 18.6873 73.0492 11.4541 55.585C4.22091 38.1208 0.498687 19.4028 0.5 0.5H288.38C288.381 19.4028 284.659 38.1208 277.426 55.585C270.193 73.0492 259.59 88.9176 246.224 102.284C232.858 115.65 216.989 126.253 199.525 133.486C182.061 140.719 163.343 144.441 144.44 144.44Z" fill="#F8442E"/>
<path d="M144.34 144.34C125.437 144.341 106.719 140.619 89.255 133.386C71.7908 126.153 55.9225 115.55 42.5561 102.184C29.1898 88.8176 18.5873 72.9492 11.3541 55.485C4.12093 38.0208 0.398711 19.3029 0.400025 0.400024H288.28C288.281 19.3029 284.559 38.0208 277.326 55.485C270.093 72.9492 259.49 88.8176 246.124 102.184C232.758 115.55 216.889 126.153 199.425 133.386C181.961 140.619 163.243 144.341 144.34 144.34Z" fill="#F8442E"/>
<path d="M144.24 144.24C125.337 144.241 106.619 140.519 89.155 133.286C71.6908 126.053 55.8225 115.45 42.4562 102.084C29.0898 88.7175 18.4874 72.8492 11.2542 55.385C4.02096 37.9208 0.298736 19.2028 0.300049 0.299988H288.18C288.181 19.2028 284.459 37.9208 277.226 55.385C269.993 72.8492 259.39 88.7175 246.024 102.084C232.658 115.45 216.789 126.053 199.325 133.286C181.861 140.519 163.143 144.241 144.24 144.24Z" fill="#F8442E"/>
<path d="M144.14 144.14C125.237 144.141 106.519 140.419 89.0549 133.186C71.5908 125.953 55.7224 115.35 42.3561 101.984C28.9897 88.6176 18.3873 72.7492 11.1541 55.285C3.92086 37.8208 0.198638 19.1029 0.199952 0.200012H288.08C288.081 19.1029 284.359 37.8208 277.126 55.285C269.893 72.7492 259.29 88.6176 245.924 101.984C232.557 115.35 216.689 125.953 199.225 133.186C181.761 140.419 163.043 144.141 144.14 144.14Z" fill="#F8442E"/>
<path d="M144 144C105.838 143.992 69.2409 128.829 42.2561 101.844C15.2713 74.8591 0.107929 38.2622 0.0999756 0.0999756H288C287.996 19.0045 284.268 37.7231 277.029 55.1866C269.789 72.6501 259.181 88.5163 245.809 101.879C232.436 115.242 216.563 125.84 199.094 133.067C181.626 140.294 162.904 144.009 144 144Z" fill="#F8442E"/>
<path d="M143.94 143.94C125.037 143.941 106.319 140.219 88.855 132.986C71.3908 125.753 55.5224 115.15 42.1561 101.784C28.7898 88.4176 18.1873 72.5492 10.9541 55.085C3.72091 37.6208 -0.00131303 18.9028 3.47447e-07 0L287.88 0C287.881 18.9028 284.159 37.6208 276.926 55.085C269.693 72.5492 259.09 88.4176 245.724 101.784C232.358 115.15 216.489 125.753 199.025 132.986C181.561 140.219 162.843 143.941 143.94 143.94Z" fill="#F8442E"/>
<path d="M143.94 143.94C125.037 143.941 106.319 140.219 88.855 132.986C71.3908 125.753 55.5224 115.15 42.1561 101.784C28.7898 88.4176 18.1873 72.5492 10.9541 55.085C3.72091 37.6208 -0.00131303 18.9028 3.47447e-07 0L287.88 0C287.881 18.9028 284.159 37.6208 276.926 55.085C269.693 72.5492 259.09 88.4176 245.724 101.784C232.358 115.15 216.489 125.753 199.025 132.986C181.561 140.219 162.843 143.941 143.94 143.94Z" fill="#FFDFD7"/>
<path d="M56.3501 43.94C56.916 45.4011 57.3739 46.9018 57.7201 48.43C57.9786 49.4671 58.1492 50.5242 58.2301 51.59V52.59L50.0701 55.7C50.0906 53.3832 49.6274 51.0876 48.7101 48.96L47.9701 49.25C48.7201 51.79 48.9101 53.76 48.5201 55.15C48.306 55.8586 47.9201 56.5033 47.3967 57.0267C46.8733 57.5501 46.2286 57.936 45.5201 58.15C44.6397 58.5219 43.6776 58.6576 42.7287 58.5436C41.7799 58.4296 40.8772 58.0698 40.1101 57.5C38.4434 56.3267 36.9801 54.0967 35.7201 50.81C35.0678 49.1456 34.5429 47.434 34.1501 45.69C33.8816 44.6598 33.724 43.6038 33.6801 42.54L33.7301 41.64L40.8301 38.92C40.8301 39.12 40.8301 39.42 40.8301 39.81C40.8894 40.651 41.0098 41.4865 41.1901 42.31C41.454 43.6748 41.8389 45.0134 42.3401 46.31L43.0001 46C42.3208 44.1423 42.1414 42.1388 42.4801 40.19C42.8401 38.6967 44.0401 37.56 46.0801 36.78C47.008 36.3898 48.0192 36.2393 49.0205 36.3424C50.0218 36.4455 50.9811 36.7989 51.8101 37.37C53.6201 38.53 55.1201 40.73 56.3501 43.94Z" fill="#F8442E"/>
<path d="M57.77 67.7L65.72 62.45L71.25 70.83L53.65 82.46L48.11 74.08L54.05 70.16L53.05 68.68L47.12 72.61L41.6 64.25L59.2 52.62L64.74 61L56.79 66.26L57.77 67.7Z" fill="#F8442E"/>
<path d="M56.58 85.35L71.9 70.84L79.12 78.47L63.8 93L56.58 85.35Z" fill="#F8442E"/>
<path d="M79.2 79.12L86.67 84.73L84.43 90.91L88.21 85.91L95.73 91.56L83.06 108.4L75.54 102.75L78 96.85L74.29 101.78L66.53 96L79.2 79.12Z" fill="#F8442E"/>
<path d="M86.73 110.19L96.37 91.4301L105.71 96.2301L96.07 115L86.73 110.19Z" fill="#F8442E"/>
<path d="M106 96.8L114.91 99.6V106.17L116.79 100.17L125.79 102.98L119.48 123.11L110.48 120.3L110.78 113.94L108.94 119.82L99.73 116.94L106 96.8Z" fill="#F8442E"/>
<path d="M136.63 113.45L136.31 117.16L137.53 117.27L137.71 115.17L144.91 115.51L144 125.7C141.82 125.7 138.89 125.54 135.23 125.23C131.57 124.92 128.86 123.75 127.1 121.74C125.34 119.73 124.62 116.92 124.93 113.29C125.24 109.66 126.41 107.07 128.44 105.53C130.47 103.99 133.35 103.37 137.08 103.69C138.57 103.82 140.01 104.01 141.42 104.27C142.83 104.53 143.87 104.77 144.54 104.97L145.54 105.27L144.78 114.15L136.63 113.45Z" fill="#F8442E"/>
<path d="M158.64 124.83L154.06 104.23L165 101.81C168.44 101.04 171 100.99 172.82 101.64C173.715 101.987 174.501 102.567 175.097 103.319C175.693 104.071 176.077 104.969 176.21 105.92C176.376 106.644 176.437 107.389 176.39 108.13C176.369 108.652 176.272 109.167 176.1 109.66L175.9 110.15C176.65 110.34 177.31 111.05 177.9 112.3C178.155 112.882 178.35 113.488 178.48 114.11C178.708 114.914 178.76 115.758 178.634 116.584C178.508 117.41 178.207 118.2 177.75 118.9C176.569 120.399 174.858 121.387 172.97 121.66L158.64 124.83ZM168.3 111.83L167.96 110.28C167.94 110.165 167.895 110.056 167.83 109.96C167.764 109.863 167.679 109.781 167.58 109.72C167.386 109.61 167.157 109.578 166.94 109.63L166.07 109.82L166.6 112.21L168.3 111.83ZM169.46 113.1L166.93 113.67L167.3 115.37L169.84 114.8C169.948 114.777 170.051 114.731 170.14 114.665C170.23 114.6 170.305 114.516 170.36 114.42C170.423 114.322 170.467 114.212 170.487 114.097C170.508 113.982 170.505 113.864 170.48 113.75C170.458 113.64 170.413 113.535 170.35 113.443C170.286 113.35 170.205 113.271 170.11 113.21C169.912 113.099 169.679 113.07 169.46 113.13V113.1Z" fill="#F8442E"/>
<path d="M190.77 108.54L193.45 114.1L184 118.65L174.84 99.65L184.84 94.84C188.12 93.25 190.84 92.63 192.84 92.96C194.84 93.29 196.56 94.78 197.84 97.42C198.309 98.2313 198.571 99.1458 198.602 100.082C198.634 101.019 198.434 101.949 198.02 102.79C200.36 104.517 202.409 106.607 204.09 108.98L195.09 113.34C194.181 111.744 193.134 110.232 191.96 108.82L191.45 108.25L190.77 108.54ZM189.7 106.31L190.5 105.93C190.605 105.881 190.698 105.812 190.775 105.725C190.851 105.639 190.909 105.538 190.945 105.428C190.98 105.318 190.993 105.202 190.982 105.087C190.971 104.972 190.936 104.861 190.88 104.76L190.09 103.11C190.044 103.004 189.977 102.908 189.893 102.829C189.809 102.75 189.709 102.689 189.6 102.65C189.493 102.616 189.381 102.603 189.269 102.613C189.157 102.624 189.049 102.657 188.95 102.71L188.15 103.09L189.7 106.31Z" fill="#F8442E"/>
<path d="M207 106.63L194.63 89.52L203.15 83.38L215.48 100.49L207 106.63Z" fill="#F8442E"/>
<path d="M218.75 81.79L221.39 84.41L222.25 83.55L220.76 82.06L225.63 76.75L232.9 84C231.493 85.68 229.493 87.8233 226.9 90.43C224.307 93.0367 221.68 94.37 219.02 94.43C216.353 94.49 213.723 93.2367 211.13 90.67C208.55 88.11 207.31 85.55 207.43 83C207.55 80.45 208.92 77.85 211.56 75.19C212.61 74.14 213.68 73.19 214.79 72.19C215.9 71.19 216.74 70.63 217.33 70.19L218.19 69.62L224.53 76L218.75 81.79Z" fill="#F8442E"/>
<path d="M232.4 64.14L224.33 59.08L229.67 50.57L247.54 61.78L242.2 70.29L236.2 66.51L235.26 68.01L241.26 71.79L235.94 80.28L218.07 69.06L223.39 60.58L231.46 65.64L232.4 64.14Z" fill="#F8442E"/>
<path d="M238 53.37L229.63 50.37L235.96 32.66L244.33 35.66L243 39.17L254.5 43.28L250.69 54L239.19 49.89L238 53.37Z" fill="#F8442E"/>
<path d="M129.44 22.46L140.7 35.88L143.92 18.67H144.24L147.32 35.8L158.59 22.46L158.8 22.61L152.94 39.17L169.42 33.23L169.56 33.44L156.15 44.89L173.46 48V48.29L156.37 51.4L169.64 62.66L169.49 62.91L152.94 57.05L158.94 73.61L158.66 73.75L147.32 60.62L144.24 77.68H143.92L140.7 60.27L129.22 73.75L129.01 73.61L134.84 57.12L118.39 63L118.21 62.75L131.55 51.49L114.42 48.27V48L131.76 44.93L118.46 33.41L118.53 33.2L134.91 39L129.22 22.59L129.44 22.46Z" fill="#F8442E"/>
</g>
<defs>
<clipPath id="clip0_0_9659">
<rect width="292.38" height="148.44" fill="white"/>
</clipPath>
</defs>
</svg>
