<svg width="160" height="160" viewBox="0 0 160 160" fill="none" xmlns="http://www.w3.org/2000/svg">
<g clip-path="url(#clip0_0_9724)">
<path d="M71.43 134.49L56.2 155.56L55.48 129.56L34.71 145.21L41.69 120.16L17.23 128.99L31.28 107.11L5.31 108.34L25.18 91.57L0 85.09L23.93 74.92L1.78 61.31L27.65 58.65L10.49 39.11L35.99 44.19L25.36 20.46L48.23 32.84L45.07 7.03L63.27 25.59L67.86 0L79.78 23.11L91.7 0L96.29 25.59L114.49 7.03L111.33 32.84L134.19 20.46L123.56 44.19L149.06 39.11L131.91 58.65L157.78 61.31L135.62 74.92L159.56 85.09L134.38 91.57L154.25 108.34L128.28 107.11L142.33 128.99L117.87 120.16L124.85 145.21L104.08 129.56L103.36 155.56L88.13 134.49L79.78 159.11L71.43 134.49Z" fill="#F98410"/>
<path d="M79.78 27.16L90.84 5.72998L95.09 29.47L111.98 12.25L109.04 36.19L130.25 24.71L120.39 46.72L144.05 42L128.13 60.13L152.13 62.59L131.58 75.23L153.78 84.66L130.42 90.67L148.86 106.22L124.77 105.08L137.8 125.38L115.11 117.19L121.58 140.42L102.32 125.91L101.65 150.02L87.52 130.48L79.78 153.32L72.04 130.48L57.91 150.02L57.24 125.91L37.98 140.42L44.45 117.19L21.76 125.38L34.79 105.08L10.7 106.22L29.13 90.67L5.78003 84.66L27.98 75.23L7.43003 62.59L31.42 60.13L15.51 42L39.16 46.72L29.3 24.71L50.52 36.19L47.58 12.25L64.47 29.47L68.72 5.72998L79.78 27.16Z" fill="#FEC305"/>
<path d="M65.39 78.34C70.5981 78.34 74.82 74.118 74.82 68.91C74.82 63.7019 70.5981 59.48 65.39 59.48C60.182 59.48 55.96 63.7019 55.96 68.91C55.96 74.118 60.182 78.34 65.39 78.34Z" fill="#2A3040"/>
<path d="M94.17 78.34C99.378 78.34 103.6 74.118 103.6 68.91C103.6 63.7019 99.378 59.48 94.17 59.48C88.9619 59.48 84.74 63.7019 84.74 68.91C84.74 74.118 88.9619 78.34 94.17 78.34Z" fill="#2A3040"/>
<path d="M68.77 67.22C70.6367 67.22 72.15 65.7067 72.15 63.84C72.15 61.9733 70.6367 60.46 68.77 60.46C66.9033 60.46 65.39 61.9733 65.39 63.84C65.39 65.7067 66.9033 67.22 68.77 67.22Z" fill="#F5F5F5"/>
<path d="M97.54 67.22C99.4068 67.22 100.92 65.7067 100.92 63.84C100.92 61.9733 99.4068 60.46 97.54 60.46C95.6733 60.46 94.16 61.9733 94.16 63.84C94.16 65.7067 95.6733 67.22 97.54 67.22Z" fill="#F5F5F5"/>
<path d="M79.78 99.57C77.7744 99.57 75.7786 99.2907 73.85 98.74C71.9005 98.198 70.031 97.4012 68.29 96.37C66.5591 95.341 64.9777 94.0792 63.59 92.62C62.2001 91.1474 61.0585 89.4587 60.21 87.62C60.1341 87.463 60.0739 87.2988 60.03 87.13C59.9898 86.9596 59.9696 86.7851 59.97 86.61C59.9658 86.3208 60.0213 86.0339 60.1332 85.7672C60.245 85.5004 60.4108 85.2597 60.62 85.06C60.8199 84.8504 61.0605 84.6838 61.327 84.5703C61.5935 84.4568 61.8803 84.3989 62.17 84.4C62.5721 84.375 62.9707 84.4879 63.3 84.72C63.6082 84.982 63.8865 85.2771 64.13 85.6C64.5033 86.1038 64.8376 86.6354 65.13 87.19C65.408 87.7435 65.7432 88.2663 66.13 88.75C66.9673 89.7749 67.9317 90.6889 69 91.47C70.0358 92.2478 71.1483 92.9179 72.32 93.47C73.4956 94.0266 74.73 94.4493 76 94.73C78.5076 95.3035 81.1124 95.3035 83.62 94.73C84.8924 94.451 86.13 94.0317 87.31 93.48C88.4854 92.9348 89.5986 92.2643 90.63 91.48C91.6533 90.7065 92.574 89.8059 93.37 88.8C93.7771 88.3143 94.1386 87.7921 94.45 87.24C94.7491 86.6893 95.0831 86.1582 95.45 85.65C95.6764 85.3164 95.9492 85.0168 96.26 84.76C96.596 84.527 97.0024 84.4174 97.41 84.45C97.6983 84.4479 97.984 84.5054 98.249 84.619C98.5141 84.7325 98.7527 84.8997 98.95 85.11C99.1606 85.3092 99.3279 85.5496 99.4414 85.8163C99.555 86.083 99.6124 86.3702 99.61 86.66C99.6104 86.8351 99.5903 87.0096 99.55 87.18C99.5062 87.3489 99.4459 87.513 99.37 87.67C98.5216 89.5112 97.3763 91.2004 95.98 92.67C94.5964 94.1336 93.0143 95.3959 91.28 96.42C89.546 97.451 87.6832 98.2479 85.74 98.79C83.7996 99.3277 81.7934 99.5903 79.78 99.57Z" fill="#2A3040"/>
<path d="M39.55 64.78L40.43 62.78L42.22 63.58L42.72 62.45L40.93 61.66L41.81 59.66L47.16 62.03L46.28 64.03L44.49 63.24L44 64.37L45.79 65.16L44.91 67.16L39.55 64.78Z" fill="#F98410"/>
<path d="M51.06 56.09L49.76 58L46 57.11L47.06 58.57L47.66 57.67L49.66 58.17L47.02 62.17L43.44 57L44.89 54.82L51.06 56.09Z" fill="#F98410"/>
<path d="M46.75 52.25L48.66 50.25C50.99 47.77 54.85 50.93 52.32 53.63L52 54L50.51 52.61L50.86 52.25C51.29 51.78 50.69 51.2 50.25 51.67L49.8 52.15L52.53 54.71L51 56.25L46.75 52.25Z" fill="#F98410"/>
<path d="M51.1 47.7L53.29 46C55.96 43.88 59.29 47.57 56.42 49.87L56.02 50.19L54.76 48.59L55.15 48.28C55.1933 48.2459 55.2295 48.2035 55.2565 48.1554C55.2834 48.1073 55.3007 48.0543 55.3072 47.9995C55.3137 47.9447 55.3093 47.8892 55.2944 47.8361C55.2794 47.783 55.2541 47.7333 55.22 47.69C55.1858 47.6467 55.1435 47.6105 55.0954 47.5835C55.0472 47.5565 54.9943 47.5393 54.9395 47.5328C54.8847 47.5263 54.8292 47.5307 54.7761 47.5456C54.723 47.5606 54.6733 47.5859 54.63 47.62L54.12 48.03L56.45 50.97L54.75 52.32L51.1 47.7Z" fill="#F98410"/>
<path d="M59.92 44.3L59.14 43.86V42.07L61.34 40.79L61.25 45.44L62.2 47.07L60.32 48.17L59.38 46.55L55.27 44.32L57.47 43L59.81 44.33L59.92 44.3Z" fill="#F98410"/>
<path d="M65 43.22L66.17 42.84L66.04 42.74L65.45 42.93C65.0024 42.6772 64.6694 42.2618 64.52 41.77C64.07 40.35 64.71 39.47 66.52 38.89L69.52 37.89L70.13 40L67.43 40.87C67.3281 40.8888 67.2314 40.9291 67.1463 40.9882C67.0612 41.0473 66.9897 41.1239 66.9364 41.2127C66.8832 41.3016 66.8495 41.4008 66.8375 41.5037C66.8256 41.6066 66.8357 41.7109 66.8672 41.8096C66.8986 41.9083 66.9508 41.9992 67.0201 42.0762C67.0894 42.1532 67.1743 42.2146 67.2691 42.2562C67.364 42.2979 67.4666 42.3189 67.5702 42.3178C67.6738 42.3167 67.776 42.2936 67.87 42.25C67.9993 42.1867 68.1044 42.0828 68.1691 41.9543C68.2339 41.8257 68.2549 41.6794 68.2288 41.5378C68.2028 41.3962 68.1311 41.267 68.0248 41.1699C67.9185 41.0728 67.7834 41.0132 67.64 41L69.52 40.39C69.7928 40.4851 70.0392 40.6434 70.2391 40.8519C70.439 41.0605 70.5866 41.3134 70.67 41.59C71.14 43.02 70.3 43.81 68.67 44.33L65.59 45.33L65 43.22Z" fill="#F98410"/>
<path d="M75.9 36.85L76.39 39.94C76.4579 40.3077 76.4515 40.6854 76.3711 41.0506C76.2907 41.4158 76.1379 41.7612 75.9219 42.0665C75.7058 42.3717 75.4307 42.6305 75.113 42.8277C74.7952 43.0249 74.4412 43.1564 74.0717 43.2146C73.7023 43.2727 73.325 43.2562 72.962 43.1661C72.5991 43.076 72.2578 42.9141 71.9585 42.69C71.6591 42.4659 71.4077 42.184 71.219 41.8611C71.0303 41.5382 70.9083 41.1808 70.86 40.81L70.38 37.72L72.53 37.38L73 40.47C72.9999 40.5596 73.0193 40.6481 73.0567 40.7295C73.0941 40.8109 73.1488 40.8833 73.2168 40.9415C73.2849 40.9998 73.3648 41.0426 73.451 41.067C73.5372 41.0914 73.6277 41.0969 73.7162 41.083C73.8047 41.0691 73.8891 41.0362 73.9637 40.9865C74.0383 40.9368 74.1012 40.8716 74.1481 40.7953C74.1951 40.719 74.2249 40.6334 74.2356 40.5444C74.2463 40.4555 74.2375 40.3652 74.21 40.28L73.73 37.19L75.9 36.85Z" fill="#F98410"/>
<path d="M80.68 39.29L80.2 38.54V36.77H82.37L82.47 42.63H80.27L78.71 40.23H78.57L79 41V42.65H76.83L76.73 36.79H78.82L80.49 39.3L80.68 39.29Z" fill="#F98410"/>
<path d="M86.69 39.89L86.33 39.06L86.59 37.31L88.74 37.62L87.9 43.42L85.72 43.1L84.56 40.48H84.43L84.79 41.31L84.55 42.95L82.4 42.64L83.24 36.84L85.31 37.14L86.56 39.89H86.69Z" fill="#F98410"/>
<path d="M92.67 41.2L92.49 40.32L93.81 39.12L96.23 39.9L92.71 42.9L92.13 44.69L90.06 44.03L90.63 42.25L89.55 37.71L91.98 38.49L92.55 41.12L92.67 41.2Z" fill="#F98410"/>
<path d="M98.69 41.07L101.09 42.46C104.37 44.35 101.44 49.46 98.17 47.53L95.76 46.15L98.69 41.07ZM100 44.42L99.43 44.1L98.76 45.26L99.33 45.59C100 46 100.65 44.8 100 44.42Z" fill="#F98410"/>
<path d="M105.61 52.93L103.78 51.48L105 47.81L103.46 48.74L104.3 49.41L103.64 51.41L99.91 48.41L105.36 45.25L107.42 46.89L105.61 52.93Z" fill="#F98410"/>
<path d="M110.7 53.48L111 52.64L112.75 52.29L114.42 54.22L109.83 54.99L108.4 56.22L107 54.58L108.41 53.36L109.84 48.91L111.52 50.84L110.64 53.39L110.7 53.48Z" fill="#F98410"/>
<path d="M111.35 56.29L112 57.29L112.07 57.14L111.74 56.61C111.804 56.3648 111.917 56.1349 112.072 55.934C112.226 55.7331 112.42 55.5651 112.64 55.44C113.9 54.65 114.91 55.05 115.91 56.64L117.58 59.31L115.7 60.48L114.2 58.09C114.158 57.9944 114.096 57.9089 114.018 57.8393C113.94 57.7698 113.848 57.7177 113.749 57.6867C113.649 57.6557 113.544 57.6464 113.44 57.6595C113.336 57.6726 113.237 57.7078 113.148 57.7627C113.059 57.8176 112.983 57.8909 112.925 57.9777C112.867 58.0645 112.828 58.1627 112.811 58.2658C112.794 58.3689 112.8 58.4743 112.827 58.5751C112.855 58.6759 112.903 58.7696 112.97 58.85C113.05 58.9956 113.182 59.1057 113.339 59.1584C113.497 59.2112 113.668 59.2026 113.82 59.1345C113.971 59.0663 114.091 58.9436 114.156 58.7908C114.221 58.638 114.226 58.4663 114.17 58.31L115.17 59.99C115.141 60.2765 115.045 60.5523 114.891 60.7953C114.736 61.0384 114.527 61.242 114.28 61.39C113.01 62.19 112.04 61.57 111.16 60.16L109.44 57.42L111.35 56.29Z" fill="#F98410"/>
<path d="M120 94.27L119.12 96.27L117.33 95.48L116.83 96.61L118.62 97.4L117.74 99.4L112.4 97L113.28 95L115.07 95.79L115.57 94.67L113.78 93.87L114.66 91.87L120 94.27Z" fill="#F98410"/>
<path d="M108.5 103L109.79 101.06L113.55 101.99L112.49 100.53L111.89 101.43L109.89 100.93L112.53 96.9301L116.13 102.08L114.67 104.27L108.5 103Z" fill="#F98410"/>
<path d="M112.8 106.8L110.9 108.8C108.57 111.29 104.71 108.13 107.24 105.43L107.58 105.06L109.07 106.45L108.72 106.82C108.675 106.858 108.639 106.906 108.614 106.959C108.588 107.013 108.575 107.071 108.573 107.13C108.572 107.189 108.583 107.248 108.606 107.302C108.629 107.356 108.663 107.405 108.707 107.446C108.75 107.486 108.801 107.517 108.857 107.536C108.913 107.555 108.972 107.563 109.031 107.557C109.09 107.552 109.147 107.534 109.198 107.506C109.25 107.477 109.295 107.437 109.33 107.39L109.78 106.92L107 104.38L108.49 102.8L112.8 106.8Z" fill="#F98410"/>
<path d="M108.46 111.35L106.27 113.08C103.6 115.2 100.27 111.5 103.14 109.2L103.54 108.89L104.8 110.49L104.41 110.8C104.359 110.831 104.314 110.872 104.28 110.922C104.246 110.971 104.223 111.027 104.213 111.086C104.202 111.145 104.204 111.205 104.219 111.263C104.234 111.322 104.261 111.376 104.298 111.423C104.335 111.469 104.382 111.508 104.436 111.535C104.489 111.562 104.548 111.577 104.608 111.58C104.668 111.582 104.727 111.572 104.783 111.55C104.839 111.527 104.889 111.493 104.93 111.45L105.44 111.05L103.11 108.11L104.81 106.76L108.46 111.35Z" fill="#F98410"/>
<path d="M99.64 114.74L100.42 115.19V117L98.22 118.28L98.31 113.62L97.37 112L99.25 110.9L100.19 112.51L104.3 114.74L102.09 116L99.75 114.67L99.64 114.74Z" fill="#F98410"/>
<path d="M94.6 115.83L93.44 116.2L93.57 116.31L94.16 116.12C94.3839 116.241 94.5809 116.406 94.739 116.606C94.8972 116.805 95.0132 117.034 95.08 117.28C95.54 118.7 94.9 119.57 93.08 120.15L90.08 121.15L89.43 119L92.12 118.13C92.2232 118.113 92.3216 118.075 92.4086 118.016C92.4955 117.958 92.569 117.882 92.624 117.793C92.679 117.705 92.7143 117.605 92.7274 117.501C92.7406 117.397 92.7313 117.292 92.7001 117.192C92.669 117.092 92.6169 117 92.5471 116.923C92.4774 116.845 92.3917 116.783 92.296 116.741C92.2002 116.699 92.0965 116.678 91.992 116.679C91.8874 116.681 91.7845 116.705 91.69 116.75C91.5176 116.78 91.3644 116.878 91.2641 117.022C91.1637 117.165 91.1245 117.343 91.155 117.515C91.1855 117.687 91.2833 117.841 91.4267 117.941C91.5702 118.041 91.7476 118.08 91.92 118.05L90.03 118.66C89.7603 118.562 89.517 118.402 89.3192 118.194C89.1214 117.986 88.9745 117.734 88.89 117.46C88.42 116.02 89.26 115.23 90.89 114.72L93.97 113.72L94.6 115.83Z" fill="#F98410"/>
<path d="M83.66 122.2L83.17 119.1C83.0848 118.726 83.0775 118.338 83.1486 117.96C83.2197 117.583 83.3677 117.224 83.5833 116.906C83.799 116.589 84.0777 116.319 84.4021 116.113C84.7265 115.908 85.0897 115.771 85.4692 115.712C85.8486 115.653 86.2362 115.673 86.6077 115.77C86.9793 115.867 87.3269 116.039 87.629 116.276C87.9311 116.513 88.1811 116.81 88.3637 117.148C88.5462 117.486 88.6573 117.857 88.69 118.24L89.18 121.33L87.03 121.67L86.54 118.57C86.5351 118.483 86.5126 118.398 86.4737 118.32C86.4349 118.243 86.3806 118.173 86.3141 118.117C86.2477 118.061 86.1705 118.019 86.0872 117.994C86.004 117.968 85.9165 117.96 85.83 117.97C85.7441 117.986 85.6625 118.02 85.5903 118.07C85.5182 118.119 85.4571 118.183 85.411 118.257C85.365 118.331 85.3348 118.415 85.3226 118.501C85.3104 118.588 85.3163 118.676 85.34 118.76L85.82 121.86L83.66 122.2Z" fill="#F98410"/>
<path d="M78.88 119.75L79.36 120.51V122.28H77.19L77.09 116.43H79.29L80.85 118.83H81L80.52 118.07V116.41H82.69L82.79 122.26H80.7L79 119.75H78.88Z" fill="#F98410"/>
<path d="M72.87 119.16L73.23 119.98L73 121.74L70.85 121.43L71.69 115.63L73.87 115.94L75 118.56H75.13L74.77 117.73L75.01 116.09L77.16 116.41L76.32 122.21L74.25 121.9L73 119.18L72.87 119.16Z" fill="#F98410"/>
<path d="M66.89 117.85L67.07 118.72L65.75 119.93L63.33 119.15L66.85 116.15L67.43 114.35L69.5 115.02L68.92 116.8L70 121.3L67.57 120.52L67 117.89L66.89 117.85Z" fill="#F98410"/>
<path d="M60.87 118L58.47 116.62C55.19 114.73 58.12 109.62 61.39 111.54L63.8 112.93L60.87 118ZM59.55 114.65L60.12 114.98L60.79 113.81L60.22 113.49C59.57 113.08 58.91 114.25 59.55 114.62V114.65Z" fill="#F98410"/>
<path d="M54 106.11L55.83 107.57L54.58 111.24L56.13 110.31L55.28 109.63L55.95 107.63L59.67 110.63L54.23 113.78L52.17 112.14L54 106.11Z" fill="#F98410"/>
<path d="M48.85 105.56L48.55 106.41L46.8 106.75L45.14 104.83L49.73 104.06L51.15 102.82L52.58 104.47L51.17 105.69L49.73 110.14L48.06 108.21L48.94 105.66L48.85 105.56Z" fill="#F98410"/>
<path d="M48.21 102.76L47.56 101.76L47.49 101.91L47.82 102.43C47.6824 102.924 47.3602 103.347 46.92 103.61C45.66 104.4 44.65 104 43.65 102.4L42 99.71L43.88 98.53L45.38 100.93C45.422 101.026 45.4841 101.111 45.562 101.181C45.6398 101.25 45.7317 101.302 45.8314 101.333C45.9312 101.364 46.0364 101.374 46.14 101.36C46.2436 101.347 46.3432 101.312 46.432 101.257C46.5208 101.202 46.5969 101.129 46.6549 101.042C46.713 100.955 46.7518 100.857 46.7687 100.754C46.7856 100.651 46.7801 100.546 46.7528 100.445C46.7254 100.344 46.6767 100.25 46.61 100.17C46.5302 100.024 46.3984 99.9143 46.2409 99.8615C46.0834 99.8088 45.9119 99.8174 45.7605 99.8855C45.6091 99.9536 45.4889 100.076 45.4239 100.229C45.359 100.382 45.354 100.554 45.41 100.71L44.41 99.03C44.438 98.7444 44.5321 98.4692 44.6849 98.2262C44.8376 97.9832 45.0448 97.7791 45.29 97.63C46.57 96.83 47.54 97.44 48.42 98.85L50.14 101.59L48.21 102.76Z" fill="#F98410"/>
</g>
<defs>
<clipPath id="clip0_0_9724">
<rect width="159.56" height="159.11" fill="white"/>
</clipPath>
</defs>
</svg>
