<svg width="119" height="187" viewBox="0 0 119 187" fill="none" xmlns="http://www.w3.org/2000/svg">
<g clip-path="url(#clip0_0_9763)">
<path d="M23.67 181.49L45.37 114.36H15.9L35.59 15.9H109.91L75.17 70.59H118.84L32.44 186.03L23.67 181.49Z" fill="#F9D6E5"/>
<path d="M23.57 181.39L45.27 114.26H15.8L35.49 15.8H109.81L75.07 70.49H118.74L32.34 185.93L23.57 181.39Z" fill="#F9D6E5"/>
<path d="M23.47 181.29L45.17 114.16H15.7L35.39 15.7H109.71L74.97 70.39H118.64L32.23 185.82L23.47 181.29Z" fill="#F9D6E5"/>
<path d="M23.37 181.19L45.07 114.06H15.6L35.29 15.6H109.61L74.87 70.29H118.54L32.13 185.72L23.37 181.19Z" fill="#F9D6E5"/>
<path d="M23.27 181.09L44.97 113.96H15.5L35.19 15.5H109.51L74.77 70.19H118.44L32.03 185.63L23.27 181.09Z" fill="#F9D6E5"/>
<path d="M23.17 180.99L44.87 113.86H15.4L35.09 15.4H109.41L74.67 70.09H118.34L31.93 185.53L23.17 180.99Z" fill="#F9D6E5"/>
<path d="M23.07 180.89L44.77 113.76H15.3L34.99 15.3H109.31L74.57 69.99H118.24L31.84 185.43L23.07 180.89Z" fill="#F9D6E5"/>
<path d="M22.97 180.79L44.67 113.66H15.2L34.89 15.2H109.21L74.47 69.89H118.14L31.73 185.32L22.97 180.79Z" fill="#F9D6E5"/>
<path d="M22.87 180.69L44.57 113.56H15.1L34.79 15.1H109.11L74.37 69.79H118.04L31.64 185.22L22.87 180.69Z" fill="#F9D6E5"/>
<path d="M22.77 180.59L44.47 113.46H15L34.69 15H109.01L74.27 69.69H117.94L31.54 185.13L22.77 180.59Z" fill="#F9D6E5"/>
<path d="M22.67 180.49L44.37 113.36H14.9L34.59 14.9H108.91L74.17 69.59H117.84L31.43 185.03L22.67 180.49Z" fill="#F9D6E5"/>
<path d="M22.57 180.39L44.27 113.26H14.8L34.49 14.8H108.81L74.07 69.49H117.74L31.34 184.93L22.57 180.39Z" fill="#F9D6E5"/>
<path d="M22.47 180.29L44.17 113.16H14.7L34.39 14.7H108.71L73.97 69.39H117.64L31.23 184.82L22.47 180.29Z" fill="#F9D6E5"/>
<path d="M22.37 180.19L44.07 113.06H14.6L34.29 14.6H108.61L73.87 69.29H117.54L31.14 184.72L22.37 180.19Z" fill="#F9D6E5"/>
<path d="M22.27 180.09L43.97 112.96H14.5L34.19 14.5H108.51L73.77 69.19H117.44L31.04 184.63L22.27 180.09Z" fill="#F9D6E5"/>
<path d="M22.17 179.99L43.87 112.86H14.4L34.09 14.4H108.41L73.67 69.09H117.34L30.93 184.53L22.17 179.99Z" fill="#F9D6E5"/>
<path d="M22.07 179.89L43.77 112.76H14.3L33.99 14.3H108.31L73.57 68.99H117.24L30.84 184.43L22.07 179.89Z" fill="#F9D6E5"/>
<path d="M21.97 179.79L43.67 112.66H14.2L33.89 14.2H108.21L73.47 68.89H117.14L30.73 184.32L21.97 179.79Z" fill="#F9D6E5"/>
<path d="M21.87 179.69L43.57 112.56H14.1L33.79 14.1H108.11L73.37 68.79H117.04L30.64 184.22L21.87 179.69Z" fill="#F9D6E5"/>
<path d="M21.77 179.59L43.47 112.46H14L33.69 14H108.01L73.27 68.69H116.94L30.54 184.13L21.77 179.59Z" fill="#F9D6E5"/>
<path d="M21.67 179.49L43.37 112.36H13.9L33.59 13.9H107.91L73.17 68.59H116.84L30.43 184.03L21.67 179.49Z" fill="#F9D6E5"/>
<path d="M21.57 179.39L43.27 112.26H13.8L33.49 13.8H107.81L73.07 68.49H116.74L30.34 183.93L21.57 179.39Z" fill="#F9D6E5"/>
<path d="M21.47 179.29L43.17 112.16H13.7L33.39 13.7H107.71L72.97 68.39H116.64L30.23 183.82L21.47 179.29Z" fill="#F9D6E5"/>
<path d="M21.37 179.19L43.07 112.06H13.6L33.29 13.6H107.61L72.87 68.29H116.54L30.14 183.72L21.37 179.19Z" fill="#F9D6E5"/>
<path d="M21.27 179.09L42.97 111.96H13.5L33.19 13.5H107.51L72.77 68.19H116.44L30.04 183.63L21.27 179.09Z" fill="#F9D6E5"/>
<path d="M21.17 178.99L42.87 111.86H13.4L33.09 13.4H107.41L72.67 68.09H116.34L29.93 183.53L21.17 178.99Z" fill="#F9D6E5"/>
<path d="M21.07 178.89L42.77 111.76H13.3L32.99 13.3H107.31L72.57 67.99H116.24L29.84 183.43L21.07 178.89Z" fill="#F9D6E5"/>
<path d="M20.97 178.79L42.67 111.66H13.2L32.89 13.2H107.21L72.47 67.89H116.14L29.73 183.32L20.97 178.79Z" fill="#F9D6E5"/>
<path d="M20.87 178.69L42.57 111.56H13.1L32.79 13.1H107.11L72.37 67.79H116.04L29.64 183.22L20.87 178.69Z" fill="#F9D6E5"/>
<path d="M20.77 178.59L42.47 111.46H13L32.69 13H107.01L72.27 67.69H115.94L29.54 183.13L20.77 178.59Z" fill="#F9D6E5"/>
<path d="M20.67 178.49L42.37 111.36H12.9L32.59 12.9H106.91L72.17 67.59H115.84L29.43 183.03L20.67 178.49Z" fill="#F9D6E5"/>
<path d="M20.57 178.39L42.27 111.26H12.8L32.49 12.8H106.81L72.07 67.49H115.74L29.34 182.93L20.57 178.39Z" fill="#F9D6E5"/>
<path d="M20.47 178.29L42.17 111.16H12.7L32.39 12.7H106.71L71.97 67.39H115.64L29.23 182.82L20.47 178.29Z" fill="#F9D6E5"/>
<path d="M20.37 178.19L42.07 111.06H12.6L32.29 12.6H106.61L71.87 67.29H115.54L29.14 182.72L20.37 178.19Z" fill="#F9D6E5"/>
<path d="M20.27 178.09L41.97 110.96H12.5L32.19 12.5H106.51L71.77 67.19H115.44L29.04 182.63L20.27 178.09Z" fill="#F9D6E5"/>
<path d="M20.17 177.99L41.87 110.86H12.4L32.09 12.4H106.41L71.67 67.09H115.34L28.93 182.53L20.17 177.99Z" fill="#F9D6E5"/>
<path d="M20.07 177.89L41.77 110.76H12.3L31.99 12.3H106.31L71.57 66.99H115.24L28.84 182.43L20.07 177.89Z" fill="#F9D6E5"/>
<path d="M19.97 177.79L41.67 110.66H12.2L31.89 12.2H106.21L71.47 66.89H115.14L28.73 182.32L19.97 177.79Z" fill="#F9D6E5"/>
<path d="M19.87 177.69L41.57 110.56H12.1L31.79 12.1H106.11L71.37 66.79H115.04L28.64 182.22L19.87 177.69Z" fill="#F9D6E5"/>
<path d="M19.77 177.59L41.47 110.46H12L31.69 12H106.01L71.27 66.69H114.94L28.54 182.13L19.77 177.59Z" fill="#F9D6E5"/>
<path d="M19.67 177.49L41.37 110.36H11.9L31.59 11.9H105.91L71.17 66.59H114.84L28.43 182.03L19.67 177.49Z" fill="#F9D6E5"/>
<path d="M19.57 177.39L41.27 110.26H11.8L31.49 11.8H105.81L71.07 66.49H114.74L28.34 181.93L19.57 177.39Z" fill="#F9D6E5"/>
<path d="M19.47 177.29L41.17 110.16H11.7L31.39 11.7H105.71L70.97 66.39H114.64L28.23 181.82L19.47 177.29Z" fill="#F9D6E5"/>
<path d="M19.37 177.19L41.07 110.06H11.6L31.29 11.6H105.61L70.87 66.29H114.54L28.14 181.72L19.37 177.19Z" fill="#F9D6E5"/>
<path d="M19.27 177.09L40.97 109.96H11.5L31.19 11.5H105.51L70.77 66.19H114.44L28.04 181.63L19.27 177.09Z" fill="#F9D6E5"/>
<path d="M19.17 176.99L40.87 109.86H11.4L31.09 11.4H105.41L70.67 66.09H114.34L27.93 181.53L19.17 176.99Z" fill="#F9D6E5"/>
<path d="M19.07 176.89L40.77 109.76H11.3L30.99 11.3H105.31L70.57 65.99H114.24L27.84 181.43L19.07 176.89Z" fill="#F9D6E5"/>
<path d="M18.97 176.79L40.67 109.66H11.2L30.89 11.2H105.21L70.47 65.89H114.14L27.73 181.32L18.97 176.79Z" fill="#F9D6E5"/>
<path d="M18.87 176.69L40.57 109.56H11.1L30.79 11.1H105.11L70.37 65.79H114.04L27.64 181.22L18.87 176.69Z" fill="#F9D6E5"/>
<path d="M18.77 176.59L40.47 109.46H11L30.69 11H105.01L70.27 65.69H113.94L27.54 181.13L18.77 176.59Z" fill="#F9D6E5"/>
<path d="M18.67 176.49L40.37 109.36H10.9L30.59 10.9H104.91L70.17 65.59H113.84L27.43 181.03L18.67 176.49Z" fill="#F9D6E5"/>
<path d="M18.57 176.39L40.27 109.26H10.8L30.49 10.8H104.81L70.07 65.49H113.74L27.34 180.93L18.57 176.39Z" fill="#F9D6E5"/>
<path d="M18.47 176.29L40.17 109.16H10.7L30.39 10.7H104.71L69.97 65.39H113.64L27.23 180.82L18.47 176.29Z" fill="#F9D6E5"/>
<path d="M18.37 176.19L40.07 109.06H10.6L30.29 10.6H104.61L69.87 65.29H113.54L27.14 180.72L18.37 176.19Z" fill="#F9D6E5"/>
<path d="M18.27 176.09L39.97 108.96H10.5L30.19 10.5H104.51L69.77 65.19H113.44L27.04 180.63L18.27 176.09Z" fill="#F9D6E5"/>
<path d="M18.17 175.99L39.87 108.86H10.4L30.09 10.4H104.41L69.67 65.09H113.34L26.93 180.53L18.17 175.99Z" fill="#F9D6E5"/>
<path d="M18.07 175.89L39.77 108.76H10.3L29.99 10.3H104.31L69.57 64.99H113.24L26.84 180.43L18.07 175.89Z" fill="#F9D6E5"/>
<path d="M17.97 175.79L39.67 108.66H10.2L29.89 10.2H104.21L69.47 64.89H113.14L26.73 180.32L17.97 175.79Z" fill="#F9D6E5"/>
<path d="M17.87 175.69L39.57 108.56H10.1L29.79 10.1H104.11L69.37 64.79H113.04L26.64 180.22L17.87 175.69Z" fill="#F9D6E5"/>
<path d="M17.77 175.59L39.47 108.46H10L29.69 10H104.01L69.27 64.69H112.94L26.54 180.13L17.77 175.59Z" fill="#F9D6E5"/>
<path d="M17.67 175.49L39.37 108.36H9.90002L29.59 9.90002H103.91L69.17 64.59H112.84L26.43 180.03L17.67 175.49Z" fill="#F9D6E5"/>
<path d="M17.57 175.39L39.27 108.26H9.79999L29.49 9.79999H103.81L69.07 64.49H112.74L26.34 179.93L17.57 175.39Z" fill="#F9D6E5"/>
<path d="M17.47 175.29L39.17 108.16H9.70001L29.39 9.70001H103.71L68.97 64.39H112.64L26.23 179.82L17.47 175.29Z" fill="#F9D6E5"/>
<path d="M17.37 175.19L39.07 108.06H9.59998L29.29 9.59998H103.61L68.87 64.29H112.54L26.14 179.72L17.37 175.19Z" fill="#F9D6E5"/>
<path d="M17.27 175.09L38.97 107.96H9.5L29.19 9.5H103.51L68.77 64.19H112.44L26.04 179.63L17.27 175.09Z" fill="#F9D6E5"/>
<path d="M17.17 174.99L38.87 107.86H9.40002L29.09 9.40002H103.41L68.67 64.09H112.34L25.93 179.53L17.17 174.99Z" fill="#F9D6E5"/>
<path d="M17.07 174.89L38.77 107.76H9.29999L28.99 9.29999H103.31L68.57 63.99H112.24L25.84 179.43L17.07 174.89Z" fill="#F9D6E5"/>
<path d="M16.97 174.79L38.67 107.66H9.20001L28.89 9.20001H103.21L68.47 63.89H112.14L25.73 179.32L16.97 174.79Z" fill="#F9D6E5"/>
<path d="M16.87 174.69L38.57 107.56H9.09998L28.79 9.09998H103.11L68.37 63.79H112.04L25.64 179.22L16.87 174.69Z" fill="#F9D6E5"/>
<path d="M16.77 174.59L38.47 107.46H9L28.69 9H103.01L68.27 63.69H111.94L25.54 179.13L16.77 174.59Z" fill="#F9D6E5"/>
<path d="M16.67 174.49L38.37 107.36H8.90002L28.59 8.90002H102.91L68.17 63.59H111.84L25.43 179.03L16.67 174.49Z" fill="#F9D6E5"/>
<path d="M16.57 174.39L38.27 107.26H8.79999L28.49 8.79999H102.81L68.07 63.49H111.74L25.34 178.93L16.57 174.39Z" fill="#F9D6E5"/>
<path d="M16.47 174.29L38.17 107.16H8.70001L28.39 8.70001H102.71L67.97 63.39H111.64L25.23 178.82L16.47 174.29Z" fill="#F9D6E5"/>
<path d="M16.37 174.19L38.07 107.06H8.59998L28.29 8.59998H102.61L67.87 63.29H111.54L25.14 178.72L16.37 174.19Z" fill="#F9D6E5"/>
<path d="M16.27 174.09L37.97 106.96H8.5L28.19 8.5H102.51L67.77 63.19H111.44L25.04 178.63L16.27 174.09Z" fill="#F9D6E5"/>
<path d="M16.17 173.99L37.87 106.86H8.40002L28.09 8.40002H102.41L67.67 63.09H111.34L24.93 178.53L16.17 173.99Z" fill="#F9D6E5"/>
<path d="M16.07 173.89L37.77 106.76H8.29999L27.99 8.29999H102.31L67.57 62.99H111.24L24.84 178.43L16.07 173.89Z" fill="#F9D6E5"/>
<path d="M15.97 173.79L37.67 106.66H8.20001L27.89 8.20001H102.21L67.47 62.89H111.14L24.73 178.32L15.97 173.79Z" fill="#F9D6E5"/>
<path d="M15.87 173.69L37.57 106.56H8.09998L27.79 8.09998H102.11L67.37 62.79H111.04L24.64 178.22L15.87 173.69Z" fill="#F9D6E5"/>
<path d="M15.77 173.59L37.47 106.46H8L27.69 8H102.01L67.27 62.69H110.94L24.54 178.13L15.77 173.59Z" fill="#F9D6E5"/>
<path d="M15.67 173.49L37.37 106.36H7.90002L27.59 7.90002H101.91L67.17 62.59H110.84L24.43 178.03L15.67 173.49Z" fill="#F9D6E5"/>
<path d="M15.57 173.39L37.27 106.26H7.79999L27.49 7.79999H101.81L67.07 62.49H110.74L24.34 177.93L15.57 173.39Z" fill="#F9D6E5"/>
<path d="M15.47 173.29L37.17 106.16H7.70001L27.39 7.70001H101.71L66.97 62.39H110.64L24.23 177.82L15.47 173.29Z" fill="#F9D6E5"/>
<path d="M15.37 173.19L37.07 106.06H7.59998L27.29 7.59998H101.61L66.87 62.29H110.54L24.14 177.72L15.37 173.19Z" fill="#F9D6E5"/>
<path d="M15.27 173.09L36.97 105.96H7.5L27.19 7.5H101.51L66.77 62.19H110.44L24.04 177.63L15.27 173.09Z" fill="#F9D6E5"/>
<path d="M15.17 172.99L36.87 105.86H7.40002L27.09 7.40002H101.41L66.67 62.09H110.34L23.93 177.53L15.17 172.99Z" fill="#F9D6E5"/>
<path d="M15.07 172.89L36.77 105.76H7.29999L26.99 7.29999H101.31L66.57 61.99H110.24L23.84 177.43L15.07 172.89Z" fill="#F9D6E5"/>
<path d="M14.97 172.79L36.67 105.66H7.20001L26.89 7.20001H101.21L66.47 61.89H110.14L23.73 177.32L14.97 172.79Z" fill="#F9D6E5"/>
<path d="M14.87 172.69L36.57 105.56H7.09998L26.79 7.09998H101.11L66.37 61.79H110.04L23.64 177.22L14.87 172.69Z" fill="#F9D6E5"/>
<path d="M14.77 172.59L36.47 105.46H7L26.69 7H101.01L66.27 61.69H109.94L23.54 177.13L14.77 172.59Z" fill="#F9D6E5"/>
<path d="M14.67 172.49L36.37 105.36H6.90002L26.59 6.90002H100.91L66.17 61.59H109.84L23.43 177.03L14.67 172.49Z" fill="#F9D6E5"/>
<path d="M14.57 172.39L36.27 105.26H6.79999L26.49 6.79999H100.81L66.07 61.49H109.74L23.34 176.93L14.57 172.39Z" fill="#F9D6E5"/>
<path d="M14.47 172.29L36.17 105.16H6.70001L26.39 6.70001H100.71L65.97 61.39H109.64L23.23 176.82L14.47 172.29Z" fill="#F9D6E5"/>
<path d="M14.37 172.19L36.07 105.06H6.59998L26.29 6.59998H100.61L65.87 61.29H109.54L23.14 176.72L14.37 172.19Z" fill="#F9D6E5"/>
<path d="M14.27 172.09L35.97 104.96H6.5L26.19 6.5H100.51L65.77 61.19H109.44L23.04 176.63L14.27 172.09Z" fill="#F9D6E5"/>
<path d="M14.17 171.99L35.87 104.86H6.40002L26.09 6.40002H100.41L65.67 61.09H109.34L22.93 176.53L14.17 171.99Z" fill="#F9D6E5"/>
<path d="M14.07 171.89L35.77 104.76H6.29999L25.99 6.29999H100.31L65.57 60.99H109.24L22.84 176.43L14.07 171.89Z" fill="#F9D6E5"/>
<path d="M13.97 171.79L35.67 104.66H6.20001L25.89 6.20001H100.21L65.47 60.89H109.14L22.73 176.32L13.97 171.79Z" fill="#F9D6E5"/>
<path d="M13.87 171.69L35.57 104.56H6.09998L25.79 6.09998H100.11L65.37 60.79H109.04L22.64 176.22L13.87 171.69Z" fill="#F9D6E5"/>
<path d="M13.77 171.59L35.47 104.46H6L25.69 6H100.01L65.27 60.69H108.94L22.54 176.13L13.77 171.59Z" fill="#F9D6E5"/>
<path d="M13.67 171.49L35.37 104.36H5.90002L25.59 5.90002H99.91L65.17 60.59H108.84L22.43 176.03L13.67 171.49Z" fill="#F9D6E5"/>
<path d="M13.57 171.39L35.27 104.26H5.79999L25.49 5.79999H99.81L65.07 60.49H108.74L22.34 175.93L13.57 171.39Z" fill="#F9D6E5"/>
<path d="M13.47 171.29L35.17 104.16H5.70001L25.39 5.70001H99.71L64.97 60.39H108.64L22.23 175.82L13.47 171.29Z" fill="#F9D6E5"/>
<path d="M13.37 171.19L35.07 104.06H5.59998L25.29 5.59998H99.61L64.87 60.29H108.54L22.14 175.72L13.37 171.19Z" fill="#F9D6E5"/>
<path d="M13.27 171.09L34.97 103.96H5.5L25.19 5.5H99.51L64.77 60.19H108.44L22.04 175.63L13.27 171.09Z" fill="#F9D6E5"/>
<path d="M13.17 170.99L34.87 103.86H5.40002L25.09 5.40002H99.41L64.67 60.09H108.34L21.93 175.53L13.17 170.99Z" fill="#F9D6E5"/>
<path d="M13.07 170.89L34.77 103.76H5.29999L24.99 5.29999H99.31L64.57 59.99H108.24L21.84 175.43L13.07 170.89Z" fill="#F9D6E5"/>
<path d="M12.97 170.79L34.67 103.66H5.20001L24.89 5.20001H99.21L64.47 59.89H108.14L21.73 175.32L12.97 170.79Z" fill="#F9D6E5"/>
<path d="M12.87 170.69L34.57 103.56H5.09998L24.79 5.09998H99.11L64.37 59.79H108.04L21.64 175.22L12.87 170.69Z" fill="#F9D6E5"/>
<path d="M12.77 170.59L34.47 103.46H5L24.69 5H99.01L64.27 59.69H107.94L21.54 175.13L12.77 170.59Z" fill="#F9D6E5"/>
<path d="M12.67 170.49L34.37 103.36H4.90002L24.59 4.90002H98.91L64.17 59.59H107.84L21.43 175.03L12.67 170.49Z" fill="#F9D6E5"/>
<path d="M12.57 170.39L34.27 103.26H4.79999L24.49 4.79999H98.81L64.07 59.49H107.74L21.34 174.93L12.57 170.39Z" fill="#F9D6E5"/>
<path d="M12.47 170.29L34.17 103.16H4.70001L24.39 4.70001H98.71L63.97 59.39H107.64L21.23 174.82L12.47 170.29Z" fill="#F9D6E5"/>
<path d="M12.37 170.19L34.07 103.06H4.59998L24.29 4.59998H98.61L63.87 59.29H107.54L21.14 174.72L12.37 170.19Z" fill="#F9D6E5"/>
<path d="M12.27 170.09L33.97 102.96H4.5L24.19 4.5H98.51L63.77 59.19H107.44L21.04 174.63L12.27 170.09Z" fill="#F9D6E5"/>
<path d="M12.17 169.99L33.87 102.86H4.40002L24.09 4.40002H98.41L63.67 59.09H107.34L20.93 174.53L12.17 169.99Z" fill="#F9D6E5"/>
<path d="M12.07 169.89L33.77 102.76H4.29999L23.99 4.29999H98.31L63.57 58.99H107.24L20.84 174.43L12.07 169.89Z" fill="#F9D6E5"/>
<path d="M11.97 169.79L33.67 102.66H4.20001L23.89 4.20001H98.21L63.47 58.89H107.14L20.73 174.32L11.97 169.79Z" fill="#F9D6E5"/>
<path d="M11.87 169.69L33.57 102.56H4.09998L23.79 4.09998H98.11L63.37 58.79H107.04L20.64 174.22L11.87 169.69Z" fill="#F9D6E5"/>
<path d="M11.77 169.59L33.47 102.46H4L23.69 4H98.01L63.27 58.69H106.94L20.54 174.13L11.77 169.59Z" fill="#F9D6E5"/>
<path d="M11.67 169.49L33.37 102.36H3.90002L23.59 3.90002H97.91L63.17 58.59H106.84L20.43 174.03L11.67 169.49Z" fill="#F9D6E5"/>
<path d="M11.57 169.39L33.27 102.26H3.79999L23.49 3.79999H97.81L63.07 58.49H106.74L20.34 173.93L11.57 169.39Z" fill="#F9D6E5"/>
<path d="M11.47 169.29L33.17 102.16H3.70001L23.39 3.70001H97.71L62.97 58.39H106.64L20.23 173.82L11.47 169.29Z" fill="#F9D6E5"/>
<path d="M11.37 169.19L33.07 102.06H3.59998L23.29 3.59998H97.61L62.87 58.29H106.54L20.14 173.72L11.37 169.19Z" fill="#F9D6E5"/>
<path d="M11.27 169.09L32.97 101.96H3.5L23.19 3.5H97.51L62.77 58.19H106.44L20.04 173.63L11.27 169.09Z" fill="#F9D6E5"/>
<path d="M11.17 168.99L32.87 101.86H3.40002L23.09 3.40002H97.41L62.67 58.09H106.34L19.93 173.53L11.17 168.99Z" fill="#F9D6E5"/>
<path d="M11.07 168.89L32.77 101.76H3.29999L22.99 3.29999H97.31L62.57 57.99H106.24L19.84 173.43L11.07 168.89Z" fill="#F9D6E5"/>
<path d="M10.97 168.79L32.67 101.66H3.20001L22.89 3.20001H97.21L62.47 57.89H106.14L19.73 173.32L10.97 168.79Z" fill="#F9D6E5"/>
<path d="M10.87 168.69L32.57 101.56H3.09998L22.79 3.09998H97.11L62.37 57.79H106.04L19.64 173.22L10.87 168.69Z" fill="#F9D6E5"/>
<path d="M10.77 168.59L32.47 101.46H3L22.69 3H97.01L62.27 57.69H105.94L19.54 173.13L10.77 168.59Z" fill="#F9D6E5"/>
<path d="M10.67 168.49L32.37 101.36H2.90002L22.59 2.90002H96.91L62.17 57.59H105.84L19.43 173.03L10.67 168.49Z" fill="#F9D6E5"/>
<path d="M10.57 168.39L32.27 101.26H2.79999L22.49 2.79999H96.81L62.07 57.49H105.74L19.34 172.93L10.57 168.39Z" fill="#F9D6E5"/>
<path d="M10.47 168.29L32.17 101.16H2.70001L22.39 2.70001H96.71L61.97 57.39H105.64L19.23 172.82L10.47 168.29Z" fill="#F9D6E5"/>
<path d="M10.37 168.19L32.07 101.06H2.59998L22.29 2.59998H96.61L61.87 57.29H105.54L19.14 172.72L10.37 168.19Z" fill="#F9D6E5"/>
<path d="M10.27 168.09L31.97 100.96H2.5L22.19 2.5H96.51L61.77 57.19H105.44L19.04 172.63L10.27 168.09Z" fill="#F9D6E5"/>
<path d="M10.17 167.99L31.87 100.86H2.40002L22.09 2.40002H96.41L61.67 57.09H105.34L18.93 172.53L10.17 167.99Z" fill="#F9D6E5"/>
<path d="M10.07 167.89L31.77 100.76H2.29999L21.99 2.29999H96.31L61.57 56.99H105.24L18.84 172.43L10.07 167.89Z" fill="#F9D6E5"/>
<path d="M9.97001 167.79L31.67 100.66H2.20001L21.89 2.20001H96.21L61.47 56.89H105.14L18.73 172.32L9.97001 167.79Z" fill="#F9D6E5"/>
<path d="M9.86998 167.69L31.57 100.56H2.09998L21.79 2.09998H96.11L61.37 56.79H105.04L18.64 172.22L9.86998 167.69Z" fill="#F9D6E5"/>
<path d="M9.77 167.59L31.47 100.46H2L21.69 2H96.01L61.27 56.69H104.94L18.54 172.13L9.77 167.59Z" fill="#F9D6E5"/>
<path d="M9.67002 167.49L31.37 100.36H1.90002L21.59 1.90002H95.91L61.17 56.59H104.84L18.43 172.03L9.67002 167.49Z" fill="#F9D6E5"/>
<path d="M9.56999 167.39L31.27 100.26H1.79999L21.49 1.79999H95.81L61.07 56.49H104.74L18.34 171.93L9.56999 167.39Z" fill="#F9D6E5"/>
<path d="M9.47001 167.29L31.17 100.16H1.70001L21.39 1.70001H95.71L60.97 56.39H104.64L18.23 171.82L9.47001 167.29Z" fill="#F9D6E5"/>
<path d="M9.36998 167.19L31.07 100.06H1.59998L21.29 1.59998H95.61L60.87 56.29H104.54L18.14 171.72L9.36998 167.19Z" fill="#F9D6E5"/>
<path d="M9.27 167.09L30.97 99.96H1.5L21.19 1.5H95.51L60.77 56.19H104.44L18.04 171.63L9.27 167.09Z" fill="#F9D6E5"/>
<path d="M9.17002 166.99L30.87 99.86H1.40002L21.09 1.40002H95.41L60.67 56.09H104.34L17.93 171.53L9.17002 166.99Z" fill="#F9D6E5"/>
<path d="M9.06999 166.89L30.77 99.76H1.29999L20.99 1.29999H95.31L60.57 55.99H104.24L17.84 171.43L9.06999 166.89Z" fill="#F9D6E5"/>
<path d="M8.97001 166.79L30.67 99.66H1.20001L20.89 1.20001H95.21L60.47 55.89H104.14L17.73 171.32L8.97001 166.79Z" fill="#F9D6E5"/>
<path d="M8.86998 166.69L30.57 99.56H1.09998L20.79 1.09998H95.11L60.37 55.79H104.04L17.64 171.22L8.86998 166.69Z" fill="#F9D6E5"/>
<path d="M8.77 166.59L30.47 99.46H1L20.69 1H95.01L60.27 55.69H103.94L17.54 171.13L8.77 166.59Z" fill="#F9D6E5"/>
<path d="M8.67002 166.49L30.37 99.36H0.900024L20.59 0.900024H94.91L60.17 55.59H103.84L17.43 171.03L8.67002 166.49Z" fill="#F9D6E5"/>
<path d="M8.56999 166.39L30.27 99.26H0.799988L20.49 0.799988H94.81L60.07 55.49H103.74L17.34 170.93L8.56999 166.39Z" fill="#F9D6E5"/>
<path d="M8.47001 166.29L30.17 99.16H0.700012L20.39 0.700012H94.71L59.97 55.39H103.64L17.23 170.82L8.47001 166.29Z" fill="#F9D6E5"/>
<path d="M8.36998 166.19L30.07 99.06H0.599976L20.29 0.599976H94.61L59.87 55.29H103.54L17.14 170.72L8.36998 166.19Z" fill="#F9D6E5"/>
<path d="M8.27 166.09L29.97 98.96H0.5L20.19 0.5H94.51L59.77 55.19H103.44L17.04 170.63L8.27 166.09Z" fill="#F9D6E5"/>
<path d="M8.17002 165.99L29.87 98.86H0.400024L20.09 0.400024H94.41L59.67 55.09H103.34L16.93 170.53L8.17002 165.99Z" fill="#F9D6E5"/>
<path d="M8.06999 165.89L29.77 98.76H0.299988L19.99 0.299988H94.31L59.57 54.99H103.24L16.84 170.43L8.06999 165.89Z" fill="#F9D6E5"/>
<path d="M7.97001 165.79L29.67 98.66H0.200012L19.89 0.200012H94.21L59.47 54.89H103.14L16.73 170.32L7.97001 165.79Z" fill="#F9D6E5"/>
<path d="M7.86998 165.69L29.57 98.56H0.0999756L19.79 0.0999756H94.11L59.37 54.79H103.04L16.64 170.22L7.86998 165.69Z" fill="#F9D6E5"/>
<path d="M7.77 165.59L29.47 98.46H0L19.69 0H94.01L59.27 54.69H102.94L16.54 170.13L7.77 165.59Z" fill="#F9D6E5"/>
<path d="M23.79 5H84.91L50.17 59.69H92.95L12.53 167.13L36.34 93.46H6.09998L23.79 5Z" fill="#425C9B"/>
</g>
<defs>
<clipPath id="clip0_0_9763">
<rect width="118.84" height="186.03" fill="white"/>
</clipPath>
</defs>
</svg>
