<svg width="318" height="181" viewBox="0 0 318 181" fill="none" xmlns="http://www.w3.org/2000/svg">
<g clip-path="url(#clip0_0_9928)">
<path d="M287.34 45.07H48.81C32.2636 45.07 18.85 58.4836 18.85 75.03V150.39C18.85 166.936 32.2636 180.35 48.81 180.35H287.34C303.886 180.35 317.3 166.936 317.3 150.39V75.03C317.3 58.4836 303.886 45.07 287.34 45.07Z" fill="#F5F5F5"/>
<path d="M53.8 179.07H53.32H53.22H40.62V178.13C39 177.95 37 177.74 34.62 177.52L34.1 177.47L33.59 177.33C25.33 175 22.32 173 20.8 171.68C17.441 169.729 14.6756 166.902 12.8 163.5C11.3417 161.619 10.3419 159.425 9.88 157.09C9.6639 156.387 9.55599 155.655 9.56 154.92C9.56 154.8 9.56 154.67 9.56 154.54C9.56 154.41 9.56 154.29 9.56 154.16C9.61734 151.456 10.2443 148.795 11.4 146.35C11.01 145.82 10.54 145.2 10 144.5L9.81 144.26L9.71 144C5.82 137.73 3.62 133.13 2.83 129.64H0L1.44 123.83L1.55 122.33L0.48 116.33H2C2.92 104.33 4.1 91.85 5.51 79.06V77.45C5.51143 77.0608 5.54825 76.6725 5.62 76.29C5.55 75.39 5.51 74.64 5.51 74.01V73.25C5.51 73.13 5.51 73.01 5.51 72.89C5.45 72.5 5.4 72.06 5.35 71.57L5.17 69.9L5.26 69.72V69.64L5.46 68.2C4.1 58.63 3.28 51.2 2.96 45.52V44.62L3.15 43.86L2.78 41.49L3 41C3 40.76 3 40.54 3 40.32C2.98954 40.1201 2.98954 39.9199 3 39.72C3 39.51 3 39.29 3 39.07V35.55C2.97916 35.3084 2.94578 35.0681 2.9 34.83L2.38 31.88L3 31.26L2.88 30.77L3.1 29L3 28.8H2.44L3.92 21.86C4.88394 16.8354 7.14546 12.1503 10.48 8.27L10.63 8.11L10.72 8C14.28 4.46 18 2.23 21.63 1.39V0L26.23 1H26.5C26.5 1 27.41 1.24 27.66 1.32L28.6 1.52C32.3092 2.18854 35.7939 3.76935 38.74 6.12C45.16 10.59 48.56 16.77 48.56 24.01V24.24C48.8154 25.4817 48.999 26.7371 49.11 28L49.29 30L49.18 30.16C49.29 31.35 49.36 32.92 49.41 35.03C50.2 34.9 51.05 34.78 51.98 34.67H52.32H55.23C57.0378 34.7268 58.8258 35.0642 60.53 35.67C62.0502 34.9099 63.6411 34.3003 65.28 33.85C66.6944 33.2621 68.2 32.9238 69.73 32.85H73.27C75.1927 32.9351 77.0778 33.4114 78.81 34.25C81.8283 32.7983 85.1216 32.0073 88.47 31.93C89.0184 31.7855 89.5829 31.7116 90.15 31.71H90.62L91.09 31.79C98.09 32.95 102.48 34.79 104.99 37.47C107.891 39.826 110.41 42.6155 112.46 45.74C114.61 49.0894 116.217 52.7582 117.22 56.61C118.01 59.11 118.92 64.16 119.98 71.99L120.22 73.74L120.12 73.93C120.185 74.3301 120.219 74.7347 120.22 75.14V75.84V75.94C120.23 76.1199 120.23 76.3001 120.22 76.48C120.22 76.72 120.22 76.96 120.22 77.19V77.47V77.9C120.222 78.5695 120.171 79.2382 120.07 79.9V80.05L120 81.08C119.32 87.71 118.52 92.36 117.54 95.29L117.27 96.08C117.652 98.6153 117.903 101.169 118.02 103.73V104.35L118 105C117.947 105.313 117.887 105.613 117.82 105.9L118.13 108.06L117.89 109.58C117.89 109.8 117.95 110.1 118.01 110.52L118.11 111.2L118.04 111.89C117.93 113.11 117.87 114.54 117.87 116.13C117.875 116.765 117.812 117.399 117.68 118.02V118.9L115.21 125.42C113.252 130.869 110.437 135.969 106.87 140.53L106.73 140.7L106.64 140.8C102.91 144.89 101 146.97 99.64 148.22V149.43C99.8022 153.715 98.5436 157.934 96.06 161.43C92.7525 166.518 87.9127 170.423 82.24 172.58C80.96 173.49 78.59 174.69 71.07 177L70.58 177.16L54.18 179.16L53.8 179.07Z" fill="#F5F5F5"/>
<path d="M287.34 46.71H48.81C33.1693 46.71 20.49 59.3893 20.49 75.03V150.39C20.49 166.031 33.1693 178.71 48.81 178.71H287.34C302.981 178.71 315.66 166.031 315.66 150.39V75.03C315.66 59.3893 302.981 46.71 287.34 46.71Z" fill="#F24C24"/>
<path d="M53.8 177.43C53.6135 177.44 53.4265 177.44 53.24 177.43H53.06H42.26V176.68C40.76 176.49 38.42 176.23 34.81 175.89H34.43L34.07 175.79C26.25 173.57 23.25 171.7 21.77 170.39C18.5953 168.561 15.9891 165.889 14.24 162.67C12.8791 160.94 11.9501 158.911 11.53 156.75C11.3385 156.173 11.2439 155.568 11.25 154.96C11.25 154.84 11.25 154.71 11.25 154.58C11.25 154.45 11.25 154.33 11.25 154.2C11.3318 151.409 12.0464 148.674 13.34 146.2C12.93 145.62 12.34 144.77 11.34 143.53L11.21 143.36L11.1 143.18C7.03 136.6 4.85 131.95 4.28 128.58C4.28 128.39 4.17 128.21 4.12 128.04H2.12L3.12 124.12L3.26 122.29L2.44 118H3.51C4.45 105.58 5.67 92.55 7.14 79.18V77.45C7.13826 77.0926 7.18195 76.7364 7.27 76.39C7.18 75.39 7.14 74.65 7.14 74.01V73.25C7.14 73.11 7.14 72.97 7.14 72.83C7.08999 72.41 7 71.94 7 71.4L6.87 70.2L7 70L6.93 69.65L7.13 68.24C5.72 58.57 4.9 51.11 4.57 45.42V44.79L4.73 44.17C4.73 44.07 4.73 43.99 4.73 43.9L4.39 41.76L4.6 41.34C4.6 40.98 4.6 40.65 4.6 40.34C4.58442 40.1436 4.58442 39.9464 4.6 39.75C4.58507 39.5303 4.58507 39.3097 4.6 39.09V35.55C4.57906 35.2141 4.53562 34.8801 4.47 34.55L4.1 32.45L4.73 31.83C4.72506 31.7601 4.72506 31.6899 4.73 31.62L4.49 30.71L4.81 28.76L4.63 28.4L4.82 27.17H4.46L5.52 22.22C6.42551 17.4665 8.55958 13.0329 11.71 9.36L11.79 9.27L11.88 9.19C15.65 5.41 19.48 3.25 23.27 2.75V2L26.05 2.6H26.29L27.29 2.87L28.29 3.08C31.7608 3.69501 35.021 5.17377 37.77 7.38C43.77 11.53 46.96 17.26 46.96 23.97V24.36C47.216 25.5919 47.403 26.8372 47.52 28.09L47.64 29.5L47.54 29.67C47.67 30.84 47.77 32.67 47.82 35.67V36.33V36.41C47.82 36.56 47.82 36.73 47.88 36.93C49.14 36.67 50.58 36.45 52.22 36.25H52.47H55.28C57.1368 36.3386 58.9671 36.727 60.7 37.4C62.3272 36.5532 64.0403 35.8828 65.81 35.4C67.0766 34.8412 68.4294 34.503 69.81 34.4H73.35C75.2813 34.5433 77.1614 35.0882 78.87 36C81.9047 34.3859 85.2829 33.525 88.72 33.49C89.184 33.3511 89.6657 33.2804 90.15 33.28H90.49L90.82 33.34C97.45 34.44 101.6 36.11 103.82 38.57C107.37 41.67 109.74 44.28 111.06 46.57C113.124 49.7848 114.67 53.3046 115.64 57C116.42 59.45 117.31 64.41 118.35 72.15L118.52 73.4L118.42 73.61C118.518 74.0941 118.572 74.5861 118.58 75.08V75.58V75.77C118.595 75.9864 118.595 76.2036 118.58 76.42C118.58 76.6646 118.56 76.9088 118.52 77.15L118.58 77.53V77.84C118.586 78.5478 118.522 79.2545 118.39 79.95L118.45 80.16L118.37 80.93C117.7 87.45 116.92 91.93 115.98 94.79L115.6 95.94C116.021 98.5555 116.288 101.193 116.4 103.84V104.28L116.33 104.71C116.274 105.071 116.197 105.428 116.1 105.78L116.43 108.02L116.19 109.49C116.19 109.73 116.25 110.12 116.34 110.73L116.41 111.22V111.71C116.29 112.98 116.23 114.45 116.23 116.1C116.239 116.676 116.175 117.25 116.04 117.81V118.57L113.68 124.8C111.781 130.087 109.054 135.039 105.6 139.47L105.52 139.57L105.43 139.66C101.43 144.06 99.35 146.31 98.01 147.45V149.4C98.1609 153.331 96.9999 157.201 94.71 160.4C91.5366 165.28 86.8663 168.999 81.4 171C80.09 172 77.4 173.19 70.56 175.31L70.21 175.42L54.05 177.42L53.8 177.43Z" fill="#EB5612"/>
<path d="M114.48 76.4C114.459 76.1954 114.394 75.9977 114.29 75.82L114.48 75.06C114.419 74.3824 114.292 73.7125 114.1 73.06L114.29 72.69C113.27 65.1767 112.413 60.34 111.72 58.18C110.864 54.8307 109.476 51.6402 107.61 48.73C106.53 46.8233 104.307 44.4067 100.94 41.48C99.4734 39.7 95.8767 38.3333 90.15 37.38C89.9 37.38 89.77 37.45 89.77 37.57C85.3233 37.57 81.7934 38.62 79.18 40.72C76.38 39.26 74.41 38.52 73.27 38.52H69.73C68.7768 38.6533 67.8453 38.9123 66.96 39.29C64.8572 39.8879 62.8405 40.7551 60.96 41.87C59.1509 41.0477 57.2181 40.5307 55.24 40.34L54.86 40.53C54.6317 40.3912 54.3667 40.325 54.1 40.34H53.43L53.05 40.53C53.0533 40.5043 53.0506 40.4781 53.0422 40.4536C53.0338 40.4291 53.0199 40.4068 53.0016 40.3884C52.9832 40.3701 52.9609 40.3562 52.9364 40.3478C52.9119 40.3394 52.8857 40.3367 52.86 40.34H52.67C48.4 40.85 45.67 41.55 44.46 42.44C43.88 38.3 43.6 36.17 43.6 36.05L43.69 35.76C43.63 31.94 43.47 29.76 43.22 29.08C43.2214 28.8716 43.2878 28.6688 43.41 28.5C43.261 26.9829 43.0003 25.4788 42.63 24H42.82C42.82 18.5267 40.2767 14.0733 35.19 10.64C33.48 9.05999 30.86 7.87999 27.37 7.11999C27.37 7.23999 27.31 7.29999 27.18 7.29999C27.05 7.29999 26.7 6.99999 25.75 6.73999H25C21.7534 6.73999 18.3467 8.51999 14.78 12.08C12.0998 15.2243 10.2928 19.0176 9.54002 23.08C9.56574 23.0767 9.59188 23.0794 9.61641 23.0878C9.64095 23.0962 9.66323 23.1101 9.68157 23.1284C9.69991 23.1468 9.71381 23.1691 9.7222 23.1936C9.7306 23.2181 9.73327 23.2443 9.73002 23.27C9.32716 24.7387 9.03962 26.2365 8.87002 27.75L9.06002 28.14L8.67002 30.5L8.86002 31.26C8.85773 32.1338 8.72976 33.0027 8.48002 33.84C8.58889 34.404 8.65243 34.9758 8.67002 35.55V38L8.86002 38.37C8.83429 38.3667 8.80816 38.3694 8.78362 38.3778C8.75909 38.3862 8.7368 38.4001 8.71846 38.4184C8.70013 38.4368 8.68623 38.4591 8.67783 38.4836C8.66943 38.5081 8.66676 38.5343 8.67002 38.56V39.13C8.66246 39.3707 8.72877 39.608 8.86002 39.81C8.75529 39.9836 8.69039 40.1783 8.67002 40.38C8.68728 40.9244 8.75084 41.4664 8.86002 42L8.67002 42.39L8.86002 43.63C8.86091 44.1426 8.79707 44.6533 8.67002 45.15C8.99002 50.8233 9.84668 58.49 11.24 68.15L11.05 69.49L11.24 70.49L11.05 70.86C11.0735 71.5756 11.205 72.2836 11.44 72.96C11.413 72.9568 11.3856 72.9597 11.3598 72.9687C11.3341 72.9776 11.3107 72.9922 11.2915 73.0115C11.2722 73.0307 11.2576 73.0541 11.2487 73.0798C11.2398 73.1055 11.2368 73.133 11.24 73.16V74C11.24 74.7 11.31 75.68 11.44 77C11.3291 77.1377 11.2597 77.3042 11.24 77.48C11.37 77.48 11.44 77.54 11.44 77.66C9.72002 93.06 8.35002 107.82 7.33002 121.94C7.46002 121.94 7.52002 122 7.52002 122.12H7.33002L7.52002 123.18L7.33002 123.94C7.35574 123.937 7.38188 123.939 7.40641 123.948C7.43095 123.956 7.45323 123.97 7.47157 123.988C7.48991 124.007 7.50381 124.029 7.5122 124.054C7.5206 124.078 7.52327 124.104 7.52002 124.13H7.33002C7.58477 125.331 7.91884 126.513 8.33002 127.67C8.71002 130.403 10.8067 134.853 14.62 141.02C16.85 143.89 17.96 145.57 17.96 146.08V146.27C16.2467 149.317 15.39 151.957 15.39 154.19C15.412 154.391 15.4768 154.586 15.58 154.76C15.5543 154.757 15.5282 154.759 15.5036 154.768C15.4791 154.776 15.4568 154.79 15.4385 154.808C15.4201 154.827 15.4062 154.849 15.3978 154.874C15.3894 154.898 15.3868 154.924 15.39 154.95C15.39 155.33 15.45 155.53 15.58 155.53C15.58 156.863 16.31 158.53 17.77 160.53C19.2389 163.273 21.482 165.523 24.22 167C25.75 168.52 29.4 170.12 35.22 171.77C42.66 172.437 46.3833 172.943 46.39 173.29H50.11L50.49 173.1C50.49 173.24 50.49 173.29 50.58 173.29H52.69L53.69 173.1C53.69 173.24 53.75 173.29 53.88 173.29L69.43 171.39C75.43 169.55 78.7067 168.243 79.26 167.47C84.8 165.383 88.84 162.237 91.38 158.03C93.202 155.515 94.1089 152.452 93.95 149.35C93.82 149.35 93.76 149.28 93.76 149.15C93.76 149.02 93.95 149.1 93.95 148.96V148.59C93.9987 148.161 93.9562 147.726 93.8252 147.314C93.6942 146.902 93.4778 146.522 93.19 146.2C93.8677 145.726 94.4767 145.16 95 144.52C95.25 144.52 97.71 141.98 102.34 136.89C105.527 132.798 108.042 128.224 109.79 123.34L111.89 117.81C111.864 117.606 111.799 117.41 111.7 117.23C111.95 117.23 112.07 116.85 112.07 116.09C112.07 114.31 112.14 112.72 112.27 111.32C112.156 110.625 112.09 109.924 112.07 109.22L112.27 107.98L111.89 105.31C112.02 105.31 112.14 104.89 112.27 104.06C112.205 100.978 111.819 97.9119 111.12 94.91C111.343 94.362 111.684 93.8701 112.12 93.47C112.953 91.0033 113.687 86.67 114.32 80.47C114.242 80.2171 114.179 79.96 114.13 79.7C114.39 79.7 114.51 79.07 114.51 77.79L114.32 76.56C114.362 76.5576 114.401 76.54 114.431 76.5105C114.46 76.481 114.478 76.4417 114.48 76.4Z" fill="#EB5612"/>
<path d="M114.48 76.4C114.459 76.1954 114.394 75.9977 114.29 75.82L114.48 75.06C114.419 74.3824 114.292 73.7125 114.1 73.06L114.29 72.69C113.27 65.1767 112.413 60.34 111.72 58.18C110.864 54.8307 109.476 51.6402 107.61 48.73C106.53 46.8233 104.307 44.4067 100.94 41.48C99.4734 39.7 95.8767 38.3333 90.15 37.38C89.9 37.38 89.77 37.45 89.77 37.57C85.3233 37.57 81.7934 38.62 79.18 40.72C76.38 39.26 74.41 38.52 73.27 38.52H69.73C68.7768 38.6533 67.8453 38.9123 66.96 39.29C64.8572 39.8879 62.8405 40.7551 60.96 41.87C59.1509 41.0477 57.2181 40.5307 55.24 40.34L54.86 40.53C54.6313 40.3924 54.3666 40.3262 54.1 40.34H53.43L53.05 40.53C53.0533 40.5043 53.0506 40.4781 53.0422 40.4536C53.0338 40.4291 53.0199 40.4068 53.0016 40.3884C52.9832 40.3701 52.9609 40.3562 52.9364 40.3478C52.9119 40.3394 52.8857 40.3367 52.86 40.34H52.67C48.4 40.85 45.67 41.55 44.46 42.44C43.88 38.3 43.6 36.17 43.6 36.05L43.69 35.76C43.63 31.94 43.47 29.76 43.22 29.08C43.2214 28.8716 43.2878 28.6688 43.41 28.5C43.261 26.9829 43.0003 25.4788 42.63 24H42.82C42.82 18.5267 40.2767 14.0733 35.19 10.64C33.48 9.05999 30.86 7.87999 27.37 7.11999C27.37 7.23999 27.31 7.29999 27.18 7.29999C27.05 7.29999 26.7 6.99999 25.75 6.73999H25C21.7534 6.73999 18.3467 8.51999 14.78 12.08C12.0998 15.2243 10.2928 19.0176 9.54002 23.08C9.56574 23.0767 9.59188 23.0794 9.61641 23.0878C9.64095 23.0962 9.66323 23.1101 9.68157 23.1284C9.69991 23.1468 9.71381 23.1691 9.7222 23.1936C9.7306 23.2181 9.73327 23.2443 9.73002 23.27C9.32716 24.7387 9.03962 26.2365 8.87002 27.75L9.06002 28.14L8.67002 30.5L8.86002 31.27C8.85705 32.1404 8.72908 33.0059 8.48002 33.84C8.58889 34.404 8.65243 34.9758 8.67002 35.55V38L8.86002 38.37C8.83429 38.3667 8.80816 38.3694 8.78362 38.3778C8.75909 38.3862 8.7368 38.4001 8.71846 38.4184C8.70013 38.4368 8.68623 38.4591 8.67783 38.4836C8.66943 38.5081 8.66676 38.5343 8.67002 38.56V39.13C8.66246 39.3707 8.72877 39.608 8.86002 39.81C8.75529 39.9836 8.69039 40.1783 8.67002 40.38C8.68728 40.9244 8.75084 41.4664 8.86002 42L8.67002 42.39L8.86002 43.63C8.86091 44.1426 8.79707 44.6533 8.67002 45.15C8.99002 50.8233 9.84668 58.49 11.24 68.15L11.05 69.49L11.24 70.49L11.05 70.86C11.0735 71.5756 11.205 72.2836 11.44 72.96C11.413 72.9568 11.3856 72.9597 11.3598 72.9687C11.3341 72.9776 11.3107 72.9922 11.2915 73.0115C11.2722 73.0307 11.2576 73.0541 11.2487 73.0798C11.2398 73.1055 11.2368 73.133 11.24 73.16V74C11.24 74.7 11.31 75.68 11.44 77C11.3291 77.1377 11.2597 77.3042 11.24 77.48C11.37 77.48 11.44 77.54 11.44 77.66C9.72002 93.06 8.35002 107.82 7.33002 121.94C7.46002 121.94 7.52002 122 7.52002 122.12H7.33002L7.52002 123.18L7.33002 123.94C7.35574 123.937 7.38188 123.939 7.40641 123.948C7.43095 123.956 7.45323 123.97 7.47157 123.988C7.48991 124.007 7.50381 124.029 7.5122 124.054C7.5206 124.078 7.52327 124.104 7.52002 124.13H7.33002C7.58477 125.331 7.91884 126.513 8.33002 127.67C8.71002 130.403 10.8067 134.853 14.62 141.02C16.85 143.89 17.96 145.57 17.96 146.08V146.27C16.2467 149.317 15.39 151.957 15.39 154.19C15.412 154.391 15.4768 154.586 15.58 154.76C15.5543 154.757 15.5282 154.759 15.5036 154.768C15.4791 154.776 15.4568 154.79 15.4385 154.808C15.4201 154.827 15.4062 154.849 15.3978 154.874C15.3894 154.898 15.3868 154.924 15.39 154.95C15.39 155.33 15.45 155.53 15.58 155.53C15.58 156.86 16.3 158.53 17.77 160.53C19.2389 163.273 21.482 165.523 24.22 167C25.75 168.52 29.4 170.12 35.22 171.77C42.66 172.437 46.3833 172.943 46.39 173.29H50.11L50.49 173.1C50.49 173.24 50.49 173.29 50.58 173.29H52.69L53.69 173.1C53.69 173.24 53.75 173.29 53.88 173.29L69.43 171.39C75.43 169.55 78.7067 168.243 79.26 167.47C84.8 165.37 88.84 162.223 91.38 158.03C93.202 155.515 94.1089 152.452 93.95 149.35C93.82 149.35 93.76 149.28 93.76 149.15C93.76 149.02 93.95 149.1 93.95 148.96V148.59C93.9987 148.161 93.9562 147.726 93.8252 147.314C93.6942 146.902 93.4778 146.522 93.19 146.2C93.8677 145.726 94.4767 145.16 95 144.52C95.25 144.52 97.71 141.98 102.34 136.89C105.527 132.798 108.042 128.224 109.79 123.34L111.89 117.81C111.864 117.606 111.799 117.41 111.7 117.23C111.95 117.23 112.07 116.85 112.07 116.09C112.07 114.31 112.14 112.72 112.27 111.32C112.156 110.625 112.09 109.924 112.07 109.22L112.27 107.98L111.89 105.31C112.02 105.31 112.14 104.89 112.27 104.06C112.205 100.978 111.819 97.9119 111.12 94.91C111.343 94.362 111.684 93.8701 112.12 93.47C112.953 91.0033 113.687 86.67 114.32 80.47C114.242 80.2171 114.179 79.96 114.13 79.7C114.39 79.7 114.51 79.07 114.51 77.79L114.32 76.56C114.362 76.5576 114.401 76.54 114.431 76.5105C114.46 76.481 114.478 76.4417 114.48 76.4ZM63.63 46C67.5 44.1 70.46 43.14 72.5 43.14L76.03 44.14V44.33L73.45 46.43C71.8576 48.3058 70.4822 50.3554 69.35 52.54C67.5 57 66.59 60.84 66.59 63.9C66.71 63.9 66.77 63.96 66.77 64.09C66.6529 64.3263 66.5913 64.5863 66.59 64.85V66.37L66.77 66.76C66.65 66.76 66.59 66.82 66.59 66.95V68.57L67.16 70.57H66.4C65.8218 70.5764 65.2457 70.64 64.68 70.76L64.39 70.57C64.1536 70.688 63.8942 70.7529 63.63 70.76H58.38L58 71V70.82L57.14 71H56C55.74 71 55.29 69.23 54.66 65.66C54.7944 65.4299 54.8603 65.1662 54.85 64.9V63.42L55 61.51C54.87 61.51 54.81 61.45 54.81 61.31C54.81 61.17 55.06 61.13 55.19 60.75C55.1696 60.5483 55.1047 60.3536 55 60.18C55.5722 57.9507 56.3385 55.7757 57.29 53.68C58.3367 51.4 60.45 48.84 63.63 46ZM46.36 47.39C48.6554 45.7782 51.3083 44.7486 54.09 44.39C54.09 44.52 54.15 44.58 54.27 44.58L54.66 44.39C54.66 44.58 55.54 44.77 57.33 44.96C52.2434 52.12 49.7 59.0033 49.7 65.61C49.8509 67.6912 50.2676 69.7446 50.94 71.72C45.4 73.5667 41.6467 76.11 39.68 79.35C38.68 80.5 37.83 82.91 37.2 86.6H37C34.6467 83.1733 33.4734 78.7233 33.48 73.25C33.7029 72.3764 33.8303 71.4811 33.86 70.58C35.0667 64.34 36.2433 60.5233 37.39 59.13L37.2 58.74C37.8887 57.9402 38.406 57.0076 38.72 56C40.6618 52.6454 43.2603 49.717 46.36 47.39ZM17.54 135.84C14.8074 130.197 13.1557 124.091 12.67 117.84C12.8282 117.532 12.8942 117.185 12.86 116.84V116.46L12.67 116.08C12.6957 116.083 12.7219 116.081 12.7464 116.072C12.7709 116.064 12.7932 116.05 12.8116 116.032C12.8299 116.013 12.8438 115.991 12.8522 115.966C12.8606 115.942 12.8633 115.916 12.86 115.89L12.67 115.5H12.86L12.67 114.64L12.86 113.5C12.7599 113.324 12.6953 113.131 12.67 112.93C12.7381 112.062 12.8684 111.2 13.06 110.35C12.93 110.35 12.86 110.29 12.86 110.16C13.5267 105.2 14.2267 100.62 14.96 96.42C14.9343 96.4232 14.9082 96.4206 14.8836 96.4122C14.8591 96.4038 14.8368 96.3899 14.8185 96.3715C14.8001 96.3532 14.7862 96.3309 14.7778 96.3064C14.7694 96.2819 14.7668 96.2557 14.77 96.23C15.177 95.3552 15.4371 94.4193 15.54 93.46L15.35 93.08C15.7156 92.2716 15.9357 91.4049 16 90.52C15.94 90.52 15.91 90.45 15.91 90.32C16.2986 88.6799 16.5197 87.0047 16.57 85.32C16.45 85.32 16.39 85.26 16.39 85.13C16.4356 84.6322 16.5641 84.1455 16.77 83.69L16.57 83.32L17 80.88L16.81 80.5L17 79.35V77.35C17.0146 76.6464 17.0781 75.9447 17.19 75.25C17.0344 74.941 16.9686 74.5945 17 74.25L17.19 73.39C17.1643 73.3932 17.1382 73.3906 17.1136 73.3822C17.0891 73.3738 17.0668 73.3599 17.0485 73.3415C17.0301 73.3232 17.0162 73.3009 17.0078 73.2764C16.9994 73.2518 16.9968 73.2257 17 73.2H17.19L17 71.91V70.09L16.81 69.72H17C16.9731 69.1417 16.8995 68.5665 16.78 68C16.8773 67.823 16.9417 67.6299 16.97 67.43L16.78 67.14C16.8037 67.1475 16.8288 67.1497 16.8534 67.1465C16.8781 67.1433 16.9017 67.1347 16.9227 67.1214C16.9437 67.108 16.9615 67.0902 16.9748 67.0693C16.9882 67.0483 16.9968 67.0246 17 67V66.62C17.0412 66.3438 16.9887 66.0619 16.851 65.819C16.7132 65.5761 16.4982 65.3864 16.24 65.28C15.9093 59.7322 15.2951 54.205 14.4 48.72H14.58C14.2564 47.2464 14.0623 45.7474 14 44.24C14.0257 44.2432 14.0519 44.2406 14.0764 44.2322C14.1009 44.2238 14.1232 44.2099 14.1416 44.1915C14.1599 44.1732 14.1738 44.1509 14.1822 44.1264C14.1906 44.1018 14.1933 44.0757 14.19 44.05C14.0093 43.6552 13.8815 43.2383 13.81 42.81C13.8114 42.6016 13.8778 42.3988 14 42.23C13.8762 41.9957 13.811 41.735 13.81 41.47V39.57L13.62 38.71C13.75 38.71 13.81 38.51 13.81 38.13V37.56C13.834 37.2159 13.7685 36.8714 13.62 36.56C13.6557 31.3996 14.7269 26.2988 16.77 21.56C17.7167 17.9333 18.8933 15.7033 20.3 14.87C20.3 14.05 22.39 13.1 26.6 12.01C28.3465 12.3192 30.0068 12.9976 31.47 14C33.47 14.77 35.07 16.49 36.15 19.15C37.3505 22.0653 38.0275 25.1695 38.15 28.32C38.02 28.32 37.96 28.38 37.96 28.5C38.22 29.1667 38.5367 32.1267 38.91 37.38C38.8843 37.3767 38.8582 37.3794 38.8336 37.3878C38.8091 37.3962 38.7868 37.4101 38.7685 37.4284C38.7501 37.4468 38.7362 37.4691 38.7278 37.4936C38.7194 37.5181 38.7168 37.5443 38.72 37.57C38.98 38.84 39.17 40.09 39.3 41.29C39.2739 41.287 39.2474 41.2898 39.2225 41.2982C39.1976 41.3065 39.1748 41.3202 39.1557 41.3383C39.1366 41.3565 39.1218 41.3785 39.1121 41.403C39.1025 41.4275 39.0984 41.4537 39.1 41.48C39.24 41.7081 39.3096 41.9725 39.3 42.24V44.63L39.49 45.63C39.36 45.63 39.3 45.75 39.3 46C36.0534 50 34.43 52.0367 34.43 52.11C33.488 54.9053 32.2404 57.5882 30.71 60.11C30.01 62.7033 29.2134 66.3333 28.32 71C28.39 71.26 28.51 72 28.71 73.1C28.5759 73.5682 28.5085 74.053 28.51 74.54V76L29.08 78.58C29.0736 81.2569 29.7627 83.8896 31.08 86.22C32.0427 87.5158 32.9052 88.8831 33.66 90.31C36.26 93.75 39.07 95.47 42.05 95.47C43.844 97.3765 45.9015 99.0164 48.16 100.34C48.0744 100.956 47.8102 101.533 47.4 102C46.442 103.709 45.1815 105.231 43.68 106.49C40.3635 110.897 38.2603 116.097 37.58 121.57L37.77 121.95C37.6535 122.887 37.4629 123.813 37.2 124.72L37.39 125.09C37.3841 125.357 37.3192 125.62 37.2 125.86L37.39 126.14C37.3836 126.764 37.32 127.387 37.2 128C37.2 128.393 37.39 130.367 37.77 133.92C38.54 138.31 39.1 140.72 39.49 141.18C41.01 146.64 42.5367 150.103 44.07 151.57V151.77C44.043 151.773 44.0156 151.77 43.9898 151.761C43.9641 151.752 43.9407 151.738 43.9215 151.719C43.9022 151.699 43.8876 151.676 43.8787 151.65C43.8698 151.624 43.8668 151.597 43.87 151.57C43.6966 151.587 43.5325 151.657 43.4 151.77C42.45 151.57 41.27 151.38 39.87 151.19C39.8733 151.216 39.8706 151.242 39.8622 151.266C39.8538 151.291 39.8399 151.313 39.8216 151.332C39.8032 151.35 39.7809 151.364 39.7564 151.372C39.7319 151.381 39.7057 151.383 39.68 151.38C38.91 151.26 38.54 151.13 38.54 151C34.46 150.68 30.27 149 25.94 146C21.74 141.893 18.94 138.507 17.54 135.84ZM89.77 148.24C89.6525 151.281 88.6054 154.213 86.77 156.64C80.7233 162.053 76.1433 164.757 73.03 164.75C71.8432 165.341 70.5913 165.79 69.3 166.09C63.1789 167.381 56.9535 168.114 50.7 168.28H49.84L49.45 168.47C49.45 168.34 49.45 168.28 49.26 168.28H48.5L47.35 168.47L42.4 167.9C42.4033 167.926 42.4006 167.952 42.3922 167.976C42.3838 168.001 42.3699 168.023 42.3516 168.042C42.3332 168.06 42.3109 168.074 42.2864 168.082C42.2619 168.091 42.2357 168.093 42.21 168.09C42.21 167.96 41.89 167.83 41.21 167.71C37.1821 167.412 33.24 166.396 29.57 164.71C25.49 162.87 22.5634 159.537 20.79 154.71V153.76C21.23 150.83 21.79 149.37 22.31 149.37C23.7047 151.036 25.3117 152.512 27.09 153.76C32.176 156.445 37.8389 157.852 43.59 157.86C43.59 157.73 43.72 157.67 43.98 157.67L44.36 157.86C45.82 157.35 47.51 156.68 49.36 155.86H49.75C53.8833 158.22 57.57 159.4 60.81 159.4C61.0173 159.392 61.2182 159.326 61.39 159.21C61.6261 159.329 61.8857 159.394 62.15 159.4C64.7227 159.353 67.282 159.017 69.78 158.4C71.9737 157.681 74.2034 157.077 76.46 156.59C81.46 154.43 83.9 153.18 83.9 152.86C86.0857 151.747 87.9331 150.069 89.25 148H89.63L89.77 148.24ZM106.85 95.48C106.824 95.4767 106.798 95.4794 106.774 95.4878C106.749 95.4962 106.727 95.5101 106.708 95.5284C106.69 95.5468 106.676 95.5691 106.668 95.5936C106.659 95.6181 106.657 95.6443 106.66 95.67V96.67C106.666 96.9375 106.731 97.2004 106.85 97.44L106.66 97.82C106.674 98.3646 106.738 98.9069 106.85 99.44C106.85 99.57 106.78 100.08 106.66 100.96C106.66 101.16 106.73 101.89 106.85 103.16C106.825 103.361 106.76 103.554 106.66 103.73C106.794 103.964 106.86 104.231 106.85 104.5V105C106.853 105.234 106.787 105.463 106.66 105.66C106.777 105.9 106.842 106.163 106.85 106.43V107.43L106.66 109.61C106.686 109.608 106.713 109.613 106.737 109.622C106.761 109.632 106.784 109.647 106.802 109.666C106.82 109.685 106.833 109.708 106.842 109.732C106.85 109.757 106.853 109.784 106.85 109.81C106.732 110.046 106.667 110.306 106.66 110.57L106.85 110.96H106.66C106.518 112.823 106.231 114.672 105.8 116.49C105.52 118.676 104.736 120.768 103.51 122.6C101.99 126.54 100.813 129.02 99.98 130.04C97.624 133.641 94.9066 136.991 91.87 140.04C89.9948 141.523 88.2394 143.151 86.62 144.91C83.5145 147.257 80.0723 149.121 76.41 150.44C69.99 153.053 64.4267 154.357 59.72 154.35L58.57 154C57.3269 153.977 56.1036 153.685 54.9847 153.143C53.8658 152.6 52.8781 151.822 52.09 150.86C51.13 150.86 49.3467 149.013 46.74 145.32C44.6553 141.818 43.2031 137.976 42.45 133.97H42.63C42.2864 132.402 42.0955 130.805 42.06 129.2V128C42.06 127.37 42.13 126.45 42.26 125.24C42.233 125.243 42.2056 125.24 42.1798 125.231C42.1541 125.222 42.1307 125.208 42.1115 125.189C42.0922 125.169 42.0776 125.146 42.0687 125.12C42.0598 125.094 42.0568 125.067 42.06 125.04C43.14 119.58 44.0634 116.247 44.83 115.04C47.31 109.18 50.3967 105.333 54.09 103.5C55.6016 104.017 57.1693 104.353 58.76 104.5C58.9343 104.397 59.1286 104.332 59.33 104.31C60.5538 104.563 61.8003 104.69 63.05 104.69H63.63C64.4896 104.676 65.3477 104.613 66.2 104.5C66.5081 104.658 66.8553 104.724 67.2 104.69C71.8664 103.5 75.9698 100.716 78.8 96.82V96.24C78.8 95.03 78.45 94.43 77.8 94.43C77.5983 94.4504 77.4036 94.5153 77.23 94.62C76.5004 95.4397 75.6257 96.1177 74.65 96.62C72.5167 97.7733 69.0333 98.5667 64.2 99C61.3821 98.7507 58.5809 98.34 55.81 97.77C51.6034 96.59 48.6433 94.84 46.93 92.52C44.45 89.66 43.21 86.7667 43.21 83.84L43.4 82.84C43.3743 82.8432 43.3482 82.8406 43.3236 82.8322C43.2991 82.8238 43.2768 82.8099 43.2585 82.7915C43.2401 82.7732 43.2262 82.7509 43.2178 82.7264C43.2094 82.7019 43.2068 82.6757 43.21 82.65C43.21 80.87 44.54 79.18 47.21 77.59C47.21 76.83 50.8767 76.1633 58.21 75.59C58.2068 75.6157 58.2094 75.6418 58.2178 75.6664C58.2262 75.6909 58.2401 75.7132 58.2585 75.7315C58.2768 75.7499 58.2991 75.7638 58.3236 75.7722C58.3482 75.7806 58.3743 75.7832 58.4 75.78H61.16L62.16 75.59C62.1568 75.6157 62.1594 75.6418 62.1678 75.6664C62.1762 75.6909 62.1901 75.7132 62.2085 75.7315C62.2268 75.7499 62.2491 75.7638 62.2736 75.7722C62.2982 75.7806 62.3243 75.7832 62.35 75.78L63.5 75.59C63.765 75.591 64.0258 75.6562 64.26 75.78C64.4553 75.6503 64.6857 75.584 64.92 75.59H65.69L66.69 75.78C66.69 75.65 66.75 75.59 66.87 75.59V75.78C70.95 75.65 76.19 75.4 82.62 75.02C82.8214 74.998 83.0157 74.9333 83.19 74.83C83.1868 74.8557 83.1894 74.8819 83.1978 74.9064C83.2062 74.9309 83.2201 74.9532 83.2385 74.9715C83.2568 74.9899 83.2791 75.0038 83.3036 75.0122C83.3282 75.0206 83.3543 75.0232 83.38 75.02H83.96C84.4432 75.0241 84.9246 74.9601 85.39 74.83C86.0119 74.9786 86.651 75.0425 87.29 75.02C92.51 75.85 96.51 77.41 99.29 79.69C101.57 81.47 103.93 85.07 106.29 90.48V91.48C106.285 92.0152 106.419 92.5425 106.68 93.01H106.49C106.523 93.6325 106.651 94.2463 106.87 94.83C106.845 94.827 106.82 94.8295 106.796 94.8373C106.773 94.8452 106.751 94.8582 106.733 94.8754C106.715 94.8925 106.7 94.9135 106.691 94.9368C106.682 94.9601 106.678 94.9851 106.68 95.01L106.85 95.48ZM109 73.25L108.81 73.63C108.825 73.802 108.891 73.9657 109 74.1H108.81C108.926 76.4056 108.731 78.7164 108.23 80.97L108.43 81.36L108.23 82.69C106.485 79.4324 104.006 76.6252 100.99 74.49V74.1C101.74 72.6219 102.131 70.9876 102.13 69.33C104.13 68.0633 105.13 66.57 105.13 64.85C105.13 64.72 105.06 64.12 104.94 63.04C104.969 62.6924 105.101 62.3614 105.32 62.09C105.3 61.8851 105.235 61.6871 105.13 61.51H105.32C105.32 61.1978 105.225 60.8931 105.046 60.6372C104.867 60.3813 104.613 60.1868 104.32 60.08H103.32C102.763 60.3856 102.276 60.8046 101.89 61.31H101.7C101.305 59.8351 100.793 58.3939 100.17 57C99.28 54.9 97.98 53.84 96.26 53.84C94.92 53.84 94.26 54.68 94.26 56.33C95.8467 61.37 96.8967 64.9267 97.41 67H97.21C97.2268 67.1765 97.2965 67.3438 97.41 67.48C97.1367 69.7333 97 71.3367 97 72.29H96.43L90 70.77C89.7998 70.7906 89.6058 70.8518 89.43 70.95C89.4317 70.925 89.4278 70.9001 89.4187 70.8768C89.4096 70.8535 89.3954 70.8325 89.3773 70.8154C89.3592 70.7982 89.3374 70.7852 89.3137 70.7774C89.29 70.7695 89.2648 70.767 89.24 70.77H88L87 71C87.0033 70.9756 87.0009 70.9507 86.9931 70.9274C86.9852 70.904 86.972 70.8828 86.9546 70.8654C86.9372 70.848 86.916 70.8348 86.8926 70.827C86.8693 70.8191 86.8444 70.8167 86.82 70.82C85.9506 70.8965 85.086 71.02 84.23 71.19V71L82.91 71.19H78.61L77.75 71C77.75 71.14 77.68 71.19 77.56 71.19C77.44 71.19 77.5 71 77.36 71H75.27L74 70.77C74 70.9 73.93 70.95 73.81 70.95C73.3716 70.8397 72.922 70.7793 72.47 70.77V69.53C72.4738 68.7294 72.4102 67.9299 72.28 67.14C72.4154 62.627 73.6255 58.2114 75.81 54.26C77.5287 50.7928 80.0068 47.7576 83.06 45.38C85.0007 43.9527 87.3318 43.1535 89.74 43.09H90.51C90.76 43.09 90.88 43.22 90.88 43.48C92.88 43.48 95.84 44.9733 99.76 47.96C102.487 50.7 104.107 52.8633 104.62 54.45C105.9 56.45 107.143 60.9033 108.35 67.81C108.244 67.9836 108.175 68.1779 108.15 68.38C108.41 68.57 108.6 69.5 108.73 71.14L108.54 72.14C108.54 72.4 108.66 72.53 108.92 72.53C108.923 72.5557 108.921 72.5818 108.912 72.6064C108.904 72.6309 108.89 72.6532 108.872 72.6715C108.853 72.6899 108.831 72.7038 108.806 72.7122C108.782 72.7206 108.756 72.7233 108.73 72.72C108.782 72.9137 108.874 73.0944 109 73.25Z" fill="#EAB50D"/>
<path d="M89.77 148.05V148.24C89.6525 151.281 88.6054 154.213 86.77 156.64C80.7233 162.053 76.1433 164.757 73.03 164.75C71.8432 165.341 70.5913 165.79 69.3 166.09C63.1789 167.381 56.9535 168.114 50.7 168.28H49.84L49.45 168.47C49.45 168.34 49.45 168.28 49.26 168.28H48.5L47.35 168.47L42.4 167.9C42.4033 167.926 42.4006 167.952 42.3922 167.976C42.3838 168.001 42.3699 168.023 42.3516 168.042C42.3332 168.06 42.3109 168.074 42.2864 168.082C42.2619 168.091 42.2357 168.093 42.21 168.09C42.21 167.96 41.89 167.83 41.21 167.71C37.1821 167.412 33.24 166.396 29.57 164.71C25.49 162.87 22.5633 159.537 20.79 154.71V153.76C21.23 150.83 21.79 149.37 22.31 149.37C23.7047 151.036 25.3117 152.512 27.09 153.76C32.176 156.445 37.8389 157.852 43.59 157.86C43.59 157.73 43.72 157.67 43.98 157.67L44.36 157.86C45.82 157.35 47.51 156.68 49.36 155.86H49.75C53.8833 158.22 57.57 159.4 60.81 159.4C61.0173 159.392 61.2182 159.326 61.39 159.21C61.6261 159.329 61.8857 159.394 62.15 159.4C64.7227 159.353 67.282 159.017 69.78 158.4C71.9737 157.681 74.2034 157.077 76.46 156.59C81.46 154.43 83.9 153.18 83.9 152.86C86.0857 151.747 87.9331 150.069 89.25 148L89.77 148.05Z" fill="#EB5612"/>
<path d="M106.66 95.67V96.67C106.666 96.9375 106.731 97.2004 106.85 97.44L106.66 97.82C106.674 98.3647 106.738 98.9069 106.85 99.44C106.85 99.57 106.78 100.08 106.66 100.96C106.66 101.16 106.73 101.89 106.85 103.16C106.825 103.361 106.76 103.554 106.66 103.73C106.794 103.964 106.86 104.231 106.85 104.5V105C106.853 105.234 106.787 105.463 106.66 105.66C106.777 105.9 106.842 106.163 106.85 106.43V107.43L106.66 109.61C106.686 109.608 106.713 109.613 106.737 109.622C106.761 109.632 106.784 109.647 106.802 109.666C106.82 109.685 106.833 109.708 106.842 109.732C106.85 109.757 106.853 109.784 106.85 109.81C106.732 110.046 106.667 110.306 106.66 110.57L106.85 110.96H106.66C106.518 112.823 106.231 114.672 105.8 116.49C105.52 118.676 104.736 120.768 103.51 122.6C101.99 126.54 100.813 129.02 99.98 130.04C97.624 133.641 94.9066 136.991 91.87 140.04C89.9948 141.523 88.2393 143.151 86.62 144.91C83.5145 147.257 80.0723 149.121 76.41 150.44C69.99 153.053 64.4267 154.357 59.72 154.35L58.57 154C57.3269 153.977 56.1035 153.685 54.9847 153.143C53.8658 152.601 52.8781 151.822 52.09 150.86C51.13 150.86 49.3467 149.013 46.74 145.32C44.6553 141.818 43.2031 137.976 42.45 133.97H42.63C42.2864 132.402 42.0955 130.805 42.06 129.2V128C42.06 127.37 42.13 126.45 42.26 125.24C42.233 125.243 42.2056 125.24 42.1798 125.231C42.1541 125.222 42.1307 125.208 42.1115 125.189C42.0922 125.169 42.0776 125.146 42.0687 125.12C42.0597 125.094 42.0568 125.067 42.06 125.04C43.14 119.58 44.0633 116.247 44.83 115.04C47.31 109.18 50.3967 105.333 54.09 103.5C55.6016 104.017 57.1692 104.353 58.76 104.5C58.9343 104.397 59.1286 104.332 59.33 104.31C60.5538 104.563 61.8003 104.69 63.05 104.69H63.63C64.4896 104.676 65.3477 104.613 66.2 104.5C66.5081 104.658 66.8553 104.724 67.2 104.69C71.8664 103.5 75.9698 100.716 78.8 96.82V96.24C78.8 95.03 78.45 94.43 77.8 94.43C77.5983 94.4504 77.4036 94.5153 77.23 94.62C76.5004 95.4397 75.6257 96.1177 74.65 96.62C72.5167 97.7734 69.0333 98.5667 64.2 99C61.3821 98.7507 58.5809 98.34 55.81 97.77C51.6033 96.59 48.6433 94.84 46.93 92.52C44.45 89.66 43.21 86.7667 43.21 83.84L43.4 82.84C43.3743 82.8433 43.3481 82.8406 43.3236 82.8322C43.2991 82.8238 43.2768 82.8099 43.2585 82.7916C43.2401 82.7732 43.2262 82.7509 43.2178 82.7264C43.2094 82.7019 43.2067 82.6757 43.21 82.65C43.21 80.87 44.54 79.18 47.21 77.59C47.21 76.83 50.8767 76.1633 58.21 75.59C58.2067 75.6157 58.2094 75.6419 58.2178 75.6664C58.2262 75.6909 58.2401 75.7132 58.2585 75.7316C58.2768 75.7499 58.2991 75.7638 58.3236 75.7722C58.3481 75.7806 58.3743 75.7833 58.4 75.78H61.16L62.16 75.59C62.1567 75.6157 62.1594 75.6419 62.1678 75.6664C62.1762 75.6909 62.1901 75.7132 62.2085 75.7316C62.2268 75.7499 62.2491 75.7638 62.2736 75.7722C62.2981 75.7806 62.3243 75.7833 62.35 75.78L63.5 75.59C63.765 75.591 64.0257 75.6562 64.26 75.78C64.4552 75.6503 64.6857 75.584 64.92 75.59H65.69L66.69 75.78C66.69 75.65 66.75 75.59 66.87 75.59V75.78C70.95 75.65 76.19 75.4 82.62 75.02C82.8214 74.9981 83.0157 74.9333 83.19 74.83C83.1867 74.8557 83.1894 74.8819 83.1978 74.9064C83.2062 74.9309 83.2201 74.9532 83.2385 74.9716C83.2568 74.9899 83.2791 75.0038 83.3036 75.0122C83.3281 75.0206 83.3543 75.0233 83.38 75.02H83.96C84.4432 75.0241 84.9246 74.9601 85.39 74.83C86.0119 74.9786 86.651 75.0425 87.29 75.02C92.51 75.85 96.51 77.41 99.29 79.69C101.57 81.47 103.93 85.07 106.29 90.48V91.48C106.285 92.0152 106.419 92.5426 106.68 93.01H106.49C106.523 93.6325 106.651 94.2463 106.87 94.83C106.845 94.827 106.82 94.8295 106.796 94.8374C106.773 94.8452 106.751 94.8582 106.733 94.8754C106.715 94.8926 106.7 94.9135 106.691 94.9368C106.682 94.9601 106.678 94.9851 106.68 95.01L106.87 95.4C106.852 95.3862 106.832 95.3761 106.81 95.3701C106.789 95.3642 106.766 95.3625 106.744 95.3653C106.722 95.3681 106.7 95.3752 106.68 95.3863C106.661 95.3974 106.644 95.4123 106.63 95.43C106.616 95.4477 106.606 95.468 106.6 95.4897C106.594 95.5113 106.593 95.5339 106.595 95.5562C106.598 95.5785 106.605 95.6 106.616 95.6196C106.627 95.6391 106.642 95.6562 106.66 95.67Z" fill="#EB5612"/>
<path d="M109 73.25L108.81 73.63C108.825 73.8021 108.891 73.9657 109 74.1H108.81C108.926 76.4057 108.731 78.7165 108.23 80.97L108.43 81.36L108.23 82.69C106.485 79.4325 104.006 76.6253 100.99 74.49V74.1C101.74 72.6219 102.131 70.9876 102.13 69.33C104.13 68.0634 105.13 66.57 105.13 64.85C105.13 64.72 105.06 64.12 104.94 63.04C104.969 62.6924 105.101 62.3615 105.32 62.09C105.3 61.8851 105.235 61.6872 105.13 61.51H105.32C105.32 61.1978 105.225 60.8931 105.046 60.6372C104.867 60.3814 104.613 60.1868 104.32 60.08H103.32C102.763 60.3856 102.276 60.8046 101.89 61.31H101.7C101.305 59.8351 100.793 58.3939 100.17 57C99.28 54.9 97.98 53.84 96.26 53.84C94.92 53.84 94.26 54.68 94.26 56.33C95.8467 61.37 96.8967 64.9267 97.41 67H97.21C97.2268 67.1765 97.2965 67.3438 97.41 67.48C97.1367 69.7334 97 71.3367 97 72.29H96.43L90 70.77C89.7997 70.7906 89.6058 70.8519 89.43 70.95C89.4317 70.9251 89.4278 70.9001 89.4187 70.8768C89.4096 70.8536 89.3954 70.8326 89.3773 70.8154C89.3591 70.7982 89.3374 70.7852 89.3137 70.7774C89.29 70.7695 89.2648 70.767 89.24 70.77H88L87 71C87.0033 70.9756 87.0009 70.9508 86.993 70.9274C86.9852 70.9041 86.972 70.8829 86.9546 70.8654C86.9372 70.848 86.916 70.8349 86.8926 70.827C86.8693 70.8191 86.8444 70.8167 86.82 70.82C85.9506 70.8965 85.086 71.0201 84.23 71.19V71L82.91 71.19H78.61L77.75 71C77.75 71.14 77.68 71.19 77.56 71.19C77.44 71.19 77.5 71 77.36 71H75.27L74 70.77C74 70.9 73.93 70.95 73.81 70.95C73.3715 70.8397 72.922 70.7793 72.47 70.77V69.53C72.4738 68.7294 72.4102 67.93 72.28 67.14C72.4154 62.627 73.6255 58.2114 75.81 54.26C77.5287 50.7929 80.0068 47.7576 83.06 45.38C85.0007 43.9527 87.3318 43.1536 89.74 43.09H90.51C90.76 43.09 90.88 43.22 90.88 43.48C92.88 43.48 95.84 44.9734 99.76 47.96C102.487 50.7 104.107 52.8634 104.62 54.45C105.9 56.45 107.143 60.9034 108.35 67.81C108.244 67.9836 108.175 68.1779 108.15 68.38C108.41 68.57 108.6 69.5 108.73 71.14L108.54 72.14C108.54 72.4 108.66 72.53 108.92 72.53C108.923 72.5558 108.921 72.5819 108.912 72.6064C108.904 72.631 108.89 72.6532 108.872 72.6716C108.853 72.6899 108.831 72.7038 108.806 72.7122C108.782 72.7206 108.756 72.7233 108.73 72.72C108.782 72.9138 108.874 73.0944 109 73.25Z" fill="#EB5612"/>
<path d="M76 44.05V44.24L73.42 46.34C71.8276 48.2158 70.4522 50.2655 69.32 52.45C67.5 57 66.59 60.84 66.59 63.9C66.71 63.9 66.77 63.96 66.77 64.09C66.6529 64.3263 66.5913 64.5863 66.59 64.85V66.37L66.77 66.76C66.65 66.76 66.59 66.82 66.59 66.95V68.57L67.16 70.57H66.4C65.8218 70.5764 65.2457 70.6401 64.68 70.76L64.39 70.57C64.1536 70.6881 63.8942 70.7529 63.63 70.76H58.38L58 71V70.82L57.14 71H56C55.74 71 55.29 69.23 54.66 65.66C54.7944 65.4299 54.8603 65.1663 54.85 64.9V63.42L55 61.51C54.87 61.51 54.81 61.45 54.81 61.31C54.81 61.17 55.06 61.13 55.19 60.75C55.1696 60.5483 55.1047 60.3536 55 60.18C55.5722 57.9507 56.3385 55.7757 57.29 53.68C58.31 51.4 60.41 48.8234 63.59 45.95C67.46 44.05 70.42 43.09 72.46 43.09L76 44.05Z" fill="#EB5612"/>
<path d="M49.7 65.61C49.8509 67.6912 50.2676 69.7446 50.94 71.72C45.4 73.5666 41.6467 76.11 39.68 79.35C38.68 80.5 37.83 82.91 37.2 86.6H37C34.6467 83.1733 33.4733 78.7233 33.48 73.25C33.7029 72.3763 33.8303 71.4811 33.86 70.58C35.0667 64.34 36.2433 60.5233 37.39 59.13L37.2 58.74C37.8886 57.9401 38.406 57.0076 38.72 56C40.664 52.6526 43.2623 49.7312 46.36 47.41C48.6554 45.7981 51.3083 44.7686 54.09 44.41C54.09 44.54 54.15 44.6 54.27 44.6L54.66 44.41C54.66 44.6 55.54 44.79 57.33 44.98C52.2433 52.1266 49.7 59.0033 49.7 65.61Z" fill="#EB5612"/>
<path d="M48.17 100.35C48.0796 100.963 47.812 101.537 47.4 102C46.4419 103.709 45.1815 105.231 43.68 106.49C40.3635 110.897 38.2602 116.097 37.58 121.57L37.77 121.95C37.6535 122.887 37.4629 123.813 37.2 124.72L37.39 125.09C37.384 125.358 37.3192 125.62 37.2 125.86L37.39 126.14C37.3836 126.765 37.32 127.387 37.2 128C37.2 128.393 37.39 130.367 37.77 133.92C38.54 138.31 39.1 140.72 39.49 141.18C41.01 146.64 42.5366 150.103 44.07 151.57V151.77C44.0429 151.773 44.0155 151.77 43.9898 151.761C43.9641 151.752 43.9407 151.738 43.9214 151.719C43.9022 151.699 43.8876 151.676 43.8786 151.65C43.8697 151.624 43.8668 151.597 43.87 151.57C43.6965 151.587 43.5324 151.657 43.4 151.77C42.45 151.57 41.27 151.38 39.87 151.19C39.8732 151.216 39.8706 151.242 39.8622 151.266C39.8538 151.291 39.8399 151.313 39.8215 151.332C39.8032 151.35 39.7809 151.364 39.7564 151.372C39.7318 151.381 39.7057 151.383 39.68 151.38C38.91 151.26 38.54 151.13 38.54 151C34.46 150.68 30.27 149 25.94 146C21.74 141.86 18.94 138.457 17.54 135.79C14.8074 130.147 13.1556 124.041 12.67 117.79C12.8282 117.482 12.8942 117.135 12.86 116.79V116.41L12.67 116.03C12.6957 116.033 12.7218 116.031 12.7464 116.022C12.7709 116.014 12.7932 116 12.8115 115.982C12.8299 115.963 12.8438 115.941 12.8522 115.916C12.8606 115.892 12.8632 115.866 12.86 115.84L12.67 115.45H12.86L12.67 114.59L12.86 113.45C12.7598 113.274 12.6953 113.081 12.67 112.88C12.7381 112.012 12.8684 111.15 13.06 110.3C12.93 110.3 12.86 110.24 12.86 110.11C13.5266 105.15 14.2266 100.57 14.96 96.37C14.9343 96.3733 14.9081 96.3706 14.8836 96.3622C14.8591 96.3538 14.8368 96.3399 14.8184 96.3216C14.8001 96.3032 14.7862 96.2809 14.7778 96.2564C14.7694 96.2319 14.7667 96.2057 14.77 96.18C15.1769 95.3052 15.4371 94.3693 15.54 93.41L15.35 93.03C15.71 92.2372 15.9299 91.3879 16 90.52C15.94 90.52 15.91 90.45 15.91 90.32C16.2986 88.68 16.5197 87.0047 16.57 85.32C16.45 85.32 16.39 85.26 16.39 85.13C16.4356 84.6322 16.564 84.1455 16.77 83.69L16.57 83.32L17 80.88L16.81 80.5L17 79.35V77.35C17.0145 76.6464 17.078 75.9448 17.19 75.25C17.0344 74.941 16.9686 74.5946 17 74.25L17.19 73.39C17.1643 73.3933 17.1381 73.3906 17.1136 73.3822C17.0891 73.3738 17.0668 73.3599 17.0484 73.3416C17.0301 73.3232 17.0162 73.3009 17.0078 73.2764C16.9994 73.2519 16.9967 73.2257 17 73.2H17.19L17 71.91V70.09L16.81 69.72H17C16.9731 69.1417 16.8995 68.5665 16.78 68C16.8773 67.8231 16.9416 67.6299 16.97 67.43L16.78 67.14C16.8037 67.1475 16.8287 67.1498 16.8534 67.1465C16.8781 67.1433 16.9017 67.1347 16.9227 67.1214C16.9437 67.1081 16.9615 67.0903 16.9748 67.0693C16.9882 67.0483 16.9968 67.0247 17 67V66.62C17.0412 66.3439 16.9887 66.0619 16.8509 65.819C16.7132 65.5762 16.4981 65.3864 16.24 65.28C15.9092 59.7323 15.2951 54.205 14.4 48.72H14.58C14.2563 47.2465 14.0623 45.7474 14 44.24C14.0257 44.2433 14.0518 44.2406 14.0764 44.2322C14.1009 44.2238 14.1232 44.2099 14.1415 44.1916C14.1599 44.1732 14.1738 44.1509 14.1822 44.1264C14.1906 44.1019 14.1932 44.0757 14.19 44.05C14.0093 43.6552 13.8815 43.2383 13.81 42.81C13.8113 42.6016 13.8778 42.3988 14 42.23C13.8762 41.9957 13.811 41.735 13.81 41.47V39.57L13.62 38.71C13.75 38.71 13.81 38.51 13.81 38.13V37.56C13.834 37.2159 13.7685 36.8714 13.62 36.56C13.6557 31.3996 14.7268 26.2989 16.77 21.56C17.7167 17.9333 18.8933 15.7033 20.3 14.87C20.3 14.05 22.39 13.1 26.6 12.01C28.3464 12.3192 30.0068 12.9976 31.47 14C33.47 14.77 35.07 16.49 36.15 19.15C37.3505 22.0654 38.0275 25.1695 38.15 28.32C38.02 28.32 37.96 28.38 37.96 28.5C38.22 29.1667 38.5366 32.1267 38.91 37.38C38.8843 37.3768 38.8581 37.3794 38.8336 37.3878C38.8091 37.3962 38.7868 37.4101 38.7684 37.4285C38.7501 37.4468 38.7362 37.4691 38.7278 37.4936C38.7194 37.5182 38.7167 37.5443 38.72 37.57C38.98 38.84 39.17 40.09 39.3 41.29C39.2739 41.287 39.2474 41.2898 39.2225 41.2982C39.1975 41.3065 39.1747 41.3202 39.1557 41.3384C39.1366 41.3565 39.1217 41.3785 39.1121 41.403C39.1025 41.4275 39.0984 41.4538 39.1 41.48C39.24 41.7081 39.3096 41.9725 39.3 42.24V44.63L39.49 45.63C39.36 45.63 39.3 45.75 39.3 46C36.0533 50 34.43 52.0367 34.43 52.11C33.4879 54.9054 32.2404 57.5882 30.71 60.11C30.01 62.7033 29.2133 66.3333 28.32 71C28.39 71.26 28.51 72 28.71 73.1C28.5758 73.5682 28.5085 74.053 28.51 74.54V76L29.08 78.58C29.0735 81.2569 29.7627 83.8896 31.08 86.22C32.0427 87.5158 32.9052 88.8831 33.66 90.31C36.26 93.75 39.07 95.47 42.05 95.47C43.8463 97.3808 45.9073 99.0242 48.17 100.35Z" fill="#EB5612"/>
<path d="M141.8 154.35H136.63V72.83H141.8V154.35Z" fill="#EAB50D"/>
<path d="M159.64 154.35H154.48V72.83H161.31C163.121 72.8327 164.856 73.5531 166.137 74.8334C167.417 76.1137 168.137 77.8494 168.14 79.66V111.91C168.137 113.721 167.417 115.456 166.137 116.737C164.856 118.017 163.121 118.737 161.31 118.74H159.64V154.35ZM161.31 114C161.753 114 162.178 113.824 162.491 113.511C162.804 113.198 162.98 112.773 162.98 112.33V79.22C162.98 78.7771 162.804 78.3523 162.491 78.0391C162.178 77.726 161.753 77.55 161.31 77.55H159.64V114H161.31Z" fill="#EAB50D"/>
<path d="M185.18 109.24C185.181 110.782 184.655 112.278 183.69 113.48C184.655 114.686 185.18 116.185 185.18 117.73V154.35H180V117.62C180 117.177 179.824 116.752 179.511 116.439C179.198 116.126 178.773 115.95 178.33 115.95H176.66V154.35H171.5V72.83H178.33C180.141 72.8327 181.876 73.5531 183.157 74.8334C184.437 76.1137 185.157 77.8494 185.16 79.66L185.18 109.24ZM180.02 79.24C180.02 79.0212 179.977 78.8045 179.893 78.6024C179.809 78.4004 179.685 78.2169 179.53 78.0627C179.375 77.9084 179.191 77.7863 178.988 77.7035C178.786 77.6207 178.569 77.5787 178.35 77.58H176.68V111.25H178.35C178.793 111.25 179.218 111.074 179.531 110.761C179.844 110.448 180.02 110.023 180.02 109.58V79.24Z" fill="#EAB50D"/>
<path d="M202.22 79.23V148C202.22 149.811 201.5 151.549 200.22 152.83C198.939 154.11 197.201 154.83 195.39 154.83C193.579 154.83 191.841 154.11 190.56 152.83C189.28 151.549 188.56 149.811 188.56 148V79.23C188.56 77.4186 189.28 75.6814 190.56 74.4005C191.841 73.1196 193.579 72.4 195.39 72.4C197.201 72.4 198.939 73.1196 200.22 74.4005C201.5 75.6814 202.22 77.4186 202.22 79.23ZM197.06 78.79C197.06 78.3471 196.884 77.9223 196.571 77.6092C196.258 77.296 195.833 77.12 195.39 77.12C194.947 77.12 194.522 77.296 194.209 77.6092C193.896 77.9223 193.72 78.3471 193.72 78.79V148.4C193.72 148.843 193.896 149.268 194.209 149.581C194.522 149.894 194.947 150.07 195.39 150.07C195.833 150.07 196.258 149.894 196.571 149.581C196.884 149.268 197.06 148.843 197.06 148.4V78.79Z" fill="#EAB50D"/>
<path d="M220.92 72.4C222.731 72.4 224.469 73.1196 225.75 74.4005C227.03 75.6814 227.75 77.4186 227.75 79.23V154.35H222.59V78.79C222.608 78.5605 222.578 78.3298 222.502 78.1124C222.427 77.895 222.307 77.6955 222.151 77.5266C221.994 77.3577 221.805 77.2229 221.594 77.1307C221.383 77.0385 221.155 76.9909 220.925 76.9909C220.695 76.9909 220.467 77.0385 220.256 77.1307C220.045 77.2229 219.856 77.3577 219.699 77.5266C219.543 77.6955 219.423 77.895 219.348 78.1124C219.272 78.3298 219.242 78.5605 219.26 78.79V154.35H214.1V78.79C214.1 78.3471 213.924 77.9223 213.611 77.6092C213.298 77.296 212.873 77.12 212.43 77.12C211.987 77.12 211.562 77.296 211.249 77.6092C210.936 77.9223 210.76 78.3471 210.76 78.79V154.35H205.6V79.23C205.597 77.9442 205.958 76.6838 206.641 75.5943C207.324 74.5047 208.301 73.6304 209.459 73.0722C210.617 72.5139 211.91 72.2945 213.187 72.4392C214.465 72.5839 215.676 73.0869 216.68 73.89C217.882 72.9251 219.378 72.3994 220.92 72.4Z" fill="#EAB50D"/>
<path d="M236.21 154.35H231V72.83H236.17L236.21 154.35Z" fill="#EAB50D"/>
<path d="M248.06 78.78C248.06 78.3371 247.884 77.9123 247.571 77.5991C247.258 77.286 246.833 77.11 246.39 77.11C245.947 77.11 245.522 77.286 245.209 77.5991C244.896 77.9123 244.72 78.3371 244.72 78.78V109.56C244.72 110.003 244.896 110.428 245.209 110.741C245.522 111.054 245.947 111.23 246.39 111.23C248.201 111.23 249.939 111.95 251.22 113.23C252.5 114.511 253.22 116.249 253.22 118.06V148C253.22 149.811 252.5 151.549 251.22 152.83C249.939 154.11 248.201 154.83 246.39 154.83C244.579 154.83 242.841 154.11 241.56 152.83C240.28 151.549 239.56 149.811 239.56 148V117.75H244.72V148.4C244.72 148.843 244.896 149.268 245.209 149.581C245.522 149.894 245.947 150.07 246.39 150.07C246.833 150.07 247.258 149.894 247.571 149.581C247.884 149.268 248.06 148.843 248.06 148.4V117.62C248.06 117.177 247.884 116.752 247.571 116.439C247.258 116.126 246.833 115.95 246.39 115.95C244.579 115.95 242.841 115.23 241.56 113.95C240.28 112.669 239.56 110.931 239.56 109.12V79.22C239.56 77.4086 240.28 75.6713 241.56 74.3905C242.841 73.1096 244.579 72.39 246.39 72.39C248.201 72.39 249.939 73.1096 251.22 74.3905C252.5 75.6713 253.22 77.4086 253.22 79.22V109.44H248.06V78.78Z" fill="#EAB50D"/>
<path d="M261.76 149.63H265.09V119.28H270.26V154.35H256.6V72.83H270.26V107.9H265.09V77.56H261.76V111.23H270.26V116H261.76V149.63Z" fill="#EAB50D"/>
</g>
<defs>
<clipPath id="clip0_0_9928">
<rect width="317.3" height="180.35" fill="white"/>
</clipPath>
</defs>
</svg>
