<svg width="206" height="104" viewBox="0 0 206 104" fill="none" xmlns="http://www.w3.org/2000/svg">
<g clip-path="url(#clip0_0_9952)">
<path d="M205.43 9.79002V93.5C205.43 94.7852 205.177 96.0578 204.685 97.245C204.192 98.4322 203.471 99.5108 202.562 100.419C201.653 101.327 200.573 102.048 199.386 102.538C198.198 103.029 196.925 103.281 195.64 103.28H142.78C140.888 103.303 139.028 102.786 137.419 101.789C135.811 100.791 134.52 99.3555 133.7 97.65C129.81 89.23 117.41 83.07 102.7 83.07C87.99 83.07 75.61 89.23 71.7 97.65C70.8795 99.3555 69.5892 100.791 67.9807 101.789C66.3722 102.786 64.5124 103.303 62.62 103.28H9.79C8.50483 103.281 7.232 103.029 6.04428 102.538C4.85657 102.048 3.77725 101.327 2.86803 100.419C1.95881 99.5108 1.23753 98.4322 0.745414 97.245C0.253298 96.0578 -6.71819e-07 94.7852 0 93.5L0 9.79002C0 7.19356 1.03144 4.70343 2.86742 2.86745C4.70341 1.03147 7.19353 2.46296e-05 9.79 2.46296e-05H62.65C64.5424 -0.0233291 66.4022 0.494071 68.0107 1.4914C69.6192 2.48873 70.9095 3.92454 71.73 5.63002C75.62 14.06 88.02 20.21 102.73 20.21C117.44 20.21 129.83 14.06 133.73 5.63002C134.548 3.92919 135.834 2.49651 137.437 1.4995C139.039 0.502502 140.893 -0.0175987 142.78 2.46296e-05H195.64C196.926 2.46296e-05 198.199 0.25325 199.386 0.745244C200.574 1.23724 201.653 1.95836 202.563 2.86745C203.472 3.77653 204.193 4.85578 204.685 6.04355C205.177 7.23133 205.43 8.50438 205.43 9.79002Z" fill="#4070D9"/>
<path d="M119.58 47C119.171 45.5369 118.576 44.1322 117.81 42.82C117.06 41.5275 116.146 40.3375 115.09 39.28C112.946 37.1416 110.287 35.5918 107.37 34.78C104.322 33.9536 101.108 33.9536 98.06 34.78C96.5976 35.1913 95.1931 35.786 93.88 36.55C92.5924 37.3068 91.4063 38.2242 90.35 39.28C88.1717 41.4679 86.6087 44.1915 85.8186 47.1761C85.0286 50.1608 85.0394 53.3009 85.85 56.28C86.6663 59.1954 88.2155 61.8531 90.35 64C91.4089 65.0529 92.5946 65.97 93.88 66.73C95.1954 67.4868 96.5994 68.078 98.06 68.49C101.108 69.3165 104.322 69.3165 107.37 68.49C110.289 67.6875 112.949 66.1403 115.09 64C116.148 62.941 117.063 61.7475 117.81 60.45C118.579 59.1397 119.174 57.7345 119.58 56.27C120.407 53.2251 120.407 50.0149 119.58 46.97V47ZM107.73 46C107.724 45.7527 107.772 45.5071 107.87 45.28C107.964 45.0589 108.096 44.8559 108.26 44.68C108.421 44.4985 108.624 44.3579 108.85 44.27C109.082 44.1628 109.335 44.1114 109.59 44.12C109.841 44.1158 110.091 44.167 110.32 44.27C110.545 44.3615 110.749 44.4976 110.92 44.67C111.088 44.8424 111.221 45.0463 111.31 45.27C111.411 45.5 111.462 45.7488 111.46 46V48.48C111.463 48.7346 111.412 48.9869 111.31 49.22C111.218 49.4394 111.086 49.6395 110.92 49.81C110.746 49.9786 110.543 50.1142 110.32 50.21C110.089 50.3085 109.841 50.3595 109.59 50.36C109.335 50.3635 109.083 50.3124 108.85 50.21C108.624 50.1221 108.421 49.9816 108.26 49.8C108.096 49.6242 107.964 49.4212 107.87 49.2C107.772 48.973 107.724 48.7273 107.73 48.48V46ZM94 46C93.9976 45.7488 94.0488 45.5 94.15 45.27C94.2353 45.0419 94.3722 44.8365 94.55 44.67C94.7119 44.4915 94.9142 44.3544 95.14 44.27C95.3706 44.171 95.619 44.1199 95.87 44.1199C96.121 44.1199 96.3694 44.171 96.6 44.27C96.8254 44.3652 97.0294 44.5046 97.2 44.68C97.3732 44.8524 97.5123 45.056 97.61 45.28C97.7082 45.5071 97.756 45.7527 97.75 46V48.48C97.756 48.7273 97.7082 48.973 97.61 49.2C97.5123 49.4241 97.3732 49.6276 97.2 49.8C97.0294 49.9754 96.8254 50.1149 96.6 50.21C96.3694 50.3091 96.121 50.3602 95.87 50.3602C95.619 50.3602 95.3706 50.3091 95.14 50.21C94.6898 50.0187 94.3314 49.6602 94.14 49.21C94.0377 48.9769 93.9865 48.7246 93.99 48.47L94 46ZM113.62 61.08C113.507 61.1991 113.37 61.2935 113.219 61.3571C113.067 61.4208 112.904 61.4525 112.74 61.45C112.512 61.4648 112.287 61.4013 112.1 61.27C111.924 61.1228 111.766 60.955 111.63 60.77C111.411 60.4872 111.217 60.1861 111.05 59.87C110.88 59.554 110.679 59.2558 110.45 58.98C109.993 58.4121 109.47 57.9017 108.89 57.46C108.297 57.0304 107.664 56.6587 107 56.35C104.997 55.4097 102.74 55.16 100.58 55.64C99.1267 55.9547 97.7609 56.5864 96.58 57.49C95.9962 57.9299 95.4659 58.4367 95 59C94.7707 59.2781 94.5666 59.5759 94.39 59.89C94.219 60.2016 94.0286 60.5022 93.82 60.79C93.6953 60.9809 93.5398 61.1498 93.36 61.29C93.1707 61.4235 92.941 61.4871 92.71 61.47C92.3793 61.4674 92.0629 61.3349 91.829 61.101C91.5951 60.8672 91.4626 60.5508 91.46 60.22C91.4496 60.1203 91.4496 60.0198 91.46 59.92C91.4914 59.8247 91.5281 59.7312 91.57 59.64C92.051 58.6041 92.6998 57.6547 93.49 56.83C94.2743 56.0009 95.1695 55.2841 96.15 54.7C97.1404 54.122 98.1984 53.6686 99.3 53.35C101.503 52.7235 103.837 52.7235 106.04 53.35C107.146 53.6648 108.208 54.1184 109.2 54.7C110.182 55.2866 111.08 56.0031 111.87 56.83C112.657 57.6573 113.305 58.6062 113.79 59.64C113.79 59.74 113.86 59.84 113.89 59.92C113.905 60.0195 113.905 60.1206 113.89 60.22C113.902 60.3809 113.882 60.5427 113.831 60.6956C113.779 60.8485 113.697 60.9895 113.59 61.11L113.62 61.08Z" fill="#F5F5F5"/>
<path d="M34.46 41.6C35.2717 41.8957 35.9851 42.4117 36.52 43.09C36.9893 43.7192 37.2387 44.4852 37.23 45.27C37.2228 45.7096 37.1452 46.1451 37 46.56C36.4933 48.36 35.0067 49.5 32.54 49.98C33.3123 50.1917 34.0069 50.6224 34.54 51.22C35.0468 51.8196 35.314 52.5854 35.29 53.37C35.2799 53.8445 35.2059 54.3154 35.07 54.77C34.9065 55.4168 34.6129 56.0235 34.2072 56.5531C33.8014 57.0826 33.292 57.5239 32.71 57.85C31.1524 58.5939 29.4339 58.9376 27.71 58.85H16.61C16.3085 58.8628 16.0088 58.7973 15.74 58.66C15.6495 58.609 15.5741 58.5349 15.5215 58.4454C15.4688 58.3558 15.4407 58.2539 15.44 58.15C15.4398 58.0288 15.4672 57.9091 15.52 57.8C15.5828 57.6178 15.7019 57.4602 15.86 57.35L16.16 57.16C16.4129 57.0075 16.6449 56.8226 16.85 56.61C17.0726 56.3432 17.2301 56.0282 17.31 55.69L20.57 44.17C20.6382 43.953 20.6753 43.7275 20.68 43.5C20.6867 43.3278 20.6524 43.1565 20.58 43C20.506 42.8386 20.4225 42.6817 20.33 42.53C20.1969 42.3709 20.1135 42.1762 20.09 41.97C20.0992 41.8722 20.1159 41.7753 20.14 41.68C20.175 41.5664 20.2356 41.4622 20.3171 41.3756C20.3985 41.2889 20.4987 41.222 20.61 41.18C20.9696 41.0717 21.3448 41.0244 21.72 41.04H31.29C32.3731 41.0175 33.4501 41.2078 34.46 41.6ZM28.33 52.6C28.33 51.6 27.77 51.15 26.67 51.15H25.33L23.81 56.42H25.17C25.8257 56.4578 26.4738 56.2631 27 55.87C27.5653 55.3026 27.9543 54.5837 28.12 53.8C28.2421 53.4212 28.3128 53.0277 28.33 52.63V52.6ZM30.33 44.81C30.33 43.89 29.8 43.42 28.75 43.42H27.5L26.08 48.42H27.26C27.8817 48.4582 28.4973 48.2778 29 47.91C29.5418 47.3618 29.9105 46.6662 30.06 45.91C30.189 45.5671 30.2633 45.206 30.28 44.84L30.33 44.81Z" fill="#F5F5F5"/>
<path d="M51 45.85C51.5928 46.2043 52.0776 46.7139 52.4019 47.3237C52.7262 47.9336 52.8777 48.6204 52.84 49.31C52.8282 49.9884 52.7205 50.6618 52.52 51.31L51.38 55C51.3687 55.0863 51.3687 55.1737 51.38 55.26C51.38 55.55 51.5 55.69 51.73 55.69C51.837 55.6885 51.9422 55.6624 52.0375 55.6139C52.1329 55.5654 52.2158 55.4956 52.28 55.41C52.43 55.22 52.53 55.13 52.58 55.13C52.63 55.13 52.75 55.19 52.81 55.32C52.8724 55.4511 52.9032 55.5949 52.9 55.74C52.9016 56.2818 52.7101 56.8065 52.36 57.22C51.916 57.7574 51.3583 58.1895 50.7272 58.4852C50.096 58.7809 49.407 58.9328 48.71 58.93C47.8871 58.9546 47.0705 58.7796 46.33 58.42C45.6986 58.1132 45.2085 57.5765 44.96 56.92C44.4291 57.5599 43.7586 58.0697 43 58.41C42.267 58.7627 41.4634 58.944 40.65 58.94C39.8225 58.9655 39.0025 58.776 38.27 58.39C37.6836 58.0652 37.199 57.584 36.87 57C36.563 56.4388 36.4014 55.8097 36.4 55.17C36.4009 54.8915 36.4276 54.6136 36.48 54.34C36.5918 53.777 36.8136 53.2416 37.1328 52.7646C37.452 52.2875 37.8622 51.8782 38.34 51.56C39.3564 50.9111 40.5447 50.5836 41.75 50.62C43.2314 50.6188 44.7034 50.8552 46.11 51.32L46.78 49.55C46.9742 48.9922 47.0887 48.4098 47.12 47.82C47.1303 47.6324 47.0979 47.4449 47.0251 47.2717C46.9524 47.0984 46.8412 46.944 46.7 46.82C46.3357 46.5825 45.9039 46.4701 45.47 46.5C45.5722 46.7823 45.6263 47.0798 45.63 47.38C45.631 47.703 45.5649 48.0228 45.4358 48.3189C45.3067 48.615 45.1174 48.881 44.88 49.1C44.2876 49.6095 43.5199 49.8679 42.74 49.82C42.0107 49.8641 41.2881 49.6596 40.69 49.24C40.4698 49.0735 40.2924 48.857 40.1724 48.6083C40.0524 48.3597 39.9933 48.086 40 47.81C40.0217 47.3378 40.1732 46.8808 40.4378 46.4891C40.7025 46.0974 41.07 45.7863 41.5 45.59C42.9017 44.9216 44.4498 44.6189 46 44.71C47.7407 44.6128 49.4735 45.0079 51 45.85ZM43.36 53.39C43.0654 53.7363 42.9025 54.1754 42.9 54.63C42.8853 54.8793 42.9558 55.1262 43.1 55.33C43.1672 55.4159 43.2541 55.4843 43.3533 55.5296C43.4525 55.5748 43.5611 55.5956 43.67 55.59C43.946 55.5767 44.2113 55.4789 44.43 55.31C44.7244 55.1091 44.94 54.8122 45.04 54.47L45.6 52.89C45.2693 52.8372 44.9349 52.8105 44.6 52.81C44.3539 52.7932 44.1074 52.8373 43.8823 52.9384C43.6573 53.0396 43.4607 53.1947 43.31 53.39H43.36Z" fill="#F5F5F5"/>
<path d="M68.06 55.3C68.0581 55.3533 68.0669 55.4063 68.0858 55.4561C68.1046 55.5059 68.1333 55.5514 68.17 55.59C68.2036 55.6278 68.2454 55.6574 68.2922 55.6765C68.339 55.6955 68.3896 55.7036 68.44 55.7C68.547 55.6985 68.6522 55.6724 68.7475 55.6239C68.8429 55.5754 68.9258 55.5056 68.99 55.42C69.14 55.23 69.24 55.14 69.29 55.14C69.34 55.14 69.45 55.2 69.51 55.33C69.5644 55.4633 69.5916 55.6061 69.59 55.75C69.5717 56.297 69.363 56.8204 69 57.23C68.5847 57.7471 68.0584 58.164 67.46 58.45C66.8162 58.7784 66.1027 58.9465 65.38 58.94C64.5736 58.9605 63.7742 58.7855 63.05 58.43C62.4538 58.1528 61.9703 57.68 61.68 57.09C61.2642 57.6634 60.7185 58.13 60.0875 58.4515C59.4565 58.7731 58.7582 58.9405 58.05 58.94C57.2305 58.9477 56.4245 58.7309 55.7194 58.3131C55.0143 57.8953 54.4369 57.2925 54.05 56.57C53.6479 55.7749 53.4551 54.8904 53.49 54C53.483 52.4235 53.7959 50.862 54.41 49.41C54.9716 48.0533 55.8616 46.8575 57 45.93C58.0615 45.0577 59.3961 44.5869 60.77 44.6C61.4468 44.5827 62.122 44.6738 62.77 44.87C63.3064 45.0479 63.8074 45.3187 64.25 45.67L65.16 42.67C65.2099 42.5424 65.237 42.407 65.24 42.27C65.2484 42.0973 65.1953 41.9272 65.09 41.79C64.9816 41.6463 64.8537 41.5184 64.71 41.41C64.5664 41.3018 64.4356 41.1777 64.32 41.04C64.2866 40.9733 64.2692 40.8997 64.2692 40.825C64.2692 40.7504 64.2866 40.6768 64.32 40.61C64.43 40.2 64.99 39.84 66 39.54C67.0357 39.2341 68.1101 39.0792 69.19 39.08C69.9944 39.0186 70.7964 39.2261 71.47 39.67C71.7088 39.8635 71.8997 40.1094 72.028 40.3886C72.1564 40.6678 72.2186 40.9728 72.21 41.28C72.2062 41.6708 72.1421 42.0587 72.02 42.43L68.12 55C68.0884 55.0974 68.0683 55.198 68.06 55.3ZM62.71 47.12C62.2 47.12 61.71 47.5 61.19 48.27C60.6512 49.1292 60.2497 50.0671 60 51.05C59.7067 52.0058 59.5584 53.0002 59.56 54C59.56 54.98 59.8933 55.47 60.56 55.47C60.6732 55.4716 60.7853 55.4472 60.8876 55.3986C60.9899 55.3501 61.0796 55.2787 61.15 55.19C61.3534 54.9125 61.5058 54.601 61.6 54.27L63.69 47.5C63.4263 47.249 63.074 47.1125 62.71 47.12Z" fill="#F5F5F5"/>
<path d="M154.72 40.17C155.531 40.4726 156.243 40.9914 156.78 41.67C157.251 42.2985 157.5 43.065 157.49 43.85C157.491 44.2838 157.427 44.7152 157.3 45.13C156.78 46.93 155.29 48.0734 152.83 48.56C153.603 48.7707 154.298 49.2015 154.83 49.8C155.329 50.4033 155.592 51.1674 155.57 51.95C155.559 52.4204 155.488 52.8874 155.36 53.34C155.198 53.9886 154.905 54.5973 154.499 55.1286C154.093 55.6599 153.583 56.1028 153 56.43C151.443 57.1755 149.724 57.5193 148 57.43H136.87C136.569 57.4454 136.27 57.3834 136 57.25C135.908 57.1995 135.831 57.1258 135.777 57.0363C135.723 56.9468 135.693 56.8447 135.69 56.74C135.695 56.6195 135.722 56.5009 135.77 56.39C135.831 56.2038 135.954 56.0447 136.12 55.94L136.41 55.75C136.666 55.5974 136.901 55.4126 137.11 55.2C137.331 54.9335 137.485 54.6181 137.56 54.28L140.83 42.75C140.897 42.533 140.93 42.3071 140.93 42.08C140.935 41.9122 140.904 41.7452 140.84 41.59C140.78 41.46 140.69 41.3 140.59 41.12C140.459 40.9597 140.376 40.7656 140.35 40.56C140.354 40.4616 140.371 40.3641 140.4 40.27C140.434 40.1557 140.494 40.0508 140.575 39.964C140.657 39.8771 140.758 39.8107 140.87 39.77C141.228 39.6524 141.604 39.6015 141.98 39.62H151.55C152.632 39.6001 153.708 39.7868 154.72 40.17ZM148.58 51.17C148.58 50.17 148.03 49.73 146.92 49.73H145.59L144.06 55H145.43C146.093 55.0343 146.746 54.8284 147.27 54.42C148.062 53.5161 148.524 52.3704 148.58 51.17ZM150.53 43.39C150.53 42.46 150.01 42 148.96 42H147.75L146.34 47H147.51C148.15 47.0364 148.782 46.8411 149.29 46.45C149.834 45.9032 150.203 45.207 150.35 44.45C150.458 44.1167 150.518 43.7701 150.53 43.42V43.39Z" fill="#F5F5F5"/>
<path d="M171.2 44.42C171.795 44.7755 172.281 45.2865 172.607 45.8979C172.933 46.5094 173.086 47.1981 173.05 47.89C173.034 48.5681 172.926 49.2409 172.73 49.89L171.63 53.58C171.618 53.6697 171.618 53.7604 171.63 53.85C171.63 54.14 171.74 54.28 171.97 54.28C172.077 54.2785 172.182 54.2525 172.278 54.2039C172.373 54.1554 172.456 54.0856 172.52 54C172.67 53.81 172.78 53.72 172.83 53.72C172.88 53.72 172.99 53.78 173.06 53.9C173.121 54.0349 173.152 54.1818 173.15 54.33C173.146 54.8695 172.951 55.3901 172.6 55.8C172.17 56.3219 171.621 56.7334 171 57C170.344 57.3241 169.621 57.4886 168.89 57.48C168.068 57.5016 167.253 57.3303 166.51 56.98C165.881 56.6729 165.394 56.1359 165.15 55.48C164.63 56.104 163.982 56.6087 163.25 56.96C162.516 57.3086 161.713 57.4864 160.9 57.48C160.073 57.5086 159.253 57.3225 158.52 56.94C157.916 56.6148 157.419 56.1216 157.09 55.52C156.653 54.7063 156.515 53.765 156.7 52.86C156.808 52.2957 157.028 51.7589 157.348 51.2813C157.667 50.8038 158.08 50.3953 158.56 50.08C159.576 49.4312 160.765 49.1036 161.97 49.14C163.448 49.1389 164.917 49.3753 166.32 49.84L167 48.1C167.196 47.5388 167.314 46.9533 167.35 46.36C167.36 46.1715 167.326 45.9833 167.252 45.8099C167.177 45.6365 167.064 45.4826 166.92 45.36C166.556 45.1225 166.124 45.0101 165.69 45.04C165.798 45.3208 165.852 45.6193 165.85 45.92C165.852 46.2418 165.786 46.5603 165.657 46.855C165.528 47.1496 165.338 47.4137 165.1 47.63C164.509 48.1432 163.741 48.4051 162.96 48.36C162.248 48.3906 161.545 48.1868 160.96 47.78C160.731 47.6183 160.545 47.404 160.416 47.1552C160.287 46.9064 160.22 46.6302 160.22 46.35C160.242 45.8778 160.393 45.4208 160.658 45.0291C160.922 44.6374 161.29 44.3264 161.72 44.13C163.143 43.4512 164.716 43.1482 166.29 43.25C168.003 43.1841 169.701 43.5887 171.2 44.42ZM163.57 52C163.275 52.3506 163.109 52.7918 163.1 53.25C163.09 53.4957 163.16 53.7379 163.3 53.94C163.368 54.0285 163.456 54.0993 163.557 54.1463C163.658 54.1933 163.769 54.2152 163.88 54.21C164.156 54.1954 164.421 54.0978 164.64 53.93C164.93 53.7268 165.142 53.4304 165.24 53.09L165.8 51.51C165.469 51.4563 165.135 51.4296 164.8 51.43C164.565 51.4218 164.331 51.4691 164.117 51.5682C163.903 51.6672 163.716 51.8151 163.57 52Z" fill="#F5F5F5"/>
<path d="M188.32 53.88C188.317 53.9308 188.325 53.9815 188.342 54.0293C188.359 54.0771 188.386 54.1209 188.42 54.1582C188.455 54.1955 188.497 54.2255 188.543 54.2464C188.589 54.2673 188.639 54.2788 188.69 54.28C188.797 54.2785 188.902 54.2525 188.998 54.2039C189.093 54.1554 189.176 54.0856 189.24 54C189.39 53.81 189.5 53.72 189.55 53.72C189.6 53.72 189.71 53.78 189.76 53.9C189.818 54.0357 189.845 54.1826 189.84 54.33C189.84 54.8703 189.645 55.3924 189.29 55.8C188.879 56.3119 188.355 56.7224 187.76 57C187.111 57.3217 186.395 57.4862 185.67 57.48C184.868 57.4985 184.073 57.3272 183.35 56.98C182.764 56.7101 182.287 56.2479 182 55.67C181.564 56.2581 180.995 56.7344 180.34 57.06C179.717 57.3623 179.032 57.5163 178.34 57.51C177.539 57.5166 176.751 57.3058 176.06 56.9C175.347 56.4821 174.763 55.8769 174.37 55.15C173.945 54.3575 173.732 53.469 173.75 52.57C173.738 50.9931 174.051 49.4306 174.67 47.98C175.226 46.6228 176.113 45.4263 177.25 44.5C178.309 43.638 179.635 43.1713 181 43.18C181.677 43.1615 182.352 43.2526 183 43.45C183.541 43.6238 184.046 43.8949 184.49 44.25L185.4 41.25C185.445 41.1177 185.472 40.9797 185.48 40.84C185.486 40.6677 185.433 40.4984 185.33 40.36C185.215 40.2221 185.084 40.0979 184.94 39.99C184.796 39.8788 184.665 39.7513 184.55 39.61C184.517 39.5451 184.499 39.4731 184.499 39.4C184.499 39.327 184.517 39.255 184.55 39.19C184.66 38.78 185.22 38.42 186.24 38.12C187.271 37.81 188.343 37.655 189.42 37.66C190.228 37.5987 191.033 37.8061 191.71 38.25C191.949 38.4404 192.14 38.6845 192.267 38.9626C192.394 39.2406 192.453 39.5447 192.44 39.85C192.422 40.2437 192.341 40.632 192.2 41L188.37 53.57C188.345 53.6719 188.329 53.7756 188.32 53.88ZM183 45.69C182.48 45.69 182 46.08 181.48 46.84C180.942 47.702 180.534 48.6388 180.27 49.62C179.985 50.5946 179.841 51.6047 179.84 52.62C179.84 53.62 180.17 54.09 180.84 54.09C180.953 54.0895 181.064 54.0641 181.166 54.0157C181.268 53.9673 181.358 53.8971 181.43 53.81C181.635 53.5299 181.788 53.2148 181.88 52.88L183.97 46.12C183.715 45.8559 183.367 45.7016 183 45.69Z" fill="#F5F5F5"/>
</g>
<defs>
<clipPath id="clip0_0_9952">
<rect width="205.43" height="103.28" fill="white"/>
</clipPath>
</defs>
</svg>
