<svg width="115" height="196" viewBox="0 0 115 196" fill="none" xmlns="http://www.w3.org/2000/svg">
<g clip-path="url(#clip0_0_9964)">
<path d="M53.11 2.22997L1.84 91C0.637223 93.0461 0.00302649 95.3765 0.00302649 97.75C0.00302649 100.123 0.637223 102.454 1.84 104.5L53.11 193.27C53.5662 193.957 54.1852 194.52 54.9119 194.91C55.6386 195.3 56.4504 195.504 57.275 195.504C58.0996 195.504 58.9114 195.3 59.6381 194.91C60.3648 194.52 60.9838 193.957 61.44 193.27L112.72 104.5C113.923 102.454 114.557 100.123 114.557 97.75C114.557 95.3765 113.923 93.0461 112.72 91L61.44 2.22997C60.9838 1.54309 60.3648 0.979701 59.6381 0.589989C58.9114 0.200276 58.0996 -0.00366211 57.275 -0.00366211C56.4504 -0.00366211 55.6386 0.200276 54.9119 0.589989C54.1852 0.979701 53.5662 1.54309 53.11 2.22997Z" fill="#4F8C64"/>
<path d="M57.89 79.09C60.89 79.09 64.25 80.8 67.89 84.23C69.89 85.4833 70.89 86.7967 70.89 88.17C72.8167 88.17 74.13 89.5867 74.83 92.42C74.83 93.9 73.9167 95.3167 72.09 96.67C71.09 99.91 69.23 101.52 66.64 101.52C65.8005 101.468 64.9774 101.264 64.21 100.92C61.99 103.31 60.88 105.12 60.88 106.37V110.63C60.8917 110.711 60.8843 110.795 60.8583 110.873C60.8323 110.951 60.7884 111.022 60.7302 111.08C60.6719 111.138 60.6009 111.182 60.5228 111.208C60.4446 111.234 60.3615 111.242 60.28 111.23L56.62 110.94L53.91 111.23L53.6 110.63V107C53.6 105.84 52.6 103.93 50.6 101.27L49.09 101.55H47.87C44.99 101.55 43.17 99.55 42.42 95.55C41.07 95.55 40.15 94.44 39.68 92.21V90.91C39.68 89.45 40.9 88.0333 43.34 86.66C43.34 83.9933 45.26 82.28 49.1 81.52L50.61 81.8C52.6079 80.0106 55.2083 79.0426 57.89 79.09ZM55.75 112.74H59.09C62.6254 112.613 66.082 113.804 68.79 116.08L68.19 116.39H45.45V116.08C47.4033 113.847 50.8367 112.733 55.75 112.74ZM52.75 100.32V100.61C53.6417 101.925 54.3515 103.355 54.86 104.86H55.17V101.24C54.2909 101.149 53.4503 100.832 52.73 100.32H52.75ZM58.82 101.52V104C60.44 102.68 61.25 101.77 61.25 101.29H60.94L58.82 101.52Z" fill="#CEEFE3"/>
<path d="M48.76 65.76C49.09 65.84 49.26 66.1 49.26 66.55C49.5 66.3 49.7 66.17 49.84 66.17C49.9306 66.1728 50.0182 66.203 50.0914 66.2566C50.1645 66.3101 50.2198 66.3845 50.25 66.47V66.71C50.2415 66.8944 50.1711 67.0706 50.05 67.21H50.25H50.46C50.82 67.2833 51 67.4333 51 67.66C51 67.95 50.76 68.19 50.29 68.37C50.48 68.37 50.66 68.51 50.83 68.78V69.03C50.7991 69.1029 50.7477 69.1654 50.682 69.2097C50.6164 69.2541 50.5392 69.2785 50.46 69.28H50.17C50.0812 69.2751 49.9951 69.2476 49.92 69.1999C50.0741 69.3259 50.1772 69.5036 50.21 69.6999V69.78C50.21 70 50.07 70.12 49.8 70.15C49.53 70.18 49.46 69.97 49.26 69.61V69.9V70.0199C49.26 70.3599 49.13 70.5199 48.89 70.5199C48.61 70.5199 48.44 70.29 48.39 69.82C48.24 70.18 48.05 70.36 47.81 70.36H47.6C47.5201 70.3143 47.455 70.2467 47.4125 70.1652C47.3699 70.0836 47.3517 69.9916 47.36 69.9C47.3729 69.774 47.3997 69.6499 47.44 69.53C47.313 69.6063 47.1681 69.6477 47.02 69.65H46.86C46.63 69.65 46.51 69.4999 46.49 69.1999C46.47 68.8999 46.65 68.78 46.98 68.62C46.54 68.62 46.29 68.44 46.24 68.08C46.36 67.64 46.56 67.42 46.86 67.42H47.11H47.32C47.2034 67.3149 47.1095 67.187 47.0441 67.0443C46.9788 66.9015 46.9433 66.7469 46.94 66.5899C47.06 66.3199 47.21 66.18 47.4 66.18H47.52C47.7 66.18 47.9 66.33 48.1 66.63C48.1 66.16 48.24 65.87 48.51 65.76C48.5929 65.7473 48.6771 65.7473 48.76 65.76ZM48 68.33C48.1 68.74 48.29 68.9499 48.57 68.9499H48.74C49.04 68.9499 49.24 68.73 49.32 68.29C49.4 67.85 49.1 67.74 48.66 67.66C48.2 67.73 48 68 48 68.33Z" fill="#CEEFE3"/>
<path d="M57.4 65.7599C57.73 65.8399 57.9 66.0999 57.9 66.5499C58.14 66.2999 58.33 66.1699 58.47 66.1699H58.52C58.6102 66.1742 58.6973 66.2049 58.7702 66.2582C58.8431 66.3116 58.8987 66.3852 58.93 66.4699V66.7099C58.9221 66.8964 58.8476 67.0738 58.72 67.2099H58.93H59.14C59.5 67.2833 59.68 67.4333 59.68 67.66C59.68 67.95 59.44 68.1899 58.97 68.3699C59.16 68.3699 59.34 68.5099 59.51 68.7799V69.0299C59.4781 69.1022 59.4264 69.164 59.361 69.2082C59.2955 69.2524 59.2189 69.2773 59.14 69.2799H58.85C58.7612 69.2751 58.6751 69.2476 58.6 69.1999C58.7502 69.3292 58.8524 69.5054 58.89 69.6999V69.7799C58.89 69.9999 58.75 70.1199 58.47 70.1499C58.19 70.1799 58.14 69.9699 57.94 69.6099V69.8999V70.0199C57.94 70.3599 57.81 70.5199 57.56 70.5199C57.28 70.5199 57.12 70.2899 57.07 69.8199C56.92 70.1799 56.73 70.3599 56.49 70.3599H56.32C56.2402 70.3326 56.1688 70.285 56.1127 70.222C56.0566 70.1589 56.0178 70.0824 56 69.9999C56.0184 69.875 56.0451 69.7514 56.08 69.6299C55.9572 69.7073 55.8152 69.7489 55.67 69.7499H55.5C55.27 69.7499 55.14 69.5999 55.12 69.2999C55.1 68.9999 55.29 68.8799 55.62 68.7199C55.18 68.7199 54.93 68.5399 54.88 68.1799C54.99 67.7399 55.2 67.5199 55.5 67.5199H55.75H55.95C55.8342 67.4147 55.7416 67.2866 55.6779 67.1438C55.6142 67.0009 55.5809 66.8464 55.58 66.6899C55.7 66.4199 55.85 66.2799 56.03 66.2799H56.16C56.34 66.2799 56.53 66.4299 56.74 66.7299C56.74 66.2599 56.88 65.9699 57.15 65.8599C57.2267 65.812 57.3114 65.7781 57.4 65.7599ZM56.61 68.3299C56.71 68.7399 56.91 68.9499 57.19 68.9499H57.36C57.66 68.9499 57.86 68.7299 57.94 68.2899C58.02 67.8499 57.72 67.74 57.28 67.66C56.83 67.73 56.61 67.9999 56.61 68.3299Z" fill="#CEEFE3"/>
<path d="M66 65.76C66.33 65.84 66.49 66.1 66.49 66.55C66.74 66.3 66.93 66.17 67.07 66.17C67.1602 66.1742 67.2473 66.2049 67.3202 66.2582C67.3931 66.3116 67.4487 66.3852 67.48 66.47V66.71C67.4721 66.8964 67.3975 67.0738 67.27 67.21H67.48H67.69C68.04 67.28 68.22 67.43 68.22 67.66C68.22 67.89 67.99 68.19 67.52 68.37C67.71 68.37 67.89 68.51 68.06 68.78V69.03C68.0281 69.1022 67.9764 69.164 67.911 69.2082C67.8455 69.2524 67.7689 69.2773 67.69 69.28H67.39C67.3046 69.2735 67.2222 69.246 67.15 69.2C67.3002 69.3292 67.4024 69.5054 67.44 69.7V69.78C67.44 70 67.3 70.12 67.02 70.15C66.74 70.18 66.69 69.97 66.48 69.61V69.9V70.02C66.48 70.36 66.36 70.52 66.11 70.52C65.83 70.52 65.67 70.29 65.62 69.82C65.48 70.18 65.28 70.36 65.04 70.36H64.88C64.7974 70.3167 64.7295 70.2499 64.685 70.168C64.6405 70.0861 64.6213 69.9928 64.63 69.9C64.6484 69.775 64.6751 69.6514 64.71 69.53C64.5865 69.6059 64.4449 69.6474 64.3 69.65H64.13C63.91 69.65 63.78 69.5 63.76 69.2C63.74 68.9 63.93 68.78 64.26 68.62C63.82 68.62 63.57 68.44 63.51 68.08C63.63 67.64 63.84 67.42 64.13 67.42H64.38H64.59C64.4742 67.3148 64.3816 67.1867 64.3179 67.0438C64.2542 66.9009 64.2209 66.7464 64.22 66.59C64.34 66.32 64.49 66.18 64.67 66.18H64.8C64.98 66.18 65.17 66.33 65.38 66.63C65.38 66.16 65.51 65.87 65.79 65.76C65.8597 65.7503 65.9303 65.7503 66 65.76ZM65.21 68.33C65.31 68.74 65.51 68.95 65.79 68.95H66C66.3 68.95 66.49 68.73 66.57 68.29C66.65 67.85 66.43 67.64 65.91 67.66C65.47 67.73 65.25 68 65.25 68.33H65.21Z" fill="#CEEFE3"/>
<path d="M48.76 124.88C49.09 124.96 49.26 125.22 49.26 125.67C49.5 125.42 49.7 125.29 49.84 125.29C49.9306 125.293 50.0182 125.323 50.0914 125.377C50.1645 125.43 50.2198 125.505 50.25 125.59V125.83C50.24 126.014 50.1697 126.19 50.05 126.33H50.25H50.46C50.82 126.39 51 126.55 51 126.78C51 127.01 50.76 127.31 50.29 127.49C50.48 127.49 50.66 127.63 50.83 127.9V128.15C50.7991 128.223 50.7477 128.285 50.682 128.33C50.6164 128.374 50.5392 128.399 50.46 128.4H50.17C50.0812 128.395 49.9951 128.368 49.92 128.32C50.0714 128.444 50.1741 128.618 50.21 128.81V129C50.21 129.22 50.07 129.34 49.8 129.37C49.53 129.4 49.46 129.19 49.26 128.83V129.12V129.24C49.26 129.57 49.13 129.74 48.89 129.74C48.61 129.74 48.44 129.51 48.39 129.04C48.24 129.4 48.05 129.57 47.81 129.57H47.6C47.5201 129.527 47.4546 129.461 47.4119 129.381C47.3692 129.301 47.3512 129.21 47.36 129.12C47.3729 128.994 47.3997 128.87 47.44 128.75C47.313 128.826 47.1681 128.868 47.02 128.87H46.86C46.63 128.87 46.51 128.72 46.49 128.42C46.47 128.12 46.65 128 46.98 127.84C46.54 127.84 46.29 127.66 46.24 127.3C46.36 126.86 46.56 126.64 46.86 126.64H47.11H47.32C47.2034 126.535 47.1095 126.407 47.0441 126.264C46.9788 126.122 46.9433 125.967 46.94 125.81C47.06 125.54 47.21 125.4 47.4 125.4H47.52C47.7 125.4 47.9 125.55 48.1 125.85C48.1 125.38 48.24 125.09 48.51 124.98C48.5873 124.933 48.6718 124.9 48.76 124.88ZM48 127.45C48.1 127.86 48.29 128.07 48.57 128.07H48.74C49.04 128.07 49.24 127.85 49.32 127.41C49.4 126.97 49.1 126.86 48.66 126.78C48.22 126.7 48 127.07 48 127.45Z" fill="#CEEFE3"/>
<path d="M57.4 124.88C57.73 124.96 57.9 125.22 57.9 125.67C58.14 125.42 58.33 125.29 58.47 125.29H58.52C58.6102 125.294 58.6973 125.325 58.7702 125.378C58.8431 125.432 58.8987 125.505 58.93 125.59V125.83C58.9203 126.016 58.8461 126.193 58.72 126.33H58.93H59.14C59.5 126.39 59.68 126.55 59.68 126.78C59.68 127.01 59.44 127.31 58.97 127.49C59.16 127.49 59.34 127.63 59.51 127.9V128.15C59.4781 128.222 59.4264 128.284 59.361 128.328C59.2955 128.372 59.2189 128.397 59.14 128.4H58.85C58.7612 128.395 58.6751 128.368 58.6 128.32C58.7477 128.447 58.8496 128.619 58.89 128.81V129C58.89 129.22 58.75 129.34 58.47 129.37C58.19 129.4 58.14 129.19 57.94 128.83V129.12V129.24C57.94 129.57 57.81 129.74 57.56 129.74C57.28 129.74 57.12 129.51 57.07 129.04C56.92 129.4 56.73 129.57 56.49 129.57H56.32C56.2382 129.528 56.1707 129.463 56.1262 129.383C56.0816 129.303 56.0621 129.211 56.07 129.12C56.0884 128.995 56.1151 128.871 56.15 128.75C56.0272 128.827 55.8852 128.869 55.74 128.87H55.5C55.27 128.87 55.14 128.72 55.12 128.42C55.1 128.12 55.29 128 55.62 127.84C55.18 127.84 54.93 127.66 54.88 127.3C54.99 126.86 55.2 126.64 55.5 126.64H55.75H55.95C55.8342 126.535 55.7416 126.407 55.6779 126.264C55.6142 126.121 55.5809 125.966 55.58 125.81C55.7 125.54 55.85 125.4 56.03 125.4H56.16C56.34 125.4 56.53 125.55 56.74 125.85C56.74 125.38 56.88 125.09 57.15 124.98C57.2267 124.932 57.3114 124.898 57.4 124.88ZM56.61 127.45C56.71 127.86 56.91 128.07 57.19 128.07H57.36C57.66 128.07 57.86 127.85 57.94 127.41C58.02 126.97 57.72 126.86 57.28 126.78C56.84 126.7 56.61 127.07 56.61 127.45Z" fill="#CEEFE3"/>
<path d="M66 124.88C66.33 124.96 66.49 125.22 66.49 125.67C66.74 125.42 66.93 125.29 67.07 125.29C67.1602 125.294 67.2473 125.325 67.3202 125.378C67.3931 125.432 67.4487 125.505 67.48 125.59V125.83C67.4704 126.016 67.3961 126.193 67.27 126.33H67.48H67.69C68.04 126.39 68.22 126.55 68.22 126.78C68.22 127.01 67.99 127.31 67.52 127.49C67.71 127.49 67.89 127.63 68.06 127.9V128.15C68.0281 128.222 67.9764 128.284 67.911 128.328C67.8455 128.372 67.7689 128.397 67.69 128.4H67.39C67.3046 128.393 67.2222 128.366 67.15 128.32C67.2977 128.447 67.3996 128.619 67.44 128.81V129C67.44 129.22 67.3 129.34 67.02 129.37C66.74 129.4 66.69 129.19 66.48 128.83V129.12V129.24C66.48 129.57 66.36 129.74 66.11 129.74C65.83 129.74 65.67 129.51 65.62 129.04C65.48 129.4 65.28 129.57 65.04 129.57H64.88C64.7973 129.53 64.729 129.465 64.6843 129.384C64.6396 129.304 64.6206 129.212 64.63 129.12C64.6484 128.995 64.6751 128.871 64.71 128.75C64.5865 128.826 64.4449 128.867 64.3 128.87H64.13C63.91 128.87 63.78 128.72 63.76 128.42C63.74 128.12 63.93 128 64.26 127.84C63.82 127.84 63.57 127.66 63.51 127.3C63.63 126.86 63.84 126.64 64.13 126.64H64.38H64.59C64.4742 126.535 64.3816 126.407 64.3179 126.264C64.2542 126.121 64.2209 125.966 64.22 125.81C64.34 125.54 64.49 125.4 64.67 125.4H64.8C64.98 125.4 65.17 125.55 65.38 125.85C65.38 125.38 65.51 125.09 65.79 124.98C65.8545 124.936 65.9253 124.902 66 124.88ZM65.21 127.45C65.31 127.86 65.51 128.07 65.79 128.07H66C66.3 128.07 66.49 127.85 66.57 127.41C66.65 126.97 66.43 126.76 65.91 126.78C65.47 126.85 65.25 127.07 65.25 127.45H65.21Z" fill="#CEEFE3"/>
<path d="M36.66 67.57L31.05 59L34.76 56.59C35.3309 56.1954 35.9904 55.9481 36.68 55.87C37.3024 55.8062 37.9302 55.9206 38.49 56.2C39.0787 56.5133 39.5752 56.9753 39.93 57.54C40.3086 58.0932 40.5267 58.7404 40.56 59.41C40.5823 60.0354 40.4225 60.6537 40.1 61.19C39.7262 61.7926 39.2201 62.3021 38.62 62.68L36.4 64.1L35.22 62.29L37 61.15C37.2447 61.0004 37.4504 60.7947 37.6 60.55C37.7271 60.3392 37.7896 60.0959 37.78 59.85C37.7595 59.5869 37.6737 59.333 37.5306 59.1113C37.3874 58.8896 37.1913 58.707 36.96 58.58C36.7381 58.4784 36.4923 58.4403 36.25 58.47C35.9623 58.5136 35.6885 58.6232 35.45 58.79L34.63 59.33L39 66.05L36.66 67.57Z" fill="#CEEFE3"/>
<path d="M44 63L40.82 53.25L43.46 52.39L46 60L49.94 58.71L50.63 60.84L44 63Z" fill="#CEEFE3"/>
<path d="M53.72 60.49L50.72 60.6L53.72 50.23L57.52 50.08L61.29 60.2L58.29 60.31L55.76 53H55.68L53.72 60.49ZM53.01 56.49L58.65 56.27L58.73 58.35L53.09 58.57L53.01 56.49Z" fill="#CEEFE3"/>
<path d="M72.83 52.79L70.14 62.68L67.9 62.07L65.74 55.9H65.68L64.26 61.1L61.58 60.37L64.27 50.47L66.55 51.09L68.66 57.23H68.74L70.15 52.05L72.83 52.79Z" fill="#CEEFE3"/>
<path d="M74.81 56.06L76 54.17L83.52 58.94L82.32 60.84L79.72 59.18L75.43 66L73.11 64.53L77.41 57.76L74.81 56.06Z" fill="#CEEFE3"/>
<path d="M41.31 135.43L42.04 133.31L50.47 136.21L49.74 138.33L46.82 137.33L44.21 144.9L41.62 144L44.23 136.42L41.31 135.43Z" fill="#CEEFE3"/>
<path d="M49.71 146.38L50.51 136.16L54.92 136.5C55.622 136.532 56.3068 136.727 56.92 137.07C57.4504 137.374 57.8811 137.826 58.16 138.37C58.4388 138.962 58.5528 139.618 58.49 140.27C58.4603 140.926 58.2377 141.559 57.85 142.09C57.4776 142.561 56.9725 142.909 56.4 143.09C55.7327 143.306 55.0278 143.381 54.33 143.31L51.69 143.11L51.86 140.95L53.94 141.11C54.218 141.158 54.502 141.158 54.78 141.11C55.0015 141.055 55.2005 140.932 55.35 140.76C55.5004 140.561 55.5843 140.319 55.59 140.07C55.6209 139.819 55.5756 139.565 55.46 139.34C55.345 139.138 55.1703 138.978 54.96 138.88C54.6967 138.768 54.4157 138.704 54.13 138.69L53.13 138.61L52.51 146.61L49.71 146.38ZM56.07 142.16L58.26 147.05L55.26 146.81L53.13 141.93L56.07 142.16Z" fill="#CEEFE3"/>
<path d="M60.58 146.87L59 136.74L66.3 135.59L66.65 137.81L62.1 138.52L62.38 140.26L66.55 139.6L66.9 141.82L62.72 142.48L63 144.22L67.53 143.51L67.88 145.72L60.58 146.87Z" fill="#CEEFE3"/>
<path d="M70.62 145L66.69 135.53L73.52 132.7L74.38 134.77L70.12 136.54L70.8 138.17L74.7 136.55L75.56 138.62L71.66 140.24L72.33 141.87L76.57 140.11L77.43 142.18L70.62 145Z" fill="#CEEFE3"/>
<path d="M85.28 94.7799V92.4699H86.06C86.2149 92.4647 86.369 92.4955 86.51 92.5599C86.6181 92.6265 86.7076 92.7194 86.77 92.8299C86.8224 92.9462 86.8496 93.0724 86.8496 93.1999C86.8496 93.3275 86.8224 93.4536 86.77 93.5699C86.7108 93.6828 86.6206 93.7765 86.51 93.8399C86.3729 93.9064 86.2224 93.9406 86.07 93.9399H85.51V93.6899H86.06C86.1646 93.6951 86.2685 93.6709 86.36 93.6199C86.4303 93.582 86.4864 93.5224 86.52 93.4499C86.553 93.3707 86.57 93.2858 86.57 93.1999C86.57 93.1141 86.553 93.0292 86.52 92.9499C86.4864 92.8775 86.4303 92.8179 86.36 92.7799C86.2628 92.7359 86.1566 92.7153 86.05 92.7199H85.56V94.7799H85.28Z" fill="#CEEFE3"/>
<path d="M87.3 94.7799V92.4699H88.09C88.2418 92.4635 88.3929 92.4944 88.53 92.5599C88.6414 92.6129 88.7327 92.7007 88.79 92.8099C88.8479 92.9244 88.8754 93.0518 88.87 93.1799C88.8746 93.3048 88.847 93.4288 88.79 93.5399C88.7327 93.6492 88.6414 93.7369 88.53 93.7899C88.3929 93.8554 88.2418 93.8863 88.09 93.8799H87.46V93.6199H88.08C88.1825 93.6265 88.2852 93.6094 88.38 93.5699C88.4493 93.5365 88.5082 93.4846 88.55 93.4199C88.5662 93.3408 88.5662 93.2591 88.55 93.1799C88.567 93.0975 88.567 93.0124 88.55 92.9299C88.5088 92.8623 88.45 92.807 88.38 92.7699C88.2813 92.7473 88.1787 92.7473 88.08 92.7699H87.58V94.8299L87.3 94.7799ZM88.39 93.7799L88.96 94.7799H88.64L88.08 93.7799H88.39Z" fill="#CEEFE3"/>
<path d="M91.3 93.6199C91.3042 93.8413 91.2563 94.0605 91.16 94.2599C91.0803 94.4273 90.9557 94.5692 90.8 94.6699C90.6414 94.7688 90.4567 94.8175 90.27 94.8099C90.0837 94.8135 89.9002 94.765 89.74 94.6699C89.5843 94.5692 89.4597 94.4273 89.38 94.2599C89.2872 94.0597 89.2426 93.8405 89.25 93.6199C89.2435 93.4026 89.288 93.1868 89.38 92.9899C89.4597 92.8225 89.5843 92.6806 89.74 92.5799C89.8991 92.4813 90.0828 92.4293 90.27 92.4299C90.4577 92.4259 90.6423 92.4781 90.8 92.5799C90.9557 92.6806 91.0803 92.8225 91.16 92.9899C91.2554 93.186 91.3034 93.4018 91.3 93.6199ZM91.02 93.6199C91.0278 93.4476 90.9935 93.276 90.92 93.1199C90.8671 92.9868 90.7723 92.8744 90.65 92.7999C90.5355 92.731 90.4036 92.6963 90.27 92.6999C90.1365 92.6974 90.0049 92.732 89.89 92.7999C89.7725 92.88 89.6792 92.9906 89.62 93.1199C89.5465 93.276 89.5121 93.4476 89.52 93.6199C89.5121 93.7955 89.5464 93.9703 89.62 94.1299C89.6792 94.2592 89.7725 94.3698 89.89 94.4499C90.0049 94.5178 90.1365 94.5525 90.27 94.5499C90.4036 94.5535 90.5355 94.5188 90.65 94.4499C90.7723 94.3754 90.8671 94.263 90.92 94.1299C90.9867 93.9687 91.0142 93.7938 91 93.6199H91.02Z" fill="#CEEFE3"/>
<path d="M91.54 92.72V92.47H93.28V92.72H92.55V94.78H92.27V92.72H91.54Z" fill="#CEEFE3"/>
<path d="M93.72 94.78V92.47H95.12V92.72H94V93.5H95V93.75H94V94.53H95.13V94.78H93.72Z" fill="#CEEFE3"/>
<path d="M97.49 93.1899H97.21C97.1922 93.1153 97.1618 93.0442 97.12 92.9799C97.0808 92.9174 97.0299 92.863 96.97 92.8199C96.9119 92.78 96.8477 92.7496 96.78 92.7299C96.7037 92.7195 96.6263 92.7195 96.55 92.7299C96.4165 92.7274 96.2849 92.762 96.17 92.8299C96.0525 92.91 95.9592 93.0206 95.9 93.1499C95.8312 93.3075 95.7971 93.478 95.8 93.6499C95.7972 93.825 95.8313 93.9988 95.9 94.1599C95.9592 94.2892 96.0525 94.3999 96.17 94.4799C96.2849 94.5478 96.4165 94.5825 96.55 94.5799C96.6263 94.5903 96.7037 94.5903 96.78 94.5799C96.8477 94.5603 96.9119 94.5299 96.97 94.4899C97.0299 94.4468 97.0808 94.3925 97.12 94.3299C97.1618 94.2656 97.1922 94.1946 97.21 94.1199H97.49C97.4713 94.2334 97.4305 94.3421 97.37 94.4399C97.317 94.5334 97.2456 94.615 97.16 94.6799C97.0765 94.7441 96.9815 94.7917 96.88 94.8199C96.771 94.8407 96.659 94.8407 96.55 94.8199C96.3666 94.8262 96.1855 94.7774 96.03 94.6799C95.8706 94.5807 95.7424 94.4386 95.66 94.2699C95.5745 94.0691 95.5304 93.8532 95.5304 93.6349C95.5304 93.4167 95.5745 93.2007 95.66 92.9999C95.7424 92.8312 95.8706 92.6891 96.03 92.5899C96.1846 92.4895 96.3656 92.4373 96.55 92.4399C96.6628 92.4386 96.7749 92.4589 96.88 92.4999C96.9815 92.5282 97.0765 92.5757 97.16 92.6399C97.2456 92.7048 97.317 92.7865 97.37 92.8799C97.4293 92.9747 97.4701 93.0799 97.49 93.1899Z" fill="#CEEFE3"/>
<path d="M97.81 92.72V92.47H99.55V92.72H98.82V94.78H98.54V92.72H97.81Z" fill="#CEEFE3"/>
<path d="M91.18 97.4499C91.1834 97.668 91.1354 97.8838 91.04 98.08C90.9603 98.2473 90.8357 98.3893 90.68 98.4899C90.5223 98.5918 90.3377 98.644 90.15 98.64C89.9643 98.6385 89.7826 98.5853 89.6254 98.4864C89.4683 98.3875 89.3417 98.2467 89.26 98.08C89.168 97.883 89.1235 97.6672 89.13 97.4499C89.1215 97.2325 89.1662 97.0163 89.26 96.82C89.3407 96.6506 89.4649 96.5056 89.62 96.4C89.7802 96.3048 89.9637 96.2563 90.15 96.26C90.3363 96.2563 90.5198 96.3048 90.68 96.4C90.8351 96.5056 90.9593 96.6506 91.04 96.82C91.1377 97.0153 91.1858 97.2316 91.18 97.4499ZM90.9 97.4499C90.9067 97.2745 90.8725 97.0999 90.8 96.94C90.7472 96.8093 90.6521 96.7002 90.53 96.6299C90.4165 96.5575 90.2846 96.5193 90.15 96.5199C90.0156 96.5209 89.8841 96.559 89.77 96.6299C89.6529 96.7061 89.5594 96.8135 89.5 96.94C89.372 97.261 89.372 97.6189 89.5 97.94C89.5594 98.0664 89.6529 98.1738 89.77 98.25C89.8841 98.3209 90.0156 98.359 90.15 98.36C90.2846 98.3606 90.4165 98.3224 90.53 98.25C90.6429 98.1953 90.7369 98.1083 90.8 98C90.8789 97.8279 90.9133 97.6388 90.9 97.4499Z" fill="#CEEFE3"/>
<path d="M93.17 96.2899H93.45V97.8199C93.4502 97.9702 93.4124 98.1182 93.34 98.2499C93.2612 98.3734 93.1507 98.4736 93.02 98.5399C92.8747 98.6144 92.7133 98.6522 92.55 98.6499C92.3833 98.6538 92.2183 98.616 92.07 98.5399C91.9394 98.4706 91.8304 98.3668 91.7546 98.2399C91.6788 98.113 91.6391 97.9677 91.64 97.8199V96.2899H91.93V97.7999C91.9248 97.9045 91.9491 98.0084 92 98.0999C92.0486 98.1885 92.1214 98.2614 92.21 98.3099C92.3153 98.3633 92.4319 98.3908 92.55 98.3899C92.665 98.392 92.7787 98.3645 92.88 98.3099C92.9686 98.2614 93.0414 98.1885 93.09 98.0999C93.1444 98.0095 93.1721 97.9055 93.17 97.7999V96.2899Z" fill="#CEEFE3"/>
<path d="M94 98.61V96.29H94.78C94.9349 96.2847 95.089 96.3155 95.23 96.38C95.3393 96.4373 95.427 96.5286 95.48 96.64C95.5387 96.7509 95.5693 96.8745 95.5693 97C95.5693 97.1255 95.5387 97.2491 95.48 97.36C95.4265 97.4686 95.3386 97.5565 95.23 97.61C95.0921 97.673 94.9416 97.7038 94.79 97.7H94.15V97.45H94.78C94.8833 97.4534 94.986 97.4329 95.08 97.39C95.1509 97.3629 95.2084 97.309 95.24 97.24C95.273 97.1643 95.2901 97.0826 95.2901 97C95.2901 96.9174 95.273 96.8357 95.24 96.76C95.2238 96.7233 95.2004 96.6903 95.1712 96.6628C95.142 96.6353 95.1076 96.614 95.07 96.6C94.9767 96.5548 94.8735 96.5342 94.77 96.54H94.28V98.61H94ZM95.09 97.61L95.66 98.61H95.33L94.77 97.61H95.09Z" fill="#CEEFE3"/>
<path d="M87.32 102.43L86.69 100.11H87L87.49 102L87.98 100.11H88.3L88.8 102L89.28 100.11H89.57L88.93 102.43H88.64L88.13 100.58L87.62 102.43H87.32Z" fill="#CEEFE3"/>
<path d="M91.77 101.27C91.7773 101.491 91.7328 101.71 91.64 101.91C91.5563 102.075 91.4325 102.216 91.28 102.32C91.1185 102.412 90.9359 102.46 90.75 102.46C90.5641 102.46 90.3815 102.412 90.22 102.32C90.0675 102.216 89.9437 102.075 89.86 101.91C89.7672 101.71 89.7227 101.491 89.73 101.27C89.7235 101.053 89.768 100.837 89.86 100.64C89.9439 100.476 90.0714 100.339 90.2284 100.243C90.3855 100.147 90.5659 100.096 90.75 100.096C90.934 100.096 91.1145 100.147 91.2715 100.243C91.4286 100.339 91.5561 100.476 91.64 100.64C91.732 100.837 91.7765 101.053 91.77 101.27ZM91.5 101.27C91.5067 101.095 91.4725 100.92 91.4 100.76C91.3378 100.635 91.2449 100.529 91.13 100.45C91.0163 100.378 90.8846 100.34 90.75 100.34C90.6154 100.34 90.4837 100.378 90.37 100.45C90.2551 100.529 90.1622 100.635 90.1 100.76C89.972 101.081 89.972 101.439 90.1 101.76C90.1594 101.886 90.2529 101.994 90.37 102.07C90.4837 102.142 90.6154 102.18 90.75 102.18C90.8846 102.18 91.0163 102.142 91.13 102.07C91.2471 101.994 91.3406 101.886 91.4 101.76C91.4695 101.606 91.5037 101.439 91.5 101.27Z" fill="#CEEFE3"/>
<path d="M92.24 102.43V100.11H93C93.1531 100.102 93.3056 100.136 93.44 100.21C93.5514 100.263 93.6427 100.351 93.7 100.46C93.757 100.571 93.7846 100.695 93.78 100.82C93.7854 100.948 93.7579 101.076 93.7 101.19C93.6395 101.297 93.5492 101.384 93.44 101.44C93.3029 101.506 93.1518 101.536 93 101.53H92.4V101.27H93C93.0992 101.288 93.2008 101.288 93.3 101.27C93.3721 101.236 93.4315 101.18 93.47 101.11C93.5048 101.035 93.522 100.953 93.52 100.87C93.52 100.787 93.503 100.706 93.47 100.63C93.4288 100.562 93.37 100.507 93.3 100.47C93.206 100.427 93.1033 100.407 93 100.41H92.5V102.48L92.24 102.43ZM93.33 101.43L93.9 102.43H93.58L93.02 101.43H93.33Z" fill="#CEEFE3"/>
<path d="M94.28 102.43V100.11H94.56V102.18H95.64V102.43H94.28Z" fill="#CEEFE3"/>
<path d="M96.79 102.43H96.07V100.11H96.82C97.0221 100.106 97.2219 100.154 97.4 100.25C97.5588 100.342 97.6847 100.482 97.76 100.65C97.8459 100.845 97.8903 101.056 97.8903 101.27C97.8903 101.483 97.8459 101.695 97.76 101.89C97.681 102.058 97.5517 102.198 97.39 102.29C97.2045 102.385 96.9985 102.433 96.79 102.43ZM96.35 102.18H96.77C96.9367 102.184 97.1017 102.146 97.25 102.07C97.3727 101.998 97.4704 101.889 97.53 101.76C97.655 101.438 97.655 101.082 97.53 100.76C97.4733 100.629 97.3749 100.52 97.25 100.45C97.1125 100.374 96.9571 100.336 96.8 100.34H96.35V102.18Z" fill="#CEEFE3"/>
<path d="M16.79 94.7799V92.4699H17.58C17.7318 92.4635 17.8829 92.4944 18.02 92.5599C18.1306 92.6234 18.2208 92.717 18.28 92.8299C18.3324 92.9462 18.3596 93.0724 18.3596 93.1999C18.3596 93.3275 18.3324 93.4536 18.28 93.5699C18.2208 93.6828 18.1306 93.7765 18.02 93.8399C17.8839 93.9093 17.7327 93.9436 17.58 93.9399H17V93.6899H17.55C17.6548 93.6981 17.7596 93.6736 17.85 93.6199C17.9228 93.582 17.9821 93.5227 18.02 93.4499C18.053 93.3707 18.07 93.2858 18.07 93.1999C18.07 93.1141 18.053 93.0292 18.02 92.9499C17.9821 92.8772 17.9228 92.8178 17.85 92.7799C17.756 92.7371 17.6533 92.7165 17.55 92.7199H17.05V94.7799H16.79Z" fill="#CEEFE3"/>
<path d="M18.82 94.7799V92.4699H19.6C19.7549 92.4647 19.909 92.4955 20.05 92.5599C20.1586 92.6135 20.2465 92.7014 20.3 92.8099C20.3613 92.9235 20.3923 93.0509 20.39 93.1799C20.3911 93.3056 20.3601 93.4295 20.3 93.5399C20.2465 93.6485 20.1586 93.7364 20.05 93.7899C19.909 93.8544 19.7549 93.8852 19.6 93.8799H19V93.6199H19.63C19.7293 93.6276 19.829 93.6104 19.92 93.5699C19.9893 93.5365 20.0482 93.4846 20.09 93.4199C20.123 93.3442 20.14 93.2625 20.14 93.1799C20.1408 93.094 20.1238 93.0089 20.09 92.9299C20.0515 92.8601 19.9921 92.8041 19.92 92.7699C19.8215 92.7454 19.7185 92.7454 19.62 92.7699H19.1V94.8299L18.82 94.7799ZM19.91 93.7799L20.48 94.7799H20.15L19.59 93.7799H19.91Z" fill="#CEEFE3"/>
<path d="M22.81 93.6199C22.8126 93.8401 22.7683 94.0582 22.68 94.2599C22.5976 94.4286 22.4694 94.5707 22.31 94.6699C22.1545 94.7674 21.9734 94.8161 21.79 94.8099C21.6033 94.8175 21.4186 94.7688 21.26 94.6699C21.1006 94.5707 20.9724 94.4286 20.89 94.2599C20.8045 94.0591 20.7604 93.8431 20.7604 93.6249C20.7604 93.4067 20.8045 93.1907 20.89 92.9899C20.9724 92.8212 21.1006 92.6791 21.26 92.5799C21.4177 92.4781 21.6023 92.4259 21.79 92.4299C21.9744 92.4273 22.1554 92.4795 22.31 92.5799C22.4694 92.6791 22.5976 92.8212 22.68 92.9899C22.7672 93.1884 22.8115 93.4031 22.81 93.6199ZM22.54 93.6199C22.5429 93.448 22.5088 93.2775 22.44 93.1199C22.3808 92.9906 22.2875 92.88 22.17 92.7999C22.0551 92.732 21.9235 92.6974 21.79 92.6999C21.6534 92.6976 21.5186 92.7321 21.4 92.7999C21.2825 92.88 21.1892 92.9906 21.13 93.1199C21.0612 93.2775 21.0271 93.448 21.03 93.6199C21.0272 93.795 21.0613 93.9688 21.13 94.1299C21.1892 94.2592 21.2825 94.3698 21.4 94.4499C21.5186 94.5177 21.6534 94.5522 21.79 94.5499C21.9235 94.5525 22.0551 94.5178 22.17 94.4499C22.2875 94.3698 22.3808 94.2592 22.44 94.1299C22.5087 93.9688 22.5428 93.795 22.54 93.6199Z" fill="#CEEFE3"/>
<path d="M23.06 92.72V92.47H24.8V92.72H24.07V94.78H23.79V92.72H23.06Z" fill="#CEEFE3"/>
<path d="M25.23 94.78V92.47H26.63V92.72H25.51V93.5H26.51V93.75H25.51V94.53H26.65V94.78H25.23Z" fill="#CEEFE3"/>
<path d="M29 93.1899H28.72C28.7022 93.1153 28.6718 93.0442 28.63 92.9799C28.5908 92.9174 28.5399 92.863 28.48 92.8199C28.4229 92.7782 28.3584 92.7477 28.29 92.7299C28.217 92.7202 28.143 92.7202 28.07 92.7299C27.9364 92.7263 27.8045 92.761 27.69 92.8299C27.5677 92.9045 27.4729 93.0168 27.42 93.1499C27.3465 93.306 27.3122 93.4776 27.32 93.6499C27.3121 93.8255 27.3464 94.0003 27.42 94.1599C27.4729 94.2931 27.5677 94.4054 27.69 94.4799C27.8045 94.5488 27.9364 94.5835 28.07 94.5799C28.143 94.5897 28.217 94.5897 28.29 94.5799C28.3584 94.5622 28.4229 94.5316 28.48 94.4899C28.5399 94.4468 28.5908 94.3925 28.63 94.3299C28.6718 94.2656 28.7022 94.1946 28.72 94.1199H29C28.9801 94.2316 28.943 94.3396 28.89 94.4399C28.8309 94.5288 28.7603 94.6095 28.68 94.6799C28.5946 94.741 28.5001 94.7882 28.4 94.8199C28.2909 94.84 28.1791 94.84 28.07 94.8199C27.8833 94.8276 27.6986 94.7788 27.54 94.6799C27.3843 94.5793 27.2597 94.4373 27.18 94.2699C27.0872 94.0697 27.0426 93.8505 27.05 93.6299C27.0435 93.4126 27.088 93.1969 27.18 92.9999C27.2597 92.8325 27.3843 92.6906 27.54 92.5899C27.6977 92.4881 27.8823 92.4359 28.07 92.4399C28.1827 92.4395 28.2946 92.4599 28.4 92.4999C28.5001 92.5316 28.5946 92.5788 28.68 92.6399C28.7603 92.7103 28.8309 92.791 28.89 92.8799C28.942 92.9771 28.9791 93.0817 29 93.1899Z" fill="#CEEFE3"/>
<path d="M29.33 92.72V92.47H31.06V92.72H30.34V94.78H30.05V92.72H29.33Z" fill="#CEEFE3"/>
<path d="M22.69 97.45C22.6915 97.6668 22.6472 97.8814 22.56 98.08C22.4783 98.2467 22.3517 98.3875 22.1945 98.4864C22.0374 98.5853 21.8557 98.6385 21.67 98.64C21.4823 98.644 21.2977 98.5918 21.14 98.49C20.978 98.3939 20.849 98.2509 20.77 98.08C20.6828 97.8814 20.6385 97.6668 20.64 97.45C20.6363 97.2329 20.6807 97.0178 20.77 96.82C20.8508 96.6476 20.9792 96.5019 21.14 96.4C21.2996 96.3078 21.4807 96.2593 21.665 96.2593C21.8493 96.2593 22.0304 96.3078 22.19 96.4C22.3508 96.5019 22.4792 96.6476 22.56 96.82C22.6493 97.0178 22.6937 97.2329 22.69 97.45ZM22.42 97.45C22.4216 97.2749 22.3876 97.1014 22.32 96.94C22.2606 96.8135 22.1671 96.7061 22.05 96.63C21.9359 96.559 21.8044 96.5209 21.67 96.52C21.5325 96.5211 21.3978 96.5591 21.28 96.63C21.1629 96.7061 21.0694 96.8135 21.01 96.94C20.882 97.261 20.882 97.6189 21.01 97.94C21.0694 98.0664 21.1629 98.1738 21.28 98.25C21.3978 98.3208 21.5325 98.3588 21.67 98.36C21.8044 98.359 21.9359 98.3209 22.05 98.25C22.1671 98.1738 22.2606 98.0664 22.32 97.94C22.385 97.7847 22.4189 97.6182 22.42 97.45Z" fill="#CEEFE3"/>
<path d="M24.68 96.2899H25V97.8199C25.0002 97.9702 24.9624 98.1182 24.89 98.2499C24.8112 98.3734 24.7007 98.4736 24.57 98.5399C24.4247 98.6144 24.2633 98.6522 24.1 98.6499C23.9336 98.6514 23.7691 98.6138 23.62 98.5399C23.4941 98.4707 23.3875 98.371 23.31 98.2499C23.2376 98.1182 23.1998 97.9702 23.2 97.8199V96.2899H23.48V97.7999C23.474 97.9038 23.4982 98.0073 23.5497 98.0977C23.6011 98.1882 23.6777 98.2619 23.77 98.3099C23.872 98.3625 23.9852 98.39 24.1 98.39C24.2148 98.39 24.328 98.3625 24.43 98.3099C24.5213 98.2615 24.5974 98.1889 24.65 98.0999C24.6967 98.0068 24.7207 97.904 24.72 97.7999L24.68 96.2899Z" fill="#CEEFE3"/>
<path d="M25.52 98.61V96.29H26.3C26.4549 96.2847 26.609 96.3155 26.75 96.38C26.8621 96.4368 26.9532 96.5279 27.01 96.64C27.0627 96.7527 27.09 96.8756 27.09 97C27.09 97.1244 27.0627 97.2473 27.01 97.36C26.9527 97.4693 26.8614 97.557 26.75 97.61C26.6129 97.6755 26.4618 97.7064 26.31 97.7H25.68V97.45H26.3C26.4033 97.4534 26.506 97.4329 26.6 97.39C26.636 97.3782 26.669 97.3586 26.6966 97.3327C26.7242 97.3068 26.7459 97.2752 26.76 97.24C26.7994 97.1661 26.82 97.0837 26.82 97C26.82 96.9163 26.7994 96.8339 26.76 96.76C26.7287 96.6884 26.6716 96.6313 26.6 96.6C26.506 96.5571 26.4033 96.5366 26.3 96.54H25.8V98.61H25.52ZM26.61 97.61L27.18 98.61H26.86L26.3 97.61H26.61Z" fill="#CEEFE3"/>
<path d="M18.84 102.43L18.2 100.11H18.49L19 102L19.49 100.11H19.8L20.3 102L20.79 100.11H21.07L20.44 102.43H20.15L19.64 100.58L19.13 102.43H18.84Z" fill="#CEEFE3"/>
<path d="M23.29 101.27C23.2942 101.491 23.2463 101.711 23.15 101.91C23.0728 102.079 22.947 102.222 22.7886 102.32C22.6301 102.418 22.4462 102.467 22.26 102.46C22.0771 102.462 21.8973 102.413 21.74 102.32C21.5806 102.221 21.4524 102.079 21.37 101.91C21.2772 101.71 21.2327 101.49 21.24 101.27C21.2335 101.053 21.278 100.837 21.37 100.64C21.4517 100.473 21.5783 100.332 21.7355 100.234C21.8926 100.135 22.0743 100.081 22.26 100.08C22.4477 100.076 22.6323 100.128 22.79 100.23C22.9491 100.327 23.0748 100.47 23.15 100.64C23.2454 100.836 23.2934 101.052 23.29 101.27ZM23.01 101.27C23.0167 101.094 22.9825 100.92 22.91 100.76C22.8541 100.631 22.7598 100.523 22.64 100.45C22.5265 100.377 22.3946 100.339 22.26 100.34C22.1256 100.341 21.9941 100.379 21.88 100.45C21.7651 100.529 21.6722 100.635 21.61 100.76C21.482 101.081 21.482 101.439 21.61 101.76C21.6694 101.886 21.7629 101.994 21.88 102.07C21.9941 102.141 22.1256 102.179 22.26 102.18C22.3946 102.181 22.5265 102.142 22.64 102.07C22.7621 102 22.8572 101.891 22.91 101.76C22.9761 101.605 23.0068 101.438 23 101.27H23.01Z" fill="#CEEFE3"/>
<path d="M23.76 102.43V100.11H24.54C24.6962 100.103 24.8516 100.137 24.99 100.21C25.0986 100.264 25.1865 100.351 25.24 100.46C25.3001 100.57 25.3311 100.694 25.33 100.82C25.3323 100.949 25.3013 101.076 25.24 101.19C25.1837 101.297 25.0966 101.384 24.99 101.44C24.849 101.504 24.6949 101.535 24.54 101.53H23.91V101.27H24.54C24.6358 101.289 24.7342 101.289 24.83 101.27C24.9043 101.239 24.9647 101.182 25 101.11C25.0348 101.035 25.052 100.953 25.05 100.87C25.05 100.787 25.033 100.706 25 100.63C24.9615 100.56 24.9021 100.504 24.83 100.47C24.7367 100.425 24.6335 100.404 24.53 100.41H24V102.48L23.76 102.43ZM24.85 101.43L25.42 102.43H25.09L24.53 101.43H24.85Z" fill="#CEEFE3"/>
<path d="M25.79 102.43V100.11H26.07V102.18H27.15V102.43H25.79Z" fill="#CEEFE3"/>
<path d="M28.3 102.43H27.59V100.11H28.33C28.5322 100.105 28.7322 100.153 28.91 100.25C29.068 100.346 29.1961 100.485 29.28 100.65C29.3659 100.845 29.4103 101.056 29.4103 101.27C29.4103 101.483 29.3659 101.695 29.28 101.89C29.1933 102.056 29.0617 102.195 28.9 102.29C28.7154 102.388 28.5087 102.436 28.3 102.43ZM27.87 102.18H28.28C28.4467 102.184 28.6117 102.146 28.76 102.07C28.8849 102 28.9833 101.891 29.04 101.76C29.165 101.438 29.165 101.082 29.04 100.76C28.9841 100.631 28.8898 100.523 28.77 100.45C28.6294 100.372 28.4704 100.334 28.31 100.34H27.87V102.18Z" fill="#CEEFE3"/>
</g>
<defs>
<clipPath id="clip0_0_9964">
<rect width="114.55" height="195.48" fill="white"/>
</clipPath>
</defs>
</svg>
