<svg width="137" height="137" viewBox="0 0 137 137" fill="none" xmlns="http://www.w3.org/2000/svg">
<g clip-path="url(#clip0_0_10015)">
<path d="M136.37 0H0V136.37H136.37V0Z" fill="#F7C705"/>
<path d="M70.21 12.15C71.8731 12.2273 73.4707 12.8216 74.78 13.85C75.84 14.75 76.7533 16.71 77.52 19.73C78.0536 21.7027 78.4644 23.7065 78.75 25.73C79.1151 27.4256 79.7319 29.057 80.58 30.57C81.0473 31.5981 81.6063 32.5821 82.25 33.51C83.2706 34.7578 84.1744 36.0968 84.95 37.51C86.2188 39.0244 87.2721 40.707 88.08 42.51C89.1109 42.7383 90.0757 43.2002 90.9 43.86C92.6243 45.7242 93.6123 48.1516 93.68 50.69C93.68 50.69 93.68 50.77 93.6 50.77L93.68 51.12L93.6 51.56C93.6547 51.8096 93.6816 52.0645 93.68 52.32C93.68 52.32 93.68 52.4 93.6 52.4C93.52 52.4 93.6 52.47 93.68 52.47L93.6 52.83V53.27C93.4757 55.2015 93.1846 57.1187 92.73 59C92 62 91.2 64 90.43 64.85C89.5596 65.921 88.421 66.7422 87.13 67.23C86.8339 67.2861 86.543 67.3664 86.26 67.47H86.1C84.85 67.47 84.15 67.31 83.99 66.99L83.87 67.07L83.52 66.91C80.02 69.19 77.8867 70.33 77.12 70.33C76.0971 70.7643 75.0152 71.044 73.91 71.16V71.08L73.79 71.16H71.32L70.93 71.08L70.77 71.16C68.9631 70.9892 67.1946 70.5335 65.53 69.81C64.2793 69.3635 63.0925 68.755 62 68C60.5116 68.7258 58.8933 69.1474 57.24 69.24C57.24 69.39 56.67 69.47 55.53 69.47C53.5537 69.3514 51.628 68.7982 49.89 67.85C48.2186 66.7052 46.9103 65.1054 46.12 63.24C45.9623 62.8037 45.855 62.3507 45.8 61.89C45.836 61.2084 45.9673 60.5352 46.19 59.89C44.84 58.44 44.19 57.19 44.19 56.16L44 54.76C44.0075 53.7344 44.3597 52.7412 45 51.94C43.9926 50.8706 43.4126 49.4686 43.37 48L43.44 47.84C43.3981 47.5083 43.3747 47.1744 43.37 46.84V46.6C43.4446 45.8664 43.7332 45.1709 44.2 44.6C43.4729 43.497 42.9857 42.2534 42.77 40.95V40.07C42.7673 39.9619 42.7399 39.8559 42.69 39.76L42.77 39.64L42.69 39.32C42.69 38.98 42.76 38.8 42.81 38.8V38.64C43.37 36.45 44.2 34.99 45.31 34.28C47.19 32.63 48.46 31.79 49.12 31.73C50.2009 31.4463 51.3055 31.2622 52.42 31.18C52.42 31.1 52.58 31.05 52.9 31.02C52.9581 31.0645 53.0273 31.0921 53.1 31.1C53.4064 30.9975 53.7269 30.9435 54.05 30.94H56.91C58.05 30.94 59.66 30.94 61.75 30.86C61.8088 30.9032 61.8776 30.9308 61.95 30.94C63.0543 30.9781 64.1535 30.7732 65.17 30.34L64.41 24.27L64.26 22.64H64.33L64.26 22.48V20.92C64.2487 19.0877 64.6701 17.2787 65.49 15.64C65.9049 15.0323 66.3699 14.4603 66.88 13.93C68.15 12.79 69.17 12.22 69.88 12.22C69.9948 12.2365 70.1118 12.2117 70.21 12.15ZM66.28 21.15H66.2C66.2406 21.2247 66.2677 21.3059 66.28 21.39C66.2817 21.4009 66.2808 21.4121 66.2774 21.4226C66.274 21.433 66.2681 21.4426 66.2603 21.4504C66.2526 21.4582 66.243 21.464 66.2325 21.4674C66.222 21.4708 66.2109 21.4717 66.2 21.47C66.2137 21.7921 66.2674 22.1112 66.36 22.42C66.3194 22.4947 66.2923 22.5759 66.28 22.66L66.36 23.02C66.3617 23.0309 66.3608 23.0421 66.3574 23.0526C66.354 23.063 66.3481 23.0726 66.3403 23.0804C66.3325 23.0882 66.323 23.094 66.3125 23.0974C66.302 23.1008 66.2909 23.1017 66.28 23.1L66.36 23.45V24C66.36 24.11 66.36 24.16 66.48 24.16L66.4 24.52V25C66.82 27.36 67.17 29.74 67.4 32.15H67.32L67.4 32.31V32.75C67.397 32.9759 67.4239 33.2012 67.48 33.42C67.35 36.42 67.12 37.87 66.81 37.87C66.5732 38.0033 66.3166 38.0978 66.05 38.15C66.0301 38.1567 66.0084 38.1551 65.9897 38.1457C65.9709 38.1364 65.9566 38.1199 65.95 38.1C65.9434 38.0801 65.9449 38.0584 65.9543 38.0397C65.9637 38.0209 65.9801 38.0067 66 38L65.88 38.08C65.51 38.08 65.33 37.68 65.33 36.89V35.54C65.3271 35.4288 65.2998 35.3195 65.25 35.22C65.3033 35.1365 65.3311 35.0391 65.33 34.94L65.25 34.54H65.33L65.25 34.43C65.2468 34.318 65.2745 34.2073 65.33 34.11C65.2782 33.887 65.2514 33.659 65.25 33.43V32.8L65.17 32.64C63.2744 33.125 61.3266 33.3769 59.37 33.39V33.31L59.25 33.39C59.0022 33.3457 58.7516 33.3189 58.5 33.31C58.44 33.31 58.42 33.31 58.42 33.39L58.1 33.31H57.42C56.31 33.21 55.69 33.15 55.56 33.15H54.56C51.07 33.5 49.32 33.84 49.32 34.15C48.0505 34.7417 46.9194 35.5934 46 36.65C45.8815 37.0091 45.7059 37.3468 45.48 37.65C45.3297 38.0373 45.1422 38.409 44.92 38.76C44.92 38.82 44.92 38.84 45 38.84C44.8979 39.2556 44.8476 39.6821 44.85 40.11V40.55C45.0031 42.0092 45.5646 43.3956 46.47 44.55C47.4 46.04 49.24 47.32 51.99 48.41C52.05 48.41 52.07 48.41 52.07 48.33C53.02 48.6369 54.0117 48.7954 55.01 48.8H55.33C57.2022 48.7527 59.0321 48.2333 60.65 47.29C61.6906 46.4261 62.5766 45.3913 63.27 44.23C63.3201 43.822 63.3435 43.4111 63.34 43C63.1217 42.087 62.7856 41.2063 62.34 40.38C61.2552 39.3022 59.8531 38.6012 58.34 38.38H56.75C56.7391 38.3817 56.728 38.3808 56.7175 38.3774C56.707 38.374 56.6975 38.3682 56.6897 38.3604C56.6819 38.3526 56.676 38.343 56.6726 38.3326C56.6692 38.3221 56.6683 38.3109 56.67 38.3C55.4442 38.4949 54.2606 38.8973 53.17 39.49C52.3265 39.9104 51.5054 40.3744 50.71 40.88C50.4832 40.9652 50.2422 41.0059 50 41C49.6641 40.7475 49.4129 40.3987 49.28 40C49.28 39.62 49.59 39.37 50.2 39.24C50.9789 38.7065 51.818 38.2668 52.7 37.93C52.7 37.88 52.76 37.8 52.9 37.69C53.04 37.58 52.42 37.22 51.47 36.69C50.62 36.56 50.2 36.19 50.2 35.58V35.34C50.4039 35.1056 50.6834 34.9499 50.99 34.9C51.9098 34.9893 52.7744 35.3795 53.45 36.01C53.8548 36.2633 54.1968 36.6052 54.45 37.01C55.2003 36.7349 55.991 36.5862 56.79 36.57H57.31C57.3209 36.5683 57.332 36.5692 57.3425 36.5726C57.353 36.576 57.3625 36.5819 57.3703 36.5897C57.3781 36.5975 57.384 36.607 57.3874 36.6175C57.3908 36.628 57.3917 36.6391 57.39 36.65C57.39 36.65 57.46 36.65 57.46 36.57C59.3765 36.5381 61.2546 37.1082 62.83 38.2C64.65 39.81 65.57 41.35 65.57 42.8V43.8C65.4249 44.8909 64.9975 45.925 64.33 46.8L64.41 47.16V47.4C64.2868 47.5452 64.2194 47.7296 64.22 47.92C64.2385 48.6696 64.1646 49.4185 64 50.15L64.08 50.31C63.8623 50.7514 63.701 51.2184 63.6 51.7L62.87 53C63.4815 53.5809 63.9092 54.3284 64.1 55.15C64.16 55.4234 64.2001 55.7008 64.22 55.98C64.1317 56.9569 63.8745 57.9111 63.46 58.8C64.46 59.28 64.97 59.8 64.97 60.35C65.1127 60.5733 65.1826 60.8353 65.17 61.1V61.26C65.17 63.88 64.6 65.7067 63.46 66.74L65.8 67.74C67.829 68.4638 69.9658 68.8391 72.12 68.85C72.299 68.799 72.4839 68.7721 72.67 68.77V68.85L72.83 68.77H73.23C74.03 68.77 76.09 68.15 79.43 66.9C81.2033 66.1092 82.7857 64.9462 84.07 63.49C84.7393 62.4694 85.2234 61.3388 85.5 60.15C85.5 60.15 85.5 60.07 85.42 60.07C85.34 60.07 85.42 59.9 85.5 59.63L85.42 59.12L85.5 59L85.15 56.93C83.9466 57.8108 82.5393 58.3716 81.06 58.56C80.2077 58.7572 79.342 58.8909 78.47 58.96L78.08 58.88H77.32C77.24 58.88 77.2 58.83 77.2 58.72L77.04 58.8C75.035 58.2987 73.1731 57.3404 71.6 56C70.6547 55.1465 69.7848 54.2131 69 53.21C68.2109 52.347 67.6626 51.2918 67.41 50.15V50C67.5567 49.7757 67.765 49.5986 68.01 49.49H68.37C68.8819 50.1251 69.2965 50.8329 69.6 51.59C70.1692 52.3363 70.8052 53.0291 71.5 53.66C72.4681 54.7855 73.7172 55.6343 75.12 56.12C76.1605 56.5513 77.2532 56.8438 78.37 56.99C80.5261 56.9444 82.6178 56.2472 84.37 54.99C85.09 54.19 85.51 53.8 85.64 53.8C86.5467 52.64 87 50.83 87 48.37V48.09C86.7534 46.215 86.2451 44.3839 85.49 42.65C84.8011 40.8699 83.8798 39.1886 82.75 37.65C82.1167 36.8767 81.19 35.5667 79.97 33.72C79.23 33 78.5 31.39 77.79 28.87C76.9512 26.7568 76.3508 24.5565 76 22.31C75.3333 19.03 74.7 16.98 74.1 16.16C74.1 15.7334 73.25 15.1634 71.55 14.45C71.0489 14.2901 70.526 14.2091 70 14.21C69.0865 14.4226 68.2659 14.9241 67.66 15.64C67.4473 16.1189 67.1859 16.5746 66.88 17C66.4661 18.3336 66.2636 19.7238 66.28 21.12V21.15ZM45.43 46.3C45.3096 46.6224 45.229 46.9582 45.19 47.3C45.3634 48.5505 45.9187 49.717 46.78 50.64C47.6065 51.6304 48.6276 52.4405 49.78 53.02C51.249 53.8689 52.9044 54.3428 54.6 54.4C56.9996 54.4648 59.3279 53.5809 61.08 51.94C61.6815 51.3553 62.1075 50.6141 62.31 49.8V49.64V49.56C62.31 49.45 62.31 49.4 62.43 49.4C62.55 49.4 62.43 49.32 62.35 49.32L62.43 48.8V48.6H62.35C61.8914 48.7717 61.4628 49.0147 61.08 49.32C59.5663 50.3221 57.8127 50.902 56 51V50.92C55.95 50.92 55.93 50.92 55.93 51L55.09 50.84C55.09 50.84 55.09 50.84 55.09 50.92C53.4132 50.7376 51.7627 50.3652 50.17 49.81C48.9433 49.2696 47.8147 48.5296 46.83 47.62L45.43 46.3ZM46.5 53.49C46.298 53.8307 46.1655 54.2079 46.11 54.6C46.0426 55.6184 46.3603 56.6249 47 57.42C47.7075 58.4147 48.6132 59.2522 49.66 59.88C50.9864 60.7723 52.5515 61.2429 54.15 61.23C56.5449 61.3843 58.9106 60.6349 60.78 59.13C61.5319 58.508 62.0617 57.6588 62.29 56.71V56.11C62.02 55.11 61.79 54.53 61.57 54.4C60.3575 55.4871 58.7979 56.1074 57.17 56.15C57.17 56.23 56.66 56.31 55.66 56.39V56.31C55.6 56.31 55.58 56.31 55.58 56.39C53.6855 56.3528 51.8088 56.0152 50.02 55.39C48.7941 54.9082 47.6426 54.255 46.6 53.45L46.5 53.49ZM62.5 60.32C62.18 61.06 60.95 61.75 58.8 62.38C57.5506 62.9876 56.1883 63.3282 54.8 63.38H54C51.22 63.09 49.83 62.78 49.83 62.46C49.2401 62.2569 48.7083 61.9137 48.28 61.46C48.36 61.46 48.4 61.46 48.4 61.38C48.3556 61.3219 48.3279 61.2528 48.32 61.18V61.46L47.96 61.38C47.96 61.38 47.96 61.46 47.88 61.46L47.96 61.82L47.88 61.98C48.1588 62.8914 48.6332 63.7309 49.27 64.44C49.86 64.97 50.46 65.51 51.1 66.07C52.3719 66.9489 53.85 67.483 55.39 67.62C55.4009 67.6217 55.412 67.6208 55.4225 67.6174C55.433 67.614 55.4425 67.6082 55.4503 67.6004C55.4581 67.5926 55.464 67.583 55.4674 67.5725C55.4708 67.5621 55.4717 67.5509 55.47 67.54L55.79 67.62C58.35 67.62 60.05 67.13 60.87 66.15C61.16 66.15 61.68 65.7 62.42 64.8C62.8241 64.0316 63.0786 63.1934 63.17 62.33C63.1299 61.6025 62.9137 60.8956 62.54 60.27L62.5 60.32ZM88.76 44.87V45C88.9357 45.7029 89.056 46.4184 89.12 47.14H89C89.1359 47.6993 89.1898 48.2753 89.16 48.85V49.09C89.1433 49.1826 89.1433 49.2774 89.16 49.37C89.0568 50.4066 88.8559 51.4312 88.56 52.43C88.3051 53.5617 87.7408 54.6004 86.93 55.43C86.83 55.43 86.77 55.43 86.77 55.55V55.63C87.2537 56.7063 87.5123 57.8702 87.53 59.05C87.3318 60.7747 86.8768 62.46 86.18 64.05C85.732 64.5359 85.358 65.0851 85.07 65.68H85.14L85.5 65.76C86.7365 65.532 87.8505 64.8686 88.64 63.89C89.491 62.4925 90.1091 60.9659 90.47 59.37C91.2161 56.9358 91.6035 54.4059 91.62 51.86C91.5634 49.9082 91.0313 47.9996 90.07 46.3C89.6646 45.7956 89.2271 45.3179 88.76 44.87Z" fill="#E16C05"/>
<path d="M16 97.23V85.6H24.11V87.88H18.81V90.27H23.69V92.56H18.84V95H24.14V97.28L16 97.23Z" fill="#E16C05"/>
<path d="M28.54 85.6L31.14 94.12H31.24L33.84 85.6H37L33.06 97.23H29.32L25.39 85.6H28.54Z" fill="#E16C05"/>
<path d="M38.24 97.23V85.6H46.35V87.88H41.05V90.27H45.94V92.56H41.05V95H46.35V97.28L38.24 97.23Z" fill="#E16C05"/>
<path d="M48.11 97.23V85.6H52.92C53.6997 85.5782 54.4736 85.7392 55.18 86.07C55.7893 86.3612 56.2977 86.8279 56.64 87.41C56.9997 88.0357 57.1796 88.7485 57.16 89.47C57.1803 90.1928 56.9966 90.9067 56.63 91.53C56.2717 92.0991 55.7484 92.5456 55.13 92.81C54.4034 93.1185 53.6192 93.2686 52.83 93.25H49.83V91H52.35C52.7101 91.0107 53.0691 90.9565 53.41 90.84C53.6755 90.7388 53.9051 90.5614 54.07 90.33C54.2145 90.0556 54.29 89.7501 54.29 89.44C54.29 89.1298 54.2145 88.8244 54.07 88.55C53.913 88.3043 53.6818 88.1152 53.41 88.01C53.0719 87.8811 52.7117 87.8199 52.35 87.83H50.92V97.2L48.11 97.23ZM54.66 91.91L57.56 97.23H54.49L51.65 91.91H54.66Z" fill="#E16C05"/>
<path d="M57.61 85.6H60.75L63.21 90.47H63.31L65.77 85.6H68.91L64.66 93.35V97.23H61.86V93.35L57.61 85.6Z" fill="#E16C05"/>
<path d="M70.44 87.88V85.6H80.27V87.88H76.74V97.23H74V87.88H70.44Z" fill="#E16C05"/>
<path d="M81.65 97.23V85.6H84.46V90.27H89.05V85.6H91.85V97.23H89.05V92.56H84.46V97.23H81.65Z" fill="#E16C05"/>
<path d="M96.42 85.6V97.23H93.61V85.6H96.42Z" fill="#E16C05"/>
<path d="M108.08 85.6V97.23H105.7L101.07 90.52H101V97.23H98.18V85.6H100.6L105.18 92.3H105.28V85.6H108.08Z" fill="#E16C05"/>
<path d="M117.48 89.4C117.418 89.1725 117.32 88.9564 117.19 88.76C117.068 88.5781 116.912 88.4219 116.73 88.3C116.541 88.1665 116.332 88.0652 116.11 88C115.859 87.9347 115.6 87.9011 115.34 87.9C114.82 87.889 114.309 88.0316 113.87 88.31C113.428 88.6005 113.08 89.0142 112.87 89.5C112.635 90.1052 112.523 90.751 112.54 91.4C112.526 92.0511 112.634 92.699 112.86 93.31C113.05 93.7931 113.376 94.2103 113.8 94.51C114.243 94.7969 114.763 94.9401 115.29 94.92C115.74 94.934 116.187 94.8486 116.6 94.67C116.936 94.5167 117.218 94.2659 117.41 93.95C117.606 93.6209 117.703 93.2426 117.69 92.86L118.21 92.92H115.38V90.92H120.38V92.46C120.407 93.3935 120.179 94.3166 119.72 95.13C119.313 95.8331 118.717 96.4081 118 96.79C117.175 97.2022 116.262 97.4081 115.34 97.39C114.32 97.4123 113.313 97.1639 112.42 96.67C111.566 96.1936 110.871 95.4774 110.42 94.61C109.93 93.6234 109.689 92.5313 109.72 91.43C109.704 90.5639 109.849 89.7024 110.15 88.89C110.407 88.1845 110.809 87.5407 111.33 87C111.831 86.4849 112.438 86.0856 113.11 85.83C113.801 85.5576 114.538 85.4217 115.28 85.43C115.918 85.4261 116.553 85.524 117.16 85.72C117.72 85.902 118.244 86.1794 118.71 86.54C119.15 86.8825 119.521 87.307 119.8 87.79C120.08 88.2827 120.257 88.827 120.32 89.39L117.48 89.4Z" fill="#E16C05"/>
<path d="M33.26 121.22L29.88 109.59H33L34.76 117.21H34.85L36.85 109.59H39.38L41.38 117.23H41.47L43.23 109.59H46.33L43 121.22H40.25L38.15 114.22H38.06L35.96 121.22H33.26Z" fill="#E16C05"/>
<path d="M48.74 121.22H45.74L49.67 109.59H53.41L57.33 121.22H54.33L51.6 112.52H51.51L48.74 121.22ZM48.34 116.64H54.66V118.78H48.34V116.64Z" fill="#E16C05"/>
<path d="M64.49 113.08C64.4829 112.887 64.4346 112.698 64.3484 112.526C64.2621 112.353 64.1399 112.201 63.99 112.08C63.6183 111.823 63.1707 111.7 62.72 111.73C62.4098 111.721 62.1008 111.772 61.81 111.88C61.5946 111.952 61.4063 112.088 61.27 112.27C61.1468 112.431 61.08 112.628 61.08 112.83C61.0704 112.99 61.105 113.149 61.18 113.29C61.2704 113.43 61.3897 113.55 61.53 113.64C61.6966 113.752 61.8785 113.84 62.07 113.9C62.3005 113.987 62.538 114.054 62.78 114.1L63.78 114.33C64.3082 114.435 64.822 114.602 65.31 114.83C65.7156 115.019 66.09 115.268 66.42 115.57C66.7158 115.853 66.9506 116.193 67.11 116.57C67.2675 116.971 67.3456 117.399 67.34 117.83C67.3538 118.501 67.1619 119.161 66.79 119.72C66.4025 120.294 65.8524 120.74 65.21 121C64.4146 121.298 63.5693 121.441 62.72 121.42C61.853 121.437 60.9907 121.288 60.18 120.98C59.4921 120.723 58.9013 120.258 58.49 119.65C58.0643 118.978 57.8484 118.195 57.87 117.4H60.56C60.5726 117.735 60.6763 118.06 60.86 118.34C61.0492 118.592 61.3057 118.787 61.6 118.9C61.9463 119.039 62.317 119.107 62.69 119.1C63.0307 119.114 63.3707 119.059 63.69 118.94C63.9276 118.858 64.1384 118.713 64.3 118.52C64.4433 118.341 64.521 118.119 64.52 117.89C64.5248 117.685 64.4535 117.486 64.32 117.33C64.1533 117.146 63.9438 117.005 63.71 116.92C63.3856 116.787 63.0512 116.68 62.71 116.6L61.49 116.31C60.5699 116.151 59.7096 115.747 59 115.14C58.7083 114.876 58.4789 114.551 58.3284 114.188C58.1779 113.825 58.1102 113.433 58.13 113.04C58.1148 112.364 58.3182 111.701 58.71 111.15C59.1272 110.59 59.6865 110.151 60.33 109.88C61.077 109.568 61.8807 109.415 62.69 109.43C63.4975 109.41 64.2996 109.567 65.04 109.89C65.6655 110.16 66.2001 110.604 66.58 111.17C66.956 111.736 67.1545 112.401 67.15 113.08H64.49Z" fill="#E16C05"/>
<path d="M72.21 121.22V109.59H80.15V111.87H75V114.26H79.63V116.55H75V121.22H72.21Z" fill="#E16C05"/>
<path d="M84.37 109.59V121.22H81.56V109.59H84.37Z" fill="#E16C05"/>
<path d="M96 109.59V121.22H93.65L89 114.51H88.92V121.22H86.13V109.59H88.55L93.13 116.29H93.23V109.59H96Z" fill="#E16C05"/>
<path d="M97.79 121.22V109.59H105.9V111.87H100.6V114.26H105.49V116.55H100.6V118.94H105.9V121.22H97.79Z" fill="#E16C05"/>
</g>
<defs>
<clipPath id="clip0_0_10015">
<rect width="136.37" height="136.37" fill="white"/>
</clipPath>
</defs>
</svg>
