<svg width="297" height="122" viewBox="0 0 297 122" fill="none" xmlns="http://www.w3.org/2000/svg">
<g clip-path="url(#clip0_0_10038)">
<path d="M296.66 60.32V121.82H10V60.32H86.77C90.8752 45.8307 99.5964 33.0768 111.609 23.9946C123.622 14.9125 138.27 9.99841 153.33 9.99841C168.39 9.99841 183.038 14.9125 195.051 23.9946C207.064 33.0768 215.785 45.8307 219.89 60.32H296.66Z" fill="#202067"/>
<path d="M296.56 60.2201V121.72H9.89999V60.2201H86.67C90.7752 45.7308 99.4964 32.9768 111.509 23.8947C123.522 14.8126 138.17 9.89844 153.23 9.89844C168.29 9.89844 182.938 14.8126 194.951 23.8947C206.964 32.9768 215.685 45.7308 219.79 60.2201H296.56Z" fill="#202067"/>
<path d="M296.46 60.12V121.62H9.79999V60.12H86.57C90.6752 45.6307 99.3964 32.8767 111.409 23.7946C123.422 14.7125 138.07 9.7984 153.13 9.7984C168.19 9.7984 182.838 14.7125 194.851 23.7946C206.864 32.8767 215.585 45.6307 219.69 60.12H296.46Z" fill="#202067"/>
<path d="M296.36 60V121.5H9.70001V60H86.47C90.5753 45.5107 99.2964 32.7567 111.309 23.6746C123.322 14.5925 137.97 9.67841 153.03 9.67841C168.09 9.67841 182.738 14.5925 194.751 23.6746C206.764 32.7567 215.485 45.5107 219.59 60H296.36Z" fill="#202067"/>
<path d="M296.26 59.92V121.42H9.60001V59.92H86.37C90.4753 45.4307 99.1964 32.6767 111.209 23.5946C123.222 14.5125 137.87 9.59839 152.93 9.59839C167.99 9.59839 182.638 14.5125 194.651 23.5946C206.664 32.6767 215.385 45.4307 219.49 59.92H296.26Z" fill="#202067"/>
<path d="M296.16 59.82V121.32H9.5V59.82H86.27C90.3752 45.3307 99.0964 32.5768 111.109 23.4946C123.122 14.4125 137.77 9.49841 152.83 9.49841C167.89 9.49841 182.538 14.4125 194.551 23.4946C206.564 32.5768 215.285 45.3307 219.39 59.82H296.16Z" fill="#202067"/>
<path d="M296.06 59.7201V121.22H9.39999V59.7201H86.17C90.2752 45.2308 98.9964 32.4768 111.009 23.3947C123.022 14.3126 137.67 9.39844 152.73 9.39844C167.79 9.39844 182.438 14.3126 194.451 23.3947C206.464 32.4768 215.185 45.2308 219.29 59.7201H296.06Z" fill="#202067"/>
<path d="M296 59.62V121.12H9.29999V59.62H86.07C90.1752 45.1307 98.8964 32.3767 110.909 23.2946C122.922 14.2125 137.57 9.2984 152.63 9.2984C167.69 9.2984 182.338 14.2125 194.351 23.2946C206.364 32.3767 215.085 45.1307 219.19 59.62H296Z" fill="#202067"/>
<path d="M295.86 59.52V121H9.20001V59.52H86C90.1053 45.0307 98.8264 32.2768 110.839 23.1947C122.852 14.1126 137.5 9.19843 152.56 9.19843C167.62 9.19843 182.268 14.1126 194.281 23.1947C206.294 32.2768 215.015 45.0307 219.12 59.52H295.86Z" fill="#202067"/>
<path d="M295.76 59.42V120.92H9.10001V59.42H85.87C89.9753 44.9307 98.6964 32.1767 110.709 23.0946C122.722 14.0125 137.37 9.09839 152.43 9.09839C167.49 9.09839 182.138 14.0125 194.151 23.0946C206.164 32.1767 214.885 44.9307 218.99 59.42H295.76Z" fill="#202067"/>
<path d="M295.66 59.32V120.82H9V59.32H85.77C89.8752 44.8307 98.5964 32.0768 110.609 22.9946C122.622 13.9125 137.27 8.99841 152.33 8.99841C167.39 8.99841 182.038 13.9125 194.051 22.9946C206.064 32.0768 214.785 44.8307 218.89 59.32H295.66Z" fill="#202067"/>
<path d="M295.56 59.2201V120.72H8.89999V59.2201H85.67C89.7752 44.7308 98.4964 31.9768 110.509 22.8947C122.522 13.8126 137.17 8.89844 152.23 8.89844C167.29 8.89844 181.938 13.8126 193.951 22.8947C205.964 31.9768 214.685 44.7308 218.79 59.2201H295.56Z" fill="#202067"/>
<path d="M295.46 59.12V120.62H8.79999V59.12H85.57C89.6752 44.6307 98.3964 31.8767 110.409 22.7946C122.422 13.7125 137.07 8.7984 152.13 8.7984C167.19 8.7984 181.838 13.7125 193.851 22.7946C205.864 31.8767 214.585 44.6307 218.69 59.12H295.46Z" fill="#202067"/>
<path d="M295.36 59V120.5H8.70001V59H85.47C89.5753 44.5107 98.2964 31.7567 110.309 22.6746C122.322 13.5925 136.97 8.67841 152.03 8.67841C167.09 8.67841 181.738 13.5925 193.751 22.6746C205.764 31.7567 214.485 44.5107 218.59 59H295.36Z" fill="#202067"/>
<path d="M295.26 58.92V120.42H8.60001V58.92H85.37C89.4753 44.4307 98.1964 31.6767 110.209 22.5946C122.222 13.5125 136.87 8.59839 151.93 8.59839C166.99 8.59839 181.638 13.5125 193.651 22.5946C205.664 31.6767 214.385 44.4307 218.49 58.92H295.26Z" fill="#202067"/>
<path d="M295.16 58.82V120.32H8.5V58.82H85.27C89.3752 44.3307 98.0964 31.5768 110.109 22.4946C122.122 13.4125 136.77 8.49841 151.83 8.49841C166.89 8.49841 181.538 13.4125 193.551 22.4946C205.564 31.5768 214.285 44.3307 218.39 58.82H295.16Z" fill="#202067"/>
<path d="M295.06 58.7201V120.22H8.39999V58.7201H85.17C89.2752 44.2308 97.9964 31.4768 110.009 22.3947C122.022 13.3126 136.67 8.39844 151.73 8.39844C166.79 8.39844 181.438 13.3126 193.451 22.3947C205.464 31.4768 214.185 44.2308 218.29 58.7201H295.06Z" fill="#202067"/>
<path d="M295 58.62V120.12H8.29999V58.62H85.07C89.1752 44.1307 97.8964 31.3767 109.909 22.2946C121.922 13.2125 136.57 8.2984 151.63 8.2984C166.69 8.2984 181.338 13.2125 193.351 22.2946C205.364 31.3767 214.085 44.1307 218.19 58.62H295Z" fill="#202067"/>
<path d="M294.86 58.52V120H8.20001V58.52H85C89.1053 44.0307 97.8264 31.2768 109.839 22.1947C121.852 13.1126 136.5 8.19843 151.56 8.19843C166.62 8.19843 181.268 13.1126 193.281 22.1947C205.294 31.2768 214.015 44.0307 218.12 58.52H294.86Z" fill="#202067"/>
<path d="M294.76 58.42V119.92H8.10001V58.42H84.87C88.9753 43.9307 97.6964 31.1767 109.709 22.0946C121.722 13.0125 136.37 8.09839 151.43 8.09839C166.49 8.09839 181.138 13.0125 193.151 22.0946C205.164 31.1767 213.885 43.9307 217.99 58.42H294.76Z" fill="#202067"/>
<path d="M294.66 58.32V119.82H8V58.32H84.77C88.8752 43.8307 97.5964 31.0768 109.609 21.9946C121.622 12.9125 136.27 7.99841 151.33 7.99841C166.39 7.99841 181.038 12.9125 193.051 21.9946C205.064 31.0768 213.785 43.8307 217.89 58.32H294.66Z" fill="#202067"/>
<path d="M294.56 58.2201V119.72H7.89999V58.2201H84.67C88.7752 43.7308 97.4964 30.9768 109.509 21.8947C121.522 12.8126 136.17 7.89844 151.23 7.89844C166.29 7.89844 180.938 12.8126 192.951 21.8947C204.964 30.9768 213.685 43.7308 217.79 58.2201H294.56Z" fill="#202067"/>
<path d="M294.46 58.12V119.62H7.79999V58.12H84.57C88.6752 43.6307 97.3964 30.8767 109.409 21.7946C121.422 12.7125 136.07 7.7984 151.13 7.7984C166.19 7.7984 180.838 12.7125 192.851 21.7946C204.864 30.8767 213.585 43.6307 217.69 58.12H294.46Z" fill="#202067"/>
<path d="M294.36 58V119.5H7.70001V58H84.47C88.5753 43.5107 97.2964 30.7567 109.309 21.6746C121.322 12.5925 135.97 7.67841 151.03 7.67841C166.09 7.67841 180.738 12.5925 192.751 21.6746C204.764 30.7567 213.485 43.5107 217.59 58H294.36Z" fill="#202067"/>
<path d="M294.26 57.92V119.42H7.60001V57.92H84.37C88.4753 43.4307 97.1964 30.6767 109.209 21.5946C121.222 12.5125 135.87 7.59839 150.93 7.59839C165.99 7.59839 180.638 12.5125 192.651 21.5946C204.664 30.6767 213.385 43.4307 217.49 57.92H294.26Z" fill="#202067"/>
<path d="M294.16 57.82V119.32H7.5V57.82H84.27C88.3752 43.3307 97.0964 30.5768 109.109 21.4946C121.122 12.4125 135.77 7.49841 150.83 7.49841C165.89 7.49841 180.538 12.4125 192.551 21.4946C204.564 30.5768 213.285 43.3307 217.39 57.82H294.16Z" fill="#202067"/>
<path d="M294.06 57.7201V119.22H7.39999V57.7201H84.17C88.2752 43.2308 96.9964 30.4768 109.009 21.3947C121.022 12.3126 135.67 7.39844 150.73 7.39844C165.79 7.39844 180.438 12.3126 192.451 21.3947C204.464 30.4768 213.185 43.2308 217.29 57.7201H294.06Z" fill="#202067"/>
<path d="M294 57.62V119.12H7.29999V57.62H84.07C88.1752 43.1307 96.8964 30.3767 108.909 21.2946C120.922 12.2125 135.57 7.2984 150.63 7.2984C165.69 7.2984 180.338 12.2125 192.351 21.2946C204.364 30.3767 213.085 43.1307 217.19 57.62H294Z" fill="#202067"/>
<path d="M293.86 57.52V119H7.20001V57.52H84C88.1053 43.0307 96.8264 30.2768 108.839 21.1947C120.852 12.1126 135.5 7.19843 150.56 7.19843C165.62 7.19843 180.268 12.1126 192.281 21.1947C204.294 30.2768 213.015 43.0307 217.12 57.52H293.86Z" fill="#202067"/>
<path d="M293.76 57.42V118.92H7.10001V57.42H83.87C87.9753 42.9307 96.6964 30.1767 108.709 21.0946C120.722 12.0125 135.37 7.09839 150.43 7.09839C165.49 7.09839 180.138 12.0125 192.151 21.0946C204.164 30.1767 212.885 42.9307 216.99 57.42H293.76Z" fill="#202067"/>
<path d="M293.66 57.32V118.82H7V57.32H83.77C87.8752 42.8307 96.5964 30.0768 108.609 20.9946C120.622 11.9125 135.27 6.99841 150.33 6.99841C165.39 6.99841 180.038 11.9125 192.051 20.9946C204.064 30.0768 212.785 42.8307 216.89 57.32H293.66Z" fill="#202067"/>
<path d="M293.56 57.2201V118.72H6.89999V57.2201H83.67C87.7752 42.7308 96.4964 29.9768 108.509 20.8947C120.522 11.8126 135.17 6.89844 150.23 6.89844C165.29 6.89844 179.938 11.8126 191.951 20.8947C203.964 29.9768 212.685 42.7308 216.79 57.2201H293.56Z" fill="#202067"/>
<path d="M293.46 57.12V118.62H6.8V57.12H83.57C87.6752 42.6307 96.3964 29.8767 108.409 20.7946C120.422 11.7125 135.07 6.7984 150.13 6.7984C165.19 6.7984 179.838 11.7125 191.851 20.7946C203.864 29.8767 212.585 42.6307 216.69 57.12H293.46Z" fill="#202067"/>
<path d="M293.36 57V118.5H6.7V57H83.47C87.5752 42.5107 96.2964 29.7567 108.309 20.6746C120.322 11.5925 134.97 6.67841 150.03 6.67841C165.09 6.67841 179.738 11.5925 191.751 20.6746C203.764 29.7567 212.485 42.5107 216.59 57H293.36Z" fill="#202067"/>
<path d="M293.26 56.92V118.42H6.60001V56.92H83.37C87.4753 42.4307 96.1964 29.6767 108.209 20.5946C120.222 11.5125 134.87 6.59839 149.93 6.59839C164.99 6.59839 179.638 11.5125 191.651 20.5946C203.664 29.6767 212.385 42.4307 216.49 56.92H293.26Z" fill="#202067"/>
<path d="M293.16 56.82V118.32H6.5V56.82H83.27C87.3752 42.3307 96.0964 29.5768 108.109 20.4946C120.122 11.4125 134.77 6.49841 149.83 6.49841C164.89 6.49841 179.538 11.4125 191.551 20.4946C203.564 29.5768 212.285 42.3307 216.39 56.82H293.16Z" fill="#202067"/>
<path d="M293.06 56.7201V118.22H6.39999V56.7201H83.17C87.2752 42.2308 95.9964 29.4768 108.009 20.3947C120.022 11.3126 134.67 6.39844 149.73 6.39844C164.79 6.39844 179.438 11.3126 191.451 20.3947C203.464 29.4768 212.185 42.2308 216.29 56.7201H293.06Z" fill="#202067"/>
<path d="M293 56.62V118.12H6.3V56.62H83.07C87.1752 42.1307 95.8964 29.3767 107.909 20.2946C119.922 11.2125 134.57 6.2984 149.63 6.2984C164.69 6.2984 179.338 11.2125 191.351 20.2946C203.364 29.3767 212.085 42.1307 216.19 56.62H293Z" fill="#202067"/>
<path d="M292.86 56.52V118H6.2V56.52H83C87.1052 42.0307 95.8264 29.2768 107.839 20.1947C119.852 11.1126 134.5 6.19843 149.56 6.19843C164.62 6.19843 179.268 11.1126 191.281 20.1947C203.294 29.2768 212.015 42.0307 216.12 56.52H292.86Z" fill="#202067"/>
<path d="M292.76 56.42V117.92H6.10001V56.42H82.87C86.9753 41.9307 95.6964 29.1767 107.709 20.0946C119.722 11.0125 134.37 6.09839 149.43 6.09839C164.49 6.09839 179.138 11.0125 191.151 20.0946C203.164 29.1767 211.885 41.9307 215.99 56.42H292.76Z" fill="#202067"/>
<path d="M292.66 56.32V117.82H6V56.32H82.77C86.8752 41.8307 95.5964 29.0768 107.609 19.9946C119.622 10.9125 134.27 5.99841 149.33 5.99841C164.39 5.99841 179.038 10.9125 191.051 19.9946C203.064 29.0768 211.785 41.8307 215.89 56.32H292.66Z" fill="#202067"/>
<path d="M292.56 56.2201V117.72H5.89999V56.2201H82.67C86.7752 41.7308 95.4964 28.9768 107.509 19.8947C119.522 10.8126 134.17 5.89844 149.23 5.89844C164.29 5.89844 178.938 10.8126 190.951 19.8947C202.964 28.9768 211.685 41.7308 215.79 56.2201H292.56Z" fill="#202067"/>
<path d="M292.46 56.12V117.62H5.8V56.12H82.57C86.6752 41.6307 95.3964 28.8767 107.409 19.7946C119.422 10.7125 134.07 5.7984 149.13 5.7984C164.19 5.7984 178.838 10.7125 190.851 19.7946C202.864 28.8767 211.585 41.6307 215.69 56.12H292.46Z" fill="#202067"/>
<path d="M292.36 56V117.5H5.7V56H82.47C86.5752 41.5107 95.2964 28.7567 107.309 19.6746C119.322 10.5925 133.97 5.67841 149.03 5.67841C164.09 5.67841 178.738 10.5925 190.751 19.6746C202.764 28.7567 211.485 41.5107 215.59 56H292.36Z" fill="#202067"/>
<path d="M292.26 55.92V117.42H5.60001V55.92H82.37C86.4753 41.4307 95.1964 28.6767 107.209 19.5946C119.222 10.5125 133.87 5.59839 148.93 5.59839C163.99 5.59839 178.638 10.5125 190.651 19.5946C202.664 28.6767 211.385 41.4307 215.49 55.92H292.26Z" fill="#202067"/>
<path d="M292.16 55.82V117.32H5.5V55.82H82.27C86.3752 41.3307 95.0964 28.5768 107.109 19.4946C119.122 10.4125 133.77 5.49841 148.83 5.49841C163.89 5.49841 178.538 10.4125 190.551 19.4946C202.564 28.5768 211.285 41.3307 215.39 55.82H292.16Z" fill="#202067"/>
<path d="M292.06 55.7201V117.22H5.39999V55.7201H82.17C86.2752 41.2308 94.9964 28.4768 107.009 19.3947C119.022 10.3126 133.67 5.39844 148.73 5.39844C163.79 5.39844 178.438 10.3126 190.451 19.3947C202.464 28.4768 211.185 41.2308 215.29 55.7201H292.06Z" fill="#202067"/>
<path d="M292 55.62V117.12H5.3V55.62H82.07C86.1752 41.1307 94.8964 28.3767 106.909 19.2946C118.922 10.2125 133.57 5.2984 148.63 5.2984C163.69 5.2984 178.338 10.2125 190.351 19.2946C202.364 28.3767 211.085 41.1307 215.19 55.62H292Z" fill="#202067"/>
<path d="M291.86 55.52V117H5.2V55.52H82C86.1052 41.0307 94.8264 28.2768 106.839 19.1947C118.852 10.1126 133.5 5.19843 148.56 5.19843C163.62 5.19843 178.268 10.1126 190.281 19.1947C202.294 28.2768 211.015 41.0307 215.12 55.52H291.86Z" fill="#202067"/>
<path d="M291.76 55.42V116.92H5.10001V55.42H81.87C85.9753 40.9307 94.6964 28.1767 106.709 19.0946C118.722 10.0125 133.37 5.09839 148.43 5.09839C163.49 5.09839 178.138 10.0125 190.151 19.0946C202.164 28.1767 210.885 40.9307 214.99 55.42H291.76Z" fill="#202067"/>
<path d="M291.66 55.32V116.82H5V55.32H81.77C85.8752 40.8307 94.5964 28.0768 106.609 18.9946C118.622 9.91254 133.27 4.99841 148.33 4.99841C163.39 4.99841 178.038 9.91254 190.051 18.9946C202.064 28.0768 210.785 40.8307 214.89 55.32H291.66Z" fill="#202067"/>
<path d="M291.56 55.2201V116.72H4.89999V55.2201H81.67C85.7752 40.7308 94.4964 27.9768 106.509 18.8947C118.522 9.81257 133.17 4.89844 148.23 4.89844C163.29 4.89844 177.938 9.81257 189.951 18.8947C201.964 27.9768 210.685 40.7308 214.79 55.2201H291.56Z" fill="#202067"/>
<path d="M291.46 55.12V116.62H4.8V55.12H81.57C85.6752 40.6307 94.3964 27.8767 106.409 18.7946C118.422 9.71253 133.07 4.7984 148.13 4.7984C163.19 4.7984 177.838 9.71253 189.851 18.7946C201.864 27.8767 210.585 40.6307 214.69 55.12H291.46Z" fill="#202067"/>
<path d="M291.36 55V116.5H4.7V55H81.47C85.5752 40.5107 94.2964 27.7567 106.309 18.6746C118.322 9.59254 132.97 4.67841 148.03 4.67841C163.09 4.67841 177.738 9.59254 189.751 18.6746C201.764 27.7567 210.485 40.5107 214.59 55H291.36Z" fill="#202067"/>
<path d="M291.26 54.92V116.42H4.60001V54.92H81.37C85.4753 40.4307 94.1964 27.6767 106.209 18.5946C118.222 9.51252 132.87 4.59839 147.93 4.59839C162.99 4.59839 177.638 9.51252 189.651 18.5946C201.664 27.6767 210.385 40.4307 214.49 54.92H291.26Z" fill="#202067"/>
<path d="M291.16 54.82V116.32H4.5V54.82H81.27C85.3752 40.3307 94.0964 27.5768 106.109 18.4946C118.122 9.41254 132.77 4.49841 147.83 4.49841C162.89 4.49841 177.538 9.41254 189.551 18.4946C201.564 27.5768 210.285 40.3307 214.39 54.82H291.16Z" fill="#202067"/>
<path d="M291.06 54.7201V116.22H4.39999V54.7201H81.17C85.2752 40.2308 93.9964 27.4768 106.009 18.3947C118.022 9.31257 132.67 4.39844 147.73 4.39844C162.79 4.39844 177.438 9.31257 189.451 18.3947C201.464 27.4768 210.185 40.2308 214.29 54.7201H291.06Z" fill="#202067"/>
<path d="M291 54.62V116.12H4.3V54.62H81.07C85.1752 40.1307 93.8964 27.3767 105.909 18.2946C117.922 9.21253 132.57 4.2984 147.63 4.2984C162.69 4.2984 177.338 9.21253 189.351 18.2946C201.364 27.3767 210.085 40.1307 214.19 54.62H291Z" fill="#202067"/>
<path d="M290.86 54.52V116H4.2V54.52H81C85.1052 40.0307 93.8264 27.2768 105.839 18.1947C117.852 9.11256 132.5 4.19843 147.56 4.19843C162.62 4.19843 177.268 9.11256 189.281 18.1947C201.294 27.2768 210.015 40.0307 214.12 54.52H290.86Z" fill="#202067"/>
<path d="M290.76 54.42V115.92H4.10001V54.42H80.87C84.9753 39.9307 93.6964 27.1767 105.709 18.0946C117.722 9.01252 132.37 4.09839 147.43 4.09839C162.49 4.09839 177.138 9.01252 189.151 18.0946C201.164 27.1767 209.885 39.9307 213.99 54.42H290.76Z" fill="#202067"/>
<path d="M290.66 54.32V115.82H4V54.32H80.77C84.8752 39.8307 93.5964 27.0768 105.609 17.9946C117.622 8.91254 132.27 3.99841 147.33 3.99841C162.39 3.99841 177.038 8.91254 189.051 17.9946C201.064 27.0768 209.785 39.8307 213.89 54.32H290.66Z" fill="#202067"/>
<path d="M290.56 54.2201V115.72H3.89999V54.2201H80.67C84.7752 39.7308 93.4964 26.9768 105.509 17.8947C117.522 8.81257 132.17 3.89844 147.23 3.89844C162.29 3.89844 176.938 8.81257 188.951 17.8947C200.964 26.9768 209.685 39.7308 213.79 54.2201H290.56Z" fill="#202067"/>
<path d="M290.46 54.12V115.62H3.8V54.12H80.57C84.6752 39.6307 93.3964 26.8767 105.409 17.7946C117.422 8.71253 132.07 3.7984 147.13 3.7984C162.19 3.7984 176.838 8.71253 188.851 17.7946C200.864 26.8767 209.585 39.6307 213.69 54.12H290.46Z" fill="#202067"/>
<path d="M290.36 54V115.5H3.7V54H80.47C84.5752 39.5107 93.2964 26.7567 105.309 17.6746C117.322 8.59254 131.97 3.67841 147.03 3.67841C162.09 3.67841 176.738 8.59254 188.751 17.6746C200.764 26.7567 209.485 39.5107 213.59 54H290.36Z" fill="#202067"/>
<path d="M290.26 53.92V115.42H3.60001V53.92H80.37C84.4753 39.4307 93.1964 26.6767 105.209 17.5946C117.222 8.51252 131.87 3.59839 146.93 3.59839C161.99 3.59839 176.638 8.51252 188.651 17.5946C200.664 26.6767 209.385 39.4307 213.49 53.92H290.26Z" fill="#202067"/>
<path d="M290.16 53.82V115.32H3.5V53.82H80.27C84.3752 39.3307 93.0964 26.5768 105.109 17.4946C117.122 8.41254 131.77 3.49841 146.83 3.49841C161.89 3.49841 176.538 8.41254 188.551 17.4946C200.564 26.5768 209.285 39.3307 213.39 53.82H290.16Z" fill="#202067"/>
<path d="M290.06 53.7201V115.22H3.39999V53.7201H80.17C84.2752 39.2308 92.9964 26.4768 105.009 17.3947C117.022 8.31257 131.67 3.39844 146.73 3.39844C161.79 3.39844 176.438 8.31257 188.451 17.3947C200.464 26.4768 209.185 39.2308 213.29 53.7201H290.06Z" fill="#202067"/>
<path d="M290 53.62V115.12H3.3V53.62H80.07C84.1752 39.1307 92.8964 26.3767 104.909 17.2946C116.922 8.21253 131.57 3.2984 146.63 3.2984C161.69 3.2984 176.338 8.21253 188.351 17.2946C200.364 26.3767 209.085 39.1307 213.19 53.62H290Z" fill="#202067"/>
<path d="M289.86 53.52V115H3.2V53.52H80C84.1052 39.0307 92.8264 26.2768 104.839 17.1947C116.852 8.11256 131.5 3.19843 146.56 3.19843C161.62 3.19843 176.268 8.11256 188.281 17.1947C200.294 26.2768 209.015 39.0307 213.12 53.52H289.86Z" fill="#202067"/>
<path d="M289.76 53.42V114.92H3.10001V53.42H79.87C83.9753 38.9307 92.6964 26.1767 104.709 17.0946C116.722 8.01252 131.37 3.09839 146.43 3.09839C161.49 3.09839 176.138 8.01252 188.151 17.0946C200.164 26.1767 208.885 38.9307 212.99 53.42H289.76Z" fill="#202067"/>
<path d="M289.66 53.32V114.82H3V53.32H79.77C83.8752 38.8307 92.5964 26.0768 104.609 16.9946C116.622 7.91254 131.27 2.99841 146.33 2.99841C161.39 2.99841 176.038 7.91254 188.051 16.9946C200.064 26.0768 208.785 38.8307 212.89 53.32H289.66Z" fill="#202067"/>
<path d="M289.56 53.2201V114.72H2.89999V53.2201H79.67C83.7752 38.7308 92.4964 25.9768 104.509 16.8947C116.522 7.81257 131.17 2.89844 146.23 2.89844C161.29 2.89844 175.938 7.81257 187.951 16.8947C199.964 25.9768 208.685 38.7308 212.79 53.2201H289.56Z" fill="#202067"/>
<path d="M289.46 53.12V114.62H2.8V53.12H79.57C83.6752 38.6307 92.3964 25.8767 104.409 16.7946C116.422 7.71253 131.07 2.7984 146.13 2.7984C161.19 2.7984 175.838 7.71253 187.851 16.7946C199.864 25.8767 208.585 38.6307 212.69 53.12H289.46Z" fill="#202067"/>
<path d="M289.36 53V114.5H2.7V53H79.47C83.5752 38.5107 92.2964 25.7567 104.309 16.6746C116.322 7.59254 130.97 2.67841 146.03 2.67841C161.09 2.67841 175.738 7.59254 187.751 16.6746C199.764 25.7567 208.485 38.5107 212.59 53H289.36Z" fill="#202067"/>
<path d="M289.26 52.92V114.42H2.60001V52.92H79.37C83.4753 38.4307 92.1964 25.6767 104.209 16.5946C116.222 7.51252 130.87 2.59839 145.93 2.59839C160.99 2.59839 175.638 7.51252 187.651 16.5946C199.664 25.6767 208.385 38.4307 212.49 52.92H289.26Z" fill="#202067"/>
<path d="M289.16 52.82V114.32H2.5V52.82H79.27C83.3752 38.3307 92.0964 25.5768 104.109 16.4946C116.122 7.41254 130.77 2.49841 145.83 2.49841C160.89 2.49841 175.538 7.41254 187.551 16.4946C199.564 25.5768 208.285 38.3307 212.39 52.82H289.16Z" fill="#202067"/>
<path d="M289.06 52.7201V114.22H2.39999V52.7201H79.17C83.2752 38.2308 91.9964 25.4768 104.009 16.3947C116.022 7.31257 130.67 2.39844 145.73 2.39844C160.79 2.39844 175.438 7.31257 187.451 16.3947C199.464 25.4768 208.185 38.2308 212.29 52.7201H289.06Z" fill="#202067"/>
<path d="M289 52.62V114.12H2.3V52.62H79.07C83.1752 38.1307 91.8964 25.3767 103.909 16.2946C115.922 7.21253 130.57 2.2984 145.63 2.2984C160.69 2.2984 175.338 7.21253 187.351 16.2946C199.364 25.3767 208.085 38.1307 212.19 52.62H289Z" fill="#202067"/>
<path d="M288.86 52.52V114H2.2V52.52H79C83.1052 38.0307 91.8264 25.2768 103.839 16.1947C115.852 7.11256 130.5 2.19843 145.56 2.19843C160.62 2.19843 175.268 7.11256 187.281 16.1947C199.294 25.2768 208.015 38.0307 212.12 52.52H288.86Z" fill="#202067"/>
<path d="M288.76 52.42V113.92H2.10001V52.42H78.87C82.9753 37.9307 91.6964 25.1767 103.709 16.0946C115.722 7.01252 130.37 2.09839 145.43 2.09839C160.49 2.09839 175.138 7.01252 187.151 16.0946C199.164 25.1767 207.885 37.9307 211.99 52.42H288.76Z" fill="#202067"/>
<path d="M288.66 52.32V113.82H2V52.32H78.77C82.8752 37.8307 91.5964 25.0768 103.609 15.9946C115.622 6.91255 130.27 1.99841 145.33 1.99841C160.39 1.99841 175.038 6.91255 187.051 15.9946C199.064 25.0768 207.785 37.8307 211.89 52.32H288.66Z" fill="#202067"/>
<path d="M288.56 52.2201V113.72H1.89999V52.2201H78.67C82.7752 37.7308 91.4964 24.9768 103.509 15.8947C115.522 6.81257 130.17 1.89844 145.23 1.89844C160.29 1.89844 174.938 6.81257 186.951 15.8947C198.964 24.9768 207.685 37.7308 211.79 52.2201H288.56Z" fill="#202067"/>
<path d="M288.46 52.12V113.62H1.8V52.12H78.57C82.6752 37.6307 91.3964 24.8767 103.409 15.7946C115.422 6.71253 130.07 1.7984 145.13 1.7984C160.19 1.7984 174.838 6.71253 186.851 15.7946C198.864 24.8767 207.585 37.6307 211.69 52.12H288.46Z" fill="#202067"/>
<path d="M288.36 52V113.5H1.7V52H78.47C82.5752 37.5107 91.2964 24.7567 103.309 15.6746C115.322 6.59254 129.97 1.67841 145.03 1.67841C160.09 1.67841 174.738 6.59254 186.751 15.6746C198.764 24.7567 207.485 37.5107 211.59 52H288.36Z" fill="#202067"/>
<path d="M288.26 51.92V113.42H1.60001V51.92H78.37C82.4753 37.4307 91.1964 24.6767 103.209 15.5946C115.222 6.51252 129.87 1.59839 144.93 1.59839C159.99 1.59839 174.638 6.51252 186.651 15.5946C198.664 24.6767 207.385 37.4307 211.49 51.92H288.26Z" fill="#202067"/>
<path d="M288.16 51.82V113.32H1.5V51.82H78.27C82.3752 37.3307 91.0964 24.5768 103.109 15.4946C115.122 6.41255 129.77 1.49841 144.83 1.49841C159.89 1.49841 174.538 6.41255 186.551 15.4946C198.564 24.5768 207.285 37.3307 211.39 51.82H288.16Z" fill="#202067"/>
<path d="M288.06 51.7201V113.22H1.39999V51.7201H78.17C82.2752 37.2308 90.9964 24.4768 103.009 15.3947C115.022 6.31257 129.67 1.39844 144.73 1.39844C159.79 1.39844 174.438 6.31257 186.451 15.3947C198.464 24.4768 207.185 37.2308 211.29 51.7201H288.06Z" fill="#202067"/>
<path d="M288 51.62V113.12H1.3V51.62H78.07C82.1752 37.1307 90.8964 24.3767 102.909 15.2946C114.922 6.21253 129.57 1.2984 144.63 1.2984C159.69 1.2984 174.338 6.21253 186.351 15.2946C198.364 24.3767 207.085 37.1307 211.19 51.62H288Z" fill="#202067"/>
<path d="M287.86 51.52V113H1.2V51.52H78C82.1052 37.0307 90.8264 24.2768 102.839 15.1947C114.852 6.11256 129.5 1.19843 144.56 1.19843C159.62 1.19843 174.268 6.11256 186.281 15.1947C198.294 24.2768 207.015 37.0307 211.12 51.52H287.86Z" fill="#202067"/>
<path d="M287.76 51.42V112.92H1.10001V51.42H77.87C81.9753 36.9307 90.6964 24.1767 102.709 15.0946C114.722 6.01252 129.37 1.09839 144.43 1.09839C159.49 1.09839 174.138 6.01252 186.151 15.0946C198.164 24.1767 206.885 36.9307 210.99 51.42H287.76Z" fill="#202067"/>
<path d="M287.66 51.32V112.82H1V51.32H77.77C81.8752 36.8307 90.5964 24.0768 102.609 14.9946C114.622 5.91255 129.27 0.998413 144.33 0.998413C159.39 0.998413 174.038 5.91255 186.051 14.9946C198.064 24.0768 206.785 36.8307 210.89 51.32H287.66Z" fill="#202067"/>
<path d="M287.56 51.2201V112.72H0.899994V51.2201H77.67C81.7752 36.7308 90.4964 23.9768 102.509 14.8947C114.522 5.81257 129.17 0.898438 144.23 0.898438C159.29 0.898438 173.938 5.81257 185.951 14.8947C197.964 23.9768 206.685 36.7308 210.79 51.2201H287.56Z" fill="#202067"/>
<path d="M287.46 51.12V112.62H0.800003V51.12H77.57C81.6752 36.6307 90.3964 23.8767 102.409 14.7946C114.422 5.71253 129.07 0.798401 144.13 0.798401C159.19 0.798401 173.838 5.71253 185.851 14.7946C197.864 23.8767 206.585 36.6307 210.69 51.12H287.46Z" fill="#202067"/>
<path d="M287.36 51V112.5H0.699997V51H77.47C81.5752 36.5107 90.2964 23.7567 102.309 14.6746C114.322 5.59254 128.97 0.678406 144.03 0.678406C159.09 0.678406 173.738 5.59254 185.751 14.6746C197.764 23.7567 206.485 36.5107 210.59 51H287.36Z" fill="#202067"/>
<path d="M287.26 50.92V112.42H0.600006V50.92H77.37C81.4753 36.4307 90.1964 23.6767 102.209 14.5946C114.222 5.51252 128.87 0.598389 143.93 0.598389C158.99 0.598389 173.638 5.51252 185.651 14.5946C197.664 23.6767 206.385 36.4307 210.49 50.92H287.26Z" fill="#202067"/>
<path d="M287.16 50.82V112.32H0.5V50.82H77.27C81.3752 36.3307 90.0964 23.5768 102.109 14.4946C114.122 5.41255 128.77 0.498413 143.83 0.498413C158.89 0.498413 173.538 5.41255 185.551 14.4946C197.564 23.5768 206.285 36.3307 210.39 50.82H287.16Z" fill="#202067"/>
<path d="M287.06 50.7201V112.22H0.399994V50.7201H77.17C81.2752 36.2308 89.9964 23.4768 102.009 14.3947C114.022 5.31257 128.67 0.398438 143.73 0.398438C158.79 0.398438 173.438 5.31257 185.451 14.3947C197.464 23.4768 206.185 36.2308 210.29 50.7201H287.06Z" fill="#202067"/>
<path d="M287 50.62V112.12H0.300003V50.62H77.07C81.1752 36.1307 89.8964 23.3767 101.909 14.2946C113.922 5.21253 128.57 0.298401 143.63 0.298401C158.69 0.298401 173.338 5.21253 185.351 14.2946C197.364 23.3767 206.085 36.1307 210.19 50.62H287Z" fill="#202067"/>
<path d="M286.86 50.52V112H0.199997V50.52H77C81.1052 36.0307 89.8264 23.2768 101.839 14.1947C113.852 5.11256 128.5 0.198425 143.56 0.198425C158.62 0.198425 173.268 5.11256 185.281 14.1947C197.294 23.2768 206.015 36.0307 210.12 50.52H286.86Z" fill="#202067"/>
<path d="M286.76 50.42V111.92H0.100006V50.42H76.87C80.9753 35.9307 89.6964 23.1767 101.709 14.0946C113.722 5.01252 128.37 0.0983887 143.43 0.0983887C158.49 0.0983887 173.138 5.01252 185.151 14.0946C197.164 23.1767 205.885 35.9307 209.99 50.42H286.76Z" fill="#202067"/>
<path d="M286.66 50.32V111.82H0V50.32H76.77C80.8752 35.8307 89.5964 23.0768 101.609 13.9946C113.622 4.91255 128.27 -0.00158691 143.33 -0.00158691C158.39 -0.00158691 173.038 4.91255 185.051 13.9946C197.064 23.0768 205.785 35.8307 209.89 50.32H286.66Z" fill="#202067"/>
<path d="M286.66 50.32V111.82H0V50.32H76.77C80.8752 35.8307 89.5964 23.0768 101.609 13.9946C113.622 4.91255 128.27 -0.00158691 143.33 -0.00158691C158.39 -0.00158691 173.038 4.91255 185.051 13.9946C197.064 23.0768 205.785 35.8307 209.89 50.32H286.66Z" fill="#C0EAFD"/>
<path d="M192 27.48C191.271 33.0732 188.937 38.3354 185.28 42.63C183.413 44.8136 181.131 46.6046 178.566 47.8989C176.002 49.1933 173.205 49.9653 170.34 50.17C165.089 50.7167 159.784 49.9398 154.91 47.91C150.568 46.2268 146.916 43.1351 144.54 39.13C142.256 41.9693 139.559 44.4501 136.54 46.49C133.113 48.63 129.211 49.8938 125.18 50.17C116.947 50.8367 110.317 48.96 105.29 44.54C100.743 40.58 97.7933 34.8934 96.44 27.48C97.7959 29.7603 99.8766 31.5207 102.35 32.48C104.829 33.4016 107.567 33.3371 110 32.3C111.013 31.9 114.347 29.6467 120 25.54C124.08 22.5734 128.03 21.2167 131.85 21.47C135.569 21.8195 139.076 23.359 141.85 25.86C142.299 26.2571 142.723 26.6812 143.12 27.13C143.418 27.4971 143.753 27.8323 144.12 28.13C144.35 28.13 144.98 27.63 145.99 26.64L147.87 24.77C151.068 22.2855 155.085 21.0965 159.12 21.44C162.26 21.7267 166.177 23.7267 170.87 27.44C172.558 28.8012 174.32 30.0665 176.15 31.23C177.857 32.3029 179.8 32.9446 181.81 33.1C183.874 33.275 185.943 32.8346 187.757 31.8344C189.57 30.8341 191.047 29.3189 192 27.48Z" fill="#202067"/>
<path d="M40.27 93.4701L39.4 74.81L35.4 93.4701H27.1L22.49 76L22.28 93H13.97V61.55L19.97 61.92L26.33 62.1301L31 78.84L34.16 61.84H47.16L48.62 93.14L40.27 93.4701Z" fill="#202067"/>
<path d="M65.34 71.75C66.3041 72.2563 67.1521 72.9579 67.83 73.81L65 80.25C64.6364 79.7204 64.1454 79.2908 63.5722 79.0008C62.999 78.7107 62.3621 78.5694 61.72 78.59C61.0713 78.547 60.4224 78.6715 59.8357 78.9517C59.249 79.2319 58.7443 79.6584 58.37 80.19C57.498 81.7852 57.0633 83.5826 57.11 85.4V93.4H49.33V71.23H57.07V73.14C57.8226 72.4753 58.6856 71.9473 59.62 71.58C60.5259 71.2117 61.4923 71.0151 62.47 71C63.4727 71.018 64.4567 71.2751 65.34 71.75Z" fill="#202067"/>
<path d="M65.25 92.1001C64.3855 91.1762 63.9093 89.9553 63.92 88.6901C63.9116 87.8306 64.1512 86.9869 64.61 86.2601C65.0492 85.54 65.6655 84.9445 66.4 84.5301C67.1109 84.1186 67.9187 83.9046 68.74 83.9101C69.3074 83.8993 69.871 84.0036 70.397 84.2168C70.9229 84.4299 71.4002 84.7474 71.8 85.1501C72.2294 85.5961 72.5635 86.125 72.7818 86.7044C73.0001 87.2838 73.0982 87.9015 73.07 88.52C73.1036 89.8293 72.6511 91.1046 71.8 92.1001C71.4057 92.567 70.9118 92.9396 70.3546 93.1905C69.7973 93.4414 69.191 93.5643 68.58 93.5501C67.9531 93.5639 67.3306 93.4414 66.7556 93.1911C66.1807 92.9407 65.667 92.5685 65.25 92.1001Z" fill="#202067"/>
<path d="M112 93.4701L111.13 74.81L107.13 93.4701H98.79L94.18 76L94 93H85.69V61.55L91.69 61.92L98.04 62.1301L102.7 78.84L105.86 61.84H118.86L120.31 93.14L112 93.4701Z" fill="#202067"/>
<path d="M143.43 71.19V93.19H135.54V91.19C134.801 91.9855 133.891 92.6042 132.88 93C131.772 93.4644 130.581 93.6992 129.38 93.69C128.156 93.7715 126.931 93.5548 125.809 93.0584C124.687 92.5619 123.703 91.8007 122.94 90.84C121.5 88.94 120.807 86.1634 120.86 82.51L121 71.11H128.69V82.11C128.623 83.0788 128.927 84.0368 129.54 84.79C129.892 85.1207 130.309 85.374 130.765 85.5337C131.22 85.6934 131.705 85.7559 132.186 85.7173C132.667 85.6787 133.135 85.5397 133.559 85.3094C133.984 85.0791 134.355 84.7625 134.65 84.38C135.34 83.3725 135.691 82.1707 135.65 80.95V71.14L143.43 71.19Z" fill="#202067"/>
<path d="M160.72 78.88C159.663 78.2719 158.551 77.7631 157.4 77.36C156.502 77.0522 155.56 76.8902 154.61 76.88C153.907 76.8572 153.208 76.9869 152.56 77.26C152.02 77.51 151.74 77.83 151.74 78.21C151.74 78.91 152.74 79.21 154.65 79.21C156.971 79.0783 159.277 79.6574 161.26 80.87C162.016 81.3742 162.631 82.0633 163.046 82.8719C163.46 83.6805 163.662 84.5818 163.63 85.49C163.632 86.9818 163.143 88.4328 162.24 89.62C161.259 90.9125 159.975 91.943 158.5 92.62C156.896 93.3759 155.143 93.7588 153.37 93.74C151.575 93.7533 149.794 93.4135 148.13 92.74C146.614 92.1644 145.259 91.2313 144.18 90.02L148.38 85.28C149.052 85.8643 149.825 86.3217 150.66 86.63C151.498 86.9453 152.385 87.1079 153.28 87.11C154.031 87.1317 154.776 86.9812 155.46 86.67C156.06 86.38 156.36 86.03 156.36 85.61C156.355 85.4455 156.295 85.2873 156.19 85.1605C156.085 85.0337 155.941 84.9456 155.78 84.91C155.129 84.7353 154.454 84.6644 153.78 84.7C153.53 84.7204 153.28 84.7204 153.03 84.7C151.668 84.7048 150.325 84.3861 149.11 83.77C147.917 83.1917 146.886 82.3257 146.11 81.25C145.344 80.2359 144.943 78.9928 144.972 77.7222C145.001 76.4517 145.459 75.2282 146.27 74.25C147.19 73.0946 148.373 72.1758 149.72 71.57C151.15 70.9002 152.711 70.5585 154.29 70.57C155.952 70.5928 157.595 70.9322 159.13 71.57C160.748 72.1965 162.247 73.0962 163.56 74.23L160.72 78.88Z" fill="#202067"/>
<path d="M182.46 89.89C181.624 91.1648 180.469 92.199 179.11 92.89C177.609 93.5897 175.966 93.932 174.31 93.89C171.79 93.89 169.907 93.2467 168.66 91.96C167.413 90.6734 166.79 88.6034 166.79 85.75C166.806 84.6938 166.876 83.6391 167 82.59L167.58 77.81H164.3L164 71.23L168.4 71.15L168.98 66.28L176.38 65.91L175.8 71.06L180.45 70.98L181.24 77.76H175L174.58 81.5C174.58 82 174.5 82.36 174.5 82.58C174.453 83.4946 174.668 84.4035 175.12 85.2C175.284 85.5004 175.525 85.7515 175.819 85.9273C176.112 86.1032 176.448 86.1973 176.79 86.2C177.43 86.2146 178.063 86.0556 178.62 85.74C179.289 85.3044 179.878 84.7564 180.36 84.12L182.46 89.89Z" fill="#202067"/>
<path d="M198.34 93.38L198.29 91.43C197.471 92.1238 196.527 92.6565 195.51 93C194.415 93.3864 193.261 93.5826 192.1 93.58C190.28 93.5745 188.504 93.0242 187 92C185.437 90.9757 184.163 89.5675 183.3 87.91C182.412 86.1718 181.965 84.2416 182 82.29C181.977 80.301 182.463 78.3391 183.41 76.59C184.321 74.9055 185.674 73.5007 187.323 72.5265C188.972 71.5523 190.855 71.0453 192.77 71.06C193.812 71.0521 194.846 71.2386 195.82 71.61C196.697 71.9161 197.489 72.4269 198.13 73.1V71.31H205L205.95 93.38H198.34ZM195.59 86C196.256 85.5509 196.799 84.9424 197.17 84.23C197.556 83.507 197.755 82.6994 197.75 81.88C197.766 81.3571 197.677 80.8363 197.488 80.3485C197.299 79.8607 197.014 79.4157 196.65 79.04C196.298 78.6638 195.869 78.3668 195.394 78.1685C194.918 77.9703 194.405 77.8753 193.89 77.89C192.695 77.8789 191.544 78.3429 190.69 79.18C190.255 79.5657 189.907 80.0402 189.671 80.5715C189.435 81.1028 189.315 81.6786 189.32 82.26C189.329 83.0073 189.536 83.7389 189.92 84.38C190.306 85.0518 190.848 85.6211 191.5 86.04C192.094 86.4334 192.788 86.6485 193.5 86.66C194.248 86.6574 194.977 86.4272 195.59 86Z" fill="#202067"/>
<path d="M211.72 92.07C209.989 91.0241 208.556 89.5502 207.56 87.79C206.532 86.034 205.994 84.0347 206 82C205.985 80.0477 206.483 78.1256 207.443 76.4254C208.402 74.7252 209.791 73.3063 211.47 72.31C213.148 71.336 215.06 70.8349 217 70.86C218.838 70.8665 220.65 71.2905 222.3 72.1C223.953 72.8751 225.399 74.0298 226.52 75.47C227.565 76.7514 228.15 78.3467 228.18 80L221.18 80.63C220.956 79.8525 220.481 79.1707 219.83 78.69C219.202 78.2179 218.436 77.9649 217.65 77.97C217.094 77.9647 216.543 78.0698 216.028 78.2792C215.513 78.4887 215.044 78.7983 214.65 79.19C214.252 79.542 213.933 79.9745 213.714 80.4588C213.495 80.9432 213.381 81.4685 213.38 82C213.396 82.7114 213.611 83.4041 214 84C214.413 84.6634 214.979 85.2188 215.65 85.62C216.272 86.0252 216.997 86.2438 217.74 86.25C218.474 86.2466 219.19 86.0275 219.8 85.62C220.416 85.2505 220.902 84.6982 221.19 84.04L228.09 84.71C228.07 86.2904 227.52 87.8184 226.53 89.05C225.441 90.4454 224.052 91.5786 222.467 92.3661C220.882 93.1536 219.14 93.5752 217.37 93.6C215.38 93.6305 213.422 93.1002 211.72 92.07Z" fill="#202067"/>
<path d="M244.68 93.38V81.75C244.712 81.2474 244.64 80.7437 244.468 80.2704C244.296 79.7971 244.027 79.3646 243.68 79C242.906 78.3063 241.888 77.9469 240.85 78C239.924 77.9753 239.017 78.2656 238.278 78.8233C237.539 79.381 237.011 80.1731 236.78 81.07L236.95 93.33L229.13 93.21L228.55 59.87H236.45L236.65 73.8C237.554 72.8099 238.663 72.0285 239.9 71.51C241.159 70.9473 242.521 70.6511 243.9 70.64C245.064 70.5965 246.222 70.8262 247.281 71.3107C248.341 71.7952 249.272 72.521 250 73.43C251.612 75.5997 252.425 78.2599 252.3 80.96L252.39 93.38H244.68Z" fill="#202067"/>
<path d="M272.07 74.1C273.983 76.1 274.937 78.8567 274.93 82.37C274.93 82.95 274.93 83.37 274.93 83.7L260.22 83.87C260.512 84.7164 260.986 85.488 261.61 86.13C262.162 86.7126 262.91 87.069 263.71 87.13C265.93 87.29 267.53 86.64 268.53 85.13L274.48 86.84C274.095 88.1675 273.38 89.3753 272.4 90.35C271.353 91.4036 270.1 92.2307 268.72 92.78C267.314 93.3559 265.809 93.6514 264.29 93.65C264.014 93.6692 263.736 93.6692 263.46 93.65C261.557 93.5149 259.726 92.8689 258.16 91.78C256.535 90.6657 255.209 89.1682 254.3 87.42C253.336 85.6039 252.841 83.5759 252.86 81.52C252.854 81.1859 252.871 80.8519 252.91 80.52C252.996 78.7609 253.579 77.0621 254.59 75.62C255.609 74.1697 256.988 73.0085 258.59 72.25C260.28 71.4488 262.13 71.0419 264 71.06C267.47 71.06 270.15 72.08 272.07 74.1ZM260.22 78.8H267.22C267.147 78.0691 266.787 77.3968 266.22 76.93C265.699 76.4885 265.051 76.2257 264.37 76.18C263.48 76.0515 262.573 76.2447 261.812 76.7249C261.051 77.2052 260.487 77.9409 260.22 78.8Z" fill="#202067"/>
</g>
<defs>
<clipPath id="clip0_0_10038">
<rect width="296.66" height="121.82" fill="white"/>
</clipPath>
</defs>
</svg>
